solid OpenSCAD_Model
  facet normal 1 0 0
    outer loop
      vertex -17.51 -4.1 4
      vertex -17.51 4.1 4
      vertex -17.51 -4.1 5.2
    endloop
  endfacet
  facet normal 0 0 1
    outer loop
      vertex -17.51 -4.1 4
      vertex 17.51 -4.1 4
      vertex -17.51 4.1 4
    endloop
  endfacet
  facet normal 0 -1 0
    outer loop
      vertex -17.51 -4.1 4
      vertex 20.66 -4.1 0
      vertex 17.51 -4.1 4
    endloop
  endfacet
  facet normal 1 0 0
    outer loop
      vertex -17.51 -4.1 5.2
      vertex -17.51 4.1 4
      vertex -17.51 4.1 5.2
    endloop
  endfacet
  facet normal 0 0 1
    outer loop
      vertex -17.51 4.1 4
      vertex 17.51 -4.1 4
      vertex 17.51 4.1 4
    endloop
  endfacet
  facet normal 0 1 0
    outer loop
      vertex -17.51 4.1 4
      vertex 17.51 4.1 4
      vertex 20.66 4.1 0
    endloop
  endfacet
  facet normal 0 0 -1
    outer loop
      vertex -18.7286 0 0
      vertex 18.9199 -0.837986 0
      vertex 20.2302 -1.88294 0
    endloop
  endfacet
  facet normal 0 0 -1
    outer loop
      vertex -18.7286 0 0
      vertex 18.9199 0.837986 0
      vertex 18.9199 -0.837986 0
    endloop
  endfacet
  facet normal 0 0 -1
    outer loop
      vertex -18.7286 0 0
      vertex 20.2302 -1.88294 0
      vertex 24.034 -2.329 0
    endloop
  endfacet
  facet normal 0 0 -1
    outer loop
      vertex -18.7286 0 0
      vertex 20.2302 1.88294 0
      vertex 18.9199 0.837986 0
    endloop
  endfacet
  facet normal 0 0 -1
    outer loop
      vertex -18.7286 0 0
      vertex 21.154 -4.07 0
      vertex 20.66 -4.1 0
    endloop
  endfacet
  facet normal 0 0 -1
    outer loop
      vertex -18.7286 0 0
      vertex 21.641 -3.981 0
      vertex 21.154 -4.07 0
    endloop
  endfacet
  facet normal 0 0 -1
    outer loop
      vertex -18.7286 0 0
      vertex 22.114 -3.834 0
      vertex 21.641 -3.981 0
    endloop
  endfacet
  facet normal 0 0 -1
    outer loop
      vertex -18.7286 0 0
      vertex 22.565 -3.63 0
      vertex 22.114 -3.834 0
    endloop
  endfacet
  facet normal 0 0 -1
    outer loop
      vertex -18.7286 0 0
      vertex 22.565 3.63 0
      vertex 22.989 3.374 0
    endloop
  endfacet
  facet normal 0 0 -1
    outer loop
      vertex -18.7286 0 0
      vertex 22.989 -3.374 0
      vertex 22.565 -3.63 0
    endloop
  endfacet
  facet normal 0 0 -1
    outer loop
      vertex -18.7286 0 0
      vertex 22.989 3.374 0
      vertex 23.379 3.069 0
    endloop
  endfacet
  facet normal 0 0 -1
    outer loop
      vertex -18.7286 0 0
      vertex 23.379 -3.069 0
      vertex 22.989 -3.374 0
    endloop
  endfacet
  facet normal 0 0 -1
    outer loop
      vertex -18.7286 0 0
      vertex 23.379 3.069 0
      vertex 23.729 2.719 0
    endloop
  endfacet
  facet normal 0 0 -1
    outer loop
      vertex -18.7286 0 0
      vertex 23.729 -2.719 0
      vertex 23.379 -3.069 0
    endloop
  endfacet
  facet normal 0 0 -1
    outer loop
      vertex -18.7286 0 0
      vertex 23.729 2.719 0
      vertex 24.034 2.329 0
    endloop
  endfacet
  facet normal 0 0 -1
    outer loop
      vertex -18.7286 0 0
      vertex 24.034 -2.329 0
      vertex 23.729 -2.719 0
    endloop
  endfacet
  facet normal 0 0 -1
    outer loop
      vertex -18.7286 0 0
      vertex 24.034 2.329 0
      vertex 20.2302 1.88294 0
    endloop
  endfacet
  facet normal 0 0 1
    outer loop
      vertex -18.7286 0 5.2
      vertex -17.51 -4.1 5.2
      vertex -17.51 4.1 5.2
    endloop
  endfacet
  facet normal 0 0 -1
    outer loop
      vertex -19.4558 -1.51 0
      vertex -18.7286 0 0
      vertex 20.66 -4.1 0
    endloop
  endfacet
  facet normal -0.900969 0.433884 0
    outer loop
      vertex -19.4558 -1.51 0
      vertex -19.4558 -1.51 5.2
      vertex -18.7286 0 0
    endloop
  endfacet
  facet normal 0 0 1
    outer loop
      vertex -19.4558 -1.51 5.2
      vertex -17.51 -4.1 5.2
      vertex -18.7286 0 5.2
    endloop
  endfacet
  facet normal -0.900969 0.433884 0
    outer loop
      vertex -19.4558 -1.51 5.2
      vertex -18.7286 0 5.2
      vertex -18.7286 0 0
    endloop
  endfacet
  facet normal -0.900969 -0.433884 0
    outer loop
      vertex -19.4558 1.51 0
      vertex -18.7286 0 0
      vertex -19.4558 1.51 5.2
    endloop
  endfacet
  facet normal 0 0 -1
    outer loop
      vertex -19.4558 1.51 0
      vertex 20.66 4.1 0
      vertex 21.154 4.07 0
    endloop
  endfacet
  facet normal 0 0 -1
    outer loop
      vertex -19.4558 1.51 0
      vertex 21.154 4.07 0
      vertex 21.641 3.981 0
    endloop
  endfacet
  facet normal 0 0 -1
    outer loop
      vertex -19.4558 1.51 0
      vertex 21.641 3.981 0
      vertex 22.114 3.834 0
    endloop
  endfacet
  facet normal 0 0 -1
    outer loop
      vertex -19.4558 1.51 0
      vertex 22.114 3.834 0
      vertex 22.565 3.63 0
    endloop
  endfacet
  facet normal 0 0 -1
    outer loop
      vertex -19.4558 1.51 0
      vertex 22.565 3.63 0
      vertex -18.7286 0 0
    endloop
  endfacet
  facet normal -0.900969 -0.433884 0
    outer loop
      vertex -19.4558 1.51 5.2
      vertex -18.7286 0 0
      vertex -18.7286 0 5.2
    endloop
  endfacet
  facet normal 0 0 1
    outer loop
      vertex -19.4558 1.51 5.2
      vertex -18.7286 0 5.2
      vertex -17.51 4.1 5.2
    endloop
  endfacet
  facet normal 0 -1 0
    outer loop
      vertex -20.66 -4.1 0
      vertex -17.51 -4.1 4
      vertex -20.66 -4.1 5.2
    endloop
  endfacet
  facet normal 0 -1 0
    outer loop
      vertex -20.66 -4.1 0
      vertex 20.66 -4.1 0
      vertex -17.51 -4.1 4
    endloop
  endfacet
  facet normal 0 -1 0
    outer loop
      vertex -20.66 -4.1 5.2
      vertex -17.51 -4.1 4
      vertex -17.51 -4.1 5.2
    endloop
  endfacet
  facet normal 0 1 0
    outer loop
      vertex -20.66 4.1 0
      vertex -17.51 4.1 4
      vertex 20.66 4.1 0
    endloop
  endfacet
  facet normal 0 1 0
    outer loop
      vertex -20.66 4.1 0
      vertex -20.66 4.1 5.2
      vertex -17.51 4.1 4
    endloop
  endfacet
  facet normal 0 0 -1
    outer loop
      vertex -20.66 4.1 0
      vertex 20.66 4.1 0
      vertex -19.4558 1.51 0
    endloop
  endfacet
  facet normal 0 1 0
    outer loop
      vertex -20.66 4.1 5.2
      vertex -17.51 4.1 5.2
      vertex -17.51 4.1 4
    endloop
  endfacet
  facet normal 0 0 -1
    outer loop
      vertex -21.0898 -1.88294 0
      vertex -19.4558 -1.51 0
      vertex 20.66 -4.1 0
    endloop
  endfacet
  facet normal -0.222522 0.974928 0
    outer loop
      vertex -21.0898 -1.88294 0
      vertex -21.0898 -1.88294 5.2
      vertex -19.4558 -1.51 0
    endloop
  endfacet
  facet normal 0 0 -1
    outer loop
      vertex -21.0898 -1.88294 0
      vertex 20.66 -4.1 0
      vertex -20.66 -4.1 0
    endloop
  endfacet
  facet normal 0 0 1
    outer loop
      vertex -21.0898 -1.88294 5.2
      vertex -17.51 -4.1 5.2
      vertex -19.4558 -1.51 5.2
    endloop
  endfacet
  facet normal -0.222522 0.974928 0
    outer loop
      vertex -21.0898 -1.88294 5.2
      vertex -19.4558 -1.51 5.2
      vertex -19.4558 -1.51 0
    endloop
  endfacet
  facet normal 0 0 1
    outer loop
      vertex -21.0898 -1.88294 5.2
      vertex -20.66 -4.1 5.2
      vertex -17.51 -4.1 5.2
    endloop
  endfacet
  facet normal -0.222522 -0.974928 0
    outer loop
      vertex -21.0898 1.88294 0
      vertex -19.4558 1.51 0
      vertex -21.0898 1.88294 5.2
    endloop
  endfacet
  facet normal 0 0 -1
    outer loop
      vertex -21.0898 1.88294 0
      vertex -20.66 4.1 0
      vertex -19.4558 1.51 0
    endloop
  endfacet
  facet normal -0.222522 -0.974928 0
    outer loop
      vertex -21.0898 1.88294 5.2
      vertex -19.4558 1.51 0
      vertex -19.4558 1.51 5.2
    endloop
  endfacet
  facet normal 0 0 1
    outer loop
      vertex -21.0898 1.88294 5.2
      vertex -19.4558 1.51 5.2
      vertex -17.51 4.1 5.2
    endloop
  endfacet
  facet normal -0.0606171 -0.998161 0
    outer loop
      vertex -21.154 -4.07 0
      vertex -20.66 -4.1 0
      vertex -21.154 -4.07 5.2
    endloop
  endfacet
  facet normal -0.0606171 -0.998161 0
    outer loop
      vertex -21.154 -4.07 5.2
      vertex -20.66 -4.1 0
      vertex -20.66 -4.1 5.2
    endloop
  endfacet
  facet normal -0.0606171 0.998161 0
    outer loop
      vertex -21.154 4.07 0
      vertex -21.154 4.07 5.2
      vertex -20.66 4.1 0
    endloop
  endfacet
  facet normal -0.0606171 0.998161 0
    outer loop
      vertex -21.154 4.07 5.2
      vertex -20.66 4.1 5.2
      vertex -20.66 4.1 0
    endloop
  endfacet
  facet normal -0.179774 -0.983708 0
    outer loop
      vertex -21.641 -3.981 0
      vertex -21.154 -4.07 0
      vertex -21.641 -3.981 5.2
    endloop
  endfacet
  facet normal -0.179774 -0.983708 0
    outer loop
      vertex -21.641 -3.981 5.2
      vertex -21.154 -4.07 0
      vertex -21.154 -4.07 5.2
    endloop
  endfacet
  facet normal -0.179774 0.983708 0
    outer loop
      vertex -21.641 3.981 0
      vertex -21.641 3.981 5.2
      vertex -21.154 4.07 0
    endloop
  endfacet
  facet normal -0.179774 0.983708 0
    outer loop
      vertex -21.641 3.981 5.2
      vertex -21.154 4.07 5.2
      vertex -21.154 4.07 0
    endloop
  endfacet
  facet normal -0.29678 -0.954946 0
    outer loop
      vertex -22.114 -3.834 0
      vertex -21.641 -3.981 0
      vertex -22.114 -3.834 5.2
    endloop
  endfacet
  facet normal -0.29678 -0.954946 0
    outer loop
      vertex -22.114 -3.834 5.2
      vertex -21.641 -3.981 0
      vertex -21.641 -3.981 5.2
    endloop
  endfacet
  facet normal -0.29678 0.954946 0
    outer loop
      vertex -22.114 3.834 0
      vertex -22.114 3.834 5.2
      vertex -21.641 3.981 0
    endloop
  endfacet
  facet normal -0.29678 0.954946 0
    outer loop
      vertex -22.114 3.834 5.2
      vertex -21.641 3.981 5.2
      vertex -21.641 3.981 0
    endloop
  endfacet
  facet normal 0 0 -1
    outer loop
      vertex -22.4001 -0.837986 0
      vertex -21.0898 -1.88294 0
      vertex -20.66 -4.1 0
    endloop
  endfacet
  facet normal 0.62349 0.781831 0
    outer loop
      vertex -22.4001 -0.837986 0
      vertex -22.4001 -0.837986 5.2
      vertex -21.0898 -1.88294 0
    endloop
  endfacet
  facet normal 1 0 0
    outer loop
      vertex -22.4001 -0.837986 0
      vertex -22.4001 0.837986 0
      vertex -22.4001 -0.837986 5.2
    endloop
  endfacet
  facet normal 0.62349 0.781831 0
    outer loop
      vertex -22.4001 -0.837986 5.2
      vertex -21.0898 -1.88294 5.2
      vertex -21.0898 -1.88294 0
    endloop
  endfacet
  facet normal 1 0 0
    outer loop
      vertex -22.4001 -0.837986 5.2
      vertex -22.4001 0.837986 0
      vertex -22.4001 0.837986 5.2
    endloop
  endfacet
  facet normal 0 0 -1
    outer loop
      vertex -22.4001 0.837986 0
      vertex -20.66 4.1 0
      vertex -21.0898 1.88294 0
    endloop
  endfacet
  facet normal 0.62349 -0.781831 0
    outer loop
      vertex -22.4001 0.837986 0
      vertex -21.0898 1.88294 0
      vertex -22.4001 0.837986 5.2
    endloop
  endfacet
  facet normal 0.62349 -0.781831 0
    outer loop
      vertex -22.4001 0.837986 5.2
      vertex -21.0898 1.88294 0
      vertex -21.0898 1.88294 5.2
    endloop
  endfacet
  facet normal -0.412128 -0.911126 0
    outer loop
      vertex -22.565 -3.63 0
      vertex -22.114 -3.834 0
      vertex -22.565 -3.63 5.2
    endloop
  endfacet
  facet normal -0.412128 -0.911126 0
    outer loop
      vertex -22.565 -3.63 5.2
      vertex -22.114 -3.834 0
      vertex -22.114 -3.834 5.2
    endloop
  endfacet
  facet normal -0.412128 0.911126 0
    outer loop
      vertex -22.565 3.63 0
      vertex -22.565 3.63 5.2
      vertex -22.114 3.834 0
    endloop
  endfacet
  facet normal -0.412128 0.911126 0
    outer loop
      vertex -22.565 3.63 5.2
      vertex -22.114 3.834 5.2
      vertex -22.114 3.834 0
    endloop
  endfacet
  facet normal -0.516869 -0.856064 0
    outer loop
      vertex -22.989 -3.374 0
      vertex -22.565 -3.63 0
      vertex -22.989 -3.374 5.2
    endloop
  endfacet
  facet normal -0.516869 -0.856064 0
    outer loop
      vertex -22.989 -3.374 5.2
      vertex -22.565 -3.63 0
      vertex -22.565 -3.63 5.2
    endloop
  endfacet
  facet normal -0.516869 0.856064 0
    outer loop
      vertex -22.989 3.374 0
      vertex -22.989 3.374 5.2
      vertex -22.565 3.63 0
    endloop
  endfacet
  facet normal -0.516869 0.856064 0
    outer loop
      vertex -22.989 3.374 5.2
      vertex -22.565 3.63 5.2
      vertex -22.565 3.63 0
    endloop
  endfacet
  facet normal -0.616036 -0.787718 0
    outer loop
      vertex -23.379 -3.069 0
      vertex -22.989 -3.374 0
      vertex -23.379 -3.069 5.2
    endloop
  endfacet
  facet normal -0.616036 -0.787718 0
    outer loop
      vertex -23.379 -3.069 5.2
      vertex -22.989 -3.374 0
      vertex -22.989 -3.374 5.2
    endloop
  endfacet
  facet normal -0.616036 0.787718 0
    outer loop
      vertex -23.379 3.069 0
      vertex -23.379 3.069 5.2
      vertex -22.989 3.374 0
    endloop
  endfacet
  facet normal -0.616036 0.787718 0
    outer loop
      vertex -23.379 3.069 5.2
      vertex -22.989 3.374 5.2
      vertex -22.989 3.374 0
    endloop
  endfacet
  facet normal -0.707107 -0.707107 0
    outer loop
      vertex -23.729 -2.719 0
      vertex -23.379 -3.069 0
      vertex -23.729 -2.719 5.2
    endloop
  endfacet
  facet normal -0.707107 -0.707107 0
    outer loop
      vertex -23.729 -2.719 5.2
      vertex -23.379 -3.069 0
      vertex -23.379 -3.069 5.2
    endloop
  endfacet
  facet normal -0.707107 0.707107 0
    outer loop
      vertex -23.729 2.719 0
      vertex -23.729 2.719 5.2
      vertex -23.379 3.069 0
    endloop
  endfacet
  facet normal -0.707107 0.707107 0
    outer loop
      vertex -23.729 2.719 5.2
      vertex -23.379 3.069 5.2
      vertex -23.379 3.069 0
    endloop
  endfacet
  facet normal -0.787718 -0.616036 0
    outer loop
      vertex -24.034 -2.329 0
      vertex -23.729 -2.719 0
      vertex -24.034 -2.329 5.2
    endloop
  endfacet
  facet normal -0.787718 -0.616036 0
    outer loop
      vertex -24.034 -2.329 5.2
      vertex -23.729 -2.719 0
      vertex -23.729 -2.719 5.2
    endloop
  endfacet
  facet normal -0.787718 0.616036 0
    outer loop
      vertex -24.034 2.329 0
      vertex -24.034 2.329 5.2
      vertex -23.729 2.719 0
    endloop
  endfacet
  facet normal -0.787718 0.616036 0
    outer loop
      vertex -24.034 2.329 5.2
      vertex -23.729 2.719 5.2
      vertex -23.729 2.719 0
    endloop
  endfacet
  facet normal -0.856064 -0.516869 0
    outer loop
      vertex -24.29 -1.905 0
      vertex -24.034 -2.329 0
      vertex -24.29 -1.905 5.2
    endloop
  endfacet
  facet normal -0.856064 -0.516869 0
    outer loop
      vertex -24.29 -1.905 5.2
      vertex -24.034 -2.329 0
      vertex -24.034 -2.329 5.2
    endloop
  endfacet
  facet normal -0.856064 0.516869 0
    outer loop
      vertex -24.29 1.905 0
      vertex -24.29 1.905 5.2
      vertex -24.034 2.329 0
    endloop
  endfacet
  facet normal -0.856064 0.516869 0
    outer loop
      vertex -24.29 1.905 5.2
      vertex -24.034 2.329 5.2
      vertex -24.034 2.329 0
    endloop
  endfacet
  facet normal -0.911126 -0.412128 0
    outer loop
      vertex -24.494 -1.454 0
      vertex -24.29 -1.905 0
      vertex -24.494 -1.454 5.2
    endloop
  endfacet
  facet normal -0.911126 -0.412128 0
    outer loop
      vertex -24.494 -1.454 5.2
      vertex -24.29 -1.905 0
      vertex -24.29 -1.905 5.2
    endloop
  endfacet
  facet normal -0.911126 0.412128 0
    outer loop
      vertex -24.494 1.454 0
      vertex -24.494 1.454 5.2
      vertex -24.29 1.905 0
    endloop
  endfacet
  facet normal -0.911126 0.412128 0
    outer loop
      vertex -24.494 1.454 5.2
      vertex -24.29 1.905 5.2
      vertex -24.29 1.905 0
    endloop
  endfacet
  facet normal -0.954946 -0.29678 0
    outer loop
      vertex -24.641 -0.981 0
      vertex -24.494 -1.454 0
      vertex -24.641 -0.981 5.2
    endloop
  endfacet
  facet normal -0.954946 -0.29678 0
    outer loop
      vertex -24.641 -0.981 5.2
      vertex -24.494 -1.454 0
      vertex -24.494 -1.454 5.2
    endloop
  endfacet
  facet normal -0.954946 0.29678 0
    outer loop
      vertex -24.641 0.981 0
      vertex -24.641 0.981 5.2
      vertex -24.494 1.454 0
    endloop
  endfacet
  facet normal -0.954946 0.29678 0
    outer loop
      vertex -24.641 0.981 5.2
      vertex -24.494 1.454 5.2
      vertex -24.494 1.454 0
    endloop
  endfacet
  facet normal 0 0 -1
    outer loop
      vertex -24.73 -0.494 0
      vertex -20.66 -4.1 0
      vertex -21.154 -4.07 0
    endloop
  endfacet
  facet normal 0 0 -1
    outer loop
      vertex -24.73 -0.494 0
      vertex -20.66 4.1 0
      vertex -22.4001 0.837986 0
    endloop
  endfacet
  facet normal 0 0 -1
    outer loop
      vertex -24.73 -0.494 0
      vertex -21.154 -4.07 0
      vertex -21.641 -3.981 0
    endloop
  endfacet
  facet normal 0 0 -1
    outer loop
      vertex -24.73 -0.494 0
      vertex -21.154 4.07 0
      vertex -20.66 4.1 0
    endloop
  endfacet
  facet normal 0 0 -1
    outer loop
      vertex -24.73 -0.494 0
      vertex -21.641 -3.981 0
      vertex -22.114 -3.834 0
    endloop
  endfacet
  facet normal 0 0 -1
    outer loop
      vertex -24.73 -0.494 0
      vertex -21.641 3.981 0
      vertex -21.154 4.07 0
    endloop
  endfacet
  facet normal 0 0 -1
    outer loop
      vertex -24.73 -0.494 0
      vertex -22.114 -3.834 0
      vertex -22.565 -3.63 0
    endloop
  endfacet
  facet normal 0 0 -1
    outer loop
      vertex -24.73 -0.494 0
      vertex -22.114 3.834 0
      vertex -21.641 3.981 0
    endloop
  endfacet
  facet normal 0 0 -1
    outer loop
      vertex -24.73 -0.494 0
      vertex -22.4001 -0.837986 0
      vertex -20.66 -4.1 0
    endloop
  endfacet
  facet normal 0 0 -1
    outer loop
      vertex -24.73 -0.494 0
      vertex -22.4001 0.837986 0
      vertex -22.4001 -0.837986 0
    endloop
  endfacet
  facet normal 0 0 -1
    outer loop
      vertex -24.73 -0.494 0
      vertex -22.565 -3.63 0
      vertex -22.989 -3.374 0
    endloop
  endfacet
  facet normal 0 0 -1
    outer loop
      vertex -24.73 -0.494 0
      vertex -22.565 3.63 0
      vertex -22.114 3.834 0
    endloop
  endfacet
  facet normal 0 0 -1
    outer loop
      vertex -24.73 -0.494 0
      vertex -22.989 -3.374 0
      vertex -23.379 -3.069 0
    endloop
  endfacet
  facet normal 0 0 -1
    outer loop
      vertex -24.73 -0.494 0
      vertex -22.989 3.374 0
      vertex -22.565 3.63 0
    endloop
  endfacet
  facet normal 0 0 -1
    outer loop
      vertex -24.73 -0.494 0
      vertex -23.379 -3.069 0
      vertex -23.729 -2.719 0
    endloop
  endfacet
  facet normal 0 0 -1
    outer loop
      vertex -24.73 -0.494 0
      vertex -23.379 3.069 0
      vertex -22.989 3.374 0
    endloop
  endfacet
  facet normal 0 0 -1
    outer loop
      vertex -24.73 -0.494 0
      vertex -23.729 -2.719 0
      vertex -24.034 -2.329 0
    endloop
  endfacet
  facet normal 0 0 -1
    outer loop
      vertex -24.73 -0.494 0
      vertex -23.729 2.719 0
      vertex -23.379 3.069 0
    endloop
  endfacet
  facet normal 0 0 -1
    outer loop
      vertex -24.73 -0.494 0
      vertex -24.034 -2.329 0
      vertex -24.29 -1.905 0
    endloop
  endfacet
  facet normal 0 0 -1
    outer loop
      vertex -24.73 -0.494 0
      vertex -24.034 2.329 0
      vertex -23.729 2.719 0
    endloop
  endfacet
  facet normal 0 0 -1
    outer loop
      vertex -24.73 -0.494 0
      vertex -24.29 -1.905 0
      vertex -24.494 -1.454 0
    endloop
  endfacet
  facet normal 0 0 -1
    outer loop
      vertex -24.73 -0.494 0
      vertex -24.29 1.905 0
      vertex -24.034 2.329 0
    endloop
  endfacet
  facet normal 0 0 -1
    outer loop
      vertex -24.73 -0.494 0
      vertex -24.494 -1.454 0
      vertex -24.641 -0.981 0
    endloop
  endfacet
  facet normal 0 0 -1
    outer loop
      vertex -24.73 -0.494 0
      vertex -24.494 1.454 0
      vertex -24.29 1.905 0
    endloop
  endfacet
  facet normal -0.983708 -0.179774 0
    outer loop
      vertex -24.73 -0.494 0
      vertex -24.641 -0.981 0
      vertex -24.73 -0.494 5.2
    endloop
  endfacet
  facet normal 0 0 -1
    outer loop
      vertex -24.73 -0.494 0
      vertex -24.641 0.981 0
      vertex -24.494 1.454 0
    endloop
  endfacet
  facet normal 0 0 -1
    outer loop
      vertex -24.73 -0.494 0
      vertex -24.73 0.494 0
      vertex -24.641 0.981 0
    endloop
  endfacet
  facet normal -0.983708 -0.179774 0
    outer loop
      vertex -24.73 -0.494 5.2
      vertex -24.641 -0.981 0
      vertex -24.641 -0.981 5.2
    endloop
  endfacet
  facet normal 0 0 1
    outer loop
      vertex -24.73 -0.494 5.2
      vertex -24.641 -0.981 5.2
      vertex -24.73 0.494 5.2
    endloop
  endfacet
  facet normal -0.983708 0.179774 0
    outer loop
      vertex -24.73 0.494 0
      vertex -24.73 0.494 5.2
      vertex -24.641 0.981 0
    endloop
  endfacet
  facet normal 0 0 1
    outer loop
      vertex -24.73 0.494 5.2
      vertex -17.51 4.1 5.2
      vertex -20.66 4.1 5.2
    endloop
  endfacet
  facet normal 0 0 1
    outer loop
      vertex -24.73 0.494 5.2
      vertex -20.66 -4.1 5.2
      vertex -21.0898 -1.88294 5.2
    endloop
  endfacet
  facet normal 0 0 1
    outer loop
      vertex -24.73 0.494 5.2
      vertex -20.66 4.1 5.2
      vertex -21.154 4.07 5.2
    endloop
  endfacet
  facet normal 0 0 1
    outer loop
      vertex -24.73 0.494 5.2
      vertex -21.0898 -1.88294 5.2
      vertex -22.4001 -0.837986 5.2
    endloop
  endfacet
  facet normal 0 0 1
    outer loop
      vertex -24.73 0.494 5.2
      vertex -21.0898 1.88294 5.2
      vertex -17.51 4.1 5.2
    endloop
  endfacet
  facet normal 0 0 1
    outer loop
      vertex -24.73 0.494 5.2
      vertex -21.154 -4.07 5.2
      vertex -20.66 -4.1 5.2
    endloop
  endfacet
  facet normal 0 0 1
    outer loop
      vertex -24.73 0.494 5.2
      vertex -21.154 4.07 5.2
      vertex -21.641 3.981 5.2
    endloop
  endfacet
  facet normal 0 0 1
    outer loop
      vertex -24.73 0.494 5.2
      vertex -21.641 -3.981 5.2
      vertex -21.154 -4.07 5.2
    endloop
  endfacet
  facet normal 0 0 1
    outer loop
      vertex -24.73 0.494 5.2
      vertex -21.641 3.981 5.2
      vertex -22.114 3.834 5.2
    endloop
  endfacet
  facet normal 0 0 1
    outer loop
      vertex -24.73 0.494 5.2
      vertex -22.114 -3.834 5.2
      vertex -21.641 -3.981 5.2
    endloop
  endfacet
  facet normal 0 0 1
    outer loop
      vertex -24.73 0.494 5.2
      vertex -22.114 3.834 5.2
      vertex -22.565 3.63 5.2
    endloop
  endfacet
  facet normal 0 0 1
    outer loop
      vertex -24.73 0.494 5.2
      vertex -22.4001 -0.837986 5.2
      vertex -22.4001 0.837986 5.2
    endloop
  endfacet
  facet normal 0 0 1
    outer loop
      vertex -24.73 0.494 5.2
      vertex -22.4001 0.837986 5.2
      vertex -21.0898 1.88294 5.2
    endloop
  endfacet
  facet normal 0 0 1
    outer loop
      vertex -24.73 0.494 5.2
      vertex -22.565 -3.63 5.2
      vertex -22.114 -3.834 5.2
    endloop
  endfacet
  facet normal 0 0 1
    outer loop
      vertex -24.73 0.494 5.2
      vertex -22.565 3.63 5.2
      vertex -22.989 3.374 5.2
    endloop
  endfacet
  facet normal 0 0 1
    outer loop
      vertex -24.73 0.494 5.2
      vertex -22.989 -3.374 5.2
      vertex -22.565 -3.63 5.2
    endloop
  endfacet
  facet normal 0 0 1
    outer loop
      vertex -24.73 0.494 5.2
      vertex -22.989 3.374 5.2
      vertex -23.379 3.069 5.2
    endloop
  endfacet
  facet normal 0 0 1
    outer loop
      vertex -24.73 0.494 5.2
      vertex -23.379 -3.069 5.2
      vertex -22.989 -3.374 5.2
    endloop
  endfacet
  facet normal 0 0 1
    outer loop
      vertex -24.73 0.494 5.2
      vertex -23.379 3.069 5.2
      vertex -23.729 2.719 5.2
    endloop
  endfacet
  facet normal 0 0 1
    outer loop
      vertex -24.73 0.494 5.2
      vertex -23.729 -2.719 5.2
      vertex -23.379 -3.069 5.2
    endloop
  endfacet
  facet normal 0 0 1
    outer loop
      vertex -24.73 0.494 5.2
      vertex -23.729 2.719 5.2
      vertex -24.034 2.329 5.2
    endloop
  endfacet
  facet normal 0 0 1
    outer loop
      vertex -24.73 0.494 5.2
      vertex -24.034 -2.329 5.2
      vertex -23.729 -2.719 5.2
    endloop
  endfacet
  facet normal 0 0 1
    outer loop
      vertex -24.73 0.494 5.2
      vertex -24.034 2.329 5.2
      vertex -24.29 1.905 5.2
    endloop
  endfacet
  facet normal 0 0 1
    outer loop
      vertex -24.73 0.494 5.2
      vertex -24.29 -1.905 5.2
      vertex -24.034 -2.329 5.2
    endloop
  endfacet
  facet normal 0 0 1
    outer loop
      vertex -24.73 0.494 5.2
      vertex -24.29 1.905 5.2
      vertex -24.494 1.454 5.2
    endloop
  endfacet
  facet normal 0 0 1
    outer loop
      vertex -24.73 0.494 5.2
      vertex -24.494 -1.454 5.2
      vertex -24.29 -1.905 5.2
    endloop
  endfacet
  facet normal 0 0 1
    outer loop
      vertex -24.73 0.494 5.2
      vertex -24.494 1.454 5.2
      vertex -24.641 0.981 5.2
    endloop
  endfacet
  facet normal 0 0 1
    outer loop
      vertex -24.73 0.494 5.2
      vertex -24.641 -0.981 5.2
      vertex -24.494 -1.454 5.2
    endloop
  endfacet
  facet normal -0.983708 0.179774 0
    outer loop
      vertex -24.73 0.494 5.2
      vertex -24.641 0.981 5.2
      vertex -24.641 0.981 0
    endloop
  endfacet
  facet normal -0.998161 -0.0606171 0
    outer loop
      vertex -24.76 0 0
      vertex -24.73 -0.494 0
      vertex -24.76 0 5.2
    endloop
  endfacet
  facet normal 0 0 -1
    outer loop
      vertex -24.76 0 0
      vertex -24.73 0.494 0
      vertex -24.73 -0.494 0
    endloop
  endfacet
  facet normal -0.998161 0.0606171 0
    outer loop
      vertex -24.76 0 0
      vertex -24.76 0 5.2
      vertex -24.73 0.494 0
    endloop
  endfacet
  facet normal -0.998161 -0.0606171 0
    outer loop
      vertex -24.76 0 5.2
      vertex -24.73 -0.494 0
      vertex -24.73 -0.494 5.2
    endloop
  endfacet
  facet normal 0 0 1
    outer loop
      vertex -24.76 0 5.2
      vertex -24.73 -0.494 5.2
      vertex -24.73 0.494 5.2
    endloop
  endfacet
  facet normal -0.998161 0.0606171 0
    outer loop
      vertex -24.76 0 5.2
      vertex -24.73 0.494 5.2
      vertex -24.73 0.494 0
    endloop
  endfacet
  facet normal -1 0 0
    outer loop
      vertex 17.51 -4.1 4
      vertex 17.51 -4.1 5.2
      vertex 17.51 4.1 4
    endloop
  endfacet
  facet normal 0 -1 0
    outer loop
      vertex 17.51 -4.1 4
      vertex 20.66 -4.1 0
      vertex 17.51 -4.1 5.2
    endloop
  endfacet
  facet normal -1 0 0
    outer loop
      vertex 17.51 -4.1 5.2
      vertex 17.51 4.1 5.2
      vertex 17.51 4.1 4
    endloop
  endfacet
  facet normal 0 0 1
    outer loop
      vertex 17.51 -4.1 5.2
      vertex 18.9199 -0.837986 5.2
      vertex 17.51 4.1 5.2
    endloop
  endfacet
  facet normal 0 -1 0
    outer loop
      vertex 17.51 -4.1 5.2
      vertex 20.66 -4.1 0
      vertex 20.66 -4.1 5.2
    endloop
  endfacet
  facet normal 0 0 1
    outer loop
      vertex 17.51 -4.1 5.2
      vertex 20.66 -4.1 5.2
      vertex 18.9199 -0.837986 5.2
    endloop
  endfacet
  facet normal 0 1 0
    outer loop
      vertex 17.51 4.1 4
      vertex 17.51 4.1 5.2
      vertex 20.66 4.1 0
    endloop
  endfacet
  facet normal 0 0 1
    outer loop
      vertex 17.51 4.1 5.2
      vertex 18.9199 -0.837986 5.2
      vertex 18.9199 0.837986 5.2
    endloop
  endfacet
  facet normal 0 0 1
    outer loop
      vertex 17.51 4.1 5.2
      vertex 18.9199 0.837986 5.2
      vertex 20.2302 1.88294 5.2
    endloop
  endfacet
  facet normal 0 0 1
    outer loop
      vertex 17.51 4.1 5.2
      vertex 20.2302 1.88294 5.2
      vertex 21.8642 1.51 5.2
    endloop
  endfacet
  facet normal 0 1 0
    outer loop
      vertex 17.51 4.1 5.2
      vertex 20.66 4.1 5.2
      vertex 20.66 4.1 0
    endloop
  endfacet
  facet normal 0 0 1
    outer loop
      vertex 17.51 4.1 5.2
      vertex 21.154 4.07 5.2
      vertex 20.66 4.1 5.2
    endloop
  endfacet
  facet normal 0 0 1
    outer loop
      vertex 17.51 4.1 5.2
      vertex 21.641 3.981 5.2
      vertex 21.154 4.07 5.2
    endloop
  endfacet
  facet normal 0 0 1
    outer loop
      vertex 17.51 4.1 5.2
      vertex 21.8642 1.51 5.2
      vertex 24.76 0 5.2
    endloop
  endfacet
  facet normal 0 0 1
    outer loop
      vertex 17.51 4.1 5.2
      vertex 22.114 3.834 5.2
      vertex 21.641 3.981 5.2
    endloop
  endfacet
  facet normal 0 0 1
    outer loop
      vertex 17.51 4.1 5.2
      vertex 22.565 3.63 5.2
      vertex 22.114 3.834 5.2
    endloop
  endfacet
  facet normal 0 0 1
    outer loop
      vertex 17.51 4.1 5.2
      vertex 22.989 3.374 5.2
      vertex 22.565 3.63 5.2
    endloop
  endfacet
  facet normal 0 0 1
    outer loop
      vertex 17.51 4.1 5.2
      vertex 23.379 3.069 5.2
      vertex 22.989 3.374 5.2
    endloop
  endfacet
  facet normal 0 0 1
    outer loop
      vertex 17.51 4.1 5.2
      vertex 23.729 2.719 5.2
      vertex 23.379 3.069 5.2
    endloop
  endfacet
  facet normal 0 0 1
    outer loop
      vertex 17.51 4.1 5.2
      vertex 24.034 2.329 5.2
      vertex 23.729 2.719 5.2
    endloop
  endfacet
  facet normal 0 0 1
    outer loop
      vertex 17.51 4.1 5.2
      vertex 24.29 1.905 5.2
      vertex 24.034 2.329 5.2
    endloop
  endfacet
  facet normal 0 0 1
    outer loop
      vertex 17.51 4.1 5.2
      vertex 24.494 1.454 5.2
      vertex 24.29 1.905 5.2
    endloop
  endfacet
  facet normal 0 0 1
    outer loop
      vertex 17.51 4.1 5.2
      vertex 24.641 0.981 5.2
      vertex 24.494 1.454 5.2
    endloop
  endfacet
  facet normal 0 0 1
    outer loop
      vertex 17.51 4.1 5.2
      vertex 24.73 0.494 5.2
      vertex 24.641 0.981 5.2
    endloop
  endfacet
  facet normal 0 0 1
    outer loop
      vertex 17.51 4.1 5.2
      vertex 24.76 0 5.2
      vertex 24.73 0.494 5.2
    endloop
  endfacet
  facet normal 0.62349 0.781831 0
    outer loop
      vertex 18.9199 -0.837986 0
      vertex 18.9199 -0.837986 5.2
      vertex 20.2302 -1.88294 0
    endloop
  endfacet
  facet normal 1 0 0
    outer loop
      vertex 18.9199 -0.837986 0
      vertex 18.9199 0.837986 0
      vertex 18.9199 -0.837986 5.2
    endloop
  endfacet
  facet normal 1 0 0
    outer loop
      vertex 18.9199 -0.837986 5.2
      vertex 18.9199 0.837986 0
      vertex 18.9199 0.837986 5.2
    endloop
  endfacet
  facet normal 0.62349 0.781831 0
    outer loop
      vertex 18.9199 -0.837986 5.2
      vertex 20.2302 -1.88294 5.2
      vertex 20.2302 -1.88294 0
    endloop
  endfacet
  facet normal 0 0 1
    outer loop
      vertex 18.9199 -0.837986 5.2
      vertex 20.66 -4.1 5.2
      vertex 20.2302 -1.88294 5.2
    endloop
  endfacet
  facet normal 0.62349 -0.781831 0
    outer loop
      vertex 18.9199 0.837986 0
      vertex 20.2302 1.88294 0
      vertex 18.9199 0.837986 5.2
    endloop
  endfacet
  facet normal 0.62349 -0.781831 0
    outer loop
      vertex 18.9199 0.837986 5.2
      vertex 20.2302 1.88294 0
      vertex 20.2302 1.88294 5.2
    endloop
  endfacet
  facet normal -0.222522 0.974928 0
    outer loop
      vertex 20.2302 -1.88294 0
      vertex 20.2302 -1.88294 5.2
      vertex 21.8642 -1.51 0
    endloop
  endfacet
  facet normal 0 0 -1
    outer loop
      vertex 20.2302 -1.88294 0
      vertex 21.8642 -1.51 0
      vertex 24.29 -1.905 0
    endloop
  endfacet
  facet normal 0 0 -1
    outer loop
      vertex 20.2302 -1.88294 0
      vertex 24.29 -1.905 0
      vertex 24.034 -2.329 0
    endloop
  endfacet
  facet normal 0 0 1
    outer loop
      vertex 20.2302 -1.88294 5.2
      vertex 20.66 -4.1 5.2
      vertex 21.154 -4.07 5.2
    endloop
  endfacet
  facet normal 0 0 1
    outer loop
      vertex 20.2302 -1.88294 5.2
      vertex 21.154 -4.07 5.2
      vertex 21.641 -3.981 5.2
    endloop
  endfacet
  facet normal 0 0 1
    outer loop
      vertex 20.2302 -1.88294 5.2
      vertex 21.641 -3.981 5.2
      vertex 21.8642 -1.51 5.2
    endloop
  endfacet
  facet normal -0.222522 0.974928 0
    outer loop
      vertex 20.2302 -1.88294 5.2
      vertex 21.8642 -1.51 5.2
      vertex 21.8642 -1.51 0
    endloop
  endfacet
  facet normal -0.222522 -0.974928 0
    outer loop
      vertex 20.2302 1.88294 0
      vertex 21.8642 1.51 0
      vertex 20.2302 1.88294 5.2
    endloop
  endfacet
  facet normal 0 0 -1
    outer loop
      vertex 20.2302 1.88294 0
      vertex 24.034 2.329 0
      vertex 24.29 1.905 0
    endloop
  endfacet
  facet normal 0 0 -1
    outer loop
      vertex 20.2302 1.88294 0
      vertex 24.29 1.905 0
      vertex 21.8642 1.51 0
    endloop
  endfacet
  facet normal -0.222522 -0.974928 0
    outer loop
      vertex 20.2302 1.88294 5.2
      vertex 21.8642 1.51 0
      vertex 21.8642 1.51 5.2
    endloop
  endfacet
  facet normal 0.0606171 -0.998161 0
    outer loop
      vertex 20.66 -4.1 0
      vertex 21.154 -4.07 0
      vertex 20.66 -4.1 5.2
    endloop
  endfacet
  facet normal 0.0606171 -0.998161 0
    outer loop
      vertex 20.66 -4.1 5.2
      vertex 21.154 -4.07 0
      vertex 21.154 -4.07 5.2
    endloop
  endfacet
  facet normal 0.0606171 0.998161 0
    outer loop
      vertex 20.66 4.1 0
      vertex 20.66 4.1 5.2
      vertex 21.154 4.07 0
    endloop
  endfacet
  facet normal 0.0606171 0.998161 0
    outer loop
      vertex 20.66 4.1 5.2
      vertex 21.154 4.07 5.2
      vertex 21.154 4.07 0
    endloop
  endfacet
  facet normal 0.179774 -0.983708 0
    outer loop
      vertex 21.154 -4.07 0
      vertex 21.641 -3.981 0
      vertex 21.154 -4.07 5.2
    endloop
  endfacet
  facet normal 0.179774 -0.983708 0
    outer loop
      vertex 21.154 -4.07 5.2
      vertex 21.641 -3.981 0
      vertex 21.641 -3.981 5.2
    endloop
  endfacet
  facet normal 0.179774 0.983708 0
    outer loop
      vertex 21.154 4.07 0
      vertex 21.154 4.07 5.2
      vertex 21.641 3.981 0
    endloop
  endfacet
  facet normal 0.179774 0.983708 0
    outer loop
      vertex 21.154 4.07 5.2
      vertex 21.641 3.981 5.2
      vertex 21.641 3.981 0
    endloop
  endfacet
  facet normal 0.29678 -0.954946 0
    outer loop
      vertex 21.641 -3.981 0
      vertex 22.114 -3.834 0
      vertex 21.641 -3.981 5.2
    endloop
  endfacet
  facet normal 0.29678 -0.954946 0
    outer loop
      vertex 21.641 -3.981 5.2
      vertex 22.114 -3.834 0
      vertex 22.114 -3.834 5.2
    endloop
  endfacet
  facet normal 0 0 1
    outer loop
      vertex 21.641 -3.981 5.2
      vertex 22.114 -3.834 5.2
      vertex 21.8642 -1.51 5.2
    endloop
  endfacet
  facet normal 0.29678 0.954946 0
    outer loop
      vertex 21.641 3.981 0
      vertex 21.641 3.981 5.2
      vertex 22.114 3.834 0
    endloop
  endfacet
  facet normal 0.29678 0.954946 0
    outer loop
      vertex 21.641 3.981 5.2
      vertex 22.114 3.834 5.2
      vertex 22.114 3.834 0
    endloop
  endfacet
  facet normal -0.900969 0.433884 0
    outer loop
      vertex 21.8642 -1.51 0
      vertex 21.8642 -1.51 5.2
      vertex 22.5914 0 0
    endloop
  endfacet
  facet normal 0 0 -1
    outer loop
      vertex 21.8642 -1.51 0
      vertex 22.5914 0 0
      vertex 24.494 -1.454 0
    endloop
  endfacet
  facet normal 0 0 -1
    outer loop
      vertex 21.8642 -1.51 0
      vertex 24.494 -1.454 0
      vertex 24.29 -1.905 0
    endloop
  endfacet
  facet normal 0 0 1
    outer loop
      vertex 21.8642 -1.51 5.2
      vertex 22.114 -3.834 5.2
      vertex 22.565 -3.63 5.2
    endloop
  endfacet
  facet normal 0 0 1
    outer loop
      vertex 21.8642 -1.51 5.2
      vertex 22.565 -3.63 5.2
      vertex 22.989 -3.374 5.2
    endloop
  endfacet
  facet normal -0.900969 0.433884 0
    outer loop
      vertex 21.8642 -1.51 5.2
      vertex 22.5914 0 5.2
      vertex 22.5914 0 0
    endloop
  endfacet
  facet normal 0 0 1
    outer loop
      vertex 21.8642 -1.51 5.2
      vertex 22.989 -3.374 5.2
      vertex 23.379 -3.069 5.2
    endloop
  endfacet
  facet normal 0 0 1
    outer loop
      vertex 21.8642 -1.51 5.2
      vertex 23.379 -3.069 5.2
      vertex 22.5914 0 5.2
    endloop
  endfacet
  facet normal -0.900969 -0.433884 0
    outer loop
      vertex 21.8642 1.51 0
      vertex 22.5914 0 0
      vertex 21.8642 1.51 5.2
    endloop
  endfacet
  facet normal 0 0 -1
    outer loop
      vertex 21.8642 1.51 0
      vertex 24.29 1.905 0
      vertex 24.494 1.454 0
    endloop
  endfacet
  facet normal 0 0 -1
    outer loop
      vertex 21.8642 1.51 0
      vertex 24.494 1.454 0
      vertex 24.641 0.981 0
    endloop
  endfacet
  facet normal 0 0 -1
    outer loop
      vertex 21.8642 1.51 0
      vertex 24.641 0.981 0
      vertex 24.73 0.494 0
    endloop
  endfacet
  facet normal 0 0 -1
    outer loop
      vertex 21.8642 1.51 0
      vertex 24.73 0.494 0
      vertex 22.5914 0 0
    endloop
  endfacet
  facet normal -0.900969 -0.433884 0
    outer loop
      vertex 21.8642 1.51 5.2
      vertex 22.5914 0 0
      vertex 22.5914 0 5.2
    endloop
  endfacet
  facet normal 0 0 1
    outer loop
      vertex 21.8642 1.51 5.2
      vertex 22.5914 0 5.2
      vertex 24.494 -1.454 5.2
    endloop
  endfacet
  facet normal 0 0 1
    outer loop
      vertex 21.8642 1.51 5.2
      vertex 24.494 -1.454 5.2
      vertex 24.641 -0.981 5.2
    endloop
  endfacet
  facet normal 0 0 1
    outer loop
      vertex 21.8642 1.51 5.2
      vertex 24.641 -0.981 5.2
      vertex 24.73 -0.494 5.2
    endloop
  endfacet
  facet normal 0 0 1
    outer loop
      vertex 21.8642 1.51 5.2
      vertex 24.73 -0.494 5.2
      vertex 24.76 0 5.2
    endloop
  endfacet
  facet normal 0.412128 -0.911126 0
    outer loop
      vertex 22.114 -3.834 0
      vertex 22.565 -3.63 0
      vertex 22.114 -3.834 5.2
    endloop
  endfacet
  facet normal 0.412128 -0.911126 0
    outer loop
      vertex 22.114 -3.834 5.2
      vertex 22.565 -3.63 0
      vertex 22.565 -3.63 5.2
    endloop
  endfacet
  facet normal 0.412128 0.911126 0
    outer loop
      vertex 22.114 3.834 0
      vertex 22.114 3.834 5.2
      vertex 22.565 3.63 0
    endloop
  endfacet
  facet normal 0.412128 0.911126 0
    outer loop
      vertex 22.114 3.834 5.2
      vertex 22.565 3.63 5.2
      vertex 22.565 3.63 0
    endloop
  endfacet
  facet normal 0.516869 -0.856064 0
    outer loop
      vertex 22.565 -3.63 0
      vertex 22.989 -3.374 0
      vertex 22.565 -3.63 5.2
    endloop
  endfacet
  facet normal 0.516869 -0.856064 0
    outer loop
      vertex 22.565 -3.63 5.2
      vertex 22.989 -3.374 0
      vertex 22.989 -3.374 5.2
    endloop
  endfacet
  facet normal 0.516869 0.856064 0
    outer loop
      vertex 22.565 3.63 0
      vertex 22.565 3.63 5.2
      vertex 22.989 3.374 0
    endloop
  endfacet
  facet normal 0.516869 0.856064 0
    outer loop
      vertex 22.565 3.63 5.2
      vertex 22.989 3.374 5.2
      vertex 22.989 3.374 0
    endloop
  endfacet
  facet normal 0 0 -1
    outer loop
      vertex 22.5914 0 0
      vertex 24.641 -0.981 0
      vertex 24.494 -1.454 0
    endloop
  endfacet
  facet normal 0 0 -1
    outer loop
      vertex 22.5914 0 0
      vertex 24.73 -0.494 0
      vertex 24.641 -0.981 0
    endloop
  endfacet
  facet normal 0 0 -1
    outer loop
      vertex 22.5914 0 0
      vertex 24.73 0.494 0
      vertex 24.76 0 0
    endloop
  endfacet
  facet normal 0 0 -1
    outer loop
      vertex 22.5914 0 0
      vertex 24.76 0 0
      vertex 24.73 -0.494 0
    endloop
  endfacet
  facet normal 0 0 1
    outer loop
      vertex 22.5914 0 5.2
      vertex 23.379 -3.069 5.2
      vertex 23.729 -2.719 5.2
    endloop
  endfacet
  facet normal 0 0 1
    outer loop
      vertex 22.5914 0 5.2
      vertex 23.729 -2.719 5.2
      vertex 24.034 -2.329 5.2
    endloop
  endfacet
  facet normal 0 0 1
    outer loop
      vertex 22.5914 0 5.2
      vertex 24.034 -2.329 5.2
      vertex 24.29 -1.905 5.2
    endloop
  endfacet
  facet normal 0 0 1
    outer loop
      vertex 22.5914 0 5.2
      vertex 24.29 -1.905 5.2
      vertex 24.494 -1.454 5.2
    endloop
  endfacet
  facet normal 0.616036 -0.787718 0
    outer loop
      vertex 22.989 -3.374 0
      vertex 23.379 -3.069 0
      vertex 22.989 -3.374 5.2
    endloop
  endfacet
  facet normal 0.616036 -0.787718 0
    outer loop
      vertex 22.989 -3.374 5.2
      vertex 23.379 -3.069 0
      vertex 23.379 -3.069 5.2
    endloop
  endfacet
  facet normal 0.616036 0.787718 0
    outer loop
      vertex 22.989 3.374 0
      vertex 22.989 3.374 5.2
      vertex 23.379 3.069 0
    endloop
  endfacet
  facet normal 0.616036 0.787718 0
    outer loop
      vertex 22.989 3.374 5.2
      vertex 23.379 3.069 5.2
      vertex 23.379 3.069 0
    endloop
  endfacet
  facet normal 0.707107 -0.707107 0
    outer loop
      vertex 23.379 -3.069 0
      vertex 23.729 -2.719 0
      vertex 23.379 -3.069 5.2
    endloop
  endfacet
  facet normal 0.707107 -0.707107 0
    outer loop
      vertex 23.379 -3.069 5.2
      vertex 23.729 -2.719 0
      vertex 23.729 -2.719 5.2
    endloop
  endfacet
  facet normal 0.707107 0.707107 0
    outer loop
      vertex 23.379 3.069 0
      vertex 23.379 3.069 5.2
      vertex 23.729 2.719 0
    endloop
  endfacet
  facet normal 0.707107 0.707107 0
    outer loop
      vertex 23.379 3.069 5.2
      vertex 23.729 2.719 5.2
      vertex 23.729 2.719 0
    endloop
  endfacet
  facet normal 0.787718 -0.616036 0
    outer loop
      vertex 23.729 -2.719 0
      vertex 24.034 -2.329 0
      vertex 23.729 -2.719 5.2
    endloop
  endfacet
  facet normal 0.787718 -0.616036 0
    outer loop
      vertex 23.729 -2.719 5.2
      vertex 24.034 -2.329 0
      vertex 24.034 -2.329 5.2
    endloop
  endfacet
  facet normal 0.787718 0.616036 0
    outer loop
      vertex 23.729 2.719 0
      vertex 23.729 2.719 5.2
      vertex 24.034 2.329 0
    endloop
  endfacet
  facet normal 0.787718 0.616036 0
    outer loop
      vertex 23.729 2.719 5.2
      vertex 24.034 2.329 5.2
      vertex 24.034 2.329 0
    endloop
  endfacet
  facet normal 0.856064 -0.516869 0
    outer loop
      vertex 24.034 -2.329 0
      vertex 24.29 -1.905 0
      vertex 24.034 -2.329 5.2
    endloop
  endfacet
  facet normal 0.856064 -0.516869 0
    outer loop
      vertex 24.034 -2.329 5.2
      vertex 24.29 -1.905 0
      vertex 24.29 -1.905 5.2
    endloop
  endfacet
  facet normal 0.856064 0.516869 0
    outer loop
      vertex 24.034 2.329 0
      vertex 24.034 2.329 5.2
      vertex 24.29 1.905 0
    endloop
  endfacet
  facet normal 0.856064 0.516869 0
    outer loop
      vertex 24.034 2.329 5.2
      vertex 24.29 1.905 5.2
      vertex 24.29 1.905 0
    endloop
  endfacet
  facet normal 0.911126 -0.412128 0
    outer loop
      vertex 24.29 -1.905 0
      vertex 24.494 -1.454 0
      vertex 24.29 -1.905 5.2
    endloop
  endfacet
  facet normal 0.911126 -0.412128 0
    outer loop
      vertex 24.29 -1.905 5.2
      vertex 24.494 -1.454 0
      vertex 24.494 -1.454 5.2
    endloop
  endfacet
  facet normal 0.911126 0.412128 0
    outer loop
      vertex 24.29 1.905 0
      vertex 24.29 1.905 5.2
      vertex 24.494 1.454 0
    endloop
  endfacet
  facet normal 0.911126 0.412128 0
    outer loop
      vertex 24.29 1.905 5.2
      vertex 24.494 1.454 5.2
      vertex 24.494 1.454 0
    endloop
  endfacet
  facet normal 0.954946 -0.29678 0
    outer loop
      vertex 24.494 -1.454 0
      vertex 24.641 -0.981 0
      vertex 24.494 -1.454 5.2
    endloop
  endfacet
  facet normal 0.954946 -0.29678 0
    outer loop
      vertex 24.494 -1.454 5.2
      vertex 24.641 -0.981 0
      vertex 24.641 -0.981 5.2
    endloop
  endfacet
  facet normal 0.954946 0.29678 0
    outer loop
      vertex 24.494 1.454 0
      vertex 24.494 1.454 5.2
      vertex 24.641 0.981 0
    endloop
  endfacet
  facet normal 0.954946 0.29678 0
    outer loop
      vertex 24.494 1.454 5.2
      vertex 24.641 0.981 5.2
      vertex 24.641 0.981 0
    endloop
  endfacet
  facet normal 0.983708 -0.179774 0
    outer loop
      vertex 24.641 -0.981 0
      vertex 24.73 -0.494 0
      vertex 24.641 -0.981 5.2
    endloop
  endfacet
  facet normal 0.983708 -0.179774 0
    outer loop
      vertex 24.641 -0.981 5.2
      vertex 24.73 -0.494 0
      vertex 24.73 -0.494 5.2
    endloop
  endfacet
  facet normal 0.983708 0.179774 0
    outer loop
      vertex 24.641 0.981 0
      vertex 24.641 0.981 5.2
      vertex 24.73 0.494 0
    endloop
  endfacet
  facet normal 0.983708 0.179774 0
    outer loop
      vertex 24.641 0.981 5.2
      vertex 24.73 0.494 5.2
      vertex 24.73 0.494 0
    endloop
  endfacet
  facet normal 0.998161 -0.0606171 0
    outer loop
      vertex 24.73 -0.494 0
      vertex 24.76 0 0
      vertex 24.73 -0.494 5.2
    endloop
  endfacet
  facet normal 0.998161 -0.0606171 0
    outer loop
      vertex 24.73 -0.494 5.2
      vertex 24.76 0 0
      vertex 24.76 0 5.2
    endloop
  endfacet
  facet normal 0.998161 0.0606171 0
    outer loop
      vertex 24.73 0.494 0
      vertex 24.73 0.494 5.2
      vertex 24.76 0 0
    endloop
  endfacet
  facet normal 0.998161 0.0606171 0
    outer loop
      vertex 24.73 0.494 5.2
      vertex 24.76 0 5.2
      vertex 24.76 0 0
    endloop
  endfacet
endsolid OpenSCAD_Model
