solid OpenSCAD_Model
  facet normal 0 0 -1
    outer loop
      vertex -11.1086 0 0
      vertex 11.2999 -0.837986 0
      vertex 12.6102 -1.88294 0
    endloop
  endfacet
  facet normal 0 0 -1
    outer loop
      vertex -11.1086 0 0
      vertex 11.2999 0.837986 0
      vertex 11.2999 -0.837986 0
    endloop
  endfacet
  facet normal 0 0 -1
    outer loop
      vertex -11.1086 0 0
      vertex 12.6102 -1.88294 0
      vertex 16.414 -2.329 0
    endloop
  endfacet
  facet normal 0 0 -1
    outer loop
      vertex -11.1086 0 0
      vertex 12.6102 1.88294 0
      vertex 11.2999 0.837986 0
    endloop
  endfacet
  facet normal 0 0 -1
    outer loop
      vertex -11.1086 0 0
      vertex 13.534 -4.07 0
      vertex 13.04 -4.1 0
    endloop
  endfacet
  facet normal 0 0 -1
    outer loop
      vertex -11.1086 0 0
      vertex 14.021 -3.981 0
      vertex 13.534 -4.07 0
    endloop
  endfacet
  facet normal 0 0 -1
    outer loop
      vertex -11.1086 0 0
      vertex 14.494 -3.834 0
      vertex 14.021 -3.981 0
    endloop
  endfacet
  facet normal 0 0 -1
    outer loop
      vertex -11.1086 0 0
      vertex 14.945 -3.63 0
      vertex 14.494 -3.834 0
    endloop
  endfacet
  facet normal 0 0 -1
    outer loop
      vertex -11.1086 0 0
      vertex 15.369 -3.374 0
      vertex 14.945 -3.63 0
    endloop
  endfacet
  facet normal 0 0 -1
    outer loop
      vertex -11.1086 0 0
      vertex 15.759 -3.069 0
      vertex 15.369 -3.374 0
    endloop
  endfacet
  facet normal 0 0 -1
    outer loop
      vertex -11.1086 0 0
      vertex 16.109 -2.719 0
      vertex 15.759 -3.069 0
    endloop
  endfacet
  facet normal 0 0 -1
    outer loop
      vertex -11.1086 0 0
      vertex 16.414 -2.329 0
      vertex 16.109 -2.719 0
    endloop
  endfacet
  facet normal 0 0 -1
    outer loop
      vertex -11.1086 0 0
      vertex 16.414 2.329 0
      vertex 12.6102 1.88294 0
    endloop
  endfacet
  facet normal 0 0 1
    outer loop
      vertex -11.1086 0 5.2
      vertex -9.89 -4.1 5.2
      vertex -9.89 4.1 5.2
    endloop
  endfacet
  facet normal 0 0 -1
    outer loop
      vertex -11.8358 -1.51 0
      vertex -11.1086 0 0
      vertex 13.04 -4.1 0
    endloop
  endfacet
  facet normal -0.900969 0.433884 0
    outer loop
      vertex -11.8358 -1.51 0
      vertex -11.8358 -1.51 5.2
      vertex -11.1086 0 0
    endloop
  endfacet
  facet normal -0.900969 0.433884 0
    outer loop
      vertex -11.8358 -1.51 5.2
      vertex -11.1086 0 5.2
      vertex -11.1086 0 0
    endloop
  endfacet
  facet normal 0 0 1
    outer loop
      vertex -11.8358 -1.51 5.2
      vertex -9.89 -4.1 5.2
      vertex -11.1086 0 5.2
    endloop
  endfacet
  facet normal -0.900969 -0.433884 0
    outer loop
      vertex -11.8358 1.51 0
      vertex -11.1086 0 0
      vertex -11.8358 1.51 5.2
    endloop
  endfacet
  facet normal 0 0 -1
    outer loop
      vertex -11.8358 1.51 0
      vertex 13.04 4.1 0
      vertex 13.534 4.07 0
    endloop
  endfacet
  facet normal 0 0 -1
    outer loop
      vertex -11.8358 1.51 0
      vertex 13.534 4.07 0
      vertex 14.021 3.981 0
    endloop
  endfacet
  facet normal 0 0 -1
    outer loop
      vertex -11.8358 1.51 0
      vertex 14.021 3.981 0
      vertex 14.494 3.834 0
    endloop
  endfacet
  facet normal 0 0 -1
    outer loop
      vertex -11.8358 1.51 0
      vertex 14.494 3.834 0
      vertex 14.945 3.63 0
    endloop
  endfacet
  facet normal 0 0 -1
    outer loop
      vertex -11.8358 1.51 0
      vertex 14.945 3.63 0
      vertex 15.369 3.374 0
    endloop
  endfacet
  facet normal 0 0 -1
    outer loop
      vertex -11.8358 1.51 0
      vertex 15.369 3.374 0
      vertex 15.759 3.069 0
    endloop
  endfacet
  facet normal 0 0 -1
    outer loop
      vertex -11.8358 1.51 0
      vertex 15.759 3.069 0
      vertex 16.109 2.719 0
    endloop
  endfacet
  facet normal 0 0 -1
    outer loop
      vertex -11.8358 1.51 0
      vertex 16.109 2.719 0
      vertex 16.414 2.329 0
    endloop
  endfacet
  facet normal 0 0 -1
    outer loop
      vertex -11.8358 1.51 0
      vertex 16.414 2.329 0
      vertex -11.1086 0 0
    endloop
  endfacet
  facet normal -0.900969 -0.433884 0
    outer loop
      vertex -11.8358 1.51 5.2
      vertex -11.1086 0 0
      vertex -11.1086 0 5.2
    endloop
  endfacet
  facet normal 0 0 1
    outer loop
      vertex -11.8358 1.51 5.2
      vertex -11.1086 0 5.2
      vertex -9.89 4.1 5.2
    endloop
  endfacet
  facet normal 0 -1 0
    outer loop
      vertex -13.04 -4.1 0
      vertex -9.89 -4.1 4
      vertex -13.04 -4.1 5.2
    endloop
  endfacet
  facet normal 0 -1 0
    outer loop
      vertex -13.04 -4.1 0
      vertex 13.04 -4.1 0
      vertex -9.89 -4.1 4
    endloop
  endfacet
  facet normal 0 -1 0
    outer loop
      vertex -13.04 -4.1 5.2
      vertex -9.89 -4.1 4
      vertex -9.89 -4.1 5.2
    endloop
  endfacet
  facet normal 0 1 0
    outer loop
      vertex -13.04 4.1 0
      vertex -13.04 4.1 5.2
      vertex -9.89 4.1 4
    endloop
  endfacet
  facet normal 0 1 0
    outer loop
      vertex -13.04 4.1 0
      vertex -9.89 4.1 4
      vertex 13.04 4.1 0
    endloop
  endfacet
  facet normal 0 0 -1
    outer loop
      vertex -13.04 4.1 0
      vertex 13.04 4.1 0
      vertex -11.8358 1.51 0
    endloop
  endfacet
  facet normal 0 1 0
    outer loop
      vertex -13.04 4.1 5.2
      vertex -9.89 4.1 5.2
      vertex -9.89 4.1 4
    endloop
  endfacet
  facet normal 0 0 -1
    outer loop
      vertex -13.4698 -1.88294 0
      vertex -11.8358 -1.51 0
      vertex 13.04 -4.1 0
    endloop
  endfacet
  facet normal -0.222522 0.974928 0
    outer loop
      vertex -13.4698 -1.88294 0
      vertex -13.4698 -1.88294 5.2
      vertex -11.8358 -1.51 0
    endloop
  endfacet
  facet normal 0 0 -1
    outer loop
      vertex -13.4698 -1.88294 0
      vertex 13.04 -4.1 0
      vertex -13.04 -4.1 0
    endloop
  endfacet
  facet normal -0.222522 0.974928 0
    outer loop
      vertex -13.4698 -1.88294 5.2
      vertex -11.8358 -1.51 5.2
      vertex -11.8358 -1.51 0
    endloop
  endfacet
  facet normal 0 0 1
    outer loop
      vertex -13.4698 -1.88294 5.2
      vertex -13.04 -4.1 5.2
      vertex -9.89 -4.1 5.2
    endloop
  endfacet
  facet normal 0 0 1
    outer loop
      vertex -13.4698 -1.88294 5.2
      vertex -9.89 -4.1 5.2
      vertex -11.8358 -1.51 5.2
    endloop
  endfacet
  facet normal -0.222522 -0.974928 0
    outer loop
      vertex -13.4698 1.88294 0
      vertex -11.8358 1.51 0
      vertex -13.4698 1.88294 5.2
    endloop
  endfacet
  facet normal 0 0 -1
    outer loop
      vertex -13.4698 1.88294 0
      vertex -13.04 4.1 0
      vertex -11.8358 1.51 0
    endloop
  endfacet
  facet normal -0.222522 -0.974928 0
    outer loop
      vertex -13.4698 1.88294 5.2
      vertex -11.8358 1.51 0
      vertex -11.8358 1.51 5.2
    endloop
  endfacet
  facet normal 0 0 1
    outer loop
      vertex -13.4698 1.88294 5.2
      vertex -11.8358 1.51 5.2
      vertex -9.89 4.1 5.2
    endloop
  endfacet
  facet normal -0.0606171 -0.998161 0
    outer loop
      vertex -13.534 -4.07 0
      vertex -13.04 -4.1 0
      vertex -13.534 -4.07 5.2
    endloop
  endfacet
  facet normal -0.0606171 -0.998161 0
    outer loop
      vertex -13.534 -4.07 5.2
      vertex -13.04 -4.1 0
      vertex -13.04 -4.1 5.2
    endloop
  endfacet
  facet normal -0.0606171 0.998161 0
    outer loop
      vertex -13.534 4.07 0
      vertex -13.534 4.07 5.2
      vertex -13.04 4.1 0
    endloop
  endfacet
  facet normal -0.0606171 0.998161 0
    outer loop
      vertex -13.534 4.07 5.2
      vertex -13.04 4.1 5.2
      vertex -13.04 4.1 0
    endloop
  endfacet
  facet normal -0.179774 -0.983708 0
    outer loop
      vertex -14.021 -3.981 0
      vertex -13.534 -4.07 0
      vertex -14.021 -3.981 5.2
    endloop
  endfacet
  facet normal -0.179774 -0.983708 0
    outer loop
      vertex -14.021 -3.981 5.2
      vertex -13.534 -4.07 0
      vertex -13.534 -4.07 5.2
    endloop
  endfacet
  facet normal -0.179774 0.983708 0
    outer loop
      vertex -14.021 3.981 0
      vertex -14.021 3.981 5.2
      vertex -13.534 4.07 0
    endloop
  endfacet
  facet normal -0.179774 0.983708 0
    outer loop
      vertex -14.021 3.981 5.2
      vertex -13.534 4.07 5.2
      vertex -13.534 4.07 0
    endloop
  endfacet
  facet normal -0.29678 -0.954946 0
    outer loop
      vertex -14.494 -3.834 0
      vertex -14.021 -3.981 0
      vertex -14.494 -3.834 5.2
    endloop
  endfacet
  facet normal -0.29678 -0.954946 0
    outer loop
      vertex -14.494 -3.834 5.2
      vertex -14.021 -3.981 0
      vertex -14.021 -3.981 5.2
    endloop
  endfacet
  facet normal -0.29678 0.954946 0
    outer loop
      vertex -14.494 3.834 0
      vertex -14.494 3.834 5.2
      vertex -14.021 3.981 0
    endloop
  endfacet
  facet normal -0.29678 0.954946 0
    outer loop
      vertex -14.494 3.834 5.2
      vertex -14.021 3.981 5.2
      vertex -14.021 3.981 0
    endloop
  endfacet
  facet normal 0 0 -1
    outer loop
      vertex -14.7801 -0.837986 0
      vertex -13.4698 -1.88294 0
      vertex -13.04 -4.1 0
    endloop
  endfacet
  facet normal 0.62349 0.781831 0
    outer loop
      vertex -14.7801 -0.837986 0
      vertex -14.7801 -0.837986 5.2
      vertex -13.4698 -1.88294 0
    endloop
  endfacet
  facet normal 1 0 0
    outer loop
      vertex -14.7801 -0.837986 0
      vertex -14.7801 0.837986 0
      vertex -14.7801 -0.837986 5.2
    endloop
  endfacet
  facet normal 0.62349 0.781831 0
    outer loop
      vertex -14.7801 -0.837986 5.2
      vertex -13.4698 -1.88294 5.2
      vertex -13.4698 -1.88294 0
    endloop
  endfacet
  facet normal 1 0 0
    outer loop
      vertex -14.7801 -0.837986 5.2
      vertex -14.7801 0.837986 0
      vertex -14.7801 0.837986 5.2
    endloop
  endfacet
  facet normal 0 0 -1
    outer loop
      vertex -14.7801 0.837986 0
      vertex -13.04 4.1 0
      vertex -13.4698 1.88294 0
    endloop
  endfacet
  facet normal 0.62349 -0.781831 0
    outer loop
      vertex -14.7801 0.837986 0
      vertex -13.4698 1.88294 0
      vertex -14.7801 0.837986 5.2
    endloop
  endfacet
  facet normal 0.62349 -0.781831 0
    outer loop
      vertex -14.7801 0.837986 5.2
      vertex -13.4698 1.88294 0
      vertex -13.4698 1.88294 5.2
    endloop
  endfacet
  facet normal -0.412128 -0.911126 0
    outer loop
      vertex -14.945 -3.63 0
      vertex -14.494 -3.834 0
      vertex -14.945 -3.63 5.2
    endloop
  endfacet
  facet normal -0.412128 -0.911126 0
    outer loop
      vertex -14.945 -3.63 5.2
      vertex -14.494 -3.834 0
      vertex -14.494 -3.834 5.2
    endloop
  endfacet
  facet normal -0.412128 0.911126 0
    outer loop
      vertex -14.945 3.63 0
      vertex -14.945 3.63 5.2
      vertex -14.494 3.834 0
    endloop
  endfacet
  facet normal -0.412128 0.911126 0
    outer loop
      vertex -14.945 3.63 5.2
      vertex -14.494 3.834 5.2
      vertex -14.494 3.834 0
    endloop
  endfacet
  facet normal -0.516869 -0.856064 0
    outer loop
      vertex -15.369 -3.374 0
      vertex -14.945 -3.63 0
      vertex -15.369 -3.374 5.2
    endloop
  endfacet
  facet normal -0.516869 -0.856064 0
    outer loop
      vertex -15.369 -3.374 5.2
      vertex -14.945 -3.63 0
      vertex -14.945 -3.63 5.2
    endloop
  endfacet
  facet normal -0.516869 0.856064 0
    outer loop
      vertex -15.369 3.374 0
      vertex -15.369 3.374 5.2
      vertex -14.945 3.63 0
    endloop
  endfacet
  facet normal -0.516869 0.856064 0
    outer loop
      vertex -15.369 3.374 5.2
      vertex -14.945 3.63 5.2
      vertex -14.945 3.63 0
    endloop
  endfacet
  facet normal -0.616036 -0.787718 0
    outer loop
      vertex -15.759 -3.069 0
      vertex -15.369 -3.374 0
      vertex -15.759 -3.069 5.2
    endloop
  endfacet
  facet normal -0.616036 -0.787718 0
    outer loop
      vertex -15.759 -3.069 5.2
      vertex -15.369 -3.374 0
      vertex -15.369 -3.374 5.2
    endloop
  endfacet
  facet normal -0.616036 0.787718 0
    outer loop
      vertex -15.759 3.069 0
      vertex -15.759 3.069 5.2
      vertex -15.369 3.374 0
    endloop
  endfacet
  facet normal -0.616036 0.787718 0
    outer loop
      vertex -15.759 3.069 5.2
      vertex -15.369 3.374 5.2
      vertex -15.369 3.374 0
    endloop
  endfacet
  facet normal -0.707107 -0.707107 0
    outer loop
      vertex -16.109 -2.719 0
      vertex -15.759 -3.069 0
      vertex -16.109 -2.719 5.2
    endloop
  endfacet
  facet normal -0.707107 -0.707107 0
    outer loop
      vertex -16.109 -2.719 5.2
      vertex -15.759 -3.069 0
      vertex -15.759 -3.069 5.2
    endloop
  endfacet
  facet normal -0.707107 0.707107 0
    outer loop
      vertex -16.109 2.719 0
      vertex -16.109 2.719 5.2
      vertex -15.759 3.069 0
    endloop
  endfacet
  facet normal -0.707107 0.707107 0
    outer loop
      vertex -16.109 2.719 5.2
      vertex -15.759 3.069 5.2
      vertex -15.759 3.069 0
    endloop
  endfacet
  facet normal -0.787718 -0.616036 0
    outer loop
      vertex -16.414 -2.329 0
      vertex -16.109 -2.719 0
      vertex -16.414 -2.329 5.2
    endloop
  endfacet
  facet normal -0.787718 -0.616036 0
    outer loop
      vertex -16.414 -2.329 5.2
      vertex -16.109 -2.719 0
      vertex -16.109 -2.719 5.2
    endloop
  endfacet
  facet normal -0.787718 0.616036 0
    outer loop
      vertex -16.414 2.329 0
      vertex -16.414 2.329 5.2
      vertex -16.109 2.719 0
    endloop
  endfacet
  facet normal -0.787718 0.616036 0
    outer loop
      vertex -16.414 2.329 5.2
      vertex -16.109 2.719 5.2
      vertex -16.109 2.719 0
    endloop
  endfacet
  facet normal -0.856064 -0.516869 0
    outer loop
      vertex -16.67 -1.905 0
      vertex -16.414 -2.329 0
      vertex -16.67 -1.905 5.2
    endloop
  endfacet
  facet normal -0.856064 -0.516869 0
    outer loop
      vertex -16.67 -1.905 5.2
      vertex -16.414 -2.329 0
      vertex -16.414 -2.329 5.2
    endloop
  endfacet
  facet normal -0.856064 0.516869 0
    outer loop
      vertex -16.67 1.905 0
      vertex -16.67 1.905 5.2
      vertex -16.414 2.329 0
    endloop
  endfacet
  facet normal -0.856064 0.516869 0
    outer loop
      vertex -16.67 1.905 5.2
      vertex -16.414 2.329 5.2
      vertex -16.414 2.329 0
    endloop
  endfacet
  facet normal -0.911126 -0.412128 0
    outer loop
      vertex -16.874 -1.454 0
      vertex -16.67 -1.905 0
      vertex -16.874 -1.454 5.2
    endloop
  endfacet
  facet normal -0.911126 -0.412128 0
    outer loop
      vertex -16.874 -1.454 5.2
      vertex -16.67 -1.905 0
      vertex -16.67 -1.905 5.2
    endloop
  endfacet
  facet normal -0.911126 0.412128 0
    outer loop
      vertex -16.874 1.454 0
      vertex -16.874 1.454 5.2
      vertex -16.67 1.905 0
    endloop
  endfacet
  facet normal -0.911126 0.412128 0
    outer loop
      vertex -16.874 1.454 5.2
      vertex -16.67 1.905 5.2
      vertex -16.67 1.905 0
    endloop
  endfacet
  facet normal -0.954946 -0.29678 0
    outer loop
      vertex -17.021 -0.981 0
      vertex -16.874 -1.454 0
      vertex -17.021 -0.981 5.2
    endloop
  endfacet
  facet normal -0.954946 -0.29678 0
    outer loop
      vertex -17.021 -0.981 5.2
      vertex -16.874 -1.454 0
      vertex -16.874 -1.454 5.2
    endloop
  endfacet
  facet normal -0.954946 0.29678 0
    outer loop
      vertex -17.021 0.981 0
      vertex -17.021 0.981 5.2
      vertex -16.874 1.454 0
    endloop
  endfacet
  facet normal -0.954946 0.29678 0
    outer loop
      vertex -17.021 0.981 5.2
      vertex -16.874 1.454 5.2
      vertex -16.874 1.454 0
    endloop
  endfacet
  facet normal 0 0 -1
    outer loop
      vertex -17.11 -0.494 0
      vertex -13.04 -4.1 0
      vertex -13.534 -4.07 0
    endloop
  endfacet
  facet normal 0 0 -1
    outer loop
      vertex -17.11 -0.494 0
      vertex -13.04 4.1 0
      vertex -14.7801 0.837986 0
    endloop
  endfacet
  facet normal 0 0 -1
    outer loop
      vertex -17.11 -0.494 0
      vertex -13.534 -4.07 0
      vertex -14.021 -3.981 0
    endloop
  endfacet
  facet normal 0 0 -1
    outer loop
      vertex -17.11 -0.494 0
      vertex -13.534 4.07 0
      vertex -13.04 4.1 0
    endloop
  endfacet
  facet normal 0 0 -1
    outer loop
      vertex -17.11 -0.494 0
      vertex -14.021 -3.981 0
      vertex -14.494 -3.834 0
    endloop
  endfacet
  facet normal 0 0 -1
    outer loop
      vertex -17.11 -0.494 0
      vertex -14.021 3.981 0
      vertex -13.534 4.07 0
    endloop
  endfacet
  facet normal 0 0 -1
    outer loop
      vertex -17.11 -0.494 0
      vertex -14.494 -3.834 0
      vertex -14.945 -3.63 0
    endloop
  endfacet
  facet normal 0 0 -1
    outer loop
      vertex -17.11 -0.494 0
      vertex -14.494 3.834 0
      vertex -14.021 3.981 0
    endloop
  endfacet
  facet normal 0 0 -1
    outer loop
      vertex -17.11 -0.494 0
      vertex -14.7801 -0.837986 0
      vertex -13.04 -4.1 0
    endloop
  endfacet
  facet normal 0 0 -1
    outer loop
      vertex -17.11 -0.494 0
      vertex -14.7801 0.837986 0
      vertex -14.7801 -0.837986 0
    endloop
  endfacet
  facet normal 0 0 -1
    outer loop
      vertex -17.11 -0.494 0
      vertex -14.945 -3.63 0
      vertex -15.369 -3.374 0
    endloop
  endfacet
  facet normal 0 0 -1
    outer loop
      vertex -17.11 -0.494 0
      vertex -14.945 3.63 0
      vertex -14.494 3.834 0
    endloop
  endfacet
  facet normal 0 0 -1
    outer loop
      vertex -17.11 -0.494 0
      vertex -15.369 -3.374 0
      vertex -15.759 -3.069 0
    endloop
  endfacet
  facet normal 0 0 -1
    outer loop
      vertex -17.11 -0.494 0
      vertex -15.369 3.374 0
      vertex -14.945 3.63 0
    endloop
  endfacet
  facet normal 0 0 -1
    outer loop
      vertex -17.11 -0.494 0
      vertex -15.759 -3.069 0
      vertex -16.109 -2.719 0
    endloop
  endfacet
  facet normal 0 0 -1
    outer loop
      vertex -17.11 -0.494 0
      vertex -15.759 3.069 0
      vertex -15.369 3.374 0
    endloop
  endfacet
  facet normal 0 0 -1
    outer loop
      vertex -17.11 -0.494 0
      vertex -16.109 -2.719 0
      vertex -16.414 -2.329 0
    endloop
  endfacet
  facet normal 0 0 -1
    outer loop
      vertex -17.11 -0.494 0
      vertex -16.109 2.719 0
      vertex -15.759 3.069 0
    endloop
  endfacet
  facet normal 0 0 -1
    outer loop
      vertex -17.11 -0.494 0
      vertex -16.414 -2.329 0
      vertex -16.67 -1.905 0
    endloop
  endfacet
  facet normal 0 0 -1
    outer loop
      vertex -17.11 -0.494 0
      vertex -16.414 2.329 0
      vertex -16.109 2.719 0
    endloop
  endfacet
  facet normal 0 0 -1
    outer loop
      vertex -17.11 -0.494 0
      vertex -16.67 -1.905 0
      vertex -16.874 -1.454 0
    endloop
  endfacet
  facet normal 0 0 -1
    outer loop
      vertex -17.11 -0.494 0
      vertex -16.67 1.905 0
      vertex -16.414 2.329 0
    endloop
  endfacet
  facet normal 0 0 -1
    outer loop
      vertex -17.11 -0.494 0
      vertex -16.874 -1.454 0
      vertex -17.021 -0.981 0
    endloop
  endfacet
  facet normal 0 0 -1
    outer loop
      vertex -17.11 -0.494 0
      vertex -16.874 1.454 0
      vertex -16.67 1.905 0
    endloop
  endfacet
  facet normal -0.983708 -0.179774 0
    outer loop
      vertex -17.11 -0.494 0
      vertex -17.021 -0.981 0
      vertex -17.11 -0.494 5.2
    endloop
  endfacet
  facet normal 0 0 -1
    outer loop
      vertex -17.11 -0.494 0
      vertex -17.021 0.981 0
      vertex -16.874 1.454 0
    endloop
  endfacet
  facet normal 0 0 -1
    outer loop
      vertex -17.11 -0.494 0
      vertex -17.11 0.494 0
      vertex -17.021 0.981 0
    endloop
  endfacet
  facet normal -0.983708 -0.179774 0
    outer loop
      vertex -17.11 -0.494 5.2
      vertex -17.021 -0.981 0
      vertex -17.021 -0.981 5.2
    endloop
  endfacet
  facet normal 0 0 1
    outer loop
      vertex -17.11 -0.494 5.2
      vertex -17.021 -0.981 5.2
      vertex -17.11 0.494 5.2
    endloop
  endfacet
  facet normal -0.983708 0.179774 0
    outer loop
      vertex -17.11 0.494 0
      vertex -17.11 0.494 5.2
      vertex -17.021 0.981 0
    endloop
  endfacet
  facet normal 0 0 1
    outer loop
      vertex -17.11 0.494 5.2
      vertex -13.04 -4.1 5.2
      vertex -13.4698 -1.88294 5.2
    endloop
  endfacet
  facet normal 0 0 1
    outer loop
      vertex -17.11 0.494 5.2
      vertex -13.04 4.1 5.2
      vertex -13.534 4.07 5.2
    endloop
  endfacet
  facet normal 0 0 1
    outer loop
      vertex -17.11 0.494 5.2
      vertex -13.4698 -1.88294 5.2
      vertex -14.7801 -0.837986 5.2
    endloop
  endfacet
  facet normal 0 0 1
    outer loop
      vertex -17.11 0.494 5.2
      vertex -13.4698 1.88294 5.2
      vertex -9.89 4.1 5.2
    endloop
  endfacet
  facet normal 0 0 1
    outer loop
      vertex -17.11 0.494 5.2
      vertex -13.534 -4.07 5.2
      vertex -13.04 -4.1 5.2
    endloop
  endfacet
  facet normal 0 0 1
    outer loop
      vertex -17.11 0.494 5.2
      vertex -13.534 4.07 5.2
      vertex -14.021 3.981 5.2
    endloop
  endfacet
  facet normal 0 0 1
    outer loop
      vertex -17.11 0.494 5.2
      vertex -14.021 -3.981 5.2
      vertex -13.534 -4.07 5.2
    endloop
  endfacet
  facet normal 0 0 1
    outer loop
      vertex -17.11 0.494 5.2
      vertex -14.021 3.981 5.2
      vertex -14.494 3.834 5.2
    endloop
  endfacet
  facet normal 0 0 1
    outer loop
      vertex -17.11 0.494 5.2
      vertex -14.494 -3.834 5.2
      vertex -14.021 -3.981 5.2
    endloop
  endfacet
  facet normal 0 0 1
    outer loop
      vertex -17.11 0.494 5.2
      vertex -14.494 3.834 5.2
      vertex -14.945 3.63 5.2
    endloop
  endfacet
  facet normal 0 0 1
    outer loop
      vertex -17.11 0.494 5.2
      vertex -14.7801 -0.837986 5.2
      vertex -14.7801 0.837986 5.2
    endloop
  endfacet
  facet normal 0 0 1
    outer loop
      vertex -17.11 0.494 5.2
      vertex -14.7801 0.837986 5.2
      vertex -13.4698 1.88294 5.2
    endloop
  endfacet
  facet normal 0 0 1
    outer loop
      vertex -17.11 0.494 5.2
      vertex -14.945 -3.63 5.2
      vertex -14.494 -3.834 5.2
    endloop
  endfacet
  facet normal 0 0 1
    outer loop
      vertex -17.11 0.494 5.2
      vertex -14.945 3.63 5.2
      vertex -15.369 3.374 5.2
    endloop
  endfacet
  facet normal 0 0 1
    outer loop
      vertex -17.11 0.494 5.2
      vertex -15.369 -3.374 5.2
      vertex -14.945 -3.63 5.2
    endloop
  endfacet
  facet normal 0 0 1
    outer loop
      vertex -17.11 0.494 5.2
      vertex -15.369 3.374 5.2
      vertex -15.759 3.069 5.2
    endloop
  endfacet
  facet normal 0 0 1
    outer loop
      vertex -17.11 0.494 5.2
      vertex -15.759 -3.069 5.2
      vertex -15.369 -3.374 5.2
    endloop
  endfacet
  facet normal 0 0 1
    outer loop
      vertex -17.11 0.494 5.2
      vertex -15.759 3.069 5.2
      vertex -16.109 2.719 5.2
    endloop
  endfacet
  facet normal 0 0 1
    outer loop
      vertex -17.11 0.494 5.2
      vertex -16.109 -2.719 5.2
      vertex -15.759 -3.069 5.2
    endloop
  endfacet
  facet normal 0 0 1
    outer loop
      vertex -17.11 0.494 5.2
      vertex -16.109 2.719 5.2
      vertex -16.414 2.329 5.2
    endloop
  endfacet
  facet normal 0 0 1
    outer loop
      vertex -17.11 0.494 5.2
      vertex -16.414 -2.329 5.2
      vertex -16.109 -2.719 5.2
    endloop
  endfacet
  facet normal 0 0 1
    outer loop
      vertex -17.11 0.494 5.2
      vertex -16.414 2.329 5.2
      vertex -16.67 1.905 5.2
    endloop
  endfacet
  facet normal 0 0 1
    outer loop
      vertex -17.11 0.494 5.2
      vertex -16.67 -1.905 5.2
      vertex -16.414 -2.329 5.2
    endloop
  endfacet
  facet normal 0 0 1
    outer loop
      vertex -17.11 0.494 5.2
      vertex -16.67 1.905 5.2
      vertex -16.874 1.454 5.2
    endloop
  endfacet
  facet normal 0 0 1
    outer loop
      vertex -17.11 0.494 5.2
      vertex -16.874 -1.454 5.2
      vertex -16.67 -1.905 5.2
    endloop
  endfacet
  facet normal 0 0 1
    outer loop
      vertex -17.11 0.494 5.2
      vertex -16.874 1.454 5.2
      vertex -17.021 0.981 5.2
    endloop
  endfacet
  facet normal 0 0 1
    outer loop
      vertex -17.11 0.494 5.2
      vertex -17.021 -0.981 5.2
      vertex -16.874 -1.454 5.2
    endloop
  endfacet
  facet normal -0.983708 0.179774 0
    outer loop
      vertex -17.11 0.494 5.2
      vertex -17.021 0.981 5.2
      vertex -17.021 0.981 0
    endloop
  endfacet
  facet normal 0 0 1
    outer loop
      vertex -17.11 0.494 5.2
      vertex -9.89 4.1 5.2
      vertex -13.04 4.1 5.2
    endloop
  endfacet
  facet normal -0.998161 -0.0606171 0
    outer loop
      vertex -17.14 0 0
      vertex -17.11 -0.494 0
      vertex -17.14 0 5.2
    endloop
  endfacet
  facet normal 0 0 -1
    outer loop
      vertex -17.14 0 0
      vertex -17.11 0.494 0
      vertex -17.11 -0.494 0
    endloop
  endfacet
  facet normal -0.998161 0.0606171 0
    outer loop
      vertex -17.14 0 0
      vertex -17.14 0 5.2
      vertex -17.11 0.494 0
    endloop
  endfacet
  facet normal -0.998161 -0.0606171 0
    outer loop
      vertex -17.14 0 5.2
      vertex -17.11 -0.494 0
      vertex -17.11 -0.494 5.2
    endloop
  endfacet
  facet normal 0 0 1
    outer loop
      vertex -17.14 0 5.2
      vertex -17.11 -0.494 5.2
      vertex -17.11 0.494 5.2
    endloop
  endfacet
  facet normal -0.998161 0.0606171 0
    outer loop
      vertex -17.14 0 5.2
      vertex -17.11 0.494 5.2
      vertex -17.11 0.494 0
    endloop
  endfacet
  facet normal 1 0 0
    outer loop
      vertex -9.89 -4.1 4
      vertex -9.89 4.1 4
      vertex -9.89 -4.1 5.2
    endloop
  endfacet
  facet normal 0 -1 0
    outer loop
      vertex -9.89 -4.1 4
      vertex 13.04 -4.1 0
      vertex 9.89 -4.1 4
    endloop
  endfacet
  facet normal 0 0 1
    outer loop
      vertex -9.89 -4.1 4
      vertex 9.89 -4.1 4
      vertex -9.89 4.1 4
    endloop
  endfacet
  facet normal 1 0 0
    outer loop
      vertex -9.89 -4.1 5.2
      vertex -9.89 4.1 4
      vertex -9.89 4.1 5.2
    endloop
  endfacet
  facet normal 0 0 1
    outer loop
      vertex -9.89 4.1 4
      vertex 9.89 -4.1 4
      vertex 9.89 4.1 4
    endloop
  endfacet
  facet normal 0 1 0
    outer loop
      vertex -9.89 4.1 4
      vertex 9.89 4.1 4
      vertex 13.04 4.1 0
    endloop
  endfacet
  facet normal 0.62349 0.781831 0
    outer loop
      vertex 11.2999 -0.837986 0
      vertex 11.2999 -0.837986 5.2
      vertex 12.6102 -1.88294 0
    endloop
  endfacet
  facet normal 1 0 0
    outer loop
      vertex 11.2999 -0.837986 0
      vertex 11.2999 0.837986 0
      vertex 11.2999 -0.837986 5.2
    endloop
  endfacet
  facet normal 1 0 0
    outer loop
      vertex 11.2999 -0.837986 5.2
      vertex 11.2999 0.837986 0
      vertex 11.2999 0.837986 5.2
    endloop
  endfacet
  facet normal 0.62349 0.781831 0
    outer loop
      vertex 11.2999 -0.837986 5.2
      vertex 12.6102 -1.88294 5.2
      vertex 12.6102 -1.88294 0
    endloop
  endfacet
  facet normal 0 0 1
    outer loop
      vertex 11.2999 -0.837986 5.2
      vertex 13.04 -4.1 5.2
      vertex 12.6102 -1.88294 5.2
    endloop
  endfacet
  facet normal 0.62349 -0.781831 0
    outer loop
      vertex 11.2999 0.837986 0
      vertex 12.6102 1.88294 0
      vertex 11.2999 0.837986 5.2
    endloop
  endfacet
  facet normal 0.62349 -0.781831 0
    outer loop
      vertex 11.2999 0.837986 5.2
      vertex 12.6102 1.88294 0
      vertex 12.6102 1.88294 5.2
    endloop
  endfacet
  facet normal -0.222522 0.974928 0
    outer loop
      vertex 12.6102 -1.88294 0
      vertex 12.6102 -1.88294 5.2
      vertex 14.2442 -1.51 0
    endloop
  endfacet
  facet normal 0 0 -1
    outer loop
      vertex 12.6102 -1.88294 0
      vertex 14.2442 -1.51 0
      vertex 16.67 -1.905 0
    endloop
  endfacet
  facet normal 0 0 -1
    outer loop
      vertex 12.6102 -1.88294 0
      vertex 16.67 -1.905 0
      vertex 16.414 -2.329 0
    endloop
  endfacet
  facet normal 0 0 1
    outer loop
      vertex 12.6102 -1.88294 5.2
      vertex 13.04 -4.1 5.2
      vertex 13.534 -4.07 5.2
    endloop
  endfacet
  facet normal 0 0 1
    outer loop
      vertex 12.6102 -1.88294 5.2
      vertex 13.534 -4.07 5.2
      vertex 14.021 -3.981 5.2
    endloop
  endfacet
  facet normal 0 0 1
    outer loop
      vertex 12.6102 -1.88294 5.2
      vertex 14.021 -3.981 5.2
      vertex 14.2442 -1.51 5.2
    endloop
  endfacet
  facet normal -0.222522 0.974928 0
    outer loop
      vertex 12.6102 -1.88294 5.2
      vertex 14.2442 -1.51 5.2
      vertex 14.2442 -1.51 0
    endloop
  endfacet
  facet normal -0.222522 -0.974928 0
    outer loop
      vertex 12.6102 1.88294 0
      vertex 14.2442 1.51 0
      vertex 12.6102 1.88294 5.2
    endloop
  endfacet
  facet normal 0 0 -1
    outer loop
      vertex 12.6102 1.88294 0
      vertex 16.414 2.329 0
      vertex 16.67 1.905 0
    endloop
  endfacet
  facet normal 0 0 -1
    outer loop
      vertex 12.6102 1.88294 0
      vertex 16.67 1.905 0
      vertex 14.2442 1.51 0
    endloop
  endfacet
  facet normal -0.222522 -0.974928 0
    outer loop
      vertex 12.6102 1.88294 5.2
      vertex 14.2442 1.51 0
      vertex 14.2442 1.51 5.2
    endloop
  endfacet
  facet normal 0.0606171 -0.998161 0
    outer loop
      vertex 13.04 -4.1 0
      vertex 13.534 -4.07 0
      vertex 13.04 -4.1 5.2
    endloop
  endfacet
  facet normal 0.0606171 -0.998161 0
    outer loop
      vertex 13.04 -4.1 5.2
      vertex 13.534 -4.07 0
      vertex 13.534 -4.07 5.2
    endloop
  endfacet
  facet normal 0.0606171 0.998161 0
    outer loop
      vertex 13.04 4.1 0
      vertex 13.04 4.1 5.2
      vertex 13.534 4.07 0
    endloop
  endfacet
  facet normal 0.0606171 0.998161 0
    outer loop
      vertex 13.04 4.1 5.2
      vertex 13.534 4.07 5.2
      vertex 13.534 4.07 0
    endloop
  endfacet
  facet normal 0.179774 -0.983708 0
    outer loop
      vertex 13.534 -4.07 0
      vertex 14.021 -3.981 0
      vertex 13.534 -4.07 5.2
    endloop
  endfacet
  facet normal 0.179774 -0.983708 0
    outer loop
      vertex 13.534 -4.07 5.2
      vertex 14.021 -3.981 0
      vertex 14.021 -3.981 5.2
    endloop
  endfacet
  facet normal 0.179774 0.983708 0
    outer loop
      vertex 13.534 4.07 0
      vertex 13.534 4.07 5.2
      vertex 14.021 3.981 0
    endloop
  endfacet
  facet normal 0.179774 0.983708 0
    outer loop
      vertex 13.534 4.07 5.2
      vertex 14.021 3.981 5.2
      vertex 14.021 3.981 0
    endloop
  endfacet
  facet normal 0.29678 -0.954946 0
    outer loop
      vertex 14.021 -3.981 0
      vertex 14.494 -3.834 0
      vertex 14.021 -3.981 5.2
    endloop
  endfacet
  facet normal 0.29678 -0.954946 0
    outer loop
      vertex 14.021 -3.981 5.2
      vertex 14.494 -3.834 0
      vertex 14.494 -3.834 5.2
    endloop
  endfacet
  facet normal 0 0 1
    outer loop
      vertex 14.021 -3.981 5.2
      vertex 14.494 -3.834 5.2
      vertex 14.2442 -1.51 5.2
    endloop
  endfacet
  facet normal 0.29678 0.954946 0
    outer loop
      vertex 14.021 3.981 0
      vertex 14.021 3.981 5.2
      vertex 14.494 3.834 0
    endloop
  endfacet
  facet normal 0.29678 0.954946 0
    outer loop
      vertex 14.021 3.981 5.2
      vertex 14.494 3.834 5.2
      vertex 14.494 3.834 0
    endloop
  endfacet
  facet normal -0.900969 0.433884 0
    outer loop
      vertex 14.2442 -1.51 0
      vertex 14.2442 -1.51 5.2
      vertex 14.9714 0 0
    endloop
  endfacet
  facet normal 0 0 -1
    outer loop
      vertex 14.2442 -1.51 0
      vertex 14.9714 0 0
      vertex 16.874 -1.454 0
    endloop
  endfacet
  facet normal 0 0 -1
    outer loop
      vertex 14.2442 -1.51 0
      vertex 16.874 -1.454 0
      vertex 16.67 -1.905 0
    endloop
  endfacet
  facet normal 0 0 1
    outer loop
      vertex 14.2442 -1.51 5.2
      vertex 14.494 -3.834 5.2
      vertex 14.945 -3.63 5.2
    endloop
  endfacet
  facet normal 0 0 1
    outer loop
      vertex 14.2442 -1.51 5.2
      vertex 14.945 -3.63 5.2
      vertex 15.369 -3.374 5.2
    endloop
  endfacet
  facet normal -0.900969 0.433884 0
    outer loop
      vertex 14.2442 -1.51 5.2
      vertex 14.9714 0 5.2
      vertex 14.9714 0 0
    endloop
  endfacet
  facet normal 0 0 1
    outer loop
      vertex 14.2442 -1.51 5.2
      vertex 15.369 -3.374 5.2
      vertex 15.759 -3.069 5.2
    endloop
  endfacet
  facet normal 0 0 1
    outer loop
      vertex 14.2442 -1.51 5.2
      vertex 15.759 -3.069 5.2
      vertex 14.9714 0 5.2
    endloop
  endfacet
  facet normal -0.900969 -0.433884 0
    outer loop
      vertex 14.2442 1.51 0
      vertex 14.9714 0 0
      vertex 14.2442 1.51 5.2
    endloop
  endfacet
  facet normal 0 0 -1
    outer loop
      vertex 14.2442 1.51 0
      vertex 16.67 1.905 0
      vertex 16.874 1.454 0
    endloop
  endfacet
  facet normal 0 0 -1
    outer loop
      vertex 14.2442 1.51 0
      vertex 16.874 1.454 0
      vertex 17.021 0.981 0
    endloop
  endfacet
  facet normal 0 0 -1
    outer loop
      vertex 14.2442 1.51 0
      vertex 17.021 0.981 0
      vertex 17.11 0.494 0
    endloop
  endfacet
  facet normal 0 0 -1
    outer loop
      vertex 14.2442 1.51 0
      vertex 17.11 0.494 0
      vertex 14.9714 0 0
    endloop
  endfacet
  facet normal -0.900969 -0.433884 0
    outer loop
      vertex 14.2442 1.51 5.2
      vertex 14.9714 0 0
      vertex 14.9714 0 5.2
    endloop
  endfacet
  facet normal 0 0 1
    outer loop
      vertex 14.2442 1.51 5.2
      vertex 14.9714 0 5.2
      vertex 16.874 -1.454 5.2
    endloop
  endfacet
  facet normal 0 0 1
    outer loop
      vertex 14.2442 1.51 5.2
      vertex 16.874 -1.454 5.2
      vertex 17.021 -0.981 5.2
    endloop
  endfacet
  facet normal 0 0 1
    outer loop
      vertex 14.2442 1.51 5.2
      vertex 17.021 -0.981 5.2
      vertex 17.11 -0.494 5.2
    endloop
  endfacet
  facet normal 0 0 1
    outer loop
      vertex 14.2442 1.51 5.2
      vertex 17.11 -0.494 5.2
      vertex 17.14 0 5.2
    endloop
  endfacet
  facet normal 0.412128 -0.911126 0
    outer loop
      vertex 14.494 -3.834 0
      vertex 14.945 -3.63 0
      vertex 14.494 -3.834 5.2
    endloop
  endfacet
  facet normal 0.412128 -0.911126 0
    outer loop
      vertex 14.494 -3.834 5.2
      vertex 14.945 -3.63 0
      vertex 14.945 -3.63 5.2
    endloop
  endfacet
  facet normal 0.412128 0.911126 0
    outer loop
      vertex 14.494 3.834 0
      vertex 14.494 3.834 5.2
      vertex 14.945 3.63 0
    endloop
  endfacet
  facet normal 0.412128 0.911126 0
    outer loop
      vertex 14.494 3.834 5.2
      vertex 14.945 3.63 5.2
      vertex 14.945 3.63 0
    endloop
  endfacet
  facet normal 0.516869 -0.856064 0
    outer loop
      vertex 14.945 -3.63 0
      vertex 15.369 -3.374 0
      vertex 14.945 -3.63 5.2
    endloop
  endfacet
  facet normal 0.516869 -0.856064 0
    outer loop
      vertex 14.945 -3.63 5.2
      vertex 15.369 -3.374 0
      vertex 15.369 -3.374 5.2
    endloop
  endfacet
  facet normal 0.516869 0.856064 0
    outer loop
      vertex 14.945 3.63 0
      vertex 14.945 3.63 5.2
      vertex 15.369 3.374 0
    endloop
  endfacet
  facet normal 0.516869 0.856064 0
    outer loop
      vertex 14.945 3.63 5.2
      vertex 15.369 3.374 5.2
      vertex 15.369 3.374 0
    endloop
  endfacet
  facet normal 0 0 -1
    outer loop
      vertex 14.9714 0 0
      vertex 17.021 -0.981 0
      vertex 16.874 -1.454 0
    endloop
  endfacet
  facet normal 0 0 -1
    outer loop
      vertex 14.9714 0 0
      vertex 17.11 -0.494 0
      vertex 17.021 -0.981 0
    endloop
  endfacet
  facet normal 0 0 -1
    outer loop
      vertex 14.9714 0 0
      vertex 17.11 0.494 0
      vertex 17.14 0 0
    endloop
  endfacet
  facet normal 0 0 -1
    outer loop
      vertex 14.9714 0 0
      vertex 17.14 0 0
      vertex 17.11 -0.494 0
    endloop
  endfacet
  facet normal 0 0 1
    outer loop
      vertex 14.9714 0 5.2
      vertex 15.759 -3.069 5.2
      vertex 16.109 -2.719 5.2
    endloop
  endfacet
  facet normal 0 0 1
    outer loop
      vertex 14.9714 0 5.2
      vertex 16.109 -2.719 5.2
      vertex 16.414 -2.329 5.2
    endloop
  endfacet
  facet normal 0 0 1
    outer loop
      vertex 14.9714 0 5.2
      vertex 16.414 -2.329 5.2
      vertex 16.67 -1.905 5.2
    endloop
  endfacet
  facet normal 0 0 1
    outer loop
      vertex 14.9714 0 5.2
      vertex 16.67 -1.905 5.2
      vertex 16.874 -1.454 5.2
    endloop
  endfacet
  facet normal 0.616036 -0.787718 0
    outer loop
      vertex 15.369 -3.374 0
      vertex 15.759 -3.069 0
      vertex 15.369 -3.374 5.2
    endloop
  endfacet
  facet normal 0.616036 -0.787718 0
    outer loop
      vertex 15.369 -3.374 5.2
      vertex 15.759 -3.069 0
      vertex 15.759 -3.069 5.2
    endloop
  endfacet
  facet normal 0.616036 0.787718 0
    outer loop
      vertex 15.369 3.374 0
      vertex 15.369 3.374 5.2
      vertex 15.759 3.069 0
    endloop
  endfacet
  facet normal 0.616036 0.787718 0
    outer loop
      vertex 15.369 3.374 5.2
      vertex 15.759 3.069 5.2
      vertex 15.759 3.069 0
    endloop
  endfacet
  facet normal 0.707107 -0.707107 0
    outer loop
      vertex 15.759 -3.069 0
      vertex 16.109 -2.719 0
      vertex 15.759 -3.069 5.2
    endloop
  endfacet
  facet normal 0.707107 -0.707107 0
    outer loop
      vertex 15.759 -3.069 5.2
      vertex 16.109 -2.719 0
      vertex 16.109 -2.719 5.2
    endloop
  endfacet
  facet normal 0.707107 0.707107 0
    outer loop
      vertex 15.759 3.069 0
      vertex 15.759 3.069 5.2
      vertex 16.109 2.719 0
    endloop
  endfacet
  facet normal 0.707107 0.707107 0
    outer loop
      vertex 15.759 3.069 5.2
      vertex 16.109 2.719 5.2
      vertex 16.109 2.719 0
    endloop
  endfacet
  facet normal 0.787718 -0.616036 0
    outer loop
      vertex 16.109 -2.719 0
      vertex 16.414 -2.329 0
      vertex 16.109 -2.719 5.2
    endloop
  endfacet
  facet normal 0.787718 -0.616036 0
    outer loop
      vertex 16.109 -2.719 5.2
      vertex 16.414 -2.329 0
      vertex 16.414 -2.329 5.2
    endloop
  endfacet
  facet normal 0.787718 0.616036 0
    outer loop
      vertex 16.109 2.719 0
      vertex 16.109 2.719 5.2
      vertex 16.414 2.329 0
    endloop
  endfacet
  facet normal 0.787718 0.616036 0
    outer loop
      vertex 16.109 2.719 5.2
      vertex 16.414 2.329 5.2
      vertex 16.414 2.329 0
    endloop
  endfacet
  facet normal 0.856064 -0.516869 0
    outer loop
      vertex 16.414 -2.329 0
      vertex 16.67 -1.905 0
      vertex 16.414 -2.329 5.2
    endloop
  endfacet
  facet normal 0.856064 -0.516869 0
    outer loop
      vertex 16.414 -2.329 5.2
      vertex 16.67 -1.905 0
      vertex 16.67 -1.905 5.2
    endloop
  endfacet
  facet normal 0.856064 0.516869 0
    outer loop
      vertex 16.414 2.329 0
      vertex 16.414 2.329 5.2
      vertex 16.67 1.905 0
    endloop
  endfacet
  facet normal 0.856064 0.516869 0
    outer loop
      vertex 16.414 2.329 5.2
      vertex 16.67 1.905 5.2
      vertex 16.67 1.905 0
    endloop
  endfacet
  facet normal 0.911126 -0.412128 0
    outer loop
      vertex 16.67 -1.905 0
      vertex 16.874 -1.454 0
      vertex 16.67 -1.905 5.2
    endloop
  endfacet
  facet normal 0.911126 -0.412128 0
    outer loop
      vertex 16.67 -1.905 5.2
      vertex 16.874 -1.454 0
      vertex 16.874 -1.454 5.2
    endloop
  endfacet
  facet normal 0.911126 0.412128 0
    outer loop
      vertex 16.67 1.905 0
      vertex 16.67 1.905 5.2
      vertex 16.874 1.454 0
    endloop
  endfacet
  facet normal 0.911126 0.412128 0
    outer loop
      vertex 16.67 1.905 5.2
      vertex 16.874 1.454 5.2
      vertex 16.874 1.454 0
    endloop
  endfacet
  facet normal 0.954946 -0.29678 0
    outer loop
      vertex 16.874 -1.454 0
      vertex 17.021 -0.981 0
      vertex 16.874 -1.454 5.2
    endloop
  endfacet
  facet normal 0.954946 -0.29678 0
    outer loop
      vertex 16.874 -1.454 5.2
      vertex 17.021 -0.981 0
      vertex 17.021 -0.981 5.2
    endloop
  endfacet
  facet normal 0.954946 0.29678 0
    outer loop
      vertex 16.874 1.454 0
      vertex 16.874 1.454 5.2
      vertex 17.021 0.981 0
    endloop
  endfacet
  facet normal 0.954946 0.29678 0
    outer loop
      vertex 16.874 1.454 5.2
      vertex 17.021 0.981 5.2
      vertex 17.021 0.981 0
    endloop
  endfacet
  facet normal 0.983708 -0.179774 0
    outer loop
      vertex 17.021 -0.981 0
      vertex 17.11 -0.494 0
      vertex 17.021 -0.981 5.2
    endloop
  endfacet
  facet normal 0.983708 -0.179774 0
    outer loop
      vertex 17.021 -0.981 5.2
      vertex 17.11 -0.494 0
      vertex 17.11 -0.494 5.2
    endloop
  endfacet
  facet normal 0.983708 0.179774 0
    outer loop
      vertex 17.021 0.981 0
      vertex 17.021 0.981 5.2
      vertex 17.11 0.494 0
    endloop
  endfacet
  facet normal 0.983708 0.179774 0
    outer loop
      vertex 17.021 0.981 5.2
      vertex 17.11 0.494 5.2
      vertex 17.11 0.494 0
    endloop
  endfacet
  facet normal 0.998161 -0.0606171 0
    outer loop
      vertex 17.11 -0.494 0
      vertex 17.14 0 0
      vertex 17.11 -0.494 5.2
    endloop
  endfacet
  facet normal 0.998161 -0.0606171 0
    outer loop
      vertex 17.11 -0.494 5.2
      vertex 17.14 0 0
      vertex 17.14 0 5.2
    endloop
  endfacet
  facet normal 0.998161 0.0606171 0
    outer loop
      vertex 17.11 0.494 0
      vertex 17.11 0.494 5.2
      vertex 17.14 0 0
    endloop
  endfacet
  facet normal 0.998161 0.0606171 0
    outer loop
      vertex 17.11 0.494 5.2
      vertex 17.14 0 5.2
      vertex 17.14 0 0
    endloop
  endfacet
  facet normal 0 -1 0
    outer loop
      vertex 9.89 -4.1 4
      vertex 13.04 -4.1 0
      vertex 9.89 -4.1 5.2
    endloop
  endfacet
  facet normal -1 0 0
    outer loop
      vertex 9.89 -4.1 4
      vertex 9.89 -4.1 5.2
      vertex 9.89 4.1 4
    endloop
  endfacet
  facet normal 0 0 1
    outer loop
      vertex 9.89 -4.1 5.2
      vertex 11.2999 -0.837986 5.2
      vertex 9.89 4.1 5.2
    endloop
  endfacet
  facet normal 0 -1 0
    outer loop
      vertex 9.89 -4.1 5.2
      vertex 13.04 -4.1 0
      vertex 13.04 -4.1 5.2
    endloop
  endfacet
  facet normal 0 0 1
    outer loop
      vertex 9.89 -4.1 5.2
      vertex 13.04 -4.1 5.2
      vertex 11.2999 -0.837986 5.2
    endloop
  endfacet
  facet normal -1 0 0
    outer loop
      vertex 9.89 -4.1 5.2
      vertex 9.89 4.1 5.2
      vertex 9.89 4.1 4
    endloop
  endfacet
  facet normal 0 1 0
    outer loop
      vertex 9.89 4.1 4
      vertex 9.89 4.1 5.2
      vertex 13.04 4.1 0
    endloop
  endfacet
  facet normal 0 0 1
    outer loop
      vertex 9.89 4.1 5.2
      vertex 11.2999 -0.837986 5.2
      vertex 11.2999 0.837986 5.2
    endloop
  endfacet
  facet normal 0 0 1
    outer loop
      vertex 9.89 4.1 5.2
      vertex 11.2999 0.837986 5.2
      vertex 12.6102 1.88294 5.2
    endloop
  endfacet
  facet normal 0 0 1
    outer loop
      vertex 9.89 4.1 5.2
      vertex 12.6102 1.88294 5.2
      vertex 14.2442 1.51 5.2
    endloop
  endfacet
  facet normal 0 1 0
    outer loop
      vertex 9.89 4.1 5.2
      vertex 13.04 4.1 5.2
      vertex 13.04 4.1 0
    endloop
  endfacet
  facet normal 0 0 1
    outer loop
      vertex 9.89 4.1 5.2
      vertex 13.534 4.07 5.2
      vertex 13.04 4.1 5.2
    endloop
  endfacet
  facet normal 0 0 1
    outer loop
      vertex 9.89 4.1 5.2
      vertex 14.021 3.981 5.2
      vertex 13.534 4.07 5.2
    endloop
  endfacet
  facet normal 0 0 1
    outer loop
      vertex 9.89 4.1 5.2
      vertex 14.2442 1.51 5.2
      vertex 17.14 0 5.2
    endloop
  endfacet
  facet normal 0 0 1
    outer loop
      vertex 9.89 4.1 5.2
      vertex 14.494 3.834 5.2
      vertex 14.021 3.981 5.2
    endloop
  endfacet
  facet normal 0 0 1
    outer loop
      vertex 9.89 4.1 5.2
      vertex 14.945 3.63 5.2
      vertex 14.494 3.834 5.2
    endloop
  endfacet
  facet normal 0 0 1
    outer loop
      vertex 9.89 4.1 5.2
      vertex 15.369 3.374 5.2
      vertex 14.945 3.63 5.2
    endloop
  endfacet
  facet normal 0 0 1
    outer loop
      vertex 9.89 4.1 5.2
      vertex 15.759 3.069 5.2
      vertex 15.369 3.374 5.2
    endloop
  endfacet
  facet normal 0 0 1
    outer loop
      vertex 9.89 4.1 5.2
      vertex 16.109 2.719 5.2
      vertex 15.759 3.069 5.2
    endloop
  endfacet
  facet normal 0 0 1
    outer loop
      vertex 9.89 4.1 5.2
      vertex 16.414 2.329 5.2
      vertex 16.109 2.719 5.2
    endloop
  endfacet
  facet normal 0 0 1
    outer loop
      vertex 9.89 4.1 5.2
      vertex 16.67 1.905 5.2
      vertex 16.414 2.329 5.2
    endloop
  endfacet
  facet normal 0 0 1
    outer loop
      vertex 9.89 4.1 5.2
      vertex 16.874 1.454 5.2
      vertex 16.67 1.905 5.2
    endloop
  endfacet
  facet normal 0 0 1
    outer loop
      vertex 9.89 4.1 5.2
      vertex 17.021 0.981 5.2
      vertex 16.874 1.454 5.2
    endloop
  endfacet
  facet normal 0 0 1
    outer loop
      vertex 9.89 4.1 5.2
      vertex 17.11 0.494 5.2
      vertex 17.021 0.981 5.2
    endloop
  endfacet
  facet normal 0 0 1
    outer loop
      vertex 9.89 4.1 5.2
      vertex 17.14 0 5.2
      vertex 17.11 0.494 5.2
    endloop
  endfacet
endsolid OpenSCAD_Model
