solid OpenSCAD_Model
  facet normal 1 0 0
    outer loop
      vertex -13.7 -4.1 4
      vertex -13.7 4.1 4
      vertex -13.7 -4.1 5.2
    endloop
  endfacet
  facet normal 0 0 1
    outer loop
      vertex -13.7 -4.1 4
      vertex 13.7 -4.1 4
      vertex -13.7 4.1 4
    endloop
  endfacet
  facet normal 0 -1 0
    outer loop
      vertex -13.7 -4.1 4
      vertex 16.85 -4.1 0
      vertex 13.7 -4.1 4
    endloop
  endfacet
  facet normal 1 0 0
    outer loop
      vertex -13.7 -4.1 5.2
      vertex -13.7 4.1 4
      vertex -13.7 4.1 5.2
    endloop
  endfacet
  facet normal 0 0 1
    outer loop
      vertex -13.7 4.1 4
      vertex 13.7 -4.1 4
      vertex 13.7 4.1 4
    endloop
  endfacet
  facet normal 0 1 0
    outer loop
      vertex -13.7 4.1 4
      vertex 13.7 4.1 4
      vertex 16.85 4.1 0
    endloop
  endfacet
  facet normal 0 0 -1
    outer loop
      vertex -14.9186 0 0
      vertex 15.1099 -0.837986 0
      vertex 16.4202 -1.88294 0
    endloop
  endfacet
  facet normal 0 0 -1
    outer loop
      vertex -14.9186 0 0
      vertex 15.1099 0.837986 0
      vertex 15.1099 -0.837986 0
    endloop
  endfacet
  facet normal 0 0 -1
    outer loop
      vertex -14.9186 0 0
      vertex 16.4202 -1.88294 0
      vertex 20.224 -2.329 0
    endloop
  endfacet
  facet normal 0 0 -1
    outer loop
      vertex -14.9186 0 0
      vertex 16.4202 1.88294 0
      vertex 15.1099 0.837986 0
    endloop
  endfacet
  facet normal 0 0 -1
    outer loop
      vertex -14.9186 0 0
      vertex 17.344 -4.07 0
      vertex 16.85 -4.1 0
    endloop
  endfacet
  facet normal 0 0 -1
    outer loop
      vertex -14.9186 0 0
      vertex 17.831 -3.981 0
      vertex 17.344 -4.07 0
    endloop
  endfacet
  facet normal 0 0 -1
    outer loop
      vertex -14.9186 0 0
      vertex 18.304 -3.834 0
      vertex 17.831 -3.981 0
    endloop
  endfacet
  facet normal 0 0 -1
    outer loop
      vertex -14.9186 0 0
      vertex 18.755 -3.63 0
      vertex 18.304 -3.834 0
    endloop
  endfacet
  facet normal 0 0 -1
    outer loop
      vertex -14.9186 0 0
      vertex 19.179 -3.374 0
      vertex 18.755 -3.63 0
    endloop
  endfacet
  facet normal 0 0 -1
    outer loop
      vertex -14.9186 0 0
      vertex 19.569 -3.069 0
      vertex 19.179 -3.374 0
    endloop
  endfacet
  facet normal 0 0 -1
    outer loop
      vertex -14.9186 0 0
      vertex 19.569 3.069 0
      vertex 19.919 2.719 0
    endloop
  endfacet
  facet normal 0 0 -1
    outer loop
      vertex -14.9186 0 0
      vertex 19.919 -2.719 0
      vertex 19.569 -3.069 0
    endloop
  endfacet
  facet normal 0 0 -1
    outer loop
      vertex -14.9186 0 0
      vertex 19.919 2.719 0
      vertex 20.224 2.329 0
    endloop
  endfacet
  facet normal 0 0 -1
    outer loop
      vertex -14.9186 0 0
      vertex 20.224 -2.329 0
      vertex 19.919 -2.719 0
    endloop
  endfacet
  facet normal 0 0 -1
    outer loop
      vertex -14.9186 0 0
      vertex 20.224 2.329 0
      vertex 16.4202 1.88294 0
    endloop
  endfacet
  facet normal 0 0 1
    outer loop
      vertex -14.9186 0 5.2
      vertex -13.7 -4.1 5.2
      vertex -13.7 4.1 5.2
    endloop
  endfacet
  facet normal 0 0 -1
    outer loop
      vertex -15.6458 -1.51 0
      vertex -14.9186 0 0
      vertex 16.85 -4.1 0
    endloop
  endfacet
  facet normal -0.900969 0.433884 0
    outer loop
      vertex -15.6458 -1.51 0
      vertex -15.6458 -1.51 5.2
      vertex -14.9186 0 0
    endloop
  endfacet
  facet normal 0 0 1
    outer loop
      vertex -15.6458 -1.51 5.2
      vertex -13.7 -4.1 5.2
      vertex -14.9186 0 5.2
    endloop
  endfacet
  facet normal -0.900969 0.433884 0
    outer loop
      vertex -15.6458 -1.51 5.2
      vertex -14.9186 0 5.2
      vertex -14.9186 0 0
    endloop
  endfacet
  facet normal -0.900969 -0.433884 0
    outer loop
      vertex -15.6458 1.51 0
      vertex -14.9186 0 0
      vertex -15.6458 1.51 5.2
    endloop
  endfacet
  facet normal 0 0 -1
    outer loop
      vertex -15.6458 1.51 0
      vertex 16.85 4.1 0
      vertex 17.344 4.07 0
    endloop
  endfacet
  facet normal 0 0 -1
    outer loop
      vertex -15.6458 1.51 0
      vertex 17.344 4.07 0
      vertex 17.831 3.981 0
    endloop
  endfacet
  facet normal 0 0 -1
    outer loop
      vertex -15.6458 1.51 0
      vertex 17.831 3.981 0
      vertex 18.304 3.834 0
    endloop
  endfacet
  facet normal 0 0 -1
    outer loop
      vertex -15.6458 1.51 0
      vertex 18.304 3.834 0
      vertex 18.755 3.63 0
    endloop
  endfacet
  facet normal 0 0 -1
    outer loop
      vertex -15.6458 1.51 0
      vertex 18.755 3.63 0
      vertex 19.179 3.374 0
    endloop
  endfacet
  facet normal 0 0 -1
    outer loop
      vertex -15.6458 1.51 0
      vertex 19.179 3.374 0
      vertex 19.569 3.069 0
    endloop
  endfacet
  facet normal 0 0 -1
    outer loop
      vertex -15.6458 1.51 0
      vertex 19.569 3.069 0
      vertex -14.9186 0 0
    endloop
  endfacet
  facet normal -0.900969 -0.433884 0
    outer loop
      vertex -15.6458 1.51 5.2
      vertex -14.9186 0 0
      vertex -14.9186 0 5.2
    endloop
  endfacet
  facet normal 0 0 1
    outer loop
      vertex -15.6458 1.51 5.2
      vertex -14.9186 0 5.2
      vertex -13.7 4.1 5.2
    endloop
  endfacet
  facet normal 0 -1 0
    outer loop
      vertex -16.85 -4.1 0
      vertex -13.7 -4.1 4
      vertex -16.85 -4.1 5.2
    endloop
  endfacet
  facet normal 0 -1 0
    outer loop
      vertex -16.85 -4.1 0
      vertex 16.85 -4.1 0
      vertex -13.7 -4.1 4
    endloop
  endfacet
  facet normal 0 -1 0
    outer loop
      vertex -16.85 -4.1 5.2
      vertex -13.7 -4.1 4
      vertex -13.7 -4.1 5.2
    endloop
  endfacet
  facet normal 0 1 0
    outer loop
      vertex -16.85 4.1 0
      vertex -13.7 4.1 4
      vertex 16.85 4.1 0
    endloop
  endfacet
  facet normal 0 1 0
    outer loop
      vertex -16.85 4.1 0
      vertex -16.85 4.1 5.2
      vertex -13.7 4.1 4
    endloop
  endfacet
  facet normal 0 0 -1
    outer loop
      vertex -16.85 4.1 0
      vertex 16.85 4.1 0
      vertex -15.6458 1.51 0
    endloop
  endfacet
  facet normal 0 1 0
    outer loop
      vertex -16.85 4.1 5.2
      vertex -13.7 4.1 5.2
      vertex -13.7 4.1 4
    endloop
  endfacet
  facet normal 0 0 -1
    outer loop
      vertex -17.2798 -1.88294 0
      vertex -15.6458 -1.51 0
      vertex 16.85 -4.1 0
    endloop
  endfacet
  facet normal -0.222522 0.974928 0
    outer loop
      vertex -17.2798 -1.88294 0
      vertex -17.2798 -1.88294 5.2
      vertex -15.6458 -1.51 0
    endloop
  endfacet
  facet normal 0 0 -1
    outer loop
      vertex -17.2798 -1.88294 0
      vertex 16.85 -4.1 0
      vertex -16.85 -4.1 0
    endloop
  endfacet
  facet normal 0 0 1
    outer loop
      vertex -17.2798 -1.88294 5.2
      vertex -13.7 -4.1 5.2
      vertex -15.6458 -1.51 5.2
    endloop
  endfacet
  facet normal -0.222522 0.974928 0
    outer loop
      vertex -17.2798 -1.88294 5.2
      vertex -15.6458 -1.51 5.2
      vertex -15.6458 -1.51 0
    endloop
  endfacet
  facet normal 0 0 1
    outer loop
      vertex -17.2798 -1.88294 5.2
      vertex -16.85 -4.1 5.2
      vertex -13.7 -4.1 5.2
    endloop
  endfacet
  facet normal -0.222522 -0.974928 0
    outer loop
      vertex -17.2798 1.88294 0
      vertex -15.6458 1.51 0
      vertex -17.2798 1.88294 5.2
    endloop
  endfacet
  facet normal 0 0 -1
    outer loop
      vertex -17.2798 1.88294 0
      vertex -16.85 4.1 0
      vertex -15.6458 1.51 0
    endloop
  endfacet
  facet normal -0.222522 -0.974928 0
    outer loop
      vertex -17.2798 1.88294 5.2
      vertex -15.6458 1.51 0
      vertex -15.6458 1.51 5.2
    endloop
  endfacet
  facet normal 0 0 1
    outer loop
      vertex -17.2798 1.88294 5.2
      vertex -15.6458 1.51 5.2
      vertex -13.7 4.1 5.2
    endloop
  endfacet
  facet normal -0.0606171 -0.998161 0
    outer loop
      vertex -17.344 -4.07 0
      vertex -16.85 -4.1 0
      vertex -17.344 -4.07 5.2
    endloop
  endfacet
  facet normal -0.0606171 -0.998161 0
    outer loop
      vertex -17.344 -4.07 5.2
      vertex -16.85 -4.1 0
      vertex -16.85 -4.1 5.2
    endloop
  endfacet
  facet normal -0.0606171 0.998161 0
    outer loop
      vertex -17.344 4.07 0
      vertex -17.344 4.07 5.2
      vertex -16.85 4.1 0
    endloop
  endfacet
  facet normal -0.0606171 0.998161 0
    outer loop
      vertex -17.344 4.07 5.2
      vertex -16.85 4.1 5.2
      vertex -16.85 4.1 0
    endloop
  endfacet
  facet normal -0.179774 -0.983708 0
    outer loop
      vertex -17.831 -3.981 0
      vertex -17.344 -4.07 0
      vertex -17.831 -3.981 5.2
    endloop
  endfacet
  facet normal -0.179774 -0.983708 0
    outer loop
      vertex -17.831 -3.981 5.2
      vertex -17.344 -4.07 0
      vertex -17.344 -4.07 5.2
    endloop
  endfacet
  facet normal -0.179774 0.983708 0
    outer loop
      vertex -17.831 3.981 0
      vertex -17.831 3.981 5.2
      vertex -17.344 4.07 0
    endloop
  endfacet
  facet normal -0.179774 0.983708 0
    outer loop
      vertex -17.831 3.981 5.2
      vertex -17.344 4.07 5.2
      vertex -17.344 4.07 0
    endloop
  endfacet
  facet normal -0.29678 -0.954946 0
    outer loop
      vertex -18.304 -3.834 0
      vertex -17.831 -3.981 0
      vertex -18.304 -3.834 5.2
    endloop
  endfacet
  facet normal -0.29678 -0.954946 0
    outer loop
      vertex -18.304 -3.834 5.2
      vertex -17.831 -3.981 0
      vertex -17.831 -3.981 5.2
    endloop
  endfacet
  facet normal -0.29678 0.954946 0
    outer loop
      vertex -18.304 3.834 0
      vertex -18.304 3.834 5.2
      vertex -17.831 3.981 0
    endloop
  endfacet
  facet normal -0.29678 0.954946 0
    outer loop
      vertex -18.304 3.834 5.2
      vertex -17.831 3.981 5.2
      vertex -17.831 3.981 0
    endloop
  endfacet
  facet normal 0 0 -1
    outer loop
      vertex -18.5901 -0.837986 0
      vertex -17.2798 -1.88294 0
      vertex -16.85 -4.1 0
    endloop
  endfacet
  facet normal 0.62349 0.781831 0
    outer loop
      vertex -18.5901 -0.837986 0
      vertex -18.5901 -0.837986 5.2
      vertex -17.2798 -1.88294 0
    endloop
  endfacet
  facet normal 1 0 0
    outer loop
      vertex -18.5901 -0.837986 0
      vertex -18.5901 0.837986 0
      vertex -18.5901 -0.837986 5.2
    endloop
  endfacet
  facet normal 0.62349 0.781831 0
    outer loop
      vertex -18.5901 -0.837986 5.2
      vertex -17.2798 -1.88294 5.2
      vertex -17.2798 -1.88294 0
    endloop
  endfacet
  facet normal 1 0 0
    outer loop
      vertex -18.5901 -0.837986 5.2
      vertex -18.5901 0.837986 0
      vertex -18.5901 0.837986 5.2
    endloop
  endfacet
  facet normal 0 0 -1
    outer loop
      vertex -18.5901 0.837986 0
      vertex -16.85 4.1 0
      vertex -17.2798 1.88294 0
    endloop
  endfacet
  facet normal 0.62349 -0.781831 0
    outer loop
      vertex -18.5901 0.837986 0
      vertex -17.2798 1.88294 0
      vertex -18.5901 0.837986 5.2
    endloop
  endfacet
  facet normal 0.62349 -0.781831 0
    outer loop
      vertex -18.5901 0.837986 5.2
      vertex -17.2798 1.88294 0
      vertex -17.2798 1.88294 5.2
    endloop
  endfacet
  facet normal -0.412128 -0.911126 0
    outer loop
      vertex -18.755 -3.63 0
      vertex -18.304 -3.834 0
      vertex -18.755 -3.63 5.2
    endloop
  endfacet
  facet normal -0.412128 -0.911126 0
    outer loop
      vertex -18.755 -3.63 5.2
      vertex -18.304 -3.834 0
      vertex -18.304 -3.834 5.2
    endloop
  endfacet
  facet normal -0.412128 0.911126 0
    outer loop
      vertex -18.755 3.63 0
      vertex -18.755 3.63 5.2
      vertex -18.304 3.834 0
    endloop
  endfacet
  facet normal -0.412128 0.911126 0
    outer loop
      vertex -18.755 3.63 5.2
      vertex -18.304 3.834 5.2
      vertex -18.304 3.834 0
    endloop
  endfacet
  facet normal -0.516869 -0.856064 0
    outer loop
      vertex -19.179 -3.374 0
      vertex -18.755 -3.63 0
      vertex -19.179 -3.374 5.2
    endloop
  endfacet
  facet normal -0.516869 -0.856064 0
    outer loop
      vertex -19.179 -3.374 5.2
      vertex -18.755 -3.63 0
      vertex -18.755 -3.63 5.2
    endloop
  endfacet
  facet normal -0.516869 0.856064 0
    outer loop
      vertex -19.179 3.374 0
      vertex -19.179 3.374 5.2
      vertex -18.755 3.63 0
    endloop
  endfacet
  facet normal -0.516869 0.856064 0
    outer loop
      vertex -19.179 3.374 5.2
      vertex -18.755 3.63 5.2
      vertex -18.755 3.63 0
    endloop
  endfacet
  facet normal -0.616036 -0.787718 0
    outer loop
      vertex -19.569 -3.069 0
      vertex -19.179 -3.374 0
      vertex -19.569 -3.069 5.2
    endloop
  endfacet
  facet normal -0.616036 -0.787718 0
    outer loop
      vertex -19.569 -3.069 5.2
      vertex -19.179 -3.374 0
      vertex -19.179 -3.374 5.2
    endloop
  endfacet
  facet normal -0.616036 0.787718 0
    outer loop
      vertex -19.569 3.069 0
      vertex -19.569 3.069 5.2
      vertex -19.179 3.374 0
    endloop
  endfacet
  facet normal -0.616036 0.787718 0
    outer loop
      vertex -19.569 3.069 5.2
      vertex -19.179 3.374 5.2
      vertex -19.179 3.374 0
    endloop
  endfacet
  facet normal -0.707107 -0.707107 0
    outer loop
      vertex -19.919 -2.719 0
      vertex -19.569 -3.069 0
      vertex -19.919 -2.719 5.2
    endloop
  endfacet
  facet normal -0.707107 -0.707107 0
    outer loop
      vertex -19.919 -2.719 5.2
      vertex -19.569 -3.069 0
      vertex -19.569 -3.069 5.2
    endloop
  endfacet
  facet normal -0.707107 0.707107 0
    outer loop
      vertex -19.919 2.719 0
      vertex -19.919 2.719 5.2
      vertex -19.569 3.069 0
    endloop
  endfacet
  facet normal -0.707107 0.707107 0
    outer loop
      vertex -19.919 2.719 5.2
      vertex -19.569 3.069 5.2
      vertex -19.569 3.069 0
    endloop
  endfacet
  facet normal -0.787718 -0.616036 0
    outer loop
      vertex -20.224 -2.329 0
      vertex -19.919 -2.719 0
      vertex -20.224 -2.329 5.2
    endloop
  endfacet
  facet normal -0.787718 -0.616036 0
    outer loop
      vertex -20.224 -2.329 5.2
      vertex -19.919 -2.719 0
      vertex -19.919 -2.719 5.2
    endloop
  endfacet
  facet normal -0.787718 0.616036 0
    outer loop
      vertex -20.224 2.329 0
      vertex -20.224 2.329 5.2
      vertex -19.919 2.719 0
    endloop
  endfacet
  facet normal -0.787718 0.616036 0
    outer loop
      vertex -20.224 2.329 5.2
      vertex -19.919 2.719 5.2
      vertex -19.919 2.719 0
    endloop
  endfacet
  facet normal -0.856064 -0.516869 0
    outer loop
      vertex -20.48 -1.905 0
      vertex -20.224 -2.329 0
      vertex -20.48 -1.905 5.2
    endloop
  endfacet
  facet normal -0.856064 -0.516869 0
    outer loop
      vertex -20.48 -1.905 5.2
      vertex -20.224 -2.329 0
      vertex -20.224 -2.329 5.2
    endloop
  endfacet
  facet normal -0.856064 0.516869 0
    outer loop
      vertex -20.48 1.905 0
      vertex -20.48 1.905 5.2
      vertex -20.224 2.329 0
    endloop
  endfacet
  facet normal -0.856064 0.516869 0
    outer loop
      vertex -20.48 1.905 5.2
      vertex -20.224 2.329 5.2
      vertex -20.224 2.329 0
    endloop
  endfacet
  facet normal -0.911126 -0.412128 0
    outer loop
      vertex -20.684 -1.454 0
      vertex -20.48 -1.905 0
      vertex -20.684 -1.454 5.2
    endloop
  endfacet
  facet normal -0.911126 -0.412128 0
    outer loop
      vertex -20.684 -1.454 5.2
      vertex -20.48 -1.905 0
      vertex -20.48 -1.905 5.2
    endloop
  endfacet
  facet normal -0.911126 0.412128 0
    outer loop
      vertex -20.684 1.454 0
      vertex -20.684 1.454 5.2
      vertex -20.48 1.905 0
    endloop
  endfacet
  facet normal -0.911126 0.412128 0
    outer loop
      vertex -20.684 1.454 5.2
      vertex -20.48 1.905 5.2
      vertex -20.48 1.905 0
    endloop
  endfacet
  facet normal -0.954946 -0.29678 0
    outer loop
      vertex -20.831 -0.981 0
      vertex -20.684 -1.454 0
      vertex -20.831 -0.981 5.2
    endloop
  endfacet
  facet normal -0.954946 -0.29678 0
    outer loop
      vertex -20.831 -0.981 5.2
      vertex -20.684 -1.454 0
      vertex -20.684 -1.454 5.2
    endloop
  endfacet
  facet normal -0.954946 0.29678 0
    outer loop
      vertex -20.831 0.981 0
      vertex -20.831 0.981 5.2
      vertex -20.684 1.454 0
    endloop
  endfacet
  facet normal -0.954946 0.29678 0
    outer loop
      vertex -20.831 0.981 5.2
      vertex -20.684 1.454 5.2
      vertex -20.684 1.454 0
    endloop
  endfacet
  facet normal 0 0 -1
    outer loop
      vertex -20.92 -0.494 0
      vertex -16.85 -4.1 0
      vertex -17.344 -4.07 0
    endloop
  endfacet
  facet normal 0 0 -1
    outer loop
      vertex -20.92 -0.494 0
      vertex -16.85 4.1 0
      vertex -18.5901 0.837986 0
    endloop
  endfacet
  facet normal 0 0 -1
    outer loop
      vertex -20.92 -0.494 0
      vertex -17.344 -4.07 0
      vertex -17.831 -3.981 0
    endloop
  endfacet
  facet normal 0 0 -1
    outer loop
      vertex -20.92 -0.494 0
      vertex -17.344 4.07 0
      vertex -16.85 4.1 0
    endloop
  endfacet
  facet normal 0 0 -1
    outer loop
      vertex -20.92 -0.494 0
      vertex -17.831 -3.981 0
      vertex -18.304 -3.834 0
    endloop
  endfacet
  facet normal 0 0 -1
    outer loop
      vertex -20.92 -0.494 0
      vertex -17.831 3.981 0
      vertex -17.344 4.07 0
    endloop
  endfacet
  facet normal 0 0 -1
    outer loop
      vertex -20.92 -0.494 0
      vertex -18.304 -3.834 0
      vertex -18.755 -3.63 0
    endloop
  endfacet
  facet normal 0 0 -1
    outer loop
      vertex -20.92 -0.494 0
      vertex -18.304 3.834 0
      vertex -17.831 3.981 0
    endloop
  endfacet
  facet normal 0 0 -1
    outer loop
      vertex -20.92 -0.494 0
      vertex -18.5901 -0.837986 0
      vertex -16.85 -4.1 0
    endloop
  endfacet
  facet normal 0 0 -1
    outer loop
      vertex -20.92 -0.494 0
      vertex -18.5901 0.837986 0
      vertex -18.5901 -0.837986 0
    endloop
  endfacet
  facet normal 0 0 -1
    outer loop
      vertex -20.92 -0.494 0
      vertex -18.755 -3.63 0
      vertex -19.179 -3.374 0
    endloop
  endfacet
  facet normal 0 0 -1
    outer loop
      vertex -20.92 -0.494 0
      vertex -18.755 3.63 0
      vertex -18.304 3.834 0
    endloop
  endfacet
  facet normal 0 0 -1
    outer loop
      vertex -20.92 -0.494 0
      vertex -19.179 -3.374 0
      vertex -19.569 -3.069 0
    endloop
  endfacet
  facet normal 0 0 -1
    outer loop
      vertex -20.92 -0.494 0
      vertex -19.179 3.374 0
      vertex -18.755 3.63 0
    endloop
  endfacet
  facet normal 0 0 -1
    outer loop
      vertex -20.92 -0.494 0
      vertex -19.569 -3.069 0
      vertex -19.919 -2.719 0
    endloop
  endfacet
  facet normal 0 0 -1
    outer loop
      vertex -20.92 -0.494 0
      vertex -19.569 3.069 0
      vertex -19.179 3.374 0
    endloop
  endfacet
  facet normal 0 0 -1
    outer loop
      vertex -20.92 -0.494 0
      vertex -19.919 -2.719 0
      vertex -20.224 -2.329 0
    endloop
  endfacet
  facet normal 0 0 -1
    outer loop
      vertex -20.92 -0.494 0
      vertex -19.919 2.719 0
      vertex -19.569 3.069 0
    endloop
  endfacet
  facet normal 0 0 -1
    outer loop
      vertex -20.92 -0.494 0
      vertex -20.224 -2.329 0
      vertex -20.48 -1.905 0
    endloop
  endfacet
  facet normal 0 0 -1
    outer loop
      vertex -20.92 -0.494 0
      vertex -20.224 2.329 0
      vertex -19.919 2.719 0
    endloop
  endfacet
  facet normal 0 0 -1
    outer loop
      vertex -20.92 -0.494 0
      vertex -20.48 -1.905 0
      vertex -20.684 -1.454 0
    endloop
  endfacet
  facet normal 0 0 -1
    outer loop
      vertex -20.92 -0.494 0
      vertex -20.48 1.905 0
      vertex -20.224 2.329 0
    endloop
  endfacet
  facet normal 0 0 -1
    outer loop
      vertex -20.92 -0.494 0
      vertex -20.684 -1.454 0
      vertex -20.831 -0.981 0
    endloop
  endfacet
  facet normal 0 0 -1
    outer loop
      vertex -20.92 -0.494 0
      vertex -20.684 1.454 0
      vertex -20.48 1.905 0
    endloop
  endfacet
  facet normal -0.983708 -0.179774 0
    outer loop
      vertex -20.92 -0.494 0
      vertex -20.831 -0.981 0
      vertex -20.92 -0.494 5.2
    endloop
  endfacet
  facet normal 0 0 -1
    outer loop
      vertex -20.92 -0.494 0
      vertex -20.831 0.981 0
      vertex -20.684 1.454 0
    endloop
  endfacet
  facet normal 0 0 -1
    outer loop
      vertex -20.92 -0.494 0
      vertex -20.92 0.494 0
      vertex -20.831 0.981 0
    endloop
  endfacet
  facet normal -0.983708 -0.179774 0
    outer loop
      vertex -20.92 -0.494 5.2
      vertex -20.831 -0.981 0
      vertex -20.831 -0.981 5.2
    endloop
  endfacet
  facet normal 0 0 1
    outer loop
      vertex -20.92 -0.494 5.2
      vertex -20.831 -0.981 5.2
      vertex -20.92 0.494 5.2
    endloop
  endfacet
  facet normal -0.983708 0.179774 0
    outer loop
      vertex -20.92 0.494 0
      vertex -20.92 0.494 5.2
      vertex -20.831 0.981 0
    endloop
  endfacet
  facet normal 0 0 1
    outer loop
      vertex -20.92 0.494 5.2
      vertex -13.7 4.1 5.2
      vertex -16.85 4.1 5.2
    endloop
  endfacet
  facet normal 0 0 1
    outer loop
      vertex -20.92 0.494 5.2
      vertex -16.85 -4.1 5.2
      vertex -17.2798 -1.88294 5.2
    endloop
  endfacet
  facet normal 0 0 1
    outer loop
      vertex -20.92 0.494 5.2
      vertex -16.85 4.1 5.2
      vertex -17.344 4.07 5.2
    endloop
  endfacet
  facet normal 0 0 1
    outer loop
      vertex -20.92 0.494 5.2
      vertex -17.2798 -1.88294 5.2
      vertex -18.5901 -0.837986 5.2
    endloop
  endfacet
  facet normal 0 0 1
    outer loop
      vertex -20.92 0.494 5.2
      vertex -17.2798 1.88294 5.2
      vertex -13.7 4.1 5.2
    endloop
  endfacet
  facet normal 0 0 1
    outer loop
      vertex -20.92 0.494 5.2
      vertex -17.344 -4.07 5.2
      vertex -16.85 -4.1 5.2
    endloop
  endfacet
  facet normal 0 0 1
    outer loop
      vertex -20.92 0.494 5.2
      vertex -17.344 4.07 5.2
      vertex -17.831 3.981 5.2
    endloop
  endfacet
  facet normal 0 0 1
    outer loop
      vertex -20.92 0.494 5.2
      vertex -17.831 -3.981 5.2
      vertex -17.344 -4.07 5.2
    endloop
  endfacet
  facet normal 0 0 1
    outer loop
      vertex -20.92 0.494 5.2
      vertex -17.831 3.981 5.2
      vertex -18.304 3.834 5.2
    endloop
  endfacet
  facet normal 0 0 1
    outer loop
      vertex -20.92 0.494 5.2
      vertex -18.304 -3.834 5.2
      vertex -17.831 -3.981 5.2
    endloop
  endfacet
  facet normal 0 0 1
    outer loop
      vertex -20.92 0.494 5.2
      vertex -18.304 3.834 5.2
      vertex -18.755 3.63 5.2
    endloop
  endfacet
  facet normal 0 0 1
    outer loop
      vertex -20.92 0.494 5.2
      vertex -18.5901 -0.837986 5.2
      vertex -18.5901 0.837986 5.2
    endloop
  endfacet
  facet normal 0 0 1
    outer loop
      vertex -20.92 0.494 5.2
      vertex -18.5901 0.837986 5.2
      vertex -17.2798 1.88294 5.2
    endloop
  endfacet
  facet normal 0 0 1
    outer loop
      vertex -20.92 0.494 5.2
      vertex -18.755 -3.63 5.2
      vertex -18.304 -3.834 5.2
    endloop
  endfacet
  facet normal 0 0 1
    outer loop
      vertex -20.92 0.494 5.2
      vertex -18.755 3.63 5.2
      vertex -19.179 3.374 5.2
    endloop
  endfacet
  facet normal 0 0 1
    outer loop
      vertex -20.92 0.494 5.2
      vertex -19.179 -3.374 5.2
      vertex -18.755 -3.63 5.2
    endloop
  endfacet
  facet normal 0 0 1
    outer loop
      vertex -20.92 0.494 5.2
      vertex -19.179 3.374 5.2
      vertex -19.569 3.069 5.2
    endloop
  endfacet
  facet normal 0 0 1
    outer loop
      vertex -20.92 0.494 5.2
      vertex -19.569 -3.069 5.2
      vertex -19.179 -3.374 5.2
    endloop
  endfacet
  facet normal 0 0 1
    outer loop
      vertex -20.92 0.494 5.2
      vertex -19.569 3.069 5.2
      vertex -19.919 2.719 5.2
    endloop
  endfacet
  facet normal 0 0 1
    outer loop
      vertex -20.92 0.494 5.2
      vertex -19.919 -2.719 5.2
      vertex -19.569 -3.069 5.2
    endloop
  endfacet
  facet normal 0 0 1
    outer loop
      vertex -20.92 0.494 5.2
      vertex -19.919 2.719 5.2
      vertex -20.224 2.329 5.2
    endloop
  endfacet
  facet normal 0 0 1
    outer loop
      vertex -20.92 0.494 5.2
      vertex -20.224 -2.329 5.2
      vertex -19.919 -2.719 5.2
    endloop
  endfacet
  facet normal 0 0 1
    outer loop
      vertex -20.92 0.494 5.2
      vertex -20.224 2.329 5.2
      vertex -20.48 1.905 5.2
    endloop
  endfacet
  facet normal 0 0 1
    outer loop
      vertex -20.92 0.494 5.2
      vertex -20.48 -1.905 5.2
      vertex -20.224 -2.329 5.2
    endloop
  endfacet
  facet normal 0 0 1
    outer loop
      vertex -20.92 0.494 5.2
      vertex -20.48 1.905 5.2
      vertex -20.684 1.454 5.2
    endloop
  endfacet
  facet normal 0 0 1
    outer loop
      vertex -20.92 0.494 5.2
      vertex -20.684 -1.454 5.2
      vertex -20.48 -1.905 5.2
    endloop
  endfacet
  facet normal 0 0 1
    outer loop
      vertex -20.92 0.494 5.2
      vertex -20.684 1.454 5.2
      vertex -20.831 0.981 5.2
    endloop
  endfacet
  facet normal 0 0 1
    outer loop
      vertex -20.92 0.494 5.2
      vertex -20.831 -0.981 5.2
      vertex -20.684 -1.454 5.2
    endloop
  endfacet
  facet normal -0.983708 0.179774 0
    outer loop
      vertex -20.92 0.494 5.2
      vertex -20.831 0.981 5.2
      vertex -20.831 0.981 0
    endloop
  endfacet
  facet normal -0.998161 -0.0606171 0
    outer loop
      vertex -20.95 0 0
      vertex -20.92 -0.494 0
      vertex -20.95 0 5.2
    endloop
  endfacet
  facet normal 0 0 -1
    outer loop
      vertex -20.95 0 0
      vertex -20.92 0.494 0
      vertex -20.92 -0.494 0
    endloop
  endfacet
  facet normal -0.998161 0.0606171 0
    outer loop
      vertex -20.95 0 0
      vertex -20.95 0 5.2
      vertex -20.92 0.494 0
    endloop
  endfacet
  facet normal -0.998161 -0.0606171 0
    outer loop
      vertex -20.95 0 5.2
      vertex -20.92 -0.494 0
      vertex -20.92 -0.494 5.2
    endloop
  endfacet
  facet normal 0 0 1
    outer loop
      vertex -20.95 0 5.2
      vertex -20.92 -0.494 5.2
      vertex -20.92 0.494 5.2
    endloop
  endfacet
  facet normal -0.998161 0.0606171 0
    outer loop
      vertex -20.95 0 5.2
      vertex -20.92 0.494 5.2
      vertex -20.92 0.494 0
    endloop
  endfacet
  facet normal -1 0 0
    outer loop
      vertex 13.7 -4.1 4
      vertex 13.7 -4.1 5.2
      vertex 13.7 4.1 4
    endloop
  endfacet
  facet normal 0 -1 0
    outer loop
      vertex 13.7 -4.1 4
      vertex 16.85 -4.1 0
      vertex 13.7 -4.1 5.2
    endloop
  endfacet
  facet normal -1 0 0
    outer loop
      vertex 13.7 -4.1 5.2
      vertex 13.7 4.1 5.2
      vertex 13.7 4.1 4
    endloop
  endfacet
  facet normal 0 0 1
    outer loop
      vertex 13.7 -4.1 5.2
      vertex 15.1099 -0.837986 5.2
      vertex 13.7 4.1 5.2
    endloop
  endfacet
  facet normal 0 -1 0
    outer loop
      vertex 13.7 -4.1 5.2
      vertex 16.85 -4.1 0
      vertex 16.85 -4.1 5.2
    endloop
  endfacet
  facet normal 0 0 1
    outer loop
      vertex 13.7 -4.1 5.2
      vertex 16.85 -4.1 5.2
      vertex 15.1099 -0.837986 5.2
    endloop
  endfacet
  facet normal 0 1 0
    outer loop
      vertex 13.7 4.1 4
      vertex 13.7 4.1 5.2
      vertex 16.85 4.1 0
    endloop
  endfacet
  facet normal 0 0 1
    outer loop
      vertex 13.7 4.1 5.2
      vertex 15.1099 -0.837986 5.2
      vertex 15.1099 0.837986 5.2
    endloop
  endfacet
  facet normal 0 0 1
    outer loop
      vertex 13.7 4.1 5.2
      vertex 15.1099 0.837986 5.2
      vertex 16.4202 1.88294 5.2
    endloop
  endfacet
  facet normal 0 0 1
    outer loop
      vertex 13.7 4.1 5.2
      vertex 16.4202 1.88294 5.2
      vertex 18.0542 1.51 5.2
    endloop
  endfacet
  facet normal 0 1 0
    outer loop
      vertex 13.7 4.1 5.2
      vertex 16.85 4.1 5.2
      vertex 16.85 4.1 0
    endloop
  endfacet
  facet normal 0 0 1
    outer loop
      vertex 13.7 4.1 5.2
      vertex 17.344 4.07 5.2
      vertex 16.85 4.1 5.2
    endloop
  endfacet
  facet normal 0 0 1
    outer loop
      vertex 13.7 4.1 5.2
      vertex 17.831 3.981 5.2
      vertex 17.344 4.07 5.2
    endloop
  endfacet
  facet normal 0 0 1
    outer loop
      vertex 13.7 4.1 5.2
      vertex 18.0542 1.51 5.2
      vertex 20.95 0 5.2
    endloop
  endfacet
  facet normal 0 0 1
    outer loop
      vertex 13.7 4.1 5.2
      vertex 18.304 3.834 5.2
      vertex 17.831 3.981 5.2
    endloop
  endfacet
  facet normal 0 0 1
    outer loop
      vertex 13.7 4.1 5.2
      vertex 18.755 3.63 5.2
      vertex 18.304 3.834 5.2
    endloop
  endfacet
  facet normal 0 0 1
    outer loop
      vertex 13.7 4.1 5.2
      vertex 19.179 3.374 5.2
      vertex 18.755 3.63 5.2
    endloop
  endfacet
  facet normal 0 0 1
    outer loop
      vertex 13.7 4.1 5.2
      vertex 19.569 3.069 5.2
      vertex 19.179 3.374 5.2
    endloop
  endfacet
  facet normal 0 0 1
    outer loop
      vertex 13.7 4.1 5.2
      vertex 19.919 2.719 5.2
      vertex 19.569 3.069 5.2
    endloop
  endfacet
  facet normal 0 0 1
    outer loop
      vertex 13.7 4.1 5.2
      vertex 20.224 2.329 5.2
      vertex 19.919 2.719 5.2
    endloop
  endfacet
  facet normal 0 0 1
    outer loop
      vertex 13.7 4.1 5.2
      vertex 20.48 1.905 5.2
      vertex 20.224 2.329 5.2
    endloop
  endfacet
  facet normal 0 0 1
    outer loop
      vertex 13.7 4.1 5.2
      vertex 20.684 1.454 5.2
      vertex 20.48 1.905 5.2
    endloop
  endfacet
  facet normal 0 0 1
    outer loop
      vertex 13.7 4.1 5.2
      vertex 20.831 0.981 5.2
      vertex 20.684 1.454 5.2
    endloop
  endfacet
  facet normal 0 0 1
    outer loop
      vertex 13.7 4.1 5.2
      vertex 20.92 0.494 5.2
      vertex 20.831 0.981 5.2
    endloop
  endfacet
  facet normal 0 0 1
    outer loop
      vertex 13.7 4.1 5.2
      vertex 20.95 0 5.2
      vertex 20.92 0.494 5.2
    endloop
  endfacet
  facet normal 0.62349 0.781831 0
    outer loop
      vertex 15.1099 -0.837986 0
      vertex 15.1099 -0.837986 5.2
      vertex 16.4202 -1.88294 0
    endloop
  endfacet
  facet normal 1 0 0
    outer loop
      vertex 15.1099 -0.837986 0
      vertex 15.1099 0.837986 0
      vertex 15.1099 -0.837986 5.2
    endloop
  endfacet
  facet normal 1 0 0
    outer loop
      vertex 15.1099 -0.837986 5.2
      vertex 15.1099 0.837986 0
      vertex 15.1099 0.837986 5.2
    endloop
  endfacet
  facet normal 0.62349 0.781831 0
    outer loop
      vertex 15.1099 -0.837986 5.2
      vertex 16.4202 -1.88294 5.2
      vertex 16.4202 -1.88294 0
    endloop
  endfacet
  facet normal 0 0 1
    outer loop
      vertex 15.1099 -0.837986 5.2
      vertex 16.85 -4.1 5.2
      vertex 16.4202 -1.88294 5.2
    endloop
  endfacet
  facet normal 0.62349 -0.781831 0
    outer loop
      vertex 15.1099 0.837986 0
      vertex 16.4202 1.88294 0
      vertex 15.1099 0.837986 5.2
    endloop
  endfacet
  facet normal 0.62349 -0.781831 0
    outer loop
      vertex 15.1099 0.837986 5.2
      vertex 16.4202 1.88294 0
      vertex 16.4202 1.88294 5.2
    endloop
  endfacet
  facet normal -0.222522 0.974928 0
    outer loop
      vertex 16.4202 -1.88294 0
      vertex 16.4202 -1.88294 5.2
      vertex 18.0542 -1.51 0
    endloop
  endfacet
  facet normal 0 0 -1
    outer loop
      vertex 16.4202 -1.88294 0
      vertex 18.0542 -1.51 0
      vertex 20.48 -1.905 0
    endloop
  endfacet
  facet normal 0 0 -1
    outer loop
      vertex 16.4202 -1.88294 0
      vertex 20.48 -1.905 0
      vertex 20.224 -2.329 0
    endloop
  endfacet
  facet normal 0 0 1
    outer loop
      vertex 16.4202 -1.88294 5.2
      vertex 16.85 -4.1 5.2
      vertex 17.344 -4.07 5.2
    endloop
  endfacet
  facet normal 0 0 1
    outer loop
      vertex 16.4202 -1.88294 5.2
      vertex 17.344 -4.07 5.2
      vertex 17.831 -3.981 5.2
    endloop
  endfacet
  facet normal 0 0 1
    outer loop
      vertex 16.4202 -1.88294 5.2
      vertex 17.831 -3.981 5.2
      vertex 18.0542 -1.51 5.2
    endloop
  endfacet
  facet normal -0.222522 0.974928 0
    outer loop
      vertex 16.4202 -1.88294 5.2
      vertex 18.0542 -1.51 5.2
      vertex 18.0542 -1.51 0
    endloop
  endfacet
  facet normal -0.222522 -0.974928 0
    outer loop
      vertex 16.4202 1.88294 0
      vertex 18.0542 1.51 0
      vertex 16.4202 1.88294 5.2
    endloop
  endfacet
  facet normal 0 0 -1
    outer loop
      vertex 16.4202 1.88294 0
      vertex 20.224 2.329 0
      vertex 20.48 1.905 0
    endloop
  endfacet
  facet normal 0 0 -1
    outer loop
      vertex 16.4202 1.88294 0
      vertex 20.48 1.905 0
      vertex 18.0542 1.51 0
    endloop
  endfacet
  facet normal -0.222522 -0.974928 0
    outer loop
      vertex 16.4202 1.88294 5.2
      vertex 18.0542 1.51 0
      vertex 18.0542 1.51 5.2
    endloop
  endfacet
  facet normal 0.0606171 -0.998161 0
    outer loop
      vertex 16.85 -4.1 0
      vertex 17.344 -4.07 0
      vertex 16.85 -4.1 5.2
    endloop
  endfacet
  facet normal 0.0606171 -0.998161 0
    outer loop
      vertex 16.85 -4.1 5.2
      vertex 17.344 -4.07 0
      vertex 17.344 -4.07 5.2
    endloop
  endfacet
  facet normal 0.0606171 0.998161 0
    outer loop
      vertex 16.85 4.1 0
      vertex 16.85 4.1 5.2
      vertex 17.344 4.07 0
    endloop
  endfacet
  facet normal 0.0606171 0.998161 0
    outer loop
      vertex 16.85 4.1 5.2
      vertex 17.344 4.07 5.2
      vertex 17.344 4.07 0
    endloop
  endfacet
  facet normal 0.179774 -0.983708 0
    outer loop
      vertex 17.344 -4.07 0
      vertex 17.831 -3.981 0
      vertex 17.344 -4.07 5.2
    endloop
  endfacet
  facet normal 0.179774 -0.983708 0
    outer loop
      vertex 17.344 -4.07 5.2
      vertex 17.831 -3.981 0
      vertex 17.831 -3.981 5.2
    endloop
  endfacet
  facet normal 0.179774 0.983708 0
    outer loop
      vertex 17.344 4.07 0
      vertex 17.344 4.07 5.2
      vertex 17.831 3.981 0
    endloop
  endfacet
  facet normal 0.179774 0.983708 0
    outer loop
      vertex 17.344 4.07 5.2
      vertex 17.831 3.981 5.2
      vertex 17.831 3.981 0
    endloop
  endfacet
  facet normal 0.29678 -0.954946 0
    outer loop
      vertex 17.831 -3.981 0
      vertex 18.304 -3.834 0
      vertex 17.831 -3.981 5.2
    endloop
  endfacet
  facet normal 0.29678 -0.954946 0
    outer loop
      vertex 17.831 -3.981 5.2
      vertex 18.304 -3.834 0
      vertex 18.304 -3.834 5.2
    endloop
  endfacet
  facet normal 0 0 1
    outer loop
      vertex 17.831 -3.981 5.2
      vertex 18.304 -3.834 5.2
      vertex 18.0542 -1.51 5.2
    endloop
  endfacet
  facet normal 0.29678 0.954946 0
    outer loop
      vertex 17.831 3.981 0
      vertex 17.831 3.981 5.2
      vertex 18.304 3.834 0
    endloop
  endfacet
  facet normal 0.29678 0.954946 0
    outer loop
      vertex 17.831 3.981 5.2
      vertex 18.304 3.834 5.2
      vertex 18.304 3.834 0
    endloop
  endfacet
  facet normal -0.900969 0.433884 0
    outer loop
      vertex 18.0542 -1.51 0
      vertex 18.0542 -1.51 5.2
      vertex 18.7814 0 0
    endloop
  endfacet
  facet normal 0 0 -1
    outer loop
      vertex 18.0542 -1.51 0
      vertex 18.7814 0 0
      vertex 20.684 -1.454 0
    endloop
  endfacet
  facet normal 0 0 -1
    outer loop
      vertex 18.0542 -1.51 0
      vertex 20.684 -1.454 0
      vertex 20.48 -1.905 0
    endloop
  endfacet
  facet normal 0 0 1
    outer loop
      vertex 18.0542 -1.51 5.2
      vertex 18.304 -3.834 5.2
      vertex 18.755 -3.63 5.2
    endloop
  endfacet
  facet normal 0 0 1
    outer loop
      vertex 18.0542 -1.51 5.2
      vertex 18.755 -3.63 5.2
      vertex 19.179 -3.374 5.2
    endloop
  endfacet
  facet normal -0.900969 0.433884 0
    outer loop
      vertex 18.0542 -1.51 5.2
      vertex 18.7814 0 5.2
      vertex 18.7814 0 0
    endloop
  endfacet
  facet normal 0 0 1
    outer loop
      vertex 18.0542 -1.51 5.2
      vertex 19.179 -3.374 5.2
      vertex 19.569 -3.069 5.2
    endloop
  endfacet
  facet normal 0 0 1
    outer loop
      vertex 18.0542 -1.51 5.2
      vertex 19.569 -3.069 5.2
      vertex 18.7814 0 5.2
    endloop
  endfacet
  facet normal -0.900969 -0.433884 0
    outer loop
      vertex 18.0542 1.51 0
      vertex 18.7814 0 0
      vertex 18.0542 1.51 5.2
    endloop
  endfacet
  facet normal 0 0 -1
    outer loop
      vertex 18.0542 1.51 0
      vertex 20.48 1.905 0
      vertex 20.684 1.454 0
    endloop
  endfacet
  facet normal 0 0 -1
    outer loop
      vertex 18.0542 1.51 0
      vertex 20.684 1.454 0
      vertex 20.831 0.981 0
    endloop
  endfacet
  facet normal 0 0 -1
    outer loop
      vertex 18.0542 1.51 0
      vertex 20.831 0.981 0
      vertex 20.92 0.494 0
    endloop
  endfacet
  facet normal 0 0 -1
    outer loop
      vertex 18.0542 1.51 0
      vertex 20.92 0.494 0
      vertex 18.7814 0 0
    endloop
  endfacet
  facet normal -0.900969 -0.433884 0
    outer loop
      vertex 18.0542 1.51 5.2
      vertex 18.7814 0 0
      vertex 18.7814 0 5.2
    endloop
  endfacet
  facet normal 0 0 1
    outer loop
      vertex 18.0542 1.51 5.2
      vertex 18.7814 0 5.2
      vertex 20.684 -1.454 5.2
    endloop
  endfacet
  facet normal 0 0 1
    outer loop
      vertex 18.0542 1.51 5.2
      vertex 20.684 -1.454 5.2
      vertex 20.831 -0.981 5.2
    endloop
  endfacet
  facet normal 0 0 1
    outer loop
      vertex 18.0542 1.51 5.2
      vertex 20.831 -0.981 5.2
      vertex 20.92 -0.494 5.2
    endloop
  endfacet
  facet normal 0 0 1
    outer loop
      vertex 18.0542 1.51 5.2
      vertex 20.92 -0.494 5.2
      vertex 20.95 0 5.2
    endloop
  endfacet
  facet normal 0.412128 -0.911126 0
    outer loop
      vertex 18.304 -3.834 0
      vertex 18.755 -3.63 0
      vertex 18.304 -3.834 5.2
    endloop
  endfacet
  facet normal 0.412128 -0.911126 0
    outer loop
      vertex 18.304 -3.834 5.2
      vertex 18.755 -3.63 0
      vertex 18.755 -3.63 5.2
    endloop
  endfacet
  facet normal 0.412128 0.911126 0
    outer loop
      vertex 18.304 3.834 0
      vertex 18.304 3.834 5.2
      vertex 18.755 3.63 0
    endloop
  endfacet
  facet normal 0.412128 0.911126 0
    outer loop
      vertex 18.304 3.834 5.2
      vertex 18.755 3.63 5.2
      vertex 18.755 3.63 0
    endloop
  endfacet
  facet normal 0.516869 -0.856064 0
    outer loop
      vertex 18.755 -3.63 0
      vertex 19.179 -3.374 0
      vertex 18.755 -3.63 5.2
    endloop
  endfacet
  facet normal 0.516869 -0.856064 0
    outer loop
      vertex 18.755 -3.63 5.2
      vertex 19.179 -3.374 0
      vertex 19.179 -3.374 5.2
    endloop
  endfacet
  facet normal 0.516869 0.856064 0
    outer loop
      vertex 18.755 3.63 0
      vertex 18.755 3.63 5.2
      vertex 19.179 3.374 0
    endloop
  endfacet
  facet normal 0.516869 0.856064 0
    outer loop
      vertex 18.755 3.63 5.2
      vertex 19.179 3.374 5.2
      vertex 19.179 3.374 0
    endloop
  endfacet
  facet normal 0 0 -1
    outer loop
      vertex 18.7814 0 0
      vertex 20.831 -0.981 0
      vertex 20.684 -1.454 0
    endloop
  endfacet
  facet normal 0 0 -1
    outer loop
      vertex 18.7814 0 0
      vertex 20.92 -0.494 0
      vertex 20.831 -0.981 0
    endloop
  endfacet
  facet normal 0 0 -1
    outer loop
      vertex 18.7814 0 0
      vertex 20.92 0.494 0
      vertex 20.95 0 0
    endloop
  endfacet
  facet normal 0 0 -1
    outer loop
      vertex 18.7814 0 0
      vertex 20.95 0 0
      vertex 20.92 -0.494 0
    endloop
  endfacet
  facet normal 0 0 1
    outer loop
      vertex 18.7814 0 5.2
      vertex 19.569 -3.069 5.2
      vertex 19.919 -2.719 5.2
    endloop
  endfacet
  facet normal 0 0 1
    outer loop
      vertex 18.7814 0 5.2
      vertex 19.919 -2.719 5.2
      vertex 20.224 -2.329 5.2
    endloop
  endfacet
  facet normal 0 0 1
    outer loop
      vertex 18.7814 0 5.2
      vertex 20.224 -2.329 5.2
      vertex 20.48 -1.905 5.2
    endloop
  endfacet
  facet normal 0 0 1
    outer loop
      vertex 18.7814 0 5.2
      vertex 20.48 -1.905 5.2
      vertex 20.684 -1.454 5.2
    endloop
  endfacet
  facet normal 0.616036 -0.787718 0
    outer loop
      vertex 19.179 -3.374 0
      vertex 19.569 -3.069 0
      vertex 19.179 -3.374 5.2
    endloop
  endfacet
  facet normal 0.616036 -0.787718 0
    outer loop
      vertex 19.179 -3.374 5.2
      vertex 19.569 -3.069 0
      vertex 19.569 -3.069 5.2
    endloop
  endfacet
  facet normal 0.616036 0.787718 0
    outer loop
      vertex 19.179 3.374 0
      vertex 19.179 3.374 5.2
      vertex 19.569 3.069 0
    endloop
  endfacet
  facet normal 0.616036 0.787718 0
    outer loop
      vertex 19.179 3.374 5.2
      vertex 19.569 3.069 5.2
      vertex 19.569 3.069 0
    endloop
  endfacet
  facet normal 0.707107 -0.707107 0
    outer loop
      vertex 19.569 -3.069 0
      vertex 19.919 -2.719 0
      vertex 19.569 -3.069 5.2
    endloop
  endfacet
  facet normal 0.707107 -0.707107 0
    outer loop
      vertex 19.569 -3.069 5.2
      vertex 19.919 -2.719 0
      vertex 19.919 -2.719 5.2
    endloop
  endfacet
  facet normal 0.707107 0.707107 0
    outer loop
      vertex 19.569 3.069 0
      vertex 19.569 3.069 5.2
      vertex 19.919 2.719 0
    endloop
  endfacet
  facet normal 0.707107 0.707107 0
    outer loop
      vertex 19.569 3.069 5.2
      vertex 19.919 2.719 5.2
      vertex 19.919 2.719 0
    endloop
  endfacet
  facet normal 0.787718 -0.616036 0
    outer loop
      vertex 19.919 -2.719 0
      vertex 20.224 -2.329 0
      vertex 19.919 -2.719 5.2
    endloop
  endfacet
  facet normal 0.787718 -0.616036 0
    outer loop
      vertex 19.919 -2.719 5.2
      vertex 20.224 -2.329 0
      vertex 20.224 -2.329 5.2
    endloop
  endfacet
  facet normal 0.787718 0.616036 0
    outer loop
      vertex 19.919 2.719 0
      vertex 19.919 2.719 5.2
      vertex 20.224 2.329 0
    endloop
  endfacet
  facet normal 0.787718 0.616036 0
    outer loop
      vertex 19.919 2.719 5.2
      vertex 20.224 2.329 5.2
      vertex 20.224 2.329 0
    endloop
  endfacet
  facet normal 0.856064 -0.516869 0
    outer loop
      vertex 20.224 -2.329 0
      vertex 20.48 -1.905 0
      vertex 20.224 -2.329 5.2
    endloop
  endfacet
  facet normal 0.856064 -0.516869 0
    outer loop
      vertex 20.224 -2.329 5.2
      vertex 20.48 -1.905 0
      vertex 20.48 -1.905 5.2
    endloop
  endfacet
  facet normal 0.856064 0.516869 0
    outer loop
      vertex 20.224 2.329 0
      vertex 20.224 2.329 5.2
      vertex 20.48 1.905 0
    endloop
  endfacet
  facet normal 0.856064 0.516869 0
    outer loop
      vertex 20.224 2.329 5.2
      vertex 20.48 1.905 5.2
      vertex 20.48 1.905 0
    endloop
  endfacet
  facet normal 0.911126 -0.412128 0
    outer loop
      vertex 20.48 -1.905 0
      vertex 20.684 -1.454 0
      vertex 20.48 -1.905 5.2
    endloop
  endfacet
  facet normal 0.911126 -0.412128 0
    outer loop
      vertex 20.48 -1.905 5.2
      vertex 20.684 -1.454 0
      vertex 20.684 -1.454 5.2
    endloop
  endfacet
  facet normal 0.911126 0.412128 0
    outer loop
      vertex 20.48 1.905 0
      vertex 20.48 1.905 5.2
      vertex 20.684 1.454 0
    endloop
  endfacet
  facet normal 0.911126 0.412128 0
    outer loop
      vertex 20.48 1.905 5.2
      vertex 20.684 1.454 5.2
      vertex 20.684 1.454 0
    endloop
  endfacet
  facet normal 0.954946 -0.29678 0
    outer loop
      vertex 20.684 -1.454 0
      vertex 20.831 -0.981 0
      vertex 20.684 -1.454 5.2
    endloop
  endfacet
  facet normal 0.954946 -0.29678 0
    outer loop
      vertex 20.684 -1.454 5.2
      vertex 20.831 -0.981 0
      vertex 20.831 -0.981 5.2
    endloop
  endfacet
  facet normal 0.954946 0.29678 0
    outer loop
      vertex 20.684 1.454 0
      vertex 20.684 1.454 5.2
      vertex 20.831 0.981 0
    endloop
  endfacet
  facet normal 0.954946 0.29678 0
    outer loop
      vertex 20.684 1.454 5.2
      vertex 20.831 0.981 5.2
      vertex 20.831 0.981 0
    endloop
  endfacet
  facet normal 0.983708 -0.179774 0
    outer loop
      vertex 20.831 -0.981 0
      vertex 20.92 -0.494 0
      vertex 20.831 -0.981 5.2
    endloop
  endfacet
  facet normal 0.983708 -0.179774 0
    outer loop
      vertex 20.831 -0.981 5.2
      vertex 20.92 -0.494 0
      vertex 20.92 -0.494 5.2
    endloop
  endfacet
  facet normal 0.983708 0.179774 0
    outer loop
      vertex 20.831 0.981 0
      vertex 20.831 0.981 5.2
      vertex 20.92 0.494 0
    endloop
  endfacet
  facet normal 0.983708 0.179774 0
    outer loop
      vertex 20.831 0.981 5.2
      vertex 20.92 0.494 5.2
      vertex 20.92 0.494 0
    endloop
  endfacet
  facet normal 0.998161 -0.0606171 0
    outer loop
      vertex 20.92 -0.494 0
      vertex 20.95 0 0
      vertex 20.92 -0.494 5.2
    endloop
  endfacet
  facet normal 0.998161 -0.0606171 0
    outer loop
      vertex 20.92 -0.494 5.2
      vertex 20.95 0 0
      vertex 20.95 0 5.2
    endloop
  endfacet
  facet normal 0.998161 0.0606171 0
    outer loop
      vertex 20.92 0.494 0
      vertex 20.92 0.494 5.2
      vertex 20.95 0 0
    endloop
  endfacet
  facet normal 0.998161 0.0606171 0
    outer loop
      vertex 20.92 0.494 5.2
      vertex 20.95 0 5.2
      vertex 20.95 0 0
    endloop
  endfacet
endsolid OpenSCAD_Model
