solid OpenSCAD_Model
  facet normal -0.675992 -0.736909 0
    outer loop
      vertex -0.291 -4.126 0
      vertex 0.084 -4.47 0
      vertex -0.291 -4.126 2
    endloop
  endfacet
  facet normal -0.675992 -0.736909 0
    outer loop
      vertex -0.291 -4.126 2
      vertex 0.084 -4.47 0
      vertex 0.084 -4.47 2
    endloop
  endfacet
  facet normal -0.675992 0.736909 0
    outer loop
      vertex -0.291 4.126 0
      vertex -0.291 4.126 2
      vertex 0.084 4.47 0
    endloop
  endfacet
  facet normal -0.675992 0.736909 0
    outer loop
      vertex -0.291 4.126 2
      vertex 0.084 4.47 2
      vertex 0.084 4.47 0
    endloop
  endfacet
  facet normal -0.736909 -0.675992 0
    outer loop
      vertex -0.635 -3.751 0
      vertex -0.291 -4.126 0
      vertex -0.635 -3.751 2
    endloop
  endfacet
  facet normal -0.736909 -0.675992 0
    outer loop
      vertex -0.635 -3.751 2
      vertex -0.291 -4.126 0
      vertex -0.291 -4.126 2
    endloop
  endfacet
  facet normal -0.736909 0.675992 0
    outer loop
      vertex -0.635 3.751 0
      vertex -0.635 3.751 2
      vertex -0.291 4.126 0
    endloop
  endfacet
  facet normal -0.736909 0.675992 0
    outer loop
      vertex -0.635 3.751 2
      vertex -0.291 4.126 2
      vertex -0.291 4.126 0
    endloop
  endfacet
  facet normal -0.793353 -0.608761 0
    outer loop
      vertex -0.945 -3.347 0
      vertex -0.635 -3.751 0
      vertex -0.945 -3.347 2
    endloop
  endfacet
  facet normal -0.793353 -0.608761 0
    outer loop
      vertex -0.945 -3.347 2
      vertex -0.635 -3.751 0
      vertex -0.635 -3.751 2
    endloop
  endfacet
  facet normal -0.793353 0.608761 0
    outer loop
      vertex -0.945 3.347 0
      vertex -0.945 3.347 2
      vertex -0.635 3.751 0
    endloop
  endfacet
  facet normal -0.793353 0.608761 0
    outer loop
      vertex -0.945 3.347 2
      vertex -0.635 3.751 2
      vertex -0.635 3.751 0
    endloop
  endfacet
  facet normal -0.843661 -0.536875 0
    outer loop
      vertex -1.218 -2.918 0
      vertex -0.945 -3.347 0
      vertex -1.218 -2.918 2
    endloop
  endfacet
  facet normal -0.843661 -0.536875 0
    outer loop
      vertex -1.218 -2.918 2
      vertex -0.945 -3.347 0
      vertex -0.945 -3.347 2
    endloop
  endfacet
  facet normal -0.843661 0.536875 0
    outer loop
      vertex -1.218 2.918 0
      vertex -1.218 2.918 2
      vertex -0.945 3.347 0
    endloop
  endfacet
  facet normal -0.843661 0.536875 0
    outer loop
      vertex -1.218 2.918 2
      vertex -0.945 3.347 2
      vertex -0.945 3.347 0
    endloop
  endfacet
  facet normal -0.887249 -0.461291 0
    outer loop
      vertex -1.453 -2.466 0
      vertex -1.218 -2.918 0
      vertex -1.453 -2.466 2
    endloop
  endfacet
  facet normal -0.887249 -0.461291 0
    outer loop
      vertex -1.453 -2.466 2
      vertex -1.218 -2.918 0
      vertex -1.218 -2.918 2
    endloop
  endfacet
  facet normal -0.887249 0.461291 0
    outer loop
      vertex -1.453 2.466 0
      vertex -1.453 2.466 2
      vertex -1.218 2.918 0
    endloop
  endfacet
  facet normal -0.887249 0.461291 0
    outer loop
      vertex -1.453 2.466 2
      vertex -1.218 2.918 2
      vertex -1.218 2.918 0
    endloop
  endfacet
  facet normal -0.923657 -0.38322 0
    outer loop
      vertex -1.648 -1.996 0
      vertex -1.453 -2.466 0
      vertex -1.648 -1.996 2
    endloop
  endfacet
  facet normal -0.923657 -0.38322 0
    outer loop
      vertex -1.648 -1.996 2
      vertex -1.453 -2.466 0
      vertex -1.453 -2.466 2
    endloop
  endfacet
  facet normal -0.923657 0.38322 0
    outer loop
      vertex -1.648 1.996 0
      vertex -1.648 1.996 2
      vertex -1.453 2.466 0
    endloop
  endfacet
  facet normal -0.923657 0.38322 0
    outer loop
      vertex -1.648 1.996 2
      vertex -1.453 2.466 2
      vertex -1.453 2.466 0
    endloop
  endfacet
  facet normal -0.953849 -0.300286 0
    outer loop
      vertex -1.801 -1.51 0
      vertex -1.648 -1.996 0
      vertex -1.801 -1.51 2
    endloop
  endfacet
  facet normal -0.953849 -0.300286 0
    outer loop
      vertex -1.801 -1.51 2
      vertex -1.648 -1.996 0
      vertex -1.648 -1.996 2
    endloop
  endfacet
  facet normal -0.953849 0.300286 0
    outer loop
      vertex -1.801 1.51 0
      vertex -1.801 1.51 2
      vertex -1.648 1.996 0
    endloop
  endfacet
  facet normal -0.953849 0.300286 0
    outer loop
      vertex -1.801 1.51 2
      vertex -1.648 1.996 2
      vertex -1.648 1.996 0
    endloop
  endfacet
  facet normal -0.976372 -0.216098 0
    outer loop
      vertex -1.911 -1.013 0
      vertex -1.801 -1.51 0
      vertex -1.911 -1.013 2
    endloop
  endfacet
  facet normal -0.976372 -0.216098 0
    outer loop
      vertex -1.911 -1.013 2
      vertex -1.801 -1.51 0
      vertex -1.801 -1.51 2
    endloop
  endfacet
  facet normal -0.976372 0.216098 0
    outer loop
      vertex -1.911 1.013 0
      vertex -1.911 1.013 2
      vertex -1.801 1.51 0
    endloop
  endfacet
  facet normal -0.976372 0.216098 0
    outer loop
      vertex -1.911 1.013 2
      vertex -1.801 1.51 2
      vertex -1.801 1.51 0
    endloop
  endfacet
  facet normal 0 0 -1
    outer loop
      vertex -1.978 -0.509 0
      vertex -0.291 -4.126 0
      vertex -0.635 -3.751 0
    endloop
  endfacet
  facet normal 0 0 -1
    outer loop
      vertex -1.978 -0.509 0
      vertex -0.291 4.126 0
      vertex 0.084 4.47 0
    endloop
  endfacet
  facet normal 0 0 -1
    outer loop
      vertex -1.978 -0.509 0
      vertex -0.635 -3.751 0
      vertex -0.945 -3.347 0
    endloop
  endfacet
  facet normal 0 0 -1
    outer loop
      vertex -1.978 -0.509 0
      vertex -0.635 3.751 0
      vertex -0.291 4.126 0
    endloop
  endfacet
  facet normal 0 0 -1
    outer loop
      vertex -1.978 -0.509 0
      vertex -0.945 -3.347 0
      vertex -1.218 -2.918 0
    endloop
  endfacet
  facet normal 0 0 -1
    outer loop
      vertex -1.978 -0.509 0
      vertex -0.945 3.347 0
      vertex -0.635 3.751 0
    endloop
  endfacet
  facet normal 0 0 -1
    outer loop
      vertex -1.978 -0.509 0
      vertex -1.218 -2.918 0
      vertex -1.453 -2.466 0
    endloop
  endfacet
  facet normal 0 0 -1
    outer loop
      vertex -1.978 -0.509 0
      vertex -1.218 2.918 0
      vertex -0.945 3.347 0
    endloop
  endfacet
  facet normal 0 0 -1
    outer loop
      vertex -1.978 -0.509 0
      vertex -1.453 -2.466 0
      vertex -1.648 -1.996 0
    endloop
  endfacet
  facet normal 0 0 -1
    outer loop
      vertex -1.978 -0.509 0
      vertex -1.453 2.466 0
      vertex -1.218 2.918 0
    endloop
  endfacet
  facet normal 0 0 -1
    outer loop
      vertex -1.978 -0.509 0
      vertex -1.648 -1.996 0
      vertex -1.801 -1.51 0
    endloop
  endfacet
  facet normal 0 0 -1
    outer loop
      vertex -1.978 -0.509 0
      vertex -1.648 1.996 0
      vertex -1.453 2.466 0
    endloop
  endfacet
  facet normal 0 0 -1
    outer loop
      vertex -1.978 -0.509 0
      vertex -1.801 -1.51 0
      vertex -1.911 -1.013 0
    endloop
  endfacet
  facet normal 0 0 -1
    outer loop
      vertex -1.978 -0.509 0
      vertex -1.801 1.51 0
      vertex -1.648 1.996 0
    endloop
  endfacet
  facet normal -0.991279 -0.131777 0
    outer loop
      vertex -1.978 -0.509 0
      vertex -1.911 -1.013 0
      vertex -1.978 -0.509 2
    endloop
  endfacet
  facet normal 0 0 -1
    outer loop
      vertex -1.978 -0.509 0
      vertex -1.911 1.013 0
      vertex -1.801 1.51 0
    endloop
  endfacet
  facet normal 0 0 -1
    outer loop
      vertex -1.978 -0.509 0
      vertex -1.978 0.509 0
      vertex -1.911 1.013 0
    endloop
  endfacet
  facet normal 0 0 -1
    outer loop
      vertex -1.978 -0.509 0
      vertex 0.084 -4.47 0
      vertex -0.291 -4.126 0
    endloop
  endfacet
  facet normal 0 0 -1
    outer loop
      vertex -1.978 -0.509 0
      vertex 0.084 4.47 0
      vertex 0.488 4.78 0
    endloop
  endfacet
  facet normal 0 0 -1
    outer loop
      vertex -1.978 -0.509 0
      vertex 0.488 -4.78 0
      vertex 0.084 -4.47 0
    endloop
  endfacet
  facet normal 0 0 -1
    outer loop
      vertex -1.978 -0.509 0
      vertex 0.488 4.78 0
      vertex 0.917 5.053 0
    endloop
  endfacet
  facet normal 0 0 -1
    outer loop
      vertex -1.978 -0.509 0
      vertex 0.917 -5.053 0
      vertex 0.488 -4.78 0
    endloop
  endfacet
  facet normal 0 0 -1
    outer loop
      vertex -1.978 -0.509 0
      vertex 0.917 5.053 0
      vertex 1.369 5.288 0
    endloop
  endfacet
  facet normal 0 0 -1
    outer loop
      vertex -1.978 -0.509 0
      vertex 1.369 -5.288 0
      vertex 0.917 -5.053 0
    endloop
  endfacet
  facet normal 0 0 -1
    outer loop
      vertex -1.978 -0.509 0
      vertex 1.369 5.288 0
      vertex 1.839 5.483 0
    endloop
  endfacet
  facet normal 0 0 -1
    outer loop
      vertex -1.978 -0.509 0
      vertex 1.839 -5.483 0
      vertex 1.369 -5.288 0
    endloop
  endfacet
  facet normal 0 0 -1
    outer loop
      vertex -1.978 -0.509 0
      vertex 1.839 5.483 0
      vertex 2.325 5.636 0
    endloop
  endfacet
  facet normal 0 0 -1
    outer loop
      vertex -1.978 -0.509 0
      vertex 2.325 -5.636 0
      vertex 1.839 -5.483 0
    endloop
  endfacet
  facet normal 0 0 -1
    outer loop
      vertex -1.978 -0.509 0
      vertex 2.325 5.636 0
      vertex 2.822 5.746 0
    endloop
  endfacet
  facet normal 0 0 -1
    outer loop
      vertex -1.978 -0.509 0
      vertex 2.822 -5.746 0
      vertex 2.325 -5.636 0
    endloop
  endfacet
  facet normal 0 0 -1
    outer loop
      vertex -1.978 -0.509 0
      vertex 2.822 5.746 0
      vertex 3.326 5.813 0
    endloop
  endfacet
  facet normal 0 0 -1
    outer loop
      vertex -1.978 -0.509 0
      vertex 3.326 -5.813 0
      vertex 2.822 -5.746 0
    endloop
  endfacet
  facet normal 0 0 -1
    outer loop
      vertex -1.978 -0.509 0
      vertex 3.326 5.813 0
      vertex 3.835 5.835 0
    endloop
  endfacet
  facet normal 0 0 -1
    outer loop
      vertex -1.978 -0.509 0
      vertex 3.835 -5.835 0
      vertex 3.326 -5.813 0
    endloop
  endfacet
  facet normal 0 0 -1
    outer loop
      vertex -1.978 -0.509 0
      vertex 3.835 5.835 0
      vertex 4.835 5.835 0
    endloop
  endfacet
  facet normal 0 0 -1
    outer loop
      vertex -1.978 -0.509 0
      vertex 4.835 -5.835 0
      vertex 3.835 -5.835 0
    endloop
  endfacet
  facet normal 0 0 -1
    outer loop
      vertex -1.978 -0.509 0
      vertex 4.835 5.835 0
      vertex 4.835 -5.835 0
    endloop
  endfacet
  facet normal -0.991279 -0.131777 0
    outer loop
      vertex -1.978 -0.509 2
      vertex -1.911 -1.013 0
      vertex -1.911 -1.013 2
    endloop
  endfacet
  facet normal 0 0 1
    outer loop
      vertex -1.978 -0.509 2
      vertex -1.911 -1.013 2
      vertex -1.978 0.509 2
    endloop
  endfacet
  facet normal -0.991279 0.131777 0
    outer loop
      vertex -1.978 0.509 0
      vertex -1.978 0.509 2
      vertex -1.911 1.013 0
    endloop
  endfacet
  facet normal 0 0 1
    outer loop
      vertex -1.978 0.509 2
      vertex -0.291 -4.126 2
      vertex 0.084 -4.47 2
    endloop
  endfacet
  facet normal 0 0 1
    outer loop
      vertex -1.978 0.509 2
      vertex -0.291 4.126 2
      vertex -0.635 3.751 2
    endloop
  endfacet
  facet normal 0 0 1
    outer loop
      vertex -1.978 0.509 2
      vertex -0.635 -3.751 2
      vertex -0.291 -4.126 2
    endloop
  endfacet
  facet normal 0 0 1
    outer loop
      vertex -1.978 0.509 2
      vertex -0.635 3.751 2
      vertex -0.945 3.347 2
    endloop
  endfacet
  facet normal 0 0 1
    outer loop
      vertex -1.978 0.509 2
      vertex -0.945 -3.347 2
      vertex -0.635 -3.751 2
    endloop
  endfacet
  facet normal 0 0 1
    outer loop
      vertex -1.978 0.509 2
      vertex -0.945 3.347 2
      vertex -1.218 2.918 2
    endloop
  endfacet
  facet normal 0 0 1
    outer loop
      vertex -1.978 0.509 2
      vertex -1.218 -2.918 2
      vertex -0.945 -3.347 2
    endloop
  endfacet
  facet normal 0 0 1
    outer loop
      vertex -1.978 0.509 2
      vertex -1.218 2.918 2
      vertex -1.453 2.466 2
    endloop
  endfacet
  facet normal 0 0 1
    outer loop
      vertex -1.978 0.509 2
      vertex -1.453 -2.466 2
      vertex -1.218 -2.918 2
    endloop
  endfacet
  facet normal 0 0 1
    outer loop
      vertex -1.978 0.509 2
      vertex -1.453 2.466 2
      vertex -1.648 1.996 2
    endloop
  endfacet
  facet normal 0 0 1
    outer loop
      vertex -1.978 0.509 2
      vertex -1.648 -1.996 2
      vertex -1.453 -2.466 2
    endloop
  endfacet
  facet normal 0 0 1
    outer loop
      vertex -1.978 0.509 2
      vertex -1.648 1.996 2
      vertex -1.801 1.51 2
    endloop
  endfacet
  facet normal 0 0 1
    outer loop
      vertex -1.978 0.509 2
      vertex -1.801 -1.51 2
      vertex -1.648 -1.996 2
    endloop
  endfacet
  facet normal 0 0 1
    outer loop
      vertex -1.978 0.509 2
      vertex -1.801 1.51 2
      vertex -1.911 1.013 2
    endloop
  endfacet
  facet normal 0 0 1
    outer loop
      vertex -1.978 0.509 2
      vertex -1.911 -1.013 2
      vertex -1.801 -1.51 2
    endloop
  endfacet
  facet normal -0.991279 0.131777 0
    outer loop
      vertex -1.978 0.509 2
      vertex -1.911 1.013 2
      vertex -1.911 1.013 0
    endloop
  endfacet
  facet normal 0 0 1
    outer loop
      vertex -1.978 0.509 2
      vertex 0.008 -0.246 2
      vertex 0.008 0.246 2
    endloop
  endfacet
  facet normal 0 0 1
    outer loop
      vertex -1.978 0.509 2
      vertex 0.008 0.246 2
      vertex 0.071 0.733 2
    endloop
  endfacet
  facet normal 0 0 1
    outer loop
      vertex -1.978 0.509 2
      vertex 0.071 -0.733 2
      vertex 0.008 -0.246 2
    endloop
  endfacet
  facet normal 0 0 1
    outer loop
      vertex -1.978 0.509 2
      vertex 0.071 0.733 2
      vertex 0.195 1.208 2
    endloop
  endfacet
  facet normal 0 0 1
    outer loop
      vertex -1.978 0.509 2
      vertex 0.084 -4.47 2
      vertex 0.488 -4.78 2
    endloop
  endfacet
  facet normal 0 0 1
    outer loop
      vertex -1.978 0.509 2
      vertex 0.084 4.47 2
      vertex -0.291 4.126 2
    endloop
  endfacet
  facet normal 0 0 1
    outer loop
      vertex -1.978 0.509 2
      vertex 0.195 -1.208 2
      vertex 0.071 -0.733 2
    endloop
  endfacet
  facet normal 0 0 1
    outer loop
      vertex -1.978 0.509 2
      vertex 0.195 1.208 2
      vertex 0.38 1.664 2
    endloop
  endfacet
  facet normal 0 0 1
    outer loop
      vertex -1.978 0.509 2
      vertex 0.38 -1.664 2
      vertex 0.195 -1.208 2
    endloop
  endfacet
  facet normal 0 0 1
    outer loop
      vertex -1.978 0.509 2
      vertex 0.38 1.664 2
      vertex 0.621 2.092 2
    endloop
  endfacet
  facet normal 0 0 1
    outer loop
      vertex -1.978 0.509 2
      vertex 0.488 -4.78 2
      vertex 0.917 -5.053 2
    endloop
  endfacet
  facet normal 0 0 1
    outer loop
      vertex -1.978 0.509 2
      vertex 0.488 4.78 2
      vertex 0.084 4.47 2
    endloop
  endfacet
  facet normal 0 0 1
    outer loop
      vertex -1.978 0.509 2
      vertex 0.621 -2.092 2
      vertex 0.38 -1.664 2
    endloop
  endfacet
  facet normal 0 0 1
    outer loop
      vertex -1.978 0.509 2
      vertex 0.621 2.092 2
      vertex 0.915 2.486 2
    endloop
  endfacet
  facet normal 0 0 1
    outer loop
      vertex -1.978 0.509 2
      vertex 0.915 -2.486 2
      vertex 0.621 -2.092 2
    endloop
  endfacet
  facet normal 0 0 1
    outer loop
      vertex -1.978 0.509 2
      vertex 0.915 2.486 2
      vertex 1.257 2.839 2
    endloop
  endfacet
  facet normal 0 0 1
    outer loop
      vertex -1.978 0.509 2
      vertex 0.917 -5.053 2
      vertex 1.369 -5.288 2
    endloop
  endfacet
  facet normal 0 0 1
    outer loop
      vertex -1.978 0.509 2
      vertex 0.917 5.053 2
      vertex 0.488 4.78 2
    endloop
  endfacet
  facet normal 0 0 1
    outer loop
      vertex -1.978 0.509 2
      vertex 1.257 2.839 2
      vertex 1.641 3.145 2
    endloop
  endfacet
  facet normal 0 0 1
    outer loop
      vertex -1.978 0.509 2
      vertex 1.369 -5.288 2
      vertex 1.839 -5.483 2
    endloop
  endfacet
  facet normal 0 0 1
    outer loop
      vertex -1.978 0.509 2
      vertex 1.369 5.288 2
      vertex 0.917 5.053 2
    endloop
  endfacet
  facet normal 0 0 1
    outer loop
      vertex -1.978 0.509 2
      vertex 1.641 3.145 2
      vertex 4.835 5.835 2
    endloop
  endfacet
  facet normal 0 0 1
    outer loop
      vertex -1.978 0.509 2
      vertex 1.839 -5.483 2
      vertex 2.325 -5.636 2
    endloop
  endfacet
  facet normal 0 0 1
    outer loop
      vertex -1.978 0.509 2
      vertex 1.839 5.483 2
      vertex 1.369 5.288 2
    endloop
  endfacet
  facet normal 0 0 1
    outer loop
      vertex -1.978 0.509 2
      vertex 2.325 -5.636 2
      vertex 2.822 -5.746 2
    endloop
  endfacet
  facet normal 0 0 1
    outer loop
      vertex -1.978 0.509 2
      vertex 2.325 5.636 2
      vertex 1.839 5.483 2
    endloop
  endfacet
  facet normal 0 0 1
    outer loop
      vertex -1.978 0.509 2
      vertex 2.822 -5.746 2
      vertex 3.326 -5.813 2
    endloop
  endfacet
  facet normal 0 0 1
    outer loop
      vertex -1.978 0.509 2
      vertex 2.822 5.746 2
      vertex 2.325 5.636 2
    endloop
  endfacet
  facet normal 0 0 1
    outer loop
      vertex -1.978 0.509 2
      vertex 3.326 -5.813 2
      vertex 3.835 -5.835 2
    endloop
  endfacet
  facet normal 0 0 1
    outer loop
      vertex -1.978 0.509 2
      vertex 3.326 5.813 2
      vertex 2.822 5.746 2
    endloop
  endfacet
  facet normal 0 0 1
    outer loop
      vertex -1.978 0.509 2
      vertex 3.835 -5.835 2
      vertex 0.915 -2.486 2
    endloop
  endfacet
  facet normal 0 0 1
    outer loop
      vertex -1.978 0.509 2
      vertex 3.835 5.835 2
      vertex 3.326 5.813 2
    endloop
  endfacet
  facet normal 0 0 1
    outer loop
      vertex -1.978 0.509 2
      vertex 4.835 5.835 2
      vertex 3.835 5.835 2
    endloop
  endfacet
  facet normal -0.999067 -0.0431817 0
    outer loop
      vertex -2 0 0
      vertex -1.978 -0.509 0
      vertex -2 0 2
    endloop
  endfacet
  facet normal 0 0 -1
    outer loop
      vertex -2 0 0
      vertex -1.978 0.509 0
      vertex -1.978 -0.509 0
    endloop
  endfacet
  facet normal -0.999067 0.0431817 0
    outer loop
      vertex -2 0 0
      vertex -2 0 2
      vertex -1.978 0.509 0
    endloop
  endfacet
  facet normal -0.999067 -0.0431817 0
    outer loop
      vertex -2 0 2
      vertex -1.978 -0.509 0
      vertex -1.978 -0.509 2
    endloop
  endfacet
  facet normal 0 0 1
    outer loop
      vertex -2 0 2
      vertex -1.978 -0.509 2
      vertex -1.978 0.509 2
    endloop
  endfacet
  facet normal -0.999067 0.0431817 0
    outer loop
      vertex -2 0 2
      vertex -1.978 0.509 2
      vertex -1.978 0.509 0
    endloop
  endfacet
  facet normal -1 0 0
    outer loop
      vertex 0.008 -0.246 10.2
      vertex 0.008 0.246 10.2
      vertex 0.008 0.246 2
    endloop
  endfacet
  facet normal 0 0 1
    outer loop
      vertex 0.008 -0.246 10.2
      vertex 0.071 -0.733 10.2
      vertex 0.008 0.246 10.2
    endloop
  endfacet
  facet normal -0.991736 -0.128294 0
    outer loop
      vertex 0.008 -0.246 10.2
      vertex 0.071 -0.733 2
      vertex 0.071 -0.733 10.2
    endloop
  endfacet
  facet normal -1 0 0
    outer loop
      vertex 0.008 -0.246 2
      vertex 0.008 -0.246 10.2
      vertex 0.008 0.246 2
    endloop
  endfacet
  facet normal -0.991736 -0.128294 0
    outer loop
      vertex 0.008 -0.246 2
      vertex 0.071 -0.733 2
      vertex 0.008 -0.246 10.2
    endloop
  endfacet
  facet normal 0 0 1
    outer loop
      vertex 0.008 0.246 10.2
      vertex 0.071 -0.733 10.2
      vertex 0.195 -1.208 10.2
    endloop
  endfacet
  facet normal -0.991736 0.128294 0
    outer loop
      vertex 0.008 0.246 10.2
      vertex 0.071 0.733 10.2
      vertex 0.071 0.733 2
    endloop
  endfacet
  facet normal 0 0 1
    outer loop
      vertex 0.008 0.246 10.2
      vertex 0.195 -1.208 10.2
      vertex 0.38 -1.664 10.2
    endloop
  endfacet
  facet normal 0 0 1
    outer loop
      vertex 0.008 0.246 10.2
      vertex 0.195 1.208 10.2
      vertex 0.071 0.733 10.2
    endloop
  endfacet
  facet normal 0 0 1
    outer loop
      vertex 0.008 0.246 10.2
      vertex 0.38 -1.664 10.2
      vertex 0.621 -2.092 10.2
    endloop
  endfacet
  facet normal 0 0 1
    outer loop
      vertex 0.008 0.246 10.2
      vertex 0.38 1.664 10.2
      vertex 0.195 1.208 10.2
    endloop
  endfacet
  facet normal 0 0 1
    outer loop
      vertex 0.008 0.246 10.2
      vertex 0.621 -2.092 10.2
      vertex 0.915 -2.486 10.2
    endloop
  endfacet
  facet normal 0 0 1
    outer loop
      vertex 0.008 0.246 10.2
      vertex 0.621 2.092 10.2
      vertex 0.38 1.664 10.2
    endloop
  endfacet
  facet normal 0 0 1
    outer loop
      vertex 0.008 0.246 10.2
      vertex 0.915 -2.486 10.2
      vertex 1.257 -2.839 10.2
    endloop
  endfacet
  facet normal 0 0 1
    outer loop
      vertex 0.008 0.246 10.2
      vertex 0.915 2.486 10.2
      vertex 0.621 2.092 10.2
    endloop
  endfacet
  facet normal 0 0 1
    outer loop
      vertex 0.008 0.246 10.2
      vertex 1.257 -2.839 10.2
      vertex 1.641 -3.145 10.2
    endloop
  endfacet
  facet normal 0 0 1
    outer loop
      vertex 0.008 0.246 10.2
      vertex 1.257 2.839 10.2
      vertex 0.915 2.486 10.2
    endloop
  endfacet
  facet normal 0 0 1
    outer loop
      vertex 0.008 0.246 10.2
      vertex 1.641 -3.145 10.2
      vertex 2.061 -3.4 10.2
    endloop
  endfacet
  facet normal 0 0 1
    outer loop
      vertex 0.008 0.246 10.2
      vertex 1.641 3.145 10.2
      vertex 1.257 2.839 10.2
    endloop
  endfacet
  facet normal 0 0 1
    outer loop
      vertex 0.008 0.246 10.2
      vertex 2.061 -3.4 10.2
      vertex 2.511 -3.599 10.2
    endloop
  endfacet
  facet normal 0 0 1
    outer loop
      vertex 0.008 0.246 10.2
      vertex 2.061 3.4 10.2
      vertex 1.641 3.145 10.2
    endloop
  endfacet
  facet normal 0 0 1
    outer loop
      vertex 0.008 0.246 10.2
      vertex 2.511 -3.599 10.2
      vertex 2.982 -3.739 10.2
    endloop
  endfacet
  facet normal 0 0 1
    outer loop
      vertex 0.008 0.246 10.2
      vertex 2.511 3.599 10.2
      vertex 2.061 3.4 10.2
    endloop
  endfacet
  facet normal 0 0 1
    outer loop
      vertex 0.008 0.246 10.2
      vertex 2.982 -3.739 10.2
      vertex 3.467 -3.817 10.2
    endloop
  endfacet
  facet normal 0 0 1
    outer loop
      vertex 0.008 0.246 10.2
      vertex 2.982 3.739 10.2
      vertex 2.511 3.599 10.2
    endloop
  endfacet
  facet normal 0 0 1
    outer loop
      vertex 0.008 0.246 10.2
      vertex 3.467 -3.817 10.2
      vertex 3.835 -3.829 10.2
    endloop
  endfacet
  facet normal 0 0 1
    outer loop
      vertex 0.008 0.246 10.2
      vertex 3.467 3.817 10.2
      vertex 2.982 3.739 10.2
    endloop
  endfacet
  facet normal 0 0 1
    outer loop
      vertex 0.008 0.246 10.2
      vertex 3.835 -3.829 10.2
      vertex 4.835 -3.835 10.2
    endloop
  endfacet
  facet normal 0 0 1
    outer loop
      vertex 0.008 0.246 10.2
      vertex 3.835 3.829 10.2
      vertex 3.467 3.817 10.2
    endloop
  endfacet
  facet normal 0 0 1
    outer loop
      vertex 0.008 0.246 10.2
      vertex 4.835 -3.835 10.2
      vertex 4.835 3.835 10.2
    endloop
  endfacet
  facet normal 0 0 1
    outer loop
      vertex 0.008 0.246 10.2
      vertex 4.835 3.835 10.2
      vertex 3.835 3.829 10.2
    endloop
  endfacet
  facet normal -0.991736 0.128294 0
    outer loop
      vertex 0.008 0.246 2
      vertex 0.008 0.246 10.2
      vertex 0.071 0.733 2
    endloop
  endfacet
  facet normal -0.967574 -0.252588 0
    outer loop
      vertex 0.071 -0.733 10.2
      vertex 0.195 -1.208 2
      vertex 0.195 -1.208 10.2
    endloop
  endfacet
  facet normal -0.967574 -0.252588 0
    outer loop
      vertex 0.071 -0.733 2
      vertex 0.195 -1.208 2
      vertex 0.071 -0.733 10.2
    endloop
  endfacet
  facet normal -0.967574 0.252588 0
    outer loop
      vertex 0.071 0.733 10.2
      vertex 0.195 1.208 10.2
      vertex 0.195 1.208 2
    endloop
  endfacet
  facet normal -0.967574 0.252588 0
    outer loop
      vertex 0.071 0.733 2
      vertex 0.071 0.733 10.2
      vertex 0.195 1.208 2
    endloop
  endfacet
  facet normal -0.608761 -0.793353 0
    outer loop
      vertex 0.084 -4.47 0
      vertex 0.488 -4.78 0
      vertex 0.084 -4.47 2
    endloop
  endfacet
  facet normal -0.608761 -0.793353 0
    outer loop
      vertex 0.084 -4.47 2
      vertex 0.488 -4.78 0
      vertex 0.488 -4.78 2
    endloop
  endfacet
  facet normal -0.608761 0.793353 0
    outer loop
      vertex 0.084 4.47 0
      vertex 0.084 4.47 2
      vertex 0.488 4.78 0
    endloop
  endfacet
  facet normal -0.608761 0.793353 0
    outer loop
      vertex 0.084 4.47 2
      vertex 0.488 4.78 2
      vertex 0.488 4.78 0
    endloop
  endfacet
  facet normal -0.926644 -0.375941 0
    outer loop
      vertex 0.195 -1.208 10.2
      vertex 0.38 -1.664 2
      vertex 0.38 -1.664 10.2
    endloop
  endfacet
  facet normal -0.926644 -0.375941 0
    outer loop
      vertex 0.195 -1.208 2
      vertex 0.38 -1.664 2
      vertex 0.195 -1.208 10.2
    endloop
  endfacet
  facet normal -0.926644 0.375941 0
    outer loop
      vertex 0.195 1.208 10.2
      vertex 0.38 1.664 10.2
      vertex 0.38 1.664 2
    endloop
  endfacet
  facet normal -0.926644 0.375941 0
    outer loop
      vertex 0.195 1.208 2
      vertex 0.195 1.208 10.2
      vertex 0.38 1.664 2
    endloop
  endfacet
  facet normal -0.871358 -0.490648 0
    outer loop
      vertex 0.38 -1.664 10.2
      vertex 0.621 -2.092 2
      vertex 0.621 -2.092 10.2
    endloop
  endfacet
  facet normal -0.871358 -0.490648 0
    outer loop
      vertex 0.38 -1.664 2
      vertex 0.621 -2.092 2
      vertex 0.38 -1.664 10.2
    endloop
  endfacet
  facet normal -0.871358 0.490648 0
    outer loop
      vertex 0.38 1.664 10.2
      vertex 0.621 2.092 10.2
      vertex 0.621 2.092 2
    endloop
  endfacet
  facet normal -0.871358 0.490648 0
    outer loop
      vertex 0.38 1.664 2
      vertex 0.38 1.664 10.2
      vertex 0.621 2.092 2
    endloop
  endfacet
  facet normal -0.536875 -0.843661 0
    outer loop
      vertex 0.488 -4.78 0
      vertex 0.917 -5.053 0
      vertex 0.488 -4.78 2
    endloop
  endfacet
  facet normal -0.536875 -0.843661 0
    outer loop
      vertex 0.488 -4.78 2
      vertex 0.917 -5.053 0
      vertex 0.917 -5.053 2
    endloop
  endfacet
  facet normal -0.536875 0.843661 0
    outer loop
      vertex 0.488 4.78 0
      vertex 0.488 4.78 2
      vertex 0.917 5.053 0
    endloop
  endfacet
  facet normal -0.536875 0.843661 0
    outer loop
      vertex 0.488 4.78 2
      vertex 0.917 5.053 2
      vertex 0.917 5.053 0
    endloop
  endfacet
  facet normal -0.801462 -0.598045 0
    outer loop
      vertex 0.621 -2.092 10.2
      vertex 0.915 -2.486 2
      vertex 0.915 -2.486 10.2
    endloop
  endfacet
  facet normal -0.801462 -0.598045 0
    outer loop
      vertex 0.621 -2.092 2
      vertex 0.915 -2.486 2
      vertex 0.621 -2.092 10.2
    endloop
  endfacet
  facet normal -0.801462 0.598045 0
    outer loop
      vertex 0.621 2.092 10.2
      vertex 0.915 2.486 10.2
      vertex 0.915 2.486 2
    endloop
  endfacet
  facet normal -0.801462 0.598045 0
    outer loop
      vertex 0.621 2.092 2
      vertex 0.621 2.092 10.2
      vertex 0.915 2.486 2
    endloop
  endfacet
  facet normal -0.718208 -0.695828 0
    outer loop
      vertex 0.915 -2.486 10.2
      vertex 1.257 -2.839 2
      vertex 1.257 -2.839 10.2
    endloop
  endfacet
  facet normal -0.718208 -0.695828 0
    outer loop
      vertex 0.915 -2.486 2
      vertex 1.257 -2.839 2
      vertex 0.915 -2.486 10.2
    endloop
  endfacet
  facet normal 0 0 1
    outer loop
      vertex 0.915 -2.486 2
      vertex 3.835 -5.835 2
      vertex 1.257 -2.839 2
    endloop
  endfacet
  facet normal -0.718208 0.695828 0
    outer loop
      vertex 0.915 2.486 10.2
      vertex 1.257 2.839 10.2
      vertex 1.257 2.839 2
    endloop
  endfacet
  facet normal -0.718208 0.695828 0
    outer loop
      vertex 0.915 2.486 2
      vertex 0.915 2.486 10.2
      vertex 1.257 2.839 2
    endloop
  endfacet
  facet normal -0.461291 -0.887249 0
    outer loop
      vertex 0.917 -5.053 0
      vertex 1.369 -5.288 0
      vertex 0.917 -5.053 2
    endloop
  endfacet
  facet normal -0.461291 -0.887249 0
    outer loop
      vertex 0.917 -5.053 2
      vertex 1.369 -5.288 0
      vertex 1.369 -5.288 2
    endloop
  endfacet
  facet normal -0.461291 0.887249 0
    outer loop
      vertex 0.917 5.053 0
      vertex 0.917 5.053 2
      vertex 1.369 5.288 0
    endloop
  endfacet
  facet normal -0.461291 0.887249 0
    outer loop
      vertex 0.917 5.053 2
      vertex 1.369 5.288 2
      vertex 1.369 5.288 0
    endloop
  endfacet
  facet normal -0.623204 -0.78206 0
    outer loop
      vertex 1.257 -2.839 10.2
      vertex 1.641 -3.145 2
      vertex 1.641 -3.145 10.2
    endloop
  endfacet
  facet normal -0.623204 -0.78206 0
    outer loop
      vertex 1.257 -2.839 2
      vertex 1.641 -3.145 2
      vertex 1.257 -2.839 10.2
    endloop
  endfacet
  facet normal 0 0 1
    outer loop
      vertex 1.257 -2.839 2
      vertex 3.835 -5.835 2
      vertex 1.641 -3.145 2
    endloop
  endfacet
  facet normal -0.623204 0.78206 0
    outer loop
      vertex 1.257 2.839 10.2
      vertex 1.641 3.145 10.2
      vertex 1.641 3.145 2
    endloop
  endfacet
  facet normal -0.623204 0.78206 0
    outer loop
      vertex 1.257 2.839 2
      vertex 1.257 2.839 10.2
      vertex 1.641 3.145 2
    endloop
  endfacet
  facet normal -0.38322 -0.923657 0
    outer loop
      vertex 1.369 -5.288 0
      vertex 1.839 -5.483 0
      vertex 1.369 -5.288 2
    endloop
  endfacet
  facet normal -0.38322 -0.923657 0
    outer loop
      vertex 1.369 -5.288 2
      vertex 1.839 -5.483 0
      vertex 1.839 -5.483 2
    endloop
  endfacet
  facet normal -0.38322 0.923657 0
    outer loop
      vertex 1.369 5.288 0
      vertex 1.369 5.288 2
      vertex 1.839 5.483 0
    endloop
  endfacet
  facet normal -0.38322 0.923657 0
    outer loop
      vertex 1.369 5.288 2
      vertex 1.839 5.483 2
      vertex 1.839 5.483 0
    endloop
  endfacet
  facet normal -0.518978 -0.854788 0
    outer loop
      vertex 1.641 -3.145 10.2
      vertex 2.061 -3.4 2
      vertex 2.061 -3.4 10.2
    endloop
  endfacet
  facet normal -0.518978 -0.854788 0
    outer loop
      vertex 1.641 -3.145 2
      vertex 2.061 -3.4 2
      vertex 1.641 -3.145 10.2
    endloop
  endfacet
  facet normal 0 0 1
    outer loop
      vertex 1.641 -3.145 2
      vertex 3.835 -5.835 2
      vertex 2.061 -3.4 2
    endloop
  endfacet
  facet normal -0.518978 0.854788 0
    outer loop
      vertex 1.641 3.145 10.2
      vertex 2.061 3.4 10.2
      vertex 2.061 3.4 2
    endloop
  endfacet
  facet normal -0.518978 0.854788 0
    outer loop
      vertex 1.641 3.145 2
      vertex 1.641 3.145 10.2
      vertex 2.061 3.4 2
    endloop
  endfacet
  facet normal 0 0 1
    outer loop
      vertex 1.641 3.145 2
      vertex 2.061 3.4 2
      vertex 4.835 5.835 2
    endloop
  endfacet
  facet normal -0.300286 -0.953849 0
    outer loop
      vertex 1.839 -5.483 0
      vertex 2.325 -5.636 0
      vertex 1.839 -5.483 2
    endloop
  endfacet
  facet normal -0.300286 -0.953849 0
    outer loop
      vertex 1.839 -5.483 2
      vertex 2.325 -5.636 0
      vertex 2.325 -5.636 2
    endloop
  endfacet
  facet normal -0.300286 0.953849 0
    outer loop
      vertex 1.839 5.483 0
      vertex 1.839 5.483 2
      vertex 2.325 5.636 0
    endloop
  endfacet
  facet normal -0.300286 0.953849 0
    outer loop
      vertex 1.839 5.483 2
      vertex 2.325 5.636 2
      vertex 2.325 5.636 0
    endloop
  endfacet
  facet normal -2.05178e-16 0.0732719 0.997312
    outer loop
      vertex 2 -0.367 3.491
      vertex 4.835 -0.367 3.491
      vertex 2 0.123 3.455
    endloop
  endfacet
  facet normal -1.25438e-16 0.365778 0.930702
    outer loop
      vertex 2 -0.367 3.491
      vertex 4.835 -0.825 3.671
      vertex 4.835 -0.367 3.491
    endloop
  endfacet
  facet normal 2.22045e-16 -2.46519e-32 -1
    outer loop
      vertex 2 -0.684 6.75
      vertex 2 0.684 6.75
      vertex 4.835 -0.684 6.75
    endloop
  endfacet
  facet normal 3.14018e-16 0.707107 -0.707107
    outer loop
      vertex 2 -0.684 6.75
      vertex 4.835 -0.684 6.75
      vertex 4.835 -1.167 6.267
    endloop
  endfacet
  facet normal -1.25438e-16 0.365778 0.930702
    outer loop
      vertex 2 -0.825 3.671
      vertex 4.835 -0.825 3.671
      vertex 2 -0.367 3.491
    endloop
  endfacet
  facet normal -3.51724e-17 0.623456 0.781858
    outer loop
      vertex 2 -0.825 3.671
      vertex 4.835 -1.21 3.978
      vertex 4.835 -0.825 3.671
    endloop
  endfacet
  facet normal 1 -2.22045e-16 2.22045e-16
    outer loop
      vertex 2 -1.161 6.261
      vertex 2 -0.367 3.491
      vertex 2 0.123 3.455
    endloop
  endfacet
  facet normal 1 -2.22045e-16 2.22045e-16
    outer loop
      vertex 2 -1.161 6.261
      vertex 2 -0.825 3.671
      vertex 2 -0.367 3.491
    endloop
  endfacet
  facet normal 1 -2.22045e-16 2.22045e-16
    outer loop
      vertex 2 -1.161 6.261
      vertex 2 0.123 3.455
      vertex 2 0.603 3.564
    endloop
  endfacet
  facet normal 1 -2.22045e-16 2.22045e-16
    outer loop
      vertex 2 -1.161 6.261
      vertex 2 0.603 3.564
      vertex 2 1.029 3.81
    endloop
  endfacet
  facet normal 1 -2.22045e-16 2.22045e-16
    outer loop
      vertex 2 -1.161 6.261
      vertex 2 0.684 6.75
      vertex 2 -0.684 6.75
    endloop
  endfacet
  facet normal 1 -2.22045e-16 2.22045e-16
    outer loop
      vertex 2 -1.161 6.261
      vertex 2 1.029 3.81
      vertex 2 1.363 4.171
    endloop
  endfacet
  facet normal 1 -2.22045e-16 2.22045e-16
    outer loop
      vertex 2 -1.161 6.261
      vertex 2 1.154 6.254
      vertex 2 1.167 6.267
    endloop
  endfacet
  facet normal 1 -2.22045e-16 2.22045e-16
    outer loop
      vertex 2 -1.161 6.261
      vertex 2 1.167 6.267
      vertex 2 0.684 6.75
    endloop
  endfacet
  facet normal 1 -2.22045e-16 2.22045e-16
    outer loop
      vertex 2 -1.161 6.261
      vertex 2 1.363 4.171
      vertex 2 1.577 4.614
    endloop
  endfacet
  facet normal 1 -2.22045e-16 2.22045e-16
    outer loop
      vertex 2 -1.161 6.261
      vertex 2 1.363 6.029
      vertex 2 1.154 6.254
    endloop
  endfacet
  facet normal 1 -2.22045e-16 2.22045e-16
    outer loop
      vertex 2 -1.161 6.261
      vertex 2 1.577 4.614
      vertex 2 1.65 5.1
    endloop
  endfacet
  facet normal 1 -2.22045e-16 2.22045e-16
    outer loop
      vertex 2 -1.161 6.261
      vertex 2 1.577 5.586
      vertex 2 1.363 6.029
    endloop
  endfacet
  facet normal 1 -2.22045e-16 2.22045e-16
    outer loop
      vertex 2 -1.161 6.261
      vertex 2 1.65 5.1
      vertex 2 1.577 5.586
    endloop
  endfacet
  facet normal 3.1201e-16 0.622746 -0.782424
    outer loop
      vertex 2 -1.161 6.261
      vertex 4.835 -1.161 6.261
      vertex 4.835 -1.21 6.222
    endloop
  endfacet
  facet normal -3.87058e-48 0.707107 0.707107
    outer loop
      vertex 2 -1.161 6.261
      vertex 4.835 -1.167 6.267
      vertex 4.835 -1.161 6.261
    endloop
  endfacet
  facet normal 3.14018e-16 0.707107 -0.707107
    outer loop
      vertex 2 -1.167 6.267
      vertex 2 -0.684 6.75
      vertex 4.835 -1.167 6.267
    endloop
  endfacet
  facet normal 1 -2.22045e-16 2.22045e-16
    outer loop
      vertex 2 -1.167 6.267
      vertex 2 -1.161 6.261
      vertex 2 -0.684 6.75
    endloop
  endfacet
  facet normal -3.87058e-48 0.707107 0.707107
    outer loop
      vertex 2 -1.167 6.267
      vertex 4.835 -1.167 6.267
      vertex 2 -1.161 6.261
    endloop
  endfacet
  facet normal 1 -2.22045e-16 2.22045e-16
    outer loop
      vertex 2 -1.21 3.978
      vertex 2 -0.825 3.671
      vertex 2 -1.161 6.261
    endloop
  endfacet
  facet normal -3.51724e-17 0.623456 0.781858
    outer loop
      vertex 2 -1.21 3.978
      vertex 4.835 -1.21 3.978
      vertex 2 -0.825 3.671
    endloop
  endfacet
  facet normal 5.82791e-17 0.826055 0.563589
    outer loop
      vertex 2 -1.21 3.978
      vertex 4.835 -1.487 4.384
      vertex 4.835 -1.21 3.978
    endloop
  endfacet
  facet normal 3.1201e-16 0.622746 -0.782424
    outer loop
      vertex 2 -1.21 6.222
      vertex 2 -1.161 6.261
      vertex 4.835 -1.21 6.222
    endloop
  endfacet
  facet normal 1 -2.22045e-16 2.22045e-16
    outer loop
      vertex 2 -1.487 4.384
      vertex 2 -1.21 3.978
      vertex 2 -1.161 6.261
    endloop
  endfacet
  facet normal 5.82791e-17 0.826055 0.563589
    outer loop
      vertex 2 -1.487 4.384
      vertex 4.835 -1.487 4.384
      vertex 2 -1.21 3.978
    endloop
  endfacet
  facet normal 1.46718e-16 0.955559 0.2948
    outer loop
      vertex 2 -1.487 4.384
      vertex 4.835 -1.632 4.854
      vertex 4.835 -1.487 4.384
    endloop
  endfacet
  facet normal 1 -2.22045e-16 2.22045e-16
    outer loop
      vertex 2 -1.487 5.816
      vertex 2 -1.161 6.261
      vertex 2 -1.21 6.222
    endloop
  endfacet
  facet normal 3.08563e-16 0.826055 -0.563589
    outer loop
      vertex 2 -1.487 5.816
      vertex 2 -1.21 6.222
      vertex 4.835 -1.21 6.222
    endloop
  endfacet
  facet normal 3.08563e-16 0.826055 -0.563589
    outer loop
      vertex 2 -1.487 5.816
      vertex 4.835 -1.21 6.222
      vertex 4.835 -1.487 5.816
    endloop
  endfacet
  facet normal 1 -2.22045e-16 2.22045e-16
    outer loop
      vertex 2 -1.632 4.854
      vertex 2 -1.161 6.261
      vertex 2 -1.632 5.346
    endloop
  endfacet
  facet normal 1 -2.22045e-16 2.22045e-16
    outer loop
      vertex 2 -1.632 4.854
      vertex 2 -1.487 4.384
      vertex 2 -1.161 6.261
    endloop
  endfacet
  facet normal 2.22045e-16 1 4.93038e-32
    outer loop
      vertex 2 -1.632 4.854
      vertex 2 -1.632 5.346
      vertex 4.835 -1.632 5.346
    endloop
  endfacet
  facet normal 1.46718e-16 0.955559 0.2948
    outer loop
      vertex 2 -1.632 4.854
      vertex 4.835 -1.632 4.854
      vertex 2 -1.487 4.384
    endloop
  endfacet
  facet normal 2.22045e-16 1 4.93038e-32
    outer loop
      vertex 2 -1.632 4.854
      vertex 4.835 -1.632 5.346
      vertex 4.835 -1.632 4.854
    endloop
  endfacet
  facet normal 1 -2.22045e-16 2.22045e-16
    outer loop
      vertex 2 -1.632 5.346
      vertex 2 -1.161 6.261
      vertex 2 -1.487 5.816
    endloop
  endfacet
  facet normal 2.77635e-16 0.955559 -0.2948
    outer loop
      vertex 2 -1.632 5.346
      vertex 2 -1.487 5.816
      vertex 4.835 -1.487 5.816
    endloop
  endfacet
  facet normal 2.77635e-16 0.955559 -0.2948
    outer loop
      vertex 2 -1.632 5.346
      vertex 4.835 -1.487 5.816
      vertex 4.835 -1.632 5.346
    endloop
  endfacet
  facet normal -2.05178e-16 0.0732719 0.997312
    outer loop
      vertex 2 0.123 3.455
      vertex 4.835 -0.367 3.491
      vertex 4.835 0.123 3.455
    endloop
  endfacet
  facet normal -2.65703e-16 -0.221445 0.975173
    outer loop
      vertex 2 0.123 3.455
      vertex 4.835 0.123 3.455
      vertex 2 0.603 3.564
    endloop
  endfacet
  facet normal -2.65703e-16 -0.221445 0.975173
    outer loop
      vertex 2 0.603 3.564
      vertex 4.835 0.123 3.455
      vertex 4.835 0.603 3.564
    endloop
  endfacet
  facet normal -3.03326e-16 -0.500074 0.865982
    outer loop
      vertex 2 0.603 3.564
      vertex 4.835 0.603 3.564
      vertex 2 1.029 3.81
    endloop
  endfacet
  facet normal 7.21802e-32 -0.707107 -0.707107
    outer loop
      vertex 2 0.684 6.75
      vertex 2 1.167 6.267
      vertex 4.835 0.684 6.75
    endloop
  endfacet
  facet normal 2.22045e-16 -2.46519e-32 -1
    outer loop
      vertex 2 0.684 6.75
      vertex 4.835 0.684 6.75
      vertex 4.835 -0.684 6.75
    endloop
  endfacet
  facet normal -3.03326e-16 -0.500074 0.865982
    outer loop
      vertex 2 1.029 3.81
      vertex 4.835 0.603 3.564
      vertex 4.835 1.029 3.81
    endloop
  endfacet
  facet normal -3.13782e-16 -0.734023 0.679124
    outer loop
      vertex 2 1.029 3.81
      vertex 4.835 1.029 3.81
      vertex 4.835 1.363 4.171
    endloop
  endfacet
  facet normal -3.13782e-16 -0.734023 0.679124
    outer loop
      vertex 2 1.029 3.81
      vertex 4.835 1.363 4.171
      vertex 2 1.363 4.171
    endloop
  endfacet
  facet normal -1.15689e-17 -0.732678 -0.680576
    outer loop
      vertex 2 1.154 6.254
      vertex 2 1.363 6.029
      vertex 4.835 1.154 6.254
    endloop
  endfacet
  facet normal -3.14018e-16 -0.707107 0.707107
    outer loop
      vertex 2 1.154 6.254
      vertex 4.835 1.154 6.254
      vertex 2 1.167 6.267
    endloop
  endfacet
  facet normal -3.14018e-16 -0.707107 0.707107
    outer loop
      vertex 2 1.167 6.267
      vertex 4.835 1.154 6.254
      vertex 4.835 1.167 6.267
    endloop
  endfacet
  facet normal 7.21802e-32 -0.707107 -0.707107
    outer loop
      vertex 2 1.167 6.267
      vertex 4.835 1.167 6.267
      vertex 4.835 0.684 6.75
    endloop
  endfacet
  facet normal -2.96522e-16 -0.900442 0.434976
    outer loop
      vertex 2 1.363 4.171
      vertex 4.835 1.363 4.171
      vertex 4.835 1.577 4.614
    endloop
  endfacet
  facet normal -2.96522e-16 -0.900442 0.434976
    outer loop
      vertex 2 1.363 4.171
      vertex 4.835 1.577 4.614
      vertex 2 1.577 4.614
    endloop
  endfacet
  facet normal -1.03354e-16 -0.900442 -0.434976
    outer loop
      vertex 2 1.363 6.029
      vertex 2 1.577 5.586
      vertex 4.835 1.363 6.029
    endloop
  endfacet
  facet normal -1.15689e-17 -0.732678 -0.680576
    outer loop
      vertex 2 1.363 6.029
      vertex 4.835 1.363 6.029
      vertex 4.835 1.154 6.254
    endloop
  endfacet
  facet normal -2.52564e-16 -0.988906 0.148539
    outer loop
      vertex 2 1.577 4.614
      vertex 4.835 1.577 4.614
      vertex 4.835 1.65 5.1
    endloop
  endfacet
  facet normal -2.52564e-16 -0.988906 0.148539
    outer loop
      vertex 2 1.577 4.614
      vertex 4.835 1.65 5.1
      vertex 2 1.65 5.1
    endloop
  endfacet
  facet normal -1.86599e-16 -0.988906 -0.148539
    outer loop
      vertex 2 1.577 5.586
      vertex 2 1.65 5.1
      vertex 4.835 1.577 5.586
    endloop
  endfacet
  facet normal -1.03354e-16 -0.900442 -0.434976
    outer loop
      vertex 2 1.577 5.586
      vertex 4.835 1.577 5.586
      vertex 4.835 1.363 6.029
    endloop
  endfacet
  facet normal -1.86599e-16 -0.988906 -0.148539
    outer loop
      vertex 2 1.65 5.1
      vertex 4.835 1.65 5.1
      vertex 4.835 1.577 5.586
    endloop
  endfacet
  facet normal -0.404441 -0.914564 0
    outer loop
      vertex 2.061 -3.4 10.2
      vertex 2.511 -3.599 2
      vertex 2.511 -3.599 10.2
    endloop
  endfacet
  facet normal -0.404441 -0.914564 0
    outer loop
      vertex 2.061 -3.4 2
      vertex 2.511 -3.599 2
      vertex 2.061 -3.4 10.2
    endloop
  endfacet
  facet normal 0 0 1
    outer loop
      vertex 2.061 -3.4 2
      vertex 3.835 -5.835 2
      vertex 4.835 -5.835 2
    endloop
  endfacet
  facet normal 0 0 1
    outer loop
      vertex 2.061 -3.4 2
      vertex 4.835 -5.835 2
      vertex 2.511 -3.599 2
    endloop
  endfacet
  facet normal -0.404441 0.914564 0
    outer loop
      vertex 2.061 3.4 10.2
      vertex 2.511 3.599 10.2
      vertex 2.511 3.599 2
    endloop
  endfacet
  facet normal -0.404441 0.914564 0
    outer loop
      vertex 2.061 3.4 2
      vertex 2.061 3.4 10.2
      vertex 2.511 3.599 2
    endloop
  endfacet
  facet normal 0 0 1
    outer loop
      vertex 2.061 3.4 2
      vertex 2.511 3.599 2
      vertex 4.835 5.835 2
    endloop
  endfacet
  facet normal -0.216098 -0.976372 0
    outer loop
      vertex 2.325 -5.636 0
      vertex 2.822 -5.746 0
      vertex 2.325 -5.636 2
    endloop
  endfacet
  facet normal -0.216098 -0.976372 0
    outer loop
      vertex 2.325 -5.636 2
      vertex 2.822 -5.746 0
      vertex 2.822 -5.746 2
    endloop
  endfacet
  facet normal -0.216098 0.976372 0
    outer loop
      vertex 2.325 5.636 0
      vertex 2.325 5.636 2
      vertex 2.822 5.746 0
    endloop
  endfacet
  facet normal -0.216098 0.976372 0
    outer loop
      vertex 2.325 5.636 2
      vertex 2.822 5.746 2
      vertex 2.822 5.746 0
    endloop
  endfacet
  facet normal -0.28492 -0.958551 0
    outer loop
      vertex 2.511 -3.599 10.2
      vertex 2.982 -3.739 2
      vertex 2.982 -3.739 10.2
    endloop
  endfacet
  facet normal -0.28492 -0.958551 0
    outer loop
      vertex 2.511 -3.599 2
      vertex 2.982 -3.739 2
      vertex 2.511 -3.599 10.2
    endloop
  endfacet
  facet normal 0 0 1
    outer loop
      vertex 2.511 -3.599 2
      vertex 4.835 -5.835 2
      vertex 2.982 -3.739 2
    endloop
  endfacet
  facet normal -0.28492 0.958551 0
    outer loop
      vertex 2.511 3.599 10.2
      vertex 2.982 3.739 10.2
      vertex 2.982 3.739 2
    endloop
  endfacet
  facet normal -0.28492 0.958551 0
    outer loop
      vertex 2.511 3.599 2
      vertex 2.511 3.599 10.2
      vertex 2.982 3.739 2
    endloop
  endfacet
  facet normal 0 0 1
    outer loop
      vertex 2.511 3.599 2
      vertex 2.982 3.739 2
      vertex 4.835 5.835 2
    endloop
  endfacet
  facet normal -0.131777 -0.991279 0
    outer loop
      vertex 2.822 -5.746 0
      vertex 3.326 -5.813 0
      vertex 2.822 -5.746 2
    endloop
  endfacet
  facet normal -0.131777 -0.991279 0
    outer loop
      vertex 2.822 -5.746 2
      vertex 3.326 -5.813 0
      vertex 3.326 -5.813 2
    endloop
  endfacet
  facet normal -0.131777 0.991279 0
    outer loop
      vertex 2.822 5.746 0
      vertex 2.822 5.746 2
      vertex 3.326 5.813 0
    endloop
  endfacet
  facet normal -0.131777 0.991279 0
    outer loop
      vertex 2.822 5.746 2
      vertex 3.326 5.813 2
      vertex 3.326 5.813 0
    endloop
  endfacet
  facet normal -0.158784 -0.987313 0
    outer loop
      vertex 2.982 -3.739 10.2
      vertex 3.467 -3.817 2
      vertex 3.467 -3.817 10.2
    endloop
  endfacet
  facet normal -0.158784 -0.987313 0
    outer loop
      vertex 2.982 -3.739 2
      vertex 3.467 -3.817 2
      vertex 2.982 -3.739 10.2
    endloop
  endfacet
  facet normal 0 0 1
    outer loop
      vertex 2.982 -3.739 2
      vertex 4.835 -5.835 2
      vertex 3.467 -3.817 2
    endloop
  endfacet
  facet normal -0.158784 0.987313 0
    outer loop
      vertex 2.982 3.739 10.2
      vertex 3.467 3.817 10.2
      vertex 3.467 3.817 2
    endloop
  endfacet
  facet normal -0.158784 0.987313 0
    outer loop
      vertex 2.982 3.739 2
      vertex 2.982 3.739 10.2
      vertex 3.467 3.817 2
    endloop
  endfacet
  facet normal 0 0 1
    outer loop
      vertex 2.982 3.739 2
      vertex 3.467 3.817 2
      vertex 4.835 5.835 2
    endloop
  endfacet
  facet normal -0.0431817 -0.999067 0
    outer loop
      vertex 3.326 -5.813 0
      vertex 3.835 -5.835 0
      vertex 3.326 -5.813 2
    endloop
  endfacet
  facet normal -0.0431817 -0.999067 0
    outer loop
      vertex 3.326 -5.813 2
      vertex 3.835 -5.835 0
      vertex 3.835 -5.835 2
    endloop
  endfacet
  facet normal -0.0431817 0.999067 0
    outer loop
      vertex 3.326 5.813 0
      vertex 3.326 5.813 2
      vertex 3.835 5.835 0
    endloop
  endfacet
  facet normal -0.0431817 0.999067 0
    outer loop
      vertex 3.326 5.813 2
      vertex 3.835 5.835 2
      vertex 3.835 5.835 0
    endloop
  endfacet
  facet normal -0.0325914 -0.999469 0
    outer loop
      vertex 3.467 -3.817 10.2
      vertex 3.835 -3.829 2
      vertex 3.835 -3.829 10.2
    endloop
  endfacet
  facet normal -0.0325914 -0.999469 0
    outer loop
      vertex 3.467 -3.817 2
      vertex 3.835 -3.829 2
      vertex 3.467 -3.817 10.2
    endloop
  endfacet
  facet normal 0 0 1
    outer loop
      vertex 3.467 -3.817 2
      vertex 3.835 -3.835 2
      vertex 3.835 -3.829 2
    endloop
  endfacet
  facet normal 0 0 1
    outer loop
      vertex 3.467 -3.817 2
      vertex 4.835 -5.835 2
      vertex 3.835 -3.835 2
    endloop
  endfacet
  facet normal -0.0325914 0.999469 0
    outer loop
      vertex 3.467 3.817 10.2
      vertex 3.835 3.829 10.2
      vertex 3.835 3.829 2
    endloop
  endfacet
  facet normal -0.0325914 0.999469 0
    outer loop
      vertex 3.467 3.817 2
      vertex 3.467 3.817 10.2
      vertex 3.835 3.829 2
    endloop
  endfacet
  facet normal 0 0 1
    outer loop
      vertex 3.467 3.817 2
      vertex 3.835 3.829 2
      vertex 3.835 3.835 2
    endloop
  endfacet
  facet normal 0 0 1
    outer loop
      vertex 3.467 3.817 2
      vertex 3.835 3.835 2
      vertex 4.835 5.835 2
    endloop
  endfacet
  facet normal -1 0 0
    outer loop
      vertex 3.835 -3.835 10.2
      vertex 3.835 -3.829 10.2
      vertex 3.835 -3.829 2
    endloop
  endfacet
  facet normal 0 0 1
    outer loop
      vertex 3.835 -3.835 10.2
      vertex 4.835 -3.835 10.2
      vertex 3.835 -3.829 10.2
    endloop
  endfacet
  facet normal 0 -1 0
    outer loop
      vertex 3.835 -3.835 10.2
      vertex 4.835 -3.835 2
      vertex 4.835 -3.835 10.2
    endloop
  endfacet
  facet normal -1 0 0
    outer loop
      vertex 3.835 -3.835 2
      vertex 3.835 -3.835 10.2
      vertex 3.835 -3.829 2
    endloop
  endfacet
  facet normal 0 -1 0
    outer loop
      vertex 3.835 -3.835 2
      vertex 4.835 -3.835 2
      vertex 3.835 -3.835 10.2
    endloop
  endfacet
  facet normal 0 0 1
    outer loop
      vertex 3.835 -3.835 2
      vertex 4.835 -5.835 2
      vertex 4.835 -3.835 2
    endloop
  endfacet
  facet normal 0 -1 0
    outer loop
      vertex 3.835 -5.835 0
      vertex 4.835 -5.835 0
      vertex 3.835 -5.835 2
    endloop
  endfacet
  facet normal 0 -1 0
    outer loop
      vertex 3.835 -5.835 2
      vertex 4.835 -5.835 0
      vertex 4.835 -5.835 2
    endloop
  endfacet
  facet normal -1 0 0
    outer loop
      vertex 3.835 3.829 10.2
      vertex 3.835 3.835 10.2
      vertex 3.835 3.835 2
    endloop
  endfacet
  facet normal 0 0 1
    outer loop
      vertex 3.835 3.829 10.2
      vertex 4.835 3.835 10.2
      vertex 3.835 3.835 10.2
    endloop
  endfacet
  facet normal -1 0 0
    outer loop
      vertex 3.835 3.829 2
      vertex 3.835 3.829 10.2
      vertex 3.835 3.835 2
    endloop
  endfacet
  facet normal 0 1 0
    outer loop
      vertex 3.835 3.835 10.2
      vertex 4.835 3.835 10.2
      vertex 4.835 3.835 2
    endloop
  endfacet
  facet normal 0 1 0
    outer loop
      vertex 3.835 3.835 2
      vertex 3.835 3.835 10.2
      vertex 4.835 3.835 2
    endloop
  endfacet
  facet normal 0 0 1
    outer loop
      vertex 3.835 3.835 2
      vertex 4.835 3.835 2
      vertex 4.835 5.835 2
    endloop
  endfacet
  facet normal 0 1 0
    outer loop
      vertex 3.835 5.835 0
      vertex 3.835 5.835 2
      vertex 4.835 5.835 0
    endloop
  endfacet
  facet normal 0 1 0
    outer loop
      vertex 3.835 5.835 2
      vertex 4.835 5.835 2
      vertex 4.835 5.835 0
    endloop
  endfacet
  facet normal 1 0 0
    outer loop
      vertex 4.835 -0.684 6.75
      vertex 4.835 0.684 6.75
      vertex 4.835 3.835 10.2
    endloop
  endfacet
  facet normal 1 0 0
    outer loop
      vertex 4.835 -1.21 6.222
      vertex 4.835 -1.161 6.261
      vertex 4.835 -1.167 6.267
    endloop
  endfacet
  facet normal 1 0 0
    outer loop
      vertex 4.835 -3.835 10.2
      vertex 4.835 -0.684 6.75
      vertex 4.835 3.835 10.2
    endloop
  endfacet
  facet normal 1 0 0
    outer loop
      vertex 4.835 -3.835 10.2
      vertex 4.835 -1.167 6.267
      vertex 4.835 -0.684 6.75
    endloop
  endfacet
  facet normal 1 0 0
    outer loop
      vertex 4.835 -3.835 10.2
      vertex 4.835 -1.21 6.222
      vertex 4.835 -1.167 6.267
    endloop
  endfacet
  facet normal 1 0 0
    outer loop
      vertex 4.835 -3.835 10.2
      vertex 4.835 -1.487 5.816
      vertex 4.835 -1.21 6.222
    endloop
  endfacet
  facet normal 1 0 0
    outer loop
      vertex 4.835 -3.835 10.2
      vertex 4.835 -1.632 4.854
      vertex 4.835 -1.632 5.346
    endloop
  endfacet
  facet normal 1 0 0
    outer loop
      vertex 4.835 -3.835 10.2
      vertex 4.835 -1.632 5.346
      vertex 4.835 -1.487 5.816
    endloop
  endfacet
  facet normal 1 0 0
    outer loop
      vertex 4.835 -3.835 2
      vertex 4.835 -0.367 3.491
      vertex 4.835 -0.825 3.671
    endloop
  endfacet
  facet normal 1 0 0
    outer loop
      vertex 4.835 -3.835 2
      vertex 4.835 -0.825 3.671
      vertex 4.835 -1.21 3.978
    endloop
  endfacet
  facet normal 1 0 0
    outer loop
      vertex 4.835 -3.835 2
      vertex 4.835 -1.21 3.978
      vertex 4.835 -1.487 4.384
    endloop
  endfacet
  facet normal 1 0 0
    outer loop
      vertex 4.835 -3.835 2
      vertex 4.835 -1.487 4.384
      vertex 4.835 -1.632 4.854
    endloop
  endfacet
  facet normal 1 0 0
    outer loop
      vertex 4.835 -3.835 2
      vertex 4.835 -1.632 4.854
      vertex 4.835 -3.835 10.2
    endloop
  endfacet
  facet normal 1 0 0
    outer loop
      vertex 4.835 -3.835 2
      vertex 4.835 0.123 3.455
      vertex 4.835 -0.367 3.491
    endloop
  endfacet
  facet normal 1 0 0
    outer loop
      vertex 4.835 -3.835 2
      vertex 4.835 0.603 3.564
      vertex 4.835 0.123 3.455
    endloop
  endfacet
  facet normal 1 0 0
    outer loop
      vertex 4.835 -3.835 2
      vertex 4.835 3.835 2
      vertex 4.835 0.603 3.564
    endloop
  endfacet
  facet normal 1 0 0
    outer loop
      vertex 4.835 -3.835 2
      vertex 4.835 5.835 0
      vertex 4.835 3.835 2
    endloop
  endfacet
  facet normal 1 0 0
    outer loop
      vertex 4.835 -5.835 0
      vertex 4.835 5.835 0
      vertex 4.835 -5.835 2
    endloop
  endfacet
  facet normal 1 0 0
    outer loop
      vertex 4.835 -5.835 2
      vertex 4.835 5.835 0
      vertex 4.835 -3.835 2
    endloop
  endfacet
  facet normal 1 0 0
    outer loop
      vertex 4.835 0.603 3.564
      vertex 4.835 3.835 2
      vertex 4.835 1.029 3.81
    endloop
  endfacet
  facet normal 1 0 0
    outer loop
      vertex 4.835 0.684 6.75
      vertex 4.835 1.167 6.267
      vertex 4.835 3.835 10.2
    endloop
  endfacet
  facet normal 1 0 0
    outer loop
      vertex 4.835 1.029 3.81
      vertex 4.835 3.835 2
      vertex 4.835 1.363 4.171
    endloop
  endfacet
  facet normal 1 0 0
    outer loop
      vertex 4.835 1.154 6.254
      vertex 4.835 1.363 6.029
      vertex 4.835 1.167 6.267
    endloop
  endfacet
  facet normal 1 0 0
    outer loop
      vertex 4.835 1.167 6.267
      vertex 4.835 1.363 6.029
      vertex 4.835 3.835 10.2
    endloop
  endfacet
  facet normal 1 0 0
    outer loop
      vertex 4.835 1.363 4.171
      vertex 4.835 3.835 2
      vertex 4.835 1.577 4.614
    endloop
  endfacet
  facet normal 1 0 0
    outer loop
      vertex 4.835 1.363 6.029
      vertex 4.835 1.577 5.586
      vertex 4.835 3.835 2
    endloop
  endfacet
  facet normal 1 0 0
    outer loop
      vertex 4.835 1.363 6.029
      vertex 4.835 3.835 2
      vertex 4.835 3.835 10.2
    endloop
  endfacet
  facet normal 1 0 0
    outer loop
      vertex 4.835 1.577 4.614
      vertex 4.835 3.835 2
      vertex 4.835 1.65 5.1
    endloop
  endfacet
  facet normal 1 0 0
    outer loop
      vertex 4.835 1.577 5.586
      vertex 4.835 1.65 5.1
      vertex 4.835 3.835 2
    endloop
  endfacet
  facet normal 1 0 0
    outer loop
      vertex 4.835 3.835 2
      vertex 4.835 5.835 0
      vertex 4.835 5.835 2
    endloop
  endfacet
endsolid OpenSCAD_Model
