solid OpenSCAD_Model
  facet normal -0.222522 0.974928 0
    outer loop
      vertex -0.429768 -1.88294 0
      vertex -0.429768 -1.88294 6.4
      vertex 1.20418 -1.51 0
    endloop
  endfacet
  facet normal -0.222522 0.974928 0
    outer loop
      vertex -0.429768 -1.88294 6.4
      vertex 1.20418 -1.51 6.4
      vertex 1.20418 -1.51 0
    endloop
  endfacet
  facet normal 0 0 1
    outer loop
      vertex -0.429768 -1.88294 6.4
      vertex 12.5903 -4.6 6.4
      vertex 1.20418 -1.51 6.4
    endloop
  endfacet
  facet normal -0.222522 -0.974928 0
    outer loop
      vertex -0.429768 1.88294 0
      vertex 1.20418 1.51 0
      vertex -0.429768 1.88294 6.4
    endloop
  endfacet
  facet normal -0.222522 -0.974928 0
    outer loop
      vertex -0.429768 1.88294 6.4
      vertex 1.20418 1.51 0
      vertex 1.20418 1.51 6.4
    endloop
  endfacet
  facet normal 0 0 -1
    outer loop
      vertex -0.563281 -2.46789 0
      vertex -0.429768 -1.88294 0
      vertex 1.20418 -1.51 0
    endloop
  endfacet
  facet normal 0 0 -1
    outer loop
      vertex -0.563281 -2.46789 0
      vertex 1.20418 -1.51 0
      vertex 1.57828 -1.9791 0
    endloop
  endfacet
  facet normal 0.222521 -0.974928 0
    outer loop
      vertex -0.563281 -2.46789 0
      vertex 1.57828 -1.9791 0
      vertex -0.563281 -2.46789 4
    endloop
  endfacet
  facet normal 0.222521 -0.974928 0
    outer loop
      vertex -0.563281 -2.46789 4
      vertex 1.57828 -1.9791 0
      vertex 1.57828 -1.9791 4
    endloop
  endfacet
  facet normal 0 0 -1
    outer loop
      vertex -0.563281 -2.46789 4
      vertex 1.57828 -1.9791 4
      vertex 1.59899 -3.86031 4
    endloop
  endfacet
  facet normal 0 0 -1
    outer loop
      vertex -0.563281 -2.46789 4
      vertex 1.59899 -3.86031 4
      vertex 0 -4.17836 4
    endloop
  endfacet
  facet normal 0.222521 0.974928 0
    outer loop
      vertex -0.563281 2.46789 0
      vertex -0.563281 2.46789 4
      vertex 1.57828 1.9791 0
    endloop
  endfacet
  facet normal 0 0 -1
    outer loop
      vertex -0.563281 2.46789 0
      vertex 1.20418 1.51 0
      vertex -0.429768 1.88294 0
    endloop
  endfacet
  facet normal 0 0 -1
    outer loop
      vertex -0.563281 2.46789 0
      vertex 1.57828 1.9791 0
      vertex 1.20418 1.51 0
    endloop
  endfacet
  facet normal 0.222521 0.974928 0
    outer loop
      vertex -0.563281 2.46789 4
      vertex 1.57828 1.9791 4
      vertex 1.57828 1.9791 0
    endloop
  endfacet
  facet normal 0 0 -1
    outer loop
      vertex -0.563281 2.46789 4
      vertex 1.59899 3.86031 4
      vertex 2.95455 2.95455 4
    endloop
  endfacet
  facet normal 0 0 -1
    outer loop
      vertex -0.563281 2.46789 4
      vertex 2.95455 2.95455 4
      vertex 1.57828 1.9791 4
    endloop
  endfacet
  facet normal 0.19509 0.980785 0
    outer loop
      vertex -1.59899 -3.86031 0
      vertex -1.59899 -3.86031 4
      vertex 0 -4.17836 0
    endloop
  endfacet
  facet normal 0.19509 0.980785 0
    outer loop
      vertex -1.59899 -3.86031 4
      vertex 0 -4.17836 4
      vertex 0 -4.17836 0
    endloop
  endfacet
  facet normal 0.19509 -0.980785 0
    outer loop
      vertex -1.59899 3.86031 0
      vertex 0 4.17836 0
      vertex -1.59899 3.86031 4
    endloop
  endfacet
  facet normal 0.19509 -0.980785 0
    outer loop
      vertex -1.59899 3.86031 4
      vertex 0 4.17836 0
      vertex 0 4.17836 4
    endloop
  endfacet
  facet normal 0 0 -1
    outer loop
      vertex -1.7401 -0.837986 0
      vertex -0.429768 -1.88294 0
      vertex -0.563281 -2.46789 0
    endloop
  endfacet
  facet normal 0.62349 0.781831 0
    outer loop
      vertex -1.7401 -0.837986 0
      vertex -1.7401 -0.837986 6.4
      vertex -0.429768 -1.88294 0
    endloop
  endfacet
  facet normal 1 0 0
    outer loop
      vertex -1.7401 -0.837986 0
      vertex -1.7401 0.837986 0
      vertex -1.7401 -0.837986 6.4
    endloop
  endfacet
  facet normal 0.62349 0.781831 0
    outer loop
      vertex -1.7401 -0.837986 6.4
      vertex -0.429768 -1.88294 6.4
      vertex -0.429768 -1.88294 0
    endloop
  endfacet
  facet normal 1 0 0
    outer loop
      vertex -1.7401 -0.837986 6.4
      vertex -1.7401 0.837986 0
      vertex -1.7401 0.837986 6.4
    endloop
  endfacet
  facet normal 0.62349 -0.781831 0
    outer loop
      vertex -1.7401 0.837986 0
      vertex -0.429768 1.88294 0
      vertex -1.7401 0.837986 6.4
    endloop
  endfacet
  facet normal 0 0 -1
    outer loop
      vertex -1.7401 0.837986 0
      vertex -0.563281 2.46789 0
      vertex -0.429768 1.88294 0
    endloop
  endfacet
  facet normal 0.62349 -0.781831 0
    outer loop
      vertex -1.7401 0.837986 6.4
      vertex -0.429768 1.88294 0
      vertex -0.429768 1.88294 6.4
    endloop
  endfacet
  facet normal 0 0 1
    outer loop
      vertex -12.5903 -4.6 10.9
      vertex -3.39031 4.6 10.9
      vertex -5.52577 4.6 10.9
    endloop
  endfacet
  facet normal 0.707107 -0.707107 0
    outer loop
      vertex -12.5903 -4.6 10.9
      vertex -3.39031 4.6 6.4
      vertex -3.39031 4.6 10.9
    endloop
  endfacet
  facet normal 0 0 1
    outer loop
      vertex -12.5903 -4.6 6.4
      vertex -0.429768 -1.88294 6.4
      vertex -1.7401 -0.837986 6.4
    endloop
  endfacet
  facet normal 0 0 1
    outer loop
      vertex -12.5903 -4.6 6.4
      vertex -1.7401 -0.837986 6.4
      vertex -3.39031 4.6 6.4
    endloop
  endfacet
  facet normal 0.707107 -0.707107 0
    outer loop
      vertex -12.5903 -4.6 6.4
      vertex -3.39031 4.6 6.4
      vertex -12.5903 -4.6 10.9
    endloop
  endfacet
  facet normal 0 0 1
    outer loop
      vertex -12.5903 -4.6 6.4
      vertex 12.5903 -4.6 6.4
      vertex -0.429768 -1.88294 6.4
    endloop
  endfacet
  facet normal 0 0 1
    outer loop
      vertex -12.5903 -4.6 6.4
      vertex 16.9732 -5.09851 6.4
      vertex 12.5903 -4.6 6.4
    endloop
  endfacet
  facet normal 0 0 1
    outer loop
      vertex -14.7258 -4.6 10.9
      vertex -12.5903 -4.6 10.9
      vertex -5.52577 4.6 10.9
    endloop
  endfacet
  facet normal 0 -1 0
    outer loop
      vertex -14.7258 -4.6 10.9
      vertex -12.5903 -4.6 6.4
      vertex -12.5903 -4.6 10.9
    endloop
  endfacet
  facet normal -0.707107 0.707107 0
    outer loop
      vertex -14.7258 -4.6 10.9
      vertex -5.52577 4.6 10.9
      vertex -5.52577 4.6 6.4
    endloop
  endfacet
  facet normal 0 -1 0
    outer loop
      vertex -14.7258 -4.6 6.4
      vertex -12.5903 -4.6 6.4
      vertex -14.7258 -4.6 10.9
    endloop
  endfacet
  facet normal -0.707107 0.707107 0
    outer loop
      vertex -14.7258 -4.6 6.4
      vertex -14.7258 -4.6 10.9
      vertex -5.52577 4.6 6.4
    endloop
  endfacet
  facet normal 0 0 1
    outer loop
      vertex -14.7258 -4.6 6.4
      vertex -5.52577 4.6 6.4
      vertex -13.65 0 6.4
    endloop
  endfacet
  facet normal 0 0 -1
    outer loop
      vertex -14.9186 0 0
      vertex -3.86031 -1.59899 0
      vertex -2.95455 -2.95455 0
    endloop
  endfacet
  facet normal 0 0 -1
    outer loop
      vertex -14.9186 0 0
      vertex -3.86031 1.59899 0
      vertex -4.17836 0 0
    endloop
  endfacet
  facet normal 0 0 -1
    outer loop
      vertex -14.9186 0 0
      vertex -4.17836 0 0
      vertex -3.86031 -1.59899 0
    endloop
  endfacet
  facet normal -0.866025 0.5 0
    outer loop
      vertex -15.25 -2.77128 3.4
      vertex -15.25 -2.77128 6.4
      vertex -13.65 0 3.4
    endloop
  endfacet
  facet normal -0.866025 0.5 0
    outer loop
      vertex -15.25 -2.77128 6.4
      vertex -13.65 0 6.4
      vertex -13.65 0 3.4
    endloop
  endfacet
  facet normal 0 0 1
    outer loop
      vertex -15.25 -2.77128 6.4
      vertex -14.7258 -4.6 6.4
      vertex -13.65 0 6.4
    endloop
  endfacet
  facet normal -0.866025 -0.5 0
    outer loop
      vertex -15.25 2.77128 3.4
      vertex -13.65 0 3.4
      vertex -15.25 2.77128 6.4
    endloop
  endfacet
  facet normal -0.866025 -0.5 0
    outer loop
      vertex -15.25 2.77128 6.4
      vertex -13.65 0 3.4
      vertex -13.65 0 6.4
    endloop
  endfacet
  facet normal 0 0 1
    outer loop
      vertex -15.25 2.77128 6.4
      vertex -13.65 0 6.4
      vertex -5.52577 4.6 6.4
    endloop
  endfacet
  facet normal 0 0 -1
    outer loop
      vertex -15.6458 -1.51 0
      vertex -14.9186 0 0
      vertex -2.95455 -2.95455 0
    endloop
  endfacet
  facet normal -0.900969 0.433884 0
    outer loop
      vertex -15.6458 -1.51 0
      vertex -15.6458 -1.51 3.4
      vertex -14.9186 0 0
    endloop
  endfacet
  facet normal 0 0 1
    outer loop
      vertex -15.6458 -1.51 3.4
      vertex -13.65 0 3.4
      vertex -14.9186 0 3.4
    endloop
  endfacet
  facet normal -0.900969 0.433884 0
    outer loop
      vertex -15.6458 -1.51 3.4
      vertex -14.9186 0 3.4
      vertex -14.9186 0 0
    endloop
  endfacet
  facet normal 0 0 1
    outer loop
      vertex -15.6458 -1.51 3.4
      vertex -15.25 -2.77128 3.4
      vertex -13.65 0 3.4
    endloop
  endfacet
  facet normal 0 0 -1
    outer loop
      vertex -15.6458 1.51 0
      vertex -1.59899 3.86031 0
      vertex -2.95455 2.95455 0
    endloop
  endfacet
  facet normal -0.900969 -0.433884 0
    outer loop
      vertex -15.6458 1.51 0
      vertex -14.9186 0 0
      vertex -15.6458 1.51 3.4
    endloop
  endfacet
  facet normal 0 0 -1
    outer loop
      vertex -15.6458 1.51 0
      vertex -2.95455 2.95455 0
      vertex -3.86031 1.59899 0
    endloop
  endfacet
  facet normal 0 0 -1
    outer loop
      vertex -15.6458 1.51 0
      vertex -3.86031 1.59899 0
      vertex -14.9186 0 0
    endloop
  endfacet
  facet normal 0 0 1
    outer loop
      vertex -15.6458 1.51 3.4
      vertex -13.65 0 3.4
      vertex -15.25 2.77128 3.4
    endloop
  endfacet
  facet normal -0.900969 -0.433884 0
    outer loop
      vertex -15.6458 1.51 3.4
      vertex -14.9186 0 0
      vertex -14.9186 0 3.4
    endloop
  endfacet
  facet normal 0 0 1
    outer loop
      vertex -15.6458 1.51 3.4
      vertex -14.9186 0 3.4
      vertex -13.65 0 3.4
    endloop
  endfacet
  facet normal 0 0 -1
    outer loop
      vertex -16.7268 -5.09851 0
      vertex -1.59899 -3.86031 0
      vertex 0 -4.17836 0
    endloop
  endfacet
  facet normal 0 0 -1
    outer loop
      vertex -16.7268 -5.09851 0
      vertex 0 -4.17836 0
      vertex 16.9732 -5.09851 0
    endloop
  endfacet
  facet normal 0 -1 0
    outer loop
      vertex -16.7268 -5.09851 0
      vertex 16.9732 -5.09851 0
      vertex -16.7268 -5.09851 6.4
    endloop
  endfacet
  facet normal 0 0 1
    outer loop
      vertex -16.7268 -5.09851 6.4
      vertex -12.5903 -4.6 6.4
      vertex -14.7258 -4.6 6.4
    endloop
  endfacet
  facet normal 0 -1 0
    outer loop
      vertex -16.7268 -5.09851 6.4
      vertex 16.9732 -5.09851 0
      vertex 16.9732 -5.09851 6.4
    endloop
  endfacet
  facet normal 0 0 1
    outer loop
      vertex -16.7268 -5.09851 6.4
      vertex 16.9732 -5.09851 6.4
      vertex -12.5903 -4.6 6.4
    endloop
  endfacet
  facet normal 0 0 -1
    outer loop
      vertex -16.7268 5.09851 0
      vertex -1.59899 3.86031 0
      vertex -15.6458 1.51 0
    endloop
  endfacet
  facet normal 0 1 0
    outer loop
      vertex -16.7268 5.09851 0
      vertex -16.7268 5.09851 6.4
      vertex 16.9732 5.09851 0
    endloop
  endfacet
  facet normal 0 0 -1
    outer loop
      vertex -16.7268 5.09851 0
      vertex 0 4.17836 0
      vertex -1.59899 3.86031 0
    endloop
  endfacet
  facet normal 0 0 -1
    outer loop
      vertex -16.7268 5.09851 0
      vertex 16.9732 5.09851 0
      vertex 0 4.17836 0
    endloop
  endfacet
  facet normal 0 0 1
    outer loop
      vertex -16.7268 5.09851 6.4
      vertex -5.52577 4.6 6.4
      vertex 16.9732 5.09851 6.4
    endloop
  endfacet
  facet normal 0 1 0
    outer loop
      vertex -16.7268 5.09851 6.4
      vertex 16.9732 5.09851 6.4
      vertex 16.9732 5.09851 0
    endloop
  endfacet
  facet normal -0.0241642 -0.999708 0
    outer loop
      vertex -17.2194 -5.0866 0
      vertex -16.7268 -5.09851 0
      vertex -17.2194 -5.0866 6.4
    endloop
  endfacet
  facet normal -0.0241642 -0.999708 0
    outer loop
      vertex -17.2194 -5.0866 6.4
      vertex -16.7268 -5.09851 0
      vertex -16.7268 -5.09851 6.4
    endloop
  endfacet
  facet normal -0.0241642 0.999708 0
    outer loop
      vertex -17.2194 5.0866 0
      vertex -17.2194 5.0866 6.4
      vertex -16.7268 5.09851 0
    endloop
  endfacet
  facet normal -0.0241642 0.999708 0
    outer loop
      vertex -17.2194 5.0866 6.4
      vertex -16.7268 5.09851 6.4
      vertex -16.7268 5.09851 0
    endloop
  endfacet
  facet normal 0 0 -1
    outer loop
      vertex -17.2798 -1.88294 0
      vertex -1.59899 -3.86031 0
      vertex -16.7268 -5.09851 0
    endloop
  endfacet
  facet normal 0 0 -1
    outer loop
      vertex -17.2798 -1.88294 0
      vertex -15.6458 -1.51 0
      vertex -2.95455 -2.95455 0
    endloop
  endfacet
  facet normal -0.222522 0.974928 0
    outer loop
      vertex -17.2798 -1.88294 0
      vertex -17.2798 -1.88294 3.4
      vertex -15.6458 -1.51 0
    endloop
  endfacet
  facet normal 0 0 -1
    outer loop
      vertex -17.2798 -1.88294 0
      vertex -2.95455 -2.95455 0
      vertex -1.59899 -3.86031 0
    endloop
  endfacet
  facet normal -0.222522 0.974928 0
    outer loop
      vertex -17.2798 -1.88294 3.4
      vertex -15.6458 -1.51 3.4
      vertex -15.6458 -1.51 0
    endloop
  endfacet
  facet normal -0.222522 -0.974928 0
    outer loop
      vertex -17.2798 1.88294 0
      vertex -15.6458 1.51 0
      vertex -17.2798 1.88294 3.4
    endloop
  endfacet
  facet normal 0 0 -1
    outer loop
      vertex -17.2798 1.88294 0
      vertex -16.7268 5.09851 0
      vertex -15.6458 1.51 0
    endloop
  endfacet
  facet normal -0.222522 -0.974928 0
    outer loop
      vertex -17.2798 1.88294 3.4
      vertex -15.6458 1.51 0
      vertex -15.6458 1.51 3.4
    endloop
  endfacet
  facet normal 0 0 1
    outer loop
      vertex -17.2798 1.88294 3.4
      vertex -15.6458 1.51 3.4
      vertex -15.25 2.77128 3.4
    endloop
  endfacet
  facet normal -0.120536 -0.992709 0
    outer loop
      vertex -17.7086 -5.0272 0
      vertex -17.2194 -5.0866 0
      vertex -17.7086 -5.0272 6.4
    endloop
  endfacet
  facet normal -0.120536 -0.992709 0
    outer loop
      vertex -17.7086 -5.0272 6.4
      vertex -17.2194 -5.0866 0
      vertex -17.2194 -5.0866 6.4
    endloop
  endfacet
  facet normal -0.120536 0.992709 0
    outer loop
      vertex -17.7086 5.0272 0
      vertex -17.7086 5.0272 6.4
      vertex -17.2194 5.0866 0
    endloop
  endfacet
  facet normal -0.120536 0.992709 0
    outer loop
      vertex -17.7086 5.0272 6.4
      vertex -17.2194 5.0866 6.4
      vertex -17.2194 5.0866 0
    endloop
  endfacet
  facet normal -0.215785 -0.976441 0
    outer loop
      vertex -18.1898 -4.92087 0
      vertex -17.7086 -5.0272 0
      vertex -18.1898 -4.92087 6.4
    endloop
  endfacet
  facet normal -0.215785 -0.976441 0
    outer loop
      vertex -18.1898 -4.92087 6.4
      vertex -17.7086 -5.0272 0
      vertex -17.7086 -5.0272 6.4
    endloop
  endfacet
  facet normal -0.215785 0.976441 0
    outer loop
      vertex -18.1898 4.92087 0
      vertex -18.1898 4.92087 6.4
      vertex -17.7086 5.0272 0
    endloop
  endfacet
  facet normal -0.215785 0.976441 0
    outer loop
      vertex -18.1898 4.92087 6.4
      vertex -17.7086 5.0272 6.4
      vertex -17.7086 5.0272 0
    endloop
  endfacet
  facet normal 0 0 1
    outer loop
      vertex -18.45 -2.77128 3.4
      vertex -15.25 -2.77128 3.4
      vertex -15.6458 -1.51 3.4
    endloop
  endfacet
  facet normal 0 0 1
    outer loop
      vertex -18.45 -2.77128 3.4
      vertex -15.6458 -1.51 3.4
      vertex -17.2798 -1.88294 3.4
    endloop
  endfacet
  facet normal 0 1 0
    outer loop
      vertex -18.45 -2.77128 3.4
      vertex -18.45 -2.77128 6.4
      vertex -15.25 -2.77128 3.4
    endloop
  endfacet
  facet normal 0 0 1
    outer loop
      vertex -18.45 -2.77128 6.4
      vertex -14.7258 -4.6 6.4
      vertex -15.25 -2.77128 6.4
    endloop
  endfacet
  facet normal 0 1 0
    outer loop
      vertex -18.45 -2.77128 6.4
      vertex -15.25 -2.77128 6.4
      vertex -15.25 -2.77128 3.4
    endloop
  endfacet
  facet normal 0 0 1
    outer loop
      vertex -18.45 -2.77128 6.4
      vertex -16.7268 -5.09851 6.4
      vertex -14.7258 -4.6 6.4
    endloop
  endfacet
  facet normal 0 -1 0
    outer loop
      vertex -18.45 2.77128 3.4
      vertex -15.25 2.77128 3.4
      vertex -18.45 2.77128 6.4
    endloop
  endfacet
  facet normal 0 0 1
    outer loop
      vertex -18.45 2.77128 3.4
      vertex -17.2798 1.88294 3.4
      vertex -15.25 2.77128 3.4
    endloop
  endfacet
  facet normal 0 -1 0
    outer loop
      vertex -18.45 2.77128 6.4
      vertex -15.25 2.77128 3.4
      vertex -15.25 2.77128 6.4
    endloop
  endfacet
  facet normal 0 0 1
    outer loop
      vertex -18.45 2.77128 6.4
      vertex -15.25 2.77128 6.4
      vertex -5.52577 4.6 6.4
    endloop
  endfacet
  facet normal 0 0 1
    outer loop
      vertex -18.45 2.77128 6.4
      vertex -5.52577 4.6 6.4
      vertex -16.7268 5.09851 6.4
    endloop
  endfacet
  facet normal 0.62349 0.781831 0
    outer loop
      vertex -18.5901 -0.837986 0
      vertex -18.5901 -0.837986 3.4
      vertex -17.2798 -1.88294 0
    endloop
  endfacet
  facet normal 1 0 0
    outer loop
      vertex -18.5901 -0.837986 0
      vertex -18.5901 0.837986 0
      vertex -18.5901 -0.837986 3.4
    endloop
  endfacet
  facet normal 0.62349 0.781831 0
    outer loop
      vertex -18.5901 -0.837986 3.4
      vertex -17.2798 -1.88294 3.4
      vertex -17.2798 -1.88294 0
    endloop
  endfacet
  facet normal 0 0 1
    outer loop
      vertex -18.5901 -0.837986 3.4
      vertex -18.45 -2.77128 3.4
      vertex -17.2798 -1.88294 3.4
    endloop
  endfacet
  facet normal 1 0 0
    outer loop
      vertex -18.5901 -0.837986 3.4
      vertex -18.5901 0.837986 0
      vertex -18.5901 0.837986 3.4
    endloop
  endfacet
  facet normal 0 0 -1
    outer loop
      vertex -18.5901 0.837986 0
      vertex -16.7268 5.09851 0
      vertex -17.2798 1.88294 0
    endloop
  endfacet
  facet normal 0.62349 -0.781831 0
    outer loop
      vertex -18.5901 0.837986 0
      vertex -17.2798 1.88294 0
      vertex -18.5901 0.837986 3.4
    endloop
  endfacet
  facet normal 0.62349 -0.781831 0
    outer loop
      vertex -18.5901 0.837986 3.4
      vertex -17.2798 1.88294 0
      vertex -17.2798 1.88294 3.4
    endloop
  endfacet
  facet normal 0 0 1
    outer loop
      vertex -18.5901 0.837986 3.4
      vertex -17.2798 1.88294 3.4
      vertex -18.45 2.77128 3.4
    endloop
  endfacet
  facet normal -0.309016 -0.951057 0
    outer loop
      vertex -18.6585 -4.76858 0
      vertex -18.1898 -4.92087 0
      vertex -18.6585 -4.76858 6.4
    endloop
  endfacet
  facet normal -0.309016 -0.951057 0
    outer loop
      vertex -18.6585 -4.76858 6.4
      vertex -18.1898 -4.92087 0
      vertex -18.1898 -4.92087 6.4
    endloop
  endfacet
  facet normal -0.309016 0.951057 0
    outer loop
      vertex -18.6585 4.76858 0
      vertex -18.6585 4.76858 6.4
      vertex -18.1898 4.92087 0
    endloop
  endfacet
  facet normal -0.309016 0.951057 0
    outer loop
      vertex -18.6585 4.76858 6.4
      vertex -18.1898 4.92087 6.4
      vertex -18.1898 4.92087 0
    endloop
  endfacet
  facet normal -0.399365 -0.916792 0
    outer loop
      vertex -19.1103 -4.57178 0
      vertex -18.6585 -4.76858 0
      vertex -19.1103 -4.57178 6.4
    endloop
  endfacet
  facet normal -0.399365 -0.916792 0
    outer loop
      vertex -19.1103 -4.57178 6.4
      vertex -18.6585 -4.76858 0
      vertex -18.6585 -4.76858 6.4
    endloop
  endfacet
  facet normal -0.399365 0.916792 0
    outer loop
      vertex -19.1103 4.57178 0
      vertex -19.1103 4.57178 6.4
      vertex -18.6585 4.76858 0
    endloop
  endfacet
  facet normal -0.399365 0.916792 0
    outer loop
      vertex -19.1103 4.57178 6.4
      vertex -18.6585 4.76858 6.4
      vertex -18.6585 4.76858 0
    endloop
  endfacet
  facet normal -0.485984 -0.873968 0
    outer loop
      vertex -19.541 -4.33229 0
      vertex -19.1103 -4.57178 0
      vertex -19.541 -4.33229 6.4
    endloop
  endfacet
  facet normal -0.485984 -0.873968 0
    outer loop
      vertex -19.541 -4.33229 6.4
      vertex -19.1103 -4.57178 0
      vertex -19.1103 -4.57178 6.4
    endloop
  endfacet
  facet normal -0.485984 0.873968 0
    outer loop
      vertex -19.541 4.33229 0
      vertex -19.541 4.33229 6.4
      vertex -19.1103 4.57178 0
    endloop
  endfacet
  facet normal -0.485984 0.873968 0
    outer loop
      vertex -19.541 4.33229 6.4
      vertex -19.1103 4.57178 6.4
      vertex -19.1103 4.57178 0
    endloop
  endfacet
  facet normal -0.568064 -0.822984 0
    outer loop
      vertex -19.9465 -4.05235 0
      vertex -19.541 -4.33229 0
      vertex -19.9465 -4.05235 6.4
    endloop
  endfacet
  facet normal -0.568064 -0.822984 0
    outer loop
      vertex -19.9465 -4.05235 6.4
      vertex -19.541 -4.33229 0
      vertex -19.541 -4.33229 6.4
    endloop
  endfacet
  facet normal -0.568064 0.822984 0
    outer loop
      vertex -19.9465 4.05235 0
      vertex -19.9465 4.05235 6.4
      vertex -19.541 4.33229 0
    endloop
  endfacet
  facet normal -0.568064 0.822984 0
    outer loop
      vertex -19.9465 4.05235 6.4
      vertex -19.541 4.33229 6.4
      vertex -19.541 4.33229 0
    endloop
  endfacet
  facet normal -0.62349 -0.781832 0
    outer loop
      vertex -2.28068 -1.09832 0
      vertex -0.563281 -2.46789 0
      vertex -2.28068 -1.09832 4
    endloop
  endfacet
  facet normal 0 0 -1
    outer loop
      vertex -2.28068 -1.09832 0
      vertex -1.7401 -0.837986 0
      vertex -0.563281 -2.46789 0
    endloop
  endfacet
  facet normal -1 0 0
    outer loop
      vertex -2.28068 -1.09832 0
      vertex -2.28068 -1.09832 4
      vertex -2.28068 1.09832 0
    endloop
  endfacet
  facet normal 0 0 -1
    outer loop
      vertex -2.28068 -1.09832 0
      vertex -2.28068 1.09832 0
      vertex -1.7401 -0.837986 0
    endloop
  endfacet
  facet normal -0.62349 -0.781832 0
    outer loop
      vertex -2.28068 -1.09832 4
      vertex -0.563281 -2.46789 0
      vertex -0.563281 -2.46789 4
    endloop
  endfacet
  facet normal 0 0 -1
    outer loop
      vertex -2.28068 -1.09832 4
      vertex -0.563281 -2.46789 4
      vertex 0 -4.17836 4
    endloop
  endfacet
  facet normal -1 0 0
    outer loop
      vertex -2.28068 -1.09832 4
      vertex -2.28068 1.09832 4
      vertex -2.28068 1.09832 0
    endloop
  endfacet
  facet normal 0 0 -1
    outer loop
      vertex -2.28068 -1.09832 4
      vertex 0 -4.17836 4
      vertex -1.59899 -3.86031 4
    endloop
  endfacet
  facet normal 0 0 -1
    outer loop
      vertex -2.28068 1.09832 0
      vertex -0.563281 2.46789 0
      vertex -1.7401 0.837986 0
    endloop
  endfacet
  facet normal 0 0 -1
    outer loop
      vertex -2.28068 1.09832 0
      vertex -1.7401 0.837986 0
      vertex -1.7401 -0.837986 0
    endloop
  endfacet
  facet normal -0.62349 0.781832 0
    outer loop
      vertex -2.28068 1.09832 0
      vertex -2.28068 1.09832 4
      vertex -0.563281 2.46789 0
    endloop
  endfacet
  facet normal -0.62349 0.781832 0
    outer loop
      vertex -2.28068 1.09832 4
      vertex -0.563281 2.46789 4
      vertex -0.563281 2.46789 0
    endloop
  endfacet
  facet normal 0.55557 0.831469 0
    outer loop
      vertex -2.95455 -2.95455 0
      vertex -2.95455 -2.95455 4
      vertex -1.59899 -3.86031 0
    endloop
  endfacet
  facet normal 0.55557 0.831469 0
    outer loop
      vertex -2.95455 -2.95455 4
      vertex -1.59899 -3.86031 4
      vertex -1.59899 -3.86031 0
    endloop
  endfacet
  facet normal 0.55557 -0.831469 0
    outer loop
      vertex -2.95455 2.95455 0
      vertex -1.59899 3.86031 0
      vertex -2.95455 2.95455 4
    endloop
  endfacet
  facet normal 0.55557 -0.831469 0
    outer loop
      vertex -2.95455 2.95455 4
      vertex -1.59899 3.86031 0
      vertex -1.59899 3.86031 4
    endloop
  endfacet
  facet normal 0 0 1
    outer loop
      vertex -20.05 0 3.4
      vertex -18.45 -2.77128 3.4
      vertex -18.5901 -0.837986 3.4
    endloop
  endfacet
  facet normal 0.866025 -0.5 0
    outer loop
      vertex -20.05 0 3.4
      vertex -18.45 2.77128 3.4
      vertex -20.05 0 6.4
    endloop
  endfacet
  facet normal 0 0 1
    outer loop
      vertex -20.05 0 3.4
      vertex -18.5901 -0.837986 3.4
      vertex -18.5901 0.837986 3.4
    endloop
  endfacet
  facet normal 0 0 1
    outer loop
      vertex -20.05 0 3.4
      vertex -18.5901 0.837986 3.4
      vertex -18.45 2.77128 3.4
    endloop
  endfacet
  facet normal 0.866025 0.5 0
    outer loop
      vertex -20.05 0 3.4
      vertex -20.05 0 6.4
      vertex -18.45 -2.77128 3.4
    endloop
  endfacet
  facet normal 0.866025 0.5 0
    outer loop
      vertex -20.05 0 6.4
      vertex -18.45 -2.77128 6.4
      vertex -18.45 -2.77128 3.4
    endloop
  endfacet
  facet normal 0.866025 -0.5 0
    outer loop
      vertex -20.05 0 6.4
      vertex -18.45 2.77128 3.4
      vertex -18.45 2.77128 6.4
    endloop
  endfacet
  facet normal -0.644842 -0.764316 0
    outer loop
      vertex -20.3232 -3.73457 0
      vertex -19.9465 -4.05235 0
      vertex -20.3232 -3.73457 6.4
    endloop
  endfacet
  facet normal -0.644842 -0.764316 0
    outer loop
      vertex -20.3232 -3.73457 6.4
      vertex -19.9465 -4.05235 0
      vertex -19.9465 -4.05235 6.4
    endloop
  endfacet
  facet normal -0.644842 0.764316 0
    outer loop
      vertex -20.3232 3.73457 0
      vertex -20.3232 3.73457 6.4
      vertex -19.9465 4.05235 0
    endloop
  endfacet
  facet normal -0.644842 0.764316 0
    outer loop
      vertex -20.3232 3.73457 6.4
      vertex -19.9465 4.05235 6.4
      vertex -19.9465 4.05235 0
    endloop
  endfacet
  facet normal -0.715598 -0.698512 0
    outer loop
      vertex -20.6674 -3.38193 0
      vertex -20.3232 -3.73457 0
      vertex -20.6674 -3.38193 6.4
    endloop
  endfacet
  facet normal -0.715598 -0.698512 0
    outer loop
      vertex -20.6674 -3.38193 6.4
      vertex -20.3232 -3.73457 0
      vertex -20.3232 -3.73457 6.4
    endloop
  endfacet
  facet normal -0.715598 0.698512 0
    outer loop
      vertex -20.6674 3.38193 0
      vertex -20.6674 3.38193 6.4
      vertex -20.3232 3.73457 0
    endloop
  endfacet
  facet normal -0.715598 0.698512 0
    outer loop
      vertex -20.6674 3.38193 6.4
      vertex -20.3232 3.73457 6.4
      vertex -20.3232 3.73457 0
    endloop
  endfacet
  facet normal -0.779674 -0.626185 0
    outer loop
      vertex -20.976 -2.9977 0
      vertex -20.6674 -3.38193 0
      vertex -20.976 -2.9977 6.4
    endloop
  endfacet
  facet normal -0.779674 -0.626185 0
    outer loop
      vertex -20.976 -2.9977 6.4
      vertex -20.6674 -3.38193 0
      vertex -20.6674 -3.38193 6.4
    endloop
  endfacet
  facet normal -0.779674 0.626185 0
    outer loop
      vertex -20.976 2.9977 0
      vertex -20.976 2.9977 6.4
      vertex -20.6674 3.38193 0
    endloop
  endfacet
  facet normal -0.779674 0.626185 0
    outer loop
      vertex -20.976 2.9977 6.4
      vertex -20.6674 3.38193 6.4
      vertex -20.6674 3.38193 0
    endloop
  endfacet
  facet normal -0.836471 -0.548011 0
    outer loop
      vertex -21.246 -2.58549 0
      vertex -20.976 -2.9977 0
      vertex -21.246 -2.58549 6.4
    endloop
  endfacet
  facet normal -0.836471 -0.548011 0
    outer loop
      vertex -21.246 -2.58549 6.4
      vertex -20.976 -2.9977 0
      vertex -20.976 -2.9977 6.4
    endloop
  endfacet
  facet normal -0.836471 0.548011 0
    outer loop
      vertex -21.246 2.58549 0
      vertex -21.246 2.58549 6.4
      vertex -20.976 2.9977 0
    endloop
  endfacet
  facet normal -0.836471 0.548011 0
    outer loop
      vertex -21.246 2.58549 6.4
      vertex -20.976 2.9977 6.4
      vertex -20.976 2.9977 0
    endloop
  endfacet
  facet normal -0.885456 -0.464724 0
    outer loop
      vertex -21.4751 -2.14915 0
      vertex -21.246 -2.58549 0
      vertex -21.4751 -2.14915 6.4
    endloop
  endfacet
  facet normal -0.885456 -0.464724 0
    outer loop
      vertex -21.4751 -2.14915 6.4
      vertex -21.246 -2.58549 0
      vertex -21.246 -2.58549 6.4
    endloop
  endfacet
  facet normal -0.885456 0.464724 0
    outer loop
      vertex -21.4751 2.14915 0
      vertex -21.4751 2.14915 6.4
      vertex -21.246 2.58549 0
    endloop
  endfacet
  facet normal -0.885456 0.464724 0
    outer loop
      vertex -21.4751 2.14915 6.4
      vertex -21.246 2.58549 6.4
      vertex -21.246 2.58549 0
    endloop
  endfacet
  facet normal -0.926175 -0.377095 0
    outer loop
      vertex -21.6609 -1.69273 0
      vertex -21.4751 -2.14915 0
      vertex -21.6609 -1.69273 6.4
    endloop
  endfacet
  facet normal -0.926175 -0.377095 0
    outer loop
      vertex -21.6609 -1.69273 6.4
      vertex -21.4751 -2.14915 0
      vertex -21.4751 -2.14915 6.4
    endloop
  endfacet
  facet normal -0.926175 0.377095 0
    outer loop
      vertex -21.6609 1.69273 0
      vertex -21.6609 1.69273 6.4
      vertex -21.4751 2.14915 0
    endloop
  endfacet
  facet normal -0.926175 0.377095 0
    outer loop
      vertex -21.6609 1.69273 6.4
      vertex -21.4751 2.14915 6.4
      vertex -21.4751 2.14915 0
    endloop
  endfacet
  facet normal -0.958246 -0.285946 0
    outer loop
      vertex -21.8018 -1.22051 0
      vertex -21.6609 -1.69273 0
      vertex -21.8018 -1.22051 6.4
    endloop
  endfacet
  facet normal -0.958246 -0.285946 0
    outer loop
      vertex -21.8018 -1.22051 6.4
      vertex -21.6609 -1.69273 0
      vertex -21.6609 -1.69273 6.4
    endloop
  endfacet
  facet normal -0.958246 0.285946 0
    outer loop
      vertex -21.8018 1.22051 0
      vertex -21.8018 1.22051 6.4
      vertex -21.6609 1.69273 0
    endloop
  endfacet
  facet normal -0.958246 0.285946 0
    outer loop
      vertex -21.8018 1.22051 6.4
      vertex -21.6609 1.69273 6.4
      vertex -21.6609 1.69273 0
    endloop
  endfacet
  facet normal 0 0 -1
    outer loop
      vertex -21.8965 -0.736894 0
      vertex -16.7268 -5.09851 0
      vertex -17.2194 -5.0866 0
    endloop
  endfacet
  facet normal 0 0 -1
    outer loop
      vertex -21.8965 -0.736894 0
      vertex -16.7268 5.09851 0
      vertex -18.5901 0.837986 0
    endloop
  endfacet
  facet normal 0 0 -1
    outer loop
      vertex -21.8965 -0.736894 0
      vertex -17.2194 -5.0866 0
      vertex -17.7086 -5.0272 0
    endloop
  endfacet
  facet normal 0 0 -1
    outer loop
      vertex -21.8965 -0.736894 0
      vertex -17.2194 5.0866 0
      vertex -16.7268 5.09851 0
    endloop
  endfacet
  facet normal 0 0 -1
    outer loop
      vertex -21.8965 -0.736894 0
      vertex -17.2798 -1.88294 0
      vertex -16.7268 -5.09851 0
    endloop
  endfacet
  facet normal 0 0 -1
    outer loop
      vertex -21.8965 -0.736894 0
      vertex -17.7086 -5.0272 0
      vertex -18.1898 -4.92087 0
    endloop
  endfacet
  facet normal 0 0 -1
    outer loop
      vertex -21.8965 -0.736894 0
      vertex -17.7086 5.0272 0
      vertex -17.2194 5.0866 0
    endloop
  endfacet
  facet normal 0 0 -1
    outer loop
      vertex -21.8965 -0.736894 0
      vertex -18.1898 -4.92087 0
      vertex -18.6585 -4.76858 0
    endloop
  endfacet
  facet normal 0 0 -1
    outer loop
      vertex -21.8965 -0.736894 0
      vertex -18.1898 4.92087 0
      vertex -17.7086 5.0272 0
    endloop
  endfacet
  facet normal 0 0 -1
    outer loop
      vertex -21.8965 -0.736894 0
      vertex -18.5901 -0.837986 0
      vertex -17.2798 -1.88294 0
    endloop
  endfacet
  facet normal 0 0 -1
    outer loop
      vertex -21.8965 -0.736894 0
      vertex -18.5901 0.837986 0
      vertex -18.5901 -0.837986 0
    endloop
  endfacet
  facet normal 0 0 -1
    outer loop
      vertex -21.8965 -0.736894 0
      vertex -18.6585 -4.76858 0
      vertex -19.1103 -4.57178 0
    endloop
  endfacet
  facet normal 0 0 -1
    outer loop
      vertex -21.8965 -0.736894 0
      vertex -18.6585 4.76858 0
      vertex -18.1898 4.92087 0
    endloop
  endfacet
  facet normal 0 0 -1
    outer loop
      vertex -21.8965 -0.736894 0
      vertex -19.1103 -4.57178 0
      vertex -19.541 -4.33229 0
    endloop
  endfacet
  facet normal 0 0 -1
    outer loop
      vertex -21.8965 -0.736894 0
      vertex -19.1103 4.57178 0
      vertex -18.6585 4.76858 0
    endloop
  endfacet
  facet normal 0 0 -1
    outer loop
      vertex -21.8965 -0.736894 0
      vertex -19.541 -4.33229 0
      vertex -19.9465 -4.05235 0
    endloop
  endfacet
  facet normal 0 0 -1
    outer loop
      vertex -21.8965 -0.736894 0
      vertex -19.541 4.33229 0
      vertex -19.1103 4.57178 0
    endloop
  endfacet
  facet normal 0 0 -1
    outer loop
      vertex -21.8965 -0.736894 0
      vertex -19.9465 -4.05235 0
      vertex -20.3232 -3.73457 0
    endloop
  endfacet
  facet normal 0 0 -1
    outer loop
      vertex -21.8965 -0.736894 0
      vertex -19.9465 4.05235 0
      vertex -19.541 4.33229 0
    endloop
  endfacet
  facet normal 0 0 -1
    outer loop
      vertex -21.8965 -0.736894 0
      vertex -20.3232 -3.73457 0
      vertex -20.6674 -3.38193 0
    endloop
  endfacet
  facet normal 0 0 -1
    outer loop
      vertex -21.8965 -0.736894 0
      vertex -20.3232 3.73457 0
      vertex -19.9465 4.05235 0
    endloop
  endfacet
  facet normal 0 0 -1
    outer loop
      vertex -21.8965 -0.736894 0
      vertex -20.6674 -3.38193 0
      vertex -20.976 -2.9977 0
    endloop
  endfacet
  facet normal 0 0 -1
    outer loop
      vertex -21.8965 -0.736894 0
      vertex -20.6674 3.38193 0
      vertex -20.3232 3.73457 0
    endloop
  endfacet
  facet normal 0 0 -1
    outer loop
      vertex -21.8965 -0.736894 0
      vertex -20.976 -2.9977 0
      vertex -21.246 -2.58549 0
    endloop
  endfacet
  facet normal 0 0 -1
    outer loop
      vertex -21.8965 -0.736894 0
      vertex -20.976 2.9977 0
      vertex -20.6674 3.38193 0
    endloop
  endfacet
  facet normal 0 0 -1
    outer loop
      vertex -21.8965 -0.736894 0
      vertex -21.246 -2.58549 0
      vertex -21.4751 -2.14915 0
    endloop
  endfacet
  facet normal 0 0 -1
    outer loop
      vertex -21.8965 -0.736894 0
      vertex -21.246 2.58549 0
      vertex -20.976 2.9977 0
    endloop
  endfacet
  facet normal 0 0 -1
    outer loop
      vertex -21.8965 -0.736894 0
      vertex -21.4751 -2.14915 0
      vertex -21.6609 -1.69273 0
    endloop
  endfacet
  facet normal 0 0 -1
    outer loop
      vertex -21.8965 -0.736894 0
      vertex -21.4751 2.14915 0
      vertex -21.246 2.58549 0
    endloop
  endfacet
  facet normal 0 0 -1
    outer loop
      vertex -21.8965 -0.736894 0
      vertex -21.6609 -1.69273 0
      vertex -21.8018 -1.22051 0
    endloop
  endfacet
  facet normal 0 0 -1
    outer loop
      vertex -21.8965 -0.736894 0
      vertex -21.6609 1.69273 0
      vertex -21.4751 2.14915 0
    endloop
  endfacet
  facet normal -0.98137 -0.192128 0
    outer loop
      vertex -21.8965 -0.736894 0
      vertex -21.8018 -1.22051 0
      vertex -21.8965 -0.736894 6.4
    endloop
  endfacet
  facet normal 0 0 -1
    outer loop
      vertex -21.8965 -0.736894 0
      vertex -21.8018 1.22051 0
      vertex -21.6609 1.69273 0
    endloop
  endfacet
  facet normal 0 0 -1
    outer loop
      vertex -21.8965 -0.736894 0
      vertex -21.8965 0.736894 0
      vertex -21.8018 1.22051 0
    endloop
  endfacet
  facet normal -0.98137 -0.192128 0
    outer loop
      vertex -21.8965 -0.736894 6.4
      vertex -21.8018 -1.22051 0
      vertex -21.8018 -1.22051 6.4
    endloop
  endfacet
  facet normal -0.98137 0.192128 0
    outer loop
      vertex -21.8965 0.736894 0
      vertex -21.8965 0.736894 6.4
      vertex -21.8018 1.22051 0
    endloop
  endfacet
  facet normal -0.98137 0.192128 0
    outer loop
      vertex -21.8965 0.736894 6.4
      vertex -21.8018 1.22051 6.4
      vertex -21.8018 1.22051 0
    endloop
  endfacet
  facet normal -0.995332 -0.0965125 0
    outer loop
      vertex -21.944 -0.246398 0
      vertex -21.8965 -0.736894 0
      vertex -21.944 -0.246398 6.4
    endloop
  endfacet
  facet normal -1 0 0
    outer loop
      vertex -21.944 -0.246398 0
      vertex -21.944 -0.246398 6.4
      vertex -21.944 0.246398 0
    endloop
  endfacet
  facet normal 0 0 -1
    outer loop
      vertex -21.944 -0.246398 0
      vertex -21.944 0.246398 0
      vertex -21.8965 -0.736894 0
    endloop
  endfacet
  facet normal -0.995332 -0.0965125 0
    outer loop
      vertex -21.944 -0.246398 6.4
      vertex -21.8965 -0.736894 0
      vertex -21.8965 -0.736894 6.4
    endloop
  endfacet
  facet normal 0 0 1
    outer loop
      vertex -21.944 -0.246398 6.4
      vertex -21.8965 -0.736894 6.4
      vertex -21.944 0.246398 6.4
    endloop
  endfacet
  facet normal -1 0 0
    outer loop
      vertex -21.944 -0.246398 6.4
      vertex -21.944 0.246398 6.4
      vertex -21.944 0.246398 0
    endloop
  endfacet
  facet normal 0 0 -1
    outer loop
      vertex -21.944 0.246398 0
      vertex -21.8965 0.736894 0
      vertex -21.8965 -0.736894 0
    endloop
  endfacet
  facet normal -0.995332 0.0965125 0
    outer loop
      vertex -21.944 0.246398 0
      vertex -21.944 0.246398 6.4
      vertex -21.8965 0.736894 0
    endloop
  endfacet
  facet normal 0 0 1
    outer loop
      vertex -21.944 0.246398 6.4
      vertex -16.7268 -5.09851 6.4
      vertex -18.45 -2.77128 6.4
    endloop
  endfacet
  facet normal 0 0 1
    outer loop
      vertex -21.944 0.246398 6.4
      vertex -16.7268 5.09851 6.4
      vertex -17.2194 5.0866 6.4
    endloop
  endfacet
  facet normal 0 0 1
    outer loop
      vertex -21.944 0.246398 6.4
      vertex -17.2194 -5.0866 6.4
      vertex -16.7268 -5.09851 6.4
    endloop
  endfacet
  facet normal 0 0 1
    outer loop
      vertex -21.944 0.246398 6.4
      vertex -17.2194 5.0866 6.4
      vertex -17.7086 5.0272 6.4
    endloop
  endfacet
  facet normal 0 0 1
    outer loop
      vertex -21.944 0.246398 6.4
      vertex -17.7086 -5.0272 6.4
      vertex -17.2194 -5.0866 6.4
    endloop
  endfacet
  facet normal 0 0 1
    outer loop
      vertex -21.944 0.246398 6.4
      vertex -17.7086 5.0272 6.4
      vertex -18.1898 4.92087 6.4
    endloop
  endfacet
  facet normal 0 0 1
    outer loop
      vertex -21.944 0.246398 6.4
      vertex -18.1898 -4.92087 6.4
      vertex -17.7086 -5.0272 6.4
    endloop
  endfacet
  facet normal 0 0 1
    outer loop
      vertex -21.944 0.246398 6.4
      vertex -18.1898 4.92087 6.4
      vertex -18.6585 4.76858 6.4
    endloop
  endfacet
  facet normal 0 0 1
    outer loop
      vertex -21.944 0.246398 6.4
      vertex -18.45 -2.77128 6.4
      vertex -20.05 0 6.4
    endloop
  endfacet
  facet normal 0 0 1
    outer loop
      vertex -21.944 0.246398 6.4
      vertex -18.45 2.77128 6.4
      vertex -16.7268 5.09851 6.4
    endloop
  endfacet
  facet normal 0 0 1
    outer loop
      vertex -21.944 0.246398 6.4
      vertex -18.6585 -4.76858 6.4
      vertex -18.1898 -4.92087 6.4
    endloop
  endfacet
  facet normal 0 0 1
    outer loop
      vertex -21.944 0.246398 6.4
      vertex -18.6585 4.76858 6.4
      vertex -19.1103 4.57178 6.4
    endloop
  endfacet
  facet normal 0 0 1
    outer loop
      vertex -21.944 0.246398 6.4
      vertex -19.1103 -4.57178 6.4
      vertex -18.6585 -4.76858 6.4
    endloop
  endfacet
  facet normal 0 0 1
    outer loop
      vertex -21.944 0.246398 6.4
      vertex -19.1103 4.57178 6.4
      vertex -19.541 4.33229 6.4
    endloop
  endfacet
  facet normal 0 0 1
    outer loop
      vertex -21.944 0.246398 6.4
      vertex -19.541 -4.33229 6.4
      vertex -19.1103 -4.57178 6.4
    endloop
  endfacet
  facet normal 0 0 1
    outer loop
      vertex -21.944 0.246398 6.4
      vertex -19.541 4.33229 6.4
      vertex -19.9465 4.05235 6.4
    endloop
  endfacet
  facet normal 0 0 1
    outer loop
      vertex -21.944 0.246398 6.4
      vertex -19.9465 -4.05235 6.4
      vertex -19.541 -4.33229 6.4
    endloop
  endfacet
  facet normal 0 0 1
    outer loop
      vertex -21.944 0.246398 6.4
      vertex -19.9465 4.05235 6.4
      vertex -20.3232 3.73457 6.4
    endloop
  endfacet
  facet normal 0 0 1
    outer loop
      vertex -21.944 0.246398 6.4
      vertex -20.05 0 6.4
      vertex -18.45 2.77128 6.4
    endloop
  endfacet
  facet normal 0 0 1
    outer loop
      vertex -21.944 0.246398 6.4
      vertex -20.3232 -3.73457 6.4
      vertex -19.9465 -4.05235 6.4
    endloop
  endfacet
  facet normal 0 0 1
    outer loop
      vertex -21.944 0.246398 6.4
      vertex -20.3232 3.73457 6.4
      vertex -20.6674 3.38193 6.4
    endloop
  endfacet
  facet normal 0 0 1
    outer loop
      vertex -21.944 0.246398 6.4
      vertex -20.6674 -3.38193 6.4
      vertex -20.3232 -3.73457 6.4
    endloop
  endfacet
  facet normal 0 0 1
    outer loop
      vertex -21.944 0.246398 6.4
      vertex -20.6674 3.38193 6.4
      vertex -20.976 2.9977 6.4
    endloop
  endfacet
  facet normal 0 0 1
    outer loop
      vertex -21.944 0.246398 6.4
      vertex -20.976 -2.9977 6.4
      vertex -20.6674 -3.38193 6.4
    endloop
  endfacet
  facet normal 0 0 1
    outer loop
      vertex -21.944 0.246398 6.4
      vertex -20.976 2.9977 6.4
      vertex -21.246 2.58549 6.4
    endloop
  endfacet
  facet normal 0 0 1
    outer loop
      vertex -21.944 0.246398 6.4
      vertex -21.246 -2.58549 6.4
      vertex -20.976 -2.9977 6.4
    endloop
  endfacet
  facet normal 0 0 1
    outer loop
      vertex -21.944 0.246398 6.4
      vertex -21.246 2.58549 6.4
      vertex -21.4751 2.14915 6.4
    endloop
  endfacet
  facet normal 0 0 1
    outer loop
      vertex -21.944 0.246398 6.4
      vertex -21.4751 -2.14915 6.4
      vertex -21.246 -2.58549 6.4
    endloop
  endfacet
  facet normal 0 0 1
    outer loop
      vertex -21.944 0.246398 6.4
      vertex -21.4751 2.14915 6.4
      vertex -21.6609 1.69273 6.4
    endloop
  endfacet
  facet normal 0 0 1
    outer loop
      vertex -21.944 0.246398 6.4
      vertex -21.6609 -1.69273 6.4
      vertex -21.4751 -2.14915 6.4
    endloop
  endfacet
  facet normal 0 0 1
    outer loop
      vertex -21.944 0.246398 6.4
      vertex -21.6609 1.69273 6.4
      vertex -21.8018 1.22051 6.4
    endloop
  endfacet
  facet normal 0 0 1
    outer loop
      vertex -21.944 0.246398 6.4
      vertex -21.8018 -1.22051 6.4
      vertex -21.6609 -1.69273 6.4
    endloop
  endfacet
  facet normal 0 0 1
    outer loop
      vertex -21.944 0.246398 6.4
      vertex -21.8018 1.22051 6.4
      vertex -21.8965 0.736894 6.4
    endloop
  endfacet
  facet normal 0 0 1
    outer loop
      vertex -21.944 0.246398 6.4
      vertex -21.8965 -0.736894 6.4
      vertex -21.8018 -1.22051 6.4
    endloop
  endfacet
  facet normal -0.995332 0.0965125 0
    outer loop
      vertex -21.944 0.246398 6.4
      vertex -21.8965 0.736894 6.4
      vertex -21.8965 0.736894 0
    endloop
  endfacet
  facet normal 0 0 1
    outer loop
      vertex -3.39031 4.6 6.4
      vertex -0.429768 1.88294 6.4
      vertex 1.20418 1.51 6.4
    endloop
  endfacet
  facet normal 0 0 1
    outer loop
      vertex -3.39031 4.6 6.4
      vertex -1.7401 -0.837986 6.4
      vertex -1.7401 0.837986 6.4
    endloop
  endfacet
  facet normal 0 0 1
    outer loop
      vertex -3.39031 4.6 6.4
      vertex -1.7401 0.837986 6.4
      vertex -0.429768 1.88294 6.4
    endloop
  endfacet
  facet normal 0 0 1
    outer loop
      vertex -3.39031 4.6 6.4
      vertex 1.20418 1.51 6.4
      vertex 12.5903 -4.6 6.4
    endloop
  endfacet
  facet normal 0 0 1
    outer loop
      vertex -3.39031 4.6 6.4
      vertex 12.5903 -4.6 6.4
      vertex 3.39031 4.6 6.4
    endloop
  endfacet
  facet normal 0 0 1
    outer loop
      vertex -3.39031 4.6 6.4
      vertex 3.39031 4.6 6.4
      vertex 16.9732 5.09851 6.4
    endloop
  endfacet
  facet normal 0.831469 0.55557 0
    outer loop
      vertex -3.86031 -1.59899 0
      vertex -3.86031 -1.59899 4
      vertex -2.95455 -2.95455 0
    endloop
  endfacet
  facet normal 0.831469 0.55557 0
    outer loop
      vertex -3.86031 -1.59899 4
      vertex -2.95455 -2.95455 4
      vertex -2.95455 -2.95455 0
    endloop
  endfacet
  facet normal 0 0 -1
    outer loop
      vertex -3.86031 -1.59899 4
      vertex -3.86031 1.59899 4
      vertex -2.95455 -2.95455 4
    endloop
  endfacet
  facet normal 0.831469 -0.55557 0
    outer loop
      vertex -3.86031 1.59899 0
      vertex -2.95455 2.95455 0
      vertex -3.86031 1.59899 4
    endloop
  endfacet
  facet normal 0 0 -1
    outer loop
      vertex -3.86031 1.59899 4
      vertex -0.563281 2.46789 4
      vertex -2.28068 1.09832 4
    endloop
  endfacet
  facet normal 0 0 -1
    outer loop
      vertex -3.86031 1.59899 4
      vertex -1.59899 -3.86031 4
      vertex -2.95455 -2.95455 4
    endloop
  endfacet
  facet normal 0 0 -1
    outer loop
      vertex -3.86031 1.59899 4
      vertex -1.59899 3.86031 4
      vertex 0 4.17836 4
    endloop
  endfacet
  facet normal 0 0 -1
    outer loop
      vertex -3.86031 1.59899 4
      vertex -2.28068 -1.09832 4
      vertex -1.59899 -3.86031 4
    endloop
  endfacet
  facet normal 0 0 -1
    outer loop
      vertex -3.86031 1.59899 4
      vertex -2.28068 1.09832 4
      vertex -2.28068 -1.09832 4
    endloop
  endfacet
  facet normal 0.831469 -0.55557 0
    outer loop
      vertex -3.86031 1.59899 4
      vertex -2.95455 2.95455 0
      vertex -2.95455 2.95455 4
    endloop
  endfacet
  facet normal 0 0 -1
    outer loop
      vertex -3.86031 1.59899 4
      vertex -2.95455 2.95455 4
      vertex -1.59899 3.86031 4
    endloop
  endfacet
  facet normal 0 0 -1
    outer loop
      vertex -3.86031 1.59899 4
      vertex 0 4.17836 4
      vertex 1.59899 3.86031 4
    endloop
  endfacet
  facet normal 0 0 -1
    outer loop
      vertex -3.86031 1.59899 4
      vertex 1.59899 3.86031 4
      vertex -0.563281 2.46789 4
    endloop
  endfacet
  facet normal 0.980785 -0.19509 0
    outer loop
      vertex -4.17836 0 0
      vertex -3.86031 1.59899 0
      vertex -4.17836 0 4
    endloop
  endfacet
  facet normal 0.980785 0.19509 0
    outer loop
      vertex -4.17836 0 0
      vertex -4.17836 0 4
      vertex -3.86031 -1.59899 0
    endloop
  endfacet
  facet normal 0.980785 0.19509 0
    outer loop
      vertex -4.17836 0 4
      vertex -3.86031 -1.59899 4
      vertex -3.86031 -1.59899 0
    endloop
  endfacet
  facet normal 0.980785 -0.19509 0
    outer loop
      vertex -4.17836 0 4
      vertex -3.86031 1.59899 0
      vertex -3.86031 1.59899 4
    endloop
  endfacet
  facet normal 0 0 -1
    outer loop
      vertex -4.17836 0 4
      vertex -3.86031 1.59899 4
      vertex -3.86031 -1.59899 4
    endloop
  endfacet
  facet normal 0 1 0
    outer loop
      vertex -5.52577 4.6 10.9
      vertex -3.39031 4.6 10.9
      vertex -3.39031 4.6 6.4
    endloop
  endfacet
  facet normal 0 0 1
    outer loop
      vertex -5.52577 4.6 6.4
      vertex -3.39031 4.6 6.4
      vertex 16.9732 5.09851 6.4
    endloop
  endfacet
  facet normal 0 1 0
    outer loop
      vertex -5.52577 4.6 6.4
      vertex -5.52577 4.6 10.9
      vertex -3.39031 4.6 6.4
    endloop
  endfacet
  facet normal -0.19509 0.980785 0
    outer loop
      vertex 0 -4.17836 0
      vertex 0 -4.17836 4
      vertex 1.59899 -3.86031 0
    endloop
  endfacet
  facet normal 0 0 -1
    outer loop
      vertex 0 -4.17836 0
      vertex 1.59899 -3.86031 0
      vertex 16.9732 -5.09851 0
    endloop
  endfacet
  facet normal -0.19509 0.980785 0
    outer loop
      vertex 0 -4.17836 4
      vertex 1.59899 -3.86031 4
      vertex 1.59899 -3.86031 0
    endloop
  endfacet
  facet normal -0.19509 -0.980785 0
    outer loop
      vertex 0 4.17836 0
      vertex 1.59899 3.86031 0
      vertex 0 4.17836 4
    endloop
  endfacet
  facet normal 0 0 -1
    outer loop
      vertex 0 4.17836 0
      vertex 16.9732 5.09851 0
      vertex 1.59899 3.86031 0
    endloop
  endfacet
  facet normal -0.19509 -0.980785 0
    outer loop
      vertex 0 4.17836 4
      vertex 1.59899 3.86031 0
      vertex 1.59899 3.86031 4
    endloop
  endfacet
  facet normal -0.900969 0.433884 0
    outer loop
      vertex 1.20418 -1.51 0
      vertex 1.20418 -1.51 6.4
      vertex 1.93136 0 0
    endloop
  endfacet
  facet normal 0 0 -1
    outer loop
      vertex 1.20418 -1.51 0
      vertex 1.93136 0 0
      vertex 2.53136 0 0
    endloop
  endfacet
  facet normal 0 0 -1
    outer loop
      vertex 1.20418 -1.51 0
      vertex 2.53136 0 0
      vertex 1.57828 -1.9791 0
    endloop
  endfacet
  facet normal -0.900969 0.433884 0
    outer loop
      vertex 1.20418 -1.51 6.4
      vertex 1.93136 0 6.4
      vertex 1.93136 0 0
    endloop
  endfacet
  facet normal 0 0 1
    outer loop
      vertex 1.20418 -1.51 6.4
      vertex 12.5903 -4.6 6.4
      vertex 1.93136 0 6.4
    endloop
  endfacet
  facet normal 0 0 -1
    outer loop
      vertex 1.20418 1.51 0
      vertex 1.57828 1.9791 0
      vertex 1.93136 0 0
    endloop
  endfacet
  facet normal -0.900969 -0.433884 0
    outer loop
      vertex 1.20418 1.51 0
      vertex 1.93136 0 0
      vertex 1.20418 1.51 6.4
    endloop
  endfacet
  facet normal -0.900969 -0.433884 0
    outer loop
      vertex 1.20418 1.51 6.4
      vertex 1.93136 0 0
      vertex 1.93136 0 6.4
    endloop
  endfacet
  facet normal 0 0 1
    outer loop
      vertex 1.20418 1.51 6.4
      vertex 1.93136 0 6.4
      vertex 12.5903 -4.6 6.4
    endloop
  endfacet
  facet normal 0.900969 -0.433884 0
    outer loop
      vertex 1.57828 -1.9791 0
      vertex 2.53136 0 0
      vertex 1.57828 -1.9791 4
    endloop
  endfacet
  facet normal 0.900969 -0.433884 0
    outer loop
      vertex 1.57828 -1.9791 4
      vertex 2.53136 0 0
      vertex 2.53136 0 4
    endloop
  endfacet
  facet normal 0 0 -1
    outer loop
      vertex 1.57828 -1.9791 4
      vertex 2.53136 0 4
      vertex 3.86031 -1.59899 4
    endloop
  endfacet
  facet normal 0 0 -1
    outer loop
      vertex 1.57828 -1.9791 4
      vertex 2.95455 -2.95455 4
      vertex 1.59899 -3.86031 4
    endloop
  endfacet
  facet normal 0 0 -1
    outer loop
      vertex 1.57828 -1.9791 4
      vertex 3.86031 -1.59899 4
      vertex 2.95455 -2.95455 4
    endloop
  endfacet
  facet normal 0.900969 0.433884 0
    outer loop
      vertex 1.57828 1.9791 0
      vertex 1.57828 1.9791 4
      vertex 2.53136 0 0
    endloop
  endfacet
  facet normal 0 0 -1
    outer loop
      vertex 1.57828 1.9791 0
      vertex 2.53136 0 0
      vertex 1.93136 0 0
    endloop
  endfacet
  facet normal 0.900969 0.433884 0
    outer loop
      vertex 1.57828 1.9791 4
      vertex 2.53136 0 4
      vertex 2.53136 0 0
    endloop
  endfacet
  facet normal 0 0 -1
    outer loop
      vertex 1.57828 1.9791 4
      vertex 2.95455 2.95455 4
      vertex 3.86031 1.59899 4
    endloop
  endfacet
  facet normal 0 0 -1
    outer loop
      vertex 1.57828 1.9791 4
      vertex 3.86031 1.59899 4
      vertex 4.17836 0 4
    endloop
  endfacet
  facet normal 0 0 -1
    outer loop
      vertex 1.57828 1.9791 4
      vertex 4.17836 0 4
      vertex 2.53136 0 4
    endloop
  endfacet
  facet normal -0.55557 0.831469 0
    outer loop
      vertex 1.59899 -3.86031 0
      vertex 1.59899 -3.86031 4
      vertex 2.95455 -2.95455 0
    endloop
  endfacet
  facet normal 0 0 -1
    outer loop
      vertex 1.59899 -3.86031 0
      vertex 2.95455 -2.95455 0
      vertex 16.9732 -5.09851 0
    endloop
  endfacet
  facet normal -0.55557 0.831469 0
    outer loop
      vertex 1.59899 -3.86031 4
      vertex 2.95455 -2.95455 4
      vertex 2.95455 -2.95455 0
    endloop
  endfacet
  facet normal 0 0 -1
    outer loop
      vertex 1.59899 3.86031 0
      vertex 16.9732 5.09851 0
      vertex 2.95455 2.95455 0
    endloop
  endfacet
  facet normal -0.55557 -0.831469 0
    outer loop
      vertex 1.59899 3.86031 0
      vertex 2.95455 2.95455 0
      vertex 1.59899 3.86031 4
    endloop
  endfacet
  facet normal -0.55557 -0.831469 0
    outer loop
      vertex 1.59899 3.86031 4
      vertex 2.95455 2.95455 0
      vertex 2.95455 2.95455 4
    endloop
  endfacet
  facet normal 0 -1 0
    outer loop
      vertex 12.5903 -4.6 10.9
      vertex 14.7258 -4.6 6.4
      vertex 14.7258 -4.6 10.9
    endloop
  endfacet
  facet normal 0 -1 0
    outer loop
      vertex 12.5903 -4.6 6.4
      vertex 14.7258 -4.6 6.4
      vertex 12.5903 -4.6 10.9
    endloop
  endfacet
  facet normal 0 0 1
    outer loop
      vertex 12.5903 -4.6 6.4
      vertex 16.9732 -5.09851 6.4
      vertex 14.7258 -4.6 6.4
    endloop
  endfacet
  facet normal 0.866025 0.5 0
    outer loop
      vertex 13.65 0 3.4
      vertex 13.65 0 6.4
      vertex 15.25 -2.77128 3.4
    endloop
  endfacet
  facet normal 0 0 1
    outer loop
      vertex 13.65 0 3.4
      vertex 15.1099 -0.837986 3.4
      vertex 15.1099 0.837986 3.4
    endloop
  endfacet
  facet normal 0 0 1
    outer loop
      vertex 13.65 0 3.4
      vertex 15.1099 0.837986 3.4
      vertex 15.25 2.77128 3.4
    endloop
  endfacet
  facet normal 0 0 1
    outer loop
      vertex 13.65 0 3.4
      vertex 15.25 -2.77128 3.4
      vertex 15.1099 -0.837986 3.4
    endloop
  endfacet
  facet normal 0.866025 -0.5 0
    outer loop
      vertex 13.65 0 3.4
      vertex 15.25 2.77128 3.4
      vertex 13.65 0 6.4
    endloop
  endfacet
  facet normal 0.866025 0.5 0
    outer loop
      vertex 13.65 0 6.4
      vertex 15.25 -2.77128 6.4
      vertex 15.25 -2.77128 3.4
    endloop
  endfacet
  facet normal 0.866025 -0.5 0
    outer loop
      vertex 13.65 0 6.4
      vertex 15.25 2.77128 3.4
      vertex 15.25 2.77128 6.4
    endloop
  endfacet
  facet normal 0 0 1
    outer loop
      vertex 14.7258 -4.6 6.4
      vertex 16.9732 -5.09851 6.4
      vertex 17.4647 -5.06281 6.4
    endloop
  endfacet
  facet normal 0 0 1
    outer loop
      vertex 14.7258 -4.6 6.4
      vertex 17.4647 -5.06281 6.4
      vertex 17.9505 -4.97985 6.4
    endloop
  endfacet
  facet normal 0.62349 0.781831 0
    outer loop
      vertex 15.1099 -0.837986 0
      vertex 15.1099 -0.837986 3.4
      vertex 16.4202 -1.88294 0
    endloop
  endfacet
  facet normal 1 0 0
    outer loop
      vertex 15.1099 -0.837986 0
      vertex 15.1099 0.837986 0
      vertex 15.1099 -0.837986 3.4
    endloop
  endfacet
  facet normal 1 0 0
    outer loop
      vertex 15.1099 -0.837986 3.4
      vertex 15.1099 0.837986 0
      vertex 15.1099 0.837986 3.4
    endloop
  endfacet
  facet normal 0 0 1
    outer loop
      vertex 15.1099 -0.837986 3.4
      vertex 15.25 -2.77128 3.4
      vertex 16.4202 -1.88294 3.4
    endloop
  endfacet
  facet normal 0.62349 0.781831 0
    outer loop
      vertex 15.1099 -0.837986 3.4
      vertex 16.4202 -1.88294 3.4
      vertex 16.4202 -1.88294 0
    endloop
  endfacet
  facet normal 0.62349 -0.781831 0
    outer loop
      vertex 15.1099 0.837986 0
      vertex 16.4202 1.88294 0
      vertex 15.1099 0.837986 3.4
    endloop
  endfacet
  facet normal 0.62349 -0.781831 0
    outer loop
      vertex 15.1099 0.837986 3.4
      vertex 16.4202 1.88294 0
      vertex 16.4202 1.88294 3.4
    endloop
  endfacet
  facet normal 0 0 1
    outer loop
      vertex 15.1099 0.837986 3.4
      vertex 16.4202 1.88294 3.4
      vertex 15.25 2.77128 3.4
    endloop
  endfacet
  facet normal 0 1 0
    outer loop
      vertex 15.25 -2.77128 3.4
      vertex 15.25 -2.77128 6.4
      vertex 18.45 -2.77128 3.4
    endloop
  endfacet
  facet normal 0 0 1
    outer loop
      vertex 15.25 -2.77128 3.4
      vertex 18.0542 -1.51 3.4
      vertex 16.4202 -1.88294 3.4
    endloop
  endfacet
  facet normal 0 0 1
    outer loop
      vertex 15.25 -2.77128 3.4
      vertex 18.45 -2.77128 3.4
      vertex 18.0542 -1.51 3.4
    endloop
  endfacet
  facet normal 0 0 1
    outer loop
      vertex 15.25 -2.77128 6.4
      vertex 17.9505 -4.97985 6.4
      vertex 18.426 -4.85039 6.4
    endloop
  endfacet
  facet normal 0 0 1
    outer loop
      vertex 15.25 -2.77128 6.4
      vertex 18.426 -4.85039 6.4
      vertex 18.8868 -4.67564 6.4
    endloop
  endfacet
  facet normal 0 1 0
    outer loop
      vertex 15.25 -2.77128 6.4
      vertex 18.45 -2.77128 6.4
      vertex 18.45 -2.77128 3.4
    endloop
  endfacet
  facet normal 0 0 1
    outer loop
      vertex 15.25 -2.77128 6.4
      vertex 18.8868 -4.67564 6.4
      vertex 19.3285 -4.45724 6.4
    endloop
  endfacet
  facet normal 0 0 1
    outer loop
      vertex 15.25 -2.77128 6.4
      vertex 19.3285 -4.45724 6.4
      vertex 19.7471 -4.19722 6.4
    endloop
  endfacet
  facet normal 0 0 1
    outer loop
      vertex 15.25 -2.77128 6.4
      vertex 19.7471 -4.19722 6.4
      vertex 20.1387 -3.89801 6.4
    endloop
  endfacet
  facet normal 0 0 1
    outer loop
      vertex 15.25 -2.77128 6.4
      vertex 20.1387 -3.89801 6.4
      vertex 20.4996 -3.56241 6.4
    endloop
  endfacet
  facet normal 0 0 1
    outer loop
      vertex 15.25 -2.77128 6.4
      vertex 20.4996 -3.56241 6.4
      vertex 20.8263 -3.19354 6.4
    endloop
  endfacet
  facet normal 0 0 1
    outer loop
      vertex 15.25 -2.77128 6.4
      vertex 20.8263 -3.19354 6.4
      vertex 18.45 -2.77128 6.4
    endloop
  endfacet
  facet normal 0 0 1
    outer loop
      vertex 15.25 2.77128 3.4
      vertex 16.4202 1.88294 3.4
      vertex 18.45 2.77128 3.4
    endloop
  endfacet
  facet normal 0 -1 0
    outer loop
      vertex 15.25 2.77128 3.4
      vertex 18.45 2.77128 3.4
      vertex 15.25 2.77128 6.4
    endloop
  endfacet
  facet normal 0 -1 0
    outer loop
      vertex 15.25 2.77128 6.4
      vertex 18.45 2.77128 3.4
      vertex 18.45 2.77128 6.4
    endloop
  endfacet
  facet normal 0 0 1
    outer loop
      vertex 15.25 2.77128 6.4
      vertex 18.45 2.77128 6.4
      vertex 21.116 2.79486 6.4
    endloop
  endfacet
  facet normal 0 0 1
    outer loop
      vertex 15.25 2.77128 6.4
      vertex 21.116 2.79486 6.4
      vertex 20.8263 3.19354 6.4
    endloop
  endfacet
  facet normal -0.222522 0.974928 0
    outer loop
      vertex 16.4202 -1.88294 0
      vertex 16.4202 -1.88294 3.4
      vertex 18.0542 -1.51 0
    endloop
  endfacet
  facet normal 0 0 -1
    outer loop
      vertex 16.4202 -1.88294 0
      vertex 18.0542 -1.51 0
      vertex 21.5735 -1.92318 0
    endloop
  endfacet
  facet normal 0 0 -1
    outer loop
      vertex 16.4202 -1.88294 0
      vertex 21.5735 -1.92318 0
      vertex 21.3658 -2.37009 0
    endloop
  endfacet
  facet normal -0.222522 0.974928 0
    outer loop
      vertex 16.4202 -1.88294 3.4
      vertex 18.0542 -1.51 3.4
      vertex 18.0542 -1.51 0
    endloop
  endfacet
  facet normal -0.222522 -0.974928 0
    outer loop
      vertex 16.4202 1.88294 0
      vertex 18.0542 1.51 0
      vertex 16.4202 1.88294 3.4
    endloop
  endfacet
  facet normal 0 0 -1
    outer loop
      vertex 16.4202 1.88294 0
      vertex 21.3658 2.37009 0
      vertex 21.5735 1.92318 0
    endloop
  endfacet
  facet normal 0 0 -1
    outer loop
      vertex 16.4202 1.88294 0
      vertex 21.5735 1.92318 0
      vertex 18.0542 1.51 0
    endloop
  endfacet
  facet normal -0.222522 -0.974928 0
    outer loop
      vertex 16.4202 1.88294 3.4
      vertex 18.0542 1.51 0
      vertex 18.0542 1.51 3.4
    endloop
  endfacet
  facet normal 0 0 1
    outer loop
      vertex 16.4202 1.88294 3.4
      vertex 18.0542 1.51 3.4
      vertex 18.45 2.77128 3.4
    endloop
  endfacet
  facet normal 0.0724356 -0.997373 0
    outer loop
      vertex 16.9732 -5.09851 0
      vertex 17.4647 -5.06281 0
      vertex 16.9732 -5.09851 6.4
    endloop
  endfacet
  facet normal 0.0724356 -0.997373 0
    outer loop
      vertex 16.9732 -5.09851 6.4
      vertex 17.4647 -5.06281 0
      vertex 17.4647 -5.06281 6.4
    endloop
  endfacet
  facet normal 0.0724356 0.997373 0
    outer loop
      vertex 16.9732 5.09851 0
      vertex 16.9732 5.09851 6.4
      vertex 17.4647 5.06281 0
    endloop
  endfacet
  facet normal 0.0724356 0.997373 0
    outer loop
      vertex 16.9732 5.09851 6.4
      vertex 17.4647 5.06281 6.4
      vertex 17.4647 5.06281 0
    endloop
  endfacet
  facet normal 0.168356 -0.985726 0
    outer loop
      vertex 17.4647 -5.06281 0
      vertex 17.9505 -4.97985 0
      vertex 17.4647 -5.06281 6.4
    endloop
  endfacet
  facet normal 0.168356 -0.985726 0
    outer loop
      vertex 17.4647 -5.06281 6.4
      vertex 17.9505 -4.97985 0
      vertex 17.9505 -4.97985 6.4
    endloop
  endfacet
  facet normal 0.168356 0.985726 0
    outer loop
      vertex 17.4647 5.06281 0
      vertex 17.4647 5.06281 6.4
      vertex 17.9505 4.97985 0
    endloop
  endfacet
  facet normal 0.168356 0.985726 0
    outer loop
      vertex 17.4647 5.06281 6.4
      vertex 17.9505 4.97985 6.4
      vertex 17.9505 4.97985 0
    endloop
  endfacet
  facet normal 0.262708 -0.964875 0
    outer loop
      vertex 17.9505 -4.97985 0
      vertex 18.426 -4.85039 0
      vertex 17.9505 -4.97985 6.4
    endloop
  endfacet
  facet normal 0.262708 -0.964875 0
    outer loop
      vertex 17.9505 -4.97985 6.4
      vertex 18.426 -4.85039 0
      vertex 18.426 -4.85039 6.4
    endloop
  endfacet
  facet normal 0.262708 0.964875 0
    outer loop
      vertex 17.9505 4.97985 0
      vertex 17.9505 4.97985 6.4
      vertex 18.426 4.85039 0
    endloop
  endfacet
  facet normal 0.262708 0.964875 0
    outer loop
      vertex 17.9505 4.97985 6.4
      vertex 18.426 4.85039 6.4
      vertex 18.426 4.85039 0
    endloop
  endfacet
  facet normal -0.900969 0.433884 0
    outer loop
      vertex 18.0542 -1.51 0
      vertex 18.0542 -1.51 3.4
      vertex 18.7814 0 0
    endloop
  endfacet
  facet normal 0 0 -1
    outer loop
      vertex 18.0542 -1.51 0
      vertex 18.7814 0 0
      vertex 21.7371 -1.45832 0
    endloop
  endfacet
  facet normal 0 0 -1
    outer loop
      vertex 18.0542 -1.51 0
      vertex 21.7371 -1.45832 0
      vertex 21.5735 -1.92318 0
    endloop
  endfacet
  facet normal 0 0 1
    outer loop
      vertex 18.0542 -1.51 3.4
      vertex 18.45 -2.77128 3.4
      vertex 20.05 0 3.4
    endloop
  endfacet
  facet normal -0.900969 0.433884 0
    outer loop
      vertex 18.0542 -1.51 3.4
      vertex 18.7814 0 3.4
      vertex 18.7814 0 0
    endloop
  endfacet
  facet normal 0 0 1
    outer loop
      vertex 18.0542 -1.51 3.4
      vertex 20.05 0 3.4
      vertex 18.7814 0 3.4
    endloop
  endfacet
  facet normal -0.900969 -0.433884 0
    outer loop
      vertex 18.0542 1.51 0
      vertex 18.7814 0 0
      vertex 18.0542 1.51 3.4
    endloop
  endfacet
  facet normal 0 0 -1
    outer loop
      vertex 18.0542 1.51 0
      vertex 21.5735 1.92318 0
      vertex 21.7371 1.45832 0
    endloop
  endfacet
  facet normal 0 0 -1
    outer loop
      vertex 18.0542 1.51 0
      vertex 21.7371 1.45832 0
      vertex 21.855 0.979846 0
    endloop
  endfacet
  facet normal 0 0 -1
    outer loop
      vertex 18.0542 1.51 0
      vertex 21.855 0.979846 0
      vertex 21.9262 0.492221 0
    endloop
  endfacet
  facet normal 0 0 -1
    outer loop
      vertex 18.0542 1.51 0
      vertex 21.9262 0.492221 0
      vertex 18.7814 0 0
    endloop
  endfacet
  facet normal -0.900969 -0.433884 0
    outer loop
      vertex 18.0542 1.51 3.4
      vertex 18.7814 0 0
      vertex 18.7814 0 3.4
    endloop
  endfacet
  facet normal 0 0 1
    outer loop
      vertex 18.0542 1.51 3.4
      vertex 18.7814 0 3.4
      vertex 20.05 0 3.4
    endloop
  endfacet
  facet normal 0 0 1
    outer loop
      vertex 18.0542 1.51 3.4
      vertex 20.05 0 3.4
      vertex 18.45 2.77128 3.4
    endloop
  endfacet
  facet normal 0.354605 -0.935016 0
    outer loop
      vertex 18.426 -4.85039 0
      vertex 18.8868 -4.67564 0
      vertex 18.426 -4.85039 6.4
    endloop
  endfacet
  facet normal 0.354605 -0.935016 0
    outer loop
      vertex 18.426 -4.85039 6.4
      vertex 18.8868 -4.67564 0
      vertex 18.8868 -4.67564 6.4
    endloop
  endfacet
  facet normal 0.354605 0.935016 0
    outer loop
      vertex 18.426 4.85039 0
      vertex 18.426 4.85039 6.4
      vertex 18.8868 4.67564 0
    endloop
  endfacet
  facet normal 0.354605 0.935016 0
    outer loop
      vertex 18.426 4.85039 6.4
      vertex 18.8868 4.67564 6.4
      vertex 18.8868 4.67564 0
    endloop
  endfacet
  facet normal -0.866025 0.5 0
    outer loop
      vertex 18.45 -2.77128 3.4
      vertex 18.45 -2.77128 6.4
      vertex 20.05 0 3.4
    endloop
  endfacet
  facet normal -0.866025 0.5 0
    outer loop
      vertex 18.45 -2.77128 6.4
      vertex 20.05 0 6.4
      vertex 20.05 0 3.4
    endloop
  endfacet
  facet normal 0 0 1
    outer loop
      vertex 18.45 -2.77128 6.4
      vertex 20.8263 -3.19354 6.4
      vertex 21.116 -2.79486 6.4
    endloop
  endfacet
  facet normal 0 0 1
    outer loop
      vertex 18.45 -2.77128 6.4
      vertex 21.116 -2.79486 6.4
      vertex 20.05 0 6.4
    endloop
  endfacet
  facet normal -0.866025 -0.5 0
    outer loop
      vertex 18.45 2.77128 3.4
      vertex 20.05 0 3.4
      vertex 18.45 2.77128 6.4
    endloop
  endfacet
  facet normal -0.866025 -0.5 0
    outer loop
      vertex 18.45 2.77128 6.4
      vertex 20.05 0 3.4
      vertex 20.05 0 6.4
    endloop
  endfacet
  facet normal 0 0 1
    outer loop
      vertex 18.45 2.77128 6.4
      vertex 20.05 0 6.4
      vertex 21.95 0 6.4
    endloop
  endfacet
  facet normal 0 0 1
    outer loop
      vertex 18.45 2.77128 6.4
      vertex 21.3658 2.37009 6.4
      vertex 21.116 2.79486 6.4
    endloop
  endfacet
  facet normal 0 0 1
    outer loop
      vertex 18.45 2.77128 6.4
      vertex 21.5735 1.92318 6.4
      vertex 21.3658 2.37009 6.4
    endloop
  endfacet
  facet normal 0 0 1
    outer loop
      vertex 18.45 2.77128 6.4
      vertex 21.7371 1.45832 6.4
      vertex 21.5735 1.92318 6.4
    endloop
  endfacet
  facet normal 0 0 1
    outer loop
      vertex 18.45 2.77128 6.4
      vertex 21.855 0.979846 6.4
      vertex 21.7371 1.45832 6.4
    endloop
  endfacet
  facet normal 0 0 1
    outer loop
      vertex 18.45 2.77128 6.4
      vertex 21.9262 0.492221 6.4
      vertex 21.855 0.979846 6.4
    endloop
  endfacet
  facet normal 0 0 1
    outer loop
      vertex 18.45 2.77128 6.4
      vertex 21.95 0 6.4
      vertex 21.9262 0.492221 6.4
    endloop
  endfacet
  facet normal 0 0 -1
    outer loop
      vertex 18.7814 0 0
      vertex 21.855 -0.979846 0
      vertex 21.7371 -1.45832 0
    endloop
  endfacet
  facet normal 0 0 -1
    outer loop
      vertex 18.7814 0 0
      vertex 21.9262 -0.492221 0
      vertex 21.855 -0.979846 0
    endloop
  endfacet
  facet normal 0 0 -1
    outer loop
      vertex 18.7814 0 0
      vertex 21.9262 0.492221 0
      vertex 21.95 0 0
    endloop
  endfacet
  facet normal 0 0 -1
    outer loop
      vertex 18.7814 0 0
      vertex 21.95 0 0
      vertex 21.9262 -0.492221 0
    endloop
  endfacet
  facet normal 0.443191 -0.896427 0
    outer loop
      vertex 18.8868 -4.67564 0
      vertex 19.3285 -4.45724 0
      vertex 18.8868 -4.67564 6.4
    endloop
  endfacet
  facet normal 0.443191 -0.896427 0
    outer loop
      vertex 18.8868 -4.67564 6.4
      vertex 19.3285 -4.45724 0
      vertex 19.3285 -4.45724 6.4
    endloop
  endfacet
  facet normal 0.443191 0.896427 0
    outer loop
      vertex 18.8868 4.67564 0
      vertex 18.8868 4.67564 6.4
      vertex 19.3285 4.45724 0
    endloop
  endfacet
  facet normal 0.443191 0.896427 0
    outer loop
      vertex 18.8868 4.67564 6.4
      vertex 19.3285 4.45724 6.4
      vertex 19.3285 4.45724 0
    endloop
  endfacet
  facet normal 0.52764 -0.849468 0
    outer loop
      vertex 19.3285 -4.45724 0
      vertex 19.7471 -4.19722 0
      vertex 19.3285 -4.45724 6.4
    endloop
  endfacet
  facet normal 0.52764 -0.849468 0
    outer loop
      vertex 19.3285 -4.45724 6.4
      vertex 19.7471 -4.19722 0
      vertex 19.7471 -4.19722 6.4
    endloop
  endfacet
  facet normal 0.52764 0.849468 0
    outer loop
      vertex 19.3285 4.45724 0
      vertex 19.3285 4.45724 6.4
      vertex 19.7471 4.19722 0
    endloop
  endfacet
  facet normal 0.52764 0.849468 0
    outer loop
      vertex 19.3285 4.45724 6.4
      vertex 19.7471 4.19722 6.4
      vertex 19.7471 4.19722 0
    endloop
  endfacet
  facet normal 0.607163 -0.794577 0
    outer loop
      vertex 19.7471 -4.19722 0
      vertex 20.1387 -3.89801 0
      vertex 19.7471 -4.19722 6.4
    endloop
  endfacet
  facet normal 0.607163 -0.794577 0
    outer loop
      vertex 19.7471 -4.19722 6.4
      vertex 20.1387 -3.89801 0
      vertex 20.1387 -3.89801 6.4
    endloop
  endfacet
  facet normal 0.607163 0.794577 0
    outer loop
      vertex 19.7471 4.19722 0
      vertex 19.7471 4.19722 6.4
      vertex 20.1387 3.89801 0
    endloop
  endfacet
  facet normal 0.607163 0.794577 0
    outer loop
      vertex 19.7471 4.19722 6.4
      vertex 20.1387 3.89801 6.4
      vertex 20.1387 3.89801 0
    endloop
  endfacet
  facet normal 0 0 -1
    outer loop
      vertex 2.53136 0 4
      vertex 4.17836 0 4
      vertex 3.86031 -1.59899 4
    endloop
  endfacet
  facet normal 0 0 -1
    outer loop
      vertex 2.95455 -2.95455 0
      vertex 17.4647 -5.06281 0
      vertex 16.9732 -5.09851 0
    endloop
  endfacet
  facet normal 0 0 -1
    outer loop
      vertex 2.95455 -2.95455 0
      vertex 17.9505 -4.97985 0
      vertex 17.4647 -5.06281 0
    endloop
  endfacet
  facet normal 0 0 -1
    outer loop
      vertex 2.95455 -2.95455 0
      vertex 18.426 -4.85039 0
      vertex 17.9505 -4.97985 0
    endloop
  endfacet
  facet normal 0 0 -1
    outer loop
      vertex 2.95455 -2.95455 0
      vertex 18.8868 -4.67564 0
      vertex 18.426 -4.85039 0
    endloop
  endfacet
  facet normal 0 0 -1
    outer loop
      vertex 2.95455 -2.95455 0
      vertex 19.3285 -4.45724 0
      vertex 18.8868 -4.67564 0
    endloop
  endfacet
  facet normal 0 0 -1
    outer loop
      vertex 2.95455 -2.95455 0
      vertex 19.7471 -4.19722 0
      vertex 19.3285 -4.45724 0
    endloop
  endfacet
  facet normal -0.831469 0.55557 0
    outer loop
      vertex 2.95455 -2.95455 0
      vertex 2.95455 -2.95455 4
      vertex 3.86031 -1.59899 0
    endloop
  endfacet
  facet normal 0 0 -1
    outer loop
      vertex 2.95455 -2.95455 0
      vertex 3.86031 -1.59899 0
      vertex 19.7471 -4.19722 0
    endloop
  endfacet
  facet normal -0.831469 0.55557 0
    outer loop
      vertex 2.95455 -2.95455 4
      vertex 3.86031 -1.59899 4
      vertex 3.86031 -1.59899 0
    endloop
  endfacet
  facet normal 0 0 -1
    outer loop
      vertex 2.95455 2.95455 0
      vertex 16.9732 5.09851 0
      vertex 17.4647 5.06281 0
    endloop
  endfacet
  facet normal 0 0 -1
    outer loop
      vertex 2.95455 2.95455 0
      vertex 17.4647 5.06281 0
      vertex 17.9505 4.97985 0
    endloop
  endfacet
  facet normal 0 0 -1
    outer loop
      vertex 2.95455 2.95455 0
      vertex 17.9505 4.97985 0
      vertex 18.426 4.85039 0
    endloop
  endfacet
  facet normal 0 0 -1
    outer loop
      vertex 2.95455 2.95455 0
      vertex 18.426 4.85039 0
      vertex 18.8868 4.67564 0
    endloop
  endfacet
  facet normal 0 0 -1
    outer loop
      vertex 2.95455 2.95455 0
      vertex 18.8868 4.67564 0
      vertex 19.3285 4.45724 0
    endloop
  endfacet
  facet normal 0 0 -1
    outer loop
      vertex 2.95455 2.95455 0
      vertex 19.3285 4.45724 0
      vertex 19.7471 4.19722 0
    endloop
  endfacet
  facet normal 0 0 -1
    outer loop
      vertex 2.95455 2.95455 0
      vertex 19.7471 4.19722 0
      vertex 20.1387 3.89801 0
    endloop
  endfacet
  facet normal 0 0 -1
    outer loop
      vertex 2.95455 2.95455 0
      vertex 20.1387 3.89801 0
      vertex 20.4996 3.56241 0
    endloop
  endfacet
  facet normal 0 0 -1
    outer loop
      vertex 2.95455 2.95455 0
      vertex 20.4996 3.56241 0
      vertex 20.8263 3.19354 0
    endloop
  endfacet
  facet normal 0 0 -1
    outer loop
      vertex 2.95455 2.95455 0
      vertex 20.8263 3.19354 0
      vertex 3.86031 1.59899 0
    endloop
  endfacet
  facet normal -0.831469 -0.55557 0
    outer loop
      vertex 2.95455 2.95455 0
      vertex 3.86031 1.59899 0
      vertex 2.95455 2.95455 4
    endloop
  endfacet
  facet normal -0.831469 -0.55557 0
    outer loop
      vertex 2.95455 2.95455 4
      vertex 3.86031 1.59899 0
      vertex 3.86031 1.59899 4
    endloop
  endfacet
  facet normal 0 0 1
    outer loop
      vertex 20.05 0 6.4
      vertex 21.116 -2.79486 6.4
      vertex 21.3658 -2.37009 6.4
    endloop
  endfacet
  facet normal 0 0 1
    outer loop
      vertex 20.05 0 6.4
      vertex 21.3658 -2.37009 6.4
      vertex 21.5735 -1.92318 6.4
    endloop
  endfacet
  facet normal 0 0 1
    outer loop
      vertex 20.05 0 6.4
      vertex 21.5735 -1.92318 6.4
      vertex 21.7371 -1.45832 6.4
    endloop
  endfacet
  facet normal 0 0 1
    outer loop
      vertex 20.05 0 6.4
      vertex 21.7371 -1.45832 6.4
      vertex 21.855 -0.979846 6.4
    endloop
  endfacet
  facet normal 0 0 1
    outer loop
      vertex 20.05 0 6.4
      vertex 21.855 -0.979846 6.4
      vertex 21.9262 -0.492221 6.4
    endloop
  endfacet
  facet normal 0 0 1
    outer loop
      vertex 20.05 0 6.4
      vertex 21.9262 -0.492221 6.4
      vertex 21.95 0 6.4
    endloop
  endfacet
  facet normal 0.681015 -0.732269 0
    outer loop
      vertex 20.1387 -3.89801 0
      vertex 20.4996 -3.56241 0
      vertex 20.1387 -3.89801 6.4
    endloop
  endfacet
  facet normal 0.681015 -0.732269 0
    outer loop
      vertex 20.1387 -3.89801 6.4
      vertex 20.4996 -3.56241 0
      vertex 20.4996 -3.56241 6.4
    endloop
  endfacet
  facet normal 0.681015 0.732269 0
    outer loop
      vertex 20.1387 3.89801 0
      vertex 20.1387 3.89801 6.4
      vertex 20.4996 3.56241 0
    endloop
  endfacet
  facet normal 0.681015 0.732269 0
    outer loop
      vertex 20.1387 3.89801 6.4
      vertex 20.4996 3.56241 6.4
      vertex 20.4996 3.56241 0
    endloop
  endfacet
  facet normal 0.748511 -0.663123 0
    outer loop
      vertex 20.4996 -3.56241 0
      vertex 20.8263 -3.19354 0
      vertex 20.4996 -3.56241 6.4
    endloop
  endfacet
  facet normal 0.748511 -0.663123 0
    outer loop
      vertex 20.4996 -3.56241 6.4
      vertex 20.8263 -3.19354 0
      vertex 20.8263 -3.19354 6.4
    endloop
  endfacet
  facet normal 0.748511 0.663123 0
    outer loop
      vertex 20.4996 3.56241 0
      vertex 20.4996 3.56241 6.4
      vertex 20.8263 3.19354 0
    endloop
  endfacet
  facet normal 0.748511 0.663123 0
    outer loop
      vertex 20.4996 3.56241 6.4
      vertex 20.8263 3.19354 6.4
      vertex 20.8263 3.19354 0
    endloop
  endfacet
  facet normal 0.809017 -0.587786 0
    outer loop
      vertex 20.8263 -3.19354 0
      vertex 21.116 -2.79486 0
      vertex 20.8263 -3.19354 6.4
    endloop
  endfacet
  facet normal 0.809017 -0.587786 0
    outer loop
      vertex 20.8263 -3.19354 6.4
      vertex 21.116 -2.79486 0
      vertex 21.116 -2.79486 6.4
    endloop
  endfacet
  facet normal 0.809017 0.587786 0
    outer loop
      vertex 20.8263 3.19354 0
      vertex 20.8263 3.19354 6.4
      vertex 21.116 2.79486 0
    endloop
  endfacet
  facet normal 0.809017 0.587786 0
    outer loop
      vertex 20.8263 3.19354 6.4
      vertex 21.116 2.79486 6.4
      vertex 21.116 2.79486 0
    endloop
  endfacet
  facet normal 0.86197 -0.506959 0
    outer loop
      vertex 21.116 -2.79486 0
      vertex 21.3658 -2.37009 0
      vertex 21.116 -2.79486 6.4
    endloop
  endfacet
  facet normal 0.86197 -0.506959 0
    outer loop
      vertex 21.116 -2.79486 6.4
      vertex 21.3658 -2.37009 0
      vertex 21.3658 -2.37009 6.4
    endloop
  endfacet
  facet normal 0.86197 0.506959 0
    outer loop
      vertex 21.116 2.79486 0
      vertex 21.116 2.79486 6.4
      vertex 21.3658 2.37009 0
    endloop
  endfacet
  facet normal 0.86197 0.506959 0
    outer loop
      vertex 21.116 2.79486 6.4
      vertex 21.3658 2.37009 6.4
      vertex 21.3658 2.37009 0
    endloop
  endfacet
  facet normal 0.906874 -0.421402 0
    outer loop
      vertex 21.3658 -2.37009 0
      vertex 21.5735 -1.92318 0
      vertex 21.3658 -2.37009 6.4
    endloop
  endfacet
  facet normal 0.906874 -0.421402 0
    outer loop
      vertex 21.3658 -2.37009 6.4
      vertex 21.5735 -1.92318 0
      vertex 21.5735 -1.92318 6.4
    endloop
  endfacet
  facet normal 0.906874 0.421402 0
    outer loop
      vertex 21.3658 2.37009 0
      vertex 21.3658 2.37009 6.4
      vertex 21.5735 1.92318 0
    endloop
  endfacet
  facet normal 0.906874 0.421402 0
    outer loop
      vertex 21.3658 2.37009 6.4
      vertex 21.5735 1.92318 6.4
      vertex 21.5735 1.92318 0
    endloop
  endfacet
  facet normal 0.943312 -0.331908 0
    outer loop
      vertex 21.5735 -1.92318 0
      vertex 21.7371 -1.45832 0
      vertex 21.5735 -1.92318 6.4
    endloop
  endfacet
  facet normal 0.943312 -0.331908 0
    outer loop
      vertex 21.5735 -1.92318 6.4
      vertex 21.7371 -1.45832 0
      vertex 21.7371 -1.45832 6.4
    endloop
  endfacet
  facet normal 0.943312 0.331908 0
    outer loop
      vertex 21.5735 1.92318 0
      vertex 21.5735 1.92318 6.4
      vertex 21.7371 1.45832 0
    endloop
  endfacet
  facet normal 0.943312 0.331908 0
    outer loop
      vertex 21.5735 1.92318 6.4
      vertex 21.7371 1.45832 6.4
      vertex 21.7371 1.45832 0
    endloop
  endfacet
  facet normal 0.970942 -0.239316 0
    outer loop
      vertex 21.7371 -1.45832 0
      vertex 21.855 -0.979846 0
      vertex 21.7371 -1.45832 6.4
    endloop
  endfacet
  facet normal 0.970942 -0.239316 0
    outer loop
      vertex 21.7371 -1.45832 6.4
      vertex 21.855 -0.979846 0
      vertex 21.855 -0.979846 6.4
    endloop
  endfacet
  facet normal 0.970942 0.239316 0
    outer loop
      vertex 21.7371 1.45832 0
      vertex 21.7371 1.45832 6.4
      vertex 21.855 0.979846 0
    endloop
  endfacet
  facet normal 0.970942 0.239316 0
    outer loop
      vertex 21.7371 1.45832 6.4
      vertex 21.855 0.979846 6.4
      vertex 21.855 0.979846 0
    endloop
  endfacet
  facet normal 0.989507 -0.144488 0
    outer loop
      vertex 21.855 -0.979846 0
      vertex 21.9262 -0.492221 0
      vertex 21.855 -0.979846 6.4
    endloop
  endfacet
  facet normal 0.989507 -0.144488 0
    outer loop
      vertex 21.855 -0.979846 6.4
      vertex 21.9262 -0.492221 0
      vertex 21.9262 -0.492221 6.4
    endloop
  endfacet
  facet normal 0.989507 0.144488 0
    outer loop
      vertex 21.855 0.979846 0
      vertex 21.855 0.979846 6.4
      vertex 21.9262 0.492221 0
    endloop
  endfacet
  facet normal 0.989507 0.144488 0
    outer loop
      vertex 21.855 0.979846 6.4
      vertex 21.9262 0.492221 6.4
      vertex 21.9262 0.492221 0
    endloop
  endfacet
  facet normal 0.998832 -0.0483141 0
    outer loop
      vertex 21.9262 -0.492221 0
      vertex 21.95 0 0
      vertex 21.9262 -0.492221 6.4
    endloop
  endfacet
  facet normal 0.998832 -0.0483141 0
    outer loop
      vertex 21.9262 -0.492221 6.4
      vertex 21.95 0 0
      vertex 21.95 0 6.4
    endloop
  endfacet
  facet normal 0.998832 0.0483141 0
    outer loop
      vertex 21.9262 0.492221 0
      vertex 21.9262 0.492221 6.4
      vertex 21.95 0 0
    endloop
  endfacet
  facet normal 0.998832 0.0483141 0
    outer loop
      vertex 21.9262 0.492221 6.4
      vertex 21.95 0 6.4
      vertex 21.95 0 0
    endloop
  endfacet
  facet normal 0 0 1
    outer loop
      vertex 3.39031 4.6 10.9
      vertex 12.5903 -4.6 10.9
      vertex 5.52577 4.6 10.9
    endloop
  endfacet
  facet normal -0.707107 -0.707107 0
    outer loop
      vertex 3.39031 4.6 10.9
      vertex 12.5903 -4.6 6.4
      vertex 12.5903 -4.6 10.9
    endloop
  endfacet
  facet normal 0 1 0
    outer loop
      vertex 3.39031 4.6 10.9
      vertex 5.52577 4.6 10.9
      vertex 5.52577 4.6 6.4
    endloop
  endfacet
  facet normal -0.707107 -0.707107 0
    outer loop
      vertex 3.39031 4.6 6.4
      vertex 12.5903 -4.6 6.4
      vertex 3.39031 4.6 10.9
    endloop
  endfacet
  facet normal 0 1 0
    outer loop
      vertex 3.39031 4.6 6.4
      vertex 3.39031 4.6 10.9
      vertex 5.52577 4.6 6.4
    endloop
  endfacet
  facet normal 0 0 1
    outer loop
      vertex 3.39031 4.6 6.4
      vertex 5.52577 4.6 6.4
      vertex 16.9732 5.09851 6.4
    endloop
  endfacet
  facet normal 0 0 -1
    outer loop
      vertex 3.86031 -1.59899 0
      vertex 16.4202 -1.88294 0
      vertex 21.3658 -2.37009 0
    endloop
  endfacet
  facet normal 0 0 -1
    outer loop
      vertex 3.86031 -1.59899 0
      vertex 20.1387 -3.89801 0
      vertex 19.7471 -4.19722 0
    endloop
  endfacet
  facet normal 0 0 -1
    outer loop
      vertex 3.86031 -1.59899 0
      vertex 20.4996 -3.56241 0
      vertex 20.1387 -3.89801 0
    endloop
  endfacet
  facet normal 0 0 -1
    outer loop
      vertex 3.86031 -1.59899 0
      vertex 20.8263 -3.19354 0
      vertex 20.4996 -3.56241 0
    endloop
  endfacet
  facet normal 0 0 -1
    outer loop
      vertex 3.86031 -1.59899 0
      vertex 21.116 -2.79486 0
      vertex 20.8263 -3.19354 0
    endloop
  endfacet
  facet normal 0 0 -1
    outer loop
      vertex 3.86031 -1.59899 0
      vertex 21.3658 -2.37009 0
      vertex 21.116 -2.79486 0
    endloop
  endfacet
  facet normal -0.980785 0.19509 0
    outer loop
      vertex 3.86031 -1.59899 0
      vertex 3.86031 -1.59899 4
      vertex 4.17836 0 0
    endloop
  endfacet
  facet normal 0 0 -1
    outer loop
      vertex 3.86031 -1.59899 0
      vertex 4.17836 0 0
      vertex 16.4202 -1.88294 0
    endloop
  endfacet
  facet normal -0.980785 0.19509 0
    outer loop
      vertex 3.86031 -1.59899 4
      vertex 4.17836 0 4
      vertex 4.17836 0 0
    endloop
  endfacet
  facet normal 0 0 -1
    outer loop
      vertex 3.86031 1.59899 0
      vertex 15.1099 0.837986 0
      vertex 4.17836 0 0
    endloop
  endfacet
  facet normal 0 0 -1
    outer loop
      vertex 3.86031 1.59899 0
      vertex 16.4202 1.88294 0
      vertex 15.1099 0.837986 0
    endloop
  endfacet
  facet normal 0 0 -1
    outer loop
      vertex 3.86031 1.59899 0
      vertex 20.8263 3.19354 0
      vertex 21.116 2.79486 0
    endloop
  endfacet
  facet normal 0 0 -1
    outer loop
      vertex 3.86031 1.59899 0
      vertex 21.116 2.79486 0
      vertex 21.3658 2.37009 0
    endloop
  endfacet
  facet normal 0 0 -1
    outer loop
      vertex 3.86031 1.59899 0
      vertex 21.3658 2.37009 0
      vertex 16.4202 1.88294 0
    endloop
  endfacet
  facet normal -0.980785 -0.19509 0
    outer loop
      vertex 3.86031 1.59899 0
      vertex 4.17836 0 0
      vertex 3.86031 1.59899 4
    endloop
  endfacet
  facet normal -0.980785 -0.19509 0
    outer loop
      vertex 3.86031 1.59899 4
      vertex 4.17836 0 0
      vertex 4.17836 0 4
    endloop
  endfacet
  facet normal 0 0 -1
    outer loop
      vertex 4.17836 0 0
      vertex 15.1099 -0.837986 0
      vertex 16.4202 -1.88294 0
    endloop
  endfacet
  facet normal 0 0 -1
    outer loop
      vertex 4.17836 0 0
      vertex 15.1099 0.837986 0
      vertex 15.1099 -0.837986 0
    endloop
  endfacet
  facet normal 0 0 1
    outer loop
      vertex 5.52577 4.6 10.9
      vertex 12.5903 -4.6 10.9
      vertex 14.7258 -4.6 10.9
    endloop
  endfacet
  facet normal 0.707107 0.707107 0
    outer loop
      vertex 5.52577 4.6 10.9
      vertex 14.7258 -4.6 10.9
      vertex 14.7258 -4.6 6.4
    endloop
  endfacet
  facet normal 0 0 1
    outer loop
      vertex 5.52577 4.6 6.4
      vertex 13.65 0 6.4
      vertex 15.25 2.77128 6.4
    endloop
  endfacet
  facet normal 0 0 1
    outer loop
      vertex 5.52577 4.6 6.4
      vertex 14.7258 -4.6 6.4
      vertex 17.9505 -4.97985 6.4
    endloop
  endfacet
  facet normal 0 0 1
    outer loop
      vertex 5.52577 4.6 6.4
      vertex 15.25 -2.77128 6.4
      vertex 13.65 0 6.4
    endloop
  endfacet
  facet normal 0 0 1
    outer loop
      vertex 5.52577 4.6 6.4
      vertex 15.25 2.77128 6.4
      vertex 20.8263 3.19354 6.4
    endloop
  endfacet
  facet normal 0 0 1
    outer loop
      vertex 5.52577 4.6 6.4
      vertex 17.4647 5.06281 6.4
      vertex 16.9732 5.09851 6.4
    endloop
  endfacet
  facet normal 0 0 1
    outer loop
      vertex 5.52577 4.6 6.4
      vertex 17.9505 -4.97985 6.4
      vertex 15.25 -2.77128 6.4
    endloop
  endfacet
  facet normal 0 0 1
    outer loop
      vertex 5.52577 4.6 6.4
      vertex 17.9505 4.97985 6.4
      vertex 17.4647 5.06281 6.4
    endloop
  endfacet
  facet normal 0 0 1
    outer loop
      vertex 5.52577 4.6 6.4
      vertex 18.426 4.85039 6.4
      vertex 17.9505 4.97985 6.4
    endloop
  endfacet
  facet normal 0 0 1
    outer loop
      vertex 5.52577 4.6 6.4
      vertex 18.8868 4.67564 6.4
      vertex 18.426 4.85039 6.4
    endloop
  endfacet
  facet normal 0 0 1
    outer loop
      vertex 5.52577 4.6 6.4
      vertex 19.3285 4.45724 6.4
      vertex 18.8868 4.67564 6.4
    endloop
  endfacet
  facet normal 0 0 1
    outer loop
      vertex 5.52577 4.6 6.4
      vertex 19.7471 4.19722 6.4
      vertex 19.3285 4.45724 6.4
    endloop
  endfacet
  facet normal 0 0 1
    outer loop
      vertex 5.52577 4.6 6.4
      vertex 20.1387 3.89801 6.4
      vertex 19.7471 4.19722 6.4
    endloop
  endfacet
  facet normal 0 0 1
    outer loop
      vertex 5.52577 4.6 6.4
      vertex 20.4996 3.56241 6.4
      vertex 20.1387 3.89801 6.4
    endloop
  endfacet
  facet normal 0 0 1
    outer loop
      vertex 5.52577 4.6 6.4
      vertex 20.8263 3.19354 6.4
      vertex 20.4996 3.56241 6.4
    endloop
  endfacet
  facet normal 0.707107 0.707107 0
    outer loop
      vertex 5.52577 4.6 6.4
      vertex 5.52577 4.6 10.9
      vertex 14.7258 -4.6 6.4
    endloop
  endfacet
endsolid OpenSCAD_Model
