solid OpenSCAD_Model
  facet normal 0 0 1
    outer loop
      vertex -56.2352 5 5
      vertex 56.8986 3.39856 5
      vertex 56.2352 5 5
    endloop
  endfacet
  facet normal 0 0 1
    outer loop
      vertex -56.2352 5 5
      vertex 63.49 0 5
      vertex 56.8986 3.39856 5
    endloop
  endfacet
  facet normal 0 0 -1
    outer loop
      vertex -56.8986 3.39856 0
      vertex -56.2352 5 0
      vertex 74.99 0 0
    endloop
  endfacet
  facet normal -0.923879 0.382684 0
    outer loop
      vertex -56.8986 3.39856 0
      vertex -56.8986 3.39856 5
      vertex -56.2352 5 0
    endloop
  endfacet
  facet normal -0.923879 0.382684 0
    outer loop
      vertex -56.8986 3.39856 5
      vertex -56.2352 5 5
      vertex -56.2352 5 0
    endloop
  endfacet
  facet normal 0 0 1
    outer loop
      vertex -56.8986 3.39856 5
      vertex 63.49 0 5
      vertex -56.2352 5 5
    endloop
  endfacet
  facet normal -0.923879 -0.382684 0
    outer loop
      vertex -56.8986 6.60144 0
      vertex -56.2352 5 0
      vertex -56.8986 6.60144 5
    endloop
  endfacet
  facet normal 0 0 -1
    outer loop
      vertex -56.8986 6.60144 0
      vertex 74.99 0 0
      vertex -56.2352 5 0
    endloop
  endfacet
  facet normal -0.923879 -0.382684 0
    outer loop
      vertex -56.8986 6.60144 5
      vertex -56.2352 5 0
      vertex -56.2352 5 5
    endloop
  endfacet
  facet normal 0 0 1
    outer loop
      vertex -56.8986 6.60144 5
      vertex -56.2352 5 5
      vertex 56.2352 5 5
    endloop
  endfacet
  facet normal 0 0 1
    outer loop
      vertex -56.8986 6.60144 5
      vertex 56.2352 5 5
      vertex 56.8986 6.60144 5
    endloop
  endfacet
  facet normal 0 0 1
    outer loop
      vertex -56.8986 6.60144 5
      vertex 56.8986 6.60144 5
      vertex 58.5 7.26478 5
    endloop
  endfacet
  facet normal 0 0 1
    outer loop
      vertex -56.8986 6.60144 5
      vertex 58.5 7.26478 5
      vertex 62.8911 7.39127 5
    endloop
  endfacet
  facet normal 0 0 1
    outer loop
      vertex -56.8986 6.60144 5
      vertex 58.8736 9.98602 5
      vertex 58.3753 9.99845 5
    endloop
  endfacet
  facet normal 0 0 1
    outer loop
      vertex -56.8986 6.60144 5
      vertex 59.3682 9.92404 5
      vertex 58.8736 9.98602 5
    endloop
  endfacet
  facet normal 0 0 1
    outer loop
      vertex -56.8986 6.60144 5
      vertex 59.8542 9.81312 5
      vertex 59.3682 9.92404 5
    endloop
  endfacet
  facet normal 0 0 1
    outer loop
      vertex -56.8986 6.60144 5
      vertex 60.3267 9.65437 5
      vertex 59.8542 9.81312 5
    endloop
  endfacet
  facet normal 0 0 1
    outer loop
      vertex -56.8986 6.60144 5
      vertex 60.7811 9.44936 5
      vertex 60.3267 9.65437 5
    endloop
  endfacet
  facet normal 0 0 1
    outer loop
      vertex -56.8986 6.60144 5
      vertex 61.2127 9.20013 5
      vertex 60.7811 9.44936 5
    endloop
  endfacet
  facet normal 0 0 1
    outer loop
      vertex -56.8986 6.60144 5
      vertex 61.6174 8.90916 5
      vertex 61.2127 9.20013 5
    endloop
  endfacet
  facet normal 0 0 1
    outer loop
      vertex -56.8986 6.60144 5
      vertex 61.9912 8.57933 5
      vertex 61.6174 8.90916 5
    endloop
  endfacet
  facet normal 0 0 1
    outer loop
      vertex -56.8986 6.60144 5
      vertex 62.3302 8.21394 5
      vertex 61.9912 8.57933 5
    endloop
  endfacet
  facet normal 0 0 1
    outer loop
      vertex -56.8986 6.60144 5
      vertex 62.6312 7.8166 5
      vertex 62.3302 8.21394 5
    endloop
  endfacet
  facet normal 0 0 1
    outer loop
      vertex -56.8986 6.60144 5
      vertex 62.8911 7.39127 5
      vertex 62.6312 7.8166 5
    endloop
  endfacet
  facet normal 0 0 -1
    outer loop
      vertex -58.5 2.73522 0
      vertex -56.8986 3.39856 0
      vertex 74.99 0 0
    endloop
  endfacet
  facet normal -0.382684 0.923879 0
    outer loop
      vertex -58.5 2.73522 0
      vertex -58.5 2.73522 5
      vertex -56.8986 3.39856 0
    endloop
  endfacet
  facet normal -0.382684 0.923879 0
    outer loop
      vertex -58.5 2.73522 5
      vertex -56.8986 3.39856 5
      vertex -56.8986 3.39856 0
    endloop
  endfacet
  facet normal 0 0 1
    outer loop
      vertex -58.5 2.73522 5
      vertex 63.49 0 5
      vertex -56.8986 3.39856 5
    endloop
  endfacet
  facet normal -0.382684 -0.923879 0
    outer loop
      vertex -58.5 7.26478 0
      vertex -56.8986 6.60144 0
      vertex -58.5 7.26478 5
    endloop
  endfacet
  facet normal 0 0 -1
    outer loop
      vertex -58.5 7.26478 0
      vertex 74.99 0 0
      vertex -56.8986 6.60144 0
    endloop
  endfacet
  facet normal -0.382684 -0.923879 0
    outer loop
      vertex -58.5 7.26478 5
      vertex -56.8986 6.60144 0
      vertex -56.8986 6.60144 5
    endloop
  endfacet
  facet normal 0 0 1
    outer loop
      vertex -58.5 7.26478 5
      vertex -56.8986 6.60144 5
      vertex 58.3753 9.99845 5
    endloop
  endfacet
  facet normal 0 1 0
    outer loop
      vertex -58.6247 9.99845 0
      vertex -58.6247 9.99845 5
      vertex 58.3753 9.99845 0
    endloop
  endfacet
  facet normal 0 0 -1
    outer loop
      vertex -58.6247 9.99845 0
      vertex 56.2352 5 0
      vertex 56.8986 3.39856 0
    endloop
  endfacet
  facet normal 0 0 -1
    outer loop
      vertex -58.6247 9.99845 0
      vertex 56.8986 3.39856 0
      vertex 58.5 2.73522 0
    endloop
  endfacet
  facet normal 0 0 -1
    outer loop
      vertex -58.6247 9.99845 0
      vertex 56.8986 6.60144 0
      vertex 56.2352 5 0
    endloop
  endfacet
  facet normal 0 0 -1
    outer loop
      vertex -58.6247 9.99845 0
      vertex 58.3753 9.99845 0
      vertex 58.5 7.26478 0
    endloop
  endfacet
  facet normal 0 0 -1
    outer loop
      vertex -58.6247 9.99845 0
      vertex 58.5 2.73522 0
      vertex 74.99 0 0
    endloop
  endfacet
  facet normal 0 0 -1
    outer loop
      vertex -58.6247 9.99845 0
      vertex 58.5 7.26478 0
      vertex 56.8986 6.60144 0
    endloop
  endfacet
  facet normal 0 0 1
    outer loop
      vertex -58.6247 9.99845 5
      vertex -58.5 7.26478 5
      vertex 58.3753 9.99845 5
    endloop
  endfacet
  facet normal 0 1 0
    outer loop
      vertex -58.6247 9.99845 5
      vertex 58.3753 9.99845 5
      vertex 58.3753 9.99845 0
    endloop
  endfacet
  facet normal 0 0 -1
    outer loop
      vertex -59.1217 9.9612 0
      vertex -58.6247 9.99845 0
      vertex 74.99 0 0
    endloop
  endfacet
  facet normal -0.0747302 0.997204 0
    outer loop
      vertex -59.1217 9.9612 0
      vertex -59.1217 9.9612 5
      vertex -58.6247 9.99845 0
    endloop
  endfacet
  facet normal -0.0747302 0.997204 0
    outer loop
      vertex -59.1217 9.9612 5
      vertex -58.6247 9.99845 5
      vertex -58.6247 9.99845 0
    endloop
  endfacet
  facet normal 0 0 -1
    outer loop
      vertex -59.6126 9.87464 0
      vertex -59.1217 9.9612 0
      vertex 74.99 0 0
    endloop
  endfacet
  facet normal -0.173647 0.984808 0
    outer loop
      vertex -59.6126 9.87464 0
      vertex -59.6126 9.87464 5
      vertex -59.1217 9.9612 0
    endloop
  endfacet
  facet normal -0.173647 0.984808 0
    outer loop
      vertex -59.6126 9.87464 5
      vertex -59.1217 9.9612 5
      vertex -59.1217 9.9612 0
    endloop
  endfacet
  facet normal 0 0 -1
    outer loop
      vertex -60.0924 9.73964 0
      vertex -59.6126 9.87464 0
      vertex 74.99 0 0
    endloop
  endfacet
  facet normal -0.270841 0.962624 0
    outer loop
      vertex -60.0924 9.73964 0
      vertex -60.0924 9.73964 5
      vertex -59.6126 9.87464 0
    endloop
  endfacet
  facet normal -0.270841 0.962624 0
    outer loop
      vertex -60.0924 9.73964 5
      vertex -59.6126 9.87464 5
      vertex -59.6126 9.87464 0
    endloop
  endfacet
  facet normal 0.382684 0.923879 0
    outer loop
      vertex -60.1014 3.39856 0
      vertex -60.1014 3.39856 5
      vertex -58.5 2.73522 0
    endloop
  endfacet
  facet normal 0.382684 0.923879 0
    outer loop
      vertex -60.1014 3.39856 5
      vertex -58.5 2.73522 5
      vertex -58.5 2.73522 0
    endloop
  endfacet
  facet normal 0.382684 -0.923879 0
    outer loop
      vertex -60.1014 6.60144 0
      vertex -58.5 7.26478 0
      vertex -60.1014 6.60144 5
    endloop
  endfacet
  facet normal 0.382684 -0.923879 0
    outer loop
      vertex -60.1014 6.60144 5
      vertex -58.5 7.26478 0
      vertex -58.5 7.26478 5
    endloop
  endfacet
  facet normal 0 0 1
    outer loop
      vertex -60.1014 6.60144 5
      vertex -58.5 7.26478 5
      vertex -58.6247 9.99845 5
    endloop
  endfacet
  facet normal 0 0 -1
    outer loop
      vertex -60.5564 9.55753 0
      vertex -60.0924 9.73964 0
      vertex 74.99 0 0
    endloop
  endfacet
  facet normal -0.365341 0.930874 0
    outer loop
      vertex -60.5564 9.55753 0
      vertex -60.5564 9.55753 5
      vertex -60.0924 9.73964 0
    endloop
  endfacet
  facet normal -0.365341 0.930874 0
    outer loop
      vertex -60.5564 9.55753 5
      vertex -60.0924 9.73964 5
      vertex -60.0924 9.73964 0
    endloop
  endfacet
  facet normal 0.923879 -0.382684 0
    outer loop
      vertex -60.7648 5 0
      vertex -60.1014 6.60144 0
      vertex -60.7648 5 5
    endloop
  endfacet
  facet normal 0.923879 0.382684 0
    outer loop
      vertex -60.7648 5 0
      vertex -60.7648 5 5
      vertex -60.1014 3.39856 0
    endloop
  endfacet
  facet normal 0.923879 0.382684 0
    outer loop
      vertex -60.7648 5 5
      vertex -60.1014 3.39856 5
      vertex -60.1014 3.39856 0
    endloop
  endfacet
  facet normal 0.923879 -0.382684 0
    outer loop
      vertex -60.7648 5 5
      vertex -60.1014 6.60144 0
      vertex -60.1014 6.60144 5
    endloop
  endfacet
  facet normal 0 0 -1
    outer loop
      vertex -61 9.33013 0
      vertex -60.5564 9.55753 0
      vertex 74.99 0 0
    endloop
  endfacet
  facet normal -0.456211 0.889872 0
    outer loop
      vertex -61 9.33013 0
      vertex -61 9.33013 5
      vertex -60.5564 9.55753 0
    endloop
  endfacet
  facet normal -0.456211 0.889872 0
    outer loop
      vertex -61 9.33013 5
      vertex -60.5564 9.55753 5
      vertex -60.5564 9.55753 0
    endloop
  endfacet
  facet normal 0 0 -1
    outer loop
      vertex -61.4187 9.05969 0
      vertex -61 9.33013 0
      vertex 74.99 0 0
    endloop
  endfacet
  facet normal -0.542547 0.840026 0
    outer loop
      vertex -61.4187 9.05969 0
      vertex -61.4187 9.05969 5
      vertex -61 9.33013 0
    endloop
  endfacet
  facet normal -0.542547 0.840026 0
    outer loop
      vertex -61.4187 9.05969 5
      vertex -61 9.33013 5
      vertex -61 9.33013 0
    endloop
  endfacet
  facet normal 0 0 -1
    outer loop
      vertex -61.8084 8.74891 0
      vertex -61.4187 9.05969 0
      vertex 74.99 0 0
    endloop
  endfacet
  facet normal -0.62349 0.781832 0
    outer loop
      vertex -61.8084 8.74891 0
      vertex -61.8084 8.74891 5
      vertex -61.4187 9.05969 0
    endloop
  endfacet
  facet normal -0.62349 0.781832 0
    outer loop
      vertex -61.8084 8.74891 5
      vertex -61.4187 9.05969 5
      vertex -61.4187 9.05969 0
    endloop
  endfacet
  facet normal 0 0 -1
    outer loop
      vertex -62.1653 8.40086 0
      vertex -61.8084 8.74891 0
      vertex 74.99 0 0
    endloop
  endfacet
  facet normal -0.698237 0.715867 0
    outer loop
      vertex -62.1653 8.40086 0
      vertex -62.1653 8.40086 5
      vertex -61.8084 8.74891 0
    endloop
  endfacet
  facet normal -0.698237 0.715867 0
    outer loop
      vertex -62.1653 8.40086 5
      vertex -61.8084 8.74891 5
      vertex -61.8084 8.74891 0
    endloop
  endfacet
  facet normal 0 0 -1
    outer loop
      vertex -62.4857 8.01902 0
      vertex -62.1653 8.40086 0
      vertex 74.99 0 0
    endloop
  endfacet
  facet normal -0.766044 0.642788 0
    outer loop
      vertex -62.4857 8.01902 0
      vertex -62.4857 8.01902 5
      vertex -62.1653 8.40086 0
    endloop
  endfacet
  facet normal -0.766044 0.642788 0
    outer loop
      vertex -62.4857 8.01902 5
      vertex -62.1653 8.40086 5
      vertex -62.1653 8.40086 0
    endloop
  endfacet
  facet normal 0 0 -1
    outer loop
      vertex -62.7665 7.60718 0
      vertex -62.4857 8.01902 0
      vertex 74.99 0 0
    endloop
  endfacet
  facet normal -0.82624 0.563319 0
    outer loop
      vertex -62.7665 7.60718 0
      vertex -62.7665 7.60718 5
      vertex -62.4857 8.01902 0
    endloop
  endfacet
  facet normal 0 0 -1
    outer loop
      vertex -62.7665 7.60718 0
      vertex 74.99 0 0
      vertex -58.5 7.26478 0
    endloop
  endfacet
  facet normal -0.82624 0.563319 0
    outer loop
      vertex -62.7665 7.60718 5
      vertex -62.4857 8.01902 5
      vertex -62.4857 8.01902 0
    endloop
  endfacet
  facet normal 0 0 -1
    outer loop
      vertex -63.0048 7.16942 0
      vertex -58.5 7.26478 0
      vertex -60.1014 6.60144 0
    endloop
  endfacet
  facet normal 0 0 -1
    outer loop
      vertex -63.0048 7.16942 0
      vertex -62.7665 7.60718 0
      vertex -58.5 7.26478 0
    endloop
  endfacet
  facet normal -0.878221 0.478254 0
    outer loop
      vertex -63.0048 7.16942 0
      vertex -63.0048 7.16942 5
      vertex -62.7665 7.60718 0
    endloop
  endfacet
  facet normal -0.878221 0.478254 0
    outer loop
      vertex -63.0048 7.16942 5
      vertex -62.7665 7.60718 5
      vertex -62.7665 7.60718 0
    endloop
  endfacet
  facet normal 0 0 -1
    outer loop
      vertex -63.1985 6.7101 0
      vertex -60.1014 6.60144 0
      vertex -60.7648 5 0
    endloop
  endfacet
  facet normal 0 0 -1
    outer loop
      vertex -63.1985 6.7101 0
      vertex -63.0048 7.16942 0
      vertex -60.1014 6.60144 0
    endloop
  endfacet
  facet normal -0.921476 0.388435 0
    outer loop
      vertex -63.1985 6.7101 0
      vertex -63.1985 6.7101 5
      vertex -63.0048 7.16942 0
    endloop
  endfacet
  facet normal -0.921476 0.388435 0
    outer loop
      vertex -63.1985 6.7101 5
      vertex -63.0048 7.16942 5
      vertex -63.0048 7.16942 0
    endloop
  endfacet
  facet normal 0 0 -1
    outer loop
      vertex -63.3454 6.23379 0
      vertex -63.1985 6.7101 0
      vertex -60.7648 5 0
    endloop
  endfacet
  facet normal -0.955573 0.294754 0
    outer loop
      vertex -63.3454 6.23379 0
      vertex -63.3454 6.23379 5
      vertex -63.1985 6.7101 0
    endloop
  endfacet
  facet normal -0.955573 0.294754 0
    outer loop
      vertex -63.3454 6.23379 5
      vertex -63.1985 6.7101 5
      vertex -63.1985 6.7101 0
    endloop
  endfacet
  facet normal 0 0 -1
    outer loop
      vertex -63.4442 5.74521 0
      vertex -63.3454 6.23379 0
      vertex -60.7648 5 0
    endloop
  endfacet
  facet normal -0.980172 0.198147 0
    outer loop
      vertex -63.4442 5.74521 0
      vertex -63.4442 5.74521 5
      vertex -63.3454 6.23379 0
    endloop
  endfacet
  facet normal -0.980172 0.198147 0
    outer loop
      vertex -63.4442 5.74521 5
      vertex -63.3454 6.23379 5
      vertex -63.3454 6.23379 0
    endloop
  endfacet
  facet normal 1 0 0
    outer loop
      vertex -63.49 0 12
      vertex -63.49 5 5
      vertex -63.49 5 12
    endloop
  endfacet
  facet normal 0 0 1
    outer loop
      vertex -63.49 0 5
      vertex -58.5 2.73522 5
      vertex -60.1014 3.39856 5
    endloop
  endfacet
  facet normal 0 0 1
    outer loop
      vertex -63.49 0 5
      vertex -60.1014 3.39856 5
      vertex -63.49 5 5
    endloop
  endfacet
  facet normal 1 0 0
    outer loop
      vertex -63.49 0 5
      vertex -63.49 5 5
      vertex -63.49 0 12
    endloop
  endfacet
  facet normal 0 0 1
    outer loop
      vertex -63.49 0 5
      vertex 63.49 0 5
      vertex -58.5 2.73522 5
    endloop
  endfacet
  facet normal 0 -1 0
    outer loop
      vertex -63.49 0 5
      vertex 74.99 0 0
      vertex 63.49 0 5
    endloop
  endfacet
  facet normal 0 0 1
    outer loop
      vertex -63.49 5 5
      vertex -60.1014 3.39856 5
      vertex -60.7648 5 5
    endloop
  endfacet
  facet normal 0 0 -1
    outer loop
      vertex -63.4938 5.24923 0
      vertex -63.4442 5.74521 0
      vertex -60.7648 5 0
    endloop
  endfacet
  facet normal -0.995031 0.0995689 0
    outer loop
      vertex -63.4938 5.24923 0
      vertex -63.4938 5.24923 5
      vertex -63.4442 5.74521 0
    endloop
  endfacet
  facet normal 0 0 1
    outer loop
      vertex -63.4938 5.24923 5
      vertex -58.6247 9.99845 5
      vertex -59.1217 9.9612 5
    endloop
  endfacet
  facet normal 0 0 1
    outer loop
      vertex -63.4938 5.24923 5
      vertex -59.1217 9.9612 5
      vertex -59.6126 9.87464 5
    endloop
  endfacet
  facet normal 0 0 1
    outer loop
      vertex -63.4938 5.24923 5
      vertex -59.6126 9.87464 5
      vertex -60.0924 9.73964 5
    endloop
  endfacet
  facet normal 0 0 1
    outer loop
      vertex -63.4938 5.24923 5
      vertex -60.0924 9.73964 5
      vertex -60.5564 9.55753 5
    endloop
  endfacet
  facet normal 0 0 1
    outer loop
      vertex -63.4938 5.24923 5
      vertex -60.1014 6.60144 5
      vertex -58.6247 9.99845 5
    endloop
  endfacet
  facet normal 0 0 1
    outer loop
      vertex -63.4938 5.24923 5
      vertex -60.5564 9.55753 5
      vertex -61 9.33013 5
    endloop
  endfacet
  facet normal 0 0 1
    outer loop
      vertex -63.4938 5.24923 5
      vertex -60.7648 5 5
      vertex -60.1014 6.60144 5
    endloop
  endfacet
  facet normal 0 0 1
    outer loop
      vertex -63.4938 5.24923 5
      vertex -61 9.33013 5
      vertex -61.4187 9.05969 5
    endloop
  endfacet
  facet normal 0 0 1
    outer loop
      vertex -63.4938 5.24923 5
      vertex -61.4187 9.05969 5
      vertex -61.8084 8.74891 5
    endloop
  endfacet
  facet normal 0 0 1
    outer loop
      vertex -63.4938 5.24923 5
      vertex -61.8084 8.74891 5
      vertex -62.1653 8.40086 5
    endloop
  endfacet
  facet normal 0 0 1
    outer loop
      vertex -63.4938 5.24923 5
      vertex -62.1653 8.40086 5
      vertex -62.4857 8.01902 5
    endloop
  endfacet
  facet normal 0 0 1
    outer loop
      vertex -63.4938 5.24923 5
      vertex -62.4857 8.01902 5
      vertex -62.7665 7.60718 5
    endloop
  endfacet
  facet normal 0 0 1
    outer loop
      vertex -63.4938 5.24923 5
      vertex -62.7665 7.60718 5
      vertex -63.0048 7.16942 5
    endloop
  endfacet
  facet normal 0 0 1
    outer loop
      vertex -63.4938 5.24923 5
      vertex -63.0048 7.16942 5
      vertex -63.1985 6.7101 5
    endloop
  endfacet
  facet normal 0 0 1
    outer loop
      vertex -63.4938 5.24923 5
      vertex -63.1985 6.7101 5
      vertex -63.3454 6.23379 5
    endloop
  endfacet
  facet normal 0 0 1
    outer loop
      vertex -63.4938 5.24923 5
      vertex -63.3454 6.23379 5
      vertex -63.4442 5.74521 5
    endloop
  endfacet
  facet normal -0.995031 0.0995689 0
    outer loop
      vertex -63.4938 5.24923 5
      vertex -63.4442 5.74521 5
      vertex -63.4442 5.74521 0
    endloop
  endfacet
  facet normal 0 0 1
    outer loop
      vertex -63.4938 5.24923 5
      vertex -63.49 5 5
      vertex -60.7648 5 5
    endloop
  endfacet
  facet normal 0 0 -1
    outer loop
      vertex -63.5 5 0
      vertex -60.7648 5 0
      vertex -60.1014 3.39856 0
    endloop
  endfacet
  facet normal 0 0 -1
    outer loop
      vertex -63.5 5 0
      vertex -63.4938 5.24923 0
      vertex -60.7648 5 0
    endloop
  endfacet
  facet normal -0.999689 0.0249292 0
    outer loop
      vertex -63.5 5 0
      vertex -63.5 5 5
      vertex -63.4938 5.24923 0
    endloop
  endfacet
  facet normal 0 1 0
    outer loop
      vertex -63.5 5 5
      vertex -63.49 5 12
      vertex -63.49 5 5
    endloop
  endfacet
  facet normal 0 0 1
    outer loop
      vertex -63.5 5 5
      vertex -63.49 5 5
      vertex -63.4938 5.24923 5
    endloop
  endfacet
  facet normal -0.999689 0.0249292 0
    outer loop
      vertex -63.5 5 5
      vertex -63.4938 5.24923 5
      vertex -63.4938 5.24923 0
    endloop
  endfacet
  facet normal 0 -1 0
    outer loop
      vertex -67.01 0 5.509
      vertex -63.49 0 5
      vertex -66.95 0 6
    endloop
  endfacet
  facet normal -0.992616 2.69334e-17 0.121297
    outer loop
      vertex -67.01 0 5.509
      vertex -66.95 0 6
      vertex -67.01 5 5.509
    endloop
  endfacet
  facet normal 0 -1 0
    outer loop
      vertex -67.01 0 6.491
      vertex -66.95 0 6
      vertex -63.49 0 5
    endloop
  endfacet
  facet normal -0.992616 -2.69334e-17 -0.121297
    outer loop
      vertex -67.01 0 6.491
      vertex -67.01 5 6.491
      vertex -66.95 0 6
    endloop
  endfacet
  facet normal -0.992616 2.69334e-17 0.121297
    outer loop
      vertex -67.01 5 5.509
      vertex -66.95 0 6
      vertex -66.95 5 6
    endloop
  endfacet
  facet normal 0 1 0
    outer loop
      vertex -67.01 5 5.509
      vertex -66.95 5 6
      vertex -63.5 5 5
    endloop
  endfacet
  facet normal 0 1 0
    outer loop
      vertex -67.01 5 6.491
      vertex -63.5 5 5
      vertex -66.95 5 6
    endloop
  endfacet
  facet normal -0.992616 -2.69334e-17 -0.121297
    outer loop
      vertex -67.01 5 6.491
      vertex -66.95 5 6
      vertex -66.95 0 6
    endloop
  endfacet
  facet normal 0 -1 0
    outer loop
      vertex -67.185 0 5.047
      vertex -63.49 0 5
      vertex -67.01 0 5.509
    endloop
  endfacet
  facet normal -0.935159 7.86542e-17 0.354227
    outer loop
      vertex -67.185 0 5.047
      vertex -67.01 0 5.509
      vertex -67.185 5 5.047
    endloop
  endfacet
  facet normal 0 -1 0
    outer loop
      vertex -67.185 0 6.953
      vertex -67.01 0 6.491
      vertex -63.49 0 5
    endloop
  endfacet
  facet normal -0.935159 -7.86542e-17 -0.354227
    outer loop
      vertex -67.185 0 6.953
      vertex -67.185 5 6.953
      vertex -67.01 0 6.491
    endloop
  endfacet
  facet normal -0.935159 7.86542e-17 0.354227
    outer loop
      vertex -67.185 5 5.047
      vertex -67.01 0 5.509
      vertex -67.01 5 5.509
    endloop
  endfacet
  facet normal 0 1 0
    outer loop
      vertex -67.185 5 5.047
      vertex -67.01 5 5.509
      vertex -63.5 5 5
    endloop
  endfacet
  facet normal 0 1 0
    outer loop
      vertex -67.185 5 6.953
      vertex -63.5 5 5
      vertex -67.01 5 6.491
    endloop
  endfacet
  facet normal -0.935159 -7.86542e-17 -0.354227
    outer loop
      vertex -67.185 5 6.953
      vertex -67.01 5 6.491
      vertex -67.01 0 6.491
    endloop
  endfacet
  facet normal 0 -1 0
    outer loop
      vertex -67.466 0 4.641
      vertex -63.49 0 5
      vertex -67.185 0 5.047
    endloop
  endfacet
  facet normal -0.822265 1.26367e-16 0.569105
    outer loop
      vertex -67.466 0 4.641
      vertex -67.185 0 5.047
      vertex -67.466 5 4.641
    endloop
  endfacet
  facet normal 0 -1 0
    outer loop
      vertex -67.466 0 7.359
      vertex -67.185 0 6.953
      vertex -63.49 0 5
    endloop
  endfacet
  facet normal -0.822265 -1.26367e-16 -0.569105
    outer loop
      vertex -67.466 0 7.359
      vertex -67.466 5 7.359
      vertex -67.185 0 6.953
    endloop
  endfacet
  facet normal 0 1 0
    outer loop
      vertex -67.466 5 4.641
      vertex -63.5 5 5
      vertex -63.5 5 0
    endloop
  endfacet
  facet normal -0.822265 1.26367e-16 0.569105
    outer loop
      vertex -67.466 5 4.641
      vertex -67.185 0 5.047
      vertex -67.185 5 5.047
    endloop
  endfacet
  facet normal 0 1 0
    outer loop
      vertex -67.466 5 4.641
      vertex -67.185 5 5.047
      vertex -63.5 5 5
    endloop
  endfacet
  facet normal 0 1 0
    outer loop
      vertex -67.466 5 7.359
      vertex -63.5 5 5
      vertex -67.185 5 6.953
    endloop
  endfacet
  facet normal -0.822265 -1.26367e-16 -0.569105
    outer loop
      vertex -67.466 5 7.359
      vertex -67.185 5 6.953
      vertex -67.185 0 6.953
    endloop
  endfacet
  facet normal 0 -1 0
    outer loop
      vertex -67.559 0 7.441
      vertex -63.49 0 5
      vertex -67.55 0 7.45
    endloop
  endfacet
  facet normal 0 -1 0
    outer loop
      vertex -67.559 0 7.441
      vertex -67.466 0 7.359
      vertex -63.49 0 5
    endloop
  endfacet
  facet normal -0.707107 1.57009e-16 0.707107
    outer loop
      vertex -67.559 0 7.441
      vertex -67.55 0 7.45
      vertex -67.559 5 7.441
    endloop
  endfacet
  facet normal -0.661355 -1.6655e-16 -0.750073
    outer loop
      vertex -67.559 0 7.441
      vertex -67.559 5 7.441
      vertex -67.466 0 7.359
    endloop
  endfacet
  facet normal 0 1 0
    outer loop
      vertex -67.559 5 7.441
      vertex -63.5 5 5
      vertex -67.466 5 7.359
    endloop
  endfacet
  facet normal -0.661355 -1.6655e-16 -0.750073
    outer loop
      vertex -67.559 5 7.441
      vertex -67.466 5 7.359
      vertex -67.466 0 7.359
    endloop
  endfacet
  facet normal -0.707107 1.57009e-16 0.707107
    outer loop
      vertex -67.559 5 7.441
      vertex -67.55 0 7.45
      vertex -67.55 5 7.45
    endloop
  endfacet
  facet normal 0 1 0
    outer loop
      vertex -67.559 5 7.441
      vertex -67.55 5 7.45
      vertex -63.5 5 5
    endloop
  endfacet
  facet normal 0 -1 0
    outer loop
      vertex -67.835 0 4.313
      vertex -63.49 0 5
      vertex -67.466 0 4.641
    endloop
  endfacet
  facet normal -0.664364 1.65958e-16 0.747409
    outer loop
      vertex -67.835 0 4.313
      vertex -67.466 0 4.641
      vertex -67.835 5 4.313
    endloop
  endfacet
  facet normal -0.664364 1.65958e-16 0.747409
    outer loop
      vertex -67.835 5 4.313
      vertex -67.466 0 4.641
      vertex -67.466 5 4.641
    endloop
  endfacet
  facet normal 0 1 0
    outer loop
      vertex -67.835 5 4.313
      vertex -67.466 5 4.641
      vertex -63.5 5 0
    endloop
  endfacet
  facet normal 0 -1 0
    outer loop
      vertex -68.15 0 8.05
      vertex -63.49 0 5
      vertex -63.49 0 12
    endloop
  endfacet
  facet normal 0 -1 0
    outer loop
      vertex -68.15 0 8.05
      vertex -67.55 0 7.45
      vertex -63.49 0 5
    endloop
  endfacet
  facet normal -0.707107 -1.57009e-16 -0.707107
    outer loop
      vertex -68.15 0 8.05
      vertex -68.15 5 8.05
      vertex -67.55 0 7.45
    endloop
  endfacet
  facet normal 0 1 0
    outer loop
      vertex -68.15 5 8.05
      vertex -63.49 5 12
      vertex -63.5 5 5
    endloop
  endfacet
  facet normal 0 1 0
    outer loop
      vertex -68.15 5 8.05
      vertex -63.5 5 5
      vertex -67.55 5 7.45
    endloop
  endfacet
  facet normal -0.707107 -1.57009e-16 -0.707107
    outer loop
      vertex -68.15 5 8.05
      vertex -67.55 5 7.45
      vertex -67.55 0 7.45
    endloop
  endfacet
  facet normal -0.464913 1.96589e-16 0.885356
    outer loop
      vertex -68.273 0 4.083
      vertex -67.835 0 4.313
      vertex -68.273 5 4.083
    endloop
  endfacet
  facet normal -0.464913 1.96589e-16 0.885356
    outer loop
      vertex -68.273 5 4.083
      vertex -67.835 0 4.313
      vertex -67.835 5 4.313
    endloop
  endfacet
  facet normal 0 1 0
    outer loop
      vertex -68.273 5 4.083
      vertex -67.835 5 4.313
      vertex -63.5 5 0
    endloop
  endfacet
  facet normal -0.238726 2.15625e-16 0.971087
    outer loop
      vertex -68.753 0 3.965
      vertex -68.273 0 4.083
      vertex -68.753 5 3.965
    endloop
  endfacet
  facet normal -0.238726 2.15625e-16 0.971087
    outer loop
      vertex -68.753 5 3.965
      vertex -68.273 0 4.083
      vertex -68.273 5 4.083
    endloop
  endfacet
  facet normal 0 1 0
    outer loop
      vertex -68.753 5 3.965
      vertex -68.273 5 4.083
      vertex -63.5 5 0
    endloop
  endfacet
  facet normal 0 2.22045e-16 1
    outer loop
      vertex -69.247 0 3.965
      vertex -68.753 0 3.965
      vertex -69.247 5 3.965
    endloop
  endfacet
  facet normal 0 2.22045e-16 1
    outer loop
      vertex -69.247 5 3.965
      vertex -68.753 0 3.965
      vertex -68.753 5 3.965
    endloop
  endfacet
  facet normal 0 1 0
    outer loop
      vertex -69.247 5 3.965
      vertex -68.753 5 3.965
      vertex -63.5 5 0
    endloop
  endfacet
  facet normal 0.238726 2.15625e-16 0.971087
    outer loop
      vertex -69.727 0 4.083
      vertex -69.247 0 3.965
      vertex -69.727 5 4.083
    endloop
  endfacet
  facet normal 0.238726 2.15625e-16 0.971087
    outer loop
      vertex -69.727 5 4.083
      vertex -69.247 0 3.965
      vertex -69.247 5 3.965
    endloop
  endfacet
  facet normal 0 1 0
    outer loop
      vertex -69.727 5 4.083
      vertex -69.247 5 3.965
      vertex -63.5 5 0
    endloop
  endfacet
  facet normal 0 -2.22045e-16 -1
    outer loop
      vertex -69.85 0 8.05
      vertex -69.85 5 8.05
      vertex -68.15 0 8.05
    endloop
  endfacet
  facet normal 0 -2.22045e-16 -1
    outer loop
      vertex -69.85 5 8.05
      vertex -68.15 5 8.05
      vertex -68.15 0 8.05
    endloop
  endfacet
  facet normal 0.464913 1.96589e-16 0.885356
    outer loop
      vertex -70.165 0 4.313
      vertex -69.727 0 4.083
      vertex -70.165 5 4.313
    endloop
  endfacet
  facet normal 0.464913 1.96589e-16 0.885356
    outer loop
      vertex -70.165 5 4.313
      vertex -69.727 0 4.083
      vertex -69.727 5 4.083
    endloop
  endfacet
  facet normal 0 1 0
    outer loop
      vertex -70.165 5 4.313
      vertex -69.727 5 4.083
      vertex -63.5 5 0
    endloop
  endfacet
  facet normal 0.707107 1.57009e-16 0.707107
    outer loop
      vertex -70.45 0 7.45
      vertex -70.441 0 7.441
      vertex -70.45 5 7.45
    endloop
  endfacet
  facet normal 0.707107 -1.57009e-16 -0.707107
    outer loop
      vertex -70.45 0 7.45
      vertex -70.45 5 7.45
      vertex -69.85 0 8.05
    endloop
  endfacet
  facet normal 0.707107 -1.57009e-16 -0.707107
    outer loop
      vertex -70.45 5 7.45
      vertex -69.85 5 8.05
      vertex -69.85 0 8.05
    endloop
  endfacet
  facet normal 0.707107 1.57009e-16 0.707107
    outer loop
      vertex -70.45 5 7.45
      vertex -70.441 0 7.441
      vertex -70.441 5 7.441
    endloop
  endfacet
  facet normal 0.664364 1.65958e-16 0.747409
    outer loop
      vertex -70.534 0 4.641
      vertex -70.165 0 4.313
      vertex -70.534 5 4.641
    endloop
  endfacet
  facet normal 0 -1 0
    outer loop
      vertex -70.534 0 7.359
      vertex -70.441 0 7.441
      vertex -70.45 0 7.45
    endloop
  endfacet
  facet normal 0.661355 -1.6655e-16 -0.750073
    outer loop
      vertex -70.534 0 7.359
      vertex -70.534 5 7.359
      vertex -70.441 0 7.441
    endloop
  endfacet
  facet normal 0.664364 1.65958e-16 0.747409
    outer loop
      vertex -70.534 5 4.641
      vertex -70.165 0 4.313
      vertex -70.165 5 4.313
    endloop
  endfacet
  facet normal 0.661355 -1.6655e-16 -0.750073
    outer loop
      vertex -70.534 5 7.359
      vertex -70.441 5 7.441
      vertex -70.441 0 7.441
    endloop
  endfacet
  facet normal 0 1 0
    outer loop
      vertex -70.534 5 7.359
      vertex -70.45 5 7.45
      vertex -70.441 5 7.441
    endloop
  endfacet
  facet normal 0.822265 1.26367e-16 0.569105
    outer loop
      vertex -70.815 0 5.047
      vertex -70.534 0 4.641
      vertex -70.815 5 5.047
    endloop
  endfacet
  facet normal 0.822265 -1.26367e-16 -0.569105
    outer loop
      vertex -70.815 0 6.953
      vertex -70.815 5 6.953
      vertex -70.534 0 7.359
    endloop
  endfacet
  facet normal 0.822265 1.26367e-16 0.569105
    outer loop
      vertex -70.815 5 5.047
      vertex -70.534 0 4.641
      vertex -70.534 5 4.641
    endloop
  endfacet
  facet normal 0.822265 -1.26367e-16 -0.569105
    outer loop
      vertex -70.815 5 6.953
      vertex -70.534 5 7.359
      vertex -70.534 0 7.359
    endloop
  endfacet
  facet normal 0.935159 7.86542e-17 0.354227
    outer loop
      vertex -70.99 0 5.509
      vertex -70.815 0 5.047
      vertex -70.99 5 5.509
    endloop
  endfacet
  facet normal 0.935159 -7.86542e-17 -0.354227
    outer loop
      vertex -70.99 0 6.491
      vertex -70.99 5 6.491
      vertex -70.815 0 6.953
    endloop
  endfacet
  facet normal 0.935159 7.86542e-17 0.354227
    outer loop
      vertex -70.99 5 5.509
      vertex -70.815 0 5.047
      vertex -70.815 5 5.047
    endloop
  endfacet
  facet normal 0.935159 -7.86542e-17 -0.354227
    outer loop
      vertex -70.99 5 6.491
      vertex -70.815 5 6.953
      vertex -70.815 0 6.953
    endloop
  endfacet
  facet normal 0.992616 2.69334e-17 0.121297
    outer loop
      vertex -71.05 0 6
      vertex -70.99 0 5.509
      vertex -71.05 5 6
    endloop
  endfacet
  facet normal 0.992616 -2.69334e-17 -0.121297
    outer loop
      vertex -71.05 0 6
      vertex -71.05 5 6
      vertex -70.99 0 6.491
    endloop
  endfacet
  facet normal 0.992616 2.69334e-17 0.121297
    outer loop
      vertex -71.05 5 6
      vertex -70.99 0 5.509
      vertex -70.99 5 5.509
    endloop
  endfacet
  facet normal 0.992616 -2.69334e-17 -0.121297
    outer loop
      vertex -71.05 5 6
      vertex -70.99 5 6.491
      vertex -70.99 0 6.491
    endloop
  endfacet
  facet normal 0 0 -1
    outer loop
      vertex -74.99 0 0
      vertex -58.5 2.73522 0
      vertex 74.99 0 0
    endloop
  endfacet
  facet normal 0 0 -1
    outer loop
      vertex -74.99 0 0
      vertex -60.1014 3.39856 0
      vertex -58.5 2.73522 0
    endloop
  endfacet
  facet normal 0 -1 0
    outer loop
      vertex -74.99 0 0
      vertex -63.49 0 5
      vertex -67.835 0 4.313
    endloop
  endfacet
  facet normal 0 -1 0
    outer loop
      vertex -74.99 0 0
      vertex -67.835 0 4.313
      vertex -68.273 0 4.083
    endloop
  endfacet
  facet normal 0 -1 0
    outer loop
      vertex -74.99 0 0
      vertex -68.273 0 4.083
      vertex -68.753 0 3.965
    endloop
  endfacet
  facet normal 0 -1 0
    outer loop
      vertex -74.99 0 0
      vertex -68.753 0 3.965
      vertex -69.247 0 3.965
    endloop
  endfacet
  facet normal 0 -1 0
    outer loop
      vertex -74.99 0 0
      vertex -69.247 0 3.965
      vertex -69.727 0 4.083
    endloop
  endfacet
  facet normal 0 -1 0
    outer loop
      vertex -74.99 0 0
      vertex -69.727 0 4.083
      vertex -70.165 0 4.313
    endloop
  endfacet
  facet normal 0 -1 0
    outer loop
      vertex -74.99 0 0
      vertex -70.165 0 4.313
      vertex -70.534 0 4.641
    endloop
  endfacet
  facet normal 0 -1 0
    outer loop
      vertex -74.99 0 0
      vertex -70.534 0 4.641
      vertex -70.815 0 5.047
    endloop
  endfacet
  facet normal 0 -1 0
    outer loop
      vertex -74.99 0 0
      vertex -70.815 0 5.047
      vertex -70.99 0 5.509
    endloop
  endfacet
  facet normal 0 -1 0
    outer loop
      vertex -74.99 0 0
      vertex -70.99 0 5.509
      vertex -74.99 0 12
    endloop
  endfacet
  facet normal -1 0 0
    outer loop
      vertex -74.99 0 0
      vertex -74.99 0 12
      vertex -74.99 5 0
    endloop
  endfacet
  facet normal 0 0 -1
    outer loop
      vertex -74.99 0 0
      vertex -74.99 5 0
      vertex -60.1014 3.39856 0
    endloop
  endfacet
  facet normal 0 -1 0
    outer loop
      vertex -74.99 0 0
      vertex 74.99 0 0
      vertex -63.49 0 5
    endloop
  endfacet
  facet normal 0 0 1
    outer loop
      vertex -74.99 0 12
      vertex -63.49 0 12
      vertex -74.99 5 12
    endloop
  endfacet
  facet normal 0 -1 0
    outer loop
      vertex -74.99 0 12
      vertex -68.15 0 8.05
      vertex -63.49 0 12
    endloop
  endfacet
  facet normal 0 -1 0
    outer loop
      vertex -74.99 0 12
      vertex -69.85 0 8.05
      vertex -68.15 0 8.05
    endloop
  endfacet
  facet normal 0 -1 0
    outer loop
      vertex -74.99 0 12
      vertex -70.45 0 7.45
      vertex -69.85 0 8.05
    endloop
  endfacet
  facet normal 0 -1 0
    outer loop
      vertex -74.99 0 12
      vertex -70.534 0 7.359
      vertex -70.45 0 7.45
    endloop
  endfacet
  facet normal 0 -1 0
    outer loop
      vertex -74.99 0 12
      vertex -70.815 0 6.953
      vertex -70.534 0 7.359
    endloop
  endfacet
  facet normal 0 -1 0
    outer loop
      vertex -74.99 0 12
      vertex -70.99 0 5.509
      vertex -71.05 0 6
    endloop
  endfacet
  facet normal 0 -1 0
    outer loop
      vertex -74.99 0 12
      vertex -70.99 0 6.491
      vertex -70.815 0 6.953
    endloop
  endfacet
  facet normal 0 -1 0
    outer loop
      vertex -74.99 0 12
      vertex -71.05 0 6
      vertex -70.99 0 6.491
    endloop
  endfacet
  facet normal -1 0 0
    outer loop
      vertex -74.99 0 12
      vertex -74.99 5 12
      vertex -74.99 5 0
    endloop
  endfacet
  facet normal 0 0 -1
    outer loop
      vertex -74.99 5 0
      vertex -63.5 5 0
      vertex -60.1014 3.39856 0
    endloop
  endfacet
  facet normal 0 1 0
    outer loop
      vertex -74.99 5 0
      vertex -70.165 5 4.313
      vertex -63.5 5 0
    endloop
  endfacet
  facet normal 0 1 0
    outer loop
      vertex -74.99 5 0
      vertex -70.534 5 4.641
      vertex -70.165 5 4.313
    endloop
  endfacet
  facet normal 0 1 0
    outer loop
      vertex -74.99 5 0
      vertex -70.815 5 5.047
      vertex -70.534 5 4.641
    endloop
  endfacet
  facet normal 0 1 0
    outer loop
      vertex -74.99 5 0
      vertex -70.99 5 5.509
      vertex -70.815 5 5.047
    endloop
  endfacet
  facet normal 0 1 0
    outer loop
      vertex -74.99 5 0
      vertex -71.05 5 6
      vertex -70.99 5 5.509
    endloop
  endfacet
  facet normal 0 1 0
    outer loop
      vertex -74.99 5 0
      vertex -74.99 5 12
      vertex -71.05 5 6
    endloop
  endfacet
  facet normal 0 0 1
    outer loop
      vertex -74.99 5 12
      vertex -63.49 0 12
      vertex -63.49 5 12
    endloop
  endfacet
  facet normal 0 1 0
    outer loop
      vertex -74.99 5 12
      vertex -63.49 5 12
      vertex -68.15 5 8.05
    endloop
  endfacet
  facet normal 0 1 0
    outer loop
      vertex -74.99 5 12
      vertex -68.15 5 8.05
      vertex -69.85 5 8.05
    endloop
  endfacet
  facet normal 0 1 0
    outer loop
      vertex -74.99 5 12
      vertex -69.85 5 8.05
      vertex -70.45 5 7.45
    endloop
  endfacet
  facet normal 0 1 0
    outer loop
      vertex -74.99 5 12
      vertex -70.45 5 7.45
      vertex -70.534 5 7.359
    endloop
  endfacet
  facet normal 0 1 0
    outer loop
      vertex -74.99 5 12
      vertex -70.534 5 7.359
      vertex -70.815 5 6.953
    endloop
  endfacet
  facet normal 0 1 0
    outer loop
      vertex -74.99 5 12
      vertex -70.815 5 6.953
      vertex -70.99 5 6.491
    endloop
  endfacet
  facet normal 0 1 0
    outer loop
      vertex -74.99 5 12
      vertex -70.99 5 6.491
      vertex -71.05 5 6
    endloop
  endfacet
  facet normal 0.923879 0.382684 0
    outer loop
      vertex 56.2352 5 0
      vertex 56.2352 5 5
      vertex 56.8986 3.39856 0
    endloop
  endfacet
  facet normal 0.923879 -0.382684 0
    outer loop
      vertex 56.2352 5 0
      vertex 56.8986 6.60144 0
      vertex 56.2352 5 5
    endloop
  endfacet
  facet normal 0.923879 0.382684 0
    outer loop
      vertex 56.2352 5 5
      vertex 56.8986 3.39856 5
      vertex 56.8986 3.39856 0
    endloop
  endfacet
  facet normal 0.923879 -0.382684 0
    outer loop
      vertex 56.2352 5 5
      vertex 56.8986 6.60144 0
      vertex 56.8986 6.60144 5
    endloop
  endfacet
  facet normal 0.382684 0.923879 0
    outer loop
      vertex 56.8986 3.39856 0
      vertex 56.8986 3.39856 5
      vertex 58.5 2.73522 0
    endloop
  endfacet
  facet normal 0.382684 0.923879 0
    outer loop
      vertex 56.8986 3.39856 5
      vertex 58.5 2.73522 5
      vertex 58.5 2.73522 0
    endloop
  endfacet
  facet normal 0 0 1
    outer loop
      vertex 56.8986 3.39856 5
      vertex 63.49 0 5
      vertex 58.5 2.73522 5
    endloop
  endfacet
  facet normal 0.382684 -0.923879 0
    outer loop
      vertex 56.8986 6.60144 0
      vertex 58.5 7.26478 0
      vertex 56.8986 6.60144 5
    endloop
  endfacet
  facet normal 0.382684 -0.923879 0
    outer loop
      vertex 56.8986 6.60144 5
      vertex 58.5 7.26478 0
      vertex 58.5 7.26478 5
    endloop
  endfacet
  facet normal 0.0249309 0.999689 0
    outer loop
      vertex 58.3753 9.99845 0
      vertex 58.3753 9.99845 5
      vertex 58.8736 9.98602 0
    endloop
  endfacet
  facet normal 0 0 -1
    outer loop
      vertex 58.3753 9.99845 0
      vertex 58.8736 9.98602 0
      vertex 62.8911 7.39127 0
    endloop
  endfacet
  facet normal 0 0 -1
    outer loop
      vertex 58.3753 9.99845 0
      vertex 62.8911 7.39127 0
      vertex 63.1074 6.94217 0
    endloop
  endfacet
  facet normal 0 0 -1
    outer loop
      vertex 58.3753 9.99845 0
      vertex 63.1074 6.94217 0
      vertex 58.5 7.26478 0
    endloop
  endfacet
  facet normal 0.0249309 0.999689 0
    outer loop
      vertex 58.3753 9.99845 5
      vertex 58.8736 9.98602 5
      vertex 58.8736 9.98602 0
    endloop
  endfacet
  facet normal -0.382684 0.923879 0
    outer loop
      vertex 58.5 2.73522 0
      vertex 58.5 2.73522 5
      vertex 60.1014 3.39856 0
    endloop
  endfacet
  facet normal 0 0 -1
    outer loop
      vertex 58.5 2.73522 0
      vertex 60.1014 3.39856 0
      vertex 74.99 0 0
    endloop
  endfacet
  facet normal -0.382684 0.923879 0
    outer loop
      vertex 58.5 2.73522 5
      vertex 60.1014 3.39856 5
      vertex 60.1014 3.39856 0
    endloop
  endfacet
  facet normal 0 0 1
    outer loop
      vertex 58.5 2.73522 5
      vertex 63.49 0 5
      vertex 60.1014 3.39856 5
    endloop
  endfacet
  facet normal -0.382684 -0.923879 0
    outer loop
      vertex 58.5 7.26478 0
      vertex 60.1014 6.60144 0
      vertex 58.5 7.26478 5
    endloop
  endfacet
  facet normal 0 0 -1
    outer loop
      vertex 58.5 7.26478 0
      vertex 63.1074 6.94217 0
      vertex 60.1014 6.60144 0
    endloop
  endfacet
  facet normal -0.382684 -0.923879 0
    outer loop
      vertex 58.5 7.26478 5
      vertex 60.1014 6.60144 0
      vertex 60.1014 6.60144 5
    endloop
  endfacet
  facet normal 0 0 1
    outer loop
      vertex 58.5 7.26478 5
      vertex 60.1014 6.60144 5
      vertex 63.1074 6.94217 5
    endloop
  endfacet
  facet normal 0 0 1
    outer loop
      vertex 58.5 7.26478 5
      vertex 63.1074 6.94217 5
      vertex 62.8911 7.39127 5
    endloop
  endfacet
  facet normal 0.124343 0.992239 0
    outer loop
      vertex 58.8736 9.98602 0
      vertex 58.8736 9.98602 5
      vertex 59.3682 9.92404 0
    endloop
  endfacet
  facet normal 0 0 -1
    outer loop
      vertex 58.8736 9.98602 0
      vertex 59.3682 9.92404 0
      vertex 62.6312 7.8166 0
    endloop
  endfacet
  facet normal 0 0 -1
    outer loop
      vertex 58.8736 9.98602 0
      vertex 62.6312 7.8166 0
      vertex 62.8911 7.39127 0
    endloop
  endfacet
  facet normal 0.124343 0.992239 0
    outer loop
      vertex 58.8736 9.98602 5
      vertex 59.3682 9.92404 5
      vertex 59.3682 9.92404 0
    endloop
  endfacet
  facet normal 0.222522 0.974928 0
    outer loop
      vertex 59.3682 9.92404 0
      vertex 59.3682 9.92404 5
      vertex 59.8542 9.81312 0
    endloop
  endfacet
  facet normal 0 0 -1
    outer loop
      vertex 59.3682 9.92404 0
      vertex 59.8542 9.81312 0
      vertex 62.6312 7.8166 0
    endloop
  endfacet
  facet normal 0.222522 0.974928 0
    outer loop
      vertex 59.3682 9.92404 5
      vertex 59.8542 9.81312 5
      vertex 59.8542 9.81312 0
    endloop
  endfacet
  facet normal 0.318486 0.947928 0
    outer loop
      vertex 59.8542 9.81312 0
      vertex 59.8542 9.81312 5
      vertex 60.3267 9.65437 0
    endloop
  endfacet
  facet normal 0 0 -1
    outer loop
      vertex 59.8542 9.81312 0
      vertex 60.3267 9.65437 0
      vertex 62.3302 8.21394 0
    endloop
  endfacet
  facet normal 0 0 -1
    outer loop
      vertex 59.8542 9.81312 0
      vertex 62.3302 8.21394 0
      vertex 62.6312 7.8166 0
    endloop
  endfacet
  facet normal 0.318486 0.947928 0
    outer loop
      vertex 59.8542 9.81312 5
      vertex 60.3267 9.65437 5
      vertex 60.3267 9.65437 0
    endloop
  endfacet
  facet normal -0.923879 0.382684 0
    outer loop
      vertex 60.1014 3.39856 0
      vertex 60.1014 3.39856 5
      vertex 60.7648 5 0
    endloop
  endfacet
  facet normal 0 0 -1
    outer loop
      vertex 60.1014 3.39856 0
      vertex 60.7648 5 0
      vertex 74.99 0 0
    endloop
  endfacet
  facet normal -0.923879 0.382684 0
    outer loop
      vertex 60.1014 3.39856 5
      vertex 60.7648 5 5
      vertex 60.7648 5 0
    endloop
  endfacet
  facet normal 0 0 1
    outer loop
      vertex 60.1014 3.39856 5
      vertex 63.49 0 5
      vertex 63.49 5 5
    endloop
  endfacet
  facet normal 0 0 1
    outer loop
      vertex 60.1014 3.39856 5
      vertex 63.49 5 5
      vertex 60.7648 5 5
    endloop
  endfacet
  facet normal -0.923879 -0.382684 0
    outer loop
      vertex 60.1014 6.60144 0
      vertex 60.7648 5 0
      vertex 60.1014 6.60144 5
    endloop
  endfacet
  facet normal 0 0 -1
    outer loop
      vertex 60.1014 6.60144 0
      vertex 63.1074 6.94217 0
      vertex 63.2779 6.47378 0
    endloop
  endfacet
  facet normal 0 0 -1
    outer loop
      vertex 60.1014 6.60144 0
      vertex 63.2779 6.47378 0
      vertex 63.4009 5.99073 0
    endloop
  endfacet
  facet normal 0 0 -1
    outer loop
      vertex 60.1014 6.60144 0
      vertex 63.4009 5.99073 0
      vertex 63.4752 5.49784 0
    endloop
  endfacet
  facet normal 0 0 -1
    outer loop
      vertex 60.1014 6.60144 0
      vertex 63.4752 5.49784 0
      vertex 63.5 5 0
    endloop
  endfacet
  facet normal 0 0 -1
    outer loop
      vertex 60.1014 6.60144 0
      vertex 63.5 5 0
      vertex 60.7648 5 0
    endloop
  endfacet
  facet normal -0.923879 -0.382684 0
    outer loop
      vertex 60.1014 6.60144 5
      vertex 60.7648 5 0
      vertex 60.7648 5 5
    endloop
  endfacet
  facet normal 0 0 1
    outer loop
      vertex 60.1014 6.60144 5
      vertex 60.7648 5 5
      vertex 63.49 5 5
    endloop
  endfacet
  facet normal 0 0 1
    outer loop
      vertex 60.1014 6.60144 5
      vertex 63.2779 6.47378 5
      vertex 63.1074 6.94217 5
    endloop
  endfacet
  facet normal 0 0 1
    outer loop
      vertex 60.1014 6.60144 5
      vertex 63.4009 5.99073 5
      vertex 63.2779 6.47378 5
    endloop
  endfacet
  facet normal 0 0 1
    outer loop
      vertex 60.1014 6.60144 5
      vertex 63.4752 5.49784 5
      vertex 63.4009 5.99073 5
    endloop
  endfacet
  facet normal 0 0 1
    outer loop
      vertex 60.1014 6.60144 5
      vertex 63.49 5 5
      vertex 63.5 5 5
    endloop
  endfacet
  facet normal 0 0 1
    outer loop
      vertex 60.1014 6.60144 5
      vertex 63.5 5 5
      vertex 63.4752 5.49784 5
    endloop
  endfacet
  facet normal 0.411288 0.911506 0
    outer loop
      vertex 60.3267 9.65437 0
      vertex 60.3267 9.65437 5
      vertex 60.7811 9.44936 0
    endloop
  endfacet
  facet normal 0 0 -1
    outer loop
      vertex 60.3267 9.65437 0
      vertex 60.7811 9.44936 0
      vertex 61.9912 8.57933 0
    endloop
  endfacet
  facet normal 0 0 -1
    outer loop
      vertex 60.3267 9.65437 0
      vertex 61.9912 8.57933 0
      vertex 62.3302 8.21394 0
    endloop
  endfacet
  facet normal 0.411288 0.911506 0
    outer loop
      vertex 60.3267 9.65437 5
      vertex 60.7811 9.44936 5
      vertex 60.7811 9.44936 0
    endloop
  endfacet
  facet normal 0 0 -1
    outer loop
      vertex 60.7648 5 0
      vertex 63.5 5 0
      vertex 74.99 0 0
    endloop
  endfacet
  facet normal 0.499999 0.866026 0
    outer loop
      vertex 60.7811 9.44936 0
      vertex 60.7811 9.44936 5
      vertex 61.2127 9.20013 0
    endloop
  endfacet
  facet normal 0 0 -1
    outer loop
      vertex 60.7811 9.44936 0
      vertex 61.2127 9.20013 0
      vertex 61.6174 8.90916 0
    endloop
  endfacet
  facet normal 0 0 -1
    outer loop
      vertex 60.7811 9.44936 0
      vertex 61.6174 8.90916 0
      vertex 61.9912 8.57933 0
    endloop
  endfacet
  facet normal 0.499999 0.866026 0
    outer loop
      vertex 60.7811 9.44936 5
      vertex 61.2127 9.20013 5
      vertex 61.2127 9.20013 0
    endloop
  endfacet
  facet normal 0.583744 0.811937 0
    outer loop
      vertex 61.2127 9.20013 0
      vertex 61.2127 9.20013 5
      vertex 61.6174 8.90916 0
    endloop
  endfacet
  facet normal 0.583744 0.811937 0
    outer loop
      vertex 61.2127 9.20013 5
      vertex 61.6174 8.90916 5
      vertex 61.6174 8.90916 0
    endloop
  endfacet
  facet normal 0.661686 0.749781 0
    outer loop
      vertex 61.6174 8.90916 0
      vertex 61.6174 8.90916 5
      vertex 61.9912 8.57933 0
    endloop
  endfacet
  facet normal 0.661686 0.749781 0
    outer loop
      vertex 61.6174 8.90916 5
      vertex 61.9912 8.57933 5
      vertex 61.9912 8.57933 0
    endloop
  endfacet
  facet normal 0.733052 0.680173 0
    outer loop
      vertex 61.9912 8.57933 0
      vertex 61.9912 8.57933 5
      vertex 62.3302 8.21394 0
    endloop
  endfacet
  facet normal 0.733052 0.680173 0
    outer loop
      vertex 61.9912 8.57933 5
      vertex 62.3302 8.21394 5
      vertex 62.3302 8.21394 0
    endloop
  endfacet
  facet normal 0.797132 0.603805 0
    outer loop
      vertex 62.3302 8.21394 0
      vertex 62.3302 8.21394 5
      vertex 62.6312 7.8166 0
    endloop
  endfacet
  facet normal 0.797132 0.603805 0
    outer loop
      vertex 62.3302 8.21394 5
      vertex 62.6312 7.8166 5
      vertex 62.6312 7.8166 0
    endloop
  endfacet
  facet normal 0.853291 0.521436 0
    outer loop
      vertex 62.6312 7.8166 0
      vertex 62.6312 7.8166 5
      vertex 62.8911 7.39127 0
    endloop
  endfacet
  facet normal 0.853291 0.521436 0
    outer loop
      vertex 62.6312 7.8166 5
      vertex 62.8911 7.39127 5
      vertex 62.8911 7.39127 0
    endloop
  endfacet
  facet normal 0.900969 0.433883 0
    outer loop
      vertex 62.8911 7.39127 0
      vertex 62.8911 7.39127 5
      vertex 63.1074 6.94217 0
    endloop
  endfacet
  facet normal 0.900969 0.433883 0
    outer loop
      vertex 62.8911 7.39127 5
      vertex 63.1074 6.94217 5
      vertex 63.1074 6.94217 0
    endloop
  endfacet
  facet normal 0.939693 0.34202 0
    outer loop
      vertex 63.1074 6.94217 0
      vertex 63.1074 6.94217 5
      vertex 63.2779 6.47378 0
    endloop
  endfacet
  facet normal 0.939693 0.34202 0
    outer loop
      vertex 63.1074 6.94217 5
      vertex 63.2779 6.47378 5
      vertex 63.2779 6.47378 0
    endloop
  endfacet
  facet normal 0.969077 0.246757 0
    outer loop
      vertex 63.2779 6.47378 0
      vertex 63.2779 6.47378 5
      vertex 63.4009 5.99073 0
    endloop
  endfacet
  facet normal 0.969077 0.246757 0
    outer loop
      vertex 63.2779 6.47378 5
      vertex 63.4009 5.99073 5
      vertex 63.4009 5.99073 0
    endloop
  endfacet
  facet normal 0.988831 0.149043 0
    outer loop
      vertex 63.4009 5.99073 0
      vertex 63.4009 5.99073 5
      vertex 63.4752 5.49784 0
    endloop
  endfacet
  facet normal 0.988831 0.149043 0
    outer loop
      vertex 63.4009 5.99073 5
      vertex 63.4752 5.49784 5
      vertex 63.4752 5.49784 0
    endloop
  endfacet
  facet normal 0.998757 0.0498457 0
    outer loop
      vertex 63.4752 5.49784 0
      vertex 63.4752 5.49784 5
      vertex 63.5 5 0
    endloop
  endfacet
  facet normal 0.998757 0.0498457 0
    outer loop
      vertex 63.4752 5.49784 5
      vertex 63.5 5 5
      vertex 63.5 5 0
    endloop
  endfacet
  facet normal -1 0 0
    outer loop
      vertex 63.49 0 22
      vertex 63.49 5 22
      vertex 63.49 5 5
    endloop
  endfacet
  facet normal 0 -1 0
    outer loop
      vertex 63.49 0 22
      vertex 66.95 0 16
      vertex 67.01 0 16.491
    endloop
  endfacet
  facet normal 0 -1 0
    outer loop
      vertex 63.49 0 22
      vertex 67.01 0 15.509
      vertex 66.95 0 16
    endloop
  endfacet
  facet normal 0 -1 0
    outer loop
      vertex 63.49 0 22
      vertex 67.01 0 16.491
      vertex 67.185 0 16.953
    endloop
  endfacet
  facet normal 0 -1 0
    outer loop
      vertex 63.49 0 22
      vertex 67.185 0 16.953
      vertex 67.466 0 17.359
    endloop
  endfacet
  facet normal 0 -1 0
    outer loop
      vertex 63.49 0 22
      vertex 67.466 0 17.359
      vertex 67.55 0 17.45
    endloop
  endfacet
  facet normal 0 -1 0
    outer loop
      vertex 63.49 0 22
      vertex 67.55 0 17.45
      vertex 68.15 0 18.05
    endloop
  endfacet
  facet normal 0 -1 0
    outer loop
      vertex 63.49 0 22
      vertex 68.15 0 18.05
      vertex 74.99 0 22
    endloop
  endfacet
  facet normal 0 0 1
    outer loop
      vertex 63.49 0 22
      vertex 74.99 0 22
      vertex 63.49 5 22
    endloop
  endfacet
  facet normal -1 0 0
    outer loop
      vertex 63.49 0 5
      vertex 63.49 0 22
      vertex 63.49 5 5
    endloop
  endfacet
  facet normal 0 -1 0
    outer loop
      vertex 63.49 0 5
      vertex 67.01 0 15.509
      vertex 63.49 0 22
    endloop
  endfacet
  facet normal 0 -1 0
    outer loop
      vertex 63.49 0 5
      vertex 67.185 0 15.047
      vertex 67.01 0 15.509
    endloop
  endfacet
  facet normal 0 -1 0
    outer loop
      vertex 63.49 0 5
      vertex 67.466 0 14.641
      vertex 67.185 0 15.047
    endloop
  endfacet
  facet normal 0 -1 0
    outer loop
      vertex 63.49 0 5
      vertex 67.835 0 14.313
      vertex 67.466 0 14.641
    endloop
  endfacet
  facet normal 0 -1 0
    outer loop
      vertex 63.49 0 5
      vertex 68.273 0 14.083
      vertex 67.835 0 14.313
    endloop
  endfacet
  facet normal 0 -1 0
    outer loop
      vertex 63.49 0 5
      vertex 68.753 0 13.965
      vertex 68.273 0 14.083
    endloop
  endfacet
  facet normal 0 -1 0
    outer loop
      vertex 63.49 0 5
      vertex 69.247 0 13.965
      vertex 68.753 0 13.965
    endloop
  endfacet
  facet normal 0 -1 0
    outer loop
      vertex 63.49 0 5
      vertex 69.727 0 14.083
      vertex 69.247 0 13.965
    endloop
  endfacet
  facet normal 0 -1 0
    outer loop
      vertex 63.49 0 5
      vertex 70.165 0 14.313
      vertex 69.727 0 14.083
    endloop
  endfacet
  facet normal 0 -1 0
    outer loop
      vertex 63.49 0 5
      vertex 70.534 0 14.641
      vertex 70.165 0 14.313
    endloop
  endfacet
  facet normal 0 -1 0
    outer loop
      vertex 63.49 0 5
      vertex 74.99 0 0
      vertex 70.534 0 14.641
    endloop
  endfacet
  facet normal 0 1 0
    outer loop
      vertex 63.49 5 22
      vertex 66.95 5 16
      vertex 63.5 5 5
    endloop
  endfacet
  facet normal 0 1 0
    outer loop
      vertex 63.49 5 22
      vertex 67.01 5 16.491
      vertex 66.95 5 16
    endloop
  endfacet
  facet normal 0 1 0
    outer loop
      vertex 63.49 5 22
      vertex 67.185 5 16.953
      vertex 67.01 5 16.491
    endloop
  endfacet
  facet normal 0 1 0
    outer loop
      vertex 63.49 5 22
      vertex 67.466 5 17.359
      vertex 67.185 5 16.953
    endloop
  endfacet
  facet normal 0 1 0
    outer loop
      vertex 63.49 5 22
      vertex 67.55 5 17.45
      vertex 67.466 5 17.359
    endloop
  endfacet
  facet normal 0 1 0
    outer loop
      vertex 63.49 5 22
      vertex 68.15 5 18.05
      vertex 67.55 5 17.45
    endloop
  endfacet
  facet normal 0 0 1
    outer loop
      vertex 63.49 5 22
      vertex 74.99 0 22
      vertex 74.99 5 22
    endloop
  endfacet
  facet normal 0 1 0
    outer loop
      vertex 63.49 5 22
      vertex 74.99 5 22
      vertex 68.15 5 18.05
    endloop
  endfacet
  facet normal 0 1 0
    outer loop
      vertex 63.49 5 5
      vertex 63.49 5 22
      vertex 63.5 5 5
    endloop
  endfacet
  facet normal 0 1 0
    outer loop
      vertex 63.5 5 0
      vertex 63.5 5 5
      vertex 74.99 5 0
    endloop
  endfacet
  facet normal 0 0 -1
    outer loop
      vertex 63.5 5 0
      vertex 74.99 5 0
      vertex 74.99 0 0
    endloop
  endfacet
  facet normal 0 1 0
    outer loop
      vertex 63.5 5 5
      vertex 66.95 5 16
      vertex 67.01 5 15.509
    endloop
  endfacet
  facet normal 0 1 0
    outer loop
      vertex 63.5 5 5
      vertex 67.01 5 15.509
      vertex 67.185 5 15.047
    endloop
  endfacet
  facet normal 0 1 0
    outer loop
      vertex 63.5 5 5
      vertex 67.185 5 15.047
      vertex 67.466 5 14.641
    endloop
  endfacet
  facet normal 0 1 0
    outer loop
      vertex 63.5 5 5
      vertex 67.466 5 14.641
      vertex 67.835 5 14.313
    endloop
  endfacet
  facet normal 0 1 0
    outer loop
      vertex 63.5 5 5
      vertex 67.835 5 14.313
      vertex 68.273 5 14.083
    endloop
  endfacet
  facet normal 0 1 0
    outer loop
      vertex 63.5 5 5
      vertex 68.273 5 14.083
      vertex 68.753 5 13.965
    endloop
  endfacet
  facet normal 0 1 0
    outer loop
      vertex 63.5 5 5
      vertex 68.753 5 13.965
      vertex 69.247 5 13.965
    endloop
  endfacet
  facet normal 0 1 0
    outer loop
      vertex 63.5 5 5
      vertex 69.247 5 13.965
      vertex 69.727 5 14.083
    endloop
  endfacet
  facet normal 0 1 0
    outer loop
      vertex 63.5 5 5
      vertex 69.727 5 14.083
      vertex 74.99 5 0
    endloop
  endfacet
  facet normal 0.992616 -2.69334e-17 -0.121297
    outer loop
      vertex 66.95 0 16
      vertex 66.95 5 16
      vertex 67.01 0 16.491
    endloop
  endfacet
  facet normal 0.992616 2.69334e-17 0.121297
    outer loop
      vertex 66.95 0 16
      vertex 67.01 0 15.509
      vertex 66.95 5 16
    endloop
  endfacet
  facet normal 0.992616 2.69334e-17 0.121297
    outer loop
      vertex 66.95 5 16
      vertex 67.01 0 15.509
      vertex 67.01 5 15.509
    endloop
  endfacet
  facet normal 0.992616 -2.69334e-17 -0.121297
    outer loop
      vertex 66.95 5 16
      vertex 67.01 5 16.491
      vertex 67.01 0 16.491
    endloop
  endfacet
  facet normal 0.935159 7.86542e-17 0.354227
    outer loop
      vertex 67.01 0 15.509
      vertex 67.185 0 15.047
      vertex 67.01 5 15.509
    endloop
  endfacet
  facet normal 0.935159 -7.86542e-17 -0.354227
    outer loop
      vertex 67.01 0 16.491
      vertex 67.01 5 16.491
      vertex 67.185 0 16.953
    endloop
  endfacet
  facet normal 0.935159 7.86542e-17 0.354227
    outer loop
      vertex 67.01 5 15.509
      vertex 67.185 0 15.047
      vertex 67.185 5 15.047
    endloop
  endfacet
  facet normal 0.935159 -7.86542e-17 -0.354227
    outer loop
      vertex 67.01 5 16.491
      vertex 67.185 5 16.953
      vertex 67.185 0 16.953
    endloop
  endfacet
  facet normal 0.822265 1.26367e-16 0.569105
    outer loop
      vertex 67.185 0 15.047
      vertex 67.466 0 14.641
      vertex 67.185 5 15.047
    endloop
  endfacet
  facet normal 0.822265 -1.26367e-16 -0.569105
    outer loop
      vertex 67.185 0 16.953
      vertex 67.185 5 16.953
      vertex 67.466 0 17.359
    endloop
  endfacet
  facet normal 0.822265 1.26367e-16 0.569105
    outer loop
      vertex 67.185 5 15.047
      vertex 67.466 0 14.641
      vertex 67.466 5 14.641
    endloop
  endfacet
  facet normal 0.822265 -1.26367e-16 -0.569105
    outer loop
      vertex 67.185 5 16.953
      vertex 67.466 5 17.359
      vertex 67.466 0 17.359
    endloop
  endfacet
  facet normal 0.664364 1.65958e-16 0.747409
    outer loop
      vertex 67.466 0 14.641
      vertex 67.835 0 14.313
      vertex 67.466 5 14.641
    endloop
  endfacet
  facet normal 0.661355 -1.6655e-16 -0.750073
    outer loop
      vertex 67.466 0 17.359
      vertex 67.466 5 17.359
      vertex 67.559 0 17.441
    endloop
  endfacet
  facet normal 0 -1 0
    outer loop
      vertex 67.466 0 17.359
      vertex 67.559 0 17.441
      vertex 67.55 0 17.45
    endloop
  endfacet
  facet normal 0.664364 1.65958e-16 0.747409
    outer loop
      vertex 67.466 5 14.641
      vertex 67.835 0 14.313
      vertex 67.835 5 14.313
    endloop
  endfacet
  facet normal 0 1 0
    outer loop
      vertex 67.466 5 17.359
      vertex 67.55 5 17.45
      vertex 67.559 5 17.441
    endloop
  endfacet
  facet normal 0.661355 -1.6655e-16 -0.750073
    outer loop
      vertex 67.466 5 17.359
      vertex 67.559 5 17.441
      vertex 67.559 0 17.441
    endloop
  endfacet
  facet normal 0.707107 -1.57009e-16 -0.707107
    outer loop
      vertex 67.55 0 17.45
      vertex 67.55 5 17.45
      vertex 68.15 0 18.05
    endloop
  endfacet
  facet normal 0.707107 1.57009e-16 0.707107
    outer loop
      vertex 67.55 0 17.45
      vertex 67.559 0 17.441
      vertex 67.55 5 17.45
    endloop
  endfacet
  facet normal 0.707107 1.57009e-16 0.707107
    outer loop
      vertex 67.55 5 17.45
      vertex 67.559 0 17.441
      vertex 67.559 5 17.441
    endloop
  endfacet
  facet normal 0.707107 -1.57009e-16 -0.707107
    outer loop
      vertex 67.55 5 17.45
      vertex 68.15 5 18.05
      vertex 68.15 0 18.05
    endloop
  endfacet
  facet normal 0.464913 1.96589e-16 0.885356
    outer loop
      vertex 67.835 0 14.313
      vertex 68.273 0 14.083
      vertex 67.835 5 14.313
    endloop
  endfacet
  facet normal 0.464913 1.96589e-16 0.885356
    outer loop
      vertex 67.835 5 14.313
      vertex 68.273 0 14.083
      vertex 68.273 5 14.083
    endloop
  endfacet
  facet normal 0 -2.22045e-16 -1
    outer loop
      vertex 68.15 0 18.05
      vertex 68.15 5 18.05
      vertex 69.85 0 18.05
    endloop
  endfacet
  facet normal 0 -1 0
    outer loop
      vertex 68.15 0 18.05
      vertex 69.85 0 18.05
      vertex 74.99 0 22
    endloop
  endfacet
  facet normal 0 -2.22045e-16 -1
    outer loop
      vertex 68.15 5 18.05
      vertex 69.85 5 18.05
      vertex 69.85 0 18.05
    endloop
  endfacet
  facet normal 0 1 0
    outer loop
      vertex 68.15 5 18.05
      vertex 74.99 5 22
      vertex 69.85 5 18.05
    endloop
  endfacet
  facet normal 0.238726 2.15625e-16 0.971087
    outer loop
      vertex 68.273 0 14.083
      vertex 68.753 0 13.965
      vertex 68.273 5 14.083
    endloop
  endfacet
  facet normal 0.238726 2.15625e-16 0.971087
    outer loop
      vertex 68.273 5 14.083
      vertex 68.753 0 13.965
      vertex 68.753 5 13.965
    endloop
  endfacet
  facet normal 0 2.22045e-16 1
    outer loop
      vertex 68.753 0 13.965
      vertex 69.247 0 13.965
      vertex 68.753 5 13.965
    endloop
  endfacet
  facet normal 0 2.22045e-16 1
    outer loop
      vertex 68.753 5 13.965
      vertex 69.247 0 13.965
      vertex 69.247 5 13.965
    endloop
  endfacet
  facet normal -0.238726 2.15625e-16 0.971087
    outer loop
      vertex 69.247 0 13.965
      vertex 69.727 0 14.083
      vertex 69.247 5 13.965
    endloop
  endfacet
  facet normal -0.238726 2.15625e-16 0.971087
    outer loop
      vertex 69.247 5 13.965
      vertex 69.727 0 14.083
      vertex 69.727 5 14.083
    endloop
  endfacet
  facet normal -0.464913 1.96589e-16 0.885356
    outer loop
      vertex 69.727 0 14.083
      vertex 70.165 0 14.313
      vertex 69.727 5 14.083
    endloop
  endfacet
  facet normal -0.464913 1.96589e-16 0.885356
    outer loop
      vertex 69.727 5 14.083
      vertex 70.165 0 14.313
      vertex 70.165 5 14.313
    endloop
  endfacet
  facet normal 0 1 0
    outer loop
      vertex 69.727 5 14.083
      vertex 70.165 5 14.313
      vertex 74.99 5 0
    endloop
  endfacet
  facet normal -0.707107 -1.57009e-16 -0.707107
    outer loop
      vertex 69.85 0 18.05
      vertex 69.85 5 18.05
      vertex 70.45 0 17.45
    endloop
  endfacet
  facet normal 0 -1 0
    outer loop
      vertex 69.85 0 18.05
      vertex 70.45 0 17.45
      vertex 74.99 0 22
    endloop
  endfacet
  facet normal -0.707107 -1.57009e-16 -0.707107
    outer loop
      vertex 69.85 5 18.05
      vertex 70.45 5 17.45
      vertex 70.45 0 17.45
    endloop
  endfacet
  facet normal 0 1 0
    outer loop
      vertex 69.85 5 18.05
      vertex 74.99 5 22
      vertex 70.45 5 17.45
    endloop
  endfacet
  facet normal -0.664364 1.65958e-16 0.747409
    outer loop
      vertex 70.165 0 14.313
      vertex 70.534 0 14.641
      vertex 70.165 5 14.313
    endloop
  endfacet
  facet normal -0.664364 1.65958e-16 0.747409
    outer loop
      vertex 70.165 5 14.313
      vertex 70.534 0 14.641
      vertex 70.534 5 14.641
    endloop
  endfacet
  facet normal 0 1 0
    outer loop
      vertex 70.165 5 14.313
      vertex 70.534 5 14.641
      vertex 74.99 5 0
    endloop
  endfacet
  facet normal -0.661355 -1.6655e-16 -0.750073
    outer loop
      vertex 70.441 0 17.441
      vertex 70.441 5 17.441
      vertex 70.534 0 17.359
    endloop
  endfacet
  facet normal -0.707107 1.57009e-16 0.707107
    outer loop
      vertex 70.441 0 17.441
      vertex 70.45 0 17.45
      vertex 70.441 5 17.441
    endloop
  endfacet
  facet normal 0 -1 0
    outer loop
      vertex 70.441 0 17.441
      vertex 70.534 0 17.359
      vertex 70.45 0 17.45
    endloop
  endfacet
  facet normal -0.707107 1.57009e-16 0.707107
    outer loop
      vertex 70.441 5 17.441
      vertex 70.45 0 17.45
      vertex 70.45 5 17.45
    endloop
  endfacet
  facet normal 0 1 0
    outer loop
      vertex 70.441 5 17.441
      vertex 70.45 5 17.45
      vertex 70.534 5 17.359
    endloop
  endfacet
  facet normal -0.661355 -1.6655e-16 -0.750073
    outer loop
      vertex 70.441 5 17.441
      vertex 70.534 5 17.359
      vertex 70.534 0 17.359
    endloop
  endfacet
  facet normal 0 -1 0
    outer loop
      vertex 70.45 0 17.45
      vertex 70.534 0 17.359
      vertex 74.99 0 22
    endloop
  endfacet
  facet normal 0 1 0
    outer loop
      vertex 70.45 5 17.45
      vertex 74.99 5 22
      vertex 70.534 5 17.359
    endloop
  endfacet
  facet normal -0.822265 1.26367e-16 0.569105
    outer loop
      vertex 70.534 0 14.641
      vertex 70.815 0 15.047
      vertex 70.534 5 14.641
    endloop
  endfacet
  facet normal 0 -1 0
    outer loop
      vertex 70.534 0 14.641
      vertex 74.99 0 0
      vertex 70.815 0 15.047
    endloop
  endfacet
  facet normal -0.822265 -1.26367e-16 -0.569105
    outer loop
      vertex 70.534 0 17.359
      vertex 70.534 5 17.359
      vertex 70.815 0 16.953
    endloop
  endfacet
  facet normal 0 -1 0
    outer loop
      vertex 70.534 0 17.359
      vertex 70.815 0 16.953
      vertex 74.99 0 22
    endloop
  endfacet
  facet normal -0.822265 1.26367e-16 0.569105
    outer loop
      vertex 70.534 5 14.641
      vertex 70.815 0 15.047
      vertex 70.815 5 15.047
    endloop
  endfacet
  facet normal 0 1 0
    outer loop
      vertex 70.534 5 14.641
      vertex 70.815 5 15.047
      vertex 74.99 5 0
    endloop
  endfacet
  facet normal -0.822265 -1.26367e-16 -0.569105
    outer loop
      vertex 70.534 5 17.359
      vertex 70.815 5 16.953
      vertex 70.815 0 16.953
    endloop
  endfacet
  facet normal 0 1 0
    outer loop
      vertex 70.534 5 17.359
      vertex 74.99 5 22
      vertex 70.815 5 16.953
    endloop
  endfacet
  facet normal -0.935159 7.86542e-17 0.354227
    outer loop
      vertex 70.815 0 15.047
      vertex 70.99 0 15.509
      vertex 70.815 5 15.047
    endloop
  endfacet
  facet normal 0 -1 0
    outer loop
      vertex 70.815 0 15.047
      vertex 74.99 0 0
      vertex 70.99 0 15.509
    endloop
  endfacet
  facet normal -0.935159 -7.86542e-17 -0.354227
    outer loop
      vertex 70.815 0 16.953
      vertex 70.815 5 16.953
      vertex 70.99 0 16.491
    endloop
  endfacet
  facet normal 0 -1 0
    outer loop
      vertex 70.815 0 16.953
      vertex 70.99 0 16.491
      vertex 74.99 0 22
    endloop
  endfacet
  facet normal -0.935159 7.86542e-17 0.354227
    outer loop
      vertex 70.815 5 15.047
      vertex 70.99 0 15.509
      vertex 70.99 5 15.509
    endloop
  endfacet
  facet normal 0 1 0
    outer loop
      vertex 70.815 5 15.047
      vertex 70.99 5 15.509
      vertex 74.99 5 22
    endloop
  endfacet
  facet normal 0 1 0
    outer loop
      vertex 70.815 5 15.047
      vertex 74.99 5 22
      vertex 74.99 5 0
    endloop
  endfacet
  facet normal -0.935159 -7.86542e-17 -0.354227
    outer loop
      vertex 70.815 5 16.953
      vertex 70.99 5 16.491
      vertex 70.99 0 16.491
    endloop
  endfacet
  facet normal 0 1 0
    outer loop
      vertex 70.815 5 16.953
      vertex 74.99 5 22
      vertex 70.99 5 16.491
    endloop
  endfacet
  facet normal -0.992616 2.69334e-17 0.121297
    outer loop
      vertex 70.99 0 15.509
      vertex 71.05 0 16
      vertex 70.99 5 15.509
    endloop
  endfacet
  facet normal 0 -1 0
    outer loop
      vertex 70.99 0 15.509
      vertex 74.99 0 0
      vertex 71.05 0 16
    endloop
  endfacet
  facet normal -0.992616 -2.69334e-17 -0.121297
    outer loop
      vertex 70.99 0 16.491
      vertex 70.99 5 16.491
      vertex 71.05 0 16
    endloop
  endfacet
  facet normal 0 -1 0
    outer loop
      vertex 70.99 0 16.491
      vertex 71.05 0 16
      vertex 74.99 0 22
    endloop
  endfacet
  facet normal -0.992616 2.69334e-17 0.121297
    outer loop
      vertex 70.99 5 15.509
      vertex 71.05 0 16
      vertex 71.05 5 16
    endloop
  endfacet
  facet normal 0 1 0
    outer loop
      vertex 70.99 5 15.509
      vertex 71.05 5 16
      vertex 74.99 5 22
    endloop
  endfacet
  facet normal -0.992616 -2.69334e-17 -0.121297
    outer loop
      vertex 70.99 5 16.491
      vertex 71.05 5 16
      vertex 71.05 0 16
    endloop
  endfacet
  facet normal 0 1 0
    outer loop
      vertex 70.99 5 16.491
      vertex 74.99 5 22
      vertex 71.05 5 16
    endloop
  endfacet
  facet normal 0 -1 0
    outer loop
      vertex 71.05 0 16
      vertex 74.99 0 0
      vertex 74.99 0 22
    endloop
  endfacet
  facet normal 1 0 0
    outer loop
      vertex 74.99 0 0
      vertex 74.99 5 0
      vertex 74.99 0 22
    endloop
  endfacet
  facet normal 1 0 0
    outer loop
      vertex 74.99 0 22
      vertex 74.99 5 0
      vertex 74.99 5 22
    endloop
  endfacet
endsolid OpenSCAD_Model
