solid OpenSCAD_Model
  facet normal 0 2.22045e-16 1
    outer loop
      vertex -0.247 0 1.965
      vertex 0.247 0 1.965
      vertex -0.247 5 1.965
    endloop
  endfacet
  facet normal 0 2.22045e-16 1
    outer loop
      vertex -0.247 5 1.965
      vertex 0.247 0 1.965
      vertex 0.247 5 1.965
    endloop
  endfacet
  facet normal 0 1 0
    outer loop
      vertex -0.247 5 1.965
      vertex 0.247 5 1.965
      vertex 6.3 5 0
    endloop
  endfacet
  facet normal 0.238726 2.15625e-16 0.971087
    outer loop
      vertex -0.727 0 2.083
      vertex -0.247 0 1.965
      vertex -0.727 5 2.083
    endloop
  endfacet
  facet normal 0.238726 2.15625e-16 0.971087
    outer loop
      vertex -0.727 5 2.083
      vertex -0.247 0 1.965
      vertex -0.247 5 1.965
    endloop
  endfacet
  facet normal 0 1 0
    outer loop
      vertex -0.727 5 2.083
      vertex -0.247 5 1.965
      vertex 6.3 5 0
    endloop
  endfacet
  facet normal 0 -2.22045e-16 -1
    outer loop
      vertex -0.85 0 6.05
      vertex -0.85 5 6.05
      vertex 0.85 0 6.05
    endloop
  endfacet
  facet normal 0 -1 0
    outer loop
      vertex -0.85 0 6.05
      vertex 0.85 0 6.05
      vertex 4 0 8
    endloop
  endfacet
  facet normal 0 -2.22045e-16 -1
    outer loop
      vertex -0.85 5 6.05
      vertex 0.85 5 6.05
      vertex 0.85 0 6.05
    endloop
  endfacet
  facet normal 0.464913 1.96589e-16 0.885356
    outer loop
      vertex -1.165 0 2.313
      vertex -0.727 0 2.083
      vertex -1.165 5 2.313
    endloop
  endfacet
  facet normal 0.464913 1.96589e-16 0.885356
    outer loop
      vertex -1.165 5 2.313
      vertex -0.727 0 2.083
      vertex -0.727 5 2.083
    endloop
  endfacet
  facet normal 0.707107 1.57009e-16 0.707107
    outer loop
      vertex -1.45 0 5.45
      vertex -1.441 0 5.441
      vertex -1.45 5 5.45
    endloop
  endfacet
  facet normal 0.707107 -1.57009e-16 -0.707107
    outer loop
      vertex -1.45 0 5.45
      vertex -1.45 5 5.45
      vertex -0.85 0 6.05
    endloop
  endfacet
  facet normal 0.707107 -1.57009e-16 -0.707107
    outer loop
      vertex -1.45 5 5.45
      vertex -0.85 5 6.05
      vertex -0.85 0 6.05
    endloop
  endfacet
  facet normal 0.707107 1.57009e-16 0.707107
    outer loop
      vertex -1.45 5 5.45
      vertex -1.441 0 5.441
      vertex -1.441 5 5.441
    endloop
  endfacet
  facet normal 0.664364 1.65958e-16 0.747409
    outer loop
      vertex -1.534 0 2.641
      vertex -1.165 0 2.313
      vertex -1.534 5 2.641
    endloop
  endfacet
  facet normal 0.661355 -1.6655e-16 -0.750073
    outer loop
      vertex -1.534 0 5.359
      vertex -1.534 5 5.359
      vertex -1.441 0 5.441
    endloop
  endfacet
  facet normal 0.664364 1.65958e-16 0.747409
    outer loop
      vertex -1.534 5 2.641
      vertex -1.165 0 2.313
      vertex -1.165 5 2.313
    endloop
  endfacet
  facet normal 0.661355 -1.6655e-16 -0.750073
    outer loop
      vertex -1.534 5 5.359
      vertex -1.441 5 5.441
      vertex -1.441 0 5.441
    endloop
  endfacet
  facet normal 0.822265 1.26367e-16 0.569105
    outer loop
      vertex -1.815 0 3.047
      vertex -1.534 0 2.641
      vertex -1.815 5 3.047
    endloop
  endfacet
  facet normal 0.822265 -1.26367e-16 -0.569105
    outer loop
      vertex -1.815 0 4.953
      vertex -1.815 5 4.953
      vertex -1.534 0 5.359
    endloop
  endfacet
  facet normal 0.822265 1.26367e-16 0.569105
    outer loop
      vertex -1.815 5 3.047
      vertex -1.534 0 2.641
      vertex -1.534 5 2.641
    endloop
  endfacet
  facet normal 0.822265 -1.26367e-16 -0.569105
    outer loop
      vertex -1.815 5 4.953
      vertex -1.534 5 5.359
      vertex -1.534 0 5.359
    endloop
  endfacet
  facet normal 0.935159 7.86542e-17 0.354227
    outer loop
      vertex -1.99 0 3.509
      vertex -1.815 0 3.047
      vertex -1.99 5 3.509
    endloop
  endfacet
  facet normal 0.935159 -7.86542e-17 -0.354227
    outer loop
      vertex -1.99 0 4.491
      vertex -1.99 5 4.491
      vertex -1.815 0 4.953
    endloop
  endfacet
  facet normal 0.935159 7.86542e-17 0.354227
    outer loop
      vertex -1.99 5 3.509
      vertex -1.815 0 3.047
      vertex -1.815 5 3.047
    endloop
  endfacet
  facet normal 0.935159 -7.86542e-17 -0.354227
    outer loop
      vertex -1.99 5 4.491
      vertex -1.815 5 4.953
      vertex -1.815 0 4.953
    endloop
  endfacet
  facet normal -0.289781 0.957093 0
    outer loop
      vertex -10.057 4.81 0
      vertex -10.057 4.81 8
      vertex -9.588 4.952 0
    endloop
  endfacet
  facet normal 0 0 -1
    outer loop
      vertex -10.057 4.81 0
      vertex -9.588 4.952 0
      vertex -9.6 1.4 0
    endloop
  endfacet
  facet normal 0 0 -1
    outer loop
      vertex -10.057 4.81 0
      vertex -9.6 1.4 0
      vertex -9.6 0 0
    endloop
  endfacet
  facet normal -0.289781 0.957093 0
    outer loop
      vertex -10.057 4.81 8
      vertex -9.588 4.952 8
      vertex -9.588 4.952 0
    endloop
  endfacet
  facet normal 0 0 -1
    outer loop
      vertex -10.489 4.579 0
      vertex -10.057 4.81 0
      vertex -9.6 0 0
    endloop
  endfacet
  facet normal -0.471542 0.881844 0
    outer loop
      vertex -10.489 4.579 0
      vertex -10.489 4.579 8
      vertex -10.057 4.81 0
    endloop
  endfacet
  facet normal -0.471542 0.881844 0
    outer loop
      vertex -10.489 4.579 8
      vertex -10.057 4.81 8
      vertex -10.057 4.81 0
    endloop
  endfacet
  facet normal 0 0 -1
    outer loop
      vertex -10.868 4.268 0
      vertex -10.489 4.579 0
      vertex -9.6 0 0
    endloop
  endfacet
  facet normal -0.634348 0.773048 0
    outer loop
      vertex -10.868 4.268 0
      vertex -10.868 4.268 8
      vertex -10.489 4.579 0
    endloop
  endfacet
  facet normal -0.634348 0.773048 0
    outer loop
      vertex -10.868 4.268 8
      vertex -10.489 4.579 8
      vertex -10.489 4.579 0
    endloop
  endfacet
  facet normal 0 0 -1
    outer loop
      vertex -11.179 3.889 0
      vertex -10.868 4.268 0
      vertex -9.6 0 0
    endloop
  endfacet
  facet normal -0.773048 0.634348 0
    outer loop
      vertex -11.179 3.889 0
      vertex -11.179 3.889 8
      vertex -10.868 4.268 0
    endloop
  endfacet
  facet normal -0.773048 0.634348 0
    outer loop
      vertex -11.179 3.889 8
      vertex -10.868 4.268 8
      vertex -10.868 4.268 0
    endloop
  endfacet
  facet normal 0 0 -1
    outer loop
      vertex -11.41 3.457 0
      vertex -11.179 3.889 0
      vertex -9.6 0 0
    endloop
  endfacet
  facet normal -0.881844 0.471542 0
    outer loop
      vertex -11.41 3.457 0
      vertex -11.41 3.457 8
      vertex -11.179 3.889 0
    endloop
  endfacet
  facet normal -0.881844 0.471542 0
    outer loop
      vertex -11.41 3.457 8
      vertex -11.179 3.889 8
      vertex -11.179 3.889 0
    endloop
  endfacet
  facet normal 0 0 -1
    outer loop
      vertex -11.552 2.988 0
      vertex -11.41 3.457 0
      vertex -9.6 0 0
    endloop
  endfacet
  facet normal -0.957093 0.289781 0
    outer loop
      vertex -11.552 2.988 0
      vertex -11.552 2.988 8
      vertex -11.41 3.457 0
    endloop
  endfacet
  facet normal -0.957093 0.289781 0
    outer loop
      vertex -11.552 2.988 8
      vertex -11.41 3.457 8
      vertex -11.41 3.457 0
    endloop
  endfacet
  facet normal -1 0 0
    outer loop
      vertex -11.6 0 0
      vertex -11.6 0 8
      vertex -11.6 2.5 0
    endloop
  endfacet
  facet normal 0 0 -1
    outer loop
      vertex -11.6 0 0
      vertex -11.6 2.5 0
      vertex -9.6 0 0
    endloop
  endfacet
  facet normal 0 -1 0
    outer loop
      vertex -11.6 0 0
      vertex -9.6 0 0
      vertex -11.6 0 8
    endloop
  endfacet
  facet normal -1 0 0
    outer loop
      vertex -11.6 0 8
      vertex -11.6 2.5 8
      vertex -11.6 2.5 0
    endloop
  endfacet
  facet normal 0 -1 0
    outer loop
      vertex -11.6 0 8
      vertex -9.6 0 0
      vertex -9.6 0 8
    endloop
  endfacet
  facet normal 0 0 1
    outer loop
      vertex -11.6 0 8
      vertex -9.6 0 8
      vertex -11.6 2.5 8
    endloop
  endfacet
  facet normal 0 0 -1
    outer loop
      vertex -11.6 2.5 0
      vertex -11.552 2.988 0
      vertex -9.6 0 0
    endloop
  endfacet
  facet normal -0.995197 0.0978883 0
    outer loop
      vertex -11.6 2.5 0
      vertex -11.6 2.5 8
      vertex -11.552 2.988 0
    endloop
  endfacet
  facet normal 0 0 1
    outer loop
      vertex -11.6 2.5 8
      vertex -10.057 4.81 8
      vertex -10.489 4.579 8
    endloop
  endfacet
  facet normal 0 0 1
    outer loop
      vertex -11.6 2.5 8
      vertex -10.489 4.579 8
      vertex -10.868 4.268 8
    endloop
  endfacet
  facet normal 0 0 1
    outer loop
      vertex -11.6 2.5 8
      vertex -10.868 4.268 8
      vertex -11.179 3.889 8
    endloop
  endfacet
  facet normal 0 0 1
    outer loop
      vertex -11.6 2.5 8
      vertex -11.179 3.889 8
      vertex -11.41 3.457 8
    endloop
  endfacet
  facet normal 0 0 1
    outer loop
      vertex -11.6 2.5 8
      vertex -11.41 3.457 8
      vertex -11.552 2.988 8
    endloop
  endfacet
  facet normal -0.995197 0.0978883 0
    outer loop
      vertex -11.6 2.5 8
      vertex -11.552 2.988 8
      vertex -11.552 2.988 0
    endloop
  endfacet
  facet normal 0 0 1
    outer loop
      vertex -11.6 2.5 8
      vertex -8.443 2.779 8
      vertex 8.068 4.268 8
    endloop
  endfacet
  facet normal 0 0 1
    outer loop
      vertex -11.6 2.5 8
      vertex -8.9 2.612 8
      vertex -8.443 2.779 8
    endloop
  endfacet
  facet normal 0 0 1
    outer loop
      vertex -11.6 2.5 8
      vertex -9.1 5 8
      vertex -9.588 4.952 8
    endloop
  endfacet
  facet normal 0 0 1
    outer loop
      vertex -11.6 2.5 8
      vertex -9.272 2.3 8
      vertex -8.9 2.612 8
    endloop
  endfacet
  facet normal 0 0 1
    outer loop
      vertex -11.6 2.5 8
      vertex -9.516 1.879 8
      vertex -9.272 2.3 8
    endloop
  endfacet
  facet normal 0 0 1
    outer loop
      vertex -11.6 2.5 8
      vertex -9.588 4.952 8
      vertex -10.057 4.81 8
    endloop
  endfacet
  facet normal 0 0 1
    outer loop
      vertex -11.6 2.5 8
      vertex -9.6 0 8
      vertex -9.6 1.4 8
    endloop
  endfacet
  facet normal 0 0 1
    outer loop
      vertex -11.6 2.5 8
      vertex -9.6 1.4 8
      vertex -9.516 1.879 8
    endloop
  endfacet
  facet normal 0 0 1
    outer loop
      vertex -11.6 2.5 8
      vertex 6.3 5 8
      vertex -9.1 5 8
    endloop
  endfacet
  facet normal 0 0 1
    outer loop
      vertex -11.6 2.5 8
      vertex 6.788 4.952 8
      vertex 6.3 5 8
    endloop
  endfacet
  facet normal 0 0 1
    outer loop
      vertex -11.6 2.5 8
      vertex 7.257 4.81 8
      vertex 6.788 4.952 8
    endloop
  endfacet
  facet normal 0 0 1
    outer loop
      vertex -11.6 2.5 8
      vertex 7.689 4.579 8
      vertex 7.257 4.81 8
    endloop
  endfacet
  facet normal 0 0 1
    outer loop
      vertex -11.6 2.5 8
      vertex 8.068 4.268 8
      vertex 7.689 4.579 8
    endloop
  endfacet
  facet normal 0.992616 2.69334e-17 0.121297
    outer loop
      vertex -2.05 0 4
      vertex -1.99 0 3.509
      vertex -2.05 5 4
    endloop
  endfacet
  facet normal 0.992616 -2.69334e-17 -0.121297
    outer loop
      vertex -2.05 0 4
      vertex -2.05 5 4
      vertex -1.99 0 4.491
    endloop
  endfacet
  facet normal 0.992616 2.69334e-17 0.121297
    outer loop
      vertex -2.05 5 4
      vertex -1.99 0 3.509
      vertex -1.99 5 3.509
    endloop
  endfacet
  facet normal 0.992616 -2.69334e-17 -0.121297
    outer loop
      vertex -2.05 5 4
      vertex -1.99 5 4.491
      vertex -1.99 0 4.491
    endloop
  endfacet
  facet normal 0 -1 0
    outer loop
      vertex -4 0 0
      vertex -0.247 0 1.965
      vertex -0.727 0 2.083
    endloop
  endfacet
  facet normal 0 -1 0
    outer loop
      vertex -4 0 0
      vertex -0.727 0 2.083
      vertex -1.165 0 2.313
    endloop
  endfacet
  facet normal 0 -1 0
    outer loop
      vertex -4 0 0
      vertex -1.165 0 2.313
      vertex -1.534 0 2.641
    endloop
  endfacet
  facet normal 0 -1 0
    outer loop
      vertex -4 0 0
      vertex -1.534 0 2.641
      vertex -1.815 0 3.047
    endloop
  endfacet
  facet normal 0 -1 0
    outer loop
      vertex -4 0 0
      vertex -1.815 0 3.047
      vertex -1.99 0 3.509
    endloop
  endfacet
  facet normal 0 -1 0
    outer loop
      vertex -4 0 0
      vertex -1.99 0 3.509
      vertex -4 0 8
    endloop
  endfacet
  facet normal -1 0 0
    outer loop
      vertex -4 0 0
      vertex -4 0 8
      vertex -4 1.4 0
    endloop
  endfacet
  facet normal 0 0 -1
    outer loop
      vertex -4 0 0
      vertex -4 1.4 0
      vertex 4 0.7 0
    endloop
  endfacet
  facet normal 0 -1 0
    outer loop
      vertex -4 0 0
      vertex 0.247 0 1.965
      vertex -0.247 0 1.965
    endloop
  endfacet
  facet normal 0 -1 0
    outer loop
      vertex -4 0 0
      vertex 4 0 0
      vertex 0.247 0 1.965
    endloop
  endfacet
  facet normal 0 0 -1
    outer loop
      vertex -4 0 0
      vertex 4 0.7 0
      vertex 4 0 0
    endloop
  endfacet
  facet normal 0 -1 0
    outer loop
      vertex -4 0 8
      vertex -0.85 0 6.05
      vertex 4 0 8
    endloop
  endfacet
  facet normal 0 -1 0
    outer loop
      vertex -4 0 8
      vertex -1.441 0 5.441
      vertex -1.45 0 5.45
    endloop
  endfacet
  facet normal 0 -1 0
    outer loop
      vertex -4 0 8
      vertex -1.45 0 5.45
      vertex -0.85 0 6.05
    endloop
  endfacet
  facet normal 0 -1 0
    outer loop
      vertex -4 0 8
      vertex -1.534 0 5.359
      vertex -1.441 0 5.441
    endloop
  endfacet
  facet normal 0 -1 0
    outer loop
      vertex -4 0 8
      vertex -1.815 0 4.953
      vertex -1.534 0 5.359
    endloop
  endfacet
  facet normal 0 -1 0
    outer loop
      vertex -4 0 8
      vertex -1.99 0 3.509
      vertex -2.05 0 4
    endloop
  endfacet
  facet normal 0 -1 0
    outer loop
      vertex -4 0 8
      vertex -1.99 0 4.491
      vertex -1.815 0 4.953
    endloop
  endfacet
  facet normal 0 -1 0
    outer loop
      vertex -4 0 8
      vertex -2.05 0 4
      vertex -1.99 0 4.491
    endloop
  endfacet
  facet normal -1 0 0
    outer loop
      vertex -4 0 8
      vertex -4 1.4 8
      vertex -4 1.4 0
    endloop
  endfacet
  facet normal 0 0 1
    outer loop
      vertex -4 0 8
      vertex 4 0 8
      vertex -4 1.4 8
    endloop
  endfacet
  facet normal 0 0 -1
    outer loop
      vertex -4 1.4 0
      vertex 4.164 1.15 0
      vertex 4 0.7 0
    endloop
  endfacet
  facet normal 0 0 -1
    outer loop
      vertex -4 1.4 0
      vertex 4.578 1.389 0
      vertex 4.164 1.15 0
    endloop
  endfacet
  facet normal 0 0 -1
    outer loop
      vertex -4 1.4 0
      vertex 7.689 4.579 0
      vertex 8.068 4.268 0
    endloop
  endfacet
  facet normal 0 0 -1
    outer loop
      vertex -4 1.4 0
      vertex 8.068 4.268 0
      vertex 8.379 3.889 0
    endloop
  endfacet
  facet normal 0 0 -1
    outer loop
      vertex -4 1.4 0
      vertex 8.379 3.889 0
      vertex 8.61 3.457 0
    endloop
  endfacet
  facet normal 0 0 -1
    outer loop
      vertex -4 1.4 0
      vertex 8.61 3.457 0
      vertex 8.752 2.988 0
    endloop
  endfacet
  facet normal 0 0 -1
    outer loop
      vertex -4 1.4 0
      vertex 8.752 2.988 0
      vertex 8.8 2.5 0
    endloop
  endfacet
  facet normal 0 0 -1
    outer loop
      vertex -4 1.4 0
      vertex 8.8 2.5 0
      vertex 4.578 1.389 0
    endloop
  endfacet
  facet normal -0.984969 -0.172729 0
    outer loop
      vertex -4.084 1.879 0
      vertex -4 1.4 0
      vertex -4.084 1.879 8
    endloop
  endfacet
  facet normal 0 0 -1
    outer loop
      vertex -4.084 1.879 0
      vertex 6.3 5 0
      vertex 6.788 4.952 0
    endloop
  endfacet
  facet normal 0 0 -1
    outer loop
      vertex -4.084 1.879 0
      vertex 6.788 4.952 0
      vertex 7.257 4.81 0
    endloop
  endfacet
  facet normal 0 0 -1
    outer loop
      vertex -4.084 1.879 0
      vertex 7.257 4.81 0
      vertex 7.689 4.579 0
    endloop
  endfacet
  facet normal 0 0 -1
    outer loop
      vertex -4.084 1.879 0
      vertex 7.689 4.579 0
      vertex -4 1.4 0
    endloop
  endfacet
  facet normal -0.984969 -0.172729 0
    outer loop
      vertex -4.084 1.879 8
      vertex -4 1.4 0
      vertex -4 1.4 8
    endloop
  endfacet
  facet normal 0 0 1
    outer loop
      vertex -4.084 1.879 8
      vertex -4 1.4 8
      vertex 4 0 8
    endloop
  endfacet
  facet normal -0.865192 -0.501441 0
    outer loop
      vertex -4.328 2.3 0
      vertex -4.084 1.879 0
      vertex -4.328 2.3 8
    endloop
  endfacet
  facet normal 0 0 -1
    outer loop
      vertex -4.328 2.3 0
      vertex 6.3 5 0
      vertex -4.084 1.879 0
    endloop
  endfacet
  facet normal -0.865192 -0.501441 0
    outer loop
      vertex -4.328 2.3 8
      vertex -4.084 1.879 0
      vertex -4.084 1.879 8
    endloop
  endfacet
  facet normal 0 0 1
    outer loop
      vertex -4.328 2.3 8
      vertex -4.084 1.879 8
      vertex 4 0 8
    endloop
  endfacet
  facet normal -0.642612 -0.766192 0
    outer loop
      vertex -4.7 2.612 0
      vertex -4.328 2.3 0
      vertex -4.7 2.612 8
    endloop
  endfacet
  facet normal 0 0 -1
    outer loop
      vertex -4.7 2.612 0
      vertex 6.3 5 0
      vertex -4.328 2.3 0
    endloop
  endfacet
  facet normal -0.642612 -0.766192 0
    outer loop
      vertex -4.7 2.612 8
      vertex -4.328 2.3 0
      vertex -4.328 2.3 8
    endloop
  endfacet
  facet normal 0 0 1
    outer loop
      vertex -4.7 2.612 8
      vertex -4.328 2.3 8
      vertex 4 0 8
    endloop
  endfacet
  facet normal -0.343228 -0.939252 0
    outer loop
      vertex -5.157 2.779 0
      vertex -4.7 2.612 0
      vertex -5.157 2.779 8
    endloop
  endfacet
  facet normal -0.343228 -0.939252 0
    outer loop
      vertex -5.157 2.779 8
      vertex -4.7 2.612 0
      vertex -4.7 2.612 8
    endloop
  endfacet
  facet normal 0 0 1
    outer loop
      vertex -5.157 2.779 8
      vertex -4.7 2.612 8
      vertex 4 0 8
    endloop
  endfacet
  facet normal 0 0 1
    outer loop
      vertex -5.157 2.779 8
      vertex 4 0 8
      vertex 4 0.7 8
    endloop
  endfacet
  facet normal 0 0 1
    outer loop
      vertex -5.157 2.779 8
      vertex 4 0.7 8
      vertex 4.164 1.15 8
    endloop
  endfacet
  facet normal 0 0 1
    outer loop
      vertex -5.157 2.779 8
      vertex 4.164 1.15 8
      vertex 4.578 1.389 8
    endloop
  endfacet
  facet normal 0 0 1
    outer loop
      vertex -5.157 2.779 8
      vertex 4.578 1.389 8
      vertex 4.7 1.4 8
    endloop
  endfacet
  facet normal 0 0 1
    outer loop
      vertex -5.157 2.779 8
      vertex 4.7 1.4 8
      vertex 6.1 1.4 8
    endloop
  endfacet
  facet normal 0 0 1
    outer loop
      vertex -5.157 2.779 8
      vertex 6.1 1.4 8
      vertex 8.8 2.5 8
    endloop
  endfacet
  facet normal 0 -1 0
    outer loop
      vertex -5.4 2.779 0
      vertex -5.157 2.779 0
      vertex -5.4 2.779 8
    endloop
  endfacet
  facet normal -1 0 0
    outer loop
      vertex -5.4 2.779 0
      vertex -5.4 2.779 8
      vertex -5.4 2.8 0
    endloop
  endfacet
  facet normal 0 0 -1
    outer loop
      vertex -5.4 2.779 0
      vertex -5.4 2.8 0
      vertex -5.157 2.779 0
    endloop
  endfacet
  facet normal 0 -1 0
    outer loop
      vertex -5.4 2.779 8
      vertex -5.157 2.779 0
      vertex -5.157 2.779 8
    endloop
  endfacet
  facet normal 0 0 1
    outer loop
      vertex -5.4 2.779 8
      vertex -5.157 2.779 8
      vertex -5.4 2.8 8
    endloop
  endfacet
  facet normal -1 0 0
    outer loop
      vertex -5.4 2.779 8
      vertex -5.4 2.8 8
      vertex -5.4 2.8 0
    endloop
  endfacet
  facet normal 0 0 1
    outer loop
      vertex -5.4 2.8 8
      vertex -5.157 2.779 8
      vertex 8.8 2.5 8
    endloop
  endfacet
  facet normal 0 0 1
    outer loop
      vertex -5.4 2.8 8
      vertex 8.8 2.5 8
      vertex 8.752 2.988 8
    endloop
  endfacet
  facet normal 1 0 0
    outer loop
      vertex -8.2 2.779 0
      vertex -8.2 2.8 0
      vertex -8.2 2.779 8
    endloop
  endfacet
  facet normal 1 0 0
    outer loop
      vertex -8.2 2.779 8
      vertex -8.2 2.8 0
      vertex -8.2 2.8 8
    endloop
  endfacet
  facet normal 0 -1 0
    outer loop
      vertex -8.2 2.8 0
      vertex -5.4 2.8 0
      vertex -8.2 2.8 8
    endloop
  endfacet
  facet normal 0 -1 0
    outer loop
      vertex -8.2 2.8 8
      vertex -5.4 2.8 0
      vertex -5.4 2.8 8
    endloop
  endfacet
  facet normal 0 0 1
    outer loop
      vertex -8.2 2.8 8
      vertex -5.4 2.8 8
      vertex 8.752 2.988 8
    endloop
  endfacet
  facet normal 0 0 1
    outer loop
      vertex -8.2 2.8 8
      vertex 8.379 3.889 8
      vertex 8.068 4.268 8
    endloop
  endfacet
  facet normal 0 0 1
    outer loop
      vertex -8.2 2.8 8
      vertex 8.61 3.457 8
      vertex 8.379 3.889 8
    endloop
  endfacet
  facet normal 0 0 1
    outer loop
      vertex -8.2 2.8 8
      vertex 8.752 2.988 8
      vertex 8.61 3.457 8
    endloop
  endfacet
  facet normal 0 -1 0
    outer loop
      vertex -8.443 2.779 0
      vertex -8.2 2.779 0
      vertex -8.443 2.779 8
    endloop
  endfacet
  facet normal 0 0 -1
    outer loop
      vertex -8.443 2.779 0
      vertex -8.2 2.8 0
      vertex -8.2 2.779 0
    endloop
  endfacet
  facet normal 0 -1 0
    outer loop
      vertex -8.443 2.779 8
      vertex -8.2 2.779 0
      vertex -8.2 2.779 8
    endloop
  endfacet
  facet normal 0 0 1
    outer loop
      vertex -8.443 2.779 8
      vertex -8.2 2.779 8
      vertex -8.2 2.8 8
    endloop
  endfacet
  facet normal 0 0 1
    outer loop
      vertex -8.443 2.779 8
      vertex -8.2 2.8 8
      vertex 8.068 4.268 8
    endloop
  endfacet
  facet normal 0.343228 -0.939252 0
    outer loop
      vertex -8.9 2.612 0
      vertex -8.443 2.779 0
      vertex -8.9 2.612 8
    endloop
  endfacet
  facet normal 0.343228 -0.939252 0
    outer loop
      vertex -8.9 2.612 8
      vertex -8.443 2.779 0
      vertex -8.443 2.779 8
    endloop
  endfacet
  facet normal 0 1 0
    outer loop
      vertex -9.1 5 0
      vertex -0.727 5 2.083
      vertex 6.3 5 0
    endloop
  endfacet
  facet normal 0 1 0
    outer loop
      vertex -9.1 5 0
      vertex -1.165 5 2.313
      vertex -0.727 5 2.083
    endloop
  endfacet
  facet normal 0 1 0
    outer loop
      vertex -9.1 5 0
      vertex -1.534 5 2.641
      vertex -1.165 5 2.313
    endloop
  endfacet
  facet normal 0 1 0
    outer loop
      vertex -9.1 5 0
      vertex -1.815 5 3.047
      vertex -1.534 5 2.641
    endloop
  endfacet
  facet normal 0 1 0
    outer loop
      vertex -9.1 5 0
      vertex -1.99 5 3.509
      vertex -1.815 5 3.047
    endloop
  endfacet
  facet normal 0 1 0
    outer loop
      vertex -9.1 5 0
      vertex -2.05 5 4
      vertex -1.99 5 3.509
    endloop
  endfacet
  facet normal 0 0 -1
    outer loop
      vertex -9.1 5 0
      vertex -4.7 2.612 0
      vertex -5.157 2.779 0
    endloop
  endfacet
  facet normal 0 0 -1
    outer loop
      vertex -9.1 5 0
      vertex -5.157 2.779 0
      vertex -5.4 2.8 0
    endloop
  endfacet
  facet normal 0 0 -1
    outer loop
      vertex -9.1 5 0
      vertex -5.4 2.8 0
      vertex -8.2 2.8 0
    endloop
  endfacet
  facet normal 0 0 -1
    outer loop
      vertex -9.1 5 0
      vertex -8.2 2.8 0
      vertex -8.443 2.779 0
    endloop
  endfacet
  facet normal 0 0 -1
    outer loop
      vertex -9.1 5 0
      vertex -8.443 2.779 0
      vertex -8.9 2.612 0
    endloop
  endfacet
  facet normal 0 1 0
    outer loop
      vertex -9.1 5 0
      vertex -9.1 5 8
      vertex -2.05 5 4
    endloop
  endfacet
  facet normal 0 0 -1
    outer loop
      vertex -9.1 5 0
      vertex 6.3 5 0
      vertex -4.7 2.612 0
    endloop
  endfacet
  facet normal 0 1 0
    outer loop
      vertex -9.1 5 8
      vertex -0.85 5 6.05
      vertex -1.45 5 5.45
    endloop
  endfacet
  facet normal 0 1 0
    outer loop
      vertex -9.1 5 8
      vertex -1.441 5 5.441
      vertex -1.534 5 5.359
    endloop
  endfacet
  facet normal 0 1 0
    outer loop
      vertex -9.1 5 8
      vertex -1.45 5 5.45
      vertex -1.441 5 5.441
    endloop
  endfacet
  facet normal 0 1 0
    outer loop
      vertex -9.1 5 8
      vertex -1.534 5 5.359
      vertex -1.815 5 4.953
    endloop
  endfacet
  facet normal 0 1 0
    outer loop
      vertex -9.1 5 8
      vertex -1.815 5 4.953
      vertex -1.99 5 4.491
    endloop
  endfacet
  facet normal 0 1 0
    outer loop
      vertex -9.1 5 8
      vertex -1.99 5 4.491
      vertex -2.05 5 4
    endloop
  endfacet
  facet normal 0 1 0
    outer loop
      vertex -9.1 5 8
      vertex 0.85 5 6.05
      vertex -0.85 5 6.05
    endloop
  endfacet
  facet normal 0 1 0
    outer loop
      vertex -9.1 5 8
      vertex 6.3 5 8
      vertex 0.85 5 6.05
    endloop
  endfacet
  facet normal 0.642612 -0.766192 0
    outer loop
      vertex -9.272 2.3 0
      vertex -8.9 2.612 0
      vertex -9.272 2.3 8
    endloop
  endfacet
  facet normal 0 0 -1
    outer loop
      vertex -9.272 2.3 0
      vertex -9.1 5 0
      vertex -8.9 2.612 0
    endloop
  endfacet
  facet normal 0.642612 -0.766192 0
    outer loop
      vertex -9.272 2.3 8
      vertex -8.9 2.612 0
      vertex -8.9 2.612 8
    endloop
  endfacet
  facet normal 0 0 -1
    outer loop
      vertex -9.516 1.879 0
      vertex -9.1 5 0
      vertex -9.272 2.3 0
    endloop
  endfacet
  facet normal 0.865192 -0.501441 0
    outer loop
      vertex -9.516 1.879 0
      vertex -9.272 2.3 0
      vertex -9.516 1.879 8
    endloop
  endfacet
  facet normal 0.865192 -0.501441 0
    outer loop
      vertex -9.516 1.879 8
      vertex -9.272 2.3 0
      vertex -9.272 2.3 8
    endloop
  endfacet
  facet normal 0 0 -1
    outer loop
      vertex -9.588 4.952 0
      vertex -9.1 5 0
      vertex -9.516 1.879 0
    endloop
  endfacet
  facet normal -0.0978883 0.995197 0
    outer loop
      vertex -9.588 4.952 0
      vertex -9.588 4.952 8
      vertex -9.1 5 0
    endloop
  endfacet
  facet normal -0.0978883 0.995197 0
    outer loop
      vertex -9.588 4.952 8
      vertex -9.1 5 8
      vertex -9.1 5 0
    endloop
  endfacet
  facet normal 1 0 0
    outer loop
      vertex -9.6 0 0
      vertex -9.6 1.4 0
      vertex -9.6 0 8
    endloop
  endfacet
  facet normal 1 0 0
    outer loop
      vertex -9.6 0 8
      vertex -9.6 1.4 0
      vertex -9.6 1.4 8
    endloop
  endfacet
  facet normal 0.984969 -0.172729 0
    outer loop
      vertex -9.6 1.4 0
      vertex -9.516 1.879 0
      vertex -9.6 1.4 8
    endloop
  endfacet
  facet normal 0 0 -1
    outer loop
      vertex -9.6 1.4 0
      vertex -9.588 4.952 0
      vertex -9.516 1.879 0
    endloop
  endfacet
  facet normal 0.984969 -0.172729 0
    outer loop
      vertex -9.6 1.4 8
      vertex -9.516 1.879 0
      vertex -9.516 1.879 8
    endloop
  endfacet
  facet normal -0.238726 2.15625e-16 0.971087
    outer loop
      vertex 0.247 0 1.965
      vertex 0.727 0 2.083
      vertex 0.247 5 1.965
    endloop
  endfacet
  facet normal 0 -1 0
    outer loop
      vertex 0.247 0 1.965
      vertex 4 0 0
      vertex 0.727 0 2.083
    endloop
  endfacet
  facet normal -0.238726 2.15625e-16 0.971087
    outer loop
      vertex 0.247 5 1.965
      vertex 0.727 0 2.083
      vertex 0.727 5 2.083
    endloop
  endfacet
  facet normal 0 1 0
    outer loop
      vertex 0.247 5 1.965
      vertex 0.727 5 2.083
      vertex 6.3 5 0
    endloop
  endfacet
  facet normal -0.464913 1.96589e-16 0.885356
    outer loop
      vertex 0.727 0 2.083
      vertex 1.165 0 2.313
      vertex 0.727 5 2.083
    endloop
  endfacet
  facet normal 0 -1 0
    outer loop
      vertex 0.727 0 2.083
      vertex 4 0 0
      vertex 1.165 0 2.313
    endloop
  endfacet
  facet normal -0.464913 1.96589e-16 0.885356
    outer loop
      vertex 0.727 5 2.083
      vertex 1.165 0 2.313
      vertex 1.165 5 2.313
    endloop
  endfacet
  facet normal 0 1 0
    outer loop
      vertex 0.727 5 2.083
      vertex 1.165 5 2.313
      vertex 6.3 5 0
    endloop
  endfacet
  facet normal -0.707107 -1.57009e-16 -0.707107
    outer loop
      vertex 0.85 0 6.05
      vertex 0.85 5 6.05
      vertex 1.45 0 5.45
    endloop
  endfacet
  facet normal 0 -1 0
    outer loop
      vertex 0.85 0 6.05
      vertex 1.45 0 5.45
      vertex 4 0 8
    endloop
  endfacet
  facet normal -0.707107 -1.57009e-16 -0.707107
    outer loop
      vertex 0.85 5 6.05
      vertex 1.45 5 5.45
      vertex 1.45 0 5.45
    endloop
  endfacet
  facet normal 0 1 0
    outer loop
      vertex 0.85 5 6.05
      vertex 6.3 5 8
      vertex 1.45 5 5.45
    endloop
  endfacet
  facet normal -0.664364 1.65958e-16 0.747409
    outer loop
      vertex 1.165 0 2.313
      vertex 1.534 0 2.641
      vertex 1.165 5 2.313
    endloop
  endfacet
  facet normal 0 -1 0
    outer loop
      vertex 1.165 0 2.313
      vertex 4 0 0
      vertex 1.534 0 2.641
    endloop
  endfacet
  facet normal -0.664364 1.65958e-16 0.747409
    outer loop
      vertex 1.165 5 2.313
      vertex 1.534 0 2.641
      vertex 1.534 5 2.641
    endloop
  endfacet
  facet normal 0 1 0
    outer loop
      vertex 1.165 5 2.313
      vertex 1.534 5 2.641
      vertex 6.3 5 0
    endloop
  endfacet
  facet normal -0.661355 -1.6655e-16 -0.750073
    outer loop
      vertex 1.441 0 5.441
      vertex 1.441 5 5.441
      vertex 1.534 0 5.359
    endloop
  endfacet
  facet normal -0.707107 1.57009e-16 0.707107
    outer loop
      vertex 1.441 0 5.441
      vertex 1.45 0 5.45
      vertex 1.441 5 5.441
    endloop
  endfacet
  facet normal 0 -1 0
    outer loop
      vertex 1.441 0 5.441
      vertex 1.534 0 5.359
      vertex 1.45 0 5.45
    endloop
  endfacet
  facet normal -0.707107 1.57009e-16 0.707107
    outer loop
      vertex 1.441 5 5.441
      vertex 1.45 0 5.45
      vertex 1.45 5 5.45
    endloop
  endfacet
  facet normal 0 1 0
    outer loop
      vertex 1.441 5 5.441
      vertex 1.45 5 5.45
      vertex 6.3 5 8
    endloop
  endfacet
  facet normal -0.661355 -1.6655e-16 -0.750073
    outer loop
      vertex 1.441 5 5.441
      vertex 1.534 5 5.359
      vertex 1.534 0 5.359
    endloop
  endfacet
  facet normal 0 1 0
    outer loop
      vertex 1.441 5 5.441
      vertex 6.3 5 8
      vertex 1.534 5 5.359
    endloop
  endfacet
  facet normal 0 -1 0
    outer loop
      vertex 1.45 0 5.45
      vertex 1.534 0 5.359
      vertex 4 0 8
    endloop
  endfacet
  facet normal -0.822265 1.26367e-16 0.569105
    outer loop
      vertex 1.534 0 2.641
      vertex 1.815 0 3.047
      vertex 1.534 5 2.641
    endloop
  endfacet
  facet normal 0 -1 0
    outer loop
      vertex 1.534 0 2.641
      vertex 4 0 0
      vertex 1.815 0 3.047
    endloop
  endfacet
  facet normal -0.822265 -1.26367e-16 -0.569105
    outer loop
      vertex 1.534 0 5.359
      vertex 1.534 5 5.359
      vertex 1.815 0 4.953
    endloop
  endfacet
  facet normal 0 -1 0
    outer loop
      vertex 1.534 0 5.359
      vertex 1.815 0 4.953
      vertex 4 0 8
    endloop
  endfacet
  facet normal -0.822265 1.26367e-16 0.569105
    outer loop
      vertex 1.534 5 2.641
      vertex 1.815 0 3.047
      vertex 1.815 5 3.047
    endloop
  endfacet
  facet normal 0 1 0
    outer loop
      vertex 1.534 5 2.641
      vertex 1.815 5 3.047
      vertex 6.3 5 8
    endloop
  endfacet
  facet normal 0 1 0
    outer loop
      vertex 1.534 5 2.641
      vertex 6.3 5 8
      vertex 6.3 5 0
    endloop
  endfacet
  facet normal -0.822265 -1.26367e-16 -0.569105
    outer loop
      vertex 1.534 5 5.359
      vertex 1.815 5 4.953
      vertex 1.815 0 4.953
    endloop
  endfacet
  facet normal 0 1 0
    outer loop
      vertex 1.534 5 5.359
      vertex 6.3 5 8
      vertex 1.815 5 4.953
    endloop
  endfacet
  facet normal -0.935159 7.86542e-17 0.354227
    outer loop
      vertex 1.815 0 3.047
      vertex 1.99 0 3.509
      vertex 1.815 5 3.047
    endloop
  endfacet
  facet normal 0 -1 0
    outer loop
      vertex 1.815 0 3.047
      vertex 4 0 0
      vertex 1.99 0 3.509
    endloop
  endfacet
  facet normal -0.935159 -7.86542e-17 -0.354227
    outer loop
      vertex 1.815 0 4.953
      vertex 1.815 5 4.953
      vertex 1.99 0 4.491
    endloop
  endfacet
  facet normal 0 -1 0
    outer loop
      vertex 1.815 0 4.953
      vertex 1.99 0 4.491
      vertex 4 0 0
    endloop
  endfacet
  facet normal 0 -1 0
    outer loop
      vertex 1.815 0 4.953
      vertex 4 0 0
      vertex 4 0 8
    endloop
  endfacet
  facet normal -0.935159 7.86542e-17 0.354227
    outer loop
      vertex 1.815 5 3.047
      vertex 1.99 0 3.509
      vertex 1.99 5 3.509
    endloop
  endfacet
  facet normal 0 1 0
    outer loop
      vertex 1.815 5 3.047
      vertex 1.99 5 3.509
      vertex 6.3 5 8
    endloop
  endfacet
  facet normal -0.935159 -7.86542e-17 -0.354227
    outer loop
      vertex 1.815 5 4.953
      vertex 1.99 5 4.491
      vertex 1.99 0 4.491
    endloop
  endfacet
  facet normal 0 1 0
    outer loop
      vertex 1.815 5 4.953
      vertex 6.3 5 8
      vertex 1.99 5 4.491
    endloop
  endfacet
  facet normal -0.992616 2.69334e-17 0.121297
    outer loop
      vertex 1.99 0 3.509
      vertex 2.05 0 4
      vertex 1.99 5 3.509
    endloop
  endfacet
  facet normal 0 -1 0
    outer loop
      vertex 1.99 0 3.509
      vertex 4 0 0
      vertex 2.05 0 4
    endloop
  endfacet
  facet normal -0.992616 -2.69334e-17 -0.121297
    outer loop
      vertex 1.99 0 4.491
      vertex 1.99 5 4.491
      vertex 2.05 0 4
    endloop
  endfacet
  facet normal 0 -1 0
    outer loop
      vertex 1.99 0 4.491
      vertex 2.05 0 4
      vertex 4 0 0
    endloop
  endfacet
  facet normal -0.992616 2.69334e-17 0.121297
    outer loop
      vertex 1.99 5 3.509
      vertex 2.05 0 4
      vertex 2.05 5 4
    endloop
  endfacet
  facet normal 0 1 0
    outer loop
      vertex 1.99 5 3.509
      vertex 2.05 5 4
      vertex 6.3 5 8
    endloop
  endfacet
  facet normal -0.992616 -2.69334e-17 -0.121297
    outer loop
      vertex 1.99 5 4.491
      vertex 2.05 5 4
      vertex 2.05 0 4
    endloop
  endfacet
  facet normal 0 1 0
    outer loop
      vertex 1.99 5 4.491
      vertex 6.3 5 8
      vertex 2.05 5 4
    endloop
  endfacet
  facet normal 1 0 0
    outer loop
      vertex 4 0 0
      vertex 4 0.7 0
      vertex 4 0 8
    endloop
  endfacet
  facet normal 1 0 0
    outer loop
      vertex 4 0 8
      vertex 4 0.7 0
      vertex 4 0.7 8
    endloop
  endfacet
  facet normal 0.939549 -0.342414 0
    outer loop
      vertex 4 0.7 0
      vertex 4.164 1.15 0
      vertex 4 0.7 8
    endloop
  endfacet
  facet normal 0.939549 -0.342414 0
    outer loop
      vertex 4 0.7 8
      vertex 4.164 1.15 0
      vertex 4.164 1.15 8
    endloop
  endfacet
  facet normal 0.499964 -0.866046 0
    outer loop
      vertex 4.164 1.15 0
      vertex 4.578 1.389 0
      vertex 4.164 1.15 8
    endloop
  endfacet
  facet normal 0.499964 -0.866046 0
    outer loop
      vertex 4.164 1.15 8
      vertex 4.578 1.389 0
      vertex 4.578 1.389 8
    endloop
  endfacet
  facet normal -0.169636 -0.985507 0
    outer loop
      vertex 4.578 1.389 0
      vertex 4.7 1.368 0
      vertex 4.578 1.389 8
    endloop
  endfacet
  facet normal 0 0 -1
    outer loop
      vertex 4.578 1.389 0
      vertex 4.7 1.4 0
      vertex 4.7 1.368 0
    endloop
  endfacet
  facet normal 0 0 -1
    outer loop
      vertex 4.578 1.389 0
      vertex 8.8 2.5 0
      vertex 4.7 1.4 0
    endloop
  endfacet
  facet normal -0.169636 -0.985507 0
    outer loop
      vertex 4.578 1.389 8
      vertex 4.7 1.368 0
      vertex 4.7 1.368 8
    endloop
  endfacet
  facet normal 0 0 1
    outer loop
      vertex 4.578 1.389 8
      vertex 4.7 1.368 8
      vertex 4.7 1.4 8
    endloop
  endfacet
  facet normal 1 0 0
    outer loop
      vertex 4.7 1.368 0
      vertex 4.7 1.4 0
      vertex 4.7 1.368 8
    endloop
  endfacet
  facet normal 1 0 0
    outer loop
      vertex 4.7 1.368 8
      vertex 4.7 1.4 0
      vertex 4.7 1.4 8
    endloop
  endfacet
  facet normal 0 -1 0
    outer loop
      vertex 4.7 1.4 0
      vertex 6.1 1.4 0
      vertex 4.7 1.4 8
    endloop
  endfacet
  facet normal 0 0 -1
    outer loop
      vertex 4.7 1.4 0
      vertex 8.8 2.5 0
      vertex 6.1 1.4 0
    endloop
  endfacet
  facet normal 0 -1 0
    outer loop
      vertex 4.7 1.4 8
      vertex 6.1 1.4 0
      vertex 6.1 1.4 8
    endloop
  endfacet
  facet normal -1 0 0
    outer loop
      vertex 6.1 1.368 0
      vertex 6.1 1.368 8
      vertex 6.1 1.4 0
    endloop
  endfacet
  facet normal 0 0 -1
    outer loop
      vertex 6.1 1.368 0
      vertex 6.1 1.4 0
      vertex 8.8 2.5 0
    endloop
  endfacet
  facet normal -0.174427 -0.98467 0
    outer loop
      vertex 6.1 1.368 0
      vertex 6.45 1.306 0
      vertex 6.1 1.368 8
    endloop
  endfacet
  facet normal 0 0 -1
    outer loop
      vertex 6.1 1.368 0
      vertex 8.8 2.5 0
      vertex 6.45 1.306 0
    endloop
  endfacet
  facet normal -1 0 0
    outer loop
      vertex 6.1 1.368 8
      vertex 6.1 1.4 8
      vertex 6.1 1.4 0
    endloop
  endfacet
  facet normal -0.174427 -0.98467 0
    outer loop
      vertex 6.1 1.368 8
      vertex 6.45 1.306 0
      vertex 6.45 1.306 8
    endloop
  endfacet
  facet normal 0 0 1
    outer loop
      vertex 6.1 1.368 8
      vertex 6.45 1.306 8
      vertex 6.1 1.4 8
    endloop
  endfacet
  facet normal 0 0 1
    outer loop
      vertex 6.1 1.4 8
      vertex 6.45 1.306 8
      vertex 8.8 2.5 8
    endloop
  endfacet
  facet normal 0.0978883 0.995197 0
    outer loop
      vertex 6.3 5 0
      vertex 6.3 5 8
      vertex 6.788 4.952 0
    endloop
  endfacet
  facet normal 0.0978883 0.995197 0
    outer loop
      vertex 6.3 5 8
      vertex 6.788 4.952 8
      vertex 6.788 4.952 0
    endloop
  endfacet
  facet normal -0.765993 -0.642849 0
    outer loop
      vertex 6.45 1.306 0
      vertex 6.758 0.939 0
      vertex 6.45 1.306 8
    endloop
  endfacet
  facet normal 0 0 -1
    outer loop
      vertex 6.45 1.306 0
      vertex 8.8 2.5 0
      vertex 6.758 0.939 0
    endloop
  endfacet
  facet normal -0.765993 -0.642849 0
    outer loop
      vertex 6.45 1.306 8
      vertex 6.758 0.939 0
      vertex 6.758 0.939 8
    endloop
  endfacet
  facet normal 0 0 1
    outer loop
      vertex 6.45 1.306 8
      vertex 6.758 0.939 8
      vertex 8.8 0 8
    endloop
  endfacet
  facet normal 0 0 1
    outer loop
      vertex 6.45 1.306 8
      vertex 8.8 0 8
      vertex 8.8 2.5 8
    endloop
  endfacet
  facet normal -1 0 0
    outer loop
      vertex 6.758 0.7 0
      vertex 6.758 0.7 8
      vertex 6.758 0.939 0
    endloop
  endfacet
  facet normal 0 0 -1
    outer loop
      vertex 6.758 0.7 0
      vertex 6.758 0.939 0
      vertex 8.8 2.5 0
    endloop
  endfacet
  facet normal 0 -1 0
    outer loop
      vertex 6.758 0.7 0
      vertex 6.8 0.7 0
      vertex 6.758 0.7 8
    endloop
  endfacet
  facet normal 0 0 -1
    outer loop
      vertex 6.758 0.7 0
      vertex 8.8 2.5 0
      vertex 6.8 0.7 0
    endloop
  endfacet
  facet normal -1 0 0
    outer loop
      vertex 6.758 0.7 8
      vertex 6.758 0.939 8
      vertex 6.758 0.939 0
    endloop
  endfacet
  facet normal 0 -1 0
    outer loop
      vertex 6.758 0.7 8
      vertex 6.8 0.7 0
      vertex 6.8 0.7 8
    endloop
  endfacet
  facet normal 0 0 1
    outer loop
      vertex 6.758 0.7 8
      vertex 6.8 0.7 8
      vertex 6.758 0.939 8
    endloop
  endfacet
  facet normal 0 0 1
    outer loop
      vertex 6.758 0.939 8
      vertex 6.8 0.7 8
      vertex 8.8 0 8
    endloop
  endfacet
  facet normal 0.289781 0.957093 0
    outer loop
      vertex 6.788 4.952 0
      vertex 6.788 4.952 8
      vertex 7.257 4.81 0
    endloop
  endfacet
  facet normal 0.289781 0.957093 0
    outer loop
      vertex 6.788 4.952 8
      vertex 7.257 4.81 8
      vertex 7.257 4.81 0
    endloop
  endfacet
  facet normal -1 0 0
    outer loop
      vertex 6.8 0 0
      vertex 6.8 0 8
      vertex 6.8 0.7 0
    endloop
  endfacet
  facet normal 0 0 -1
    outer loop
      vertex 6.8 0 0
      vertex 6.8 0.7 0
      vertex 8.8 2.5 0
    endloop
  endfacet
  facet normal 0 -1 0
    outer loop
      vertex 6.8 0 0
      vertex 8.8 0 0
      vertex 6.8 0 8
    endloop
  endfacet
  facet normal 0 0 -1
    outer loop
      vertex 6.8 0 0
      vertex 8.8 2.5 0
      vertex 8.8 0 0
    endloop
  endfacet
  facet normal -1 0 0
    outer loop
      vertex 6.8 0 8
      vertex 6.8 0.7 8
      vertex 6.8 0.7 0
    endloop
  endfacet
  facet normal 0 -1 0
    outer loop
      vertex 6.8 0 8
      vertex 8.8 0 0
      vertex 8.8 0 8
    endloop
  endfacet
  facet normal 0 0 1
    outer loop
      vertex 6.8 0 8
      vertex 8.8 0 8
      vertex 6.8 0.7 8
    endloop
  endfacet
  facet normal 0.471542 0.881844 0
    outer loop
      vertex 7.257 4.81 0
      vertex 7.257 4.81 8
      vertex 7.689 4.579 0
    endloop
  endfacet
  facet normal 0.471542 0.881844 0
    outer loop
      vertex 7.257 4.81 8
      vertex 7.689 4.579 8
      vertex 7.689 4.579 0
    endloop
  endfacet
  facet normal 0.634348 0.773048 0
    outer loop
      vertex 7.689 4.579 0
      vertex 7.689 4.579 8
      vertex 8.068 4.268 0
    endloop
  endfacet
  facet normal 0.634348 0.773048 0
    outer loop
      vertex 7.689 4.579 8
      vertex 8.068 4.268 8
      vertex 8.068 4.268 0
    endloop
  endfacet
  facet normal 0.773048 0.634348 0
    outer loop
      vertex 8.068 4.268 0
      vertex 8.068 4.268 8
      vertex 8.379 3.889 0
    endloop
  endfacet
  facet normal 0.773048 0.634348 0
    outer loop
      vertex 8.068 4.268 8
      vertex 8.379 3.889 8
      vertex 8.379 3.889 0
    endloop
  endfacet
  facet normal 0.881844 0.471542 0
    outer loop
      vertex 8.379 3.889 0
      vertex 8.379 3.889 8
      vertex 8.61 3.457 0
    endloop
  endfacet
  facet normal 0.881844 0.471542 0
    outer loop
      vertex 8.379 3.889 8
      vertex 8.61 3.457 8
      vertex 8.61 3.457 0
    endloop
  endfacet
  facet normal 0.957093 0.289781 0
    outer loop
      vertex 8.61 3.457 0
      vertex 8.61 3.457 8
      vertex 8.752 2.988 0
    endloop
  endfacet
  facet normal 0.957093 0.289781 0
    outer loop
      vertex 8.61 3.457 8
      vertex 8.752 2.988 8
      vertex 8.752 2.988 0
    endloop
  endfacet
  facet normal 0.995197 0.0978883 0
    outer loop
      vertex 8.752 2.988 0
      vertex 8.752 2.988 8
      vertex 8.8 2.5 0
    endloop
  endfacet
  facet normal 0.995197 0.0978883 0
    outer loop
      vertex 8.752 2.988 8
      vertex 8.8 2.5 8
      vertex 8.8 2.5 0
    endloop
  endfacet
  facet normal 1 0 0
    outer loop
      vertex 8.8 0 0
      vertex 8.8 2.5 0
      vertex 8.8 0 8
    endloop
  endfacet
  facet normal 1 0 0
    outer loop
      vertex 8.8 0 8
      vertex 8.8 2.5 0
      vertex 8.8 2.5 8
    endloop
  endfacet
endsolid OpenSCAD_Model
