solid OpenSCAD_Model
  facet normal 0.300706 0.953717 0
    outer loop
      vertex -10.2111 -28.0548 0
      vertex -10.2111 -28.0548 3
      vertex -7.72713 -28.838 0
    endloop
  endfacet
  facet normal 0 0 -1
    outer loop
      vertex -10.2111 -28.0548 0
      vertex -7.72713 -28.838 0
      vertex 13.368 -38.2 0
    endloop
  endfacet
  facet normal 0.300706 0.953717 0
    outer loop
      vertex -10.2111 -28.0548 3
      vertex -7.72713 -28.838 3
      vertex -7.72713 -28.838 0
    endloop
  endfacet
  facet normal 0 0 -1
    outer loop
      vertex -12.6174 -27.0581 0
      vertex -10.2111 -28.0548 0
      vertex 13.368 -38.2 0
    endloop
  endfacet
  facet normal 0.382684 0.923879 0
    outer loop
      vertex -12.6174 -27.0581 0
      vertex -12.6174 -27.0581 3
      vertex -10.2111 -28.0548 0
    endloop
  endfacet
  facet normal 0.382684 0.923879 0
    outer loop
      vertex -12.6174 -27.0581 3
      vertex -10.2111 -28.0548 3
      vertex -10.2111 -28.0548 0
    endloop
  endfacet
  facet normal 0.461748 0.887011 0
    outer loop
      vertex -13.35 -26.6768 0
      vertex -13.35 -26.6768 5.92343e-15
      vertex -12.6174 -27.0581 0
    endloop
  endfacet
  facet normal 0 0 -1
    outer loop
      vertex -13.35 -38.2 0
      vertex -12.6174 -27.0581 0
      vertex 13.368 -38.2 0
    endloop
  endfacet
  facet normal 0 0 -1
    outer loop
      vertex -13.35 -38.2 0
      vertex -13.35 -26.6768 0
      vertex -12.6174 -27.0581 0
    endloop
  endfacet
  facet normal -0.988906 3.29824e-17 0.148539
    outer loop
      vertex -13.35 -38.2 0
      vertex -13.35 -38.2 8.4821e-15
      vertex -13.35 -26.6768 0
    endloop
  endfacet
  facet normal 0 -1 0
    outer loop
      vertex -13.35 -38.2 0
      vertex 13.368 -38.2 0
      vertex -13.35 -38.2 8.4821e-15
    endloop
  endfacet
  facet normal -0.988906 3.29824e-17 0.148539
    outer loop
      vertex -13.35 -38.2 8.4821e-15
      vertex -13.35 -26.6768 5.92343e-15
      vertex -13.35 -26.6768 0
    endloop
  endfacet
  facet normal 0.461748 0.887011 0
    outer loop
      vertex -13.423 -26.6388 0.486
      vertex -12.6174 -27.0581 0
      vertex -13.35 -26.6768 5.92343e-15
    endloop
  endfacet
  facet normal -0.988906 -3.29824e-17 -0.148539
    outer loop
      vertex -13.423 -26.6388 0.486
      vertex -13.35 -26.6768 5.92343e-15
      vertex -13.35 -38.2 8.4821e-15
    endloop
  endfacet
  facet normal 0 -1 0
    outer loop
      vertex -13.423 -38.2 0.486
      vertex -13.35 -38.2 8.4821e-15
      vertex 13.368 -38.2 0
    endloop
  endfacet
  facet normal -0.988906 -3.29824e-17 -0.148539
    outer loop
      vertex -13.423 -38.2 0.486
      vertex -13.423 -26.6388 0.486
      vertex -13.35 -38.2 8.4821e-15
    endloop
  endfacet
  facet normal 0.461748 0.887011 0
    outer loop
      vertex -13.637 -26.5274 0.929
      vertex -12.6174 -27.0581 0
      vertex -13.423 -26.6388 0.486
    endloop
  endfacet
  facet normal -0.900442 -9.65842e-17 -0.434976
    outer loop
      vertex -13.637 -26.5274 0.929
      vertex -13.423 -26.6388 0.486
      vertex -13.423 -38.2 0.486
    endloop
  endfacet
  facet normal 0 -1 0
    outer loop
      vertex -13.637 -38.2 0.929
      vertex -13.423 -38.2 0.486
      vertex 13.368 -38.2 0
    endloop
  endfacet
  facet normal -0.900442 -9.65842e-17 -0.434976
    outer loop
      vertex -13.637 -38.2 0.929
      vertex -13.637 -26.5274 0.929
      vertex -13.423 -38.2 0.486
    endloop
  endfacet
  facet normal -0.77193 -1.41155e-16 -0.635707
    outer loop
      vertex -13.833 -26.4253 1.167
      vertex -13.637 -26.5274 0.929
      vertex -13.637 -38.2 0.929
    endloop
  endfacet
  facet normal 0 -1 0
    outer loop
      vertex -13.833 -38.2 1.167
      vertex -13.637 -38.2 0.929
      vertex 13.368 -38.2 0
    endloop
  endfacet
  facet normal -0.77193 -1.41155e-16 -0.635707
    outer loop
      vertex -13.833 -38.2 1.167
      vertex -13.833 -26.4253 1.167
      vertex -13.637 -38.2 0.929
    endloop
  endfacet
  facet normal -0.707107 -1.57009e-16 -0.707107
    outer loop
      vertex -14.316 -26.1739 1.65
      vertex -13.833 -26.4253 1.167
      vertex -13.833 -38.2 1.167
    endloop
  endfacet
  facet normal 0 -1 0
    outer loop
      vertex -14.316 -38.2 1.65
      vertex -13.833 -38.2 1.167
      vertex 13.368 -38.2 0
    endloop
  endfacet
  facet normal -0.707107 -1.57009e-16 -0.707107
    outer loop
      vertex -14.316 -38.2 1.65
      vertex -14.316 -26.1739 1.65
      vertex -13.833 -38.2 1.167
    endloop
  endfacet
  facet normal 0 -2.22045e-16 -1
    outer loop
      vertex -14.9277 -25.8555 1.65
      vertex -14.316 -26.1739 1.65
      vertex -14.316 -38.2 1.65
    endloop
  endfacet
  facet normal 0.461748 0.887011 0
    outer loop
      vertex -14.9277 -25.8555 1.65
      vertex -14.9277 -25.8555 3
      vertex -14.316 -26.1739 1.65
    endloop
  endfacet
  facet normal 0.461748 0.887011 0
    outer loop
      vertex -14.9277 -25.8555 3
      vertex -12.6174 -27.0581 0
      vertex -13.637 -26.5274 0.929
    endloop
  endfacet
  facet normal 0.461748 0.887011 0
    outer loop
      vertex -14.9277 -25.8555 3
      vertex -12.6174 -27.0581 3
      vertex -12.6174 -27.0581 0
    endloop
  endfacet
  facet normal 0.461748 0.887011 0
    outer loop
      vertex -14.9277 -25.8555 3
      vertex -13.637 -26.5274 0.929
      vertex -13.833 -26.4253 1.167
    endloop
  endfacet
  facet normal 0.461748 0.887011 0
    outer loop
      vertex -14.9277 -25.8555 3
      vertex -13.833 -26.4253 1.167
      vertex -14.316 -26.1739 1.65
    endloop
  endfacet
  facet normal 0 -2.22045e-16 -1
    outer loop
      vertex -15.684 -25.3736 1.65
      vertex -14.9277 -25.8555 1.65
      vertex -14.316 -38.2 1.65
    endloop
  endfacet
  facet normal 0 -2.22045e-16 -1
    outer loop
      vertex -15.684 -38.2 1.65
      vertex -15.684 -25.3736 1.65
      vertex -14.316 -38.2 1.65
    endloop
  endfacet
  facet normal 0.707107 -1.57009e-16 -0.707107
    outer loop
      vertex -16.167 -25.0659 1.167
      vertex -15.684 -25.3736 1.65
      vertex -15.684 -38.2 1.65
    endloop
  endfacet
  facet normal 0.707107 -1.57009e-16 -0.707107
    outer loop
      vertex -16.167 -38.2 1.167
      vertex -16.167 -25.0659 1.167
      vertex -15.684 -38.2 1.65
    endloop
  endfacet
  facet normal 0.722991 -1.53401e-16 -0.690858
    outer loop
      vertex -16.21 -25.0385 1.122
      vertex -16.167 -25.0659 1.167
      vertex -16.167 -38.2 1.167
    endloop
  endfacet
  facet normal 0.722991 -1.53401e-16 -0.690858
    outer loop
      vertex -16.21 -38.2 1.122
      vertex -16.21 -25.0385 1.122
      vertex -16.167 -38.2 1.167
    endloop
  endfacet
  facet normal 0.826055 -1.25142e-16 -0.563589
    outer loop
      vertex -16.487 -24.8621 0.716
      vertex -16.21 -25.0385 1.122
      vertex -16.21 -38.2 1.122
    endloop
  endfacet
  facet normal 0.826055 -1.25142e-16 -0.563589
    outer loop
      vertex -16.487 -38.2 0.716
      vertex -16.487 -24.8621 0.716
      vertex -16.21 -38.2 1.122
    endloop
  endfacet
  facet normal 0.955559 -6.54588e-17 -0.2948
    outer loop
      vertex -16.632 -24.7697 0.246
      vertex -16.487 -24.8621 0.716
      vertex -16.487 -38.2 0.716
    endloop
  endfacet
  facet normal 1 0 0
    outer loop
      vertex -16.632 -38.2 0
      vertex -16.632 -24.7697 0
      vertex -16.632 -38.2 0.246
    endloop
  endfacet
  facet normal 1 0 0
    outer loop
      vertex -16.632 -38.2 0.246
      vertex -16.632 -24.7697 0
      vertex -16.632 -24.7697 0.246
    endloop
  endfacet
  facet normal 0.955559 -6.54588e-17 -0.2948
    outer loop
      vertex -16.632 -38.2 0.246
      vertex -16.632 -24.7697 0.246
      vertex -16.487 -38.2 0.716
    endloop
  endfacet
  facet normal 0.5373 0.843391 0
    outer loop
      vertex -17.1243 -24.4561 0
      vertex -17.1243 -24.4561 3
      vertex -16.632 -24.7697 0
    endloop
  endfacet
  facet normal 0.5373 0.843391 0
    outer loop
      vertex -17.1243 -24.4561 3
      vertex -14.9277 -25.8555 1.65
      vertex -15.684 -25.3736 1.65
    endloop
  endfacet
  facet normal 0.5373 0.843391 0
    outer loop
      vertex -17.1243 -24.4561 3
      vertex -14.9277 -25.8555 3
      vertex -14.9277 -25.8555 1.65
    endloop
  endfacet
  facet normal 0.5373 0.843391 0
    outer loop
      vertex -17.1243 -24.4561 3
      vertex -15.684 -25.3736 1.65
      vertex -16.167 -25.0659 1.167
    endloop
  endfacet
  facet normal 0.5373 0.843391 0
    outer loop
      vertex -17.1243 -24.4561 3
      vertex -16.167 -25.0659 1.167
      vertex -16.21 -25.0385 1.122
    endloop
  endfacet
  facet normal 0.5373 0.843391 0
    outer loop
      vertex -17.1243 -24.4561 3
      vertex -16.21 -25.0385 1.122
      vertex -16.487 -24.8621 0.716
    endloop
  endfacet
  facet normal 0.5373 0.843391 0
    outer loop
      vertex -17.1243 -24.4561 3
      vertex -16.487 -24.8621 0.716
      vertex -16.632 -24.7697 0.246
    endloop
  endfacet
  facet normal 0.5373 0.843391 0
    outer loop
      vertex -17.1243 -24.4561 3
      vertex -16.632 -24.7697 0.246
      vertex -16.632 -24.7697 0
    endloop
  endfacet
  facet normal 0.608761 0.793353 0
    outer loop
      vertex -19.1906 -22.8705 0
      vertex -19.1906 -22.8705 3
      vertex -17.1243 -24.4561 0
    endloop
  endfacet
  facet normal 0.608761 0.793353 0
    outer loop
      vertex -19.1906 -22.8705 3
      vertex -17.1243 -24.4561 3
      vertex -17.1243 -24.4561 0
    endloop
  endfacet
  facet normal 0.0436196 0.999048 0
    outer loop
      vertex -2.60206 -29.7417 0
      vertex -2.60206 -29.7417 3
      vertex 0 -29.8553 0
    endloop
  endfacet
  facet normal 0 0 -1
    outer loop
      vertex -2.60206 -29.7417 0
      vertex 0 -29.8553 0
      vertex 13.368 -38.2 0
    endloop
  endfacet
  facet normal 0.0436196 0.999048 0
    outer loop
      vertex -2.60206 -29.7417 3
      vertex 0 -29.8553 3
      vertex 0 -29.8553 0
    endloop
  endfacet
  facet normal 0 0 1
    outer loop
      vertex -2.60206 -29.7417 3
      vertex 21.5 -38.2 3
      vertex 0 -29.8553 3
    endloop
  endfacet
  facet normal 0.67559 0.737277 0
    outer loop
      vertex -21.1109 -21.1109 0
      vertex -21.1109 -21.1109 3
      vertex -19.1906 -22.8705 0
    endloop
  endfacet
  facet normal 0.67559 0.737277 0
    outer loop
      vertex -21.1109 -21.1109 3
      vertex -19.1906 -22.8705 3
      vertex -19.1906 -22.8705 0
    endloop
  endfacet
  facet normal 0 -1 0
    outer loop
      vertex -21.5 -38.2 0
      vertex -16.632 -38.2 0
      vertex -21.5 -38.2 3
    endloop
  endfacet
  facet normal 0 -1 0
    outer loop
      vertex -21.5 -38.2 3
      vertex -14.316 -38.2 1.65
      vertex 13.368 -38.2 0
    endloop
  endfacet
  facet normal 0 -1 0
    outer loop
      vertex -21.5 -38.2 3
      vertex -15.684 -38.2 1.65
      vertex -14.316 -38.2 1.65
    endloop
  endfacet
  facet normal 0 -1 0
    outer loop
      vertex -21.5 -38.2 3
      vertex -16.167 -38.2 1.167
      vertex -15.684 -38.2 1.65
    endloop
  endfacet
  facet normal 0 -1 0
    outer loop
      vertex -21.5 -38.2 3
      vertex -16.21 -38.2 1.122
      vertex -16.167 -38.2 1.167
    endloop
  endfacet
  facet normal 0 -1 0
    outer loop
      vertex -21.5 -38.2 3
      vertex -16.487 -38.2 0.716
      vertex -16.21 -38.2 1.122
    endloop
  endfacet
  facet normal 0 -1 0
    outer loop
      vertex -21.5 -38.2 3
      vertex -16.632 -38.2 0
      vertex -16.632 -38.2 0.246
    endloop
  endfacet
  facet normal 0 -1 0
    outer loop
      vertex -21.5 -38.2 3
      vertex -16.632 -38.2 0.246
      vertex -16.487 -38.2 0.716
    endloop
  endfacet
  facet normal 0 -1 0
    outer loop
      vertex -21.5 -38.2 3
      vertex 13.368 -38.2 0
      vertex 13.368 -38.2 0.246
    endloop
  endfacet
  facet normal 0 -1 0
    outer loop
      vertex -21.5 -38.2 3
      vertex 13.368 -38.2 0.246
      vertex 13.513 -38.2 0.716
    endloop
  endfacet
  facet normal 0 -1 0
    outer loop
      vertex -21.5 -38.2 3
      vertex 13.513 -38.2 0.716
      vertex 13.79 -38.2 1.122
    endloop
  endfacet
  facet normal 0 -1 0
    outer loop
      vertex -21.5 -38.2 3
      vertex 13.79 -38.2 1.122
      vertex 13.833 -38.2 1.167
    endloop
  endfacet
  facet normal 0 -1 0
    outer loop
      vertex -21.5 -38.2 3
      vertex 13.833 -38.2 1.167
      vertex 14.316 -38.2 1.65
    endloop
  endfacet
  facet normal 0 -1 0
    outer loop
      vertex -21.5 -38.2 3
      vertex 14.316 -38.2 1.65
      vertex 15.684 -38.2 1.65
    endloop
  endfacet
  facet normal 0 -1 0
    outer loop
      vertex -21.5 -38.2 3
      vertex 15.684 -38.2 1.65
      vertex 21.5 -38.2 3
    endloop
  endfacet
  facet normal 0 0 -1
    outer loop
      vertex -22.5588 -25 0
      vertex -17.1243 -24.4561 0
      vertex -16.632 -24.7697 0
    endloop
  endfacet
  facet normal 0 0 1
    outer loop
      vertex -22.5588 -25 3
      vertex -10.2111 -28.0548 3
      vertex -12.6174 -27.0581 3
    endloop
  endfacet
  facet normal 0 0 1
    outer loop
      vertex -22.5588 -25 3
      vertex -12.6174 -27.0581 3
      vertex -14.9277 -25.8555 3
    endloop
  endfacet
  facet normal 0 0 1
    outer loop
      vertex -22.5588 -25 3
      vertex -14.9277 -25.8555 3
      vertex -17.1243 -24.4561 3
    endloop
  endfacet
  facet normal 0 0 1
    outer loop
      vertex -22.5588 -25 3
      vertex -7.72713 -28.838 3
      vertex -10.2111 -28.0548 3
    endloop
  endfacet
  facet normal 0 0 1
    outer loop
      vertex -22.5588 -25 3
      vertex 21.5 -38.2 3
      vertex -7.72713 -28.838 3
    endloop
  endfacet
  facet normal 0.737277 0.67559 0
    outer loop
      vertex -22.582 -19.5055 0
      vertex -22.582 -19.5055 3
      vertex -21.1109 -21.1109 0
    endloop
  endfacet
  facet normal 0.737277 0.67559 0
    outer loop
      vertex -22.582 -19.5055 3
      vertex -21.1109 -21.1109 3
      vertex -21.1109 -21.1109 0
    endloop
  endfacet
  facet normal 0 0 -1
    outer loop
      vertex -23.1299 -23.4308 0
      vertex -17.1243 -24.4561 0
      vertex -22.5588 -25 0
    endloop
  endfacet
  facet normal 0 0 -1
    outer loop
      vertex -23.1299 -23.4308 0
      vertex -19.1906 -22.8705 0
      vertex -17.1243 -24.4561 0
    endloop
  endfacet
  facet normal 0 0 -1
    outer loop
      vertex -23.1299 -23.4308 0
      vertex -21.1109 -21.1109 0
      vertex -19.1906 -22.8705 0
    endloop
  endfacet
  facet normal -0.939693 -0.34202 0
    outer loop
      vertex -23.1299 -23.4308 0
      vertex -22.5588 -25 0
      vertex -23.1299 -23.4308 3
    endloop
  endfacet
  facet normal 0 0 1
    outer loop
      vertex -23.1299 -23.4308 3
      vertex -17.1243 -24.4561 3
      vertex -19.1906 -22.8705 3
    endloop
  endfacet
  facet normal -0.939693 -0.34202 0
    outer loop
      vertex -23.1299 -23.4308 3
      vertex -22.5588 -25 0
      vertex -22.5588 -25 3
    endloop
  endfacet
  facet normal 0 0 1
    outer loop
      vertex -23.1299 -23.4308 3
      vertex -22.5588 -25 3
      vertex -17.1243 -24.4561 3
    endloop
  endfacet
  facet normal 0 0 -1
    outer loop
      vertex -23.1299 -26.5692 0
      vertex -22.5588 -25 0
      vertex -16.632 -24.7697 0
    endloop
  endfacet
  facet normal -0.939693 0.34202 0
    outer loop
      vertex -23.1299 -26.5692 0
      vertex -23.1299 -26.5692 3
      vertex -22.5588 -25 0
    endloop
  endfacet
  facet normal -0.939693 0.34202 0
    outer loop
      vertex -23.1299 -26.5692 3
      vertex -22.5588 -25 3
      vertex -22.5588 -25 0
    endloop
  endfacet
  facet normal 0 0 1
    outer loop
      vertex -23.1299 -26.5692 3
      vertex 21.5 -38.2 3
      vertex -22.5588 -25 3
    endloop
  endfacet
  facet normal 0 0 -1
    outer loop
      vertex -24.5761 -22.5959 0
      vertex -21.1109 -21.1109 0
      vertex -23.1299 -23.4308 0
    endloop
  endfacet
  facet normal 0 0 -1
    outer loop
      vertex -24.5761 -22.5959 0
      vertex -22.582 -19.5055 0
      vertex -21.1109 -21.1109 0
    endloop
  endfacet
  facet normal -0.5 -0.866025 0
    outer loop
      vertex -24.5761 -22.5959 0
      vertex -23.1299 -23.4308 0
      vertex -24.5761 -22.5959 3
    endloop
  endfacet
  facet normal 0 0 1
    outer loop
      vertex -24.5761 -22.5959 3
      vertex -19.1906 -22.8705 3
      vertex -21.1109 -21.1109 3
    endloop
  endfacet
  facet normal -0.5 -0.866025 0
    outer loop
      vertex -24.5761 -22.5959 3
      vertex -23.1299 -23.4308 0
      vertex -23.1299 -23.4308 3
    endloop
  endfacet
  facet normal 0 0 1
    outer loop
      vertex -24.5761 -22.5959 3
      vertex -23.1299 -23.4308 3
      vertex -19.1906 -22.8705 3
    endloop
  endfacet
  facet normal 0 0 -1
    outer loop
      vertex -24.5761 -27.4041 0
      vertex -16.632 -24.7697 0
      vertex -16.632 -38.2 0
    endloop
  endfacet
  facet normal 0 0 -1
    outer loop
      vertex -24.5761 -27.4041 0
      vertex -23.1299 -26.5692 0
      vertex -16.632 -24.7697 0
    endloop
  endfacet
  facet normal -0.5 0.866025 0
    outer loop
      vertex -24.5761 -27.4041 0
      vertex -24.5761 -27.4041 3
      vertex -23.1299 -26.5692 0
    endloop
  endfacet
  facet normal 0 0 1
    outer loop
      vertex -24.5761 -27.4041 3
      vertex -21.5 -38.2 3
      vertex 21.5 -38.2 3
    endloop
  endfacet
  facet normal -0.5 0.866025 0
    outer loop
      vertex -24.5761 -27.4041 3
      vertex -23.1299 -26.5692 3
      vertex -23.1299 -26.5692 0
    endloop
  endfacet
  facet normal 0 0 1
    outer loop
      vertex -24.5761 -27.4041 3
      vertex 21.5 -38.2 3
      vertex -23.1299 -26.5692 3
    endloop
  endfacet
  facet normal 0 1 0
    outer loop
      vertex -25.2468 -19.5055 0
      vertex -25.2468 -19.5055 3
      vertex -22.582 -19.5055 0
    endloop
  endfacet
  facet normal 0 1 0
    outer loop
      vertex -25.2468 -19.5055 3
      vertex -22.582 -19.5055 3
      vertex -22.582 -19.5055 0
    endloop
  endfacet
  facet normal -0.089639 0.995974 0
    outer loop
      vertex -25.7383 -19.5498 0
      vertex -25.7383 -19.5498 3
      vertex -25.2468 -19.5055 0
    endloop
  endfacet
  facet normal -0.089639 0.995974 0
    outer loop
      vertex -25.7383 -19.5498 3
      vertex -25.2468 -19.5055 3
      vertex -25.2468 -19.5055 0
    endloop
  endfacet
  facet normal 0 0 -1
    outer loop
      vertex -26.2206 -22.8859 0
      vertex -22.582 -19.5055 0
      vertex -24.5761 -22.5959 0
    endloop
  endfacet
  facet normal 0.173648 -0.984808 0
    outer loop
      vertex -26.2206 -22.8859 0
      vertex -24.5761 -22.5959 0
      vertex -26.2206 -22.8859 3
    endloop
  endfacet
  facet normal 0 0 1
    outer loop
      vertex -26.2206 -22.8859 3
      vertex -21.1109 -21.1109 3
      vertex -22.582 -19.5055 3
    endloop
  endfacet
  facet normal 0.173648 -0.984808 0
    outer loop
      vertex -26.2206 -22.8859 3
      vertex -24.5761 -22.5959 0
      vertex -24.5761 -22.5959 3
    endloop
  endfacet
  facet normal 0 0 1
    outer loop
      vertex -26.2206 -22.8859 3
      vertex -24.5761 -22.5959 3
      vertex -21.1109 -21.1109 3
    endloop
  endfacet
  facet normal 0 0 -1
    outer loop
      vertex -26.2206 -27.1141 0
      vertex -24.5761 -27.4041 0
      vertex -16.632 -38.2 0
    endloop
  endfacet
  facet normal 0.173648 0.984808 0
    outer loop
      vertex -26.2206 -27.1141 0
      vertex -26.2206 -27.1141 3
      vertex -24.5761 -27.4041 0
    endloop
  endfacet
  facet normal 0 0 1
    outer loop
      vertex -26.2206 -27.1141 3
      vertex -21.5 -38.2 3
      vertex -24.5761 -27.4041 3
    endloop
  endfacet
  facet normal 0.173648 0.984808 0
    outer loop
      vertex -26.2206 -27.1141 3
      vertex -24.5761 -27.4041 3
      vertex -24.5761 -27.4041 0
    endloop
  endfacet
  facet normal -0.178557 0.98393 0
    outer loop
      vertex -26.2239 -19.6379 0
      vertex -26.2239 -19.6379 3
      vertex -25.7383 -19.5498 0
    endloop
  endfacet
  facet normal -0.178557 0.98393 0
    outer loop
      vertex -26.2239 -19.6379 3
      vertex -25.7383 -19.5498 3
      vertex -25.7383 -19.5498 0
    endloop
  endfacet
  facet normal -0.266038 0.963963 0
    outer loop
      vertex -26.6996 -19.7692 0
      vertex -26.6996 -19.7692 3
      vertex -26.2239 -19.6379 0
    endloop
  endfacet
  facet normal -0.266038 0.963963 0
    outer loop
      vertex -26.6996 -19.7692 3
      vertex -26.2239 -19.6379 3
      vertex -26.2239 -19.6379 0
    endloop
  endfacet
  facet normal -0.351374 0.936235 0
    outer loop
      vertex -27.1616 -19.9426 0
      vertex -27.1616 -19.9426 3
      vertex -26.6996 -19.7692 0
    endloop
  endfacet
  facet normal -0.351374 0.936235 0
    outer loop
      vertex -27.1616 -19.9426 3
      vertex -26.6996 -19.7692 3
      vertex -26.6996 -19.7692 0
    endloop
  endfacet
  facet normal 0.766045 -0.642787 0
    outer loop
      vertex -27.294 -24.1651 0
      vertex -26.2206 -22.8859 0
      vertex -27.294 -24.1651 3
    endloop
  endfacet
  facet normal 0.766045 -0.642787 0
    outer loop
      vertex -27.294 -24.1651 3
      vertex -26.2206 -22.8859 0
      vertex -26.2206 -22.8859 3
    endloop
  endfacet
  facet normal 1 0 0
    outer loop
      vertex -27.294 -25.8349 0
      vertex -27.294 -24.1651 0
      vertex -27.294 -25.8349 3
    endloop
  endfacet
  facet normal 0.766045 0.642787 0
    outer loop
      vertex -27.294 -25.8349 0
      vertex -27.294 -25.8349 3
      vertex -26.2206 -27.1141 0
    endloop
  endfacet
  facet normal 0 0 1
    outer loop
      vertex -27.294 -25.8349 3
      vertex -21.5 -38.2 3
      vertex -26.2206 -27.1141 3
    endloop
  endfacet
  facet normal 0.766045 0.642787 0
    outer loop
      vertex -27.294 -25.8349 3
      vertex -26.2206 -27.1141 3
      vertex -26.2206 -27.1141 0
    endloop
  endfacet
  facet normal 1 0 0
    outer loop
      vertex -27.294 -25.8349 3
      vertex -27.294 -24.1651 0
      vertex -27.294 -24.1651 3
    endloop
  endfacet
  facet normal -0.433885 0.900968 0
    outer loop
      vertex -27.6063 -20.1567 0
      vertex -27.6063 -20.1567 3
      vertex -27.1616 -19.9426 0
    endloop
  endfacet
  facet normal -0.433885 0.900968 0
    outer loop
      vertex -27.6063 -20.1567 3
      vertex -27.1616 -19.9426 3
      vertex -27.1616 -19.9426 0
    endloop
  endfacet
  facet normal -0.512899 0.858449 0
    outer loop
      vertex -28.0299 -20.4098 0
      vertex -28.0299 -20.4098 3
      vertex -27.6063 -20.1567 0
    endloop
  endfacet
  facet normal -0.512899 0.858449 0
    outer loop
      vertex -28.0299 -20.4098 3
      vertex -27.6063 -20.1567 3
      vertex -27.6063 -20.1567 0
    endloop
  endfacet
  facet normal -0.587785 0.809017 0
    outer loop
      vertex -28.4292 -20.6999 0
      vertex -28.4292 -20.6999 3
      vertex -28.0299 -20.4098 0
    endloop
  endfacet
  facet normal -0.587785 0.809017 0
    outer loop
      vertex -28.4292 -20.6999 3
      vertex -28.0299 -20.4098 3
      vertex -28.0299 -20.4098 0
    endloop
  endfacet
  facet normal -0.657938 0.753072 0
    outer loop
      vertex -28.8008 -21.0246 0
      vertex -28.8008 -21.0246 3
      vertex -28.4292 -20.6999 0
    endloop
  endfacet
  facet normal -0.657938 0.753072 0
    outer loop
      vertex -28.8008 -21.0246 3
      vertex -28.4292 -20.6999 3
      vertex -28.4292 -20.6999 0
    endloop
  endfacet
  facet normal -0.722796 0.691062 0
    outer loop
      vertex -29.1419 -21.3813 0
      vertex -29.1419 -21.3813 3
      vertex -28.8008 -21.0246 0
    endloop
  endfacet
  facet normal -0.722796 0.691062 0
    outer loop
      vertex -29.1419 -21.3813 3
      vertex -28.8008 -21.0246 3
      vertex -28.8008 -21.0246 0
    endloop
  endfacet
  facet normal -0.78179 -0.623541 0
    outer loop
      vertex -29.1419 -28.6187 0
      vertex -21.5 -38.2 0
      vertex -29.1419 -28.6187 3
    endloop
  endfacet
  facet normal -0.78179 -0.623541 0
    outer loop
      vertex -29.1419 -28.6187 3
      vertex -21.5 -38.2 0
      vertex -21.5 -38.2 3
    endloop
  endfacet
  facet normal -0.781832 0.623489 0
    outer loop
      vertex -29.4496 -21.7672 0
      vertex -29.4496 -21.7672 3
      vertex -29.1419 -21.3813 0
    endloop
  endfacet
  facet normal -0.781832 0.623489 0
    outer loop
      vertex -29.4496 -21.7672 3
      vertex -29.1419 -21.3813 3
      vertex -29.1419 -21.3813 0
    endloop
  endfacet
  facet normal -0.781832 -0.623489 0
    outer loop
      vertex -29.4496 -28.2328 0
      vertex -29.1419 -28.6187 0
      vertex -29.4496 -28.2328 3
    endloop
  endfacet
  facet normal -0.781832 -0.623489 0
    outer loop
      vertex -29.4496 -28.2328 3
      vertex -29.1419 -28.6187 0
      vertex -29.1419 -28.6187 3
    endloop
  endfacet
  facet normal -0.834573 0.550897 0
    outer loop
      vertex -29.7215 -22.1791 0
      vertex -29.7215 -22.1791 3
      vertex -29.4496 -21.7672 0
    endloop
  endfacet
  facet normal -0.834573 0.550897 0
    outer loop
      vertex -29.7215 -22.1791 3
      vertex -29.4496 -21.7672 3
      vertex -29.4496 -21.7672 0
    endloop
  endfacet
  facet normal -0.834573 -0.550897 0
    outer loop
      vertex -29.7215 -27.8209 0
      vertex -29.4496 -28.2328 0
      vertex -29.7215 -27.8209 3
    endloop
  endfacet
  facet normal -0.834573 -0.550897 0
    outer loop
      vertex -29.7215 -27.8209 3
      vertex -29.4496 -28.2328 0
      vertex -29.4496 -28.2328 3
    endloop
  endfacet
  facet normal -0.880595 0.47387 0
    outer loop
      vertex -29.9553 -22.6136 0
      vertex -29.9553 -22.6136 3
      vertex -29.7215 -22.1791 0
    endloop
  endfacet
  facet normal -0.880595 0.47387 0
    outer loop
      vertex -29.9553 -22.6136 3
      vertex -29.7215 -22.1791 3
      vertex -29.7215 -22.1791 0
    endloop
  endfacet
  facet normal -0.880595 -0.47387 0
    outer loop
      vertex -29.9553 -27.3864 0
      vertex -29.7215 -27.8209 0
      vertex -29.9553 -27.3864 3
    endloop
  endfacet
  facet normal -0.880595 -0.47387 0
    outer loop
      vertex -29.9553 -27.3864 3
      vertex -29.7215 -27.8209 0
      vertex -29.7215 -27.8209 3
    endloop
  endfacet
  facet normal -0.919528 0.393025 0
    outer loop
      vertex -30.1493 -23.0674 0
      vertex -30.1493 -23.0674 3
      vertex -29.9553 -22.6136 0
    endloop
  endfacet
  facet normal -0.919528 0.393025 0
    outer loop
      vertex -30.1493 -23.0674 3
      vertex -29.9553 -22.6136 3
      vertex -29.9553 -22.6136 0
    endloop
  endfacet
  facet normal -0.919528 -0.393025 0
    outer loop
      vertex -30.1493 -26.9326 0
      vertex -29.9553 -27.3864 0
      vertex -30.1493 -26.9326 3
    endloop
  endfacet
  facet normal -0.919528 -0.393025 0
    outer loop
      vertex -30.1493 -26.9326 3
      vertex -29.9553 -27.3864 0
      vertex -29.9553 -27.3864 3
    endloop
  endfacet
  facet normal -0.951057 0.309017 0
    outer loop
      vertex -30.3018 -23.5368 0
      vertex -30.3018 -23.5368 3
      vertex -30.1493 -23.0674 0
    endloop
  endfacet
  facet normal -0.951057 0.309017 0
    outer loop
      vertex -30.3018 -23.5368 3
      vertex -30.1493 -23.0674 3
      vertex -30.1493 -23.0674 0
    endloop
  endfacet
  facet normal -0.951057 -0.309017 0
    outer loop
      vertex -30.3018 -26.4632 0
      vertex -30.1493 -26.9326 0
      vertex -30.3018 -26.4632 3
    endloop
  endfacet
  facet normal -0.951057 -0.309017 0
    outer loop
      vertex -30.3018 -26.4632 3
      vertex -30.1493 -26.9326 0
      vertex -30.1493 -26.9326 3
    endloop
  endfacet
  facet normal -0.974928 0.222521 0
    outer loop
      vertex -30.4116 -24.0179 0
      vertex -30.4116 -24.0179 3
      vertex -30.3018 -23.5368 0
    endloop
  endfacet
  facet normal -0.974928 0.222521 0
    outer loop
      vertex -30.4116 -24.0179 3
      vertex -30.3018 -23.5368 3
      vertex -30.3018 -23.5368 0
    endloop
  endfacet
  facet normal -0.974928 -0.222521 0
    outer loop
      vertex -30.4116 -25.9821 0
      vertex -30.3018 -26.4632 0
      vertex -30.4116 -25.9821 3
    endloop
  endfacet
  facet normal -0.974928 -0.222521 0
    outer loop
      vertex -30.4116 -25.9821 3
      vertex -30.3018 -26.4632 0
      vertex -30.3018 -26.4632 3
    endloop
  endfacet
  facet normal -0.99095 0.134233 0
    outer loop
      vertex -30.4779 -24.507 0
      vertex -30.4779 -24.507 3
      vertex -30.4116 -24.0179 0
    endloop
  endfacet
  facet normal 0 0 1
    outer loop
      vertex -30.4779 -24.507 3
      vertex -21.5 -38.2 3
      vertex -27.294 -25.8349 3
    endloop
  endfacet
  facet normal 0 0 1
    outer loop
      vertex -30.4779 -24.507 3
      vertex -22.582 -19.5055 3
      vertex -25.2468 -19.5055 3
    endloop
  endfacet
  facet normal 0 0 1
    outer loop
      vertex -30.4779 -24.507 3
      vertex -25.2468 -19.5055 3
      vertex -25.7383 -19.5498 3
    endloop
  endfacet
  facet normal 0 0 1
    outer loop
      vertex -30.4779 -24.507 3
      vertex -25.7383 -19.5498 3
      vertex -26.2239 -19.6379 3
    endloop
  endfacet
  facet normal 0 0 1
    outer loop
      vertex -30.4779 -24.507 3
      vertex -26.2206 -22.8859 3
      vertex -22.582 -19.5055 3
    endloop
  endfacet
  facet normal 0 0 1
    outer loop
      vertex -30.4779 -24.507 3
      vertex -26.2239 -19.6379 3
      vertex -26.6996 -19.7692 3
    endloop
  endfacet
  facet normal 0 0 1
    outer loop
      vertex -30.4779 -24.507 3
      vertex -26.6996 -19.7692 3
      vertex -27.1616 -19.9426 3
    endloop
  endfacet
  facet normal 0 0 1
    outer loop
      vertex -30.4779 -24.507 3
      vertex -27.1616 -19.9426 3
      vertex -27.6063 -20.1567 3
    endloop
  endfacet
  facet normal 0 0 1
    outer loop
      vertex -30.4779 -24.507 3
      vertex -27.294 -24.1651 3
      vertex -26.2206 -22.8859 3
    endloop
  endfacet
  facet normal 0 0 1
    outer loop
      vertex -30.4779 -24.507 3
      vertex -27.294 -25.8349 3
      vertex -27.294 -24.1651 3
    endloop
  endfacet
  facet normal 0 0 1
    outer loop
      vertex -30.4779 -24.507 3
      vertex -27.6063 -20.1567 3
      vertex -28.0299 -20.4098 3
    endloop
  endfacet
  facet normal 0 0 1
    outer loop
      vertex -30.4779 -24.507 3
      vertex -28.0299 -20.4098 3
      vertex -28.4292 -20.6999 3
    endloop
  endfacet
  facet normal 0 0 1
    outer loop
      vertex -30.4779 -24.507 3
      vertex -28.4292 -20.6999 3
      vertex -28.8008 -21.0246 3
    endloop
  endfacet
  facet normal 0 0 1
    outer loop
      vertex -30.4779 -24.507 3
      vertex -28.8008 -21.0246 3
      vertex -29.1419 -21.3813 3
    endloop
  endfacet
  facet normal 0 0 1
    outer loop
      vertex -30.4779 -24.507 3
      vertex -29.1419 -21.3813 3
      vertex -29.4496 -21.7672 3
    endloop
  endfacet
  facet normal 0 0 1
    outer loop
      vertex -30.4779 -24.507 3
      vertex -29.1419 -28.6187 3
      vertex -21.5 -38.2 3
    endloop
  endfacet
  facet normal 0 0 1
    outer loop
      vertex -30.4779 -24.507 3
      vertex -29.4496 -21.7672 3
      vertex -29.7215 -22.1791 3
    endloop
  endfacet
  facet normal 0 0 1
    outer loop
      vertex -30.4779 -24.507 3
      vertex -29.4496 -28.2328 3
      vertex -29.1419 -28.6187 3
    endloop
  endfacet
  facet normal 0 0 1
    outer loop
      vertex -30.4779 -24.507 3
      vertex -29.7215 -22.1791 3
      vertex -29.9553 -22.6136 3
    endloop
  endfacet
  facet normal 0 0 1
    outer loop
      vertex -30.4779 -24.507 3
      vertex -29.7215 -27.8209 3
      vertex -29.4496 -28.2328 3
    endloop
  endfacet
  facet normal 0 0 1
    outer loop
      vertex -30.4779 -24.507 3
      vertex -29.9553 -22.6136 3
      vertex -30.1493 -23.0674 3
    endloop
  endfacet
  facet normal 0 0 1
    outer loop
      vertex -30.4779 -24.507 3
      vertex -29.9553 -27.3864 3
      vertex -29.7215 -27.8209 3
    endloop
  endfacet
  facet normal 0 0 1
    outer loop
      vertex -30.4779 -24.507 3
      vertex -30.1493 -23.0674 3
      vertex -30.3018 -23.5368 3
    endloop
  endfacet
  facet normal 0 0 1
    outer loop
      vertex -30.4779 -24.507 3
      vertex -30.1493 -26.9326 3
      vertex -29.9553 -27.3864 3
    endloop
  endfacet
  facet normal 0 0 1
    outer loop
      vertex -30.4779 -24.507 3
      vertex -30.3018 -23.5368 3
      vertex -30.4116 -24.0179 3
    endloop
  endfacet
  facet normal 0 0 1
    outer loop
      vertex -30.4779 -24.507 3
      vertex -30.3018 -26.4632 3
      vertex -30.1493 -26.9326 3
    endloop
  endfacet
  facet normal -0.99095 0.134233 0
    outer loop
      vertex -30.4779 -24.507 3
      vertex -30.4116 -24.0179 3
      vertex -30.4116 -24.0179 0
    endloop
  endfacet
  facet normal 0 0 1
    outer loop
      vertex -30.4779 -24.507 3
      vertex -30.4116 -25.9821 3
      vertex -30.3018 -26.4632 3
    endloop
  endfacet
  facet normal 0 0 -1
    outer loop
      vertex -30.4779 -25.493 0
      vertex -16.632 -38.2 0
      vertex -21.5 -38.2 0
    endloop
  endfacet
  facet normal 0 0 -1
    outer loop
      vertex -30.4779 -25.493 0
      vertex -21.5 -38.2 0
      vertex -29.1419 -28.6187 0
    endloop
  endfacet
  facet normal 0 0 -1
    outer loop
      vertex -30.4779 -25.493 0
      vertex -22.582 -19.5055 0
      vertex -26.2206 -22.8859 0
    endloop
  endfacet
  facet normal 0 0 -1
    outer loop
      vertex -30.4779 -25.493 0
      vertex -25.2468 -19.5055 0
      vertex -22.582 -19.5055 0
    endloop
  endfacet
  facet normal 0 0 -1
    outer loop
      vertex -30.4779 -25.493 0
      vertex -25.7383 -19.5498 0
      vertex -25.2468 -19.5055 0
    endloop
  endfacet
  facet normal 0 0 -1
    outer loop
      vertex -30.4779 -25.493 0
      vertex -26.2206 -22.8859 0
      vertex -27.294 -24.1651 0
    endloop
  endfacet
  facet normal 0 0 -1
    outer loop
      vertex -30.4779 -25.493 0
      vertex -26.2206 -27.1141 0
      vertex -16.632 -38.2 0
    endloop
  endfacet
  facet normal 0 0 -1
    outer loop
      vertex -30.4779 -25.493 0
      vertex -26.2239 -19.6379 0
      vertex -25.7383 -19.5498 0
    endloop
  endfacet
  facet normal 0 0 -1
    outer loop
      vertex -30.4779 -25.493 0
      vertex -26.6996 -19.7692 0
      vertex -26.2239 -19.6379 0
    endloop
  endfacet
  facet normal 0 0 -1
    outer loop
      vertex -30.4779 -25.493 0
      vertex -27.1616 -19.9426 0
      vertex -26.6996 -19.7692 0
    endloop
  endfacet
  facet normal 0 0 -1
    outer loop
      vertex -30.4779 -25.493 0
      vertex -27.294 -24.1651 0
      vertex -27.294 -25.8349 0
    endloop
  endfacet
  facet normal 0 0 -1
    outer loop
      vertex -30.4779 -25.493 0
      vertex -27.294 -25.8349 0
      vertex -26.2206 -27.1141 0
    endloop
  endfacet
  facet normal 0 0 -1
    outer loop
      vertex -30.4779 -25.493 0
      vertex -27.6063 -20.1567 0
      vertex -27.1616 -19.9426 0
    endloop
  endfacet
  facet normal 0 0 -1
    outer loop
      vertex -30.4779 -25.493 0
      vertex -28.0299 -20.4098 0
      vertex -27.6063 -20.1567 0
    endloop
  endfacet
  facet normal 0 0 -1
    outer loop
      vertex -30.4779 -25.493 0
      vertex -28.4292 -20.6999 0
      vertex -28.0299 -20.4098 0
    endloop
  endfacet
  facet normal 0 0 -1
    outer loop
      vertex -30.4779 -25.493 0
      vertex -28.8008 -21.0246 0
      vertex -28.4292 -20.6999 0
    endloop
  endfacet
  facet normal 0 0 -1
    outer loop
      vertex -30.4779 -25.493 0
      vertex -29.1419 -21.3813 0
      vertex -28.8008 -21.0246 0
    endloop
  endfacet
  facet normal 0 0 -1
    outer loop
      vertex -30.4779 -25.493 0
      vertex -29.1419 -28.6187 0
      vertex -29.4496 -28.2328 0
    endloop
  endfacet
  facet normal 0 0 -1
    outer loop
      vertex -30.4779 -25.493 0
      vertex -29.4496 -21.7672 0
      vertex -29.1419 -21.3813 0
    endloop
  endfacet
  facet normal 0 0 -1
    outer loop
      vertex -30.4779 -25.493 0
      vertex -29.4496 -28.2328 0
      vertex -29.7215 -27.8209 0
    endloop
  endfacet
  facet normal 0 0 -1
    outer loop
      vertex -30.4779 -25.493 0
      vertex -29.7215 -22.1791 0
      vertex -29.4496 -21.7672 0
    endloop
  endfacet
  facet normal 0 0 -1
    outer loop
      vertex -30.4779 -25.493 0
      vertex -29.7215 -27.8209 0
      vertex -29.9553 -27.3864 0
    endloop
  endfacet
  facet normal 0 0 -1
    outer loop
      vertex -30.4779 -25.493 0
      vertex -29.9553 -22.6136 0
      vertex -29.7215 -22.1791 0
    endloop
  endfacet
  facet normal 0 0 -1
    outer loop
      vertex -30.4779 -25.493 0
      vertex -29.9553 -27.3864 0
      vertex -30.1493 -26.9326 0
    endloop
  endfacet
  facet normal 0 0 -1
    outer loop
      vertex -30.4779 -25.493 0
      vertex -30.1493 -23.0674 0
      vertex -29.9553 -22.6136 0
    endloop
  endfacet
  facet normal 0 0 -1
    outer loop
      vertex -30.4779 -25.493 0
      vertex -30.1493 -26.9326 0
      vertex -30.3018 -26.4632 0
    endloop
  endfacet
  facet normal 0 0 -1
    outer loop
      vertex -30.4779 -25.493 0
      vertex -30.3018 -23.5368 0
      vertex -30.1493 -23.0674 0
    endloop
  endfacet
  facet normal 0 0 -1
    outer loop
      vertex -30.4779 -25.493 0
      vertex -30.3018 -26.4632 0
      vertex -30.4116 -25.9821 0
    endloop
  endfacet
  facet normal 0 0 -1
    outer loop
      vertex -30.4779 -25.493 0
      vertex -30.4116 -24.0179 0
      vertex -30.3018 -23.5368 0
    endloop
  endfacet
  facet normal -0.99095 -0.134233 0
    outer loop
      vertex -30.4779 -25.493 0
      vertex -30.4116 -25.9821 0
      vertex -30.4779 -25.493 3
    endloop
  endfacet
  facet normal 0 0 -1
    outer loop
      vertex -30.4779 -25.493 0
      vertex -30.4779 -24.507 0
      vertex -30.4116 -24.0179 0
    endloop
  endfacet
  facet normal -0.99095 -0.134233 0
    outer loop
      vertex -30.4779 -25.493 3
      vertex -30.4116 -25.9821 0
      vertex -30.4116 -25.9821 3
    endloop
  endfacet
  facet normal 0 0 1
    outer loop
      vertex -30.4779 -25.493 3
      vertex -30.4116 -25.9821 3
      vertex -30.4779 -24.507 3
    endloop
  endfacet
  facet normal 0 0 -1
    outer loop
      vertex -30.5 -25 0
      vertex -30.4779 -24.507 0
      vertex -30.4779 -25.493 0
    endloop
  endfacet
  facet normal -0.998993 -0.0448641 0
    outer loop
      vertex -30.5 -25 0
      vertex -30.4779 -25.493 0
      vertex -30.5 -25 3
    endloop
  endfacet
  facet normal -0.998993 0.0448641 0
    outer loop
      vertex -30.5 -25 0
      vertex -30.5 -25 3
      vertex -30.4779 -24.507 0
    endloop
  endfacet
  facet normal -0.998993 0.0448641 0
    outer loop
      vertex -30.5 -25 3
      vertex -30.4779 -24.507 3
      vertex -30.4779 -24.507 0
    endloop
  endfacet
  facet normal -0.998993 -0.0448641 0
    outer loop
      vertex -30.5 -25 3
      vertex -30.4779 -25.493 0
      vertex -30.4779 -25.493 3
    endloop
  endfacet
  facet normal 0 0 1
    outer loop
      vertex -30.5 -25 3
      vertex -30.4779 -25.493 3
      vertex -30.4779 -24.507 3
    endloop
  endfacet
  facet normal 0 0 -1
    outer loop
      vertex -5.18432 -29.4018 0
      vertex -2.60206 -29.7417 0
      vertex 13.368 -38.2 0
    endloop
  endfacet
  facet normal 0.130526 0.991445 0
    outer loop
      vertex -5.18432 -29.4018 0
      vertex -5.18432 -29.4018 3
      vertex -2.60206 -29.7417 0
    endloop
  endfacet
  facet normal 0.130526 0.991445 0
    outer loop
      vertex -5.18432 -29.4018 3
      vertex -2.60206 -29.7417 3
      vertex -2.60206 -29.7417 0
    endloop
  endfacet
  facet normal 0 0 1
    outer loop
      vertex -5.18432 -29.4018 3
      vertex 21.5 -38.2 3
      vertex -2.60206 -29.7417 3
    endloop
  endfacet
  facet normal 0 0 -1
    outer loop
      vertex -7.72713 -28.838 0
      vertex -5.18432 -29.4018 0
      vertex 13.368 -38.2 0
    endloop
  endfacet
  facet normal 0.21644 0.976296 0
    outer loop
      vertex -7.72713 -28.838 0
      vertex -7.72713 -28.838 3
      vertex -5.18432 -29.4018 0
    endloop
  endfacet
  facet normal 0.21644 0.976296 0
    outer loop
      vertex -7.72713 -28.838 3
      vertex -5.18432 -29.4018 3
      vertex -5.18432 -29.4018 0
    endloop
  endfacet
  facet normal 0 0 1
    outer loop
      vertex -7.72713 -28.838 3
      vertex 21.5 -38.2 3
      vertex -5.18432 -29.4018 3
    endloop
  endfacet
  facet normal -0.0436196 0.999048 0
    outer loop
      vertex 0 -29.8553 0
      vertex 0 -29.8553 3
      vertex 2.60206 -29.7417 0
    endloop
  endfacet
  facet normal 0 0 -1
    outer loop
      vertex 0 -29.8553 0
      vertex 2.60206 -29.7417 0
      vertex 13.368 -38.2 0
    endloop
  endfacet
  facet normal -0.0436196 0.999048 0
    outer loop
      vertex 0 -29.8553 3
      vertex 2.60206 -29.7417 3
      vertex 2.60206 -29.7417 0
    endloop
  endfacet
  facet normal 0 0 1
    outer loop
      vertex 0 -29.8553 3
      vertex 21.5 -38.2 3
      vertex 2.60206 -29.7417 3
    endloop
  endfacet
  facet normal -0.382684 0.923879 0
    outer loop
      vertex 10.2111 -28.0548 0
      vertex 10.2111 -28.0548 3
      vertex 12.6174 -27.0581 0
    endloop
  endfacet
  facet normal 0 0 -1
    outer loop
      vertex 10.2111 -28.0548 0
      vertex 12.6174 -27.0581 0
      vertex 13.368 -38.2 0
    endloop
  endfacet
  facet normal -0.382684 0.923879 0
    outer loop
      vertex 10.2111 -28.0548 3
      vertex 12.6174 -27.0581 3
      vertex 12.6174 -27.0581 0
    endloop
  endfacet
  facet normal 0 0 1
    outer loop
      vertex 10.2111 -28.0548 3
      vertex 21.5 -38.2 3
      vertex 29.1419 -28.6187 3
    endloop
  endfacet
  facet normal 0 0 1
    outer loop
      vertex 10.2111 -28.0548 3
      vertex 29.1419 -28.6187 3
      vertex 12.6174 -27.0581 3
    endloop
  endfacet
  facet normal -0.461748 0.887011 0
    outer loop
      vertex 12.6174 -27.0581 0
      vertex 12.6174 -27.0581 3
      vertex 13.368 -26.6674 0
    endloop
  endfacet
  facet normal 0 0 -1
    outer loop
      vertex 12.6174 -27.0581 0
      vertex 13.368 -26.6674 0
      vertex 13.368 -38.2 0
    endloop
  endfacet
  facet normal -0.461748 0.887011 0
    outer loop
      vertex 12.6174 -27.0581 3
      vertex 13.368 -26.6674 0.246
      vertex 13.368 -26.6674 0
    endloop
  endfacet
  facet normal -0.461748 0.887011 0
    outer loop
      vertex 12.6174 -27.0581 3
      vertex 13.513 -26.5919 0.716
      vertex 13.368 -26.6674 0.246
    endloop
  endfacet
  facet normal -0.461748 0.887011 0
    outer loop
      vertex 12.6174 -27.0581 3
      vertex 13.79 -26.4477 1.122
      vertex 13.513 -26.5919 0.716
    endloop
  endfacet
  facet normal -0.461748 0.887011 0
    outer loop
      vertex 12.6174 -27.0581 3
      vertex 13.833 -26.4253 1.167
      vertex 13.79 -26.4477 1.122
    endloop
  endfacet
  facet normal -0.461748 0.887011 0
    outer loop
      vertex 12.6174 -27.0581 3
      vertex 14.316 -26.1739 1.65
      vertex 13.833 -26.4253 1.167
    endloop
  endfacet
  facet normal -0.461748 0.887011 0
    outer loop
      vertex 12.6174 -27.0581 3
      vertex 14.9277 -25.8555 1.65
      vertex 14.316 -26.1739 1.65
    endloop
  endfacet
  facet normal -0.461748 0.887011 0
    outer loop
      vertex 12.6174 -27.0581 3
      vertex 14.9277 -25.8555 3
      vertex 14.9277 -25.8555 1.65
    endloop
  endfacet
  facet normal 0 0 1
    outer loop
      vertex 12.6174 -27.0581 3
      vertex 25.4239 -27.4041 3
      vertex 14.9277 -25.8555 3
    endloop
  endfacet
  facet normal 0 0 1
    outer loop
      vertex 12.6174 -27.0581 3
      vertex 29.1419 -28.6187 3
      vertex 29.4496 -28.2328 3
    endloop
  endfacet
  facet normal 0 0 1
    outer loop
      vertex 12.6174 -27.0581 3
      vertex 29.4496 -28.2328 3
      vertex 29.7215 -27.8209 3
    endloop
  endfacet
  facet normal 0 0 1
    outer loop
      vertex 12.6174 -27.0581 3
      vertex 29.7215 -27.8209 3
      vertex 25.4239 -27.4041 3
    endloop
  endfacet
  facet normal 0.955559 -6.54588e-17 -0.2948
    outer loop
      vertex 13.368 -26.6674 0.246
      vertex 13.513 -26.5919 0.716
      vertex 13.513 -38.2 0.716
    endloop
  endfacet
  facet normal 1 0 0
    outer loop
      vertex 13.368 -38.2 0
      vertex 13.368 -26.6674 0
      vertex 13.368 -38.2 0.246
    endloop
  endfacet
  facet normal 1 0 0
    outer loop
      vertex 13.368 -38.2 0.246
      vertex 13.368 -26.6674 0
      vertex 13.368 -26.6674 0.246
    endloop
  endfacet
  facet normal 0.955559 -6.54588e-17 -0.2948
    outer loop
      vertex 13.368 -38.2 0.246
      vertex 13.368 -26.6674 0.246
      vertex 13.513 -38.2 0.716
    endloop
  endfacet
  facet normal 0.826055 -1.25142e-16 -0.563589
    outer loop
      vertex 13.513 -26.5919 0.716
      vertex 13.79 -26.4477 1.122
      vertex 13.79 -38.2 1.122
    endloop
  endfacet
  facet normal 0.826055 -1.25142e-16 -0.563589
    outer loop
      vertex 13.513 -38.2 0.716
      vertex 13.513 -26.5919 0.716
      vertex 13.79 -38.2 1.122
    endloop
  endfacet
  facet normal 0.722991 -1.53401e-16 -0.690858
    outer loop
      vertex 13.79 -26.4477 1.122
      vertex 13.833 -26.4253 1.167
      vertex 13.833 -38.2 1.167
    endloop
  endfacet
  facet normal 0.722991 -1.53401e-16 -0.690858
    outer loop
      vertex 13.79 -38.2 1.122
      vertex 13.79 -26.4477 1.122
      vertex 13.833 -38.2 1.167
    endloop
  endfacet
  facet normal 0.707107 -1.57009e-16 -0.707107
    outer loop
      vertex 13.833 -26.4253 1.167
      vertex 14.316 -26.1739 1.65
      vertex 14.316 -38.2 1.65
    endloop
  endfacet
  facet normal 0.707107 -1.57009e-16 -0.707107
    outer loop
      vertex 13.833 -38.2 1.167
      vertex 13.833 -26.4253 1.167
      vertex 14.316 -38.2 1.65
    endloop
  endfacet
  facet normal 0 -2.22045e-16 -1
    outer loop
      vertex 14.316 -26.1739 1.65
      vertex 14.9277 -25.8555 1.65
      vertex 15.684 -38.2 1.65
    endloop
  endfacet
  facet normal 0 -2.22045e-16 -1
    outer loop
      vertex 14.316 -38.2 1.65
      vertex 14.316 -26.1739 1.65
      vertex 15.684 -38.2 1.65
    endloop
  endfacet
  facet normal -0.5373 0.843391 0
    outer loop
      vertex 14.9277 -25.8555 1.65
      vertex 14.9277 -25.8555 3
      vertex 15.684 -25.3736 1.65
    endloop
  endfacet
  facet normal 0 -2.22045e-16 -1
    outer loop
      vertex 14.9277 -25.8555 1.65
      vertex 15.684 -25.3736 1.65
      vertex 15.684 -38.2 1.65
    endloop
  endfacet
  facet normal -0.5373 0.843391 0
    outer loop
      vertex 14.9277 -25.8555 3
      vertex 16.167 -25.0659 1.167
      vertex 15.684 -25.3736 1.65
    endloop
  endfacet
  facet normal -0.5373 0.843391 0
    outer loop
      vertex 14.9277 -25.8555 3
      vertex 16.363 -24.9411 0.929
      vertex 16.167 -25.0659 1.167
    endloop
  endfacet
  facet normal -0.5373 0.843391 0
    outer loop
      vertex 14.9277 -25.8555 3
      vertex 17.1243 -24.4561 0
      vertex 16.363 -24.9411 0.929
    endloop
  endfacet
  facet normal -0.5373 0.843391 0
    outer loop
      vertex 14.9277 -25.8555 3
      vertex 17.1243 -24.4561 3
      vertex 17.1243 -24.4561 0
    endloop
  endfacet
  facet normal 0 0 1
    outer loop
      vertex 14.9277 -25.8555 3
      vertex 22.706 -25.8349 3
      vertex 17.1243 -24.4561 3
    endloop
  endfacet
  facet normal 0 0 1
    outer loop
      vertex 14.9277 -25.8555 3
      vertex 23.7794 -27.1141 3
      vertex 22.706 -25.8349 3
    endloop
  endfacet
  facet normal 0 0 1
    outer loop
      vertex 14.9277 -25.8555 3
      vertex 25.4239 -27.4041 3
      vertex 23.7794 -27.1141 3
    endloop
  endfacet
  facet normal -0.707107 -1.57009e-16 -0.707107
    outer loop
      vertex 15.684 -25.3736 1.65
      vertex 16.167 -25.0659 1.167
      vertex 16.167 -38.2 1.167
    endloop
  endfacet
  facet normal -0.707107 -1.57009e-16 -0.707107
    outer loop
      vertex 15.684 -38.2 1.65
      vertex 15.684 -25.3736 1.65
      vertex 16.167 -38.2 1.167
    endloop
  endfacet
  facet normal 0 -1 0
    outer loop
      vertex 15.684 -38.2 1.65
      vertex 16.167 -38.2 1.167
      vertex 21.5 -38.2 0
    endloop
  endfacet
  facet normal 0 -1 0
    outer loop
      vertex 15.684 -38.2 1.65
      vertex 21.5 -38.2 0
      vertex 21.5 -38.2 3
    endloop
  endfacet
  facet normal -0.77193 -1.41155e-16 -0.635707
    outer loop
      vertex 16.167 -25.0659 1.167
      vertex 16.363 -24.9411 0.929
      vertex 16.363 -38.2 0.929
    endloop
  endfacet
  facet normal -0.77193 -1.41155e-16 -0.635707
    outer loop
      vertex 16.167 -38.2 1.167
      vertex 16.167 -25.0659 1.167
      vertex 16.363 -38.2 0.929
    endloop
  endfacet
  facet normal 0 -1 0
    outer loop
      vertex 16.167 -38.2 1.167
      vertex 16.363 -38.2 0.929
      vertex 21.5 -38.2 0
    endloop
  endfacet
  facet normal -0.900442 -9.65842e-17 -0.434976
    outer loop
      vertex 16.363 -24.9411 0.929
      vertex 16.577 -24.8047 0.486
      vertex 16.577 -38.2 0.486
    endloop
  endfacet
  facet normal -0.5373 0.843391 0
    outer loop
      vertex 16.363 -24.9411 0.929
      vertex 17.1243 -24.4561 0
      vertex 16.577 -24.8047 0.486
    endloop
  endfacet
  facet normal -0.900442 -9.65842e-17 -0.434976
    outer loop
      vertex 16.363 -38.2 0.929
      vertex 16.363 -24.9411 0.929
      vertex 16.577 -38.2 0.486
    endloop
  endfacet
  facet normal 0 -1 0
    outer loop
      vertex 16.363 -38.2 0.929
      vertex 16.577 -38.2 0.486
      vertex 21.5 -38.2 0
    endloop
  endfacet
  facet normal -0.988906 -3.29824e-17 -0.148539
    outer loop
      vertex 16.577 -24.8047 0.486
      vertex 16.65 -24.7582 5.49743e-15
      vertex 16.65 -38.2 8.4821e-15
    endloop
  endfacet
  facet normal -0.5373 0.843391 0
    outer loop
      vertex 16.577 -24.8047 0.486
      vertex 17.1243 -24.4561 0
      vertex 16.65 -24.7582 5.49743e-15
    endloop
  endfacet
  facet normal -0.988906 -3.29824e-17 -0.148539
    outer loop
      vertex 16.577 -38.2 0.486
      vertex 16.577 -24.8047 0.486
      vertex 16.65 -38.2 8.4821e-15
    endloop
  endfacet
  facet normal 0 -1 0
    outer loop
      vertex 16.577 -38.2 0.486
      vertex 16.65 -38.2 8.4821e-15
      vertex 21.5 -38.2 0
    endloop
  endfacet
  facet normal -0.5373 0.843391 0
    outer loop
      vertex 16.65 -24.7582 0
      vertex 16.65 -24.7582 5.49743e-15
      vertex 17.1243 -24.4561 0
    endloop
  endfacet
  facet normal 0 0 -1
    outer loop
      vertex 16.65 -24.7582 0
      vertex 17.1243 -24.4561 0
      vertex 21.5 -38.2 0
    endloop
  endfacet
  facet normal 0 0 -1
    outer loop
      vertex 16.65 -38.2 0
      vertex 16.65 -24.7582 0
      vertex 21.5 -38.2 0
    endloop
  endfacet
  facet normal -0.988906 3.29824e-17 0.148539
    outer loop
      vertex 16.65 -38.2 0
      vertex 16.65 -38.2 8.4821e-15
      vertex 16.65 -24.7582 0
    endloop
  endfacet
  facet normal 0 -1 0
    outer loop
      vertex 16.65 -38.2 0
      vertex 21.5 -38.2 0
      vertex 16.65 -38.2 8.4821e-15
    endloop
  endfacet
  facet normal -0.988906 3.29824e-17 0.148539
    outer loop
      vertex 16.65 -38.2 8.4821e-15
      vertex 16.65 -24.7582 5.49743e-15
      vertex 16.65 -24.7582 0
    endloop
  endfacet
  facet normal -0.608761 0.793353 0
    outer loop
      vertex 17.1243 -24.4561 0
      vertex 17.1243 -24.4561 3
      vertex 19.1906 -22.8705 0
    endloop
  endfacet
  facet normal 0 0 -1
    outer loop
      vertex 17.1243 -24.4561 0
      vertex 19.1906 -22.8705 0
      vertex 21.5 -38.2 0
    endloop
  endfacet
  facet normal -0.608761 0.793353 0
    outer loop
      vertex 17.1243 -24.4561 3
      vertex 19.1906 -22.8705 3
      vertex 19.1906 -22.8705 0
    endloop
  endfacet
  facet normal 0 0 1
    outer loop
      vertex 17.1243 -24.4561 3
      vertex 22.706 -24.1651 3
      vertex 19.1906 -22.8705 3
    endloop
  endfacet
  facet normal 0 0 1
    outer loop
      vertex 17.1243 -24.4561 3
      vertex 22.706 -25.8349 3
      vertex 22.706 -24.1651 3
    endloop
  endfacet
  facet normal -0.67559 0.737277 0
    outer loop
      vertex 19.1906 -22.8705 0
      vertex 19.1906 -22.8705 3
      vertex 21.1109 -21.1109 0
    endloop
  endfacet
  facet normal 0 0 -1
    outer loop
      vertex 19.1906 -22.8705 0
      vertex 21.1109 -21.1109 0
      vertex 21.5 -38.2 0
    endloop
  endfacet
  facet normal -0.67559 0.737277 0
    outer loop
      vertex 19.1906 -22.8705 3
      vertex 21.1109 -21.1109 3
      vertex 21.1109 -21.1109 0
    endloop
  endfacet
  facet normal 0 0 1
    outer loop
      vertex 19.1906 -22.8705 3
      vertex 22.706 -24.1651 3
      vertex 23.7794 -22.8859 3
    endloop
  endfacet
  facet normal 0 0 1
    outer loop
      vertex 19.1906 -22.8705 3
      vertex 23.7794 -22.8859 3
      vertex 25.4239 -22.5959 3
    endloop
  endfacet
  facet normal 0 0 1
    outer loop
      vertex 19.1906 -22.8705 3
      vertex 25.4239 -22.5959 3
      vertex 29.7215 -22.1791 3
    endloop
  endfacet
  facet normal 0 0 1
    outer loop
      vertex 19.1906 -22.8705 3
      vertex 29.7215 -22.1791 3
      vertex 21.1109 -21.1109 3
    endloop
  endfacet
  facet normal -0.130526 0.991445 0
    outer loop
      vertex 2.60206 -29.7417 0
      vertex 2.60206 -29.7417 3
      vertex 5.18432 -29.4018 0
    endloop
  endfacet
  facet normal 0 0 -1
    outer loop
      vertex 2.60206 -29.7417 0
      vertex 5.18432 -29.4018 0
      vertex 13.368 -38.2 0
    endloop
  endfacet
  facet normal 0 0 1
    outer loop
      vertex 2.60206 -29.7417 3
      vertex 21.5 -38.2 3
      vertex 5.18432 -29.4018 3
    endloop
  endfacet
  facet normal -0.130526 0.991445 0
    outer loop
      vertex 2.60206 -29.7417 3
      vertex 5.18432 -29.4018 3
      vertex 5.18432 -29.4018 0
    endloop
  endfacet
  facet normal -0.737277 0.67559 0
    outer loop
      vertex 21.1109 -21.1109 0
      vertex 21.1109 -21.1109 3
      vertex 22.582 -19.5055 0
    endloop
  endfacet
  facet normal 0 0 -1
    outer loop
      vertex 21.1109 -21.1109 0
      vertex 22.582 -19.5055 0
      vertex 21.5 -38.2 0
    endloop
  endfacet
  facet normal -0.737277 0.67559 0
    outer loop
      vertex 21.1109 -21.1109 3
      vertex 22.582 -19.5055 3
      vertex 22.582 -19.5055 0
    endloop
  endfacet
  facet normal 0 0 1
    outer loop
      vertex 21.1109 -21.1109 3
      vertex 28.0299 -20.4098 3
      vertex 22.582 -19.5055 3
    endloop
  endfacet
  facet normal 0 0 1
    outer loop
      vertex 21.1109 -21.1109 3
      vertex 28.4292 -20.6999 3
      vertex 28.0299 -20.4098 3
    endloop
  endfacet
  facet normal 0 0 1
    outer loop
      vertex 21.1109 -21.1109 3
      vertex 28.8008 -21.0246 3
      vertex 28.4292 -20.6999 3
    endloop
  endfacet
  facet normal 0 0 1
    outer loop
      vertex 21.1109 -21.1109 3
      vertex 29.1419 -21.3813 3
      vertex 28.8008 -21.0246 3
    endloop
  endfacet
  facet normal 0 0 1
    outer loop
      vertex 21.1109 -21.1109 3
      vertex 29.4496 -21.7672 3
      vertex 29.1419 -21.3813 3
    endloop
  endfacet
  facet normal 0 0 1
    outer loop
      vertex 21.1109 -21.1109 3
      vertex 29.7215 -22.1791 3
      vertex 29.4496 -21.7672 3
    endloop
  endfacet
  facet normal 0 0 -1
    outer loop
      vertex 21.5 -38.2 0
      vertex 22.582 -19.5055 0
      vertex 22.706 -24.1651 0
    endloop
  endfacet
  facet normal 0 0 -1
    outer loop
      vertex 21.5 -38.2 0
      vertex 22.706 -24.1651 0
      vertex 22.706 -25.8349 0
    endloop
  endfacet
  facet normal 0 0 -1
    outer loop
      vertex 21.5 -38.2 0
      vertex 22.706 -25.8349 0
      vertex 23.7794 -27.1141 0
    endloop
  endfacet
  facet normal 0 0 -1
    outer loop
      vertex 21.5 -38.2 0
      vertex 23.7794 -27.1141 0
      vertex 25.4239 -27.4041 0
    endloop
  endfacet
  facet normal 0 0 -1
    outer loop
      vertex 21.5 -38.2 0
      vertex 25.4239 -27.4041 0
      vertex 26.8701 -26.5692 0
    endloop
  endfacet
  facet normal 0 0 -1
    outer loop
      vertex 21.5 -38.2 0
      vertex 26.8701 -26.5692 0
      vertex 29.4496 -21.7672 0
    endloop
  endfacet
  facet normal 0.78179 -0.623541 0
    outer loop
      vertex 21.5 -38.2 0
      vertex 29.1419 -28.6187 0
      vertex 21.5 -38.2 3
    endloop
  endfacet
  facet normal 0 0 -1
    outer loop
      vertex 21.5 -38.2 0
      vertex 29.4496 -21.7672 0
      vertex 29.7215 -22.1791 0
    endloop
  endfacet
  facet normal 0 0 -1
    outer loop
      vertex 21.5 -38.2 0
      vertex 29.4496 -28.2328 0
      vertex 29.1419 -28.6187 0
    endloop
  endfacet
  facet normal 0 0 -1
    outer loop
      vertex 21.5 -38.2 0
      vertex 29.7215 -22.1791 0
      vertex 29.9553 -22.6136 0
    endloop
  endfacet
  facet normal 0 0 -1
    outer loop
      vertex 21.5 -38.2 0
      vertex 29.7215 -27.8209 0
      vertex 29.4496 -28.2328 0
    endloop
  endfacet
  facet normal 0 0 -1
    outer loop
      vertex 21.5 -38.2 0
      vertex 29.9553 -22.6136 0
      vertex 30.1493 -23.0674 0
    endloop
  endfacet
  facet normal 0 0 -1
    outer loop
      vertex 21.5 -38.2 0
      vertex 29.9553 -27.3864 0
      vertex 29.7215 -27.8209 0
    endloop
  endfacet
  facet normal 0 0 -1
    outer loop
      vertex 21.5 -38.2 0
      vertex 30.1493 -23.0674 0
      vertex 30.3018 -23.5368 0
    endloop
  endfacet
  facet normal 0 0 -1
    outer loop
      vertex 21.5 -38.2 0
      vertex 30.1493 -26.9326 0
      vertex 29.9553 -27.3864 0
    endloop
  endfacet
  facet normal 0 0 -1
    outer loop
      vertex 21.5 -38.2 0
      vertex 30.3018 -23.5368 0
      vertex 30.4116 -24.0179 0
    endloop
  endfacet
  facet normal 0 0 -1
    outer loop
      vertex 21.5 -38.2 0
      vertex 30.3018 -26.4632 0
      vertex 30.1493 -26.9326 0
    endloop
  endfacet
  facet normal 0 0 -1
    outer loop
      vertex 21.5 -38.2 0
      vertex 30.4116 -24.0179 0
      vertex 30.4779 -24.507 0
    endloop
  endfacet
  facet normal 0 0 -1
    outer loop
      vertex 21.5 -38.2 0
      vertex 30.4116 -25.9821 0
      vertex 30.3018 -26.4632 0
    endloop
  endfacet
  facet normal 0 0 -1
    outer loop
      vertex 21.5 -38.2 0
      vertex 30.4779 -24.507 0
      vertex 30.5 -25 0
    endloop
  endfacet
  facet normal 0 0 -1
    outer loop
      vertex 21.5 -38.2 0
      vertex 30.4779 -25.493 0
      vertex 30.4116 -25.9821 0
    endloop
  endfacet
  facet normal 0 0 -1
    outer loop
      vertex 21.5 -38.2 0
      vertex 30.5 -25 0
      vertex 30.4779 -25.493 0
    endloop
  endfacet
  facet normal 0.78179 -0.623541 0
    outer loop
      vertex 21.5 -38.2 3
      vertex 29.1419 -28.6187 0
      vertex 29.1419 -28.6187 3
    endloop
  endfacet
  facet normal 0 1 0
    outer loop
      vertex 22.582 -19.5055 0
      vertex 22.582 -19.5055 3
      vertex 25.2468 -19.5055 0
    endloop
  endfacet
  facet normal 0 0 -1
    outer loop
      vertex 22.582 -19.5055 0
      vertex 25.2468 -19.5055 0
      vertex 22.706 -24.1651 0
    endloop
  endfacet
  facet normal 0 1 0
    outer loop
      vertex 22.582 -19.5055 3
      vertex 25.2468 -19.5055 3
      vertex 25.2468 -19.5055 0
    endloop
  endfacet
  facet normal 0 0 1
    outer loop
      vertex 22.582 -19.5055 3
      vertex 25.7383 -19.5498 3
      vertex 25.2468 -19.5055 3
    endloop
  endfacet
  facet normal 0 0 1
    outer loop
      vertex 22.582 -19.5055 3
      vertex 26.2239 -19.6379 3
      vertex 25.7383 -19.5498 3
    endloop
  endfacet
  facet normal 0 0 1
    outer loop
      vertex 22.582 -19.5055 3
      vertex 26.6996 -19.7692 3
      vertex 26.2239 -19.6379 3
    endloop
  endfacet
  facet normal 0 0 1
    outer loop
      vertex 22.582 -19.5055 3
      vertex 27.1616 -19.9426 3
      vertex 26.6996 -19.7692 3
    endloop
  endfacet
  facet normal 0 0 1
    outer loop
      vertex 22.582 -19.5055 3
      vertex 27.6063 -20.1567 3
      vertex 27.1616 -19.9426 3
    endloop
  endfacet
  facet normal 0 0 1
    outer loop
      vertex 22.582 -19.5055 3
      vertex 28.0299 -20.4098 3
      vertex 27.6063 -20.1567 3
    endloop
  endfacet
  facet normal 0.766045 -0.642787 0
    outer loop
      vertex 22.706 -24.1651 0
      vertex 23.7794 -22.8859 0
      vertex 22.706 -24.1651 3
    endloop
  endfacet
  facet normal 0 0 -1
    outer loop
      vertex 22.706 -24.1651 0
      vertex 25.2468 -19.5055 0
      vertex 23.7794 -22.8859 0
    endloop
  endfacet
  facet normal 0.766045 -0.642787 0
    outer loop
      vertex 22.706 -24.1651 3
      vertex 23.7794 -22.8859 0
      vertex 23.7794 -22.8859 3
    endloop
  endfacet
  facet normal 1 0 0
    outer loop
      vertex 22.706 -25.8349 0
      vertex 22.706 -24.1651 0
      vertex 22.706 -25.8349 3
    endloop
  endfacet
  facet normal 0.766045 0.642787 0
    outer loop
      vertex 22.706 -25.8349 0
      vertex 22.706 -25.8349 3
      vertex 23.7794 -27.1141 0
    endloop
  endfacet
  facet normal 1 0 0
    outer loop
      vertex 22.706 -25.8349 3
      vertex 22.706 -24.1651 0
      vertex 22.706 -24.1651 3
    endloop
  endfacet
  facet normal 0.766045 0.642787 0
    outer loop
      vertex 22.706 -25.8349 3
      vertex 23.7794 -27.1141 3
      vertex 23.7794 -27.1141 0
    endloop
  endfacet
  facet normal 0 0 -1
    outer loop
      vertex 23.7794 -22.8859 0
      vertex 25.2468 -19.5055 0
      vertex 25.7383 -19.5498 0
    endloop
  endfacet
  facet normal 0.173648 -0.984808 0
    outer loop
      vertex 23.7794 -22.8859 0
      vertex 25.4239 -22.5959 0
      vertex 23.7794 -22.8859 3
    endloop
  endfacet
  facet normal 0 0 -1
    outer loop
      vertex 23.7794 -22.8859 0
      vertex 25.7383 -19.5498 0
      vertex 25.4239 -22.5959 0
    endloop
  endfacet
  facet normal 0.173648 -0.984808 0
    outer loop
      vertex 23.7794 -22.8859 3
      vertex 25.4239 -22.5959 0
      vertex 25.4239 -22.5959 3
    endloop
  endfacet
  facet normal 0.173648 0.984808 0
    outer loop
      vertex 23.7794 -27.1141 0
      vertex 23.7794 -27.1141 3
      vertex 25.4239 -27.4041 0
    endloop
  endfacet
  facet normal 0.173648 0.984808 0
    outer loop
      vertex 23.7794 -27.1141 3
      vertex 25.4239 -27.4041 3
      vertex 25.4239 -27.4041 0
    endloop
  endfacet
  facet normal 0.089639 0.995974 0
    outer loop
      vertex 25.2468 -19.5055 0
      vertex 25.2468 -19.5055 3
      vertex 25.7383 -19.5498 0
    endloop
  endfacet
  facet normal 0.089639 0.995974 0
    outer loop
      vertex 25.2468 -19.5055 3
      vertex 25.7383 -19.5498 3
      vertex 25.7383 -19.5498 0
    endloop
  endfacet
  facet normal 0 0 -1
    outer loop
      vertex 25.4239 -22.5959 0
      vertex 25.7383 -19.5498 0
      vertex 26.2239 -19.6379 0
    endloop
  endfacet
  facet normal 0 0 -1
    outer loop
      vertex 25.4239 -22.5959 0
      vertex 26.2239 -19.6379 0
      vertex 26.6996 -19.7692 0
    endloop
  endfacet
  facet normal 0 0 -1
    outer loop
      vertex 25.4239 -22.5959 0
      vertex 26.6996 -19.7692 0
      vertex 27.1616 -19.9426 0
    endloop
  endfacet
  facet normal -0.5 -0.866025 0
    outer loop
      vertex 25.4239 -22.5959 0
      vertex 26.8701 -23.4308 0
      vertex 25.4239 -22.5959 3
    endloop
  endfacet
  facet normal 0 0 -1
    outer loop
      vertex 25.4239 -22.5959 0
      vertex 27.1616 -19.9426 0
      vertex 27.6063 -20.1567 0
    endloop
  endfacet
  facet normal 0 0 -1
    outer loop
      vertex 25.4239 -22.5959 0
      vertex 27.6063 -20.1567 0
      vertex 26.8701 -23.4308 0
    endloop
  endfacet
  facet normal -0.5 -0.866025 0
    outer loop
      vertex 25.4239 -22.5959 3
      vertex 26.8701 -23.4308 0
      vertex 26.8701 -23.4308 3
    endloop
  endfacet
  facet normal 0 0 1
    outer loop
      vertex 25.4239 -22.5959 3
      vertex 26.8701 -23.4308 3
      vertex 30.1493 -23.0674 3
    endloop
  endfacet
  facet normal 0 0 1
    outer loop
      vertex 25.4239 -22.5959 3
      vertex 29.9553 -22.6136 3
      vertex 29.7215 -22.1791 3
    endloop
  endfacet
  facet normal 0 0 1
    outer loop
      vertex 25.4239 -22.5959 3
      vertex 30.1493 -23.0674 3
      vertex 29.9553 -22.6136 3
    endloop
  endfacet
  facet normal -0.5 0.866025 0
    outer loop
      vertex 25.4239 -27.4041 0
      vertex 25.4239 -27.4041 3
      vertex 26.8701 -26.5692 0
    endloop
  endfacet
  facet normal -0.5 0.866025 0
    outer loop
      vertex 25.4239 -27.4041 3
      vertex 26.8701 -26.5692 3
      vertex 26.8701 -26.5692 0
    endloop
  endfacet
  facet normal 0 0 1
    outer loop
      vertex 25.4239 -27.4041 3
      vertex 29.7215 -27.8209 3
      vertex 29.9553 -27.3864 3
    endloop
  endfacet
  facet normal 0 0 1
    outer loop
      vertex 25.4239 -27.4041 3
      vertex 29.9553 -27.3864 3
      vertex 26.8701 -26.5692 3
    endloop
  endfacet
  facet normal 0.178557 0.98393 0
    outer loop
      vertex 25.7383 -19.5498 0
      vertex 25.7383 -19.5498 3
      vertex 26.2239 -19.6379 0
    endloop
  endfacet
  facet normal 0.178557 0.98393 0
    outer loop
      vertex 25.7383 -19.5498 3
      vertex 26.2239 -19.6379 3
      vertex 26.2239 -19.6379 0
    endloop
  endfacet
  facet normal 0.266038 0.963963 0
    outer loop
      vertex 26.2239 -19.6379 0
      vertex 26.2239 -19.6379 3
      vertex 26.6996 -19.7692 0
    endloop
  endfacet
  facet normal 0.266038 0.963963 0
    outer loop
      vertex 26.2239 -19.6379 3
      vertex 26.6996 -19.7692 3
      vertex 26.6996 -19.7692 0
    endloop
  endfacet
  facet normal 0.351374 0.936235 0
    outer loop
      vertex 26.6996 -19.7692 0
      vertex 26.6996 -19.7692 3
      vertex 27.1616 -19.9426 0
    endloop
  endfacet
  facet normal 0.351374 0.936235 0
    outer loop
      vertex 26.6996 -19.7692 3
      vertex 27.1616 -19.9426 3
      vertex 27.1616 -19.9426 0
    endloop
  endfacet
  facet normal -0.939693 -0.34202 0
    outer loop
      vertex 26.8701 -23.4308 0
      vertex 27.4412 -25 0
      vertex 26.8701 -23.4308 3
    endloop
  endfacet
  facet normal 0 0 -1
    outer loop
      vertex 26.8701 -23.4308 0
      vertex 27.6063 -20.1567 0
      vertex 28.0299 -20.4098 0
    endloop
  endfacet
  facet normal 0 0 -1
    outer loop
      vertex 26.8701 -23.4308 0
      vertex 28.0299 -20.4098 0
      vertex 28.4292 -20.6999 0
    endloop
  endfacet
  facet normal 0 0 -1
    outer loop
      vertex 26.8701 -23.4308 0
      vertex 28.4292 -20.6999 0
      vertex 28.8008 -21.0246 0
    endloop
  endfacet
  facet normal 0 0 -1
    outer loop
      vertex 26.8701 -23.4308 0
      vertex 28.8008 -21.0246 0
      vertex 27.4412 -25 0
    endloop
  endfacet
  facet normal -0.939693 -0.34202 0
    outer loop
      vertex 26.8701 -23.4308 3
      vertex 27.4412 -25 0
      vertex 27.4412 -25 3
    endloop
  endfacet
  facet normal 0 0 1
    outer loop
      vertex 26.8701 -23.4308 3
      vertex 27.4412 -25 3
      vertex 30.5 -25 3
    endloop
  endfacet
  facet normal 0 0 1
    outer loop
      vertex 26.8701 -23.4308 3
      vertex 30.3018 -23.5368 3
      vertex 30.1493 -23.0674 3
    endloop
  endfacet
  facet normal 0 0 1
    outer loop
      vertex 26.8701 -23.4308 3
      vertex 30.4116 -24.0179 3
      vertex 30.3018 -23.5368 3
    endloop
  endfacet
  facet normal 0 0 1
    outer loop
      vertex 26.8701 -23.4308 3
      vertex 30.4779 -24.507 3
      vertex 30.4116 -24.0179 3
    endloop
  endfacet
  facet normal 0 0 1
    outer loop
      vertex 26.8701 -23.4308 3
      vertex 30.5 -25 3
      vertex 30.4779 -24.507 3
    endloop
  endfacet
  facet normal -0.939693 0.34202 0
    outer loop
      vertex 26.8701 -26.5692 0
      vertex 26.8701 -26.5692 3
      vertex 27.4412 -25 0
    endloop
  endfacet
  facet normal 0 0 -1
    outer loop
      vertex 26.8701 -26.5692 0
      vertex 27.4412 -25 0
      vertex 29.1419 -21.3813 0
    endloop
  endfacet
  facet normal 0 0 -1
    outer loop
      vertex 26.8701 -26.5692 0
      vertex 29.1419 -21.3813 0
      vertex 29.4496 -21.7672 0
    endloop
  endfacet
  facet normal -0.939693 0.34202 0
    outer loop
      vertex 26.8701 -26.5692 3
      vertex 27.4412 -25 3
      vertex 27.4412 -25 0
    endloop
  endfacet
  facet normal 0 0 1
    outer loop
      vertex 26.8701 -26.5692 3
      vertex 29.9553 -27.3864 3
      vertex 30.1493 -26.9326 3
    endloop
  endfacet
  facet normal 0 0 1
    outer loop
      vertex 26.8701 -26.5692 3
      vertex 30.1493 -26.9326 3
      vertex 30.3018 -26.4632 3
    endloop
  endfacet
  facet normal 0 0 1
    outer loop
      vertex 26.8701 -26.5692 3
      vertex 30.3018 -26.4632 3
      vertex 27.4412 -25 3
    endloop
  endfacet
  facet normal 0.433885 0.900968 0
    outer loop
      vertex 27.1616 -19.9426 0
      vertex 27.1616 -19.9426 3
      vertex 27.6063 -20.1567 0
    endloop
  endfacet
  facet normal 0.433885 0.900968 0
    outer loop
      vertex 27.1616 -19.9426 3
      vertex 27.6063 -20.1567 3
      vertex 27.6063 -20.1567 0
    endloop
  endfacet
  facet normal 0 0 -1
    outer loop
      vertex 27.4412 -25 0
      vertex 28.8008 -21.0246 0
      vertex 29.1419 -21.3813 0
    endloop
  endfacet
  facet normal 0 0 1
    outer loop
      vertex 27.4412 -25 3
      vertex 30.3018 -26.4632 3
      vertex 30.4116 -25.9821 3
    endloop
  endfacet
  facet normal 0 0 1
    outer loop
      vertex 27.4412 -25 3
      vertex 30.4116 -25.9821 3
      vertex 30.4779 -25.493 3
    endloop
  endfacet
  facet normal 0 0 1
    outer loop
      vertex 27.4412 -25 3
      vertex 30.4779 -25.493 3
      vertex 30.5 -25 3
    endloop
  endfacet
  facet normal 0.512899 0.858449 0
    outer loop
      vertex 27.6063 -20.1567 0
      vertex 27.6063 -20.1567 3
      vertex 28.0299 -20.4098 0
    endloop
  endfacet
  facet normal 0.512899 0.858449 0
    outer loop
      vertex 27.6063 -20.1567 3
      vertex 28.0299 -20.4098 3
      vertex 28.0299 -20.4098 0
    endloop
  endfacet
  facet normal 0.587785 0.809017 0
    outer loop
      vertex 28.0299 -20.4098 0
      vertex 28.0299 -20.4098 3
      vertex 28.4292 -20.6999 0
    endloop
  endfacet
  facet normal 0.587785 0.809017 0
    outer loop
      vertex 28.0299 -20.4098 3
      vertex 28.4292 -20.6999 3
      vertex 28.4292 -20.6999 0
    endloop
  endfacet
  facet normal 0.657938 0.753072 0
    outer loop
      vertex 28.4292 -20.6999 0
      vertex 28.4292 -20.6999 3
      vertex 28.8008 -21.0246 0
    endloop
  endfacet
  facet normal 0.657938 0.753072 0
    outer loop
      vertex 28.4292 -20.6999 3
      vertex 28.8008 -21.0246 3
      vertex 28.8008 -21.0246 0
    endloop
  endfacet
  facet normal 0.722796 0.691062 0
    outer loop
      vertex 28.8008 -21.0246 0
      vertex 28.8008 -21.0246 3
      vertex 29.1419 -21.3813 0
    endloop
  endfacet
  facet normal 0.722796 0.691062 0
    outer loop
      vertex 28.8008 -21.0246 3
      vertex 29.1419 -21.3813 3
      vertex 29.1419 -21.3813 0
    endloop
  endfacet
  facet normal 0.781832 0.623489 0
    outer loop
      vertex 29.1419 -21.3813 0
      vertex 29.1419 -21.3813 3
      vertex 29.4496 -21.7672 0
    endloop
  endfacet
  facet normal 0.781832 0.623489 0
    outer loop
      vertex 29.1419 -21.3813 3
      vertex 29.4496 -21.7672 3
      vertex 29.4496 -21.7672 0
    endloop
  endfacet
  facet normal 0.781832 -0.623489 0
    outer loop
      vertex 29.1419 -28.6187 0
      vertex 29.4496 -28.2328 0
      vertex 29.1419 -28.6187 3
    endloop
  endfacet
  facet normal 0.781832 -0.623489 0
    outer loop
      vertex 29.1419 -28.6187 3
      vertex 29.4496 -28.2328 0
      vertex 29.4496 -28.2328 3
    endloop
  endfacet
  facet normal 0.834573 0.550897 0
    outer loop
      vertex 29.4496 -21.7672 0
      vertex 29.4496 -21.7672 3
      vertex 29.7215 -22.1791 0
    endloop
  endfacet
  facet normal 0.834573 0.550897 0
    outer loop
      vertex 29.4496 -21.7672 3
      vertex 29.7215 -22.1791 3
      vertex 29.7215 -22.1791 0
    endloop
  endfacet
  facet normal 0.834573 -0.550897 0
    outer loop
      vertex 29.4496 -28.2328 0
      vertex 29.7215 -27.8209 0
      vertex 29.4496 -28.2328 3
    endloop
  endfacet
  facet normal 0.834573 -0.550897 0
    outer loop
      vertex 29.4496 -28.2328 3
      vertex 29.7215 -27.8209 0
      vertex 29.7215 -27.8209 3
    endloop
  endfacet
  facet normal 0.880595 0.47387 0
    outer loop
      vertex 29.7215 -22.1791 0
      vertex 29.7215 -22.1791 3
      vertex 29.9553 -22.6136 0
    endloop
  endfacet
  facet normal 0.880595 0.47387 0
    outer loop
      vertex 29.7215 -22.1791 3
      vertex 29.9553 -22.6136 3
      vertex 29.9553 -22.6136 0
    endloop
  endfacet
  facet normal 0.880595 -0.47387 0
    outer loop
      vertex 29.7215 -27.8209 0
      vertex 29.9553 -27.3864 0
      vertex 29.7215 -27.8209 3
    endloop
  endfacet
  facet normal 0.880595 -0.47387 0
    outer loop
      vertex 29.7215 -27.8209 3
      vertex 29.9553 -27.3864 0
      vertex 29.9553 -27.3864 3
    endloop
  endfacet
  facet normal 0.919528 0.393025 0
    outer loop
      vertex 29.9553 -22.6136 0
      vertex 29.9553 -22.6136 3
      vertex 30.1493 -23.0674 0
    endloop
  endfacet
  facet normal 0.919528 0.393025 0
    outer loop
      vertex 29.9553 -22.6136 3
      vertex 30.1493 -23.0674 3
      vertex 30.1493 -23.0674 0
    endloop
  endfacet
  facet normal 0.919528 -0.393025 0
    outer loop
      vertex 29.9553 -27.3864 0
      vertex 30.1493 -26.9326 0
      vertex 29.9553 -27.3864 3
    endloop
  endfacet
  facet normal 0.919528 -0.393025 0
    outer loop
      vertex 29.9553 -27.3864 3
      vertex 30.1493 -26.9326 0
      vertex 30.1493 -26.9326 3
    endloop
  endfacet
  facet normal 0.951057 0.309017 0
    outer loop
      vertex 30.1493 -23.0674 0
      vertex 30.1493 -23.0674 3
      vertex 30.3018 -23.5368 0
    endloop
  endfacet
  facet normal 0.951057 0.309017 0
    outer loop
      vertex 30.1493 -23.0674 3
      vertex 30.3018 -23.5368 3
      vertex 30.3018 -23.5368 0
    endloop
  endfacet
  facet normal 0.951057 -0.309017 0
    outer loop
      vertex 30.1493 -26.9326 0
      vertex 30.3018 -26.4632 0
      vertex 30.1493 -26.9326 3
    endloop
  endfacet
  facet normal 0.951057 -0.309017 0
    outer loop
      vertex 30.1493 -26.9326 3
      vertex 30.3018 -26.4632 0
      vertex 30.3018 -26.4632 3
    endloop
  endfacet
  facet normal 0.974928 0.222521 0
    outer loop
      vertex 30.3018 -23.5368 0
      vertex 30.3018 -23.5368 3
      vertex 30.4116 -24.0179 0
    endloop
  endfacet
  facet normal 0.974928 0.222521 0
    outer loop
      vertex 30.3018 -23.5368 3
      vertex 30.4116 -24.0179 3
      vertex 30.4116 -24.0179 0
    endloop
  endfacet
  facet normal 0.974928 -0.222521 0
    outer loop
      vertex 30.3018 -26.4632 0
      vertex 30.4116 -25.9821 0
      vertex 30.3018 -26.4632 3
    endloop
  endfacet
  facet normal 0.974928 -0.222521 0
    outer loop
      vertex 30.3018 -26.4632 3
      vertex 30.4116 -25.9821 0
      vertex 30.4116 -25.9821 3
    endloop
  endfacet
  facet normal 0.99095 0.134233 0
    outer loop
      vertex 30.4116 -24.0179 0
      vertex 30.4116 -24.0179 3
      vertex 30.4779 -24.507 0
    endloop
  endfacet
  facet normal 0.99095 0.134233 0
    outer loop
      vertex 30.4116 -24.0179 3
      vertex 30.4779 -24.507 3
      vertex 30.4779 -24.507 0
    endloop
  endfacet
  facet normal 0.99095 -0.134233 0
    outer loop
      vertex 30.4116 -25.9821 0
      vertex 30.4779 -25.493 0
      vertex 30.4116 -25.9821 3
    endloop
  endfacet
  facet normal 0.99095 -0.134233 0
    outer loop
      vertex 30.4116 -25.9821 3
      vertex 30.4779 -25.493 0
      vertex 30.4779 -25.493 3
    endloop
  endfacet
  facet normal 0.998993 0.0448641 0
    outer loop
      vertex 30.4779 -24.507 0
      vertex 30.4779 -24.507 3
      vertex 30.5 -25 0
    endloop
  endfacet
  facet normal 0.998993 0.0448641 0
    outer loop
      vertex 30.4779 -24.507 3
      vertex 30.5 -25 3
      vertex 30.5 -25 0
    endloop
  endfacet
  facet normal 0.998993 -0.0448641 0
    outer loop
      vertex 30.4779 -25.493 0
      vertex 30.5 -25 0
      vertex 30.4779 -25.493 3
    endloop
  endfacet
  facet normal 0.998993 -0.0448641 0
    outer loop
      vertex 30.4779 -25.493 3
      vertex 30.5 -25 0
      vertex 30.5 -25 3
    endloop
  endfacet
  facet normal -0.21644 0.976296 0
    outer loop
      vertex 5.18432 -29.4018 0
      vertex 5.18432 -29.4018 3
      vertex 7.72713 -28.838 0
    endloop
  endfacet
  facet normal 0 0 -1
    outer loop
      vertex 5.18432 -29.4018 0
      vertex 7.72713 -28.838 0
      vertex 13.368 -38.2 0
    endloop
  endfacet
  facet normal 0 0 1
    outer loop
      vertex 5.18432 -29.4018 3
      vertex 21.5 -38.2 3
      vertex 7.72713 -28.838 3
    endloop
  endfacet
  facet normal -0.21644 0.976296 0
    outer loop
      vertex 5.18432 -29.4018 3
      vertex 7.72713 -28.838 3
      vertex 7.72713 -28.838 0
    endloop
  endfacet
  facet normal 0 0 -1
    outer loop
      vertex 7.72713 -28.838 0
      vertex 10.2111 -28.0548 0
      vertex 13.368 -38.2 0
    endloop
  endfacet
  facet normal -0.300706 0.953717 0
    outer loop
      vertex 7.72713 -28.838 0
      vertex 7.72713 -28.838 3
      vertex 10.2111 -28.0548 0
    endloop
  endfacet
  facet normal -0.300706 0.953717 0
    outer loop
      vertex 7.72713 -28.838 3
      vertex 10.2111 -28.0548 3
      vertex 10.2111 -28.0548 0
    endloop
  endfacet
  facet normal 0 0 1
    outer loop
      vertex 7.72713 -28.838 3
      vertex 21.5 -38.2 3
      vertex 10.2111 -28.0548 3
    endloop
  endfacet
endsolid OpenSCAD_Model
