<?xml version="1.0"?>
<svg xmlns="http://www.w3.org/2000/svg" version="1.1" height="169mm" width="401mm" >
 <g style="fill-opacity:1.0; stroke:black; stroke-width:1;">
  <circle cx="8.500151mm" cy="94.099567mm" r="3.499825mm" fill="none"/>
  <line x1="15.499802mm" y1="94.099567mm" x2="1.500500mm" y2="94.099567mm" />
  <line x1="8.500151mm" y1="87.099917mm" x2="8.500151mm" y2="101.099218mm" />
  <text x="11mm" y="90mm" font-size="24">
   7.0
  </text>
  <circle cx="7.500170mm" cy="18.899939mm" r="2.500268mm" fill="none"/>
  <line x1="12.500707mm" y1="18.899939mm" x2="2.499633mm" y2="18.899939mm" />
  <line x1="7.500170mm" y1="13.899402mm" x2="7.500170mm" y2="23.900476mm" />
  <text x="10mm" y="16mm" font-size="24">
   5.0
  </text>
  <circle cx="7.000009mm" cy="81.899777mm" r="1.999983mm" fill="none"/>
  <line x1="10.999974mm" y1="81.899777mm" x2="3.000044mm" y2="81.899777mm" />
  <line x1="7.000009mm" y1="77.899812mm" x2="7.000009mm" y2="85.899742mm" />
  <text x="8mm" y="79mm" font-size="24">
   4.0
  </text>
  <circle cx="7.000009mm" cy="28.399777mm" r="1.999983mm" fill="none"/>
  <line x1="10.999974mm" y1="28.399777mm" x2="3.000044mm" y2="28.399777mm" />
  <line x1="7.000009mm" y1="24.399812mm" x2="7.000009mm" y2="32.399742mm" />
  <text x="8mm" y="26mm" font-size="24">
   4.0
  </text>
  <circle cx="8.200066mm" cy="148.800138mm" r="1.000138mm" fill="none"/>
  <line x1="10.200342mm" y1="148.800138mm" x2="6.199790mm" y2="148.800138mm" />
  <line x1="8.200066mm" y1="146.799862mm" x2="8.200066mm" y2="150.800414mm" />
  <text x="9mm" y="147mm" font-size="24">
   2.0
  </text>
  <circle cx="8.200066mm" cy="128.780138mm" r="1.000138mm" fill="none"/>
  <line x1="10.200342mm" y1="128.780138mm" x2="6.199790mm" y2="128.780138mm" />
  <line x1="8.200066mm" y1="126.779862mm" x2="8.200066mm" y2="130.780414mm" />
  <text x="9mm" y="127mm" font-size="24">
   2.0
  </text>
  <circle cx="26.099659mm" cy="8.200016mm" r="1.000019mm" fill="none"/>
  <line x1="28.099698mm" y1="8.200016mm" x2="24.099621mm" y2="8.200016mm" />
  <line x1="26.099659mm" y1="6.199978mm" x2="26.099659mm" y2="10.200054mm" />
  <text x="27mm" y="7mm" font-size="24">
   2.0
  </text>
  <circle cx="32.899659mm" cy="151.500016mm" r="1.000019mm" fill="none"/>
  <line x1="34.899698mm" y1="151.500016mm" x2="30.899621mm" y2="151.500016mm" />
  <line x1="32.899659mm" y1="149.499978mm" x2="32.899659mm" y2="153.500054mm" />
  <text x="33mm" y="150mm" font-size="24">
   2.0
  </text>
  <circle cx="46.119659mm" cy="8.200016mm" r="1.000019mm" fill="none"/>
  <line x1="48.119698mm" y1="8.200016mm" x2="44.119621mm" y2="8.200016mm" />
  <line x1="46.119659mm" y1="6.199978mm" x2="46.119659mm" y2="10.200054mm" />
  <text x="47mm" y="7mm" font-size="24">
   2.0
  </text>
  <line x1="391.000000mm" y1="158.500000mm" x2="391.000000mm" y2="158.500000mm" />
  <line x1="391.000000mm" y1="158.500000mm" x2="0.000000mm" y2="158.500000mm" />
  <line x1="0.000000mm" y1="158.500000mm" x2="0.000000mm" y2="0.000000mm" />
  <line x1="0.000000mm" y1="0.000000mm" x2="391.000000mm" y2="0.000000mm" />
  <line x1="391.000000mm" y1="0.000000mm" x2="391.000000mm" y2="158.500000mm" />
  <circle cx="149.899659mm" cy="151.500016mm" r="1.000019mm" fill="none"/>
  <line x1="151.899698mm" y1="151.500016mm" x2="147.899621mm" y2="151.500016mm" />
  <line x1="149.899659mm" y1="149.499978mm" x2="149.899659mm" y2="153.500054mm" />
  <text x="150mm" y="150mm" font-size="24">
   2.0
  </text>
  <circle cx="192.050194mm" cy="143.950223mm" r="0.849908mm" fill="none"/>
  <line x1="193.750009mm" y1="143.950223mm" x2="190.350378mm" y2="143.950223mm" />
  <line x1="192.050194mm" y1="142.250407mm" x2="192.050194mm" y2="145.650038mm" />
  <text x="192mm" y="143mm" font-size="24">
   1.7
  </text>
  <circle cx="192.050194mm" cy="112.450223mm" r="0.849908mm" fill="none"/>
  <line x1="193.750009mm" y1="112.450223mm" x2="190.350378mm" y2="112.450223mm" />
  <line x1="192.050194mm" y1="110.750407mm" x2="192.050194mm" y2="114.150038mm" />
  <text x="192mm" y="111mm" font-size="24">
   1.7
  </text>
  <circle cx="206.350194mm" cy="128.050223mm" r="0.849908mm" fill="none"/>
  <line x1="208.050009mm" y1="128.050223mm" x2="204.650378mm" y2="128.050223mm" />
  <line x1="206.350194mm" y1="126.350407mm" x2="206.350194mm" y2="129.750038mm" />
  <text x="207mm" y="127mm" font-size="24">
   1.7
  </text>
  <circle cx="206.350194mm" cy="96.550223mm" r="0.849908mm" fill="none"/>
  <line x1="208.050009mm" y1="96.550223mm" x2="204.650378mm" y2="96.550223mm" />
  <line x1="206.350194mm" y1="94.850407mm" x2="206.350194mm" y2="98.250038mm" />
  <text x="207mm" y="95mm" font-size="24">
   1.7
  </text>
  <circle cx="241.870087mm" cy="103.380061mm" r="1.250061mm" fill="none"/>
  <line x1="244.370208mm" y1="103.380061mm" x2="239.369966mm" y2="103.380061mm" />
  <line x1="241.870087mm" y1="100.879939mm" x2="241.870087mm" y2="105.880182mm" />
  <text x="243mm" y="102mm" font-size="24">
   2.5
  </text>
  <circle cx="243.140087mm" cy="55.120061mm" r="1.250061mm" fill="none"/>
  <line x1="245.640208mm" y1="55.120061mm" x2="240.639966mm" y2="55.120061mm" />
  <line x1="243.140087mm" y1="52.619939mm" x2="243.140087mm" y2="57.620182mm" />
  <text x="244mm" y="53mm" font-size="24">
   2.5
  </text>
  <circle cx="286.511361mm" cy="32.099847mm" r="1.000116mm" fill="none"/>
  <line x1="288.511593mm" y1="32.099847mm" x2="284.511129mm" y2="32.099847mm" />
  <line x1="286.511361mm" y1="30.099615mm" x2="286.511361mm" y2="34.100079mm" />
  <text x="287mm" y="31mm" font-size="24">
   2.0
  </text>
  <circle cx="293.940087mm" cy="98.300061mm" r="1.250061mm" fill="none"/>
  <line x1="296.440208mm" y1="98.300061mm" x2="291.439966mm" y2="98.300061mm" />
  <line x1="293.940087mm" y1="95.799939mm" x2="293.940087mm" y2="100.800182mm" />
  <text x="295mm" y="97mm" font-size="24">
   2.5
  </text>
  <circle cx="293.940087mm" cy="70.360061mm" r="1.250061mm" fill="none"/>
  <line x1="296.440208mm" y1="70.360061mm" x2="291.439966mm" y2="70.360061mm" />
  <line x1="293.940087mm" y1="67.859939mm" x2="293.940087mm" y2="72.860182mm" />
  <text x="295mm" y="69mm" font-size="24">
   2.5
  </text>
  <circle cx="318.070087mm" cy="55.120061mm" r="1.250061mm" fill="none"/>
  <line x1="320.570208mm" y1="55.120061mm" x2="315.569966mm" y2="55.120061mm" />
  <line x1="318.070087mm" y1="52.619939mm" x2="318.070087mm" y2="57.620182mm" />
  <text x="319mm" y="53mm" font-size="24">
   2.5
  </text>
  <circle cx="320.279808mm" cy="8.000013mm" r="2.999761mm" fill="none"/>
  <line x1="326.279330mm" y1="8.000013mm" x2="314.280285mm" y2="8.000013mm" />
  <line x1="320.279808mm" y1="2.000490mm" x2="320.279808mm" y2="13.999535mm" />
  <text x="323mm" y="5mm" font-size="24">
   6.0
  </text>
  <circle cx="324.420087mm" cy="103.380061mm" r="1.250061mm" fill="none"/>
  <line x1="326.920208mm" y1="103.380061mm" x2="321.919966mm" y2="103.380061mm" />
  <line x1="324.420087mm" y1="100.879939mm" x2="324.420087mm" y2="105.880182mm" />
  <text x="325mm" y="102mm" font-size="24">
   2.5
  </text>
  <circle cx="331.779818mm" cy="7.000055mm" r="2.000011mm" fill="none"/>
  <line x1="335.779840mm" y1="7.000055mm" x2="327.779795mm" y2="7.000055mm" />
  <line x1="331.779818mm" y1="3.000033mm" x2="331.779818mm" y2="11.000077mm" />
  <text x="333mm" y="5mm" font-size="24">
   4.0
  </text>
  <circle cx="344.879659mm" cy="8.200016mm" r="1.000019mm" fill="none"/>
  <line x1="346.879698mm" y1="8.200016mm" x2="342.879621mm" y2="8.200016mm" />
  <line x1="344.879659mm" y1="6.199978mm" x2="344.879659mm" y2="10.200054mm" />
  <text x="345mm" y="7mm" font-size="24">
   2.0
  </text>
  <circle cx="364.899659mm" cy="8.200016mm" r="1.000019mm" fill="none"/>
  <line x1="366.899698mm" y1="8.200016mm" x2="362.899621mm" y2="8.200016mm" />
  <line x1="364.899659mm" y1="6.199978mm" x2="364.899659mm" y2="10.200054mm" />
  <text x="365mm" y="7mm" font-size="24">
   2.0
  </text>
 </g>
</svg>
