<?xml version="1.0"?>
<svg xmlns="http://www.w3.org/2000/svg" version="1.1" height="401mm" width="481mm" >
 <g style="fill-opacity:1.0; stroke:black; stroke-width:1;">
  <line x1="103.500000mm" y1="391.000000mm" x2="103.500000mm" y2="391.000000mm" />
  <line x1="103.500000mm" y1="391.000000mm" x2="0.000000mm" y2="391.000000mm" />
  <line x1="0.000000mm" y1="391.000000mm" x2="0.000000mm" y2="0.000000mm" />
  <line x1="0.000000mm" y1="0.000000mm" x2="470.500000mm" y2="0.000000mm" />
  <line x1="470.500000mm" y1="0.000000mm" x2="470.500000mm" y2="391.000000mm" />
  <line x1="470.500000mm" y1="391.000000mm" x2="353.500000mm" y2="391.000000mm" />
  <line x1="353.500000mm" y1="391.000000mm" x2="353.500000mm" y2="109.900000mm" />
  <line x1="353.500000mm" y1="109.900000mm" x2="353.475000mm" y2="109.402000mm" />
  <line x1="353.475000mm" y1="109.402000mm" x2="353.401000mm" y2="108.909000mm" />
  <line x1="353.401000mm" y1="108.909000mm" x2="353.278000mm" y2="108.426000mm" />
  <line x1="353.278000mm" y1="108.426000mm" x2="353.107000mm" y2="107.958000mm" />
  <line x1="353.107000mm" y1="107.958000mm" x2="352.891000mm" y2="107.509000mm" />
  <line x1="352.891000mm" y1="107.509000mm" x2="352.631000mm" y2="107.083000mm" />
  <line x1="352.631000mm" y1="107.083000mm" x2="352.330000mm" y2="106.686000mm" />
  <line x1="352.330000mm" y1="106.686000mm" x2="351.991000mm" y2="106.321000mm" />
  <line x1="351.991000mm" y1="106.321000mm" x2="351.617000mm" y2="105.991000mm" />
  <line x1="351.617000mm" y1="105.991000mm" x2="351.213000mm" y2="105.700000mm" />
  <line x1="351.213000mm" y1="105.700000mm" x2="350.781000mm" y2="105.451000mm" />
  <line x1="350.781000mm" y1="105.451000mm" x2="350.327000mm" y2="105.246000mm" />
  <line x1="350.327000mm" y1="105.246000mm" x2="349.854000mm" y2="105.087000mm" />
  <line x1="349.854000mm" y1="105.087000mm" x2="349.368000mm" y2="104.976000mm" />
  <line x1="349.368000mm" y1="104.976000mm" x2="348.874000mm" y2="104.914000mm" />
  <line x1="348.874000mm" y1="104.914000mm" x2="348.500000mm" y2="104.905000mm" />
  <line x1="348.500000mm" y1="104.905000mm" x2="348.500000mm" y2="104.900000mm" />
  <line x1="348.500000mm" y1="104.900000mm" x2="108.500000mm" y2="104.900000mm" />
  <line x1="108.500000mm" y1="104.900000mm" x2="108.500000mm" y2="104.905000mm" />
  <line x1="108.500000mm" y1="104.905000mm" x2="108.375000mm" y2="104.902000mm" />
  <line x1="108.375000mm" y1="104.902000mm" x2="107.878000mm" y2="104.939000mm" />
  <line x1="107.878000mm" y1="104.939000mm" x2="107.387000mm" y2="105.025000mm" />
  <line x1="107.387000mm" y1="105.025000mm" x2="106.908000mm" y2="105.160000mm" />
  <line x1="106.908000mm" y1="105.160000mm" x2="106.444000mm" y2="105.342000mm" />
  <line x1="106.444000mm" y1="105.342000mm" x2="106.000000mm" y2="105.570000mm" />
  <line x1="106.000000mm" y1="105.570000mm" x2="105.581000mm" y2="105.840000mm" />
  <line x1="105.581000mm" y1="105.840000mm" x2="105.192000mm" y2="106.151000mm" />
  <line x1="105.192000mm" y1="106.151000mm" x2="104.835000mm" y2="106.499000mm" />
  <line x1="104.835000mm" y1="106.499000mm" x2="104.514000mm" y2="106.881000mm" />
  <line x1="104.514000mm" y1="106.881000mm" x2="104.234000mm" y2="107.293000mm" />
  <line x1="104.234000mm" y1="107.293000mm" x2="103.995000mm" y2="107.731000mm" />
  <line x1="103.995000mm" y1="107.731000mm" x2="103.802000mm" y2="108.190000mm" />
  <line x1="103.802000mm" y1="108.190000mm" x2="103.655000mm" y2="108.666000mm" />
  <line x1="103.655000mm" y1="108.666000mm" x2="103.556000mm" y2="109.155000mm" />
  <line x1="103.556000mm" y1="109.155000mm" x2="103.506000mm" y2="109.651000mm" />
  <line x1="103.506000mm" y1="109.651000mm" x2="103.506000mm" y2="109.900000mm" />
  <line x1="103.506000mm" y1="109.900000mm" x2="103.500000mm" y2="109.900000mm" />
  <line x1="103.500000mm" y1="109.900000mm" x2="103.500000mm" y2="391.000000mm" />
  <circle cx="7.499659mm" cy="275.900016mm" r="1.000019mm" fill="none"/>
  <line x1="9.499698mm" y1="275.900016mm" x2="5.499621mm" y2="275.900016mm" />
  <line x1="7.499659mm" y1="273.899978mm" x2="7.499659mm" y2="277.900054mm" />
  <text x="8mm" y="274mm" font-size="24">
   2.0
  </text>
  <circle cx="7.499659mm" cy="234.500016mm" r="1.000019mm" fill="none"/>
  <line x1="9.499698mm" y1="234.500016mm" x2="5.499621mm" y2="234.500016mm" />
  <line x1="7.499659mm" y1="232.499978mm" x2="7.499659mm" y2="236.500054mm" />
  <text x="8mm" y="233mm" font-size="24">
   2.0
  </text>
  <circle cx="9.700371mm" cy="382.799769mm" r="1.000161mm" fill="none"/>
  <line x1="11.700692mm" y1="382.799769mm" x2="7.700050mm" y2="382.799769mm" />
  <line x1="9.700371mm" y1="380.799448mm" x2="9.700371mm" y2="384.800090mm" />
  <text x="10mm" y="381mm" font-size="24">
   2.0
  </text>
  <circle cx="16.499659mm" cy="330.000016mm" r="1.000019mm" fill="none"/>
  <line x1="18.499698mm" y1="330.000016mm" x2="14.499621mm" y2="330.000016mm" />
  <line x1="16.499659mm" y1="327.999978mm" x2="16.499659mm" y2="332.000054mm" />
  <text x="17mm" y="328mm" font-size="24">
   2.0
  </text>
  <circle cx="29.720371mm" cy="382.799769mm" r="1.000161mm" fill="none"/>
  <line x1="31.720692mm" y1="382.799769mm" x2="27.720050mm" y2="382.799769mm" />
  <line x1="29.720371mm" y1="380.799448mm" x2="29.720371mm" y2="384.800090mm" />
  <text x="30mm" y="381mm" font-size="24">
   2.0
  </text>
  <circle cx="34.499818mm" cy="318.000055mm" r="2.000011mm" fill="none"/>
  <line x1="38.499840mm" y1="318.000055mm" x2="30.499795mm" y2="318.000055mm" />
  <line x1="34.499818mm" y1="314.000033mm" x2="34.499818mm" y2="322.000077mm" />
  <text x="36mm" y="316mm" font-size="24">
   4.0
  </text>
  <circle cx="40.499818mm" cy="19.000055mm" r="2.000011mm" fill="none"/>
  <line x1="44.499840mm" y1="19.000055mm" x2="36.499795mm" y2="19.000055mm" />
  <line x1="40.499818mm" y1="15.000033mm" x2="40.499818mm" y2="23.000077mm" />
  <text x="42mm" y="17mm" font-size="24">
   4.0
  </text>
  <circle cx="41.920170mm" cy="383.499939mm" r="2.500268mm" fill="none"/>
  <line x1="46.920707mm" y1="383.499939mm" x2="36.919633mm" y2="383.499939mm" />
  <line x1="41.920170mm" y1="378.499402mm" x2="41.920170mm" y2="388.500476mm" />
  <text x="44mm" y="380mm" font-size="24">
   5.0
  </text>
  <circle cx="40.500000mm" cy="8.499997mm" r="0.999978mm" fill="none"/>
  <line x1="42.499956mm" y1="8.499997mm" x2="38.500044mm" y2="8.499997mm" />
  <line x1="40.500000mm" y1="6.500041mm" x2="40.500000mm" y2="10.499953mm" />
  <text x="41mm" y="7mm" font-size="24">
   2.0
  </text>
  <circle cx="48.499659mm" cy="330.000016mm" r="1.000019mm" fill="none"/>
  <line x1="50.499698mm" y1="330.000016mm" x2="46.499621mm" y2="330.000016mm" />
  <line x1="48.499659mm" y1="327.999978mm" x2="48.499659mm" y2="332.000054mm" />
  <text x="49mm" y="328mm" font-size="24">
   2.0
  </text>
  <circle cx="73.500000mm" cy="8.499997mm" r="0.999978mm" fill="none"/>
  <line x1="75.499956mm" y1="8.499997mm" x2="71.500044mm" y2="8.499997mm" />
  <line x1="73.500000mm" y1="6.500041mm" x2="73.500000mm" y2="10.499953mm" />
  <text x="74mm" y="7mm" font-size="24">
   2.0
  </text>
  <circle cx="74.200066mm" cy="354.890138mm" r="1.000138mm" fill="none"/>
  <line x1="76.200342mm" y1="354.890138mm" x2="72.199790mm" y2="354.890138mm" />
  <line x1="74.200066mm" y1="352.889862mm" x2="74.200066mm" y2="356.890414mm" />
  <text x="75mm" y="353mm" font-size="24">
   2.0
  </text>
  <circle cx="74.200066mm" cy="36.110138mm" r="1.000138mm" fill="none"/>
  <line x1="76.200342mm" y1="36.110138mm" x2="72.199790mm" y2="36.110138mm" />
  <line x1="74.200066mm" y1="34.109862mm" x2="74.200066mm" y2="38.110414mm" />
  <text x="75mm" y="35mm" font-size="24">
   2.0
  </text>
  <circle cx="74.280371mm" cy="382.799769mm" r="1.000161mm" fill="none"/>
  <line x1="76.280692mm" y1="382.799769mm" x2="72.280050mm" y2="382.799769mm" />
  <line x1="74.280371mm" y1="380.799448mm" x2="74.280371mm" y2="384.800090mm" />
  <text x="75mm" y="381mm" font-size="24">
   2.0
  </text>
  <circle cx="75.000000mm" cy="64.619997mm" r="0.999978mm" fill="none"/>
  <line x1="76.999956mm" y1="64.619997mm" x2="73.000044mm" y2="64.619997mm" />
  <line x1="75.000000mm" y1="62.620041mm" x2="75.000000mm" y2="66.619953mm" />
  <text x="75mm" y="63mm" font-size="24">
   2.0
  </text>
  <circle cx="94.300371mm" cy="382.799769mm" r="1.000161mm" fill="none"/>
  <line x1="96.300692mm" y1="382.799769mm" x2="92.300050mm" y2="382.799769mm" />
  <line x1="94.300371mm" y1="380.799448mm" x2="94.300371mm" y2="384.800090mm" />
  <text x="95mm" y="381mm" font-size="24">
   2.0
  </text>
  <circle cx="108.499962mm" cy="109.899817mm" r="4.989768mm" fill="none"/>
  <line x1="118.479499mm" y1="109.899817mm" x2="98.520425mm" y2="109.899817mm" />
  <line x1="108.499962mm" y1="99.920280mm" x2="108.499962mm" y2="119.879354mm" />
  <text x="113mm" y="104mm" font-size="24">
   10.0
  </text>
  <circle cx="348.499962mm" cy="109.899817mm" r="4.989768mm" fill="none"/>
  <line x1="358.479499mm" y1="109.899817mm" x2="338.520425mm" y2="109.899817mm" />
  <line x1="348.499962mm" y1="99.920280mm" x2="348.499962mm" y2="119.879354mm" />
  <text x="353mm" y="104mm" font-size="24">
   10.0
  </text>
  <circle cx="359.500000mm" cy="8.499997mm" r="0.999978mm" fill="none"/>
  <line x1="361.499956mm" y1="8.499997mm" x2="357.500044mm" y2="8.499997mm" />
  <line x1="359.500000mm" y1="6.500041mm" x2="359.500000mm" y2="10.499953mm" />
  <text x="360mm" y="7mm" font-size="24">
   2.0
  </text>
  <circle cx="362.900000mm" cy="64.619997mm" r="0.999978mm" fill="none"/>
  <line x1="364.899956mm" y1="64.619997mm" x2="360.900044mm" y2="64.619997mm" />
  <line x1="362.900000mm" y1="62.620041mm" x2="362.900000mm" y2="66.619953mm" />
  <text x="363mm" y="63mm" font-size="24">
   2.0
  </text>
  <circle cx="363.700000mm" cy="354.889997mm" r="0.999978mm" fill="none"/>
  <line x1="365.699956mm" y1="354.889997mm" x2="361.700044mm" y2="354.889997mm" />
  <line x1="363.700000mm" y1="352.890041mm" x2="363.700000mm" y2="356.889953mm" />
  <text x="364mm" y="353mm" font-size="24">
   2.0
  </text>
  <circle cx="363.700000mm" cy="36.109997mm" r="0.999978mm" fill="none"/>
  <line x1="365.699956mm" y1="36.109997mm" x2="361.700044mm" y2="36.109997mm" />
  <line x1="363.700000mm" y1="34.110041mm" x2="363.700000mm" y2="38.109953mm" />
  <text x="364mm" y="35mm" font-size="24">
   2.0
  </text>
  <circle cx="377.499659mm" cy="330.000016mm" r="1.000019mm" fill="none"/>
  <line x1="379.499698mm" y1="330.000016mm" x2="375.499621mm" y2="330.000016mm" />
  <line x1="377.499659mm" y1="327.999978mm" x2="377.499659mm" y2="332.000054mm" />
  <text x="378mm" y="328mm" font-size="24">
   2.0
  </text>
  <circle cx="392.500000mm" cy="8.499997mm" r="0.999978mm" fill="none"/>
  <line x1="394.499956mm" y1="8.499997mm" x2="390.500044mm" y2="8.499997mm" />
  <line x1="392.500000mm" y1="6.500041mm" x2="392.500000mm" y2="10.499953mm" />
  <text x="393mm" y="7mm" font-size="24">
   2.0
  </text>
  <circle cx="393.600371mm" cy="382.799769mm" r="1.000161mm" fill="none"/>
  <line x1="395.600692mm" y1="382.799769mm" x2="391.600050mm" y2="382.799769mm" />
  <line x1="393.600371mm" y1="380.799448mm" x2="393.600371mm" y2="384.800090mm" />
  <text x="394mm" y="381mm" font-size="24">
   2.0
  </text>
  <circle cx="395.420170mm" cy="370.099939mm" r="2.500268mm" fill="none"/>
  <line x1="400.420707mm" y1="370.099939mm" x2="390.419633mm" y2="370.099939mm" />
  <line x1="395.420170mm" y1="365.099402mm" x2="395.420170mm" y2="375.100476mm" />
  <text x="397mm" y="367mm" font-size="24">
   5.0
  </text>
  <circle cx="409.499659mm" cy="330.000016mm" r="1.000019mm" fill="none"/>
  <line x1="411.499698mm" y1="330.000016mm" x2="407.499621mm" y2="330.000016mm" />
  <line x1="409.499659mm" y1="327.999978mm" x2="409.499659mm" y2="332.000054mm" />
  <text x="410mm" y="328mm" font-size="24">
   2.0
  </text>
  <circle cx="413.620371mm" cy="382.799769mm" r="1.000161mm" fill="none"/>
  <line x1="415.620692mm" y1="382.799769mm" x2="411.620050mm" y2="382.799769mm" />
  <line x1="413.620371mm" y1="380.799448mm" x2="413.620371mm" y2="384.800090mm" />
  <text x="414mm" y="381mm" font-size="24">
   2.0
  </text>
  <circle cx="419.799659mm" cy="12.000016mm" r="1.000019mm" fill="none"/>
  <line x1="421.799698mm" y1="12.000016mm" x2="417.799621mm" y2="12.000016mm" />
  <line x1="419.799659mm" y1="9.999978mm" x2="419.799659mm" y2="14.000054mm" />
  <text x="420mm" y="10mm" font-size="24">
   2.0
  </text>
  <circle cx="440.780371mm" cy="382.799769mm" r="1.000161mm" fill="none"/>
  <line x1="442.780692mm" y1="382.799769mm" x2="438.780050mm" y2="382.799769mm" />
  <line x1="440.780371mm" y1="380.799448mm" x2="440.780371mm" y2="384.800090mm" />
  <text x="441mm" y="381mm" font-size="24">
   2.0
  </text>
  <circle cx="454.199659mm" cy="12.000016mm" r="1.000019mm" fill="none"/>
  <line x1="456.199698mm" y1="12.000016mm" x2="452.199621mm" y2="12.000016mm" />
  <line x1="454.199659mm" y1="9.999978mm" x2="454.199659mm" y2="14.000054mm" />
  <text x="455mm" y="10mm" font-size="24">
   2.0
  </text>
  <circle cx="460.800371mm" cy="382.799769mm" r="1.000161mm" fill="none"/>
  <line x1="462.800692mm" y1="382.799769mm" x2="458.800050mm" y2="382.799769mm" />
  <line x1="460.800371mm" y1="380.799448mm" x2="460.800371mm" y2="384.800090mm" />
  <text x="461mm" y="381mm" font-size="24">
   2.0
  </text>
 </g>
</svg>
