  0
SECTION
  2
BLOCKS
  0
ENDSEC
  0
SECTION
  2
ENTITIES
  0
LINE
  8
0
 10
-235.25
 11
-235.25
 20
0
 21
391
  0
LINE
  8
0
 10
-235.25
 11
235.25
 20
391
 21
391
  0
LINE
  8
0
 10
235.25
 11
235.25
 20
391
 21
0
  0
LINE
  8
0
 10
235.25
 11
118.25
 20
0
 21
0
  0
LINE
  8
0
 10
118.25
 11
118.25
 20
0
 21
281.1
  0
LINE
  8
0
 10
118.25
 11
118.225
 20
281.1
 21
281.598
  0
LINE
  8
0
 10
118.225
 11
118.151
 20
281.598
 21
282.091
  0
LINE
  8
0
 10
118.151
 11
118.028
 20
282.091
 21
282.574
  0
LINE
  8
0
 10
118.028
 11
117.857
 20
282.574
 21
283.042
  0
LINE
  8
0
 10
117.857
 11
117.641
 20
283.042
 21
283.491
  0
LINE
  8
0
 10
117.641
 11
117.381
 20
283.491
 21
283.917
  0
LINE
  8
0
 10
117.381
 11
117.08
 20
283.917
 21
284.314
  0
LINE
  8
0
 10
117.08
 11
116.741
 20
284.314
 21
284.679
  0
LINE
  8
0
 10
116.741
 11
116.367
 20
284.679
 21
285.009
  0
LINE
  8
0
 10
116.367
 11
115.963
 20
285.009
 21
285.3
  0
LINE
  8
0
 10
115.963
 11
115.531
 20
285.3
 21
285.549
  0
LINE
  8
0
 10
115.531
 11
115.077
 20
285.549
 21
285.754
  0
LINE
  8
0
 10
115.077
 11
114.604
 20
285.754
 21
285.913
  0
LINE
  8
0
 10
114.604
 11
114.118
 20
285.913
 21
286.024
  0
LINE
  8
0
 10
114.118
 11
113.624
 20
286.024
 21
286.086
  0
LINE
  8
0
 10
113.624
 11
113.25
 20
286.086
 21
286.095
  0
LINE
  8
0
 10
113.25
 11
113.25
 20
286.095
 21
286.1
  0
LINE
  8
0
 10
113.25
 11
-126.75
 20
286.1
 21
286.1
  0
LINE
  8
0
 10
-126.75
 11
-126.75
 20
286.1
 21
286.095
  0
LINE
  8
0
 10
-126.75
 11
-126.875
 20
286.095
 21
286.098
  0
LINE
  8
0
 10
-126.875
 11
-127.372
 20
286.098
 21
286.061
  0
LINE
  8
0
 10
-127.372
 11
-127.863
 20
286.061
 21
285.975
  0
LINE
  8
0
 10
-127.863
 11
-128.342
 20
285.975
 21
285.84
  0
LINE
  8
0
 10
-128.342
 11
-128.806
 20
285.84
 21
285.658
  0
LINE
  8
0
 10
-128.806
 11
-129.25
 20
285.658
 21
285.43
  0
LINE
  8
0
 10
-129.25
 11
-129.669
 20
285.43
 21
285.16
  0
LINE
  8
0
 10
-129.669
 11
-130.058
 20
285.16
 21
284.849
  0
LINE
  8
0
 10
-130.058
 11
-130.415
 20
284.849
 21
284.501
  0
LINE
  8
0
 10
-130.415
 11
-130.736
 20
284.501
 21
284.119
  0
LINE
  8
0
 10
-130.736
 11
-131.016
 20
284.119
 21
283.707
  0
LINE
  8
0
 10
-131.016
 11
-131.255
 20
283.707
 21
283.269
  0
LINE
  8
0
 10
-131.255
 11
-131.448
 20
283.269
 21
282.81
  0
LINE
  8
0
 10
-131.448
 11
-131.595
 20
282.81
 21
282.334
  0
LINE
  8
0
 10
-131.595
 11
-131.694
 20
282.334
 21
281.845
  0
LINE
  8
0
 10
-131.694
 11
-131.744
 20
281.845
 21
281.349
  0
LINE
  8
0
 10
-131.744
 11
-131.744
 20
281.349
 21
281.1
  0
LINE
  8
0
 10
-131.744
 11
-131.75
 20
281.1
 21
281.1
  0
LINE
  8
0
 10
-131.75
 11
-131.75
 20
281.1
 21
0
  0
LINE
  8
0
 10
-131.75
 11
-235.25
 20
0
 21
0
  0
LINE
  8
0
 10
-228.721
 11
-228.721
 20
114.861
 21
115.339
  0
LINE
  8
0
 10
-228.721
 11
-228.499
 20
115.339
 21
115.763
  0
LINE
  8
0
 10
-228.499
 11
-228.105
 20
115.763
 21
116.035
  0
LINE
  8
0
 10
-228.105
 11
-227.629
 20
116.035
 21
116.093
  0
LINE
  8
0
 10
-227.629
 11
-227.182
 20
116.093
 21
115.923
  0
LINE
  8
0
 10
-227.182
 11
-226.865
 20
115.923
 21
115.565
  0
LINE
  8
0
 10
-226.865
 11
-226.75
 20
115.565
 21
115.1
  0
LINE
  8
0
 10
-226.75
 11
-226.865
 20
115.1
 21
114.635
  0
LINE
  8
0
 10
-226.865
 11
-227.182
 20
114.635
 21
114.277
  0
LINE
  8
0
 10
-227.182
 11
-227.629
 20
114.277
 21
114.107
  0
LINE
  8
0
 10
-227.629
 11
-228.105
 20
114.107
 21
114.165
  0
LINE
  8
0
 10
-228.105
 11
-228.499
 20
114.165
 21
114.437
  0
LINE
  8
0
 10
-228.499
 11
-228.721
 20
114.437
 21
114.861
  0
LINE
  8
0
 10
-228.721
 11
-228.721
 20
156.261
 21
156.739
  0
LINE
  8
0
 10
-228.721
 11
-228.499
 20
156.739
 21
157.163
  0
LINE
  8
0
 10
-228.499
 11
-228.105
 20
157.163
 21
157.435
  0
LINE
  8
0
 10
-228.105
 11
-227.629
 20
157.435
 21
157.493
  0
LINE
  8
0
 10
-227.629
 11
-227.182
 20
157.493
 21
157.323
  0
LINE
  8
0
 10
-227.182
 11
-226.865
 20
157.323
 21
156.965
  0
LINE
  8
0
 10
-226.865
 11
-226.75
 20
156.965
 21
156.5
  0
LINE
  8
0
 10
-226.75
 11
-226.865
 20
156.5
 21
156.035
  0
LINE
  8
0
 10
-226.865
 11
-227.182
 20
156.035
 21
155.677
  0
LINE
  8
0
 10
-227.182
 11
-227.629
 20
155.677
 21
155.507
  0
LINE
  8
0
 10
-227.629
 11
-228.105
 20
155.507
 21
155.565
  0
LINE
  8
0
 10
-228.105
 11
-228.499
 20
155.565
 21
155.837
  0
LINE
  8
0
 10
-228.499
 11
-228.721
 20
155.837
 21
156.261
  0
LINE
  8
0
 10
-226.55
 11
-226.435
 20
8.2
 21
8.665
  0
LINE
  8
0
 10
-226.435
 11
-226.118
 20
8.665
 21
9.023
  0
LINE
  8
0
 10
-226.118
 11
-225.671
 20
9.023
 21
9.193
  0
LINE
  8
0
 10
-225.671
 11
-225.195
 20
9.193
 21
9.135
  0
LINE
  8
0
 10
-225.195
 11
-224.801
 20
9.135
 21
8.863
  0
LINE
  8
0
 10
-224.801
 11
-224.579
 20
8.863
 21
8.439
  0
LINE
  8
0
 10
-224.579
 11
-224.579
 20
8.439
 21
7.961
  0
LINE
  8
0
 10
-224.579
 11
-224.801
 20
7.961
 21
7.537
  0
LINE
  8
0
 10
-224.801
 11
-225.195
 20
7.537
 21
7.265
  0
LINE
  8
0
 10
-225.195
 11
-225.671
 20
7.265
 21
7.207
  0
LINE
  8
0
 10
-225.671
 11
-226.118
 20
7.207
 21
7.377
  0
LINE
  8
0
 10
-226.118
 11
-226.435
 20
7.377
 21
7.735
  0
LINE
  8
0
 10
-226.435
 11
-226.55
 20
7.735
 21
8.2
  0
LINE
  8
0
 10
-219.721
 11
-219.721
 20
60.761
 21
61.239
  0
LINE
  8
0
 10
-219.721
 11
-219.499
 20
61.239
 21
61.663
  0
LINE
  8
0
 10
-219.499
 11
-219.105
 20
61.663
 21
61.935
  0
LINE
  8
0
 10
-219.105
 11
-218.629
 20
61.935
 21
61.993
  0
LINE
  8
0
 10
-218.629
 11
-218.182
 20
61.993
 21
61.823
  0
LINE
  8
0
 10
-218.182
 11
-217.865
 20
61.823
 21
61.465
  0
LINE
  8
0
 10
-217.865
 11
-217.75
 20
61.465
 21
61
  0
LINE
  8
0
 10
-217.75
 11
-217.865
 20
61
 21
60.535
  0
LINE
  8
0
 10
-217.865
 11
-218.182
 20
60.535
 21
60.177
  0
LINE
  8
0
 10
-218.182
 11
-218.629
 20
60.177
 21
60.007
  0
LINE
  8
0
 10
-218.629
 11
-219.105
 20
60.007
 21
60.065
  0
LINE
  8
0
 10
-219.105
 11
-219.499
 20
60.065
 21
60.337
  0
LINE
  8
0
 10
-219.499
 11
-219.721
 20
60.337
 21
60.761
  0
LINE
  8
0
 10
-206.53
 11
-206.415
 20
8.2
 21
8.665
  0
LINE
  8
0
 10
-206.415
 11
-206.098
 20
8.665
 21
9.023
  0
LINE
  8
0
 10
-206.098
 11
-205.651
 20
9.023
 21
9.193
  0
LINE
  8
0
 10
-205.651
 11
-205.175
 20
9.193
 21
9.135
  0
LINE
  8
0
 10
-205.175
 11
-204.781
 20
9.135
 21
8.863
  0
LINE
  8
0
 10
-204.781
 11
-204.559
 20
8.863
 21
8.439
  0
LINE
  8
0
 10
-204.559
 11
-204.559
 20
8.439
 21
7.961
  0
LINE
  8
0
 10
-204.559
 11
-204.781
 20
7.961
 21
7.537
  0
LINE
  8
0
 10
-204.781
 11
-205.175
 20
7.537
 21
7.265
  0
LINE
  8
0
 10
-205.175
 11
-205.651
 20
7.265
 21
7.207
  0
LINE
  8
0
 10
-205.651
 11
-206.098
 20
7.207
 21
7.377
  0
LINE
  8
0
 10
-206.098
 11
-206.415
 20
7.377
 21
7.735
  0
LINE
  8
0
 10
-206.415
 11
-206.53
 20
7.735
 21
8.2
  0
LINE
  8
0
 10
-202.75
 11
-202.692
 20
73
 21
73.479
  0
LINE
  8
0
 10
-202.692
 11
-202.521
 20
73.479
 21
73.929
  0
LINE
  8
0
 10
-202.521
 11
-202.247
 20
73.929
 21
74.326
  0
LINE
  8
0
 10
-202.247
 11
-201.886
 20
74.326
 21
74.646
  0
LINE
  8
0
 10
-201.886
 11
-201.459
 20
74.646
 21
74.87
  0
LINE
  8
0
 10
-201.459
 11
-200.991
 20
74.87
 21
74.985
  0
LINE
  8
0
 10
-200.991
 11
-200.509
 20
74.985
 21
74.985
  0
LINE
  8
0
 10
-200.509
 11
-200.041
 20
74.985
 21
74.87
  0
LINE
  8
0
 10
-200.041
 11
-199.614
 20
74.87
 21
74.646
  0
LINE
  8
0
 10
-199.614
 11
-199.253
 20
74.646
 21
74.326
  0
LINE
  8
0
 10
-199.253
 11
-198.979
 20
74.326
 21
73.929
  0
LINE
  8
0
 10
-198.979
 11
-198.808
 20
73.929
 21
73.479
  0
LINE
  8
0
 10
-198.808
 11
-198.75
 20
73.479
 21
73
  0
LINE
  8
0
 10
-198.75
 11
-198.808
 20
73
 21
72.521
  0
LINE
  8
0
 10
-198.808
 11
-198.979
 20
72.521
 21
72.071
  0
LINE
  8
0
 10
-198.979
 11
-199.253
 20
72.071
 21
71.674
  0
LINE
  8
0
 10
-199.253
 11
-199.614
 20
71.674
 21
71.354
  0
LINE
  8
0
 10
-199.614
 11
-200.041
 20
71.354
 21
71.13
  0
LINE
  8
0
 10
-200.041
 11
-200.509
 20
71.13
 21
71.015
  0
LINE
  8
0
 10
-200.509
 11
-200.991
 20
71.015
 21
71.015
  0
LINE
  8
0
 10
-200.991
 11
-201.459
 20
71.015
 21
71.13
  0
LINE
  8
0
 10
-201.459
 11
-201.886
 20
71.13
 21
71.354
  0
LINE
  8
0
 10
-201.886
 11
-202.247
 20
71.354
 21
71.674
  0
LINE
  8
0
 10
-202.247
 11
-202.521
 20
71.674
 21
72.071
  0
LINE
  8
0
 10
-202.521
 11
-202.692
 20
72.071
 21
72.521
  0
LINE
  8
0
 10
-202.692
 11
-202.75
 20
72.521
 21
73
  0
LINE
  8
0
 10
-196.75
 11
-196.692
 20
372
 21
372.479
  0
LINE
  8
0
 10
-196.692
 11
-196.521
 20
372.479
 21
372.929
  0
LINE
  8
0
 10
-196.521
 11
-196.247
 20
372.929
 21
373.326
  0
LINE
  8
0
 10
-196.247
 11
-195.886
 20
373.326
 21
373.646
  0
LINE
  8
0
 10
-195.886
 11
-195.459
 20
373.646
 21
373.87
  0
LINE
  8
0
 10
-195.459
 11
-194.991
 20
373.87
 21
373.985
  0
LINE
  8
0
 10
-194.991
 11
-194.509
 20
373.985
 21
373.985
  0
LINE
  8
0
 10
-194.509
 11
-194.041
 20
373.985
 21
373.87
  0
LINE
  8
0
 10
-194.041
 11
-193.614
 20
373.87
 21
373.646
  0
LINE
  8
0
 10
-193.614
 11
-193.253
 20
373.646
 21
373.326
  0
LINE
  8
0
 10
-193.253
 11
-192.979
 20
373.326
 21
372.929
  0
LINE
  8
0
 10
-192.979
 11
-192.808
 20
372.929
 21
372.479
  0
LINE
  8
0
 10
-192.808
 11
-192.75
 20
372.479
 21
372
  0
LINE
  8
0
 10
-192.75
 11
-192.808
 20
372
 21
371.521
  0
LINE
  8
0
 10
-192.808
 11
-192.979
 20
371.521
 21
371.071
  0
LINE
  8
0
 10
-192.979
 11
-193.253
 20
371.071
 21
370.674
  0
LINE
  8
0
 10
-193.253
 11
-193.614
 20
370.674
 21
370.354
  0
LINE
  8
0
 10
-193.614
 11
-194.041
 20
370.354
 21
370.13
  0
LINE
  8
0
 10
-194.041
 11
-194.509
 20
370.13
 21
370.015
  0
LINE
  8
0
 10
-194.509
 11
-194.991
 20
370.015
 21
370.015
  0
LINE
  8
0
 10
-194.991
 11
-195.459
 20
370.015
 21
370.13
  0
LINE
  8
0
 10
-195.459
 11
-195.886
 20
370.13
 21
370.354
  0
LINE
  8
0
 10
-195.886
 11
-196.247
 20
370.354
 21
370.674
  0
LINE
  8
0
 10
-196.247
 11
-196.521
 20
370.674
 21
371.071
  0
LINE
  8
0
 10
-196.521
 11
-196.692
 20
371.071
 21
371.521
  0
LINE
  8
0
 10
-196.692
 11
-196.75
 20
371.521
 21
372
  0
LINE
  8
0
 10
-195.83
 11
-195.782
 20
7.5
 21
7.988
  0
LINE
  8
0
 10
-195.782
 11
-195.64
 20
7.988
 21
8.457
  0
LINE
  8
0
 10
-195.64
 11
-195.409
 20
8.457
 21
8.889
  0
LINE
  8
0
 10
-195.409
 11
-195.098
 20
8.889
 21
9.268
  0
LINE
  8
0
 10
-195.098
 11
-194.719
 20
9.268
 21
9.579
  0
LINE
  8
0
 10
-194.719
 11
-194.287
 20
9.579
 21
9.81
  0
LINE
  8
0
 10
-194.287
 11
-193.818
 20
9.81
 21
9.952
  0
LINE
  8
0
 10
-193.818
 11
-193.33
 20
9.952
 21
10
  0
LINE
  8
0
 10
-193.33
 11
-192.842
 20
10
 21
9.952
  0
LINE
  8
0
 10
-192.842
 11
-192.373
 20
9.952
 21
9.81
  0
LINE
  8
0
 10
-192.373
 11
-191.941
 20
9.81
 21
9.579
  0
LINE
  8
0
 10
-191.941
 11
-191.562
 20
9.579
 21
9.268
  0
LINE
  8
0
 10
-191.562
 11
-191.251
 20
9.268
 21
8.889
  0
LINE
  8
0
 10
-191.251
 11
-191.02
 20
8.889
 21
8.457
  0
LINE
  8
0
 10
-191.02
 11
-190.878
 20
8.457
 21
7.988
  0
LINE
  8
0
 10
-190.878
 11
-190.83
 20
7.988
 21
7.5
  0
LINE
  8
0
 10
-190.83
 11
-190.878
 20
7.5
 21
7.012
  0
LINE
  8
0
 10
-190.878
 11
-191.02
 20
7.012
 21
6.543
  0
LINE
  8
0
 10
-191.02
 11
-191.251
 20
6.543
 21
6.111
  0
LINE
  8
0
 10
-191.251
 11
-191.562
 20
6.111
 21
5.732
  0
LINE
  8
0
 10
-191.562
 11
-191.941
 20
5.732
 21
5.421
  0
LINE
  8
0
 10
-191.941
 11
-192.373
 20
5.421
 21
5.19
  0
LINE
  8
0
 10
-192.373
 11
-192.842
 20
5.19
 21
5.048
  0
LINE
  8
0
 10
-192.842
 11
-193.33
 20
5.048
 21
5
  0
LINE
  8
0
 10
-193.33
 11
-193.818
 20
5
 21
5.048
  0
LINE
  8
0
 10
-193.818
 11
-194.287
 20
5.048
 21
5.19
  0
LINE
  8
0
 10
-194.287
 11
-194.719
 20
5.19
 21
5.421
  0
LINE
  8
0
 10
-194.719
 11
-195.098
 20
5.421
 21
5.732
  0
LINE
  8
0
 10
-195.098
 11
-195.409
 20
5.732
 21
6.111
  0
LINE
  8
0
 10
-195.409
 11
-195.64
 20
6.111
 21
6.543
  0
LINE
  8
0
 10
-195.64
 11
-195.782
 20
6.543
 21
7.012
  0
LINE
  8
0
 10
-195.782
 11
-195.83
 20
7.012
 21
7.5
  0
LINE
  8
0
 10
-195.743
 11
-195.685
 20
382.379
 21
382.855
  0
LINE
  8
0
 10
-195.685
 11
-195.413
 20
382.855
 21
383.249
  0
LINE
  8
0
 10
-195.413
 11
-194.989
 20
383.249
 21
383.471
  0
LINE
  8
0
 10
-194.989
 11
-194.511
 20
383.471
 21
383.471
  0
LINE
  8
0
 10
-194.511
 11
-194.087
 20
383.471
 21
383.249
  0
LINE
  8
0
 10
-194.087
 11
-193.815
 20
383.249
 21
382.855
  0
LINE
  8
0
 10
-193.815
 11
-193.757
 20
382.855
 21
382.379
  0
LINE
  8
0
 10
-193.757
 11
-193.927
 20
382.379
 21
381.932
  0
LINE
  8
0
 10
-193.927
 11
-194.285
 20
381.932
 21
381.615
  0
LINE
  8
0
 10
-194.285
 11
-194.75
 20
381.615
 21
381.5
  0
LINE
  8
0
 10
-194.75
 11
-195.215
 20
381.5
 21
381.615
  0
LINE
  8
0
 10
-195.215
 11
-195.573
 20
381.615
 21
381.932
  0
LINE
  8
0
 10
-195.573
 11
-195.743
 20
381.932
 21
382.379
  0
LINE
  8
0
 10
-187.721
 11
-187.721
 20
60.761
 21
61.239
  0
LINE
  8
0
 10
-187.721
 11
-187.499
 20
61.239
 21
61.663
  0
LINE
  8
0
 10
-187.499
 11
-187.105
 20
61.663
 21
61.935
  0
LINE
  8
0
 10
-187.105
 11
-186.629
 20
61.935
 21
61.993
  0
LINE
  8
0
 10
-186.629
 11
-186.182
 20
61.993
 21
61.823
  0
LINE
  8
0
 10
-186.182
 11
-185.865
 20
61.823
 21
61.465
  0
LINE
  8
0
 10
-185.865
 11
-185.75
 20
61.465
 21
61
  0
LINE
  8
0
 10
-185.75
 11
-185.865
 20
61
 21
60.535
  0
LINE
  8
0
 10
-185.865
 11
-186.182
 20
60.535
 21
60.177
  0
LINE
  8
0
 10
-186.182
 11
-186.629
 20
60.177
 21
60.007
  0
LINE
  8
0
 10
-186.629
 11
-187.105
 20
60.007
 21
60.065
  0
LINE
  8
0
 10
-187.105
 11
-187.499
 20
60.065
 21
60.337
  0
LINE
  8
0
 10
-187.499
 11
-187.721
 20
60.337
 21
60.761
  0
LINE
  8
0
 10
-162.743
 11
-162.685
 20
382.379
 21
382.855
  0
LINE
  8
0
 10
-162.685
 11
-162.413
 20
382.855
 21
383.249
  0
LINE
  8
0
 10
-162.413
 11
-161.989
 20
383.249
 21
383.471
  0
LINE
  8
0
 10
-161.989
 11
-161.511
 20
383.471
 21
383.471
  0
LINE
  8
0
 10
-161.511
 11
-161.087
 20
383.471
 21
383.249
  0
LINE
  8
0
 10
-161.087
 11
-160.815
 20
383.249
 21
382.855
  0
LINE
  8
0
 10
-160.815
 11
-160.757
 20
382.855
 21
382.379
  0
LINE
  8
0
 10
-160.757
 11
-160.927
 20
382.379
 21
381.932
  0
LINE
  8
0
 10
-160.927
 11
-161.285
 20
381.932
 21
381.615
  0
LINE
  8
0
 10
-161.285
 11
-161.75
 20
381.615
 21
381.5
  0
LINE
  8
0
 10
-161.75
 11
-162.215
 20
381.5
 21
381.615
  0
LINE
  8
0
 10
-162.215
 11
-162.573
 20
381.615
 21
381.932
  0
LINE
  8
0
 10
-162.573
 11
-162.743
 20
381.932
 21
382.379
  0
LINE
  8
0
 10
-162.043
 11
-161.873
 20
36.231
 21
36.678
  0
LINE
  8
0
 10
-161.873
 11
-161.515
 20
36.678
 21
36.995
  0
LINE
  8
0
 10
-161.515
 11
-161.05
 20
36.995
 21
37.11
  0
LINE
  8
0
 10
-161.05
 11
-160.585
 20
37.11
 21
36.995
  0
LINE
  8
0
 10
-160.585
 11
-160.227
 20
36.995
 21
36.678
  0
LINE
  8
0
 10
-160.227
 11
-160.057
 20
36.678
 21
36.231
  0
LINE
  8
0
 10
-160.057
 11
-160.115
 20
36.231
 21
35.755
  0
LINE
  8
0
 10
-160.115
 11
-160.387
 20
35.755
 21
35.361
  0
LINE
  8
0
 10
-160.387
 11
-160.811
 20
35.361
 21
35.139
  0
LINE
  8
0
 10
-160.811
 11
-161.289
 20
35.139
 21
35.139
  0
LINE
  8
0
 10
-161.289
 11
-161.713
 20
35.139
 21
35.361
  0
LINE
  8
0
 10
-161.713
 11
-161.985
 20
35.361
 21
35.755
  0
LINE
  8
0
 10
-161.985
 11
-162.043
 20
35.755
 21
36.231
  0
LINE
  8
0
 10
-162.043
 11
-161.873
 20
355.011
 21
355.458
  0
LINE
  8
0
 10
-161.873
 11
-161.515
 20
355.458
 21
355.775
  0
LINE
  8
0
 10
-161.515
 11
-161.05
 20
355.775
 21
355.89
  0
LINE
  8
0
 10
-161.05
 11
-160.585
 20
355.89
 21
355.775
  0
LINE
  8
0
 10
-160.585
 11
-160.227
 20
355.775
 21
355.458
  0
LINE
  8
0
 10
-160.227
 11
-160.057
 20
355.458
 21
355.011
  0
LINE
  8
0
 10
-160.057
 11
-160.115
 20
355.011
 21
354.535
  0
LINE
  8
0
 10
-160.115
 11
-160.387
 20
354.535
 21
354.141
  0
LINE
  8
0
 10
-160.387
 11
-160.811
 20
354.141
 21
353.919
  0
LINE
  8
0
 10
-160.811
 11
-161.289
 20
353.919
 21
353.919
  0
LINE
  8
0
 10
-161.289
 11
-161.713
 20
353.919
 21
354.141
  0
LINE
  8
0
 10
-161.713
 11
-161.985
 20
354.141
 21
354.535
  0
LINE
  8
0
 10
-161.985
 11
-162.043
 20
354.535
 21
355.011
  0
LINE
  8
0
 10
-161.97
 11
-161.855
 20
8.2
 21
8.665
  0
LINE
  8
0
 10
-161.855
 11
-161.538
 20
8.665
 21
9.023
  0
LINE
  8
0
 10
-161.538
 11
-161.091
 20
9.023
 21
9.193
  0
LINE
  8
0
 10
-161.091
 11
-160.615
 20
9.193
 21
9.135
  0
LINE
  8
0
 10
-160.615
 11
-160.221
 20
9.135
 21
8.863
  0
LINE
  8
0
 10
-160.221
 11
-159.999
 20
8.863
 21
8.439
  0
LINE
  8
0
 10
-159.999
 11
-159.999
 20
8.439
 21
7.961
  0
LINE
  8
0
 10
-159.999
 11
-160.221
 20
7.961
 21
7.537
  0
LINE
  8
0
 10
-160.221
 11
-160.615
 20
7.537
 21
7.265
  0
LINE
  8
0
 10
-160.615
 11
-161.091
 20
7.265
 21
7.207
  0
LINE
  8
0
 10
-161.091
 11
-161.538
 20
7.207
 21
7.377
  0
LINE
  8
0
 10
-161.538
 11
-161.855
 20
7.377
 21
7.735
  0
LINE
  8
0
 10
-161.855
 11
-161.97
 20
7.735
 21
8.2
  0
LINE
  8
0
 10
-161.243
 11
-161.185
 20
326.259
 21
326.735
  0
LINE
  8
0
 10
-161.185
 11
-160.913
 20
326.735
 21
327.129
  0
LINE
  8
0
 10
-160.913
 11
-160.489
 20
327.129
 21
327.351
  0
LINE
  8
0
 10
-160.489
 11
-160.011
 20
327.351
 21
327.351
  0
LINE
  8
0
 10
-160.011
 11
-159.587
 20
327.351
 21
327.129
  0
LINE
  8
0
 10
-159.587
 11
-159.315
 20
327.129
 21
326.735
  0
LINE
  8
0
 10
-159.315
 11
-159.257
 20
326.735
 21
326.259
  0
LINE
  8
0
 10
-159.257
 11
-159.427
 20
326.259
 21
325.812
  0
LINE
  8
0
 10
-159.427
 11
-159.785
 20
325.812
 21
325.495
  0
LINE
  8
0
 10
-159.785
 11
-160.25
 20
325.495
 21
325.38
  0
LINE
  8
0
 10
-160.25
 11
-160.715
 20
325.38
 21
325.495
  0
LINE
  8
0
 10
-160.715
 11
-161.073
 20
325.495
 21
325.812
  0
LINE
  8
0
 10
-161.073
 11
-161.243
 20
325.812
 21
326.259
  0
LINE
  8
0
 10
-141.95
 11
-141.835
 20
8.2
 21
8.665
  0
LINE
  8
0
 10
-141.835
 11
-141.518
 20
8.665
 21
9.023
  0
LINE
  8
0
 10
-141.518
 11
-141.071
 20
9.023
 21
9.193
  0
LINE
  8
0
 10
-141.071
 11
-140.595
 20
9.193
 21
9.135
  0
LINE
  8
0
 10
-140.595
 11
-140.201
 20
9.135
 21
8.863
  0
LINE
  8
0
 10
-140.201
 11
-139.979
 20
8.863
 21
8.439
  0
LINE
  8
0
 10
-139.979
 11
-139.979
 20
8.439
 21
7.961
  0
LINE
  8
0
 10
-139.979
 11
-140.201
 20
7.961
 21
7.537
  0
LINE
  8
0
 10
-140.201
 11
-140.595
 20
7.537
 21
7.265
  0
LINE
  8
0
 10
-140.595
 11
-141.071
 20
7.265
 21
7.207
  0
LINE
  8
0
 10
-141.071
 11
-141.518
 20
7.207
 21
7.377
  0
LINE
  8
0
 10
-141.518
 11
-141.835
 20
7.377
 21
7.735
  0
LINE
  8
0
 10
-141.835
 11
-141.95
 20
7.735
 21
8.2
  0
LINE
  8
0
 10
-131.734
 11
-131.734
 20
280.851
 21
281.349
  0
LINE
  8
0
 10
-131.734
 11
-131.684
 20
281.349
 21
281.844
  0
LINE
  8
0
 10
-131.684
 11
-131.586
 20
281.844
 21
282.331
  0
LINE
  8
0
 10
-131.586
 11
-131.439
 20
282.331
 21
282.807
  0
LINE
  8
0
 10
-131.439
 11
-131.246
 20
282.807
 21
283.265
  0
LINE
  8
0
 10
-131.246
 11
-131.008
 20
283.265
 21
283.702
  0
LINE
  8
0
 10
-131.008
 11
-130.728
 20
283.702
 21
284.113
  0
LINE
  8
0
 10
-130.728
 11
-130.408
 20
284.113
 21
284.494
  0
LINE
  8
0
 10
-130.408
 11
-130.052
 20
284.494
 21
284.841
  0
LINE
  8
0
 10
-130.052
 11
-129.663
 20
284.841
 21
285.152
  0
LINE
  8
0
 10
-129.663
 11
-129.245
 20
285.152
 21
285.421
  0
LINE
  8
0
 10
-129.245
 11
-128.802
 20
285.421
 21
285.648
  0
LINE
  8
0
 10
-128.802
 11
-128.339
 20
285.648
 21
285.83
  0
LINE
  8
0
 10
-128.339
 11
-127.86
 20
285.83
 21
285.965
  0
LINE
  8
0
 10
-127.86
 11
-127.37
 20
285.965
 21
286.051
  0
LINE
  8
0
 10
-127.37
 11
-126.874
 20
286.051
 21
286.088
  0
LINE
  8
0
 10
-126.874
 11
-126.377
 20
286.088
 21
286.076
  0
LINE
  8
0
 10
-126.377
 11
-125.883
 20
286.076
 21
286.014
  0
LINE
  8
0
 10
-125.883
 11
-125.399
 20
286.014
 21
285.903
  0
LINE
  8
0
 10
-125.399
 11
-124.927
 20
285.903
 21
285.745
  0
LINE
  8
0
 10
-124.927
 11
-124.474
 20
285.745
 21
285.54
  0
LINE
  8
0
 10
-124.474
 11
-124.043
 20
285.54
 21
285.292
  0
LINE
  8
0
 10
-124.043
 11
-123.639
 20
285.292
 21
285.001
  0
LINE
  8
0
 10
-123.639
 11
-123.266
 20
285.001
 21
284.672
  0
LINE
  8
0
 10
-123.266
 11
-122.927
 20
284.672
 21
284.308
  0
LINE
  8
0
 10
-122.927
 11
-122.627
 20
284.308
 21
283.911
  0
LINE
  8
0
 10
-122.627
 11
-122.368
 20
283.911
 21
283.486
  0
LINE
  8
0
 10
-122.368
 11
-122.152
 20
283.486
 21
283.038
  0
LINE
  8
0
 10
-122.152
 11
-121.982
 20
283.038
 21
282.571
  0
LINE
  8
0
 10
-121.982
 11
-121.859
 20
282.571
 21
282.089
  0
LINE
  8
0
 10
-121.859
 11
-121.785
 20
282.089
 21
281.597
  0
LINE
  8
0
 10
-121.785
 11
-121.76
 20
281.597
 21
281.1
  0
LINE
  8
0
 10
-121.76
 11
-121.785
 20
281.1
 21
280.603
  0
LINE
  8
0
 10
-121.785
 11
-121.859
 20
280.603
 21
280.111
  0
LINE
  8
0
 10
-121.859
 11
-121.982
 20
280.111
 21
279.629
  0
LINE
  8
0
 10
-121.982
 11
-122.152
 20
279.629
 21
279.162
  0
LINE
  8
0
 10
-122.152
 11
-122.368
 20
279.162
 21
278.714
  0
LINE
  8
0
 10
-122.368
 11
-122.627
 20
278.714
 21
278.289
  0
LINE
  8
0
 10
-122.627
 11
-122.927
 20
278.289
 21
277.892
  0
LINE
  8
0
 10
-122.927
 11
-123.266
 20
277.892
 21
277.528
  0
LINE
  8
0
 10
-123.266
 11
-123.639
 20
277.528
 21
277.199
  0
LINE
  8
0
 10
-123.639
 11
-124.043
 20
277.199
 21
276.908
  0
LINE
  8
0
 10
-124.043
 11
-124.474
 20
276.908
 21
276.66
  0
LINE
  8
0
 10
-124.474
 11
-124.927
 20
276.66
 21
276.455
  0
LINE
  8
0
 10
-124.927
 11
-125.399
 20
276.455
 21
276.297
  0
LINE
  8
0
 10
-125.399
 11
-125.883
 20
276.297
 21
276.186
  0
LINE
  8
0
 10
-125.883
 11
-126.377
 20
276.186
 21
276.124
  0
LINE
  8
0
 10
-126.377
 11
-126.874
 20
276.124
 21
276.112
  0
LINE
  8
0
 10
-126.874
 11
-127.37
 20
276.112
 21
276.149
  0
LINE
  8
0
 10
-127.37
 11
-127.86
 20
276.149
 21
276.235
  0
LINE
  8
0
 10
-127.86
 11
-128.339
 20
276.235
 21
276.37
  0
LINE
  8
0
 10
-128.339
 11
-128.802
 20
276.37
 21
276.552
  0
LINE
  8
0
 10
-128.802
 11
-129.245
 20
276.552
 21
276.779
  0
LINE
  8
0
 10
-129.245
 11
-129.663
 20
276.779
 21
277.048
  0
LINE
  8
0
 10
-129.663
 11
-130.052
 20
277.048
 21
277.359
  0
LINE
  8
0
 10
-130.052
 11
-130.408
 20
277.359
 21
277.706
  0
LINE
  8
0
 10
-130.408
 11
-130.728
 20
277.706
 21
278.087
  0
LINE
  8
0
 10
-130.728
 11
-131.008
 20
278.087
 21
278.498
  0
LINE
  8
0
 10
-131.008
 11
-131.246
 20
278.498
 21
278.935
  0
LINE
  8
0
 10
-131.246
 11
-131.439
 20
278.935
 21
279.393
  0
LINE
  8
0
 10
-131.439
 11
-131.586
 20
279.393
 21
279.869
  0
LINE
  8
0
 10
-131.586
 11
-131.684
 20
279.869
 21
280.356
  0
LINE
  8
0
 10
-131.684
 11
-131.734
 20
280.356
 21
280.851
  0
LINE
  8
0
 10
108.266
 11
108.266
 20
280.851
 21
281.349
  0
LINE
  8
0
 10
108.266
 11
108.316
 20
281.349
 21
281.844
  0
LINE
  8
0
 10
108.316
 11
108.414
 20
281.844
 21
282.331
  0
LINE
  8
0
 10
108.414
 11
108.561
 20
282.331
 21
282.807
  0
LINE
  8
0
 10
108.561
 11
108.754
 20
282.807
 21
283.265
  0
LINE
  8
0
 10
108.754
 11
108.992
 20
283.265
 21
283.702
  0
LINE
  8
0
 10
108.992
 11
109.272
 20
283.702
 21
284.113
  0
LINE
  8
0
 10
109.272
 11
109.592
 20
284.113
 21
284.494
  0
LINE
  8
0
 10
109.592
 11
109.948
 20
284.494
 21
284.841
  0
LINE
  8
0
 10
109.948
 11
110.337
 20
284.841
 21
285.152
  0
LINE
  8
0
 10
110.337
 11
110.755
 20
285.152
 21
285.421
  0
LINE
  8
0
 10
110.755
 11
111.198
 20
285.421
 21
285.648
  0
LINE
  8
0
 10
111.198
 11
111.661
 20
285.648
 21
285.83
  0
LINE
  8
0
 10
111.661
 11
112.14
 20
285.83
 21
285.965
  0
LINE
  8
0
 10
112.14
 11
112.63
 20
285.965
 21
286.051
  0
LINE
  8
0
 10
112.63
 11
113.126
 20
286.051
 21
286.088
  0
LINE
  8
0
 10
113.126
 11
113.623
 20
286.088
 21
286.076
  0
LINE
  8
0
 10
113.623
 11
114.117
 20
286.076
 21
286.014
  0
LINE
  8
0
 10
114.117
 11
114.601
 20
286.014
 21
285.903
  0
LINE
  8
0
 10
114.601
 11
115.073
 20
285.903
 21
285.745
  0
LINE
  8
0
 10
115.073
 11
115.526
 20
285.745
 21
285.54
  0
LINE
  8
0
 10
115.526
 11
115.957
 20
285.54
 21
285.292
  0
LINE
  8
0
 10
115.957
 11
116.361
 20
285.292
 21
285.001
  0
LINE
  8
0
 10
116.361
 11
116.734
 20
285.001
 21
284.672
  0
LINE
  8
0
 10
116.734
 11
117.073
 20
284.672
 21
284.308
  0
LINE
  8
0
 10
117.073
 11
117.373
 20
284.308
 21
283.911
  0
LINE
  8
0
 10
117.373
 11
117.632
 20
283.911
 21
283.486
  0
LINE
  8
0
 10
117.632
 11
117.848
 20
283.486
 21
283.038
  0
LINE
  8
0
 10
117.848
 11
118.018
 20
283.038
 21
282.571
  0
LINE
  8
0
 10
118.018
 11
118.141
 20
282.571
 21
282.089
  0
LINE
  8
0
 10
118.141
 11
118.215
 20
282.089
 21
281.597
  0
LINE
  8
0
 10
118.215
 11
118.24
 20
281.597
 21
281.1
  0
LINE
  8
0
 10
118.24
 11
118.215
 20
281.1
 21
280.603
  0
LINE
  8
0
 10
118.215
 11
118.141
 20
280.603
 21
280.111
  0
LINE
  8
0
 10
118.141
 11
118.018
 20
280.111
 21
279.629
  0
LINE
  8
0
 10
118.018
 11
117.848
 20
279.629
 21
279.162
  0
LINE
  8
0
 10
117.848
 11
117.632
 20
279.162
 21
278.714
  0
LINE
  8
0
 10
117.632
 11
117.373
 20
278.714
 21
278.289
  0
LINE
  8
0
 10
117.373
 11
117.073
 20
278.289
 21
277.892
  0
LINE
  8
0
 10
117.073
 11
116.734
 20
277.892
 21
277.528
  0
LINE
  8
0
 10
116.734
 11
116.361
 20
277.528
 21
277.199
  0
LINE
  8
0
 10
116.361
 11
115.957
 20
277.199
 21
276.908
  0
LINE
  8
0
 10
115.957
 11
115.526
 20
276.908
 21
276.66
  0
LINE
  8
0
 10
115.526
 11
115.073
 20
276.66
 21
276.455
  0
LINE
  8
0
 10
115.073
 11
114.601
 20
276.455
 21
276.297
  0
LINE
  8
0
 10
114.601
 11
114.117
 20
276.297
 21
276.186
  0
LINE
  8
0
 10
114.117
 11
113.623
 20
276.186
 21
276.124
  0
LINE
  8
0
 10
113.623
 11
113.126
 20
276.124
 21
276.112
  0
LINE
  8
0
 10
113.126
 11
112.63
 20
276.112
 21
276.149
  0
LINE
  8
0
 10
112.63
 11
112.14
 20
276.149
 21
276.235
  0
LINE
  8
0
 10
112.14
 11
111.661
 20
276.235
 21
276.37
  0
LINE
  8
0
 10
111.661
 11
111.198
 20
276.37
 21
276.552
  0
LINE
  8
0
 10
111.198
 11
110.755
 20
276.552
 21
276.779
  0
LINE
  8
0
 10
110.755
 11
110.337
 20
276.779
 21
277.048
  0
LINE
  8
0
 10
110.337
 11
109.948
 20
277.048
 21
277.359
  0
LINE
  8
0
 10
109.948
 11
109.592
 20
277.359
 21
277.706
  0
LINE
  8
0
 10
109.592
 11
109.272
 20
277.706
 21
278.087
  0
LINE
  8
0
 10
109.272
 11
108.992
 20
278.087
 21
278.498
  0
LINE
  8
0
 10
108.992
 11
108.754
 20
278.498
 21
278.935
  0
LINE
  8
0
 10
108.754
 11
108.561
 20
278.935
 21
279.393
  0
LINE
  8
0
 10
108.561
 11
108.414
 20
279.393
 21
279.869
  0
LINE
  8
0
 10
108.414
 11
108.316
 20
279.869
 21
280.356
  0
LINE
  8
0
 10
108.316
 11
108.266
 20
280.356
 21
280.851
  0
LINE
  8
0
 10
123.257
 11
123.315
 20
382.379
 21
382.855
  0
LINE
  8
0
 10
123.315
 11
123.587
 20
382.855
 21
383.249
  0
LINE
  8
0
 10
123.587
 11
124.011
 20
383.249
 21
383.471
  0
LINE
  8
0
 10
124.011
 11
124.489
 20
383.471
 21
383.471
  0
LINE
  8
0
 10
124.489
 11
124.913
 20
383.471
 21
383.249
  0
LINE
  8
0
 10
124.913
 11
125.185
 20
383.249
 21
382.855
  0
LINE
  8
0
 10
125.185
 11
125.243
 20
382.855
 21
382.379
  0
LINE
  8
0
 10
125.243
 11
125.073
 20
382.379
 21
381.932
  0
LINE
  8
0
 10
125.073
 11
124.715
 20
381.932
 21
381.615
  0
LINE
  8
0
 10
124.715
 11
124.25
 20
381.615
 21
381.5
  0
LINE
  8
0
 10
124.25
 11
123.785
 20
381.5
 21
381.615
  0
LINE
  8
0
 10
123.785
 11
123.427
 20
381.615
 21
381.932
  0
LINE
  8
0
 10
123.427
 11
123.257
 20
381.932
 21
382.379
  0
LINE
  8
0
 10
126.657
 11
126.715
 20
326.259
 21
326.735
  0
LINE
  8
0
 10
126.715
 11
126.987
 20
326.735
 21
327.129
  0
LINE
  8
0
 10
126.987
 11
127.411
 20
327.129
 21
327.351
  0
LINE
  8
0
 10
127.411
 11
127.889
 20
327.351
 21
327.351
  0
LINE
  8
0
 10
127.889
 11
128.313
 20
327.351
 21
327.129
  0
LINE
  8
0
 10
128.313
 11
128.585
 20
327.129
 21
326.735
  0
LINE
  8
0
 10
128.585
 11
128.643
 20
326.735
 21
326.259
  0
LINE
  8
0
 10
128.643
 11
128.473
 20
326.259
 21
325.812
  0
LINE
  8
0
 10
128.473
 11
128.115
 20
325.812
 21
325.495
  0
LINE
  8
0
 10
128.115
 11
127.65
 20
325.495
 21
325.38
  0
LINE
  8
0
 10
127.65
 11
127.185
 20
325.38
 21
325.495
  0
LINE
  8
0
 10
127.185
 11
126.827
 20
325.495
 21
325.812
  0
LINE
  8
0
 10
126.827
 11
126.657
 20
325.812
 21
326.259
  0
LINE
  8
0
 10
127.457
 11
127.515
 20
35.989
 21
36.465
  0
LINE
  8
0
 10
127.515
 11
127.787
 20
36.465
 21
36.859
  0
LINE
  8
0
 10
127.787
 11
128.211
 20
36.859
 21
37.081
  0
LINE
  8
0
 10
128.211
 11
128.689
 20
37.081
 21
37.081
  0
LINE
  8
0
 10
128.689
 11
129.113
 20
37.081
 21
36.859
  0
LINE
  8
0
 10
129.113
 11
129.385
 20
36.859
 21
36.465
  0
LINE
  8
0
 10
129.385
 11
129.443
 20
36.465
 21
35.989
  0
LINE
  8
0
 10
129.443
 11
129.273
 20
35.989
 21
35.542
  0
LINE
  8
0
 10
129.273
 11
128.915
 20
35.542
 21
35.225
  0
LINE
  8
0
 10
128.915
 11
128.45
 20
35.225
 21
35.11
  0
LINE
  8
0
 10
128.45
 11
127.985
 20
35.11
 21
35.225
  0
LINE
  8
0
 10
127.985
 11
127.627
 20
35.225
 21
35.542
  0
LINE
  8
0
 10
127.627
 11
127.457
 20
35.542
 21
35.989
  0
LINE
  8
0
 10
127.457
 11
127.515
 20
354.769
 21
355.245
  0
LINE
  8
0
 10
127.515
 11
127.787
 20
355.245
 21
355.639
  0
LINE
  8
0
 10
127.787
 11
128.211
 20
355.639
 21
355.861
  0
LINE
  8
0
 10
128.211
 11
128.689
 20
355.861
 21
355.861
  0
LINE
  8
0
 10
128.689
 11
129.113
 20
355.861
 21
355.639
  0
LINE
  8
0
 10
129.113
 11
129.385
 20
355.639
 21
355.245
  0
LINE
  8
0
 10
129.385
 11
129.443
 20
355.245
 21
354.769
  0
LINE
  8
0
 10
129.443
 11
129.273
 20
354.769
 21
354.322
  0
LINE
  8
0
 10
129.273
 11
128.915
 20
354.322
 21
354.005
  0
LINE
  8
0
 10
128.915
 11
128.45
 20
354.005
 21
353.89
  0
LINE
  8
0
 10
128.45
 11
127.985
 20
353.89
 21
354.005
  0
LINE
  8
0
 10
127.985
 11
127.627
 20
354.005
 21
354.322
  0
LINE
  8
0
 10
127.627
 11
127.457
 20
354.322
 21
354.769
  0
LINE
  8
0
 10
141.279
 11
141.279
 20
60.761
 21
61.239
  0
LINE
  8
0
 10
141.279
 11
141.501
 20
61.239
 21
61.663
  0
LINE
  8
0
 10
141.501
 11
141.895
 20
61.663
 21
61.935
  0
LINE
  8
0
 10
141.895
 11
142.371
 20
61.935
 21
61.993
  0
LINE
  8
0
 10
142.371
 11
142.818
 20
61.993
 21
61.823
  0
LINE
  8
0
 10
142.818
 11
143.135
 20
61.823
 21
61.465
  0
LINE
  8
0
 10
143.135
 11
143.25
 20
61.465
 21
61
  0
LINE
  8
0
 10
143.25
 11
143.135
 20
61
 21
60.535
  0
LINE
  8
0
 10
143.135
 11
142.818
 20
60.535
 21
60.177
  0
LINE
  8
0
 10
142.818
 11
142.371
 20
60.177
 21
60.007
  0
LINE
  8
0
 10
142.371
 11
141.895
 20
60.007
 21
60.065
  0
LINE
  8
0
 10
141.895
 11
141.501
 20
60.065
 21
60.337
  0
LINE
  8
0
 10
141.501
 11
141.279
 20
60.337
 21
60.761
  0
LINE
  8
0
 10
156.257
 11
156.315
 20
382.379
 21
382.855
  0
LINE
  8
0
 10
156.315
 11
156.587
 20
382.855
 21
383.249
  0
LINE
  8
0
 10
156.587
 11
157.011
 20
383.249
 21
383.471
  0
LINE
  8
0
 10
157.011
 11
157.489
 20
383.471
 21
383.471
  0
LINE
  8
0
 10
157.489
 11
157.913
 20
383.471
 21
383.249
  0
LINE
  8
0
 10
157.913
 11
158.185
 20
383.249
 21
382.855
  0
LINE
  8
0
 10
158.185
 11
158.243
 20
382.855
 21
382.379
  0
LINE
  8
0
 10
158.243
 11
158.073
 20
382.379
 21
381.932
  0
LINE
  8
0
 10
158.073
 11
157.715
 20
381.932
 21
381.615
  0
LINE
  8
0
 10
157.715
 11
157.25
 20
381.615
 21
381.5
  0
LINE
  8
0
 10
157.25
 11
156.785
 20
381.5
 21
381.615
  0
LINE
  8
0
 10
156.785
 11
156.427
 20
381.615
 21
381.932
  0
LINE
  8
0
 10
156.427
 11
156.257
 20
381.932
 21
382.379
  0
LINE
  8
0
 10
157.35
 11
157.465
 20
8.2
 21
8.665
  0
LINE
  8
0
 10
157.465
 11
157.782
 20
8.665
 21
9.023
  0
LINE
  8
0
 10
157.782
 11
158.229
 20
9.023
 21
9.193
  0
LINE
  8
0
 10
158.229
 11
158.705
 20
9.193
 21
9.135
  0
LINE
  8
0
 10
158.705
 11
159.099
 20
9.135
 21
8.863
  0
LINE
  8
0
 10
159.099
 11
159.321
 20
8.863
 21
8.439
  0
LINE
  8
0
 10
159.321
 11
159.321
 20
8.439
 21
7.961
  0
LINE
  8
0
 10
159.321
 11
159.099
 20
7.961
 21
7.537
  0
LINE
  8
0
 10
159.099
 11
158.705
 20
7.537
 21
7.265
  0
LINE
  8
0
 10
158.705
 11
158.229
 20
7.265
 21
7.207
  0
LINE
  8
0
 10
158.229
 11
157.782
 20
7.207
 21
7.377
  0
LINE
  8
0
 10
157.782
 11
157.465
 20
7.377
 21
7.735
  0
LINE
  8
0
 10
157.465
 11
157.35
 20
7.735
 21
8.2
  0
LINE
  8
0
 10
157.67
 11
157.718
 20
20.9
 21
21.388
  0
LINE
  8
0
 10
157.718
 11
157.86
 20
21.388
 21
21.857
  0
LINE
  8
0
 10
157.86
 11
158.091
 20
21.857
 21
22.289
  0
LINE
  8
0
 10
158.091
 11
158.402
 20
22.289
 21
22.668
  0
LINE
  8
0
 10
158.402
 11
158.781
 20
22.668
 21
22.979
  0
LINE
  8
0
 10
158.781
 11
159.213
 20
22.979
 21
23.21
  0
LINE
  8
0
 10
159.213
 11
159.682
 20
23.21
 21
23.352
  0
LINE
  8
0
 10
159.682
 11
160.17
 20
23.352
 21
23.4
  0
LINE
  8
0
 10
160.17
 11
160.658
 20
23.4
 21
23.352
  0
LINE
  8
0
 10
160.658
 11
161.127
 20
23.352
 21
23.21
  0
LINE
  8
0
 10
161.127
 11
161.559
 20
23.21
 21
22.979
  0
LINE
  8
0
 10
161.559
 11
161.938
 20
22.979
 21
22.668
  0
LINE
  8
0
 10
161.938
 11
162.249
 20
22.668
 21
22.289
  0
LINE
  8
0
 10
162.249
 11
162.48
 20
22.289
 21
21.857
  0
LINE
  8
0
 10
162.48
 11
162.622
 20
21.857
 21
21.388
  0
LINE
  8
0
 10
162.622
 11
162.67
 20
21.388
 21
20.9
  0
LINE
  8
0
 10
162.67
 11
162.622
 20
20.9
 21
20.412
  0
LINE
  8
0
 10
162.622
 11
162.48
 20
20.412
 21
19.943
  0
LINE
  8
0
 10
162.48
 11
162.249
 20
19.943
 21
19.511
  0
LINE
  8
0
 10
162.249
 11
161.938
 20
19.511
 21
19.132
  0
LINE
  8
0
 10
161.938
 11
161.559
 20
19.132
 21
18.821
  0
LINE
  8
0
 10
161.559
 11
161.127
 20
18.821
 21
18.59
  0
LINE
  8
0
 10
161.127
 11
160.658
 20
18.59
 21
18.448
  0
LINE
  8
0
 10
160.658
 11
160.17
 20
18.448
 21
18.4
  0
LINE
  8
0
 10
160.17
 11
159.682
 20
18.4
 21
18.448
  0
LINE
  8
0
 10
159.682
 11
159.213
 20
18.448
 21
18.59
  0
LINE
  8
0
 10
159.213
 11
158.781
 20
18.59
 21
18.821
  0
LINE
  8
0
 10
158.781
 11
158.402
 20
18.821
 21
19.132
  0
LINE
  8
0
 10
158.402
 11
158.091
 20
19.132
 21
19.511
  0
LINE
  8
0
 10
158.091
 11
157.86
 20
19.511
 21
19.943
  0
LINE
  8
0
 10
157.86
 11
157.718
 20
19.943
 21
20.412
  0
LINE
  8
0
 10
157.718
 11
157.67
 20
20.412
 21
20.9
  0
LINE
  8
0
 10
173.279
 11
173.279
 20
60.761
 21
61.239
  0
LINE
  8
0
 10
173.279
 11
173.501
 20
61.239
 21
61.663
  0
LINE
  8
0
 10
173.501
 11
173.895
 20
61.663
 21
61.935
  0
LINE
  8
0
 10
173.895
 11
174.371
 20
61.935
 21
61.993
  0
LINE
  8
0
 10
174.371
 11
174.818
 20
61.993
 21
61.823
  0
LINE
  8
0
 10
174.818
 11
175.135
 20
61.823
 21
61.465
  0
LINE
  8
0
 10
175.135
 11
175.25
 20
61.465
 21
61
  0
LINE
  8
0
 10
175.25
 11
175.135
 20
61
 21
60.535
  0
LINE
  8
0
 10
175.135
 11
174.818
 20
60.535
 21
60.177
  0
LINE
  8
0
 10
174.818
 11
174.371
 20
60.177
 21
60.007
  0
LINE
  8
0
 10
174.371
 11
173.895
 20
60.007
 21
60.065
  0
LINE
  8
0
 10
173.895
 11
173.501
 20
60.065
 21
60.337
  0
LINE
  8
0
 10
173.501
 11
173.279
 20
60.337
 21
60.761
  0
LINE
  8
0
 10
177.37
 11
177.485
 20
8.2
 21
8.665
  0
LINE
  8
0
 10
177.485
 11
177.802
 20
8.665
 21
9.023
  0
LINE
  8
0
 10
177.802
 11
178.249
 20
9.023
 21
9.193
  0
LINE
  8
0
 10
178.249
 11
178.725
 20
9.193
 21
9.135
  0
LINE
  8
0
 10
178.725
 11
179.119
 20
9.135
 21
8.863
  0
LINE
  8
0
 10
179.119
 11
179.341
 20
8.863
 21
8.439
  0
LINE
  8
0
 10
179.341
 11
179.341
 20
8.439
 21
7.961
  0
LINE
  8
0
 10
179.341
 11
179.119
 20
7.961
 21
7.537
  0
LINE
  8
0
 10
179.119
 11
178.725
 20
7.537
 21
7.265
  0
LINE
  8
0
 10
178.725
 11
178.249
 20
7.265
 21
7.207
  0
LINE
  8
0
 10
178.249
 11
177.802
 20
7.207
 21
7.377
  0
LINE
  8
0
 10
177.802
 11
177.485
 20
7.377
 21
7.735
  0
LINE
  8
0
 10
177.485
 11
177.37
 20
7.735
 21
8.2
  0
LINE
  8
0
 10
183.579
 11
183.579
 20
378.761
 21
379.239
  0
LINE
  8
0
 10
183.579
 11
183.801
 20
379.239
 21
379.663
  0
LINE
  8
0
 10
183.801
 11
184.195
 20
379.663
 21
379.935
  0
LINE
  8
0
 10
184.195
 11
184.671
 20
379.935
 21
379.993
  0
LINE
  8
0
 10
184.671
 11
185.118
 20
379.993
 21
379.823
  0
LINE
  8
0
 10
185.118
 11
185.435
 20
379.823
 21
379.465
  0
LINE
  8
0
 10
185.435
 11
185.55
 20
379.465
 21
379
  0
LINE
  8
0
 10
185.55
 11
185.435
 20
379
 21
378.535
  0
LINE
  8
0
 10
185.435
 11
185.118
 20
378.535
 21
378.177
  0
LINE
  8
0
 10
185.118
 11
184.671
 20
378.177
 21
378.007
  0
LINE
  8
0
 10
184.671
 11
184.195
 20
378.007
 21
378.065
  0
LINE
  8
0
 10
184.195
 11
183.801
 20
378.065
 21
378.337
  0
LINE
  8
0
 10
183.801
 11
183.579
 20
378.337
 21
378.761
  0
LINE
  8
0
 10
204.53
 11
204.645
 20
8.2
 21
8.665
  0
LINE
  8
0
 10
204.645
 11
204.962
 20
8.665
 21
9.023
  0
LINE
  8
0
 10
204.962
 11
205.409
 20
9.023
 21
9.193
  0
LINE
  8
0
 10
205.409
 11
205.885
 20
9.193
 21
9.135
  0
LINE
  8
0
 10
205.885
 11
206.279
 20
9.135
 21
8.863
  0
LINE
  8
0
 10
206.279
 11
206.501
 20
8.863
 21
8.439
  0
LINE
  8
0
 10
206.501
 11
206.501
 20
8.439
 21
7.961
  0
LINE
  8
0
 10
206.501
 11
206.279
 20
7.961
 21
7.537
  0
LINE
  8
0
 10
206.279
 11
205.885
 20
7.537
 21
7.265
  0
LINE
  8
0
 10
205.885
 11
205.409
 20
7.265
 21
7.207
  0
LINE
  8
0
 10
205.409
 11
204.962
 20
7.207
 21
7.377
  0
LINE
  8
0
 10
204.962
 11
204.645
 20
7.377
 21
7.735
  0
LINE
  8
0
 10
204.645
 11
204.53
 20
7.735
 21
8.2
  0
LINE
  8
0
 10
217.979
 11
217.979
 20
378.761
 21
379.239
  0
LINE
  8
0
 10
217.979
 11
218.201
 20
379.239
 21
379.663
  0
LINE
  8
0
 10
218.201
 11
218.595
 20
379.663
 21
379.935
  0
LINE
  8
0
 10
218.595
 11
219.071
 20
379.935
 21
379.993
  0
LINE
  8
0
 10
219.071
 11
219.518
 20
379.993
 21
379.823
  0
LINE
  8
0
 10
219.518
 11
219.835
 20
379.823
 21
379.465
  0
LINE
  8
0
 10
219.835
 11
219.95
 20
379.465
 21
379
  0
LINE
  8
0
 10
219.95
 11
219.835
 20
379
 21
378.535
  0
LINE
  8
0
 10
219.835
 11
219.518
 20
378.535
 21
378.177
  0
LINE
  8
0
 10
219.518
 11
219.071
 20
378.177
 21
378.007
  0
LINE
  8
0
 10
219.071
 11
218.595
 20
378.007
 21
378.065
  0
LINE
  8
0
 10
218.595
 11
218.201
 20
378.065
 21
378.337
  0
LINE
  8
0
 10
218.201
 11
217.979
 20
378.337
 21
378.761
  0
LINE
  8
0
 10
224.55
 11
224.665
 20
8.2
 21
8.665
  0
LINE
  8
0
 10
224.665
 11
224.982
 20
8.665
 21
9.023
  0
LINE
  8
0
 10
224.982
 11
225.429
 20
9.023
 21
9.193
  0
LINE
  8
0
 10
225.429
 11
225.905
 20
9.193
 21
9.135
  0
LINE
  8
0
 10
225.905
 11
226.299
 20
9.135
 21
8.863
  0
LINE
  8
0
 10
226.299
 11
226.521
 20
8.863
 21
8.439
  0
LINE
  8
0
 10
226.521
 11
226.521
 20
8.439
 21
7.961
  0
LINE
  8
0
 10
226.521
 11
226.299
 20
7.961
 21
7.537
  0
LINE
  8
0
 10
226.299
 11
225.905
 20
7.537
 21
7.265
  0
LINE
  8
0
 10
225.905
 11
225.429
 20
7.265
 21
7.207
  0
LINE
  8
0
 10
225.429
 11
224.982
 20
7.207
 21
7.377
  0
LINE
  8
0
 10
224.982
 11
224.665
 20
7.377
 21
7.735
  0
LINE
  8
0
 10
224.665
 11
224.55
 20
7.735
 21
8.2
  0
ENDSEC
  0
SECTION
  2
OBJECTS
  0
DICTIONARY
  0
ENDSEC
  0
EOF
