  0
SECTION
  2
BLOCKS
  0
ENDSEC
  0
SECTION
  2
ENTITIES
  0
LINE
  8
0
 10
-235.25
 11
-235.25
 20
-211
 21
211
  0
LINE
  8
0
 10
-235.25
 11
235.25
 20
211
 21
211
  0
LINE
  8
0
 10
235.25
 11
235.25
 20
211
 21
-211
  0
LINE
  8
0
 10
235.25
 11
-235.25
 20
-211
 21
-211
  0
LINE
  8
0
 10
-215.911
 11
-215.911
 20
60.461
 21
60.939
  0
LINE
  8
0
 10
-215.911
 11
-215.689
 20
60.939
 21
61.363
  0
LINE
  8
0
 10
-215.689
 11
-215.295
 20
61.363
 21
61.635
  0
LINE
  8
0
 10
-215.295
 11
-214.819
 20
61.635
 21
61.693
  0
LINE
  8
0
 10
-214.819
 11
-214.372
 20
61.693
 21
61.523
  0
LINE
  8
0
 10
-214.372
 11
-214.055
 20
61.523
 21
61.165
  0
LINE
  8
0
 10
-214.055
 11
-213.94
 20
61.165
 21
60.7
  0
LINE
  8
0
 10
-213.94
 11
-214.055
 20
60.7
 21
60.235
  0
LINE
  8
0
 10
-214.055
 11
-214.372
 20
60.235
 21
59.877
  0
LINE
  8
0
 10
-214.372
 11
-214.819
 20
59.877
 21
59.707
  0
LINE
  8
0
 10
-214.819
 11
-215.295
 20
59.707
 21
59.765
  0
LINE
  8
0
 10
-215.295
 11
-215.689
 20
59.765
 21
60.037
  0
LINE
  8
0
 10
-215.689
 11
-215.911
 20
60.037
 21
60.461
  0
LINE
  8
0
 10
-206.742
 11
-206.742
 20
-0.246
 21
0.246
  0
LINE
  8
0
 10
-206.742
 11
-206.682
 20
0.246
 21
0.735
  0
LINE
  8
0
 10
-206.682
 11
-206.562
 20
0.735
 21
1.213
  0
LINE
  8
0
 10
-206.562
 11
-206.384
 20
1.213
 21
1.672
  0
LINE
  8
0
 10
-206.384
 11
-206.151
 20
1.672
 21
2.106
  0
LINE
  8
0
 10
-206.151
 11
-205.866
 20
2.106
 21
2.508
  0
LINE
  8
0
 10
-205.866
 11
-205.535
 20
2.508
 21
2.872
  0
LINE
  8
0
 10
-205.535
 11
-205.161
 20
2.872
 21
3.192
  0
LINE
  8
0
 10
-205.161
 11
-204.75
 20
3.192
 21
3.464
  0
LINE
  8
0
 10
-204.75
 11
-204.309
 20
3.464
 21
3.684
  0
LINE
  8
0
 10
-204.309
 11
-203.845
 20
3.684
 21
3.847
  0
LINE
  8
0
 10
-203.845
 11
-203.364
 20
3.847
 21
3.953
  0
LINE
  8
0
 10
-203.364
 11
-202.873
 20
3.953
 21
3.998
  0
LINE
  8
0
 10
-202.873
 11
-202.381
 20
3.998
 21
3.983
  0
LINE
  8
0
 10
-202.381
 11
-201.894
 20
3.983
 21
3.907
  0
LINE
  8
0
 10
-201.894
 11
-201.421
 20
3.907
 21
3.773
  0
LINE
  8
0
 10
-201.421
 11
-200.967
 20
3.773
 21
3.581
  0
LINE
  8
0
 10
-200.967
 11
-200.541
 20
3.581
 21
3.334
  0
LINE
  8
0
 10
-200.541
 11
-200.148
 20
3.334
 21
3.038
  0
LINE
  8
0
 10
-200.148
 11
-199.794
 20
3.038
 21
2.695
  0
LINE
  8
0
 10
-199.794
 11
-199.485
 20
2.695
 21
2.311
  0
LINE
  8
0
 10
-199.485
 11
-199.226
 20
2.311
 21
1.892
  0
LINE
  8
0
 10
-199.226
 11
-199.02
 20
1.892
 21
1.445
  0
LINE
  8
0
 10
-199.02
 11
-198.871
 20
1.445
 21
0.976
  0
LINE
  8
0
 10
-198.871
 11
-198.78
 20
0.976
 21
0.492
  0
LINE
  8
0
 10
-198.78
 11
-198.75
 20
0.492
 21
0
  0
LINE
  8
0
 10
-198.75
 11
-198.78
 20
0
 21
-0.492
  0
LINE
  8
0
 10
-198.78
 11
-198.871
 20
-0.492
 21
-0.976
  0
LINE
  8
0
 10
-198.871
 11
-199.02
 20
-0.976
 21
-1.445
  0
LINE
  8
0
 10
-199.02
 11
-199.226
 20
-1.445
 21
-1.892
  0
LINE
  8
0
 10
-199.226
 11
-199.485
 20
-1.892
 21
-2.311
  0
LINE
  8
0
 10
-199.485
 11
-199.794
 20
-2.311
 21
-2.695
  0
LINE
  8
0
 10
-199.794
 11
-200.148
 20
-2.695
 21
-3.038
  0
LINE
  8
0
 10
-200.148
 11
-200.541
 20
-3.038
 21
-3.334
  0
LINE
  8
0
 10
-200.541
 11
-200.967
 20
-3.334
 21
-3.581
  0
LINE
  8
0
 10
-200.967
 11
-201.421
 20
-3.581
 21
-3.773
  0
LINE
  8
0
 10
-201.421
 11
-201.894
 20
-3.773
 21
-3.907
  0
LINE
  8
0
 10
-201.894
 11
-202.381
 20
-3.907
 21
-3.983
  0
LINE
  8
0
 10
-202.381
 11
-202.873
 20
-3.983
 21
-3.998
  0
LINE
  8
0
 10
-202.873
 11
-203.364
 20
-3.998
 21
-3.953
  0
LINE
  8
0
 10
-203.364
 11
-203.845
 20
-3.953
 21
-3.847
  0
LINE
  8
0
 10
-203.845
 11
-204.309
 20
-3.847
 21
-3.684
  0
LINE
  8
0
 10
-204.309
 11
-204.75
 20
-3.684
 21
-3.464
  0
LINE
  8
0
 10
-204.75
 11
-205.161
 20
-3.464
 21
-3.192
  0
LINE
  8
0
 10
-205.161
 11
-205.535
 20
-3.192
 21
-2.872
  0
LINE
  8
0
 10
-205.535
 11
-205.866
 20
-2.872
 21
-2.508
  0
LINE
  8
0
 10
-205.866
 11
-206.151
 20
-2.508
 21
-2.106
  0
LINE
  8
0
 10
-206.151
 11
-206.384
 20
-2.106
 21
-1.672
  0
LINE
  8
0
 10
-206.384
 11
-206.562
 20
-1.672
 21
-1.213
  0
LINE
  8
0
 10
-206.562
 11
-206.682
 20
-1.213
 21
-0.735
  0
LINE
  8
0
 10
-206.682
 11
-206.742
 20
-0.735
 21
-0.246
  0
LINE
  8
0
 10
-162.043
 11
-161.985
 20
190.569
 21
191.045
  0
LINE
  8
0
 10
-161.985
 11
-161.713
 20
191.045
 21
191.439
  0
LINE
  8
0
 10
-161.713
 11
-161.289
 20
191.439
 21
191.661
  0
LINE
  8
0
 10
-161.289
 11
-160.811
 20
191.661
 21
191.661
  0
LINE
  8
0
 10
-160.811
 11
-160.387
 20
191.661
 21
191.439
  0
LINE
  8
0
 10
-160.387
 11
-160.115
 20
191.439
 21
191.045
  0
LINE
  8
0
 10
-160.115
 11
-160.057
 20
191.045
 21
190.569
  0
LINE
  8
0
 10
-160.057
 11
-160.227
 20
190.569
 21
190.122
  0
LINE
  8
0
 10
-160.227
 11
-160.585
 20
190.122
 21
189.805
  0
LINE
  8
0
 10
-160.585
 11
-161.05
 20
189.805
 21
189.69
  0
LINE
  8
0
 10
-161.05
 11
-161.515
 20
189.69
 21
189.805
  0
LINE
  8
0
 10
-161.515
 11
-161.873
 20
189.805
 21
190.122
  0
LINE
  8
0
 10
-161.873
 11
-162.043
 20
190.122
 21
190.569
  0
LINE
  8
0
 10
-152.531
 11
-152.531
 20
60.461
 21
60.939
  0
LINE
  8
0
 10
-152.531
 11
-152.309
 20
60.939
 21
61.363
  0
LINE
  8
0
 10
-152.309
 11
-151.915
 20
61.363
 21
61.635
  0
LINE
  8
0
 10
-151.915
 11
-151.439
 20
61.635
 21
61.693
  0
LINE
  8
0
 10
-151.439
 11
-150.992
 20
61.693
 21
61.523
  0
LINE
  8
0
 10
-150.992
 11
-150.675
 20
61.523
 21
61.165
  0
LINE
  8
0
 10
-150.675
 11
-150.56
 20
61.165
 21
60.7
  0
LINE
  8
0
 10
-150.56
 11
-150.675
 20
60.7
 21
60.235
  0
LINE
  8
0
 10
-150.675
 11
-150.992
 20
60.235
 21
59.877
  0
LINE
  8
0
 10
-150.992
 11
-151.439
 20
59.877
 21
59.707
  0
LINE
  8
0
 10
-151.439
 11
-151.915
 20
59.707
 21
59.765
  0
LINE
  8
0
 10
-151.915
 11
-152.309
 20
59.765
 21
60.037
  0
LINE
  8
0
 10
-152.309
 11
-152.531
 20
60.037
 21
60.461
  0
LINE
  8
0
 10
-108.243
 11
-108.073
 20
-202.379
 21
-201.932
  0
LINE
  8
0
 10
-108.073
 11
-107.715
 20
-201.932
 21
-201.615
  0
LINE
  8
0
 10
-107.715
 11
-107.25
 20
-201.615
 21
-201.5
  0
LINE
  8
0
 10
-107.25
 11
-106.785
 20
-201.5
 21
-201.615
  0
LINE
  8
0
 10
-106.785
 11
-106.427
 20
-201.615
 21
-201.932
  0
LINE
  8
0
 10
-106.427
 11
-106.257
 20
-201.932
 21
-202.379
  0
LINE
  8
0
 10
-106.257
 11
-106.315
 20
-202.379
 21
-202.855
  0
LINE
  8
0
 10
-106.315
 11
-106.587
 20
-202.855
 21
-203.249
  0
LINE
  8
0
 10
-106.587
 11
-107.011
 20
-203.249
 21
-203.471
  0
LINE
  8
0
 10
-107.011
 11
-107.489
 20
-203.471
 21
-203.471
  0
LINE
  8
0
 10
-107.489
 11
-107.913
 20
-203.471
 21
-203.249
  0
LINE
  8
0
 10
-107.913
 11
-108.185
 20
-203.249
 21
-202.855
  0
LINE
  8
0
 10
-108.185
 11
-108.243
 20
-202.855
 21
-202.379
  0
LINE
  8
0
 10
-108.243
 11
-108.073
 20
202.621
 21
203.068
  0
LINE
  8
0
 10
-108.073
 11
-107.715
 20
203.068
 21
203.385
  0
LINE
  8
0
 10
-107.715
 11
-107.25
 20
203.385
 21
203.5
  0
LINE
  8
0
 10
-107.25
 11
-106.785
 20
203.5
 21
203.385
  0
LINE
  8
0
 10
-106.785
 11
-106.427
 20
203.385
 21
203.068
  0
LINE
  8
0
 10
-106.427
 11
-106.257
 20
203.068
 21
202.621
  0
LINE
  8
0
 10
-106.257
 11
-106.315
 20
202.621
 21
202.145
  0
LINE
  8
0
 10
-106.315
 11
-106.587
 20
202.145
 21
201.751
  0
LINE
  8
0
 10
-106.587
 11
-107.011
 20
201.751
 21
201.529
  0
LINE
  8
0
 10
-107.011
 11
-107.489
 20
201.529
 21
201.529
  0
LINE
  8
0
 10
-107.489
 11
-107.913
 20
201.529
 21
201.751
  0
LINE
  8
0
 10
-107.913
 11
-108.185
 20
201.751
 21
202.145
  0
LINE
  8
0
 10
-108.185
 11
-108.243
 20
202.145
 21
202.621
  0
LINE
  8
0
 10
-75.243
 11
-75.073
 20
-202.379
 21
-201.932
  0
LINE
  8
0
 10
-75.073
 11
-74.715
 20
-201.932
 21
-201.615
  0
LINE
  8
0
 10
-74.715
 11
-74.25
 20
-201.615
 21
-201.5
  0
LINE
  8
0
 10
-74.25
 11
-73.785
 20
-201.5
 21
-201.615
  0
LINE
  8
0
 10
-73.785
 11
-73.427
 20
-201.615
 21
-201.932
  0
LINE
  8
0
 10
-73.427
 11
-73.257
 20
-201.932
 21
-202.379
  0
LINE
  8
0
 10
-73.257
 11
-73.315
 20
-202.379
 21
-202.855
  0
LINE
  8
0
 10
-73.315
 11
-73.587
 20
-202.855
 21
-203.249
  0
LINE
  8
0
 10
-73.587
 11
-74.011
 20
-203.249
 21
-203.471
  0
LINE
  8
0
 10
-74.011
 11
-74.489
 20
-203.471
 21
-203.471
  0
LINE
  8
0
 10
-74.489
 11
-74.913
 20
-203.471
 21
-203.249
  0
LINE
  8
0
 10
-74.913
 11
-75.185
 20
-203.249
 21
-202.855
  0
LINE
  8
0
 10
-75.185
 11
-75.243
 20
-202.855
 21
-202.379
  0
LINE
  8
0
 10
-75.243
 11
-75.073
 20
202.621
 21
203.068
  0
LINE
  8
0
 10
-75.073
 11
-74.715
 20
203.068
 21
203.385
  0
LINE
  8
0
 10
-74.715
 11
-74.25
 20
203.385
 21
203.5
  0
LINE
  8
0
 10
-74.25
 11
-73.785
 20
203.5
 21
203.385
  0
LINE
  8
0
 10
-73.785
 11
-73.427
 20
203.385
 21
203.068
  0
LINE
  8
0
 10
-73.427
 11
-73.257
 20
203.068
 21
202.621
  0
LINE
  8
0
 10
-73.257
 11
-73.315
 20
202.621
 21
202.145
  0
LINE
  8
0
 10
-73.315
 11
-73.587
 20
202.145
 21
201.751
  0
LINE
  8
0
 10
-73.587
 11
-74.011
 20
201.751
 21
201.529
  0
LINE
  8
0
 10
-74.011
 11
-74.489
 20
201.529
 21
201.529
  0
LINE
  8
0
 10
-74.489
 11
-74.913
 20
201.529
 21
201.751
  0
LINE
  8
0
 10
-74.913
 11
-75.185
 20
201.751
 21
202.145
  0
LINE
  8
0
 10
-75.185
 11
-75.243
 20
202.145
 21
202.621
  0
LINE
  8
0
 10
-39.231
 11
-39.231
 20
188.261
 21
188.739
  0
LINE
  8
0
 10
-39.231
 11
-39.009
 20
188.739
 21
189.163
  0
LINE
  8
0
 10
-39.009
 11
-38.615
 20
189.163
 21
189.435
  0
LINE
  8
0
 10
-38.615
 11
-38.139
 20
189.435
 21
189.493
  0
LINE
  8
0
 10
-38.139
 11
-37.692
 20
189.493
 21
189.323
  0
LINE
  8
0
 10
-37.692
 11
-37.375
 20
189.323
 21
188.965
  0
LINE
  8
0
 10
-37.375
 11
-37.26
 20
188.965
 21
188.5
  0
LINE
  8
0
 10
-37.26
 11
-37.375
 20
188.5
 21
188.035
  0
LINE
  8
0
 10
-37.375
 11
-37.692
 20
188.035
 21
187.677
  0
LINE
  8
0
 10
-37.692
 11
-38.139
 20
187.677
 21
187.507
  0
LINE
  8
0
 10
-38.139
 11
-38.615
 20
187.507
 21
187.565
  0
LINE
  8
0
 10
-38.615
 11
-39.009
 20
187.565
 21
187.837
  0
LINE
  8
0
 10
-39.009
 11
-39.231
 20
187.837
 21
188.261
  0
LINE
  8
0
 10
-28.731
 11
-28.731
 20
98.261
 21
98.739
  0
LINE
  8
0
 10
-28.731
 11
-28.509
 20
98.739
 21
99.163
  0
LINE
  8
0
 10
-28.509
 11
-28.115
 20
99.163
 21
99.435
  0
LINE
  8
0
 10
-28.115
 11
-27.639
 20
99.435
 21
99.493
  0
LINE
  8
0
 10
-27.639
 11
-27.192
 20
99.493
 21
99.323
  0
LINE
  8
0
 10
-27.192
 11
-26.875
 20
99.323
 21
98.965
  0
LINE
  8
0
 10
-26.875
 11
-26.76
 20
98.965
 21
98.5
  0
LINE
  8
0
 10
-26.76
 11
-26.875
 20
98.5
 21
98.035
  0
LINE
  8
0
 10
-26.875
 11
-27.192
 20
98.035
 21
97.677
  0
LINE
  8
0
 10
-27.192
 11
-27.639
 20
97.677
 21
97.507
  0
LINE
  8
0
 10
-27.639
 11
-28.115
 20
97.507
 21
97.565
  0
LINE
  8
0
 10
-28.115
 11
-28.509
 20
97.565
 21
97.837
  0
LINE
  8
0
 10
-28.509
 11
-28.731
 20
97.837
 21
98.261
  0
LINE
  8
0
 10
-20.753
 11
-20.695
 20
-203.621
 21
-203.145
  0
LINE
  8
0
 10
-20.695
 11
-20.423
 20
-203.145
 21
-202.751
  0
LINE
  8
0
 10
-20.423
 11
-19.999
 20
-202.751
 21
-202.529
  0
LINE
  8
0
 10
-19.999
 11
-19.521
 20
-202.529
 21
-202.529
  0
LINE
  8
0
 10
-19.521
 11
-19.097
 20
-202.529
 21
-202.751
  0
LINE
  8
0
 10
-19.097
 11
-18.825
 20
-202.751
 21
-203.145
  0
LINE
  8
0
 10
-18.825
 11
-18.767
 20
-203.145
 21
-203.621
  0
LINE
  8
0
 10
-18.767
 11
-18.937
 20
-203.621
 21
-204.068
  0
LINE
  8
0
 10
-18.937
 11
-19.295
 20
-204.068
 21
-204.385
  0
LINE
  8
0
 10
-19.295
 11
-19.76
 20
-204.385
 21
-204.5
  0
LINE
  8
0
 10
-19.76
 11
-20.225
 20
-204.5
 21
-204.385
  0
LINE
  8
0
 10
-20.225
 11
-20.583
 20
-204.385
 21
-204.068
  0
LINE
  8
0
 10
-20.583
 11
-20.753
 20
-204.068
 21
-203.621
  0
LINE
  8
0
 10
-20.753
 11
-20.695
 20
-140.621
 21
-140.145
  0
LINE
  8
0
 10
-20.695
 11
-20.423
 20
-140.145
 21
-139.751
  0
LINE
  8
0
 10
-20.423
 11
-19.999
 20
-139.751
 21
-139.529
  0
LINE
  8
0
 10
-19.999
 11
-19.521
 20
-139.529
 21
-139.529
  0
LINE
  8
0
 10
-19.521
 11
-19.097
 20
-139.529
 21
-139.751
  0
LINE
  8
0
 10
-19.097
 11
-18.825
 20
-139.751
 21
-140.145
  0
LINE
  8
0
 10
-18.825
 11
-18.767
 20
-140.145
 21
-140.621
  0
LINE
  8
0
 10
-18.767
 11
-18.937
 20
-140.621
 21
-141.068
  0
LINE
  8
0
 10
-18.937
 11
-19.295
 20
-141.068
 21
-141.385
  0
LINE
  8
0
 10
-19.295
 11
-19.76
 20
-141.385
 21
-141.5
  0
LINE
  8
0
 10
-19.76
 11
-20.225
 20
-141.5
 21
-141.385
  0
LINE
  8
0
 10
-20.225
 11
-20.583
 20
-141.385
 21
-141.068
  0
LINE
  8
0
 10
-20.583
 11
-20.753
 20
-141.068
 21
-140.621
  0
LINE
  8
0
 10
9.247
 11
9.305
 20
-203.621
 21
-203.145
  0
LINE
  8
0
 10
9.305
 11
9.577
 20
-203.145
 21
-202.751
  0
LINE
  8
0
 10
9.577
 11
10.001
 20
-202.751
 21
-202.529
  0
LINE
  8
0
 10
10.001
 11
10.479
 20
-202.529
 21
-202.529
  0
LINE
  8
0
 10
10.479
 11
10.903
 20
-202.529
 21
-202.751
  0
LINE
  8
0
 10
10.903
 11
11.175
 20
-202.751
 21
-203.145
  0
LINE
  8
0
 10
11.175
 11
11.233
 20
-203.145
 21
-203.621
  0
LINE
  8
0
 10
11.233
 11
11.063
 20
-203.621
 21
-204.068
  0
LINE
  8
0
 10
11.063
 11
10.705
 20
-204.068
 21
-204.385
  0
LINE
  8
0
 10
10.705
 11
10.24
 20
-204.385
 21
-204.5
  0
LINE
  8
0
 10
10.24
 11
9.775
 20
-204.5
 21
-204.385
  0
LINE
  8
0
 10
9.775
 11
9.417
 20
-204.385
 21
-204.068
  0
LINE
  8
0
 10
9.417
 11
9.247
 20
-204.068
 21
-203.621
  0
LINE
  8
0
 10
9.247
 11
9.305
 20
-140.621
 21
-140.145
  0
LINE
  8
0
 10
9.305
 11
9.577
 20
-140.145
 21
-139.751
  0
LINE
  8
0
 10
9.577
 11
10.001
 20
-139.751
 21
-139.529
  0
LINE
  8
0
 10
10.001
 11
10.479
 20
-139.529
 21
-139.529
  0
LINE
  8
0
 10
10.479
 11
10.903
 20
-139.529
 21
-139.751
  0
LINE
  8
0
 10
10.903
 11
11.175
 20
-139.751
 21
-140.145
  0
LINE
  8
0
 10
11.175
 11
11.233
 20
-140.145
 21
-140.621
  0
LINE
  8
0
 10
11.233
 11
11.063
 20
-140.621
 21
-141.068
  0
LINE
  8
0
 10
11.063
 11
10.705
 20
-141.068
 21
-141.385
  0
LINE
  8
0
 10
10.705
 11
10.24
 20
-141.385
 21
-141.5
  0
LINE
  8
0
 10
10.24
 11
9.775
 20
-141.5
 21
-141.385
  0
LINE
  8
0
 10
9.775
 11
9.417
 20
-141.385
 21
-141.068
  0
LINE
  8
0
 10
9.417
 11
9.247
 20
-141.068
 21
-140.621
  0
LINE
  8
0
 10
13.289
 11
13.289
 20
98.261
 21
98.739
  0
LINE
  8
0
 10
13.289
 11
13.511
 20
98.739
 21
99.163
  0
LINE
  8
0
 10
13.511
 11
13.905
 20
99.163
 21
99.435
  0
LINE
  8
0
 10
13.905
 11
14.381
 20
99.435
 21
99.493
  0
LINE
  8
0
 10
14.381
 11
14.828
 20
99.493
 21
99.323
  0
LINE
  8
0
 10
14.828
 11
15.145
 20
99.323
 21
98.965
  0
LINE
  8
0
 10
15.145
 11
15.26
 20
98.965
 21
98.5
  0
LINE
  8
0
 10
15.26
 11
15.145
 20
98.5
 21
98.035
  0
LINE
  8
0
 10
15.145
 11
14.828
 20
98.035
 21
97.677
  0
LINE
  8
0
 10
14.828
 11
14.381
 20
97.677
 21
97.507
  0
LINE
  8
0
 10
14.381
 11
13.905
 20
97.507
 21
97.565
  0
LINE
  8
0
 10
13.905
 11
13.511
 20
97.565
 21
97.837
  0
LINE
  8
0
 10
13.511
 11
13.289
 20
97.837
 21
98.261
  0
LINE
  8
0
 10
19.007
 11
19.065
 20
139.679
 21
140.155
  0
LINE
  8
0
 10
19.065
 11
19.337
 20
140.155
 21
140.549
  0
LINE
  8
0
 10
19.337
 11
19.761
 20
140.549
 21
140.771
  0
LINE
  8
0
 10
19.761
 11
20.239
 20
140.771
 21
140.771
  0
LINE
  8
0
 10
20.239
 11
20.663
 20
140.771
 21
140.549
  0
LINE
  8
0
 10
20.663
 11
20.935
 20
140.549
 21
140.155
  0
LINE
  8
0
 10
20.935
 11
20.993
 20
140.155
 21
139.679
  0
LINE
  8
0
 10
20.993
 11
20.823
 20
139.679
 21
139.232
  0
LINE
  8
0
 10
20.823
 11
20.465
 20
139.232
 21
138.915
  0
LINE
  8
0
 10
20.465
 11
20
 20
138.915
 21
138.8
  0
LINE
  8
0
 10
20
 11
19.535
 20
138.8
 21
138.915
  0
LINE
  8
0
 10
19.535
 11
19.177
 20
138.915
 21
139.232
  0
LINE
  8
0
 10
19.177
 11
19.007
 20
139.232
 21
139.679
  0
LINE
  8
0
 10
59.757
 11
59.815
 20
-134.121
 21
-133.645
  0
LINE
  8
0
 10
59.815
 11
60.087
 20
-133.645
 21
-133.251
  0
LINE
  8
0
 10
60.087
 11
60.511
 20
-133.251
 21
-133.029
  0
LINE
  8
0
 10
60.511
 11
60.989
 20
-133.029
 21
-133.029
  0
LINE
  8
0
 10
60.989
 11
61.413
 20
-133.029
 21
-133.251
  0
LINE
  8
0
 10
61.413
 11
61.685
 20
-133.251
 21
-133.645
  0
LINE
  8
0
 10
61.685
 11
61.743
 20
-133.645
 21
-134.121
  0
LINE
  8
0
 10
61.743
 11
61.573
 20
-134.121
 21
-134.568
  0
LINE
  8
0
 10
61.573
 11
61.215
 20
-134.568
 21
-134.885
  0
LINE
  8
0
 10
61.215
 11
60.75
 20
-134.885
 21
-135
  0
LINE
  8
0
 10
60.75
 11
60.285
 20
-135
 21
-134.885
  0
LINE
  8
0
 10
60.285
 11
59.927
 20
-134.885
 21
-134.568
  0
LINE
  8
0
 10
59.927
 11
59.757
 20
-134.568
 21
-134.121
  0
LINE
  8
0
 10
59.757
 11
59.815
 20
123.879
 21
124.355
  0
LINE
  8
0
 10
59.815
 11
60.087
 20
124.355
 21
124.749
  0
LINE
  8
0
 10
60.087
 11
60.511
 20
124.749
 21
124.971
  0
LINE
  8
0
 10
60.511
 11
60.989
 20
124.971
 21
124.971
  0
LINE
  8
0
 10
60.989
 11
61.413
 20
124.971
 21
124.749
  0
LINE
  8
0
 10
61.413
 11
61.685
 20
124.749
 21
124.355
  0
LINE
  8
0
 10
61.685
 11
61.743
 20
124.355
 21
123.879
  0
LINE
  8
0
 10
61.743
 11
61.573
 20
123.879
 21
123.432
  0
LINE
  8
0
 10
61.573
 11
61.215
 20
123.432
 21
123.115
  0
LINE
  8
0
 10
61.215
 11
60.75
 20
123.115
 21
123
  0
LINE
  8
0
 10
60.75
 11
60.285
 20
123
 21
123.115
  0
LINE
  8
0
 10
60.285
 11
59.927
 20
123.115
 21
123.432
  0
LINE
  8
0
 10
59.927
 11
59.757
 20
123.432
 21
123.879
  0
LINE
  8
0
 10
92.757
 11
92.815
 20
-134.121
 21
-133.645
  0
LINE
  8
0
 10
92.815
 11
93.087
 20
-133.645
 21
-133.251
  0
LINE
  8
0
 10
93.087
 11
93.511
 20
-133.251
 21
-133.029
  0
LINE
  8
0
 10
93.511
 11
93.989
 20
-133.029
 21
-133.029
  0
LINE
  8
0
 10
93.989
 11
94.413
 20
-133.029
 21
-133.251
  0
LINE
  8
0
 10
94.413
 11
94.685
 20
-133.251
 21
-133.645
  0
LINE
  8
0
 10
94.685
 11
94.743
 20
-133.645
 21
-134.121
  0
LINE
  8
0
 10
94.743
 11
94.573
 20
-134.121
 21
-134.568
  0
LINE
  8
0
 10
94.573
 11
94.215
 20
-134.568
 21
-134.885
  0
LINE
  8
0
 10
94.215
 11
93.75
 20
-134.885
 21
-135
  0
LINE
  8
0
 10
93.75
 11
93.285
 20
-135
 21
-134.885
  0
LINE
  8
0
 10
93.285
 11
92.927
 20
-134.885
 21
-134.568
  0
LINE
  8
0
 10
92.927
 11
92.757
 20
-134.568
 21
-134.121
  0
LINE
  8
0
 10
92.757
 11
92.815
 20
123.879
 21
124.355
  0
LINE
  8
0
 10
92.815
 11
93.087
 20
124.355
 21
124.749
  0
LINE
  8
0
 10
93.087
 11
93.511
 20
124.749
 21
124.971
  0
LINE
  8
0
 10
93.511
 11
93.989
 20
124.971
 21
124.971
  0
LINE
  8
0
 10
93.989
 11
94.413
 20
124.971
 21
124.749
  0
LINE
  8
0
 10
94.413
 11
94.685
 20
124.749
 21
124.355
  0
LINE
  8
0
 10
94.685
 11
94.743
 20
124.355
 21
123.879
  0
LINE
  8
0
 10
94.743
 11
94.573
 20
123.879
 21
123.432
  0
LINE
  8
0
 10
94.573
 11
94.215
 20
123.432
 21
123.115
  0
LINE
  8
0
 10
94.215
 11
93.75
 20
123.115
 21
123
  0
LINE
  8
0
 10
93.75
 11
93.285
 20
123
 21
123.115
  0
LINE
  8
0
 10
93.285
 11
92.927
 20
123.115
 21
123.432
  0
LINE
  8
0
 10
92.927
 11
92.757
 20
123.432
 21
123.879
  0
LINE
  8
0
 10
108.479
 11
108.479
 20
-115.739
 21
-115.261
  0
LINE
  8
0
 10
108.479
 11
108.701
 20
-115.261
 21
-114.837
  0
LINE
  8
0
 10
108.701
 11
109.095
 20
-114.837
 21
-114.565
  0
LINE
  8
0
 10
109.095
 11
109.571
 20
-114.565
 21
-114.507
  0
LINE
  8
0
 10
109.571
 11
110.018
 20
-114.507
 21
-114.677
  0
LINE
  8
0
 10
110.018
 11
110.335
 20
-114.677
 21
-115.035
  0
LINE
  8
0
 10
110.335
 11
110.45
 20
-115.035
 21
-115.5
  0
LINE
  8
0
 10
110.45
 11
110.335
 20
-115.5
 21
-115.965
  0
LINE
  8
0
 10
110.335
 11
110.018
 20
-115.965
 21
-116.323
  0
LINE
  8
0
 10
110.018
 11
109.571
 20
-116.323
 21
-116.493
  0
LINE
  8
0
 10
109.571
 11
109.095
 20
-116.493
 21
-116.435
  0
LINE
  8
0
 10
109.095
 11
108.701
 20
-116.435
 21
-116.163
  0
LINE
  8
0
 10
108.701
 11
108.479
 20
-116.163
 21
-115.739
  0
LINE
  8
0
 10
108.479
 11
108.479
 20
63.661
 21
64.139
  0
LINE
  8
0
 10
108.479
 11
108.701
 20
64.139
 21
64.563
  0
LINE
  8
0
 10
108.701
 11
109.095
 20
64.563
 21
64.835
  0
LINE
  8
0
 10
109.095
 11
109.571
 20
64.835
 21
64.893
  0
LINE
  8
0
 10
109.571
 11
110.018
 20
64.893
 21
64.723
  0
LINE
  8
0
 10
110.018
 11
110.335
 20
64.723
 21
64.365
  0
LINE
  8
0
 10
110.335
 11
110.45
 20
64.365
 21
63.9
  0
LINE
  8
0
 10
110.45
 11
110.335
 20
63.9
 21
63.435
  0
LINE
  8
0
 10
110.335
 11
110.018
 20
63.435
 21
63.077
  0
LINE
  8
0
 10
110.018
 11
109.571
 20
63.077
 21
62.907
  0
LINE
  8
0
 10
109.571
 11
109.095
 20
62.907
 21
62.965
  0
LINE
  8
0
 10
109.095
 11
108.701
 20
62.965
 21
63.237
  0
LINE
  8
0
 10
108.701
 11
108.479
 20
63.237
 21
63.661
  0
LINE
  8
0
 10
127.457
 11
127.627
 20
190.811
 21
191.258
  0
LINE
  8
0
 10
127.627
 11
127.985
 20
191.258
 21
191.575
  0
LINE
  8
0
 10
127.985
 11
128.45
 20
191.575
 21
191.69
  0
LINE
  8
0
 10
128.45
 11
128.915
 20
191.69
 21
191.575
  0
LINE
  8
0
 10
128.915
 11
129.273
 20
191.575
 21
191.258
  0
LINE
  8
0
 10
129.273
 11
129.443
 20
191.258
 21
190.811
  0
LINE
  8
0
 10
129.443
 11
129.385
 20
190.811
 21
190.335
  0
LINE
  8
0
 10
129.385
 11
129.113
 20
190.335
 21
189.941
  0
LINE
  8
0
 10
129.113
 11
128.689
 20
189.941
 21
189.719
  0
LINE
  8
0
 10
128.689
 11
128.211
 20
189.719
 21
189.719
  0
LINE
  8
0
 10
128.211
 11
127.787
 20
189.719
 21
189.941
  0
LINE
  8
0
 10
127.787
 11
127.515
 20
189.941
 21
190.335
  0
LINE
  8
0
 10
127.515
 11
127.457
 20
190.335
 21
190.811
  0
LINE
  8
0
 10
154.258
 11
154.258
 20
-0.246
 21
0.246
  0
LINE
  8
0
 10
154.258
 11
154.318
 20
0.246
 21
0.735
  0
LINE
  8
0
 10
154.318
 11
154.438
 20
0.735
 21
1.213
  0
LINE
  8
0
 10
154.438
 11
154.616
 20
1.213
 21
1.672
  0
LINE
  8
0
 10
154.616
 11
154.849
 20
1.672
 21
2.106
  0
LINE
  8
0
 10
154.849
 11
155.134
 20
2.106
 21
2.508
  0
LINE
  8
0
 10
155.134
 11
155.465
 20
2.508
 21
2.872
  0
LINE
  8
0
 10
155.465
 11
155.839
 20
2.872
 21
3.192
  0
LINE
  8
0
 10
155.839
 11
156.25
 20
3.192
 21
3.464
  0
LINE
  8
0
 10
156.25
 11
156.691
 20
3.464
 21
3.684
  0
LINE
  8
0
 10
156.691
 11
157.155
 20
3.684
 21
3.847
  0
LINE
  8
0
 10
157.155
 11
157.636
 20
3.847
 21
3.953
  0
LINE
  8
0
 10
157.636
 11
158.127
 20
3.953
 21
3.998
  0
LINE
  8
0
 10
158.127
 11
158.619
 20
3.998
 21
3.983
  0
LINE
  8
0
 10
158.619
 11
159.106
 20
3.983
 21
3.907
  0
LINE
  8
0
 10
159.106
 11
159.579
 20
3.907
 21
3.773
  0
LINE
  8
0
 10
159.579
 11
160.033
 20
3.773
 21
3.581
  0
LINE
  8
0
 10
160.033
 11
160.459
 20
3.581
 21
3.334
  0
LINE
  8
0
 10
160.459
 11
160.852
 20
3.334
 21
3.038
  0
LINE
  8
0
 10
160.852
 11
161.206
 20
3.038
 21
2.695
  0
LINE
  8
0
 10
161.206
 11
161.515
 20
2.695
 21
2.311
  0
LINE
  8
0
 10
161.515
 11
161.774
 20
2.311
 21
1.892
  0
LINE
  8
0
 10
161.774
 11
161.98
 20
1.892
 21
1.445
  0
LINE
  8
0
 10
161.98
 11
162.129
 20
1.445
 21
0.976
  0
LINE
  8
0
 10
162.129
 11
162.22
 20
0.976
 21
0.492
  0
LINE
  8
0
 10
162.22
 11
162.25
 20
0.492
 21
0
  0
LINE
  8
0
 10
162.25
 11
162.22
 20
0
 21
-0.492
  0
LINE
  8
0
 10
162.22
 11
162.129
 20
-0.492
 21
-0.976
  0
LINE
  8
0
 10
162.129
 11
161.98
 20
-0.976
 21
-1.445
  0
LINE
  8
0
 10
161.98
 11
161.774
 20
-1.445
 21
-1.892
  0
LINE
  8
0
 10
161.774
 11
161.515
 20
-1.892
 21
-2.311
  0
LINE
  8
0
 10
161.515
 11
161.206
 20
-2.311
 21
-2.695
  0
LINE
  8
0
 10
161.206
 11
160.852
 20
-2.695
 21
-3.038
  0
LINE
  8
0
 10
160.852
 11
160.459
 20
-3.038
 21
-3.334
  0
LINE
  8
0
 10
160.459
 11
160.033
 20
-3.334
 21
-3.581
  0
LINE
  8
0
 10
160.033
 11
159.579
 20
-3.581
 21
-3.773
  0
LINE
  8
0
 10
159.579
 11
159.106
 20
-3.773
 21
-3.907
  0
LINE
  8
0
 10
159.106
 11
158.619
 20
-3.907
 21
-3.983
  0
LINE
  8
0
 10
158.619
 11
158.127
 20
-3.983
 21
-3.998
  0
LINE
  8
0
 10
158.127
 11
157.636
 20
-3.998
 21
-3.953
  0
LINE
  8
0
 10
157.636
 11
157.155
 20
-3.953
 21
-3.847
  0
LINE
  8
0
 10
157.155
 11
156.691
 20
-3.847
 21
-3.684
  0
LINE
  8
0
 10
156.691
 11
156.25
 20
-3.684
 21
-3.464
  0
LINE
  8
0
 10
156.25
 11
155.839
 20
-3.464
 21
-3.192
  0
LINE
  8
0
 10
155.839
 11
155.465
 20
-3.192
 21
-2.872
  0
LINE
  8
0
 10
155.465
 11
155.134
 20
-2.872
 21
-2.508
  0
LINE
  8
0
 10
155.134
 11
154.849
 20
-2.508
 21
-2.106
  0
LINE
  8
0
 10
154.849
 11
154.616
 20
-2.106
 21
-1.672
  0
LINE
  8
0
 10
154.616
 11
154.438
 20
-1.672
 21
-1.213
  0
LINE
  8
0
 10
154.438
 11
154.318
 20
-1.213
 21
-0.735
  0
LINE
  8
0
 10
154.318
 11
154.258
 20
-0.735
 21
-0.246
  0
LINE
  8
0
 10
167.989
 11
167.989
 20
60.461
 21
60.939
  0
LINE
  8
0
 10
167.989
 11
168.211
 20
60.939
 21
61.363
  0
LINE
  8
0
 10
168.211
 11
168.605
 20
61.363
 21
61.635
  0
LINE
  8
0
 10
168.605
 11
169.081
 20
61.635
 21
61.693
  0
LINE
  8
0
 10
169.081
 11
169.528
 20
61.693
 21
61.523
  0
LINE
  8
0
 10
169.528
 11
169.845
 20
61.523
 21
61.165
  0
LINE
  8
0
 10
169.845
 11
169.96
 20
61.165
 21
60.7
  0
LINE
  8
0
 10
169.96
 11
169.845
 20
60.7
 21
60.235
  0
LINE
  8
0
 10
169.845
 11
169.528
 20
60.235
 21
59.877
  0
LINE
  8
0
 10
169.528
 11
169.081
 20
59.877
 21
59.707
  0
LINE
  8
0
 10
169.081
 11
168.605
 20
59.707
 21
59.765
  0
LINE
  8
0
 10
168.605
 11
168.211
 20
59.765
 21
60.037
  0
LINE
  8
0
 10
168.211
 11
167.989
 20
60.037
 21
60.461
  0
LINE
  8
0
 10
213.969
 11
213.969
 20
60.461
 21
60.939
  0
LINE
  8
0
 10
213.969
 11
214.191
 20
60.939
 21
61.363
  0
LINE
  8
0
 10
214.191
 11
214.585
 20
61.363
 21
61.635
  0
LINE
  8
0
 10
214.585
 11
215.061
 20
61.635
 21
61.693
  0
LINE
  8
0
 10
215.061
 11
215.508
 20
61.693
 21
61.523
  0
LINE
  8
0
 10
215.508
 11
215.825
 20
61.523
 21
61.165
  0
LINE
  8
0
 10
215.825
 11
215.94
 20
61.165
 21
60.7
  0
LINE
  8
0
 10
215.94
 11
215.825
 20
60.7
 21
60.235
  0
LINE
  8
0
 10
215.825
 11
215.508
 20
60.235
 21
59.877
  0
LINE
  8
0
 10
215.508
 11
215.061
 20
59.877
 21
59.707
  0
LINE
  8
0
 10
215.061
 11
214.585
 20
59.707
 21
59.765
  0
LINE
  8
0
 10
214.585
 11
214.191
 20
59.765
 21
60.037
  0
LINE
  8
0
 10
214.191
 11
213.969
 20
60.037
 21
60.461
  0
LINE
  8
0
 10
229.557
 11
229.615
 20
79.779
 21
80.255
  0
LINE
  8
0
 10
229.615
 11
229.887
 20
80.255
 21
80.649
  0
LINE
  8
0
 10
229.887
 11
230.311
 20
80.649
 21
80.871
  0
LINE
  8
0
 10
230.311
 11
230.789
 20
80.871
 21
80.871
  0
LINE
  8
0
 10
230.789
 11
231.213
 20
80.871
 21
80.649
  0
LINE
  8
0
 10
231.213
 11
231.485
 20
80.649
 21
80.255
  0
LINE
  8
0
 10
231.485
 11
231.543
 20
80.255
 21
79.779
  0
LINE
  8
0
 10
231.543
 11
231.373
 20
79.779
 21
79.332
  0
LINE
  8
0
 10
231.373
 11
231.015
 20
79.332
 21
79.015
  0
LINE
  8
0
 10
231.015
 11
230.55
 20
79.015
 21
78.9
  0
LINE
  8
0
 10
230.55
 11
230.085
 20
78.9
 21
79.015
  0
LINE
  8
0
 10
230.085
 11
229.727
 20
79.015
 21
79.332
  0
LINE
  8
0
 10
229.727
 11
229.557
 20
79.332
 21
79.779
  0
ENDSEC
  0
SECTION
  2
OBJECTS
  0
DICTIONARY
  0
ENDSEC
  0
EOF
