  0
SECTION
  2
BLOCKS
  0
ENDSEC
  0
SECTION
  2
ENTITIES
  0
LINE
  8
0
 10
-235.25
 11
-235.25
 20
0
 21
389
  0
LINE
  8
0
 10
-235.25
 11
235.25
 20
389
 21
389
  0
LINE
  8
0
 10
235.25
 11
235.25
 20
389
 21
0
  0
LINE
  8
0
 10
235.25
 11
118.25
 20
0
 21
0
  0
LINE
  8
0
 10
118.25
 11
118.25
 20
0
 21
281.1
  0
LINE
  8
0
 10
118.25
 11
118.225
 20
281.1
 21
281.598
  0
LINE
  8
0
 10
118.225
 11
118.151
 20
281.598
 21
282.091
  0
LINE
  8
0
 10
118.151
 11
118.028
 20
282.091
 21
282.574
  0
LINE
  8
0
 10
118.028
 11
117.857
 20
282.574
 21
283.042
  0
LINE
  8
0
 10
117.857
 11
117.641
 20
283.042
 21
283.491
  0
LINE
  8
0
 10
117.641
 11
117.381
 20
283.491
 21
283.917
  0
LINE
  8
0
 10
117.381
 11
117.08
 20
283.917
 21
284.314
  0
LINE
  8
0
 10
117.08
 11
116.741
 20
284.314
 21
284.679
  0
LINE
  8
0
 10
116.741
 11
116.367
 20
284.679
 21
285.009
  0
LINE
  8
0
 10
116.367
 11
115.963
 20
285.009
 21
285.3
  0
LINE
  8
0
 10
115.963
 11
115.531
 20
285.3
 21
285.549
  0
LINE
  8
0
 10
115.531
 11
115.077
 20
285.549
 21
285.754
  0
LINE
  8
0
 10
115.077
 11
114.604
 20
285.754
 21
285.913
  0
LINE
  8
0
 10
114.604
 11
114.118
 20
285.913
 21
286.024
  0
LINE
  8
0
 10
114.118
 11
113.624
 20
286.024
 21
286.086
  0
LINE
  8
0
 10
113.624
 11
113.25
 20
286.086
 21
286.095
  0
LINE
  8
0
 10
113.25
 11
113.25
 20
286.095
 21
286.1
  0
LINE
  8
0
 10
113.25
 11
-126.75
 20
286.1
 21
286.1
  0
LINE
  8
0
 10
-126.75
 11
-126.75
 20
286.1
 21
286.095
  0
LINE
  8
0
 10
-126.75
 11
-126.875
 20
286.095
 21
286.098
  0
LINE
  8
0
 10
-126.875
 11
-127.372
 20
286.098
 21
286.061
  0
LINE
  8
0
 10
-127.372
 11
-127.863
 20
286.061
 21
285.975
  0
LINE
  8
0
 10
-127.863
 11
-128.342
 20
285.975
 21
285.84
  0
LINE
  8
0
 10
-128.342
 11
-128.806
 20
285.84
 21
285.658
  0
LINE
  8
0
 10
-128.806
 11
-129.25
 20
285.658
 21
285.43
  0
LINE
  8
0
 10
-129.25
 11
-129.669
 20
285.43
 21
285.16
  0
LINE
  8
0
 10
-129.669
 11
-130.058
 20
285.16
 21
284.849
  0
LINE
  8
0
 10
-130.058
 11
-130.415
 20
284.849
 21
284.501
  0
LINE
  8
0
 10
-130.415
 11
-130.736
 20
284.501
 21
284.119
  0
LINE
  8
0
 10
-130.736
 11
-131.016
 20
284.119
 21
283.707
  0
LINE
  8
0
 10
-131.016
 11
-131.255
 20
283.707
 21
283.269
  0
LINE
  8
0
 10
-131.255
 11
-131.448
 20
283.269
 21
282.81
  0
LINE
  8
0
 10
-131.448
 11
-131.595
 20
282.81
 21
282.334
  0
LINE
  8
0
 10
-131.595
 11
-131.694
 20
282.334
 21
281.845
  0
LINE
  8
0
 10
-131.694
 11
-131.744
 20
281.845
 21
281.349
  0
LINE
  8
0
 10
-131.744
 11
-131.744
 20
281.349
 21
281.1
  0
LINE
  8
0
 10
-131.744
 11
-131.75
 20
281.1
 21
281.1
  0
LINE
  8
0
 10
-131.75
 11
-131.75
 20
281.1
 21
0
  0
LINE
  8
0
 10
-131.75
 11
-235.25
 20
0
 21
0
  0
LINE
  8
0
 10
-228.721
 11
-228.721
 20
112.861
 21
113.339
  0
LINE
  8
0
 10
-228.721
 11
-228.499
 20
113.339
 21
113.763
  0
LINE
  8
0
 10
-228.499
 11
-228.105
 20
113.763
 21
114.035
  0
LINE
  8
0
 10
-228.105
 11
-227.629
 20
114.035
 21
114.093
  0
LINE
  8
0
 10
-227.629
 11
-227.182
 20
114.093
 21
113.923
  0
LINE
  8
0
 10
-227.182
 11
-226.865
 20
113.923
 21
113.565
  0
LINE
  8
0
 10
-226.865
 11
-226.75
 20
113.565
 21
113.1
  0
LINE
  8
0
 10
-226.75
 11
-226.865
 20
113.1
 21
112.635
  0
LINE
  8
0
 10
-226.865
 11
-227.182
 20
112.635
 21
112.277
  0
LINE
  8
0
 10
-227.182
 11
-227.629
 20
112.277
 21
112.107
  0
LINE
  8
0
 10
-227.629
 11
-228.105
 20
112.107
 21
112.165
  0
LINE
  8
0
 10
-228.105
 11
-228.499
 20
112.165
 21
112.437
  0
LINE
  8
0
 10
-228.499
 11
-228.721
 20
112.437
 21
112.861
  0
LINE
  8
0
 10
-228.721
 11
-228.721
 20
154.261
 21
154.739
  0
LINE
  8
0
 10
-228.721
 11
-228.499
 20
154.739
 21
155.163
  0
LINE
  8
0
 10
-228.499
 11
-228.105
 20
155.163
 21
155.435
  0
LINE
  8
0
 10
-228.105
 11
-227.629
 20
155.435
 21
155.493
  0
LINE
  8
0
 10
-227.629
 11
-227.182
 20
155.493
 21
155.323
  0
LINE
  8
0
 10
-227.182
 11
-226.865
 20
155.323
 21
154.965
  0
LINE
  8
0
 10
-226.865
 11
-226.75
 20
154.965
 21
154.5
  0
LINE
  8
0
 10
-226.75
 11
-226.865
 20
154.5
 21
154.035
  0
LINE
  8
0
 10
-226.865
 11
-227.182
 20
154.035
 21
153.677
  0
LINE
  8
0
 10
-227.182
 11
-227.629
 20
153.677
 21
153.507
  0
LINE
  8
0
 10
-227.629
 11
-228.105
 20
153.507
 21
153.565
  0
LINE
  8
0
 10
-228.105
 11
-228.499
 20
153.565
 21
153.837
  0
LINE
  8
0
 10
-228.499
 11
-228.721
 20
153.837
 21
154.261
  0
LINE
  8
0
 10
-226.55
 11
-226.435
 20
8.2
 21
8.665
  0
LINE
  8
0
 10
-226.435
 11
-226.118
 20
8.665
 21
9.023
  0
LINE
  8
0
 10
-226.118
 11
-225.671
 20
9.023
 21
9.193
  0
LINE
  8
0
 10
-225.671
 11
-225.195
 20
9.193
 21
9.135
  0
LINE
  8
0
 10
-225.195
 11
-224.801
 20
9.135
 21
8.863
  0
LINE
  8
0
 10
-224.801
 11
-224.579
 20
8.863
 21
8.439
  0
LINE
  8
0
 10
-224.579
 11
-224.579
 20
8.439
 21
7.961
  0
LINE
  8
0
 10
-224.579
 11
-224.801
 20
7.961
 21
7.537
  0
LINE
  8
0
 10
-224.801
 11
-225.195
 20
7.537
 21
7.265
  0
LINE
  8
0
 10
-225.195
 11
-225.671
 20
7.265
 21
7.207
  0
LINE
  8
0
 10
-225.671
 11
-226.118
 20
7.207
 21
7.377
  0
LINE
  8
0
 10
-226.118
 11
-226.435
 20
7.377
 21
7.735
  0
LINE
  8
0
 10
-226.435
 11
-226.55
 20
7.735
 21
8.2
  0
LINE
  8
0
 10
-219.721
 11
-219.721
 20
60.761
 21
61.239
  0
LINE
  8
0
 10
-219.721
 11
-219.499
 20
61.239
 21
61.663
  0
LINE
  8
0
 10
-219.499
 11
-219.105
 20
61.663
 21
61.935
  0
LINE
  8
0
 10
-219.105
 11
-218.629
 20
61.935
 21
61.993
  0
LINE
  8
0
 10
-218.629
 11
-218.182
 20
61.993
 21
61.823
  0
LINE
  8
0
 10
-218.182
 11
-217.865
 20
61.823
 21
61.465
  0
LINE
  8
0
 10
-217.865
 11
-217.75
 20
61.465
 21
61
  0
LINE
  8
0
 10
-217.75
 11
-217.865
 20
61
 21
60.535
  0
LINE
  8
0
 10
-217.865
 11
-218.182
 20
60.535
 21
60.177
  0
LINE
  8
0
 10
-218.182
 11
-218.629
 20
60.177
 21
60.007
  0
LINE
  8
0
 10
-218.629
 11
-219.105
 20
60.007
 21
60.065
  0
LINE
  8
0
 10
-219.105
 11
-219.499
 20
60.065
 21
60.337
  0
LINE
  8
0
 10
-219.499
 11
-219.721
 20
60.337
 21
60.761
  0
LINE
  8
0
 10
-205.33
 11
-205.215
 20
8.2
 21
8.665
  0
LINE
  8
0
 10
-205.215
 11
-204.898
 20
8.665
 21
9.023
  0
LINE
  8
0
 10
-204.898
 11
-204.451
 20
9.023
 21
9.193
  0
LINE
  8
0
 10
-204.451
 11
-203.975
 20
9.193
 21
9.135
  0
LINE
  8
0
 10
-203.975
 11
-203.581
 20
9.135
 21
8.863
  0
LINE
  8
0
 10
-203.581
 11
-203.359
 20
8.863
 21
8.439
  0
LINE
  8
0
 10
-203.359
 11
-203.359
 20
8.439
 21
7.961
  0
LINE
  8
0
 10
-203.359
 11
-203.581
 20
7.961
 21
7.537
  0
LINE
  8
0
 10
-203.581
 11
-203.975
 20
7.537
 21
7.265
  0
LINE
  8
0
 10
-203.975
 11
-204.451
 20
7.265
 21
7.207
  0
LINE
  8
0
 10
-204.451
 11
-204.898
 20
7.207
 21
7.377
  0
LINE
  8
0
 10
-204.898
 11
-205.215
 20
7.377
 21
7.735
  0
LINE
  8
0
 10
-205.215
 11
-205.33
 20
7.735
 21
8.2
  0
LINE
  8
0
 10
-202.75
 11
-202.692
 20
73
 21
73.479
  0
LINE
  8
0
 10
-202.692
 11
-202.521
 20
73.479
 21
73.929
  0
LINE
  8
0
 10
-202.521
 11
-202.247
 20
73.929
 21
74.326
  0
LINE
  8
0
 10
-202.247
 11
-201.886
 20
74.326
 21
74.646
  0
LINE
  8
0
 10
-201.886
 11
-201.459
 20
74.646
 21
74.87
  0
LINE
  8
0
 10
-201.459
 11
-200.991
 20
74.87
 21
74.985
  0
LINE
  8
0
 10
-200.991
 11
-200.509
 20
74.985
 21
74.985
  0
LINE
  8
0
 10
-200.509
 11
-200.041
 20
74.985
 21
74.87
  0
LINE
  8
0
 10
-200.041
 11
-199.614
 20
74.87
 21
74.646
  0
LINE
  8
0
 10
-199.614
 11
-199.253
 20
74.646
 21
74.326
  0
LINE
  8
0
 10
-199.253
 11
-198.979
 20
74.326
 21
73.929
  0
LINE
  8
0
 10
-198.979
 11
-198.808
 20
73.929
 21
73.479
  0
LINE
  8
0
 10
-198.808
 11
-198.75
 20
73.479
 21
73
  0
LINE
  8
0
 10
-198.75
 11
-198.808
 20
73
 21
72.521
  0
LINE
  8
0
 10
-198.808
 11
-198.979
 20
72.521
 21
72.071
  0
LINE
  8
0
 10
-198.979
 11
-199.253
 20
72.071
 21
71.674
  0
LINE
  8
0
 10
-199.253
 11
-199.614
 20
71.674
 21
71.354
  0
LINE
  8
0
 10
-199.614
 11
-200.041
 20
71.354
 21
71.13
  0
LINE
  8
0
 10
-200.041
 11
-200.509
 20
71.13
 21
71.015
  0
LINE
  8
0
 10
-200.509
 11
-200.991
 20
71.015
 21
71.015
  0
LINE
  8
0
 10
-200.991
 11
-201.459
 20
71.015
 21
71.13
  0
LINE
  8
0
 10
-201.459
 11
-201.886
 20
71.13
 21
71.354
  0
LINE
  8
0
 10
-201.886
 11
-202.247
 20
71.354
 21
71.674
  0
LINE
  8
0
 10
-202.247
 11
-202.521
 20
71.674
 21
72.071
  0
LINE
  8
0
 10
-202.521
 11
-202.692
 20
72.071
 21
72.521
  0
LINE
  8
0
 10
-202.692
 11
-202.75
 20
72.521
 21
73
  0
LINE
  8
0
 10
-196.75
 11
-196.692
 20
370
 21
370.479
  0
LINE
  8
0
 10
-196.692
 11
-196.521
 20
370.479
 21
370.929
  0
LINE
  8
0
 10
-196.521
 11
-196.247
 20
370.929
 21
371.326
  0
LINE
  8
0
 10
-196.247
 11
-195.886
 20
371.326
 21
371.646
  0
LINE
  8
0
 10
-195.886
 11
-195.459
 20
371.646
 21
371.87
  0
LINE
  8
0
 10
-195.459
 11
-194.991
 20
371.87
 21
371.985
  0
LINE
  8
0
 10
-194.991
 11
-194.509
 20
371.985
 21
371.985
  0
LINE
  8
0
 10
-194.509
 11
-194.041
 20
371.985
 21
371.87
  0
LINE
  8
0
 10
-194.041
 11
-193.614
 20
371.87
 21
371.646
  0
LINE
  8
0
 10
-193.614
 11
-193.253
 20
371.646
 21
371.326
  0
LINE
  8
0
 10
-193.253
 11
-192.979
 20
371.326
 21
370.929
  0
LINE
  8
0
 10
-192.979
 11
-192.808
 20
370.929
 21
370.479
  0
LINE
  8
0
 10
-192.808
 11
-192.75
 20
370.479
 21
370
  0
LINE
  8
0
 10
-192.75
 11
-192.808
 20
370
 21
369.521
  0
LINE
  8
0
 10
-192.808
 11
-192.979
 20
369.521
 21
369.071
  0
LINE
  8
0
 10
-192.979
 11
-193.253
 20
369.071
 21
368.674
  0
LINE
  8
0
 10
-193.253
 11
-193.614
 20
368.674
 21
368.354
  0
LINE
  8
0
 10
-193.614
 11
-194.041
 20
368.354
 21
368.13
  0
LINE
  8
0
 10
-194.041
 11
-194.509
 20
368.13
 21
368.015
  0
LINE
  8
0
 10
-194.509
 11
-194.991
 20
368.015
 21
368.015
  0
LINE
  8
0
 10
-194.991
 11
-195.459
 20
368.015
 21
368.13
  0
LINE
  8
0
 10
-195.459
 11
-195.886
 20
368.13
 21
368.354
  0
LINE
  8
0
 10
-195.886
 11
-196.247
 20
368.354
 21
368.674
  0
LINE
  8
0
 10
-196.247
 11
-196.521
 20
368.674
 21
369.071
  0
LINE
  8
0
 10
-196.521
 11
-196.692
 20
369.071
 21
369.521
  0
LINE
  8
0
 10
-196.692
 11
-196.75
 20
369.521
 21
370
  0
LINE
  8
0
 10
-195.743
 11
-195.685
 20
380.379
 21
380.855
  0
LINE
  8
0
 10
-195.685
 11
-195.413
 20
380.855
 21
381.249
  0
LINE
  8
0
 10
-195.413
 11
-194.989
 20
381.249
 21
381.471
  0
LINE
  8
0
 10
-194.989
 11
-194.511
 20
381.471
 21
381.471
  0
LINE
  8
0
 10
-194.511
 11
-194.087
 20
381.471
 21
381.249
  0
LINE
  8
0
 10
-194.087
 11
-193.815
 20
381.249
 21
380.855
  0
LINE
  8
0
 10
-193.815
 11
-193.757
 20
380.855
 21
380.379
  0
LINE
  8
0
 10
-193.757
 11
-193.927
 20
380.379
 21
379.932
  0
LINE
  8
0
 10
-193.927
 11
-194.285
 20
379.932
 21
379.615
  0
LINE
  8
0
 10
-194.285
 11
-194.75
 20
379.615
 21
379.5
  0
LINE
  8
0
 10
-194.75
 11
-195.215
 20
379.5
 21
379.615
  0
LINE
  8
0
 10
-195.215
 11
-195.573
 20
379.615
 21
379.932
  0
LINE
  8
0
 10
-195.573
 11
-195.743
 20
379.932
 21
380.379
  0
LINE
  8
0
 10
-194.63
 11
-194.582
 20
7.5
 21
7.988
  0
LINE
  8
0
 10
-194.582
 11
-194.44
 20
7.988
 21
8.457
  0
LINE
  8
0
 10
-194.44
 11
-194.209
 20
8.457
 21
8.889
  0
LINE
  8
0
 10
-194.209
 11
-193.898
 20
8.889
 21
9.268
  0
LINE
  8
0
 10
-193.898
 11
-193.519
 20
9.268
 21
9.579
  0
LINE
  8
0
 10
-193.519
 11
-193.087
 20
9.579
 21
9.81
  0
LINE
  8
0
 10
-193.087
 11
-192.618
 20
9.81
 21
9.952
  0
LINE
  8
0
 10
-192.618
 11
-192.13
 20
9.952
 21
10
  0
LINE
  8
0
 10
-192.13
 11
-191.642
 20
10
 21
9.952
  0
LINE
  8
0
 10
-191.642
 11
-191.173
 20
9.952
 21
9.81
  0
LINE
  8
0
 10
-191.173
 11
-190.741
 20
9.81
 21
9.579
  0
LINE
  8
0
 10
-190.741
 11
-190.362
 20
9.579
 21
9.268
  0
LINE
  8
0
 10
-190.362
 11
-190.051
 20
9.268
 21
8.889
  0
LINE
  8
0
 10
-190.051
 11
-189.82
 20
8.889
 21
8.457
  0
LINE
  8
0
 10
-189.82
 11
-189.678
 20
8.457
 21
7.988
  0
LINE
  8
0
 10
-189.678
 11
-189.63
 20
7.988
 21
7.5
  0
LINE
  8
0
 10
-189.63
 11
-189.678
 20
7.5
 21
7.012
  0
LINE
  8
0
 10
-189.678
 11
-189.82
 20
7.012
 21
6.543
  0
LINE
  8
0
 10
-189.82
 11
-190.051
 20
6.543
 21
6.111
  0
LINE
  8
0
 10
-190.051
 11
-190.362
 20
6.111
 21
5.732
  0
LINE
  8
0
 10
-190.362
 11
-190.741
 20
5.732
 21
5.421
  0
LINE
  8
0
 10
-190.741
 11
-191.173
 20
5.421
 21
5.19
  0
LINE
  8
0
 10
-191.173
 11
-191.642
 20
5.19
 21
5.048
  0
LINE
  8
0
 10
-191.642
 11
-192.13
 20
5.048
 21
5
  0
LINE
  8
0
 10
-192.13
 11
-192.618
 20
5
 21
5.048
  0
LINE
  8
0
 10
-192.618
 11
-193.087
 20
5.048
 21
5.19
  0
LINE
  8
0
 10
-193.087
 11
-193.519
 20
5.19
 21
5.421
  0
LINE
  8
0
 10
-193.519
 11
-193.898
 20
5.421
 21
5.732
  0
LINE
  8
0
 10
-193.898
 11
-194.209
 20
5.732
 21
6.111
  0
LINE
  8
0
 10
-194.209
 11
-194.44
 20
6.111
 21
6.543
  0
LINE
  8
0
 10
-194.44
 11
-194.582
 20
6.543
 21
7.012
  0
LINE
  8
0
 10
-194.582
 11
-194.63
 20
7.012
 21
7.5
  0
LINE
  8
0
 10
-187.721
 11
-187.721
 20
60.761
 21
61.239
  0
LINE
  8
0
 10
-187.721
 11
-187.499
 20
61.239
 21
61.663
  0
LINE
  8
0
 10
-187.499
 11
-187.105
 20
61.663
 21
61.935
  0
LINE
  8
0
 10
-187.105
 11
-186.629
 20
61.935
 21
61.993
  0
LINE
  8
0
 10
-186.629
 11
-186.182
 20
61.993
 21
61.823
  0
LINE
  8
0
 10
-186.182
 11
-185.865
 20
61.823
 21
61.465
  0
LINE
  8
0
 10
-185.865
 11
-185.75
 20
61.465
 21
61
  0
LINE
  8
0
 10
-185.75
 11
-185.865
 20
61
 21
60.535
  0
LINE
  8
0
 10
-185.865
 11
-186.182
 20
60.535
 21
60.177
  0
LINE
  8
0
 10
-186.182
 11
-186.629
 20
60.177
 21
60.007
  0
LINE
  8
0
 10
-186.629
 11
-187.105
 20
60.007
 21
60.065
  0
LINE
  8
0
 10
-187.105
 11
-187.499
 20
60.065
 21
60.337
  0
LINE
  8
0
 10
-187.499
 11
-187.721
 20
60.337
 21
60.761
  0
LINE
  8
0
 10
-163.17
 11
-163.055
 20
8.2
 21
8.665
  0
LINE
  8
0
 10
-163.055
 11
-162.738
 20
8.665
 21
9.023
  0
LINE
  8
0
 10
-162.738
 11
-162.291
 20
9.023
 21
9.193
  0
LINE
  8
0
 10
-162.291
 11
-161.815
 20
9.193
 21
9.135
  0
LINE
  8
0
 10
-161.815
 11
-161.421
 20
9.135
 21
8.863
  0
LINE
  8
0
 10
-161.421
 11
-161.199
 20
8.863
 21
8.439
  0
LINE
  8
0
 10
-161.199
 11
-161.199
 20
8.439
 21
7.961
  0
LINE
  8
0
 10
-161.199
 11
-161.421
 20
7.961
 21
7.537
  0
LINE
  8
0
 10
-161.421
 11
-161.815
 20
7.537
 21
7.265
  0
LINE
  8
0
 10
-161.815
 11
-162.291
 20
7.265
 21
7.207
  0
LINE
  8
0
 10
-162.291
 11
-162.738
 20
7.207
 21
7.377
  0
LINE
  8
0
 10
-162.738
 11
-163.055
 20
7.377
 21
7.735
  0
LINE
  8
0
 10
-163.055
 11
-163.17
 20
7.735
 21
8.2
  0
LINE
  8
0
 10
-162.743
 11
-162.685
 20
380.379
 21
380.855
  0
LINE
  8
0
 10
-162.685
 11
-162.413
 20
380.855
 21
381.249
  0
LINE
  8
0
 10
-162.413
 11
-161.989
 20
381.249
 21
381.471
  0
LINE
  8
0
 10
-161.989
 11
-161.511
 20
381.471
 21
381.471
  0
LINE
  8
0
 10
-161.511
 11
-161.087
 20
381.471
 21
381.249
  0
LINE
  8
0
 10
-161.087
 11
-160.815
 20
381.249
 21
380.855
  0
LINE
  8
0
 10
-160.815
 11
-160.757
 20
380.855
 21
380.379
  0
LINE
  8
0
 10
-160.757
 11
-160.927
 20
380.379
 21
379.932
  0
LINE
  8
0
 10
-160.927
 11
-161.285
 20
379.932
 21
379.615
  0
LINE
  8
0
 10
-161.285
 11
-161.75
 20
379.615
 21
379.5
  0
LINE
  8
0
 10
-161.75
 11
-162.215
 20
379.5
 21
379.615
  0
LINE
  8
0
 10
-162.215
 11
-162.573
 20
379.615
 21
379.932
  0
LINE
  8
0
 10
-162.573
 11
-162.743
 20
379.932
 21
380.379
  0
LINE
  8
0
 10
-162.043
 11
-161.873
 20
36.831
 21
37.278
  0
LINE
  8
0
 10
-161.873
 11
-161.515
 20
37.278
 21
37.595
  0
LINE
  8
0
 10
-161.515
 11
-161.05
 20
37.595
 21
37.71
  0
LINE
  8
0
 10
-161.05
 11
-160.585
 20
37.71
 21
37.595
  0
LINE
  8
0
 10
-160.585
 11
-160.227
 20
37.595
 21
37.278
  0
LINE
  8
0
 10
-160.227
 11
-160.057
 20
37.278
 21
36.831
  0
LINE
  8
0
 10
-160.057
 11
-160.115
 20
36.831
 21
36.355
  0
LINE
  8
0
 10
-160.115
 11
-160.387
 20
36.355
 21
35.961
  0
LINE
  8
0
 10
-160.387
 11
-160.811
 20
35.961
 21
35.739
  0
LINE
  8
0
 10
-160.811
 11
-161.289
 20
35.739
 21
35.739
  0
LINE
  8
0
 10
-161.289
 11
-161.713
 20
35.739
 21
35.961
  0
LINE
  8
0
 10
-161.713
 11
-161.985
 20
35.961
 21
36.355
  0
LINE
  8
0
 10
-161.985
 11
-162.043
 20
36.355
 21
36.831
  0
LINE
  8
0
 10
-162.043
 11
-161.873
 20
352.411
 21
352.858
  0
LINE
  8
0
 10
-161.873
 11
-161.515
 20
352.858
 21
353.175
  0
LINE
  8
0
 10
-161.515
 11
-161.05
 20
353.175
 21
353.29
  0
LINE
  8
0
 10
-161.05
 11
-160.585
 20
353.29
 21
353.175
  0
LINE
  8
0
 10
-160.585
 11
-160.227
 20
353.175
 21
352.858
  0
LINE
  8
0
 10
-160.227
 11
-160.057
 20
352.858
 21
352.411
  0
LINE
  8
0
 10
-160.057
 11
-160.115
 20
352.411
 21
351.935
  0
LINE
  8
0
 10
-160.115
 11
-160.387
 20
351.935
 21
351.541
  0
LINE
  8
0
 10
-160.387
 11
-160.811
 20
351.541
 21
351.319
  0
LINE
  8
0
 10
-160.811
 11
-161.289
 20
351.319
 21
351.319
  0
LINE
  8
0
 10
-161.289
 11
-161.713
 20
351.319
 21
351.541
  0
LINE
  8
0
 10
-161.713
 11
-161.985
 20
351.541
 21
351.935
  0
LINE
  8
0
 10
-161.985
 11
-162.043
 20
351.935
 21
352.411
  0
LINE
  8
0
 10
-161.243
 11
-161.185
 20
323.059
 21
323.535
  0
LINE
  8
0
 10
-161.185
 11
-160.913
 20
323.535
 21
323.929
  0
LINE
  8
0
 10
-160.913
 11
-160.489
 20
323.929
 21
324.151
  0
LINE
  8
0
 10
-160.489
 11
-160.011
 20
324.151
 21
324.151
  0
LINE
  8
0
 10
-160.011
 11
-159.587
 20
324.151
 21
323.929
  0
LINE
  8
0
 10
-159.587
 11
-159.315
 20
323.929
 21
323.535
  0
LINE
  8
0
 10
-159.315
 11
-159.257
 20
323.535
 21
323.059
  0
LINE
  8
0
 10
-159.257
 11
-159.427
 20
323.059
 21
322.612
  0
LINE
  8
0
 10
-159.427
 11
-159.785
 20
322.612
 21
322.295
  0
LINE
  8
0
 10
-159.785
 11
-160.25
 20
322.295
 21
322.18
  0
LINE
  8
0
 10
-160.25
 11
-160.715
 20
322.18
 21
322.295
  0
LINE
  8
0
 10
-160.715
 11
-161.073
 20
322.295
 21
322.612
  0
LINE
  8
0
 10
-161.073
 11
-161.243
 20
322.612
 21
323.059
  0
LINE
  8
0
 10
-141.95
 11
-141.835
 20
8.2
 21
8.665
  0
LINE
  8
0
 10
-141.835
 11
-141.518
 20
8.665
 21
9.023
  0
LINE
  8
0
 10
-141.518
 11
-141.071
 20
9.023
 21
9.193
  0
LINE
  8
0
 10
-141.071
 11
-140.595
 20
9.193
 21
9.135
  0
LINE
  8
0
 10
-140.595
 11
-140.201
 20
9.135
 21
8.863
  0
LINE
  8
0
 10
-140.201
 11
-139.979
 20
8.863
 21
8.439
  0
LINE
  8
0
 10
-139.979
 11
-139.979
 20
8.439
 21
7.961
  0
LINE
  8
0
 10
-139.979
 11
-140.201
 20
7.961
 21
7.537
  0
LINE
  8
0
 10
-140.201
 11
-140.595
 20
7.537
 21
7.265
  0
LINE
  8
0
 10
-140.595
 11
-141.071
 20
7.265
 21
7.207
  0
LINE
  8
0
 10
-141.071
 11
-141.518
 20
7.207
 21
7.377
  0
LINE
  8
0
 10
-141.518
 11
-141.835
 20
7.377
 21
7.735
  0
LINE
  8
0
 10
-141.835
 11
-141.95
 20
7.735
 21
8.2
  0
LINE
  8
0
 10
-131.734
 11
-131.734
 20
280.851
 21
281.349
  0
LINE
  8
0
 10
-131.734
 11
-131.684
 20
281.349
 21
281.844
  0
LINE
  8
0
 10
-131.684
 11
-131.586
 20
281.844
 21
282.331
  0
LINE
  8
0
 10
-131.586
 11
-131.439
 20
282.331
 21
282.807
  0
LINE
  8
0
 10
-131.439
 11
-131.246
 20
282.807
 21
283.265
  0
LINE
  8
0
 10
-131.246
 11
-131.008
 20
283.265
 21
283.702
  0
LINE
  8
0
 10
-131.008
 11
-130.728
 20
283.702
 21
284.113
  0
LINE
  8
0
 10
-130.728
 11
-130.408
 20
284.113
 21
284.494
  0
LINE
  8
0
 10
-130.408
 11
-130.052
 20
284.494
 21
284.841
  0
LINE
  8
0
 10
-130.052
 11
-129.663
 20
284.841
 21
285.152
  0
LINE
  8
0
 10
-129.663
 11
-129.245
 20
285.152
 21
285.421
  0
LINE
  8
0
 10
-129.245
 11
-128.802
 20
285.421
 21
285.648
  0
LINE
  8
0
 10
-128.802
 11
-128.339
 20
285.648
 21
285.83
  0
LINE
  8
0
 10
-128.339
 11
-127.86
 20
285.83
 21
285.965
  0
LINE
  8
0
 10
-127.86
 11
-127.37
 20
285.965
 21
286.051
  0
LINE
  8
0
 10
-127.37
 11
-126.874
 20
286.051
 21
286.088
  0
LINE
  8
0
 10
-126.874
 11
-126.377
 20
286.088
 21
286.076
  0
LINE
  8
0
 10
-126.377
 11
-125.883
 20
286.076
 21
286.014
  0
LINE
  8
0
 10
-125.883
 11
-125.399
 20
286.014
 21
285.903
  0
LINE
  8
0
 10
-125.399
 11
-124.927
 20
285.903
 21
285.745
  0
LINE
  8
0
 10
-124.927
 11
-124.474
 20
285.745
 21
285.54
  0
LINE
  8
0
 10
-124.474
 11
-124.043
 20
285.54
 21
285.292
  0
LINE
  8
0
 10
-124.043
 11
-123.639
 20
285.292
 21
285.001
  0
LINE
  8
0
 10
-123.639
 11
-123.266
 20
285.001
 21
284.672
  0
LINE
  8
0
 10
-123.266
 11
-122.927
 20
284.672
 21
284.308
  0
LINE
  8
0
 10
-122.927
 11
-122.627
 20
284.308
 21
283.911
  0
LINE
  8
0
 10
-122.627
 11
-122.368
 20
283.911
 21
283.486
  0
LINE
  8
0
 10
-122.368
 11
-122.152
 20
283.486
 21
283.038
  0
LINE
  8
0
 10
-122.152
 11
-121.982
 20
283.038
 21
282.571
  0
LINE
  8
0
 10
-121.982
 11
-121.859
 20
282.571
 21
282.089
  0
LINE
  8
0
 10
-121.859
 11
-121.785
 20
282.089
 21
281.597
  0
LINE
  8
0
 10
-121.785
 11
-121.76
 20
281.597
 21
281.1
  0
LINE
  8
0
 10
-121.76
 11
-121.785
 20
281.1
 21
280.603
  0
LINE
  8
0
 10
-121.785
 11
-121.859
 20
280.603
 21
280.111
  0
LINE
  8
0
 10
-121.859
 11
-121.982
 20
280.111
 21
279.629
  0
LINE
  8
0
 10
-121.982
 11
-122.152
 20
279.629
 21
279.162
  0
LINE
  8
0
 10
-122.152
 11
-122.368
 20
279.162
 21
278.714
  0
LINE
  8
0
 10
-122.368
 11
-122.627
 20
278.714
 21
278.289
  0
LINE
  8
0
 10
-122.627
 11
-122.927
 20
278.289
 21
277.892
  0
LINE
  8
0
 10
-122.927
 11
-123.266
 20
277.892
 21
277.528
  0
LINE
  8
0
 10
-123.266
 11
-123.639
 20
277.528
 21
277.199
  0
LINE
  8
0
 10
-123.639
 11
-124.043
 20
277.199
 21
276.908
  0
LINE
  8
0
 10
-124.043
 11
-124.474
 20
276.908
 21
276.66
  0
LINE
  8
0
 10
-124.474
 11
-124.927
 20
276.66
 21
276.455
  0
LINE
  8
0
 10
-124.927
 11
-125.399
 20
276.455
 21
276.297
  0
LINE
  8
0
 10
-125.399
 11
-125.883
 20
276.297
 21
276.186
  0
LINE
  8
0
 10
-125.883
 11
-126.377
 20
276.186
 21
276.124
  0
LINE
  8
0
 10
-126.377
 11
-126.874
 20
276.124
 21
276.112
  0
LINE
  8
0
 10
-126.874
 11
-127.37
 20
276.112
 21
276.149
  0
LINE
  8
0
 10
-127.37
 11
-127.86
 20
276.149
 21
276.235
  0
LINE
  8
0
 10
-127.86
 11
-128.339
 20
276.235
 21
276.37
  0
LINE
  8
0
 10
-128.339
 11
-128.802
 20
276.37
 21
276.552
  0
LINE
  8
0
 10
-128.802
 11
-129.245
 20
276.552
 21
276.779
  0
LINE
  8
0
 10
-129.245
 11
-129.663
 20
276.779
 21
277.048
  0
LINE
  8
0
 10
-129.663
 11
-130.052
 20
277.048
 21
277.359
  0
LINE
  8
0
 10
-130.052
 11
-130.408
 20
277.359
 21
277.706
  0
LINE
  8
0
 10
-130.408
 11
-130.728
 20
277.706
 21
278.087
  0
LINE
  8
0
 10
-130.728
 11
-131.008
 20
278.087
 21
278.498
  0
LINE
  8
0
 10
-131.008
 11
-131.246
 20
278.498
 21
278.935
  0
LINE
  8
0
 10
-131.246
 11
-131.439
 20
278.935
 21
279.393
  0
LINE
  8
0
 10
-131.439
 11
-131.586
 20
279.393
 21
279.869
  0
LINE
  8
0
 10
-131.586
 11
-131.684
 20
279.869
 21
280.356
  0
LINE
  8
0
 10
-131.684
 11
-131.734
 20
280.356
 21
280.851
  0
LINE
  8
0
 10
108.266
 11
108.266
 20
280.851
 21
281.349
  0
LINE
  8
0
 10
108.266
 11
108.316
 20
281.349
 21
281.844
  0
LINE
  8
0
 10
108.316
 11
108.414
 20
281.844
 21
282.331
  0
LINE
  8
0
 10
108.414
 11
108.561
 20
282.331
 21
282.807
  0
LINE
  8
0
 10
108.561
 11
108.754
 20
282.807
 21
283.265
  0
LINE
  8
0
 10
108.754
 11
108.992
 20
283.265
 21
283.702
  0
LINE
  8
0
 10
108.992
 11
109.272
 20
283.702
 21
284.113
  0
LINE
  8
0
 10
109.272
 11
109.592
 20
284.113
 21
284.494
  0
LINE
  8
0
 10
109.592
 11
109.948
 20
284.494
 21
284.841
  0
LINE
  8
0
 10
109.948
 11
110.337
 20
284.841
 21
285.152
  0
LINE
  8
0
 10
110.337
 11
110.755
 20
285.152
 21
285.421
  0
LINE
  8
0
 10
110.755
 11
111.198
 20
285.421
 21
285.648
  0
LINE
  8
0
 10
111.198
 11
111.661
 20
285.648
 21
285.83
  0
LINE
  8
0
 10
111.661
 11
112.14
 20
285.83
 21
285.965
  0
LINE
  8
0
 10
112.14
 11
112.63
 20
285.965
 21
286.051
  0
LINE
  8
0
 10
112.63
 11
113.126
 20
286.051
 21
286.088
  0
LINE
  8
0
 10
113.126
 11
113.623
 20
286.088
 21
286.076
  0
LINE
  8
0
 10
113.623
 11
114.117
 20
286.076
 21
286.014
  0
LINE
  8
0
 10
114.117
 11
114.601
 20
286.014
 21
285.903
  0
LINE
  8
0
 10
114.601
 11
115.073
 20
285.903
 21
285.745
  0
LINE
  8
0
 10
115.073
 11
115.526
 20
285.745
 21
285.54
  0
LINE
  8
0
 10
115.526
 11
115.957
 20
285.54
 21
285.292
  0
LINE
  8
0
 10
115.957
 11
116.361
 20
285.292
 21
285.001
  0
LINE
  8
0
 10
116.361
 11
116.734
 20
285.001
 21
284.672
  0
LINE
  8
0
 10
116.734
 11
117.073
 20
284.672
 21
284.308
  0
LINE
  8
0
 10
117.073
 11
117.373
 20
284.308
 21
283.911
  0
LINE
  8
0
 10
117.373
 11
117.632
 20
283.911
 21
283.486
  0
LINE
  8
0
 10
117.632
 11
117.848
 20
283.486
 21
283.038
  0
LINE
  8
0
 10
117.848
 11
118.018
 20
283.038
 21
282.571
  0
LINE
  8
0
 10
118.018
 11
118.141
 20
282.571
 21
282.089
  0
LINE
  8
0
 10
118.141
 11
118.215
 20
282.089
 21
281.597
  0
LINE
  8
0
 10
118.215
 11
118.24
 20
281.597
 21
281.1
  0
LINE
  8
0
 10
118.24
 11
118.215
 20
281.1
 21
280.603
  0
LINE
  8
0
 10
118.215
 11
118.141
 20
280.603
 21
280.111
  0
LINE
  8
0
 10
118.141
 11
118.018
 20
280.111
 21
279.629
  0
LINE
  8
0
 10
118.018
 11
117.848
 20
279.629
 21
279.162
  0
LINE
  8
0
 10
117.848
 11
117.632
 20
279.162
 21
278.714
  0
LINE
  8
0
 10
117.632
 11
117.373
 20
278.714
 21
278.289
  0
LINE
  8
0
 10
117.373
 11
117.073
 20
278.289
 21
277.892
  0
LINE
  8
0
 10
117.073
 11
116.734
 20
277.892
 21
277.528
  0
LINE
  8
0
 10
116.734
 11
116.361
 20
277.528
 21
277.199
  0
LINE
  8
0
 10
116.361
 11
115.957
 20
277.199
 21
276.908
  0
LINE
  8
0
 10
115.957
 11
115.526
 20
276.908
 21
276.66
  0
LINE
  8
0
 10
115.526
 11
115.073
 20
276.66
 21
276.455
  0
LINE
  8
0
 10
115.073
 11
114.601
 20
276.455
 21
276.297
  0
LINE
  8
0
 10
114.601
 11
114.117
 20
276.297
 21
276.186
  0
LINE
  8
0
 10
114.117
 11
113.623
 20
276.186
 21
276.124
  0
LINE
  8
0
 10
113.623
 11
113.126
 20
276.124
 21
276.112
  0
LINE
  8
0
 10
113.126
 11
112.63
 20
276.112
 21
276.149
  0
LINE
  8
0
 10
112.63
 11
112.14
 20
276.149
 21
276.235
  0
LINE
  8
0
 10
112.14
 11
111.661
 20
276.235
 21
276.37
  0
LINE
  8
0
 10
111.661
 11
111.198
 20
276.37
 21
276.552
  0
LINE
  8
0
 10
111.198
 11
110.755
 20
276.552
 21
276.779
  0
LINE
  8
0
 10
110.755
 11
110.337
 20
276.779
 21
277.048
  0
LINE
  8
0
 10
110.337
 11
109.948
 20
277.048
 21
277.359
  0
LINE
  8
0
 10
109.948
 11
109.592
 20
277.359
 21
277.706
  0
LINE
  8
0
 10
109.592
 11
109.272
 20
277.706
 21
278.087
  0
LINE
  8
0
 10
109.272
 11
108.992
 20
278.087
 21
278.498
  0
LINE
  8
0
 10
108.992
 11
108.754
 20
278.498
 21
278.935
  0
LINE
  8
0
 10
108.754
 11
108.561
 20
278.935
 21
279.393
  0
LINE
  8
0
 10
108.561
 11
108.414
 20
279.393
 21
279.869
  0
LINE
  8
0
 10
108.414
 11
108.316
 20
279.869
 21
280.356
  0
LINE
  8
0
 10
108.316
 11
108.266
 20
280.356
 21
280.851
  0
LINE
  8
0
 10
123.257
 11
123.315
 20
380.379
 21
380.855
  0
LINE
  8
0
 10
123.315
 11
123.587
 20
380.855
 21
381.249
  0
LINE
  8
0
 10
123.587
 11
124.011
 20
381.249
 21
381.471
  0
LINE
  8
0
 10
124.011
 11
124.489
 20
381.471
 21
381.471
  0
LINE
  8
0
 10
124.489
 11
124.913
 20
381.471
 21
381.249
  0
LINE
  8
0
 10
124.913
 11
125.185
 20
381.249
 21
380.855
  0
LINE
  8
0
 10
125.185
 11
125.243
 20
380.855
 21
380.379
  0
LINE
  8
0
 10
125.243
 11
125.073
 20
380.379
 21
379.932
  0
LINE
  8
0
 10
125.073
 11
124.715
 20
379.932
 21
379.615
  0
LINE
  8
0
 10
124.715
 11
124.25
 20
379.615
 21
379.5
  0
LINE
  8
0
 10
124.25
 11
123.785
 20
379.5
 21
379.615
  0
LINE
  8
0
 10
123.785
 11
123.427
 20
379.615
 21
379.932
  0
LINE
  8
0
 10
123.427
 11
123.257
 20
379.932
 21
380.379
  0
LINE
  8
0
 10
126.657
 11
126.715
 20
323.059
 21
323.535
  0
LINE
  8
0
 10
126.715
 11
126.987
 20
323.535
 21
323.929
  0
LINE
  8
0
 10
126.987
 11
127.411
 20
323.929
 21
324.151
  0
LINE
  8
0
 10
127.411
 11
127.889
 20
324.151
 21
324.151
  0
LINE
  8
0
 10
127.889
 11
128.313
 20
324.151
 21
323.929
  0
LINE
  8
0
 10
128.313
 11
128.585
 20
323.929
 21
323.535
  0
LINE
  8
0
 10
128.585
 11
128.643
 20
323.535
 21
323.059
  0
LINE
  8
0
 10
128.643
 11
128.473
 20
323.059
 21
322.612
  0
LINE
  8
0
 10
128.473
 11
128.115
 20
322.612
 21
322.295
  0
LINE
  8
0
 10
128.115
 11
127.65
 20
322.295
 21
322.18
  0
LINE
  8
0
 10
127.65
 11
127.185
 20
322.18
 21
322.295
  0
LINE
  8
0
 10
127.185
 11
126.827
 20
322.295
 21
322.612
  0
LINE
  8
0
 10
126.827
 11
126.657
 20
322.612
 21
323.059
  0
LINE
  8
0
 10
127.457
 11
127.515
 20
36.589
 21
37.065
  0
LINE
  8
0
 10
127.515
 11
127.787
 20
37.065
 21
37.459
  0
LINE
  8
0
 10
127.787
 11
128.211
 20
37.459
 21
37.681
  0
LINE
  8
0
 10
128.211
 11
128.689
 20
37.681
 21
37.681
  0
LINE
  8
0
 10
128.689
 11
129.113
 20
37.681
 21
37.459
  0
LINE
  8
0
 10
129.113
 11
129.385
 20
37.459
 21
37.065
  0
LINE
  8
0
 10
129.385
 11
129.443
 20
37.065
 21
36.589
  0
LINE
  8
0
 10
129.443
 11
129.273
 20
36.589
 21
36.142
  0
LINE
  8
0
 10
129.273
 11
128.915
 20
36.142
 21
35.825
  0
LINE
  8
0
 10
128.915
 11
128.45
 20
35.825
 21
35.71
  0
LINE
  8
0
 10
128.45
 11
127.985
 20
35.71
 21
35.825
  0
LINE
  8
0
 10
127.985
 11
127.627
 20
35.825
 21
36.142
  0
LINE
  8
0
 10
127.627
 11
127.457
 20
36.142
 21
36.589
  0
LINE
  8
0
 10
127.457
 11
127.515
 20
352.169
 21
352.645
  0
LINE
  8
0
 10
127.515
 11
127.787
 20
352.645
 21
353.039
  0
LINE
  8
0
 10
127.787
 11
128.211
 20
353.039
 21
353.261
  0
LINE
  8
0
 10
128.211
 11
128.689
 20
353.261
 21
353.261
  0
LINE
  8
0
 10
128.689
 11
129.113
 20
353.261
 21
353.039
  0
LINE
  8
0
 10
129.113
 11
129.385
 20
353.039
 21
352.645
  0
LINE
  8
0
 10
129.385
 11
129.443
 20
352.645
 21
352.169
  0
LINE
  8
0
 10
129.443
 11
129.273
 20
352.169
 21
351.722
  0
LINE
  8
0
 10
129.273
 11
128.915
 20
351.722
 21
351.405
  0
LINE
  8
0
 10
128.915
 11
128.45
 20
351.405
 21
351.29
  0
LINE
  8
0
 10
128.45
 11
127.985
 20
351.29
 21
351.405
  0
LINE
  8
0
 10
127.985
 11
127.627
 20
351.405
 21
351.722
  0
LINE
  8
0
 10
127.627
 11
127.457
 20
351.722
 21
352.169
  0
LINE
  8
0
 10
141.279
 11
141.279
 20
60.761
 21
61.239
  0
LINE
  8
0
 10
141.279
 11
141.501
 20
61.239
 21
61.663
  0
LINE
  8
0
 10
141.501
 11
141.895
 20
61.663
 21
61.935
  0
LINE
  8
0
 10
141.895
 11
142.371
 20
61.935
 21
61.993
  0
LINE
  8
0
 10
142.371
 11
142.818
 20
61.993
 21
61.823
  0
LINE
  8
0
 10
142.818
 11
143.135
 20
61.823
 21
61.465
  0
LINE
  8
0
 10
143.135
 11
143.25
 20
61.465
 21
61
  0
LINE
  8
0
 10
143.25
 11
143.135
 20
61
 21
60.535
  0
LINE
  8
0
 10
143.135
 11
142.818
 20
60.535
 21
60.177
  0
LINE
  8
0
 10
142.818
 11
142.371
 20
60.177
 21
60.007
  0
LINE
  8
0
 10
142.371
 11
141.895
 20
60.007
 21
60.065
  0
LINE
  8
0
 10
141.895
 11
141.501
 20
60.065
 21
60.337
  0
LINE
  8
0
 10
141.501
 11
141.279
 20
60.337
 21
60.761
  0
LINE
  8
0
 10
156.257
 11
156.315
 20
380.379
 21
380.855
  0
LINE
  8
0
 10
156.315
 11
156.587
 20
380.855
 21
381.249
  0
LINE
  8
0
 10
156.587
 11
157.011
 20
381.249
 21
381.471
  0
LINE
  8
0
 10
157.011
 11
157.489
 20
381.471
 21
381.471
  0
LINE
  8
0
 10
157.489
 11
157.913
 20
381.471
 21
381.249
  0
LINE
  8
0
 10
157.913
 11
158.185
 20
381.249
 21
380.855
  0
LINE
  8
0
 10
158.185
 11
158.243
 20
380.855
 21
380.379
  0
LINE
  8
0
 10
158.243
 11
158.073
 20
380.379
 21
379.932
  0
LINE
  8
0
 10
158.073
 11
157.715
 20
379.932
 21
379.615
  0
LINE
  8
0
 10
157.715
 11
157.25
 20
379.615
 21
379.5
  0
LINE
  8
0
 10
157.25
 11
156.785
 20
379.5
 21
379.615
  0
LINE
  8
0
 10
156.785
 11
156.427
 20
379.615
 21
379.932
  0
LINE
  8
0
 10
156.427
 11
156.257
 20
379.932
 21
380.379
  0
LINE
  8
0
 10
157.35
 11
157.465
 20
8.2
 21
8.665
  0
LINE
  8
0
 10
157.465
 11
157.782
 20
8.665
 21
9.023
  0
LINE
  8
0
 10
157.782
 11
158.229
 20
9.023
 21
9.193
  0
LINE
  8
0
 10
158.229
 11
158.705
 20
9.193
 21
9.135
  0
LINE
  8
0
 10
158.705
 11
159.099
 20
9.135
 21
8.863
  0
LINE
  8
0
 10
159.099
 11
159.321
 20
8.863
 21
8.439
  0
LINE
  8
0
 10
159.321
 11
159.321
 20
8.439
 21
7.961
  0
LINE
  8
0
 10
159.321
 11
159.099
 20
7.961
 21
7.537
  0
LINE
  8
0
 10
159.099
 11
158.705
 20
7.537
 21
7.265
  0
LINE
  8
0
 10
158.705
 11
158.229
 20
7.265
 21
7.207
  0
LINE
  8
0
 10
158.229
 11
157.782
 20
7.207
 21
7.377
  0
LINE
  8
0
 10
157.782
 11
157.465
 20
7.377
 21
7.735
  0
LINE
  8
0
 10
157.465
 11
157.35
 20
7.735
 21
8.2
  0
LINE
  8
0
 10
158.87
 11
158.918
 20
20.9
 21
21.388
  0
LINE
  8
0
 10
158.918
 11
159.06
 20
21.388
 21
21.857
  0
LINE
  8
0
 10
159.06
 11
159.291
 20
21.857
 21
22.289
  0
LINE
  8
0
 10
159.291
 11
159.602
 20
22.289
 21
22.668
  0
LINE
  8
0
 10
159.602
 11
159.981
 20
22.668
 21
22.979
  0
LINE
  8
0
 10
159.981
 11
160.413
 20
22.979
 21
23.21
  0
LINE
  8
0
 10
160.413
 11
160.882
 20
23.21
 21
23.352
  0
LINE
  8
0
 10
160.882
 11
161.37
 20
23.352
 21
23.4
  0
LINE
  8
0
 10
161.37
 11
161.858
 20
23.4
 21
23.352
  0
LINE
  8
0
 10
161.858
 11
162.327
 20
23.352
 21
23.21
  0
LINE
  8
0
 10
162.327
 11
162.759
 20
23.21
 21
22.979
  0
LINE
  8
0
 10
162.759
 11
163.138
 20
22.979
 21
22.668
  0
LINE
  8
0
 10
163.138
 11
163.449
 20
22.668
 21
22.289
  0
LINE
  8
0
 10
163.449
 11
163.68
 20
22.289
 21
21.857
  0
LINE
  8
0
 10
163.68
 11
163.822
 20
21.857
 21
21.388
  0
LINE
  8
0
 10
163.822
 11
163.87
 20
21.388
 21
20.9
  0
LINE
  8
0
 10
163.87
 11
163.822
 20
20.9
 21
20.412
  0
LINE
  8
0
 10
163.822
 11
163.68
 20
20.412
 21
19.943
  0
LINE
  8
0
 10
163.68
 11
163.449
 20
19.943
 21
19.511
  0
LINE
  8
0
 10
163.449
 11
163.138
 20
19.511
 21
19.132
  0
LINE
  8
0
 10
163.138
 11
162.759
 20
19.132
 21
18.821
  0
LINE
  8
0
 10
162.759
 11
162.327
 20
18.821
 21
18.59
  0
LINE
  8
0
 10
162.327
 11
161.858
 20
18.59
 21
18.448
  0
LINE
  8
0
 10
161.858
 11
161.37
 20
18.448
 21
18.4
  0
LINE
  8
0
 10
161.37
 11
160.882
 20
18.4
 21
18.448
  0
LINE
  8
0
 10
160.882
 11
160.413
 20
18.448
 21
18.59
  0
LINE
  8
0
 10
160.413
 11
159.981
 20
18.59
 21
18.821
  0
LINE
  8
0
 10
159.981
 11
159.602
 20
18.821
 21
19.132
  0
LINE
  8
0
 10
159.602
 11
159.291
 20
19.132
 21
19.511
  0
LINE
  8
0
 10
159.291
 11
159.06
 20
19.511
 21
19.943
  0
LINE
  8
0
 10
159.06
 11
158.918
 20
19.943
 21
20.412
  0
LINE
  8
0
 10
158.918
 11
158.87
 20
20.412
 21
20.9
  0
LINE
  8
0
 10
173.279
 11
173.279
 20
60.761
 21
61.239
  0
LINE
  8
0
 10
173.279
 11
173.501
 20
61.239
 21
61.663
  0
LINE
  8
0
 10
173.501
 11
173.895
 20
61.663
 21
61.935
  0
LINE
  8
0
 10
173.895
 11
174.371
 20
61.935
 21
61.993
  0
LINE
  8
0
 10
174.371
 11
174.818
 20
61.993
 21
61.823
  0
LINE
  8
0
 10
174.818
 11
175.135
 20
61.823
 21
61.465
  0
LINE
  8
0
 10
175.135
 11
175.25
 20
61.465
 21
61
  0
LINE
  8
0
 10
175.25
 11
175.135
 20
61
 21
60.535
  0
LINE
  8
0
 10
175.135
 11
174.818
 20
60.535
 21
60.177
  0
LINE
  8
0
 10
174.818
 11
174.371
 20
60.177
 21
60.007
  0
LINE
  8
0
 10
174.371
 11
173.895
 20
60.007
 21
60.065
  0
LINE
  8
0
 10
173.895
 11
173.501
 20
60.065
 21
60.337
  0
LINE
  8
0
 10
173.501
 11
173.279
 20
60.337
 21
60.761
  0
LINE
  8
0
 10
178.57
 11
178.685
 20
8.2
 21
8.665
  0
LINE
  8
0
 10
178.685
 11
179.002
 20
8.665
 21
9.023
  0
LINE
  8
0
 10
179.002
 11
179.449
 20
9.023
 21
9.193
  0
LINE
  8
0
 10
179.449
 11
179.925
 20
9.193
 21
9.135
  0
LINE
  8
0
 10
179.925
 11
180.319
 20
9.135
 21
8.863
  0
LINE
  8
0
 10
180.319
 11
180.541
 20
8.863
 21
8.439
  0
LINE
  8
0
 10
180.541
 11
180.541
 20
8.439
 21
7.961
  0
LINE
  8
0
 10
180.541
 11
180.319
 20
7.961
 21
7.537
  0
LINE
  8
0
 10
180.319
 11
179.925
 20
7.537
 21
7.265
  0
LINE
  8
0
 10
179.925
 11
179.449
 20
7.265
 21
7.207
  0
LINE
  8
0
 10
179.449
 11
179.002
 20
7.207
 21
7.377
  0
LINE
  8
0
 10
179.002
 11
178.685
 20
7.377
 21
7.735
  0
LINE
  8
0
 10
178.685
 11
178.57
 20
7.735
 21
8.2
  0
LINE
  8
0
 10
183.579
 11
183.579
 20
376.761
 21
377.239
  0
LINE
  8
0
 10
183.579
 11
183.801
 20
377.239
 21
377.663
  0
LINE
  8
0
 10
183.801
 11
184.195
 20
377.663
 21
377.935
  0
LINE
  8
0
 10
184.195
 11
184.671
 20
377.935
 21
377.993
  0
LINE
  8
0
 10
184.671
 11
185.118
 20
377.993
 21
377.823
  0
LINE
  8
0
 10
185.118
 11
185.435
 20
377.823
 21
377.465
  0
LINE
  8
0
 10
185.435
 11
185.55
 20
377.465
 21
377
  0
LINE
  8
0
 10
185.55
 11
185.435
 20
377
 21
376.535
  0
LINE
  8
0
 10
185.435
 11
185.118
 20
376.535
 21
376.177
  0
LINE
  8
0
 10
185.118
 11
184.671
 20
376.177
 21
376.007
  0
LINE
  8
0
 10
184.671
 11
184.195
 20
376.007
 21
376.065
  0
LINE
  8
0
 10
184.195
 11
183.801
 20
376.065
 21
376.337
  0
LINE
  8
0
 10
183.801
 11
183.579
 20
376.337
 21
376.761
  0
LINE
  8
0
 10
203.33
 11
203.445
 20
8.2
 21
8.665
  0
LINE
  8
0
 10
203.445
 11
203.762
 20
8.665
 21
9.023
  0
LINE
  8
0
 10
203.762
 11
204.209
 20
9.023
 21
9.193
  0
LINE
  8
0
 10
204.209
 11
204.685
 20
9.193
 21
9.135
  0
LINE
  8
0
 10
204.685
 11
205.079
 20
9.135
 21
8.863
  0
LINE
  8
0
 10
205.079
 11
205.301
 20
8.863
 21
8.439
  0
LINE
  8
0
 10
205.301
 11
205.301
 20
8.439
 21
7.961
  0
LINE
  8
0
 10
205.301
 11
205.079
 20
7.961
 21
7.537
  0
LINE
  8
0
 10
205.079
 11
204.685
 20
7.537
 21
7.265
  0
LINE
  8
0
 10
204.685
 11
204.209
 20
7.265
 21
7.207
  0
LINE
  8
0
 10
204.209
 11
203.762
 20
7.207
 21
7.377
  0
LINE
  8
0
 10
203.762
 11
203.445
 20
7.377
 21
7.735
  0
LINE
  8
0
 10
203.445
 11
203.33
 20
7.735
 21
8.2
  0
LINE
  8
0
 10
217.979
 11
217.979
 20
376.761
 21
377.239
  0
LINE
  8
0
 10
217.979
 11
218.201
 20
377.239
 21
377.663
  0
LINE
  8
0
 10
218.201
 11
218.595
 20
377.663
 21
377.935
  0
LINE
  8
0
 10
218.595
 11
219.071
 20
377.935
 21
377.993
  0
LINE
  8
0
 10
219.071
 11
219.518
 20
377.993
 21
377.823
  0
LINE
  8
0
 10
219.518
 11
219.835
 20
377.823
 21
377.465
  0
LINE
  8
0
 10
219.835
 11
219.95
 20
377.465
 21
377
  0
LINE
  8
0
 10
219.95
 11
219.835
 20
377
 21
376.535
  0
LINE
  8
0
 10
219.835
 11
219.518
 20
376.535
 21
376.177
  0
LINE
  8
0
 10
219.518
 11
219.071
 20
376.177
 21
376.007
  0
LINE
  8
0
 10
219.071
 11
218.595
 20
376.007
 21
376.065
  0
LINE
  8
0
 10
218.595
 11
218.201
 20
376.065
 21
376.337
  0
LINE
  8
0
 10
218.201
 11
217.979
 20
376.337
 21
376.761
  0
LINE
  8
0
 10
224.55
 11
224.665
 20
8.2
 21
8.665
  0
LINE
  8
0
 10
224.665
 11
224.982
 20
8.665
 21
9.023
  0
LINE
  8
0
 10
224.982
 11
225.429
 20
9.023
 21
9.193
  0
LINE
  8
0
 10
225.429
 11
225.905
 20
9.193
 21
9.135
  0
LINE
  8
0
 10
225.905
 11
226.299
 20
9.135
 21
8.863
  0
LINE
  8
0
 10
226.299
 11
226.521
 20
8.863
 21
8.439
  0
LINE
  8
0
 10
226.521
 11
226.521
 20
8.439
 21
7.961
  0
LINE
  8
0
 10
226.521
 11
226.299
 20
7.961
 21
7.537
  0
LINE
  8
0
 10
226.299
 11
225.905
 20
7.537
 21
7.265
  0
LINE
  8
0
 10
225.905
 11
225.429
 20
7.265
 21
7.207
  0
LINE
  8
0
 10
225.429
 11
224.982
 20
7.207
 21
7.377
  0
LINE
  8
0
 10
224.982
 11
224.665
 20
7.377
 21
7.735
  0
LINE
  8
0
 10
224.665
 11
224.55
 20
7.735
 21
8.2
  0
ENDSEC
  0
SECTION
  2
OBJECTS
  0
DICTIONARY
  0
ENDSEC
  0
EOF
