<?xml version="1.0"?>
<svg xmlns="http://www.w3.org/2000/svg" version="1.1" height="399mm" width="481mm" >
 <g style="fill-opacity:1.0; stroke:black; stroke-width:1;">
  <line x1="103.500000mm" y1="389.000000mm" x2="103.500000mm" y2="389.000000mm" />
  <line x1="103.500000mm" y1="389.000000mm" x2="0.000000mm" y2="389.000000mm" />
  <line x1="0.000000mm" y1="389.000000mm" x2="0.000000mm" y2="0.000000mm" />
  <line x1="0.000000mm" y1="0.000000mm" x2="470.500000mm" y2="0.000000mm" />
  <line x1="470.500000mm" y1="0.000000mm" x2="470.500000mm" y2="389.000000mm" />
  <line x1="470.500000mm" y1="389.000000mm" x2="353.500000mm" y2="389.000000mm" />
  <line x1="353.500000mm" y1="389.000000mm" x2="353.500000mm" y2="107.900000mm" />
  <line x1="353.500000mm" y1="107.900000mm" x2="353.475000mm" y2="107.402000mm" />
  <line x1="353.475000mm" y1="107.402000mm" x2="353.401000mm" y2="106.909000mm" />
  <line x1="353.401000mm" y1="106.909000mm" x2="353.278000mm" y2="106.426000mm" />
  <line x1="353.278000mm" y1="106.426000mm" x2="353.107000mm" y2="105.958000mm" />
  <line x1="353.107000mm" y1="105.958000mm" x2="352.891000mm" y2="105.509000mm" />
  <line x1="352.891000mm" y1="105.509000mm" x2="352.631000mm" y2="105.083000mm" />
  <line x1="352.631000mm" y1="105.083000mm" x2="352.330000mm" y2="104.686000mm" />
  <line x1="352.330000mm" y1="104.686000mm" x2="351.991000mm" y2="104.321000mm" />
  <line x1="351.991000mm" y1="104.321000mm" x2="351.617000mm" y2="103.991000mm" />
  <line x1="351.617000mm" y1="103.991000mm" x2="351.213000mm" y2="103.700000mm" />
  <line x1="351.213000mm" y1="103.700000mm" x2="350.781000mm" y2="103.451000mm" />
  <line x1="350.781000mm" y1="103.451000mm" x2="350.327000mm" y2="103.246000mm" />
  <line x1="350.327000mm" y1="103.246000mm" x2="349.854000mm" y2="103.087000mm" />
  <line x1="349.854000mm" y1="103.087000mm" x2="349.368000mm" y2="102.976000mm" />
  <line x1="349.368000mm" y1="102.976000mm" x2="348.874000mm" y2="102.914000mm" />
  <line x1="348.874000mm" y1="102.914000mm" x2="348.500000mm" y2="102.905000mm" />
  <line x1="348.500000mm" y1="102.905000mm" x2="348.500000mm" y2="102.900000mm" />
  <line x1="348.500000mm" y1="102.900000mm" x2="108.500000mm" y2="102.900000mm" />
  <line x1="108.500000mm" y1="102.900000mm" x2="108.500000mm" y2="102.905000mm" />
  <line x1="108.500000mm" y1="102.905000mm" x2="108.375000mm" y2="102.902000mm" />
  <line x1="108.375000mm" y1="102.902000mm" x2="107.878000mm" y2="102.939000mm" />
  <line x1="107.878000mm" y1="102.939000mm" x2="107.387000mm" y2="103.025000mm" />
  <line x1="107.387000mm" y1="103.025000mm" x2="106.908000mm" y2="103.160000mm" />
  <line x1="106.908000mm" y1="103.160000mm" x2="106.444000mm" y2="103.342000mm" />
  <line x1="106.444000mm" y1="103.342000mm" x2="106.000000mm" y2="103.570000mm" />
  <line x1="106.000000mm" y1="103.570000mm" x2="105.581000mm" y2="103.840000mm" />
  <line x1="105.581000mm" y1="103.840000mm" x2="105.192000mm" y2="104.151000mm" />
  <line x1="105.192000mm" y1="104.151000mm" x2="104.835000mm" y2="104.499000mm" />
  <line x1="104.835000mm" y1="104.499000mm" x2="104.514000mm" y2="104.881000mm" />
  <line x1="104.514000mm" y1="104.881000mm" x2="104.234000mm" y2="105.293000mm" />
  <line x1="104.234000mm" y1="105.293000mm" x2="103.995000mm" y2="105.731000mm" />
  <line x1="103.995000mm" y1="105.731000mm" x2="103.802000mm" y2="106.190000mm" />
  <line x1="103.802000mm" y1="106.190000mm" x2="103.655000mm" y2="106.666000mm" />
  <line x1="103.655000mm" y1="106.666000mm" x2="103.556000mm" y2="107.155000mm" />
  <line x1="103.556000mm" y1="107.155000mm" x2="103.506000mm" y2="107.651000mm" />
  <line x1="103.506000mm" y1="107.651000mm" x2="103.506000mm" y2="107.900000mm" />
  <line x1="103.506000mm" y1="107.900000mm" x2="103.500000mm" y2="107.900000mm" />
  <line x1="103.500000mm" y1="107.900000mm" x2="103.500000mm" y2="389.000000mm" />
  <circle cx="7.499659mm" cy="275.900016mm" r="1.000019mm" fill="none"/>
  <line x1="9.499698mm" y1="275.900016mm" x2="5.499621mm" y2="275.900016mm" />
  <line x1="7.499659mm" y1="273.899978mm" x2="7.499659mm" y2="277.900054mm" />
  <text x="8mm" y="274mm" font-size="24">
   2.0
  </text>
  <circle cx="7.499659mm" cy="234.500016mm" r="1.000019mm" fill="none"/>
  <line x1="9.499698mm" y1="234.500016mm" x2="5.499621mm" y2="234.500016mm" />
  <line x1="7.499659mm" y1="232.499978mm" x2="7.499659mm" y2="236.500054mm" />
  <text x="8mm" y="233mm" font-size="24">
   2.0
  </text>
  <circle cx="9.700371mm" cy="380.799769mm" r="1.000161mm" fill="none"/>
  <line x1="11.700692mm" y1="380.799769mm" x2="7.700050mm" y2="380.799769mm" />
  <line x1="9.700371mm" y1="378.799448mm" x2="9.700371mm" y2="382.800090mm" />
  <text x="10mm" y="379mm" font-size="24">
   2.0
  </text>
  <circle cx="16.499659mm" cy="328.000016mm" r="1.000019mm" fill="none"/>
  <line x1="18.499698mm" y1="328.000016mm" x2="14.499621mm" y2="328.000016mm" />
  <line x1="16.499659mm" y1="325.999978mm" x2="16.499659mm" y2="330.000054mm" />
  <text x="17mm" y="326mm" font-size="24">
   2.0
  </text>
  <circle cx="30.920371mm" cy="380.799769mm" r="1.000161mm" fill="none"/>
  <line x1="32.920692mm" y1="380.799769mm" x2="28.920050mm" y2="380.799769mm" />
  <line x1="30.920371mm" y1="378.799448mm" x2="30.920371mm" y2="382.800090mm" />
  <text x="31mm" y="379mm" font-size="24">
   2.0
  </text>
  <circle cx="34.499818mm" cy="316.000055mm" r="2.000011mm" fill="none"/>
  <line x1="38.499840mm" y1="316.000055mm" x2="30.499795mm" y2="316.000055mm" />
  <line x1="34.499818mm" y1="312.000033mm" x2="34.499818mm" y2="320.000077mm" />
  <text x="36mm" y="314mm" font-size="24">
   4.0
  </text>
  <circle cx="40.499818mm" cy="19.000055mm" r="2.000011mm" fill="none"/>
  <line x1="44.499840mm" y1="19.000055mm" x2="36.499795mm" y2="19.000055mm" />
  <line x1="40.499818mm" y1="15.000033mm" x2="40.499818mm" y2="23.000077mm" />
  <text x="42mm" y="17mm" font-size="24">
   4.0
  </text>
  <circle cx="40.500000mm" cy="8.499997mm" r="0.999978mm" fill="none"/>
  <line x1="42.499956mm" y1="8.499997mm" x2="38.500044mm" y2="8.499997mm" />
  <line x1="40.500000mm" y1="6.500041mm" x2="40.500000mm" y2="10.499953mm" />
  <text x="41mm" y="7mm" font-size="24">
   2.0
  </text>
  <circle cx="43.120170mm" cy="381.499939mm" r="2.500268mm" fill="none"/>
  <line x1="48.120707mm" y1="381.499939mm" x2="38.119633mm" y2="381.499939mm" />
  <line x1="43.120170mm" y1="376.499402mm" x2="43.120170mm" y2="386.500476mm" />
  <text x="45mm" y="378mm" font-size="24">
   5.0
  </text>
  <circle cx="48.499659mm" cy="328.000016mm" r="1.000019mm" fill="none"/>
  <line x1="50.499698mm" y1="328.000016mm" x2="46.499621mm" y2="328.000016mm" />
  <line x1="48.499659mm" y1="325.999978mm" x2="48.499659mm" y2="330.000054mm" />
  <text x="49mm" y="326mm" font-size="24">
   2.0
  </text>
  <circle cx="73.080371mm" cy="380.799769mm" r="1.000161mm" fill="none"/>
  <line x1="75.080692mm" y1="380.799769mm" x2="71.080050mm" y2="380.799769mm" />
  <line x1="73.080371mm" y1="378.799448mm" x2="73.080371mm" y2="382.800090mm" />
  <text x="74mm" y="379mm" font-size="24">
   2.0
  </text>
  <circle cx="73.500000mm" cy="8.499997mm" r="0.999978mm" fill="none"/>
  <line x1="75.499956mm" y1="8.499997mm" x2="71.500044mm" y2="8.499997mm" />
  <line x1="73.500000mm" y1="6.500041mm" x2="73.500000mm" y2="10.499953mm" />
  <text x="74mm" y="7mm" font-size="24">
   2.0
  </text>
  <circle cx="74.200066mm" cy="352.290138mm" r="1.000138mm" fill="none"/>
  <line x1="76.200342mm" y1="352.290138mm" x2="72.199790mm" y2="352.290138mm" />
  <line x1="74.200066mm" y1="350.289862mm" x2="74.200066mm" y2="354.290414mm" />
  <text x="75mm" y="351mm" font-size="24">
   2.0
  </text>
  <circle cx="74.200066mm" cy="36.710138mm" r="1.000138mm" fill="none"/>
  <line x1="76.200342mm" y1="36.710138mm" x2="72.199790mm" y2="36.710138mm" />
  <line x1="74.200066mm" y1="34.709862mm" x2="74.200066mm" y2="38.710414mm" />
  <text x="75mm" y="35mm" font-size="24">
   2.0
  </text>
  <circle cx="75.000000mm" cy="65.819997mm" r="0.999978mm" fill="none"/>
  <line x1="76.999956mm" y1="65.819997mm" x2="73.000044mm" y2="65.819997mm" />
  <line x1="75.000000mm" y1="63.820041mm" x2="75.000000mm" y2="67.819953mm" />
  <text x="75mm" y="64mm" font-size="24">
   2.0
  </text>
  <circle cx="94.300371mm" cy="380.799769mm" r="1.000161mm" fill="none"/>
  <line x1="96.300692mm" y1="380.799769mm" x2="92.300050mm" y2="380.799769mm" />
  <line x1="94.300371mm" y1="378.799448mm" x2="94.300371mm" y2="382.800090mm" />
  <text x="95mm" y="379mm" font-size="24">
   2.0
  </text>
  <line x1="120.010000mm" y1="386.248000mm" x2="120.010000mm" y2="386.248000mm" />
  <line x1="120.010000mm" y1="386.248000mm" x2="120.000000mm" y2="175.000000mm" />
  <line x1="120.000000mm" y1="175.000000mm" x2="120.041000mm" y2="174.506000mm" />
  <line x1="120.041000mm" y1="174.506000mm" x2="120.163000mm" y2="174.026000mm" />
  <line x1="120.163000mm" y1="174.026000mm" x2="120.362000mm" y2="173.572000mm" />
  <line x1="120.362000mm" y1="173.572000mm" x2="120.633000mm" y2="173.157000mm" />
  <line x1="120.633000mm" y1="173.157000mm" x2="120.968000mm" y2="172.793000mm" />
  <line x1="120.968000mm" y1="172.793000mm" x2="121.359000mm" y2="172.489000mm" />
  <line x1="121.359000mm" y1="172.489000mm" x2="121.795000mm" y2="172.253000mm" />
  <line x1="121.795000mm" y1="172.253000mm" x2="122.264000mm" y2="172.092000mm" />
  <line x1="122.264000mm" y1="172.092000mm" x2="122.752000mm" y2="172.010000mm" />
  <line x1="122.752000mm" y1="172.010000mm" x2="209.990000mm" y2="172.006000mm" />
  <line x1="209.990000mm" y1="172.006000mm" x2="209.990000mm" y2="177.000000mm" />
  <line x1="209.990000mm" y1="177.000000mm" x2="247.010000mm" y2="177.000000mm" />
  <line x1="247.010000mm" y1="177.000000mm" x2="247.010000mm" y2="172.004000mm" />
  <line x1="247.010000mm" y1="172.004000mm" x2="334.000000mm" y2="172.000000mm" />
  <line x1="334.000000mm" y1="172.000000mm" x2="334.494000mm" y2="172.041000mm" />
  <line x1="334.494000mm" y1="172.041000mm" x2="334.974000mm" y2="172.163000mm" />
  <line x1="334.974000mm" y1="172.163000mm" x2="335.428000mm" y2="172.362000mm" />
  <line x1="335.428000mm" y1="172.362000mm" x2="335.843000mm" y2="172.633000mm" />
  <line x1="335.843000mm" y1="172.633000mm" x2="336.207000mm" y2="172.968000mm" />
  <line x1="336.207000mm" y1="172.968000mm" x2="336.511000mm" y2="173.359000mm" />
  <line x1="336.511000mm" y1="173.359000mm" x2="336.747000mm" y2="173.795000mm" />
  <line x1="336.747000mm" y1="173.795000mm" x2="336.908000mm" y2="174.264000mm" />
  <line x1="336.908000mm" y1="174.264000mm" x2="336.990000mm" y2="174.752000mm" />
  <line x1="336.990000mm" y1="174.752000mm" x2="337.000000mm" y2="386.000000mm" />
  <line x1="337.000000mm" y1="386.000000mm" x2="336.959000mm" y2="386.494000mm" />
  <line x1="336.959000mm" y1="386.494000mm" x2="336.837000mm" y2="386.974000mm" />
  <line x1="336.837000mm" y1="386.974000mm" x2="336.638000mm" y2="387.428000mm" />
  <line x1="336.638000mm" y1="387.428000mm" x2="336.367000mm" y2="387.843000mm" />
  <line x1="336.367000mm" y1="387.843000mm" x2="336.032000mm" y2="388.207000mm" />
  <line x1="336.032000mm" y1="388.207000mm" x2="335.641000mm" y2="388.511000mm" />
  <line x1="335.641000mm" y1="388.511000mm" x2="335.205000mm" y2="388.747000mm" />
  <line x1="335.205000mm" y1="388.747000mm" x2="334.736000mm" y2="388.908000mm" />
  <line x1="334.736000mm" y1="388.908000mm" x2="334.248000mm" y2="388.990000mm" />
  <line x1="334.248000mm" y1="388.990000mm" x2="123.000000mm" y2="389.000000mm" />
  <line x1="123.000000mm" y1="389.000000mm" x2="122.506000mm" y2="388.959000mm" />
  <line x1="122.506000mm" y1="388.959000mm" x2="122.026000mm" y2="388.837000mm" />
  <line x1="122.026000mm" y1="388.837000mm" x2="121.572000mm" y2="388.638000mm" />
  <line x1="121.572000mm" y1="388.638000mm" x2="121.157000mm" y2="388.367000mm" />
  <line x1="121.157000mm" y1="388.367000mm" x2="120.793000mm" y2="388.032000mm" />
  <line x1="120.793000mm" y1="388.032000mm" x2="120.489000mm" y2="387.641000mm" />
  <line x1="120.489000mm" y1="387.641000mm" x2="120.253000mm" y2="387.205000mm" />
  <line x1="120.253000mm" y1="387.205000mm" x2="120.092000mm" y2="386.736000mm" />
  <line x1="120.092000mm" y1="386.736000mm" x2="120.010000mm" y2="386.248000mm" />
  <circle cx="124.000087mm" cy="385.000061mm" r="1.250061mm" fill="none"/>
  <line x1="126.500208mm" y1="385.000061mm" x2="121.499966mm" y2="385.000061mm" />
  <line x1="124.000087mm" y1="382.499939mm" x2="124.000087mm" y2="387.500182mm" />
  <text x="125mm" y="383mm" font-size="24">
   2.5
  </text>
  <circle cx="124.000087mm" cy="176.000061mm" r="1.250061mm" fill="none"/>
  <line x1="126.500208mm" y1="176.000061mm" x2="121.499966mm" y2="176.000061mm" />
  <line x1="124.000087mm" y1="173.499939mm" x2="124.000087mm" y2="178.500182mm" />
  <text x="125mm" y="174mm" font-size="24">
   2.5
  </text>
  <circle cx="125.499999mm" cy="369.499893mm" r="1.650220mm" fill="none"/>
  <line x1="128.800439mm" y1="369.499893mm" x2="122.199559mm" y2="369.499893mm" />
  <line x1="125.499999mm" y1="366.199453mm" x2="125.499999mm" y2="372.800333mm" />
  <text x="127mm" y="367mm" font-size="24">
   3.3
  </text>
  <circle cx="125.499999mm" cy="212.499893mm" r="1.650220mm" fill="none"/>
  <line x1="128.800439mm" y1="212.499893mm" x2="122.199559mm" y2="212.499893mm" />
  <line x1="125.499999mm" y1="209.199453mm" x2="125.499999mm" y2="215.800333mm" />
  <text x="127mm" y="210mm" font-size="24">
   3.3
  </text>
  <circle cx="156.499999mm" cy="348.499893mm" r="1.650220mm" fill="none"/>
  <line x1="159.800439mm" y1="348.499893mm" x2="153.199559mm" y2="348.499893mm" />
  <line x1="156.499999mm" y1="345.199453mm" x2="156.499999mm" y2="351.800333mm" />
  <text x="158mm" y="346mm" font-size="24">
   3.3
  </text>
  <circle cx="156.499999mm" cy="191.499893mm" r="1.650220mm" fill="none"/>
  <line x1="159.800439mm" y1="191.499893mm" x2="153.199559mm" y2="191.499893mm" />
  <line x1="156.499999mm" y1="188.199453mm" x2="156.499999mm" y2="194.800333mm" />
  <text x="158mm" y="189mm" font-size="24">
   3.3
  </text>
  <circle cx="196.989999mm" cy="334.174893mm" r="1.650220mm" fill="none"/>
  <line x1="200.290439mm" y1="334.174893mm" x2="193.689559mm" y2="334.174893mm" />
  <line x1="196.989999mm" y1="330.874453mm" x2="196.989999mm" y2="337.475333mm" />
  <text x="198mm" y="332mm" font-size="24">
   3.3
  </text>
  <circle cx="196.989999mm" cy="319.525893mm" r="1.650220mm" fill="none"/>
  <line x1="200.290439mm" y1="319.525893mm" x2="193.689559mm" y2="319.525893mm" />
  <line x1="196.989999mm" y1="316.225453mm" x2="196.989999mm" y2="322.826333mm" />
  <text x="198mm" y="317mm" font-size="24">
   3.3
  </text>
  <circle cx="196.989767mm" cy="244.324407mm" r="1.650015mm" fill="none"/>
  <line x1="200.289796mm" y1="244.324407mm" x2="193.689737mm" y2="244.324407mm" />
  <line x1="196.989767mm" y1="241.024377mm" x2="196.989767mm" y2="247.624436mm" />
  <text x="198mm" y="242mm" font-size="24">
   3.3
  </text>
  <circle cx="196.989767mm" cy="229.675407mm" r="1.650015mm" fill="none"/>
  <line x1="200.289796mm" y1="229.675407mm" x2="193.689737mm" y2="229.675407mm" />
  <line x1="196.989767mm" y1="226.375377mm" x2="196.989767mm" y2="232.975436mm" />
  <text x="198mm" y="228mm" font-size="24">
   3.3
  </text>
  <circle cx="207.839456mm" cy="182.000195mm" r="1.649827mm" fill="none"/>
  <line x1="211.139111mm" y1="182.000195mm" x2="204.539802mm" y2="182.000195mm" />
  <line x1="207.839456mm" y1="178.700541mm" x2="207.839456mm" y2="185.299849mm" />
  <text x="209mm" y="180mm" font-size="24">
   3.3
  </text>
  <circle cx="249.159456mm" cy="182.000195mm" r="1.649827mm" fill="none"/>
  <line x1="252.459111mm" y1="182.000195mm" x2="245.859802mm" y2="182.000195mm" />
  <line x1="249.159456mm" y1="178.700541mm" x2="249.159456mm" y2="185.299849mm" />
  <text x="250mm" y="180mm" font-size="24">
   3.3
  </text>
  <circle cx="300.499999mm" cy="290.999893mm" r="1.650220mm" fill="none"/>
  <line x1="303.800439mm" y1="290.999893mm" x2="297.199559mm" y2="290.999893mm" />
  <line x1="300.499999mm" y1="287.699453mm" x2="300.499999mm" y2="294.300333mm" />
  <text x="302mm" y="289mm" font-size="24">
   3.3
  </text>
  <circle cx="331.499999mm" cy="269.999893mm" r="1.650220mm" fill="none"/>
  <line x1="334.800439mm" y1="269.999893mm" x2="328.199559mm" y2="269.999893mm" />
  <line x1="331.499999mm" y1="266.699453mm" x2="331.499999mm" y2="273.300333mm" />
  <text x="333mm" y="268mm" font-size="24">
   3.3
  </text>
  <circle cx="333.000087mm" cy="385.000061mm" r="1.250061mm" fill="none"/>
  <line x1="335.500208mm" y1="385.000061mm" x2="330.499966mm" y2="385.000061mm" />
  <line x1="333.000087mm" y1="382.499939mm" x2="333.000087mm" y2="387.500182mm" />
  <text x="334mm" y="383mm" font-size="24">
   2.5
  </text>
  <circle cx="333.000087mm" cy="176.000061mm" r="1.250061mm" fill="none"/>
  <line x1="335.500208mm" y1="176.000061mm" x2="330.499966mm" y2="176.000061mm" />
  <line x1="333.000087mm" y1="173.499939mm" x2="333.000087mm" y2="178.500182mm" />
  <text x="334mm" y="174mm" font-size="24">
   2.5
  </text>
  <circle cx="359.500000mm" cy="8.499997mm" r="0.999978mm" fill="none"/>
  <line x1="361.499956mm" y1="8.499997mm" x2="357.500044mm" y2="8.499997mm" />
  <line x1="359.500000mm" y1="6.500041mm" x2="359.500000mm" y2="10.499953mm" />
  <text x="360mm" y="7mm" font-size="24">
   2.0
  </text>
  <circle cx="362.900000mm" cy="65.819997mm" r="0.999978mm" fill="none"/>
  <line x1="364.899956mm" y1="65.819997mm" x2="360.900044mm" y2="65.819997mm" />
  <line x1="362.900000mm" y1="63.820041mm" x2="362.900000mm" y2="67.819953mm" />
  <text x="363mm" y="64mm" font-size="24">
   2.0
  </text>
  <circle cx="363.700000mm" cy="352.289997mm" r="0.999978mm" fill="none"/>
  <line x1="365.699956mm" y1="352.289997mm" x2="361.700044mm" y2="352.289997mm" />
  <line x1="363.700000mm" y1="350.290041mm" x2="363.700000mm" y2="354.289953mm" />
  <text x="364mm" y="351mm" font-size="24">
   2.0
  </text>
  <circle cx="363.700000mm" cy="36.709997mm" r="0.999978mm" fill="none"/>
  <line x1="365.699956mm" y1="36.709997mm" x2="361.700044mm" y2="36.709997mm" />
  <line x1="363.700000mm" y1="34.710041mm" x2="363.700000mm" y2="38.709953mm" />
  <text x="364mm" y="35mm" font-size="24">
   2.0
  </text>
  <circle cx="377.499659mm" cy="328.000016mm" r="1.000019mm" fill="none"/>
  <line x1="379.499698mm" y1="328.000016mm" x2="375.499621mm" y2="328.000016mm" />
  <line x1="377.499659mm" y1="325.999978mm" x2="377.499659mm" y2="330.000054mm" />
  <text x="378mm" y="326mm" font-size="24">
   2.0
  </text>
  <circle cx="392.500000mm" cy="8.499997mm" r="0.999978mm" fill="none"/>
  <line x1="394.499956mm" y1="8.499997mm" x2="390.500044mm" y2="8.499997mm" />
  <line x1="392.500000mm" y1="6.500041mm" x2="392.500000mm" y2="10.499953mm" />
  <text x="393mm" y="7mm" font-size="24">
   2.0
  </text>
  <circle cx="393.600371mm" cy="380.799769mm" r="1.000161mm" fill="none"/>
  <line x1="395.600692mm" y1="380.799769mm" x2="391.600050mm" y2="380.799769mm" />
  <line x1="393.600371mm" y1="378.799448mm" x2="393.600371mm" y2="382.800090mm" />
  <text x="394mm" y="379mm" font-size="24">
   2.0
  </text>
  <circle cx="396.620170mm" cy="368.099939mm" r="2.500268mm" fill="none"/>
  <line x1="401.620707mm" y1="368.099939mm" x2="391.619633mm" y2="368.099939mm" />
  <line x1="396.620170mm" y1="363.099402mm" x2="396.620170mm" y2="373.100476mm" />
  <text x="399mm" y="365mm" font-size="24">
   5.0
  </text>
  <circle cx="409.499659mm" cy="328.000016mm" r="1.000019mm" fill="none"/>
  <line x1="411.499698mm" y1="328.000016mm" x2="407.499621mm" y2="328.000016mm" />
  <line x1="409.499659mm" y1="325.999978mm" x2="409.499659mm" y2="330.000054mm" />
  <text x="410mm" y="326mm" font-size="24">
   2.0
  </text>
  <circle cx="414.820371mm" cy="380.799769mm" r="1.000161mm" fill="none"/>
  <line x1="416.820692mm" y1="380.799769mm" x2="412.820050mm" y2="380.799769mm" />
  <line x1="414.820371mm" y1="378.799448mm" x2="414.820371mm" y2="382.800090mm" />
  <text x="415mm" y="379mm" font-size="24">
   2.0
  </text>
  <circle cx="419.799659mm" cy="12.000016mm" r="1.000019mm" fill="none"/>
  <line x1="421.799698mm" y1="12.000016mm" x2="417.799621mm" y2="12.000016mm" />
  <line x1="419.799659mm" y1="9.999978mm" x2="419.799659mm" y2="14.000054mm" />
  <text x="420mm" y="10mm" font-size="24">
   2.0
  </text>
  <circle cx="439.580371mm" cy="380.799769mm" r="1.000161mm" fill="none"/>
  <line x1="441.580692mm" y1="380.799769mm" x2="437.580050mm" y2="380.799769mm" />
  <line x1="439.580371mm" y1="378.799448mm" x2="439.580371mm" y2="382.800090mm" />
  <text x="440mm" y="379mm" font-size="24">
   2.0
  </text>
  <circle cx="454.199659mm" cy="12.000016mm" r="1.000019mm" fill="none"/>
  <line x1="456.199698mm" y1="12.000016mm" x2="452.199621mm" y2="12.000016mm" />
  <line x1="454.199659mm" y1="9.999978mm" x2="454.199659mm" y2="14.000054mm" />
  <text x="455mm" y="10mm" font-size="24">
   2.0
  </text>
  <circle cx="460.800371mm" cy="380.799769mm" r="1.000161mm" fill="none"/>
  <line x1="462.800692mm" y1="380.799769mm" x2="458.800050mm" y2="380.799769mm" />
  <line x1="460.800371mm" y1="378.799448mm" x2="460.800371mm" y2="382.800090mm" />
  <text x="461mm" y="379mm" font-size="24">
   2.0
  </text>
 </g>
</svg>
