  0
SECTION
  2
BLOCKS
  0
ENDSEC
  0
SECTION
  2
ENTITIES
  0
LINE
  8
0
 10
0
 11
0
 20
-158.5
 21
0
  0
LINE
  8
0
 10
0
 11
389
 20
0
 21
0
  0
LINE
  8
0
 10
389
 11
389
 20
0
 21
-158.5
  0
LINE
  8
0
 10
389
 11
0
 20
-158.5
 21
-158.5
  0
LINE
  8
0
 10
5
 11
5.036
 20
-94.1
 21
-93.602
  0
LINE
  8
0
 10
5.036
 11
5.142
 20
-93.602
 21
-93.114
  0
LINE
  8
0
 10
5.142
 11
5.316
 20
-93.114
 21
-92.646
  0
LINE
  8
0
 10
5.316
 11
5.556
 20
-92.646
 21
-92.208
  0
LINE
  8
0
 10
5.556
 11
5.855
 20
-92.208
 21
-91.808
  0
LINE
  8
0
 10
5.855
 11
6.208
 20
-91.808
 21
-91.455
  0
LINE
  8
0
 10
6.208
 11
6.608
 20
-91.455
 21
-91.156
  0
LINE
  8
0
 10
6.608
 11
7.046
 20
-91.156
 21
-90.916
  0
LINE
  8
0
 10
7.046
 11
7.514
 20
-90.916
 21
-90.742
  0
LINE
  8
0
 10
7.514
 11
8.002
 20
-90.742
 21
-90.636
  0
LINE
  8
0
 10
8.002
 11
8.5
 20
-90.636
 21
-90.6
  0
LINE
  8
0
 10
8.5
 11
8.998
 20
-90.6
 21
-90.636
  0
LINE
  8
0
 10
8.998
 11
9.486
 20
-90.636
 21
-90.742
  0
LINE
  8
0
 10
9.486
 11
9.954
 20
-90.742
 21
-90.916
  0
LINE
  8
0
 10
9.954
 11
10.392
 20
-90.916
 21
-91.156
  0
LINE
  8
0
 10
10.392
 11
10.792
 20
-91.156
 21
-91.455
  0
LINE
  8
0
 10
10.792
 11
11.145
 20
-91.455
 21
-91.808
  0
LINE
  8
0
 10
11.145
 11
11.444
 20
-91.808
 21
-92.208
  0
LINE
  8
0
 10
11.444
 11
11.684
 20
-92.208
 21
-92.646
  0
LINE
  8
0
 10
11.684
 11
11.858
 20
-92.646
 21
-93.114
  0
LINE
  8
0
 10
11.858
 11
11.964
 20
-93.114
 21
-93.602
  0
LINE
  8
0
 10
11.964
 11
12
 20
-93.602
 21
-94.1
  0
LINE
  8
0
 10
12
 11
11.964
 20
-94.1
 21
-94.598
  0
LINE
  8
0
 10
11.964
 11
11.858
 20
-94.598
 21
-95.086
  0
LINE
  8
0
 10
11.858
 11
11.684
 20
-95.086
 21
-95.554
  0
LINE
  8
0
 10
11.684
 11
11.444
 20
-95.554
 21
-95.992
  0
LINE
  8
0
 10
11.444
 11
11.145
 20
-95.992
 21
-96.392
  0
LINE
  8
0
 10
11.145
 11
10.792
 20
-96.392
 21
-96.745
  0
LINE
  8
0
 10
10.792
 11
10.392
 20
-96.745
 21
-97.044
  0
LINE
  8
0
 10
10.392
 11
9.954
 20
-97.044
 21
-97.284
  0
LINE
  8
0
 10
9.954
 11
9.486
 20
-97.284
 21
-97.458
  0
LINE
  8
0
 10
9.486
 11
8.998
 20
-97.458
 21
-97.564
  0
LINE
  8
0
 10
8.998
 11
8.5
 20
-97.564
 21
-97.6
  0
LINE
  8
0
 10
8.5
 11
8.002
 20
-97.6
 21
-97.564
  0
LINE
  8
0
 10
8.002
 11
7.514
 20
-97.564
 21
-97.458
  0
LINE
  8
0
 10
7.514
 11
7.046
 20
-97.458
 21
-97.284
  0
LINE
  8
0
 10
7.046
 11
6.608
 20
-97.284
 21
-97.044
  0
LINE
  8
0
 10
6.608
 11
6.208
 20
-97.044
 21
-96.745
  0
LINE
  8
0
 10
6.208
 11
5.855
 20
-96.745
 21
-96.392
  0
LINE
  8
0
 10
5.855
 11
5.556
 20
-96.392
 21
-95.992
  0
LINE
  8
0
 10
5.556
 11
5.316
 20
-95.992
 21
-95.554
  0
LINE
  8
0
 10
5.316
 11
5.142
 20
-95.554
 21
-95.086
  0
LINE
  8
0
 10
5.142
 11
5.036
 20
-95.086
 21
-94.598
  0
LINE
  8
0
 10
5.036
 11
5
 20
-94.598
 21
-94.1
  0
LINE
  8
0
 10
5
 11
5.048
 20
-18.9
 21
-18.412
  0
LINE
  8
0
 10
5.048
 11
5.19
 20
-18.412
 21
-17.943
  0
LINE
  8
0
 10
5.19
 11
5.421
 20
-17.943
 21
-17.511
  0
LINE
  8
0
 10
5.421
 11
5.732
 20
-17.511
 21
-17.132
  0
LINE
  8
0
 10
5.732
 11
6.111
 20
-17.132
 21
-16.821
  0
LINE
  8
0
 10
6.111
 11
6.543
 20
-16.821
 21
-16.59
  0
LINE
  8
0
 10
6.543
 11
7.012
 20
-16.59
 21
-16.448
  0
LINE
  8
0
 10
7.012
 11
7.5
 20
-16.448
 21
-16.4
  0
LINE
  8
0
 10
7.5
 11
7.988
 20
-16.4
 21
-16.448
  0
LINE
  8
0
 10
7.988
 11
8.457
 20
-16.448
 21
-16.59
  0
LINE
  8
0
 10
8.457
 11
8.889
 20
-16.59
 21
-16.821
  0
LINE
  8
0
 10
8.889
 11
9.268
 20
-16.821
 21
-17.132
  0
LINE
  8
0
 10
9.268
 11
9.579
 20
-17.132
 21
-17.511
  0
LINE
  8
0
 10
9.579
 11
9.81
 20
-17.511
 21
-17.943
  0
LINE
  8
0
 10
9.81
 11
9.952
 20
-17.943
 21
-18.412
  0
LINE
  8
0
 10
9.952
 11
10
 20
-18.412
 21
-18.9
  0
LINE
  8
0
 10
10
 11
9.952
 20
-18.9
 21
-19.388
  0
LINE
  8
0
 10
9.952
 11
9.81
 20
-19.388
 21
-19.857
  0
LINE
  8
0
 10
9.81
 11
9.579
 20
-19.857
 21
-20.289
  0
LINE
  8
0
 10
9.579
 11
9.268
 20
-20.289
 21
-20.668
  0
LINE
  8
0
 10
9.268
 11
8.889
 20
-20.668
 21
-20.979
  0
LINE
  8
0
 10
8.889
 11
8.457
 20
-20.979
 21
-21.21
  0
LINE
  8
0
 10
8.457
 11
7.988
 20
-21.21
 21
-21.352
  0
LINE
  8
0
 10
7.988
 11
7.5
 20
-21.352
 21
-21.4
  0
LINE
  8
0
 10
7.5
 11
7.012
 20
-21.4
 21
-21.352
  0
LINE
  8
0
 10
7.012
 11
6.543
 20
-21.352
 21
-21.21
  0
LINE
  8
0
 10
6.543
 11
6.111
 20
-21.21
 21
-20.979
  0
LINE
  8
0
 10
6.111
 11
5.732
 20
-20.979
 21
-20.668
  0
LINE
  8
0
 10
5.732
 11
5.421
 20
-20.668
 21
-20.289
  0
LINE
  8
0
 10
5.421
 11
5.19
 20
-20.289
 21
-19.857
  0
LINE
  8
0
 10
5.19
 11
5.048
 20
-19.857
 21
-19.388
  0
LINE
  8
0
 10
5.048
 11
5
 20
-19.388
 21
-18.9
  0
LINE
  8
0
 10
5.015
 11
5.015
 20
-82.141
 21
-81.659
  0
LINE
  8
0
 10
5.015
 11
5.13
 20
-81.659
 21
-81.191
  0
LINE
  8
0
 10
5.13
 11
5.354
 20
-81.191
 21
-80.764
  0
LINE
  8
0
 10
5.354
 11
5.674
 20
-80.764
 21
-80.403
  0
LINE
  8
0
 10
5.674
 11
6.071
 20
-80.403
 21
-80.129
  0
LINE
  8
0
 10
6.071
 11
6.521
 20
-80.129
 21
-79.958
  0
LINE
  8
0
 10
6.521
 11
7
 20
-79.958
 21
-79.9
  0
LINE
  8
0
 10
7
 11
7.479
 20
-79.9
 21
-79.958
  0
LINE
  8
0
 10
7.479
 11
7.929
 20
-79.958
 21
-80.129
  0
LINE
  8
0
 10
7.929
 11
8.326
 20
-80.129
 21
-80.403
  0
LINE
  8
0
 10
8.326
 11
8.646
 20
-80.403
 21
-80.764
  0
LINE
  8
0
 10
8.646
 11
8.87
 20
-80.764
 21
-81.191
  0
LINE
  8
0
 10
8.87
 11
8.985
 20
-81.191
 21
-81.659
  0
LINE
  8
0
 10
8.985
 11
8.985
 20
-81.659
 21
-82.141
  0
LINE
  8
0
 10
8.985
 11
8.87
 20
-82.141
 21
-82.609
  0
LINE
  8
0
 10
8.87
 11
8.646
 20
-82.609
 21
-83.036
  0
LINE
  8
0
 10
8.646
 11
8.326
 20
-83.036
 21
-83.397
  0
LINE
  8
0
 10
8.326
 11
7.929
 20
-83.397
 21
-83.671
  0
LINE
  8
0
 10
7.929
 11
7.479
 20
-83.671
 21
-83.842
  0
LINE
  8
0
 10
7.479
 11
7
 20
-83.842
 21
-83.9
  0
LINE
  8
0
 10
7
 11
6.521
 20
-83.9
 21
-83.842
  0
LINE
  8
0
 10
6.521
 11
6.071
 20
-83.842
 21
-83.671
  0
LINE
  8
0
 10
6.071
 11
5.674
 20
-83.671
 21
-83.397
  0
LINE
  8
0
 10
5.674
 11
5.354
 20
-83.397
 21
-83.036
  0
LINE
  8
0
 10
5.354
 11
5.13
 20
-83.036
 21
-82.609
  0
LINE
  8
0
 10
5.13
 11
5.015
 20
-82.609
 21
-82.141
  0
LINE
  8
0
 10
5.015
 11
5.015
 20
-28.641
 21
-28.159
  0
LINE
  8
0
 10
5.015
 11
5.13
 20
-28.159
 21
-27.691
  0
LINE
  8
0
 10
5.13
 11
5.354
 20
-27.691
 21
-27.264
  0
LINE
  8
0
 10
5.354
 11
5.674
 20
-27.264
 21
-26.903
  0
LINE
  8
0
 10
5.674
 11
6.071
 20
-26.903
 21
-26.629
  0
LINE
  8
0
 10
6.071
 11
6.521
 20
-26.629
 21
-26.458
  0
LINE
  8
0
 10
6.521
 11
7
 20
-26.458
 21
-26.4
  0
LINE
  8
0
 10
7
 11
7.479
 20
-26.4
 21
-26.458
  0
LINE
  8
0
 10
7.479
 11
7.929
 20
-26.458
 21
-26.629
  0
LINE
  8
0
 10
7.929
 11
8.326
 20
-26.629
 21
-26.903
  0
LINE
  8
0
 10
8.326
 11
8.646
 20
-26.903
 21
-27.264
  0
LINE
  8
0
 10
8.646
 11
8.87
 20
-27.264
 21
-27.691
  0
LINE
  8
0
 10
8.87
 11
8.985
 20
-27.691
 21
-28.159
  0
LINE
  8
0
 10
8.985
 11
8.985
 20
-28.159
 21
-28.641
  0
LINE
  8
0
 10
8.985
 11
8.87
 20
-28.641
 21
-29.109
  0
LINE
  8
0
 10
8.87
 11
8.646
 20
-29.109
 21
-29.536
  0
LINE
  8
0
 10
8.646
 11
8.326
 20
-29.536
 21
-29.897
  0
LINE
  8
0
 10
8.326
 11
7.929
 20
-29.897
 21
-30.171
  0
LINE
  8
0
 10
7.929
 11
7.479
 20
-30.171
 21
-30.342
  0
LINE
  8
0
 10
7.479
 11
7
 20
-30.342
 21
-30.4
  0
LINE
  8
0
 10
7
 11
6.521
 20
-30.4
 21
-30.342
  0
LINE
  8
0
 10
6.521
 11
6.071
 20
-30.342
 21
-30.171
  0
LINE
  8
0
 10
6.071
 11
5.674
 20
-30.171
 21
-29.897
  0
LINE
  8
0
 10
5.674
 11
5.354
 20
-29.897
 21
-29.536
  0
LINE
  8
0
 10
5.354
 11
5.13
 20
-29.536
 21
-29.109
  0
LINE
  8
0
 10
5.13
 11
5.015
 20
-29.109
 21
-28.641
  0
LINE
  8
0
 10
7.207
 11
7.377
 20
-148.679
 21
-148.232
  0
LINE
  8
0
 10
7.377
 11
7.735
 20
-148.232
 21
-147.915
  0
LINE
  8
0
 10
7.735
 11
8.2
 20
-147.915
 21
-147.8
  0
LINE
  8
0
 10
8.2
 11
8.665
 20
-147.8
 21
-147.915
  0
LINE
  8
0
 10
8.665
 11
9.023
 20
-147.915
 21
-148.232
  0
LINE
  8
0
 10
9.023
 11
9.193
 20
-148.232
 21
-148.679
  0
LINE
  8
0
 10
9.193
 11
9.135
 20
-148.679
 21
-149.155
  0
LINE
  8
0
 10
9.135
 11
8.863
 20
-149.155
 21
-149.549
  0
LINE
  8
0
 10
8.863
 11
8.439
 20
-149.549
 21
-149.771
  0
LINE
  8
0
 10
8.439
 11
7.961
 20
-149.771
 21
-149.771
  0
LINE
  8
0
 10
7.961
 11
7.537
 20
-149.771
 21
-149.549
  0
LINE
  8
0
 10
7.537
 11
7.265
 20
-149.549
 21
-149.155
  0
LINE
  8
0
 10
7.265
 11
7.207
 20
-149.155
 21
-148.679
  0
LINE
  8
0
 10
7.207
 11
7.377
 20
-127.459
 21
-127.012
  0
LINE
  8
0
 10
7.377
 11
7.735
 20
-127.012
 21
-126.695
  0
LINE
  8
0
 10
7.735
 11
8.2
 20
-126.695
 21
-126.58
  0
LINE
  8
0
 10
8.2
 11
8.665
 20
-126.58
 21
-126.695
  0
LINE
  8
0
 10
8.665
 11
9.023
 20
-126.695
 21
-127.012
  0
LINE
  8
0
 10
9.023
 11
9.193
 20
-127.012
 21
-127.459
  0
LINE
  8
0
 10
9.193
 11
9.135
 20
-127.459
 21
-127.935
  0
LINE
  8
0
 10
9.135
 11
8.863
 20
-127.935
 21
-128.329
  0
LINE
  8
0
 10
8.863
 11
8.439
 20
-128.329
 21
-128.551
  0
LINE
  8
0
 10
8.439
 11
7.961
 20
-128.551
 21
-128.551
  0
LINE
  8
0
 10
7.961
 11
7.537
 20
-128.551
 21
-128.329
  0
LINE
  8
0
 10
7.537
 11
7.265
 20
-128.329
 21
-127.935
  0
LINE
  8
0
 10
7.265
 11
7.207
 20
-127.935
 21
-127.459
  0
LINE
  8
0
 10
25.129
 11
25.129
 20
-8.439
 21
-7.961
  0
LINE
  8
0
 10
25.129
 11
25.351
 20
-7.961
 21
-7.537
  0
LINE
  8
0
 10
25.351
 11
25.745
 20
-7.537
 21
-7.265
  0
LINE
  8
0
 10
25.745
 11
26.221
 20
-7.265
 21
-7.207
  0
LINE
  8
0
 10
26.221
 11
26.668
 20
-7.207
 21
-7.377
  0
LINE
  8
0
 10
26.668
 11
26.985
 20
-7.377
 21
-7.735
  0
LINE
  8
0
 10
26.985
 11
27.1
 20
-7.735
 21
-8.2
  0
LINE
  8
0
 10
27.1
 11
26.985
 20
-8.2
 21
-8.665
  0
LINE
  8
0
 10
26.985
 11
26.668
 20
-8.665
 21
-9.023
  0
LINE
  8
0
 10
26.668
 11
26.221
 20
-9.023
 21
-9.193
  0
LINE
  8
0
 10
26.221
 11
25.745
 20
-9.193
 21
-9.135
  0
LINE
  8
0
 10
25.745
 11
25.351
 20
-9.135
 21
-8.863
  0
LINE
  8
0
 10
25.351
 11
25.129
 20
-8.863
 21
-8.439
  0
LINE
  8
0
 10
31.929
 11
31.929
 20
-151.739
 21
-151.261
  0
LINE
  8
0
 10
31.929
 11
32.151
 20
-151.261
 21
-150.837
  0
LINE
  8
0
 10
32.151
 11
32.545
 20
-150.837
 21
-150.565
  0
LINE
  8
0
 10
32.545
 11
33.021
 20
-150.565
 21
-150.507
  0
LINE
  8
0
 10
33.021
 11
33.468
 20
-150.507
 21
-150.677
  0
LINE
  8
0
 10
33.468
 11
33.785
 20
-150.677
 21
-151.035
  0
LINE
  8
0
 10
33.785
 11
33.9
 20
-151.035
 21
-151.5
  0
LINE
  8
0
 10
33.9
 11
33.785
 20
-151.5
 21
-151.965
  0
LINE
  8
0
 10
33.785
 11
33.468
 20
-151.965
 21
-152.323
  0
LINE
  8
0
 10
33.468
 11
33.021
 20
-152.323
 21
-152.493
  0
LINE
  8
0
 10
33.021
 11
32.545
 20
-152.493
 21
-152.435
  0
LINE
  8
0
 10
32.545
 11
32.151
 20
-152.435
 21
-152.163
  0
LINE
  8
0
 10
32.151
 11
31.929
 20
-152.163
 21
-151.739
  0
LINE
  8
0
 10
46.349
 11
46.349
 20
-8.439
 21
-7.961
  0
LINE
  8
0
 10
46.349
 11
46.571
 20
-7.961
 21
-7.537
  0
LINE
  8
0
 10
46.571
 11
46.965
 20
-7.537
 21
-7.265
  0
LINE
  8
0
 10
46.965
 11
47.441
 20
-7.265
 21
-7.207
  0
LINE
  8
0
 10
47.441
 11
47.888
 20
-7.207
 21
-7.377
  0
LINE
  8
0
 10
47.888
 11
48.205
 20
-7.377
 21
-7.735
  0
LINE
  8
0
 10
48.205
 11
48.32
 20
-7.735
 21
-8.2
  0
LINE
  8
0
 10
48.32
 11
48.205
 20
-8.2
 21
-8.665
  0
LINE
  8
0
 10
48.205
 11
47.888
 20
-8.665
 21
-9.023
  0
LINE
  8
0
 10
47.888
 11
47.441
 20
-9.023
 21
-9.193
  0
LINE
  8
0
 10
47.441
 11
46.965
 20
-9.193
 21
-9.135
  0
LINE
  8
0
 10
46.965
 11
46.571
 20
-9.135
 21
-8.863
  0
LINE
  8
0
 10
46.571
 11
46.349
 20
-8.863
 21
-8.439
  0
LINE
  8
0
 10
148.929
 11
148.929
 20
-151.739
 21
-151.261
  0
LINE
  8
0
 10
148.929
 11
149.151
 20
-151.261
 21
-150.837
  0
LINE
  8
0
 10
149.151
 11
149.545
 20
-150.837
 21
-150.565
  0
LINE
  8
0
 10
149.545
 11
150.021
 20
-150.565
 21
-150.507
  0
LINE
  8
0
 10
150.021
 11
150.468
 20
-150.507
 21
-150.677
  0
LINE
  8
0
 10
150.468
 11
150.785
 20
-150.677
 21
-151.035
  0
LINE
  8
0
 10
150.785
 11
150.9
 20
-151.035
 21
-151.5
  0
LINE
  8
0
 10
150.9
 11
150.785
 20
-151.5
 21
-151.965
  0
LINE
  8
0
 10
150.785
 11
150.468
 20
-151.965
 21
-152.323
  0
LINE
  8
0
 10
150.468
 11
150.021
 20
-152.323
 21
-152.493
  0
LINE
  8
0
 10
150.021
 11
149.545
 20
-152.493
 21
-152.435
  0
LINE
  8
0
 10
149.545
 11
149.151
 20
-152.435
 21
-152.163
  0
LINE
  8
0
 10
149.151
 11
148.929
 20
-152.163
 21
-151.739
  0
LINE
  8
0
 10
191.234
 11
191.234
 20
-144.189
 21
-143.711
  0
LINE
  8
0
 10
191.234
 11
191.493
 20
-143.711
 21
-143.308
  0
LINE
  8
0
 10
191.493
 11
191.929
 20
-143.308
 21
-143.109
  0
LINE
  8
0
 10
191.929
 11
192.403
 20
-143.109
 21
-143.177
  0
LINE
  8
0
 10
192.403
 11
192.765
 20
-143.177
 21
-143.49
  0
LINE
  8
0
 10
192.765
 11
192.9
 20
-143.49
 21
-143.95
  0
LINE
  8
0
 10
192.9
 11
192.765
 20
-143.95
 21
-144.41
  0
LINE
  8
0
 10
192.765
 11
192.403
 20
-144.41
 21
-144.723
  0
LINE
  8
0
 10
192.403
 11
191.929
 20
-144.723
 21
-144.791
  0
LINE
  8
0
 10
191.929
 11
191.493
 20
-144.791
 21
-144.592
  0
LINE
  8
0
 10
191.493
 11
191.234
 20
-144.592
 21
-144.189
  0
LINE
  8
0
 10
191.234
 11
191.234
 20
-112.689
 21
-112.211
  0
LINE
  8
0
 10
191.234
 11
191.493
 20
-112.211
 21
-111.808
  0
LINE
  8
0
 10
191.493
 11
191.929
 20
-111.808
 21
-111.609
  0
LINE
  8
0
 10
191.929
 11
192.403
 20
-111.609
 21
-111.677
  0
LINE
  8
0
 10
192.403
 11
192.765
 20
-111.677
 21
-111.99
  0
LINE
  8
0
 10
192.765
 11
192.9
 20
-111.99
 21
-112.45
  0
LINE
  8
0
 10
192.9
 11
192.765
 20
-112.45
 21
-112.91
  0
LINE
  8
0
 10
192.765
 11
192.403
 20
-112.91
 21
-113.223
  0
LINE
  8
0
 10
192.403
 11
191.929
 20
-113.223
 21
-113.291
  0
LINE
  8
0
 10
191.929
 11
191.493
 20
-113.291
 21
-113.092
  0
LINE
  8
0
 10
191.493
 11
191.234
 20
-113.092
 21
-112.689
  0
LINE
  8
0
 10
205.534
 11
205.534
 20
-128.289
 21
-127.811
  0
LINE
  8
0
 10
205.534
 11
205.793
 20
-127.811
 21
-127.408
  0
LINE
  8
0
 10
205.793
 11
206.229
 20
-127.408
 21
-127.209
  0
LINE
  8
0
 10
206.229
 11
206.703
 20
-127.209
 21
-127.277
  0
LINE
  8
0
 10
206.703
 11
207.065
 20
-127.277
 21
-127.59
  0
LINE
  8
0
 10
207.065
 11
207.2
 20
-127.59
 21
-128.05
  0
LINE
  8
0
 10
207.2
 11
207.065
 20
-128.05
 21
-128.51
  0
LINE
  8
0
 10
207.065
 11
206.703
 20
-128.51
 21
-128.823
  0
LINE
  8
0
 10
206.703
 11
206.229
 20
-128.823
 21
-128.891
  0
LINE
  8
0
 10
206.229
 11
205.793
 20
-128.891
 21
-128.692
  0
LINE
  8
0
 10
205.793
 11
205.534
 20
-128.692
 21
-128.289
  0
LINE
  8
0
 10
205.534
 11
205.534
 20
-96.789
 21
-96.311
  0
LINE
  8
0
 10
205.534
 11
205.793
 20
-96.311
 21
-95.908
  0
LINE
  8
0
 10
205.793
 11
206.229
 20
-95.908
 21
-95.709
  0
LINE
  8
0
 10
206.229
 11
206.703
 20
-95.709
 21
-95.777
  0
LINE
  8
0
 10
206.703
 11
207.065
 20
-95.777
 21
-96.09
  0
LINE
  8
0
 10
207.065
 11
207.2
 20
-96.09
 21
-96.55
  0
LINE
  8
0
 10
207.2
 11
207.065
 20
-96.55
 21
-97.01
  0
LINE
  8
0
 10
207.065
 11
206.703
 20
-97.01
 21
-97.323
  0
LINE
  8
0
 10
206.703
 11
206.229
 20
-97.323
 21
-97.391
  0
LINE
  8
0
 10
206.229
 11
205.793
 20
-97.391
 21
-97.192
  0
LINE
  8
0
 10
205.793
 11
205.534
 20
-97.192
 21
-96.789
  0
LINE
  8
0
 10
229.26
 11
229.355
 20
-105.44
 21
-104.962
  0
LINE
  8
0
 10
229.355
 11
229.626
 20
-104.962
 21
-104.556
  0
LINE
  8
0
 10
229.626
 11
230.032
 20
-104.556
 21
-104.285
  0
LINE
  8
0
 10
230.032
 11
230.51
 20
-104.285
 21
-104.19
  0
LINE
  8
0
 10
230.51
 11
230.988
 20
-104.19
 21
-104.285
  0
LINE
  8
0
 10
230.988
 11
231.394
 20
-104.285
 21
-104.556
  0
LINE
  8
0
 10
231.394
 11
231.665
 20
-104.556
 21
-104.962
  0
LINE
  8
0
 10
231.665
 11
231.76
 20
-104.962
 21
-105.44
  0
LINE
  8
0
 10
231.76
 11
231.665
 20
-105.44
 21
-105.918
  0
LINE
  8
0
 10
231.665
 11
231.394
 20
-105.918
 21
-106.324
  0
LINE
  8
0
 10
231.394
 11
230.988
 20
-106.324
 21
-106.595
  0
LINE
  8
0
 10
230.988
 11
230.51
 20
-106.595
 21
-106.69
  0
LINE
  8
0
 10
230.51
 11
230.032
 20
-106.69
 21
-106.595
  0
LINE
  8
0
 10
230.032
 11
229.626
 20
-106.595
 21
-106.324
  0
LINE
  8
0
 10
229.626
 11
229.355
 20
-106.324
 21
-105.918
  0
LINE
  8
0
 10
229.355
 11
229.26
 20
-105.918
 21
-105.44
  0
LINE
  8
0
 10
229.26
 11
229.355
 20
-53.06
 21
-52.582
  0
LINE
  8
0
 10
229.355
 11
229.626
 20
-52.582
 21
-52.176
  0
LINE
  8
0
 10
229.626
 11
230.032
 20
-52.176
 21
-51.905
  0
LINE
  8
0
 10
230.032
 11
230.51
 20
-51.905
 21
-51.81
  0
LINE
  8
0
 10
230.51
 11
230.988
 20
-51.81
 21
-51.905
  0
LINE
  8
0
 10
230.988
 11
231.394
 20
-51.905
 21
-52.176
  0
LINE
  8
0
 10
231.394
 11
231.665
 20
-52.176
 21
-52.582
  0
LINE
  8
0
 10
231.665
 11
231.76
 20
-52.582
 21
-53.06
  0
LINE
  8
0
 10
231.76
 11
231.665
 20
-53.06
 21
-53.538
  0
LINE
  8
0
 10
231.665
 11
231.394
 20
-53.538
 21
-53.944
  0
LINE
  8
0
 10
231.394
 11
230.988
 20
-53.944
 21
-54.215
  0
LINE
  8
0
 10
230.988
 11
230.51
 20
-54.215
 21
-54.31
  0
LINE
  8
0
 10
230.51
 11
230.032
 20
-54.31
 21
-54.215
  0
LINE
  8
0
 10
230.032
 11
229.626
 20
-54.215
 21
-53.944
  0
LINE
  8
0
 10
229.626
 11
229.355
 20
-53.944
 21
-53.538
  0
LINE
  8
0
 10
229.355
 11
229.26
 20
-53.538
 21
-53.06
  0
LINE
  8
0
 10
287.512
 11
287.626
 20
-32.1
 21
-31.635
  0
LINE
  8
0
 10
287.626
 11
287.944
 20
-31.635
 21
-31.277
  0
LINE
  8
0
 10
287.944
 11
288.391
 20
-31.277
 21
-31.107
  0
LINE
  8
0
 10
288.391
 11
288.866
 20
-31.107
 21
-31.165
  0
LINE
  8
0
 10
288.866
 11
289.26
 20
-31.165
 21
-31.437
  0
LINE
  8
0
 10
289.26
 11
289.483
 20
-31.437
 21
-31.861
  0
LINE
  8
0
 10
289.483
 11
289.483
 20
-31.861
 21
-32.339
  0
LINE
  8
0
 10
289.483
 11
289.26
 20
-32.339
 21
-32.763
  0
LINE
  8
0
 10
289.26
 11
288.866
 20
-32.763
 21
-33.035
  0
LINE
  8
0
 10
288.866
 11
288.391
 20
-33.035
 21
-33.093
  0
LINE
  8
0
 10
288.391
 11
287.944
 20
-33.093
 21
-32.923
  0
LINE
  8
0
 10
287.944
 11
287.626
 20
-32.923
 21
-32.565
  0
LINE
  8
0
 10
287.626
 11
287.512
 20
-32.565
 21
-32.1
  0
LINE
  8
0
 10
314.08
 11
314.121
 20
-8
 21
-7.506
  0
LINE
  8
0
 10
314.121
 11
314.243
 20
-7.506
 21
-7.026
  0
LINE
  8
0
 10
314.243
 11
314.442
 20
-7.026
 21
-6.572
  0
LINE
  8
0
 10
314.442
 11
314.713
 20
-6.572
 21
-6.157
  0
LINE
  8
0
 10
314.713
 11
315.048
 20
-6.157
 21
-5.793
  0
LINE
  8
0
 10
315.048
 11
315.439
 20
-5.793
 21
-5.489
  0
LINE
  8
0
 10
315.439
 11
315.875
 20
-5.489
 21
-5.253
  0
LINE
  8
0
 10
315.875
 11
316.344
 20
-5.253
 21
-5.092
  0
LINE
  8
0
 10
316.344
 11
316.832
 20
-5.092
 21
-5.01
  0
LINE
  8
0
 10
316.832
 11
317.328
 20
-5.01
 21
-5.01
  0
LINE
  8
0
 10
317.328
 11
317.816
 20
-5.01
 21
-5.092
  0
LINE
  8
0
 10
317.816
 11
318.285
 20
-5.092
 21
-5.253
  0
LINE
  8
0
 10
318.285
 11
318.721
 20
-5.253
 21
-5.489
  0
LINE
  8
0
 10
318.721
 11
319.112
 20
-5.489
 21
-5.793
  0
LINE
  8
0
 10
319.112
 11
319.447
 20
-5.793
 21
-6.157
  0
LINE
  8
0
 10
319.447
 11
319.718
 20
-6.157
 21
-6.572
  0
LINE
  8
0
 10
319.718
 11
319.917
 20
-6.572
 21
-7.026
  0
LINE
  8
0
 10
319.917
 11
320.039
 20
-7.026
 21
-7.506
  0
LINE
  8
0
 10
320.039
 11
320.08
 20
-7.506
 21
-8
  0
LINE
  8
0
 10
320.08
 11
320.039
 20
-8
 21
-8.494
  0
LINE
  8
0
 10
320.039
 11
319.917
 20
-8.494
 21
-8.974
  0
LINE
  8
0
 10
319.917
 11
319.718
 20
-8.974
 21
-9.428
  0
LINE
  8
0
 10
319.718
 11
319.447
 20
-9.428
 21
-9.843
  0
LINE
  8
0
 10
319.447
 11
319.112
 20
-9.843
 21
-10.207
  0
LINE
  8
0
 10
319.112
 11
318.721
 20
-10.207
 21
-10.511
  0
LINE
  8
0
 10
318.721
 11
318.285
 20
-10.511
 21
-10.747
  0
LINE
  8
0
 10
318.285
 11
317.816
 20
-10.747
 21
-10.908
  0
LINE
  8
0
 10
317.816
 11
317.328
 20
-10.908
 21
-10.99
  0
LINE
  8
0
 10
317.328
 11
316.832
 20
-10.99
 21
-10.99
  0
LINE
  8
0
 10
316.832
 11
316.344
 20
-10.99
 21
-10.908
  0
LINE
  8
0
 10
316.344
 11
315.875
 20
-10.908
 21
-10.747
  0
LINE
  8
0
 10
315.875
 11
315.439
 20
-10.747
 21
-10.511
  0
LINE
  8
0
 10
315.439
 11
315.048
 20
-10.511
 21
-10.207
  0
LINE
  8
0
 10
315.048
 11
314.713
 20
-10.207
 21
-9.843
  0
LINE
  8
0
 10
314.713
 11
314.442
 20
-9.843
 21
-9.428
  0
LINE
  8
0
 10
314.442
 11
314.243
 20
-9.428
 21
-8.974
  0
LINE
  8
0
 10
314.243
 11
314.121
 20
-8.974
 21
-8.494
  0
LINE
  8
0
 10
314.121
 11
314.08
 20
-8.494
 21
-8
  0
LINE
  8
0
 10
323.64
 11
323.735
 20
-105.44
 21
-104.962
  0
LINE
  8
0
 10
323.735
 11
324.006
 20
-104.962
 21
-104.556
  0
LINE
  8
0
 10
324.006
 11
324.412
 20
-104.556
 21
-104.285
  0
LINE
  8
0
 10
324.412
 11
324.89
 20
-104.285
 21
-104.19
  0
LINE
  8
0
 10
324.89
 11
325.368
 20
-104.19
 21
-104.285
  0
LINE
  8
0
 10
325.368
 11
325.774
 20
-104.285
 21
-104.556
  0
LINE
  8
0
 10
325.774
 11
326.045
 20
-104.556
 21
-104.962
  0
LINE
  8
0
 10
326.045
 11
326.14
 20
-104.962
 21
-105.44
  0
LINE
  8
0
 10
326.14
 11
326.045
 20
-105.44
 21
-105.918
  0
LINE
  8
0
 10
326.045
 11
325.774
 20
-105.918
 21
-106.324
  0
LINE
  8
0
 10
325.774
 11
325.368
 20
-106.324
 21
-106.595
  0
LINE
  8
0
 10
325.368
 11
324.89
 20
-106.595
 21
-106.69
  0
LINE
  8
0
 10
324.89
 11
324.412
 20
-106.69
 21
-106.595
  0
LINE
  8
0
 10
324.412
 11
324.006
 20
-106.595
 21
-106.324
  0
LINE
  8
0
 10
324.006
 11
323.735
 20
-106.324
 21
-105.918
  0
LINE
  8
0
 10
323.735
 11
323.64
 20
-105.918
 21
-105.44
  0
LINE
  8
0
 10
323.64
 11
323.735
 20
-53.06
 21
-52.582
  0
LINE
  8
0
 10
323.735
 11
324.006
 20
-52.582
 21
-52.176
  0
LINE
  8
0
 10
324.006
 11
324.412
 20
-52.176
 21
-51.905
  0
LINE
  8
0
 10
324.412
 11
324.89
 20
-51.905
 21
-51.81
  0
LINE
  8
0
 10
324.89
 11
325.368
 20
-51.81
 21
-51.905
  0
LINE
  8
0
 10
325.368
 11
325.774
 20
-51.905
 21
-52.176
  0
LINE
  8
0
 10
325.774
 11
326.045
 20
-52.176
 21
-52.582
  0
LINE
  8
0
 10
326.045
 11
326.14
 20
-52.582
 21
-53.06
  0
LINE
  8
0
 10
326.14
 11
326.045
 20
-53.06
 21
-53.538
  0
LINE
  8
0
 10
326.045
 11
325.774
 20
-53.538
 21
-53.944
  0
LINE
  8
0
 10
325.774
 11
325.368
 20
-53.944
 21
-54.215
  0
LINE
  8
0
 10
325.368
 11
324.89
 20
-54.215
 21
-54.31
  0
LINE
  8
0
 10
324.89
 11
324.412
 20
-54.31
 21
-54.215
  0
LINE
  8
0
 10
324.412
 11
324.006
 20
-54.215
 21
-53.944
  0
LINE
  8
0
 10
324.006
 11
323.735
 20
-53.944
 21
-53.538
  0
LINE
  8
0
 10
323.735
 11
323.64
 20
-53.538
 21
-53.06
  0
LINE
  8
0
 10
326.58
 11
326.638
 20
-7
 21
-6.521
  0
LINE
  8
0
 10
326.638
 11
326.809
 20
-6.521
 21
-6.071
  0
LINE
  8
0
 10
326.809
 11
327.083
 20
-6.071
 21
-5.674
  0
LINE
  8
0
 10
327.083
 11
327.444
 20
-5.674
 21
-5.354
  0
LINE
  8
0
 10
327.444
 11
327.871
 20
-5.354
 21
-5.13
  0
LINE
  8
0
 10
327.871
 11
328.339
 20
-5.13
 21
-5.015
  0
LINE
  8
0
 10
328.339
 11
328.821
 20
-5.015
 21
-5.015
  0
LINE
  8
0
 10
328.821
 11
329.289
 20
-5.015
 21
-5.13
  0
LINE
  8
0
 10
329.289
 11
329.716
 20
-5.13
 21
-5.354
  0
LINE
  8
0
 10
329.716
 11
330.077
 20
-5.354
 21
-5.674
  0
LINE
  8
0
 10
330.077
 11
330.351
 20
-5.674
 21
-6.071
  0
LINE
  8
0
 10
330.351
 11
330.522
 20
-6.071
 21
-6.521
  0
LINE
  8
0
 10
330.522
 11
330.58
 20
-6.521
 21
-7
  0
LINE
  8
0
 10
330.58
 11
330.522
 20
-7
 21
-7.479
  0
LINE
  8
0
 10
330.522
 11
330.351
 20
-7.479
 21
-7.929
  0
LINE
  8
0
 10
330.351
 11
330.077
 20
-7.929
 21
-8.326
  0
LINE
  8
0
 10
330.077
 11
329.716
 20
-8.326
 21
-8.646
  0
LINE
  8
0
 10
329.716
 11
329.289
 20
-8.646
 21
-8.87
  0
LINE
  8
0
 10
329.289
 11
328.821
 20
-8.87
 21
-8.985
  0
LINE
  8
0
 10
328.821
 11
328.339
 20
-8.985
 21
-8.985
  0
LINE
  8
0
 10
328.339
 11
327.871
 20
-8.985
 21
-8.87
  0
LINE
  8
0
 10
327.871
 11
327.444
 20
-8.87
 21
-8.646
  0
LINE
  8
0
 10
327.444
 11
327.083
 20
-8.646
 21
-8.326
  0
LINE
  8
0
 10
327.083
 11
326.809
 20
-8.326
 21
-7.929
  0
LINE
  8
0
 10
326.809
 11
326.638
 20
-7.929
 21
-7.479
  0
LINE
  8
0
 10
326.638
 11
326.58
 20
-7.479
 21
-7
  0
LINE
  8
0
 10
340.709
 11
340.709
 20
-8.439
 21
-7.961
  0
LINE
  8
0
 10
340.709
 11
340.931
 20
-7.961
 21
-7.537
  0
LINE
  8
0
 10
340.931
 11
341.325
 20
-7.537
 21
-7.265
  0
LINE
  8
0
 10
341.325
 11
341.801
 20
-7.265
 21
-7.207
  0
LINE
  8
0
 10
341.801
 11
342.248
 20
-7.207
 21
-7.377
  0
LINE
  8
0
 10
342.248
 11
342.565
 20
-7.377
 21
-7.735
  0
LINE
  8
0
 10
342.565
 11
342.68
 20
-7.735
 21
-8.2
  0
LINE
  8
0
 10
342.68
 11
342.565
 20
-8.2
 21
-8.665
  0
LINE
  8
0
 10
342.565
 11
342.248
 20
-8.665
 21
-9.023
  0
LINE
  8
0
 10
342.248
 11
341.801
 20
-9.023
 21
-9.193
  0
LINE
  8
0
 10
341.801
 11
341.325
 20
-9.193
 21
-9.135
  0
LINE
  8
0
 10
341.325
 11
340.931
 20
-9.135
 21
-8.863
  0
LINE
  8
0
 10
340.931
 11
340.709
 20
-8.863
 21
-8.439
  0
LINE
  8
0
 10
361.929
 11
361.929
 20
-8.439
 21
-7.961
  0
LINE
  8
0
 10
361.929
 11
362.151
 20
-7.961
 21
-7.537
  0
LINE
  8
0
 10
362.151
 11
362.545
 20
-7.537
 21
-7.265
  0
LINE
  8
0
 10
362.545
 11
363.021
 20
-7.265
 21
-7.207
  0
LINE
  8
0
 10
363.021
 11
363.468
 20
-7.207
 21
-7.377
  0
LINE
  8
0
 10
363.468
 11
363.785
 20
-7.377
 21
-7.735
  0
LINE
  8
0
 10
363.785
 11
363.9
 20
-7.735
 21
-8.2
  0
LINE
  8
0
 10
363.9
 11
363.785
 20
-8.2
 21
-8.665
  0
LINE
  8
0
 10
363.785
 11
363.468
 20
-8.665
 21
-9.023
  0
LINE
  8
0
 10
363.468
 11
363.021
 20
-9.023
 21
-9.193
  0
LINE
  8
0
 10
363.021
 11
362.545
 20
-9.193
 21
-9.135
  0
LINE
  8
0
 10
362.545
 11
362.151
 20
-9.135
 21
-8.863
  0
LINE
  8
0
 10
362.151
 11
361.929
 20
-8.863
 21
-8.439
  0
ENDSEC
  0
SECTION
  2
OBJECTS
  0
DICTIONARY
  0
ENDSEC
  0
EOF
