  0
SECTION
  2
BLOCKS
  0
ENDSEC
  0
SECTION
  2
ENTITIES
  0
LINE
  8
0
 10
5
 11
5.036
 20
-94.1
 21
-93.602
  0
LINE
  8
0
 10
5.036
 11
5.142
 20
-93.602
 21
-93.114
  0
LINE
  8
0
 10
5.142
 11
5.316
 20
-93.114
 21
-92.646
  0
LINE
  8
0
 10
5.316
 11
5.556
 20
-92.646
 21
-92.208
  0
LINE
  8
0
 10
5.556
 11
5.855
 20
-92.208
 21
-91.808
  0
LINE
  8
0
 10
5.855
 11
6.208
 20
-91.808
 21
-91.455
  0
LINE
  8
0
 10
6.208
 11
6.608
 20
-91.455
 21
-91.156
  0
LINE
  8
0
 10
6.608
 11
7.046
 20
-91.156
 21
-90.916
  0
LINE
  8
0
 10
7.046
 11
7.514
 20
-90.916
 21
-90.742
  0
LINE
  8
0
 10
7.514
 11
8.002
 20
-90.742
 21
-90.636
  0
LINE
  8
0
 10
8.002
 11
8.5
 20
-90.636
 21
-90.6
  0
LINE
  8
0
 10
8.5
 11
8.998
 20
-90.6
 21
-90.636
  0
LINE
  8
0
 10
8.998
 11
9.486
 20
-90.636
 21
-90.742
  0
LINE
  8
0
 10
9.486
 11
9.954
 20
-90.742
 21
-90.916
  0
LINE
  8
0
 10
9.954
 11
10.392
 20
-90.916
 21
-91.156
  0
LINE
  8
0
 10
10.392
 11
10.792
 20
-91.156
 21
-91.455
  0
LINE
  8
0
 10
10.792
 11
11.145
 20
-91.455
 21
-91.808
  0
LINE
  8
0
 10
11.145
 11
11.444
 20
-91.808
 21
-92.208
  0
LINE
  8
0
 10
11.444
 11
11.684
 20
-92.208
 21
-92.646
  0
LINE
  8
0
 10
11.684
 11
11.858
 20
-92.646
 21
-93.114
  0
LINE
  8
0
 10
11.858
 11
11.964
 20
-93.114
 21
-93.602
  0
LINE
  8
0
 10
11.964
 11
12
 20
-93.602
 21
-94.1
  0
LINE
  8
0
 10
12
 11
11.964
 20
-94.1
 21
-94.598
  0
LINE
  8
0
 10
11.964
 11
11.858
 20
-94.598
 21
-95.086
  0
LINE
  8
0
 10
11.858
 11
11.684
 20
-95.086
 21
-95.554
  0
LINE
  8
0
 10
11.684
 11
11.444
 20
-95.554
 21
-95.992
  0
LINE
  8
0
 10
11.444
 11
11.145
 20
-95.992
 21
-96.392
  0
LINE
  8
0
 10
11.145
 11
10.792
 20
-96.392
 21
-96.745
  0
LINE
  8
0
 10
10.792
 11
10.392
 20
-96.745
 21
-97.044
  0
LINE
  8
0
 10
10.392
 11
9.954
 20
-97.044
 21
-97.284
  0
LINE
  8
0
 10
9.954
 11
9.486
 20
-97.284
 21
-97.458
  0
LINE
  8
0
 10
9.486
 11
8.998
 20
-97.458
 21
-97.564
  0
LINE
  8
0
 10
8.998
 11
8.5
 20
-97.564
 21
-97.6
  0
LINE
  8
0
 10
8.5
 11
8.002
 20
-97.6
 21
-97.564
  0
LINE
  8
0
 10
8.002
 11
7.514
 20
-97.564
 21
-97.458
  0
LINE
  8
0
 10
7.514
 11
7.046
 20
-97.458
 21
-97.284
  0
LINE
  8
0
 10
7.046
 11
6.608
 20
-97.284
 21
-97.044
  0
LINE
  8
0
 10
6.608
 11
6.208
 20
-97.044
 21
-96.745
  0
LINE
  8
0
 10
6.208
 11
5.855
 20
-96.745
 21
-96.392
  0
LINE
  8
0
 10
5.855
 11
5.556
 20
-96.392
 21
-95.992
  0
LINE
  8
0
 10
5.556
 11
5.316
 20
-95.992
 21
-95.554
  0
LINE
  8
0
 10
5.316
 11
5.142
 20
-95.554
 21
-95.086
  0
LINE
  8
0
 10
5.142
 11
5.036
 20
-95.086
 21
-94.598
  0
LINE
  8
0
 10
5.036
 11
5
 20
-94.598
 21
-94.1
  0
LINE
  8
0
 10
5
 11
5.048
 20
-18.9
 21
-18.412
  0
LINE
  8
0
 10
5.048
 11
5.19
 20
-18.412
 21
-17.943
  0
LINE
  8
0
 10
5.19
 11
5.421
 20
-17.943
 21
-17.511
  0
LINE
  8
0
 10
5.421
 11
5.732
 20
-17.511
 21
-17.132
  0
LINE
  8
0
 10
5.732
 11
6.111
 20
-17.132
 21
-16.821
  0
LINE
  8
0
 10
6.111
 11
6.543
 20
-16.821
 21
-16.59
  0
LINE
  8
0
 10
6.543
 11
7.012
 20
-16.59
 21
-16.448
  0
LINE
  8
0
 10
7.012
 11
7.5
 20
-16.448
 21
-16.4
  0
LINE
  8
0
 10
7.5
 11
7.988
 20
-16.4
 21
-16.448
  0
LINE
  8
0
 10
7.988
 11
8.457
 20
-16.448
 21
-16.59
  0
LINE
  8
0
 10
8.457
 11
8.889
 20
-16.59
 21
-16.821
  0
LINE
  8
0
 10
8.889
 11
9.268
 20
-16.821
 21
-17.132
  0
LINE
  8
0
 10
9.268
 11
9.579
 20
-17.132
 21
-17.511
  0
LINE
  8
0
 10
9.579
 11
9.81
 20
-17.511
 21
-17.943
  0
LINE
  8
0
 10
9.81
 11
9.952
 20
-17.943
 21
-18.412
  0
LINE
  8
0
 10
9.952
 11
10
 20
-18.412
 21
-18.9
  0
LINE
  8
0
 10
10
 11
9.952
 20
-18.9
 21
-19.388
  0
LINE
  8
0
 10
9.952
 11
9.81
 20
-19.388
 21
-19.857
  0
LINE
  8
0
 10
9.81
 11
9.579
 20
-19.857
 21
-20.289
  0
LINE
  8
0
 10
9.579
 11
9.268
 20
-20.289
 21
-20.668
  0
LINE
  8
0
 10
9.268
 11
8.889
 20
-20.668
 21
-20.979
  0
LINE
  8
0
 10
8.889
 11
8.457
 20
-20.979
 21
-21.21
  0
LINE
  8
0
 10
8.457
 11
7.988
 20
-21.21
 21
-21.352
  0
LINE
  8
0
 10
7.988
 11
7.5
 20
-21.352
 21
-21.4
  0
LINE
  8
0
 10
7.5
 11
7.012
 20
-21.4
 21
-21.352
  0
LINE
  8
0
 10
7.012
 11
6.543
 20
-21.352
 21
-21.21
  0
LINE
  8
0
 10
6.543
 11
6.111
 20
-21.21
 21
-20.979
  0
LINE
  8
0
 10
6.111
 11
5.732
 20
-20.979
 21
-20.668
  0
LINE
  8
0
 10
5.732
 11
5.421
 20
-20.668
 21
-20.289
  0
LINE
  8
0
 10
5.421
 11
5.19
 20
-20.289
 21
-19.857
  0
LINE
  8
0
 10
5.19
 11
5.048
 20
-19.857
 21
-19.388
  0
LINE
  8
0
 10
5.048
 11
5
 20
-19.388
 21
-18.9
  0
LINE
  8
0
 10
5.015
 11
5.015
 20
-82.141
 21
-81.659
  0
LINE
  8
0
 10
5.015
 11
5.13
 20
-81.659
 21
-81.191
  0
LINE
  8
0
 10
5.13
 11
5.354
 20
-81.191
 21
-80.764
  0
LINE
  8
0
 10
5.354
 11
5.674
 20
-80.764
 21
-80.403
  0
LINE
  8
0
 10
5.674
 11
6.071
 20
-80.403
 21
-80.129
  0
LINE
  8
0
 10
6.071
 11
6.521
 20
-80.129
 21
-79.958
  0
LINE
  8
0
 10
6.521
 11
7
 20
-79.958
 21
-79.9
  0
LINE
  8
0
 10
7
 11
7.479
 20
-79.9
 21
-79.958
  0
LINE
  8
0
 10
7.479
 11
7.929
 20
-79.958
 21
-80.129
  0
LINE
  8
0
 10
7.929
 11
8.326
 20
-80.129
 21
-80.403
  0
LINE
  8
0
 10
8.326
 11
8.646
 20
-80.403
 21
-80.764
  0
LINE
  8
0
 10
8.646
 11
8.87
 20
-80.764
 21
-81.191
  0
LINE
  8
0
 10
8.87
 11
8.985
 20
-81.191
 21
-81.659
  0
LINE
  8
0
 10
8.985
 11
8.985
 20
-81.659
 21
-82.141
  0
LINE
  8
0
 10
8.985
 11
8.87
 20
-82.141
 21
-82.609
  0
LINE
  8
0
 10
8.87
 11
8.646
 20
-82.609
 21
-83.036
  0
LINE
  8
0
 10
8.646
 11
8.326
 20
-83.036
 21
-83.397
  0
LINE
  8
0
 10
8.326
 11
7.929
 20
-83.397
 21
-83.671
  0
LINE
  8
0
 10
7.929
 11
7.479
 20
-83.671
 21
-83.842
  0
LINE
  8
0
 10
7.479
 11
7
 20
-83.842
 21
-83.9
  0
LINE
  8
0
 10
7
 11
6.521
 20
-83.9
 21
-83.842
  0
LINE
  8
0
 10
6.521
 11
6.071
 20
-83.842
 21
-83.671
  0
LINE
  8
0
 10
6.071
 11
5.674
 20
-83.671
 21
-83.397
  0
LINE
  8
0
 10
5.674
 11
5.354
 20
-83.397
 21
-83.036
  0
LINE
  8
0
 10
5.354
 11
5.13
 20
-83.036
 21
-82.609
  0
LINE
  8
0
 10
5.13
 11
5.015
 20
-82.609
 21
-82.141
  0
LINE
  8
0
 10
5.015
 11
5.015
 20
-28.641
 21
-28.159
  0
LINE
  8
0
 10
5.015
 11
5.13
 20
-28.159
 21
-27.691
  0
LINE
  8
0
 10
5.13
 11
5.354
 20
-27.691
 21
-27.264
  0
LINE
  8
0
 10
5.354
 11
5.674
 20
-27.264
 21
-26.903
  0
LINE
  8
0
 10
5.674
 11
6.071
 20
-26.903
 21
-26.629
  0
LINE
  8
0
 10
6.071
 11
6.521
 20
-26.629
 21
-26.458
  0
LINE
  8
0
 10
6.521
 11
7
 20
-26.458
 21
-26.4
  0
LINE
  8
0
 10
7
 11
7.479
 20
-26.4
 21
-26.458
  0
LINE
  8
0
 10
7.479
 11
7.929
 20
-26.458
 21
-26.629
  0
LINE
  8
0
 10
7.929
 11
8.326
 20
-26.629
 21
-26.903
  0
LINE
  8
0
 10
8.326
 11
8.646
 20
-26.903
 21
-27.264
  0
LINE
  8
0
 10
8.646
 11
8.87
 20
-27.264
 21
-27.691
  0
LINE
  8
0
 10
8.87
 11
8.985
 20
-27.691
 21
-28.159
  0
LINE
  8
0
 10
8.985
 11
8.985
 20
-28.159
 21
-28.641
  0
LINE
  8
0
 10
8.985
 11
8.87
 20
-28.641
 21
-29.109
  0
LINE
  8
0
 10
8.87
 11
8.646
 20
-29.109
 21
-29.536
  0
LINE
  8
0
 10
8.646
 11
8.326
 20
-29.536
 21
-29.897
  0
LINE
  8
0
 10
8.326
 11
7.929
 20
-29.897
 21
-30.171
  0
LINE
  8
0
 10
7.929
 11
7.479
 20
-30.171
 21
-30.342
  0
LINE
  8
0
 10
7.479
 11
7
 20
-30.342
 21
-30.4
  0
LINE
  8
0
 10
7
 11
6.521
 20
-30.4
 21
-30.342
  0
LINE
  8
0
 10
6.521
 11
6.071
 20
-30.342
 21
-30.171
  0
LINE
  8
0
 10
6.071
 11
5.674
 20
-30.171
 21
-29.897
  0
LINE
  8
0
 10
5.674
 11
5.354
 20
-29.897
 21
-29.536
  0
LINE
  8
0
 10
5.354
 11
5.13
 20
-29.536
 21
-29.109
  0
LINE
  8
0
 10
5.13
 11
5.015
 20
-29.109
 21
-28.641
  0
LINE
  8
0
 10
7.207
 11
7.377
 20
-148.679
 21
-148.232
  0
LINE
  8
0
 10
7.377
 11
7.735
 20
-148.232
 21
-147.915
  0
LINE
  8
0
 10
7.735
 11
8.2
 20
-147.915
 21
-147.8
  0
LINE
  8
0
 10
8.2
 11
8.665
 20
-147.8
 21
-147.915
  0
LINE
  8
0
 10
8.665
 11
9.023
 20
-147.915
 21
-148.232
  0
LINE
  8
0
 10
9.023
 11
9.193
 20
-148.232
 21
-148.679
  0
LINE
  8
0
 10
9.193
 11
9.135
 20
-148.679
 21
-149.155
  0
LINE
  8
0
 10
9.135
 11
8.863
 20
-149.155
 21
-149.549
  0
LINE
  8
0
 10
8.863
 11
8.439
 20
-149.549
 21
-149.771
  0
LINE
  8
0
 10
8.439
 11
7.961
 20
-149.771
 21
-149.771
  0
LINE
  8
0
 10
7.961
 11
7.537
 20
-149.771
 21
-149.549
  0
LINE
  8
0
 10
7.537
 11
7.265
 20
-149.549
 21
-149.155
  0
LINE
  8
0
 10
7.265
 11
7.207
 20
-149.155
 21
-148.679
  0
LINE
  8
0
 10
7.207
 11
7.377
 20
-128.659
 21
-128.212
  0
LINE
  8
0
 10
7.377
 11
7.735
 20
-128.212
 21
-127.895
  0
LINE
  8
0
 10
7.735
 11
8.2
 20
-127.895
 21
-127.78
  0
LINE
  8
0
 10
8.2
 11
8.665
 20
-127.78
 21
-127.895
  0
LINE
  8
0
 10
8.665
 11
9.023
 20
-127.895
 21
-128.212
  0
LINE
  8
0
 10
9.023
 11
9.193
 20
-128.212
 21
-128.659
  0
LINE
  8
0
 10
9.193
 11
9.135
 20
-128.659
 21
-129.135
  0
LINE
  8
0
 10
9.135
 11
8.863
 20
-129.135
 21
-129.529
  0
LINE
  8
0
 10
8.863
 11
8.439
 20
-129.529
 21
-129.751
  0
LINE
  8
0
 10
8.439
 11
7.961
 20
-129.751
 21
-129.751
  0
LINE
  8
0
 10
7.961
 11
7.537
 20
-129.751
 21
-129.529
  0
LINE
  8
0
 10
7.537
 11
7.265
 20
-129.529
 21
-129.135
  0
LINE
  8
0
 10
7.265
 11
7.207
 20
-129.135
 21
-128.659
  0
LINE
  8
0
 10
25.129
 11
25.129
 20
-8.439
 21
-7.961
  0
LINE
  8
0
 10
25.129
 11
25.351
 20
-7.961
 21
-7.537
  0
LINE
  8
0
 10
25.351
 11
25.745
 20
-7.537
 21
-7.265
  0
LINE
  8
0
 10
25.745
 11
26.221
 20
-7.265
 21
-7.207
  0
LINE
  8
0
 10
26.221
 11
26.668
 20
-7.207
 21
-7.377
  0
LINE
  8
0
 10
26.668
 11
26.985
 20
-7.377
 21
-7.735
  0
LINE
  8
0
 10
26.985
 11
27.1
 20
-7.735
 21
-8.2
  0
LINE
  8
0
 10
27.1
 11
26.985
 20
-8.2
 21
-8.665
  0
LINE
  8
0
 10
26.985
 11
26.668
 20
-8.665
 21
-9.023
  0
LINE
  8
0
 10
26.668
 11
26.221
 20
-9.023
 21
-9.193
  0
LINE
  8
0
 10
26.221
 11
25.745
 20
-9.193
 21
-9.135
  0
LINE
  8
0
 10
25.745
 11
25.351
 20
-9.135
 21
-8.863
  0
LINE
  8
0
 10
25.351
 11
25.129
 20
-8.863
 21
-8.439
  0
LINE
  8
0
 10
31.929
 11
31.929
 20
-151.739
 21
-151.261
  0
LINE
  8
0
 10
31.929
 11
32.151
 20
-151.261
 21
-150.837
  0
LINE
  8
0
 10
32.151
 11
32.545
 20
-150.837
 21
-150.565
  0
LINE
  8
0
 10
32.545
 11
33.021
 20
-150.565
 21
-150.507
  0
LINE
  8
0
 10
33.021
 11
33.468
 20
-150.507
 21
-150.677
  0
LINE
  8
0
 10
33.468
 11
33.785
 20
-150.677
 21
-151.035
  0
LINE
  8
0
 10
33.785
 11
33.9
 20
-151.035
 21
-151.5
  0
LINE
  8
0
 10
33.9
 11
33.785
 20
-151.5
 21
-151.965
  0
LINE
  8
0
 10
33.785
 11
33.468
 20
-151.965
 21
-152.323
  0
LINE
  8
0
 10
33.468
 11
33.021
 20
-152.323
 21
-152.493
  0
LINE
  8
0
 10
33.021
 11
32.545
 20
-152.493
 21
-152.435
  0
LINE
  8
0
 10
32.545
 11
32.151
 20
-152.435
 21
-152.163
  0
LINE
  8
0
 10
32.151
 11
31.929
 20
-152.163
 21
-151.739
  0
LINE
  8
0
 10
45.149
 11
45.149
 20
-8.439
 21
-7.961
  0
LINE
  8
0
 10
45.149
 11
45.371
 20
-7.961
 21
-7.537
  0
LINE
  8
0
 10
45.371
 11
45.765
 20
-7.537
 21
-7.265
  0
LINE
  8
0
 10
45.765
 11
46.241
 20
-7.265
 21
-7.207
  0
LINE
  8
0
 10
46.241
 11
46.688
 20
-7.207
 21
-7.377
  0
LINE
  8
0
 10
46.688
 11
47.005
 20
-7.377
 21
-7.735
  0
LINE
  8
0
 10
47.005
 11
47.12
 20
-7.735
 21
-8.2
  0
LINE
  8
0
 10
47.12
 11
47.005
 20
-8.2
 21
-8.665
  0
LINE
  8
0
 10
47.005
 11
46.688
 20
-8.665
 21
-9.023
  0
LINE
  8
0
 10
46.688
 11
46.241
 20
-9.023
 21
-9.193
  0
LINE
  8
0
 10
46.241
 11
45.765
 20
-9.193
 21
-9.135
  0
LINE
  8
0
 10
45.765
 11
45.371
 20
-9.135
 21
-8.863
  0
LINE
  8
0
 10
45.371
 11
45.149
 20
-8.863
 21
-8.439
  0
LINE
  8
0
 10
0
 11
0
 20
-158.5
 21
0
  0
LINE
  8
0
 10
0
 11
391
 20
0
 21
0
  0
LINE
  8
0
 10
391
 11
391
 20
0
 21
-158.5
  0
LINE
  8
0
 10
391
 11
0
 20
-158.5
 21
-158.5
  0
LINE
  8
0
 10
148.929
 11
148.929
 20
-151.739
 21
-151.261
  0
LINE
  8
0
 10
148.929
 11
149.151
 20
-151.261
 21
-150.837
  0
LINE
  8
0
 10
149.151
 11
149.545
 20
-150.837
 21
-150.565
  0
LINE
  8
0
 10
149.545
 11
150.021
 20
-150.565
 21
-150.507
  0
LINE
  8
0
 10
150.021
 11
150.468
 20
-150.507
 21
-150.677
  0
LINE
  8
0
 10
150.468
 11
150.785
 20
-150.677
 21
-151.035
  0
LINE
  8
0
 10
150.785
 11
150.9
 20
-151.035
 21
-151.5
  0
LINE
  8
0
 10
150.9
 11
150.785
 20
-151.5
 21
-151.965
  0
LINE
  8
0
 10
150.785
 11
150.468
 20
-151.965
 21
-152.323
  0
LINE
  8
0
 10
150.468
 11
150.021
 20
-152.323
 21
-152.493
  0
LINE
  8
0
 10
150.021
 11
149.545
 20
-152.493
 21
-152.435
  0
LINE
  8
0
 10
149.545
 11
149.151
 20
-152.435
 21
-152.163
  0
LINE
  8
0
 10
149.151
 11
148.929
 20
-152.163
 21
-151.739
  0
LINE
  8
0
 10
191.234
 11
191.234
 20
-144.189
 21
-143.711
  0
LINE
  8
0
 10
191.234
 11
191.493
 20
-143.711
 21
-143.308
  0
LINE
  8
0
 10
191.493
 11
191.929
 20
-143.308
 21
-143.109
  0
LINE
  8
0
 10
191.929
 11
192.403
 20
-143.109
 21
-143.177
  0
LINE
  8
0
 10
192.403
 11
192.765
 20
-143.177
 21
-143.49
  0
LINE
  8
0
 10
192.765
 11
192.9
 20
-143.49
 21
-143.95
  0
LINE
  8
0
 10
192.9
 11
192.765
 20
-143.95
 21
-144.41
  0
LINE
  8
0
 10
192.765
 11
192.403
 20
-144.41
 21
-144.723
  0
LINE
  8
0
 10
192.403
 11
191.929
 20
-144.723
 21
-144.791
  0
LINE
  8
0
 10
191.929
 11
191.493
 20
-144.791
 21
-144.592
  0
LINE
  8
0
 10
191.493
 11
191.234
 20
-144.592
 21
-144.189
  0
LINE
  8
0
 10
191.234
 11
191.234
 20
-112.689
 21
-112.211
  0
LINE
  8
0
 10
191.234
 11
191.493
 20
-112.211
 21
-111.808
  0
LINE
  8
0
 10
191.493
 11
191.929
 20
-111.808
 21
-111.609
  0
LINE
  8
0
 10
191.929
 11
192.403
 20
-111.609
 21
-111.677
  0
LINE
  8
0
 10
192.403
 11
192.765
 20
-111.677
 21
-111.99
  0
LINE
  8
0
 10
192.765
 11
192.9
 20
-111.99
 21
-112.45
  0
LINE
  8
0
 10
192.9
 11
192.765
 20
-112.45
 21
-112.91
  0
LINE
  8
0
 10
192.765
 11
192.403
 20
-112.91
 21
-113.223
  0
LINE
  8
0
 10
192.403
 11
191.929
 20
-113.223
 21
-113.291
  0
LINE
  8
0
 10
191.929
 11
191.493
 20
-113.291
 21
-113.092
  0
LINE
  8
0
 10
191.493
 11
191.234
 20
-113.092
 21
-112.689
  0
LINE
  8
0
 10
205.534
 11
205.534
 20
-128.289
 21
-127.811
  0
LINE
  8
0
 10
205.534
 11
205.793
 20
-127.811
 21
-127.408
  0
LINE
  8
0
 10
205.793
 11
206.229
 20
-127.408
 21
-127.209
  0
LINE
  8
0
 10
206.229
 11
206.703
 20
-127.209
 21
-127.277
  0
LINE
  8
0
 10
206.703
 11
207.065
 20
-127.277
 21
-127.59
  0
LINE
  8
0
 10
207.065
 11
207.2
 20
-127.59
 21
-128.05
  0
LINE
  8
0
 10
207.2
 11
207.065
 20
-128.05
 21
-128.51
  0
LINE
  8
0
 10
207.065
 11
206.703
 20
-128.51
 21
-128.823
  0
LINE
  8
0
 10
206.703
 11
206.229
 20
-128.823
 21
-128.891
  0
LINE
  8
0
 10
206.229
 11
205.793
 20
-128.891
 21
-128.692
  0
LINE
  8
0
 10
205.793
 11
205.534
 20
-128.692
 21
-128.289
  0
LINE
  8
0
 10
205.534
 11
205.534
 20
-96.789
 21
-96.311
  0
LINE
  8
0
 10
205.534
 11
205.793
 20
-96.311
 21
-95.908
  0
LINE
  8
0
 10
205.793
 11
206.229
 20
-95.908
 21
-95.709
  0
LINE
  8
0
 10
206.229
 11
206.703
 20
-95.709
 21
-95.777
  0
LINE
  8
0
 10
206.703
 11
207.065
 20
-95.777
 21
-96.09
  0
LINE
  8
0
 10
207.065
 11
207.2
 20
-96.09
 21
-96.55
  0
LINE
  8
0
 10
207.2
 11
207.065
 20
-96.55
 21
-97.01
  0
LINE
  8
0
 10
207.065
 11
206.703
 20
-97.01
 21
-97.323
  0
LINE
  8
0
 10
206.703
 11
206.229
 20
-97.323
 21
-97.391
  0
LINE
  8
0
 10
206.229
 11
205.793
 20
-97.391
 21
-97.192
  0
LINE
  8
0
 10
205.793
 11
205.534
 20
-97.192
 21
-96.789
  0
LINE
  8
0
 10
240.62
 11
240.715
 20
-103.38
 21
-102.902
  0
LINE
  8
0
 10
240.715
 11
240.986
 20
-102.902
 21
-102.496
  0
LINE
  8
0
 10
240.986
 11
241.392
 20
-102.496
 21
-102.225
  0
LINE
  8
0
 10
241.392
 11
241.87
 20
-102.225
 21
-102.13
  0
LINE
  8
0
 10
241.87
 11
242.348
 20
-102.13
 21
-102.225
  0
LINE
  8
0
 10
242.348
 11
242.754
 20
-102.225
 21
-102.496
  0
LINE
  8
0
 10
242.754
 11
243.025
 20
-102.496
 21
-102.902
  0
LINE
  8
0
 10
243.025
 11
243.12
 20
-102.902
 21
-103.38
  0
LINE
  8
0
 10
243.12
 11
243.025
 20
-103.38
 21
-103.858
  0
LINE
  8
0
 10
243.025
 11
242.754
 20
-103.858
 21
-104.264
  0
LINE
  8
0
 10
242.754
 11
242.348
 20
-104.264
 21
-104.535
  0
LINE
  8
0
 10
242.348
 11
241.87
 20
-104.535
 21
-104.63
  0
LINE
  8
0
 10
241.87
 11
241.392
 20
-104.63
 21
-104.535
  0
LINE
  8
0
 10
241.392
 11
240.986
 20
-104.535
 21
-104.264
  0
LINE
  8
0
 10
240.986
 11
240.715
 20
-104.264
 21
-103.858
  0
LINE
  8
0
 10
240.715
 11
240.62
 20
-103.858
 21
-103.38
  0
LINE
  8
0
 10
241.89
 11
241.985
 20
-55.12
 21
-54.642
  0
LINE
  8
0
 10
241.985
 11
242.256
 20
-54.642
 21
-54.236
  0
LINE
  8
0
 10
242.256
 11
242.662
 20
-54.236
 21
-53.965
  0
LINE
  8
0
 10
242.662
 11
243.14
 20
-53.965
 21
-53.87
  0
LINE
  8
0
 10
243.14
 11
243.618
 20
-53.87
 21
-53.965
  0
LINE
  8
0
 10
243.618
 11
244.024
 20
-53.965
 21
-54.236
  0
LINE
  8
0
 10
244.024
 11
244.295
 20
-54.236
 21
-54.642
  0
LINE
  8
0
 10
244.295
 11
244.39
 20
-54.642
 21
-55.12
  0
LINE
  8
0
 10
244.39
 11
244.295
 20
-55.12
 21
-55.598
  0
LINE
  8
0
 10
244.295
 11
244.024
 20
-55.598
 21
-56.004
  0
LINE
  8
0
 10
244.024
 11
243.618
 20
-56.004
 21
-56.275
  0
LINE
  8
0
 10
243.618
 11
243.14
 20
-56.275
 21
-56.37
  0
LINE
  8
0
 10
243.14
 11
242.662
 20
-56.37
 21
-56.275
  0
LINE
  8
0
 10
242.662
 11
242.256
 20
-56.275
 21
-56.004
  0
LINE
  8
0
 10
242.256
 11
241.985
 20
-56.004
 21
-55.598
  0
LINE
  8
0
 10
241.985
 11
241.89
 20
-55.598
 21
-55.12
  0
LINE
  8
0
 10
285.512
 11
285.626
 20
-32.1
 21
-31.635
  0
LINE
  8
0
 10
285.626
 11
285.944
 20
-31.635
 21
-31.277
  0
LINE
  8
0
 10
285.944
 11
286.391
 20
-31.277
 21
-31.107
  0
LINE
  8
0
 10
286.391
 11
286.866
 20
-31.107
 21
-31.165
  0
LINE
  8
0
 10
286.866
 11
287.26
 20
-31.165
 21
-31.437
  0
LINE
  8
0
 10
287.26
 11
287.483
 20
-31.437
 21
-31.861
  0
LINE
  8
0
 10
287.483
 11
287.483
 20
-31.861
 21
-32.339
  0
LINE
  8
0
 10
287.483
 11
287.26
 20
-32.339
 21
-32.763
  0
LINE
  8
0
 10
287.26
 11
286.866
 20
-32.763
 21
-33.035
  0
LINE
  8
0
 10
286.866
 11
286.391
 20
-33.035
 21
-33.093
  0
LINE
  8
0
 10
286.391
 11
285.944
 20
-33.093
 21
-32.923
  0
LINE
  8
0
 10
285.944
 11
285.626
 20
-32.923
 21
-32.565
  0
LINE
  8
0
 10
285.626
 11
285.512
 20
-32.565
 21
-32.1
  0
LINE
  8
0
 10
292.69
 11
292.785
 20
-98.3
 21
-97.822
  0
LINE
  8
0
 10
292.785
 11
293.056
 20
-97.822
 21
-97.416
  0
LINE
  8
0
 10
293.056
 11
293.462
 20
-97.416
 21
-97.145
  0
LINE
  8
0
 10
293.462
 11
293.94
 20
-97.145
 21
-97.05
  0
LINE
  8
0
 10
293.94
 11
294.418
 20
-97.05
 21
-97.145
  0
LINE
  8
0
 10
294.418
 11
294.824
 20
-97.145
 21
-97.416
  0
LINE
  8
0
 10
294.824
 11
295.095
 20
-97.416
 21
-97.822
  0
LINE
  8
0
 10
295.095
 11
295.19
 20
-97.822
 21
-98.3
  0
LINE
  8
0
 10
295.19
 11
295.095
 20
-98.3
 21
-98.778
  0
LINE
  8
0
 10
295.095
 11
294.824
 20
-98.778
 21
-99.184
  0
LINE
  8
0
 10
294.824
 11
294.418
 20
-99.184
 21
-99.455
  0
LINE
  8
0
 10
294.418
 11
293.94
 20
-99.455
 21
-99.55
  0
LINE
  8
0
 10
293.94
 11
293.462
 20
-99.55
 21
-99.455
  0
LINE
  8
0
 10
293.462
 11
293.056
 20
-99.455
 21
-99.184
  0
LINE
  8
0
 10
293.056
 11
292.785
 20
-99.184
 21
-98.778
  0
LINE
  8
0
 10
292.785
 11
292.69
 20
-98.778
 21
-98.3
  0
LINE
  8
0
 10
292.69
 11
292.785
 20
-70.36
 21
-69.882
  0
LINE
  8
0
 10
292.785
 11
293.056
 20
-69.882
 21
-69.476
  0
LINE
  8
0
 10
293.056
 11
293.462
 20
-69.476
 21
-69.205
  0
LINE
  8
0
 10
293.462
 11
293.94
 20
-69.205
 21
-69.11
  0
LINE
  8
0
 10
293.94
 11
294.418
 20
-69.11
 21
-69.205
  0
LINE
  8
0
 10
294.418
 11
294.824
 20
-69.205
 21
-69.476
  0
LINE
  8
0
 10
294.824
 11
295.095
 20
-69.476
 21
-69.882
  0
LINE
  8
0
 10
295.095
 11
295.19
 20
-69.882
 21
-70.36
  0
LINE
  8
0
 10
295.19
 11
295.095
 20
-70.36
 21
-70.838
  0
LINE
  8
0
 10
295.095
 11
294.824
 20
-70.838
 21
-71.244
  0
LINE
  8
0
 10
294.824
 11
294.418
 20
-71.244
 21
-71.515
  0
LINE
  8
0
 10
294.418
 11
293.94
 20
-71.515
 21
-71.61
  0
LINE
  8
0
 10
293.94
 11
293.462
 20
-71.61
 21
-71.515
  0
LINE
  8
0
 10
293.462
 11
293.056
 20
-71.515
 21
-71.244
  0
LINE
  8
0
 10
293.056
 11
292.785
 20
-71.244
 21
-70.838
  0
LINE
  8
0
 10
292.785
 11
292.69
 20
-70.838
 21
-70.36
  0
LINE
  8
0
 10
316.82
 11
316.915
 20
-55.12
 21
-54.642
  0
LINE
  8
0
 10
316.915
 11
317.186
 20
-54.642
 21
-54.236
  0
LINE
  8
0
 10
317.186
 11
317.592
 20
-54.236
 21
-53.965
  0
LINE
  8
0
 10
317.592
 11
318.07
 20
-53.965
 21
-53.87
  0
LINE
  8
0
 10
318.07
 11
318.548
 20
-53.87
 21
-53.965
  0
LINE
  8
0
 10
318.548
 11
318.954
 20
-53.965
 21
-54.236
  0
LINE
  8
0
 10
318.954
 11
319.225
 20
-54.236
 21
-54.642
  0
LINE
  8
0
 10
319.225
 11
319.32
 20
-54.642
 21
-55.12
  0
LINE
  8
0
 10
319.32
 11
319.225
 20
-55.12
 21
-55.598
  0
LINE
  8
0
 10
319.225
 11
318.954
 20
-55.598
 21
-56.004
  0
LINE
  8
0
 10
318.954
 11
318.548
 20
-56.004
 21
-56.275
  0
LINE
  8
0
 10
318.548
 11
318.07
 20
-56.275
 21
-56.37
  0
LINE
  8
0
 10
318.07
 11
317.592
 20
-56.37
 21
-56.275
  0
LINE
  8
0
 10
317.592
 11
317.186
 20
-56.275
 21
-56.004
  0
LINE
  8
0
 10
317.186
 11
316.915
 20
-56.004
 21
-55.598
  0
LINE
  8
0
 10
316.915
 11
316.82
 20
-55.598
 21
-55.12
  0
LINE
  8
0
 10
317.28
 11
317.321
 20
-8
 21
-7.506
  0
LINE
  8
0
 10
317.321
 11
317.443
 20
-7.506
 21
-7.026
  0
LINE
  8
0
 10
317.443
 11
317.642
 20
-7.026
 21
-6.572
  0
LINE
  8
0
 10
317.642
 11
317.913
 20
-6.572
 21
-6.157
  0
LINE
  8
0
 10
317.913
 11
318.248
 20
-6.157
 21
-5.793
  0
LINE
  8
0
 10
318.248
 11
318.639
 20
-5.793
 21
-5.489
  0
LINE
  8
0
 10
318.639
 11
319.075
 20
-5.489
 21
-5.253
  0
LINE
  8
0
 10
319.075
 11
319.544
 20
-5.253
 21
-5.092
  0
LINE
  8
0
 10
319.544
 11
320.032
 20
-5.092
 21
-5.01
  0
LINE
  8
0
 10
320.032
 11
320.528
 20
-5.01
 21
-5.01
  0
LINE
  8
0
 10
320.528
 11
321.016
 20
-5.01
 21
-5.092
  0
LINE
  8
0
 10
321.016
 11
321.485
 20
-5.092
 21
-5.253
  0
LINE
  8
0
 10
321.485
 11
321.921
 20
-5.253
 21
-5.489
  0
LINE
  8
0
 10
321.921
 11
322.312
 20
-5.489
 21
-5.793
  0
LINE
  8
0
 10
322.312
 11
322.647
 20
-5.793
 21
-6.157
  0
LINE
  8
0
 10
322.647
 11
322.918
 20
-6.157
 21
-6.572
  0
LINE
  8
0
 10
322.918
 11
323.117
 20
-6.572
 21
-7.026
  0
LINE
  8
0
 10
323.117
 11
323.239
 20
-7.026
 21
-7.506
  0
LINE
  8
0
 10
323.239
 11
323.28
 20
-7.506
 21
-8
  0
LINE
  8
0
 10
323.28
 11
323.239
 20
-8
 21
-8.494
  0
LINE
  8
0
 10
323.239
 11
323.117
 20
-8.494
 21
-8.974
  0
LINE
  8
0
 10
323.117
 11
322.918
 20
-8.974
 21
-9.428
  0
LINE
  8
0
 10
322.918
 11
322.647
 20
-9.428
 21
-9.843
  0
LINE
  8
0
 10
322.647
 11
322.312
 20
-9.843
 21
-10.207
  0
LINE
  8
0
 10
322.312
 11
321.921
 20
-10.207
 21
-10.511
  0
LINE
  8
0
 10
321.921
 11
321.485
 20
-10.511
 21
-10.747
  0
LINE
  8
0
 10
321.485
 11
321.016
 20
-10.747
 21
-10.908
  0
LINE
  8
0
 10
321.016
 11
320.528
 20
-10.908
 21
-10.99
  0
LINE
  8
0
 10
320.528
 11
320.032
 20
-10.99
 21
-10.99
  0
LINE
  8
0
 10
320.032
 11
319.544
 20
-10.99
 21
-10.908
  0
LINE
  8
0
 10
319.544
 11
319.075
 20
-10.908
 21
-10.747
  0
LINE
  8
0
 10
319.075
 11
318.639
 20
-10.747
 21
-10.511
  0
LINE
  8
0
 10
318.639
 11
318.248
 20
-10.511
 21
-10.207
  0
LINE
  8
0
 10
318.248
 11
317.913
 20
-10.207
 21
-9.843
  0
LINE
  8
0
 10
317.913
 11
317.642
 20
-9.843
 21
-9.428
  0
LINE
  8
0
 10
317.642
 11
317.443
 20
-9.428
 21
-8.974
  0
LINE
  8
0
 10
317.443
 11
317.321
 20
-8.974
 21
-8.494
  0
LINE
  8
0
 10
317.321
 11
317.28
 20
-8.494
 21
-8
  0
LINE
  8
0
 10
323.17
 11
323.265
 20
-103.38
 21
-102.902
  0
LINE
  8
0
 10
323.265
 11
323.536
 20
-102.902
 21
-102.496
  0
LINE
  8
0
 10
323.536
 11
323.942
 20
-102.496
 21
-102.225
  0
LINE
  8
0
 10
323.942
 11
324.42
 20
-102.225
 21
-102.13
  0
LINE
  8
0
 10
324.42
 11
324.898
 20
-102.13
 21
-102.225
  0
LINE
  8
0
 10
324.898
 11
325.304
 20
-102.225
 21
-102.496
  0
LINE
  8
0
 10
325.304
 11
325.575
 20
-102.496
 21
-102.902
  0
LINE
  8
0
 10
325.575
 11
325.67
 20
-102.902
 21
-103.38
  0
LINE
  8
0
 10
325.67
 11
325.575
 20
-103.38
 21
-103.858
  0
LINE
  8
0
 10
325.575
 11
325.304
 20
-103.858
 21
-104.264
  0
LINE
  8
0
 10
325.304
 11
324.898
 20
-104.264
 21
-104.535
  0
LINE
  8
0
 10
324.898
 11
324.42
 20
-104.535
 21
-104.63
  0
LINE
  8
0
 10
324.42
 11
323.942
 20
-104.63
 21
-104.535
  0
LINE
  8
0
 10
323.942
 11
323.536
 20
-104.535
 21
-104.264
  0
LINE
  8
0
 10
323.536
 11
323.265
 20
-104.264
 21
-103.858
  0
LINE
  8
0
 10
323.265
 11
323.17
 20
-103.858
 21
-103.38
  0
LINE
  8
0
 10
329.78
 11
329.838
 20
-7
 21
-6.521
  0
LINE
  8
0
 10
329.838
 11
330.009
 20
-6.521
 21
-6.071
  0
LINE
  8
0
 10
330.009
 11
330.283
 20
-6.071
 21
-5.674
  0
LINE
  8
0
 10
330.283
 11
330.644
 20
-5.674
 21
-5.354
  0
LINE
  8
0
 10
330.644
 11
331.071
 20
-5.354
 21
-5.13
  0
LINE
  8
0
 10
331.071
 11
331.539
 20
-5.13
 21
-5.015
  0
LINE
  8
0
 10
331.539
 11
332.021
 20
-5.015
 21
-5.015
  0
LINE
  8
0
 10
332.021
 11
332.489
 20
-5.015
 21
-5.13
  0
LINE
  8
0
 10
332.489
 11
332.916
 20
-5.13
 21
-5.354
  0
LINE
  8
0
 10
332.916
 11
333.277
 20
-5.354
 21
-5.674
  0
LINE
  8
0
 10
333.277
 11
333.551
 20
-5.674
 21
-6.071
  0
LINE
  8
0
 10
333.551
 11
333.722
 20
-6.071
 21
-6.521
  0
LINE
  8
0
 10
333.722
 11
333.78
 20
-6.521
 21
-7
  0
LINE
  8
0
 10
333.78
 11
333.722
 20
-7
 21
-7.479
  0
LINE
  8
0
 10
333.722
 11
333.551
 20
-7.479
 21
-7.929
  0
LINE
  8
0
 10
333.551
 11
333.277
 20
-7.929
 21
-8.326
  0
LINE
  8
0
 10
333.277
 11
332.916
 20
-8.326
 21
-8.646
  0
LINE
  8
0
 10
332.916
 11
332.489
 20
-8.646
 21
-8.87
  0
LINE
  8
0
 10
332.489
 11
332.021
 20
-8.87
 21
-8.985
  0
LINE
  8
0
 10
332.021
 11
331.539
 20
-8.985
 21
-8.985
  0
LINE
  8
0
 10
331.539
 11
331.071
 20
-8.985
 21
-8.87
  0
LINE
  8
0
 10
331.071
 11
330.644
 20
-8.87
 21
-8.646
  0
LINE
  8
0
 10
330.644
 11
330.283
 20
-8.646
 21
-8.326
  0
LINE
  8
0
 10
330.283
 11
330.009
 20
-8.326
 21
-7.929
  0
LINE
  8
0
 10
330.009
 11
329.838
 20
-7.929
 21
-7.479
  0
LINE
  8
0
 10
329.838
 11
329.78
 20
-7.479
 21
-7
  0
LINE
  8
0
 10
343.909
 11
343.909
 20
-8.439
 21
-7.961
  0
LINE
  8
0
 10
343.909
 11
344.131
 20
-7.961
 21
-7.537
  0
LINE
  8
0
 10
344.131
 11
344.525
 20
-7.537
 21
-7.265
  0
LINE
  8
0
 10
344.525
 11
345.001
 20
-7.265
 21
-7.207
  0
LINE
  8
0
 10
345.001
 11
345.448
 20
-7.207
 21
-7.377
  0
LINE
  8
0
 10
345.448
 11
345.765
 20
-7.377
 21
-7.735
  0
LINE
  8
0
 10
345.765
 11
345.88
 20
-7.735
 21
-8.2
  0
LINE
  8
0
 10
345.88
 11
345.765
 20
-8.2
 21
-8.665
  0
LINE
  8
0
 10
345.765
 11
345.448
 20
-8.665
 21
-9.023
  0
LINE
  8
0
 10
345.448
 11
345.001
 20
-9.023
 21
-9.193
  0
LINE
  8
0
 10
345.001
 11
344.525
 20
-9.193
 21
-9.135
  0
LINE
  8
0
 10
344.525
 11
344.131
 20
-9.135
 21
-8.863
  0
LINE
  8
0
 10
344.131
 11
343.909
 20
-8.863
 21
-8.439
  0
LINE
  8
0
 10
363.929
 11
363.929
 20
-8.439
 21
-7.961
  0
LINE
  8
0
 10
363.929
 11
364.151
 20
-7.961
 21
-7.537
  0
LINE
  8
0
 10
364.151
 11
364.545
 20
-7.537
 21
-7.265
  0
LINE
  8
0
 10
364.545
 11
365.021
 20
-7.265
 21
-7.207
  0
LINE
  8
0
 10
365.021
 11
365.468
 20
-7.207
 21
-7.377
  0
LINE
  8
0
 10
365.468
 11
365.785
 20
-7.377
 21
-7.735
  0
LINE
  8
0
 10
365.785
 11
365.9
 20
-7.735
 21
-8.2
  0
LINE
  8
0
 10
365.9
 11
365.785
 20
-8.2
 21
-8.665
  0
LINE
  8
0
 10
365.785
 11
365.468
 20
-8.665
 21
-9.023
  0
LINE
  8
0
 10
365.468
 11
365.021
 20
-9.023
 21
-9.193
  0
LINE
  8
0
 10
365.021
 11
364.545
 20
-9.193
 21
-9.135
  0
LINE
  8
0
 10
364.545
 11
364.151
 20
-9.135
 21
-8.863
  0
LINE
  8
0
 10
364.151
 11
363.929
 20
-8.863
 21
-8.439
  0
ENDSEC
  0
SECTION
  2
OBJECTS
  0
DICTIONARY
  0
ENDSEC
  0
EOF
