  0
SECTION
  2
BLOCKS
  0
ENDSEC
  0
SECTION
  2
ENTITIES
  0
LINE
  8
0
 10
-235.25
 11
-235.25
 20
0
 21
389
  0
LINE
  8
0
 10
-235.25
 11
235.25
 20
389
 21
389
  0
LINE
  8
0
 10
235.25
 11
235.25
 20
389
 21
0
  0
LINE
  8
0
 10
235.25
 11
118.25
 20
0
 21
0
  0
LINE
  8
0
 10
118.25
 11
118.25
 20
0
 21
281.1
  0
LINE
  8
0
 10
118.25
 11
118.225
 20
281.1
 21
281.598
  0
LINE
  8
0
 10
118.225
 11
118.151
 20
281.598
 21
282.091
  0
LINE
  8
0
 10
118.151
 11
118.028
 20
282.091
 21
282.574
  0
LINE
  8
0
 10
118.028
 11
117.857
 20
282.574
 21
283.042
  0
LINE
  8
0
 10
117.857
 11
117.641
 20
283.042
 21
283.491
  0
LINE
  8
0
 10
117.641
 11
117.381
 20
283.491
 21
283.917
  0
LINE
  8
0
 10
117.381
 11
117.08
 20
283.917
 21
284.314
  0
LINE
  8
0
 10
117.08
 11
116.741
 20
284.314
 21
284.679
  0
LINE
  8
0
 10
116.741
 11
116.367
 20
284.679
 21
285.009
  0
LINE
  8
0
 10
116.367
 11
115.963
 20
285.009
 21
285.3
  0
LINE
  8
0
 10
115.963
 11
115.531
 20
285.3
 21
285.549
  0
LINE
  8
0
 10
115.531
 11
115.077
 20
285.549
 21
285.754
  0
LINE
  8
0
 10
115.077
 11
114.604
 20
285.754
 21
285.913
  0
LINE
  8
0
 10
114.604
 11
114.118
 20
285.913
 21
286.024
  0
LINE
  8
0
 10
114.118
 11
113.624
 20
286.024
 21
286.086
  0
LINE
  8
0
 10
113.624
 11
113.25
 20
286.086
 21
286.095
  0
LINE
  8
0
 10
113.25
 11
113.25
 20
286.095
 21
286.1
  0
LINE
  8
0
 10
113.25
 11
-126.75
 20
286.1
 21
286.1
  0
LINE
  8
0
 10
-126.75
 11
-126.75
 20
286.1
 21
286.095
  0
LINE
  8
0
 10
-126.75
 11
-126.875
 20
286.095
 21
286.098
  0
LINE
  8
0
 10
-126.875
 11
-127.372
 20
286.098
 21
286.061
  0
LINE
  8
0
 10
-127.372
 11
-127.863
 20
286.061
 21
285.975
  0
LINE
  8
0
 10
-127.863
 11
-128.342
 20
285.975
 21
285.84
  0
LINE
  8
0
 10
-128.342
 11
-128.806
 20
285.84
 21
285.658
  0
LINE
  8
0
 10
-128.806
 11
-129.25
 20
285.658
 21
285.43
  0
LINE
  8
0
 10
-129.25
 11
-129.669
 20
285.43
 21
285.16
  0
LINE
  8
0
 10
-129.669
 11
-130.058
 20
285.16
 21
284.849
  0
LINE
  8
0
 10
-130.058
 11
-130.415
 20
284.849
 21
284.501
  0
LINE
  8
0
 10
-130.415
 11
-130.736
 20
284.501
 21
284.119
  0
LINE
  8
0
 10
-130.736
 11
-131.016
 20
284.119
 21
283.707
  0
LINE
  8
0
 10
-131.016
 11
-131.255
 20
283.707
 21
283.269
  0
LINE
  8
0
 10
-131.255
 11
-131.448
 20
283.269
 21
282.81
  0
LINE
  8
0
 10
-131.448
 11
-131.595
 20
282.81
 21
282.334
  0
LINE
  8
0
 10
-131.595
 11
-131.694
 20
282.334
 21
281.845
  0
LINE
  8
0
 10
-131.694
 11
-131.744
 20
281.845
 21
281.349
  0
LINE
  8
0
 10
-131.744
 11
-131.744
 20
281.349
 21
281.1
  0
LINE
  8
0
 10
-131.744
 11
-131.75
 20
281.1
 21
281.1
  0
LINE
  8
0
 10
-131.75
 11
-131.75
 20
281.1
 21
0
  0
LINE
  8
0
 10
-131.75
 11
-235.25
 20
0
 21
0
  0
LINE
  8
0
 10
-228.721
 11
-228.721
 20
112.861
 21
113.339
  0
LINE
  8
0
 10
-228.721
 11
-228.499
 20
113.339
 21
113.763
  0
LINE
  8
0
 10
-228.499
 11
-228.105
 20
113.763
 21
114.035
  0
LINE
  8
0
 10
-228.105
 11
-227.629
 20
114.035
 21
114.093
  0
LINE
  8
0
 10
-227.629
 11
-227.182
 20
114.093
 21
113.923
  0
LINE
  8
0
 10
-227.182
 11
-226.865
 20
113.923
 21
113.565
  0
LINE
  8
0
 10
-226.865
 11
-226.75
 20
113.565
 21
113.1
  0
LINE
  8
0
 10
-226.75
 11
-226.865
 20
113.1
 21
112.635
  0
LINE
  8
0
 10
-226.865
 11
-227.182
 20
112.635
 21
112.277
  0
LINE
  8
0
 10
-227.182
 11
-227.629
 20
112.277
 21
112.107
  0
LINE
  8
0
 10
-227.629
 11
-228.105
 20
112.107
 21
112.165
  0
LINE
  8
0
 10
-228.105
 11
-228.499
 20
112.165
 21
112.437
  0
LINE
  8
0
 10
-228.499
 11
-228.721
 20
112.437
 21
112.861
  0
LINE
  8
0
 10
-228.721
 11
-228.721
 20
154.261
 21
154.739
  0
LINE
  8
0
 10
-228.721
 11
-228.499
 20
154.739
 21
155.163
  0
LINE
  8
0
 10
-228.499
 11
-228.105
 20
155.163
 21
155.435
  0
LINE
  8
0
 10
-228.105
 11
-227.629
 20
155.435
 21
155.493
  0
LINE
  8
0
 10
-227.629
 11
-227.182
 20
155.493
 21
155.323
  0
LINE
  8
0
 10
-227.182
 11
-226.865
 20
155.323
 21
154.965
  0
LINE
  8
0
 10
-226.865
 11
-226.75
 20
154.965
 21
154.5
  0
LINE
  8
0
 10
-226.75
 11
-226.865
 20
154.5
 21
154.035
  0
LINE
  8
0
 10
-226.865
 11
-227.182
 20
154.035
 21
153.677
  0
LINE
  8
0
 10
-227.182
 11
-227.629
 20
153.677
 21
153.507
  0
LINE
  8
0
 10
-227.629
 11
-228.105
 20
153.507
 21
153.565
  0
LINE
  8
0
 10
-228.105
 11
-228.499
 20
153.565
 21
153.837
  0
LINE
  8
0
 10
-228.499
 11
-228.721
 20
153.837
 21
154.261
  0
LINE
  8
0
 10
-226.55
 11
-226.435
 20
8.2
 21
8.665
  0
LINE
  8
0
 10
-226.435
 11
-226.118
 20
8.665
 21
9.023
  0
LINE
  8
0
 10
-226.118
 11
-225.671
 20
9.023
 21
9.193
  0
LINE
  8
0
 10
-225.671
 11
-225.195
 20
9.193
 21
9.135
  0
LINE
  8
0
 10
-225.195
 11
-224.801
 20
9.135
 21
8.863
  0
LINE
  8
0
 10
-224.801
 11
-224.579
 20
8.863
 21
8.439
  0
LINE
  8
0
 10
-224.579
 11
-224.579
 20
8.439
 21
7.961
  0
LINE
  8
0
 10
-224.579
 11
-224.801
 20
7.961
 21
7.537
  0
LINE
  8
0
 10
-224.801
 11
-225.195
 20
7.537
 21
7.265
  0
LINE
  8
0
 10
-225.195
 11
-225.671
 20
7.265
 21
7.207
  0
LINE
  8
0
 10
-225.671
 11
-226.118
 20
7.207
 21
7.377
  0
LINE
  8
0
 10
-226.118
 11
-226.435
 20
7.377
 21
7.735
  0
LINE
  8
0
 10
-226.435
 11
-226.55
 20
7.735
 21
8.2
  0
LINE
  8
0
 10
-219.721
 11
-219.721
 20
60.761
 21
61.239
  0
LINE
  8
0
 10
-219.721
 11
-219.499
 20
61.239
 21
61.663
  0
LINE
  8
0
 10
-219.499
 11
-219.105
 20
61.663
 21
61.935
  0
LINE
  8
0
 10
-219.105
 11
-218.629
 20
61.935
 21
61.993
  0
LINE
  8
0
 10
-218.629
 11
-218.182
 20
61.993
 21
61.823
  0
LINE
  8
0
 10
-218.182
 11
-217.865
 20
61.823
 21
61.465
  0
LINE
  8
0
 10
-217.865
 11
-217.75
 20
61.465
 21
61
  0
LINE
  8
0
 10
-217.75
 11
-217.865
 20
61
 21
60.535
  0
LINE
  8
0
 10
-217.865
 11
-218.182
 20
60.535
 21
60.177
  0
LINE
  8
0
 10
-218.182
 11
-218.629
 20
60.177
 21
60.007
  0
LINE
  8
0
 10
-218.629
 11
-219.105
 20
60.007
 21
60.065
  0
LINE
  8
0
 10
-219.105
 11
-219.499
 20
60.065
 21
60.337
  0
LINE
  8
0
 10
-219.499
 11
-219.721
 20
60.337
 21
60.761
  0
LINE
  8
0
 10
-205.33
 11
-205.215
 20
8.2
 21
8.665
  0
LINE
  8
0
 10
-205.215
 11
-204.898
 20
8.665
 21
9.023
  0
LINE
  8
0
 10
-204.898
 11
-204.451
 20
9.023
 21
9.193
  0
LINE
  8
0
 10
-204.451
 11
-203.975
 20
9.193
 21
9.135
  0
LINE
  8
0
 10
-203.975
 11
-203.581
 20
9.135
 21
8.863
  0
LINE
  8
0
 10
-203.581
 11
-203.359
 20
8.863
 21
8.439
  0
LINE
  8
0
 10
-203.359
 11
-203.359
 20
8.439
 21
7.961
  0
LINE
  8
0
 10
-203.359
 11
-203.581
 20
7.961
 21
7.537
  0
LINE
  8
0
 10
-203.581
 11
-203.975
 20
7.537
 21
7.265
  0
LINE
  8
0
 10
-203.975
 11
-204.451
 20
7.265
 21
7.207
  0
LINE
  8
0
 10
-204.451
 11
-204.898
 20
7.207
 21
7.377
  0
LINE
  8
0
 10
-204.898
 11
-205.215
 20
7.377
 21
7.735
  0
LINE
  8
0
 10
-205.215
 11
-205.33
 20
7.735
 21
8.2
  0
LINE
  8
0
 10
-202.75
 11
-202.692
 20
73
 21
73.479
  0
LINE
  8
0
 10
-202.692
 11
-202.521
 20
73.479
 21
73.929
  0
LINE
  8
0
 10
-202.521
 11
-202.247
 20
73.929
 21
74.326
  0
LINE
  8
0
 10
-202.247
 11
-201.886
 20
74.326
 21
74.646
  0
LINE
  8
0
 10
-201.886
 11
-201.459
 20
74.646
 21
74.87
  0
LINE
  8
0
 10
-201.459
 11
-200.991
 20
74.87
 21
74.985
  0
LINE
  8
0
 10
-200.991
 11
-200.509
 20
74.985
 21
74.985
  0
LINE
  8
0
 10
-200.509
 11
-200.041
 20
74.985
 21
74.87
  0
LINE
  8
0
 10
-200.041
 11
-199.614
 20
74.87
 21
74.646
  0
LINE
  8
0
 10
-199.614
 11
-199.253
 20
74.646
 21
74.326
  0
LINE
  8
0
 10
-199.253
 11
-198.979
 20
74.326
 21
73.929
  0
LINE
  8
0
 10
-198.979
 11
-198.808
 20
73.929
 21
73.479
  0
LINE
  8
0
 10
-198.808
 11
-198.75
 20
73.479
 21
73
  0
LINE
  8
0
 10
-198.75
 11
-198.808
 20
73
 21
72.521
  0
LINE
  8
0
 10
-198.808
 11
-198.979
 20
72.521
 21
72.071
  0
LINE
  8
0
 10
-198.979
 11
-199.253
 20
72.071
 21
71.674
  0
LINE
  8
0
 10
-199.253
 11
-199.614
 20
71.674
 21
71.354
  0
LINE
  8
0
 10
-199.614
 11
-200.041
 20
71.354
 21
71.13
  0
LINE
  8
0
 10
-200.041
 11
-200.509
 20
71.13
 21
71.015
  0
LINE
  8
0
 10
-200.509
 11
-200.991
 20
71.015
 21
71.015
  0
LINE
  8
0
 10
-200.991
 11
-201.459
 20
71.015
 21
71.13
  0
LINE
  8
0
 10
-201.459
 11
-201.886
 20
71.13
 21
71.354
  0
LINE
  8
0
 10
-201.886
 11
-202.247
 20
71.354
 21
71.674
  0
LINE
  8
0
 10
-202.247
 11
-202.521
 20
71.674
 21
72.071
  0
LINE
  8
0
 10
-202.521
 11
-202.692
 20
72.071
 21
72.521
  0
LINE
  8
0
 10
-202.692
 11
-202.75
 20
72.521
 21
73
  0
LINE
  8
0
 10
-196.75
 11
-196.692
 20
370
 21
370.479
  0
LINE
  8
0
 10
-196.692
 11
-196.521
 20
370.479
 21
370.929
  0
LINE
  8
0
 10
-196.521
 11
-196.247
 20
370.929
 21
371.326
  0
LINE
  8
0
 10
-196.247
 11
-195.886
 20
371.326
 21
371.646
  0
LINE
  8
0
 10
-195.886
 11
-195.459
 20
371.646
 21
371.87
  0
LINE
  8
0
 10
-195.459
 11
-194.991
 20
371.87
 21
371.985
  0
LINE
  8
0
 10
-194.991
 11
-194.509
 20
371.985
 21
371.985
  0
LINE
  8
0
 10
-194.509
 11
-194.041
 20
371.985
 21
371.87
  0
LINE
  8
0
 10
-194.041
 11
-193.614
 20
371.87
 21
371.646
  0
LINE
  8
0
 10
-193.614
 11
-193.253
 20
371.646
 21
371.326
  0
LINE
  8
0
 10
-193.253
 11
-192.979
 20
371.326
 21
370.929
  0
LINE
  8
0
 10
-192.979
 11
-192.808
 20
370.929
 21
370.479
  0
LINE
  8
0
 10
-192.808
 11
-192.75
 20
370.479
 21
370
  0
LINE
  8
0
 10
-192.75
 11
-192.808
 20
370
 21
369.521
  0
LINE
  8
0
 10
-192.808
 11
-192.979
 20
369.521
 21
369.071
  0
LINE
  8
0
 10
-192.979
 11
-193.253
 20
369.071
 21
368.674
  0
LINE
  8
0
 10
-193.253
 11
-193.614
 20
368.674
 21
368.354
  0
LINE
  8
0
 10
-193.614
 11
-194.041
 20
368.354
 21
368.13
  0
LINE
  8
0
 10
-194.041
 11
-194.509
 20
368.13
 21
368.015
  0
LINE
  8
0
 10
-194.509
 11
-194.991
 20
368.015
 21
368.015
  0
LINE
  8
0
 10
-194.991
 11
-195.459
 20
368.015
 21
368.13
  0
LINE
  8
0
 10
-195.459
 11
-195.886
 20
368.13
 21
368.354
  0
LINE
  8
0
 10
-195.886
 11
-196.247
 20
368.354
 21
368.674
  0
LINE
  8
0
 10
-196.247
 11
-196.521
 20
368.674
 21
369.071
  0
LINE
  8
0
 10
-196.521
 11
-196.692
 20
369.071
 21
369.521
  0
LINE
  8
0
 10
-196.692
 11
-196.75
 20
369.521
 21
370
  0
LINE
  8
0
 10
-195.743
 11
-195.685
 20
380.379
 21
380.855
  0
LINE
  8
0
 10
-195.685
 11
-195.413
 20
380.855
 21
381.249
  0
LINE
  8
0
 10
-195.413
 11
-194.989
 20
381.249
 21
381.471
  0
LINE
  8
0
 10
-194.989
 11
-194.511
 20
381.471
 21
381.471
  0
LINE
  8
0
 10
-194.511
 11
-194.087
 20
381.471
 21
381.249
  0
LINE
  8
0
 10
-194.087
 11
-193.815
 20
381.249
 21
380.855
  0
LINE
  8
0
 10
-193.815
 11
-193.757
 20
380.855
 21
380.379
  0
LINE
  8
0
 10
-193.757
 11
-193.927
 20
380.379
 21
379.932
  0
LINE
  8
0
 10
-193.927
 11
-194.285
 20
379.932
 21
379.615
  0
LINE
  8
0
 10
-194.285
 11
-194.75
 20
379.615
 21
379.5
  0
LINE
  8
0
 10
-194.75
 11
-195.215
 20
379.5
 21
379.615
  0
LINE
  8
0
 10
-195.215
 11
-195.573
 20
379.615
 21
379.932
  0
LINE
  8
0
 10
-195.573
 11
-195.743
 20
379.932
 21
380.379
  0
LINE
  8
0
 10
-194.63
 11
-194.582
 20
7.5
 21
7.988
  0
LINE
  8
0
 10
-194.582
 11
-194.44
 20
7.988
 21
8.457
  0
LINE
  8
0
 10
-194.44
 11
-194.209
 20
8.457
 21
8.889
  0
LINE
  8
0
 10
-194.209
 11
-193.898
 20
8.889
 21
9.268
  0
LINE
  8
0
 10
-193.898
 11
-193.519
 20
9.268
 21
9.579
  0
LINE
  8
0
 10
-193.519
 11
-193.087
 20
9.579
 21
9.81
  0
LINE
  8
0
 10
-193.087
 11
-192.618
 20
9.81
 21
9.952
  0
LINE
  8
0
 10
-192.618
 11
-192.13
 20
9.952
 21
10
  0
LINE
  8
0
 10
-192.13
 11
-191.642
 20
10
 21
9.952
  0
LINE
  8
0
 10
-191.642
 11
-191.173
 20
9.952
 21
9.81
  0
LINE
  8
0
 10
-191.173
 11
-190.741
 20
9.81
 21
9.579
  0
LINE
  8
0
 10
-190.741
 11
-190.362
 20
9.579
 21
9.268
  0
LINE
  8
0
 10
-190.362
 11
-190.051
 20
9.268
 21
8.889
  0
LINE
  8
0
 10
-190.051
 11
-189.82
 20
8.889
 21
8.457
  0
LINE
  8
0
 10
-189.82
 11
-189.678
 20
8.457
 21
7.988
  0
LINE
  8
0
 10
-189.678
 11
-189.63
 20
7.988
 21
7.5
  0
LINE
  8
0
 10
-189.63
 11
-189.678
 20
7.5
 21
7.012
  0
LINE
  8
0
 10
-189.678
 11
-189.82
 20
7.012
 21
6.543
  0
LINE
  8
0
 10
-189.82
 11
-190.051
 20
6.543
 21
6.111
  0
LINE
  8
0
 10
-190.051
 11
-190.362
 20
6.111
 21
5.732
  0
LINE
  8
0
 10
-190.362
 11
-190.741
 20
5.732
 21
5.421
  0
LINE
  8
0
 10
-190.741
 11
-191.173
 20
5.421
 21
5.19
  0
LINE
  8
0
 10
-191.173
 11
-191.642
 20
5.19
 21
5.048
  0
LINE
  8
0
 10
-191.642
 11
-192.13
 20
5.048
 21
5
  0
LINE
  8
0
 10
-192.13
 11
-192.618
 20
5
 21
5.048
  0
LINE
  8
0
 10
-192.618
 11
-193.087
 20
5.048
 21
5.19
  0
LINE
  8
0
 10
-193.087
 11
-193.519
 20
5.19
 21
5.421
  0
LINE
  8
0
 10
-193.519
 11
-193.898
 20
5.421
 21
5.732
  0
LINE
  8
0
 10
-193.898
 11
-194.209
 20
5.732
 21
6.111
  0
LINE
  8
0
 10
-194.209
 11
-194.44
 20
6.111
 21
6.543
  0
LINE
  8
0
 10
-194.44
 11
-194.582
 20
6.543
 21
7.012
  0
LINE
  8
0
 10
-194.582
 11
-194.63
 20
7.012
 21
7.5
  0
LINE
  8
0
 10
-187.721
 11
-187.721
 20
60.761
 21
61.239
  0
LINE
  8
0
 10
-187.721
 11
-187.499
 20
61.239
 21
61.663
  0
LINE
  8
0
 10
-187.499
 11
-187.105
 20
61.663
 21
61.935
  0
LINE
  8
0
 10
-187.105
 11
-186.629
 20
61.935
 21
61.993
  0
LINE
  8
0
 10
-186.629
 11
-186.182
 20
61.993
 21
61.823
  0
LINE
  8
0
 10
-186.182
 11
-185.865
 20
61.823
 21
61.465
  0
LINE
  8
0
 10
-185.865
 11
-185.75
 20
61.465
 21
61
  0
LINE
  8
0
 10
-185.75
 11
-185.865
 20
61
 21
60.535
  0
LINE
  8
0
 10
-185.865
 11
-186.182
 20
60.535
 21
60.177
  0
LINE
  8
0
 10
-186.182
 11
-186.629
 20
60.177
 21
60.007
  0
LINE
  8
0
 10
-186.629
 11
-187.105
 20
60.007
 21
60.065
  0
LINE
  8
0
 10
-187.105
 11
-187.499
 20
60.065
 21
60.337
  0
LINE
  8
0
 10
-187.499
 11
-187.721
 20
60.337
 21
60.761
  0
LINE
  8
0
 10
-163.17
 11
-163.055
 20
8.2
 21
8.665
  0
LINE
  8
0
 10
-163.055
 11
-162.738
 20
8.665
 21
9.023
  0
LINE
  8
0
 10
-162.738
 11
-162.291
 20
9.023
 21
9.193
  0
LINE
  8
0
 10
-162.291
 11
-161.815
 20
9.193
 21
9.135
  0
LINE
  8
0
 10
-161.815
 11
-161.421
 20
9.135
 21
8.863
  0
LINE
  8
0
 10
-161.421
 11
-161.199
 20
8.863
 21
8.439
  0
LINE
  8
0
 10
-161.199
 11
-161.199
 20
8.439
 21
7.961
  0
LINE
  8
0
 10
-161.199
 11
-161.421
 20
7.961
 21
7.537
  0
LINE
  8
0
 10
-161.421
 11
-161.815
 20
7.537
 21
7.265
  0
LINE
  8
0
 10
-161.815
 11
-162.291
 20
7.265
 21
7.207
  0
LINE
  8
0
 10
-162.291
 11
-162.738
 20
7.207
 21
7.377
  0
LINE
  8
0
 10
-162.738
 11
-163.055
 20
7.377
 21
7.735
  0
LINE
  8
0
 10
-163.055
 11
-163.17
 20
7.735
 21
8.2
  0
LINE
  8
0
 10
-162.743
 11
-162.685
 20
380.379
 21
380.855
  0
LINE
  8
0
 10
-162.685
 11
-162.413
 20
380.855
 21
381.249
  0
LINE
  8
0
 10
-162.413
 11
-161.989
 20
381.249
 21
381.471
  0
LINE
  8
0
 10
-161.989
 11
-161.511
 20
381.471
 21
381.471
  0
LINE
  8
0
 10
-161.511
 11
-161.087
 20
381.471
 21
381.249
  0
LINE
  8
0
 10
-161.087
 11
-160.815
 20
381.249
 21
380.855
  0
LINE
  8
0
 10
-160.815
 11
-160.757
 20
380.855
 21
380.379
  0
LINE
  8
0
 10
-160.757
 11
-160.927
 20
380.379
 21
379.932
  0
LINE
  8
0
 10
-160.927
 11
-161.285
 20
379.932
 21
379.615
  0
LINE
  8
0
 10
-161.285
 11
-161.75
 20
379.615
 21
379.5
  0
LINE
  8
0
 10
-161.75
 11
-162.215
 20
379.5
 21
379.615
  0
LINE
  8
0
 10
-162.215
 11
-162.573
 20
379.615
 21
379.932
  0
LINE
  8
0
 10
-162.573
 11
-162.743
 20
379.932
 21
380.379
  0
LINE
  8
0
 10
-162.043
 11
-161.873
 20
36.831
 21
37.278
  0
LINE
  8
0
 10
-161.873
 11
-161.515
 20
37.278
 21
37.595
  0
LINE
  8
0
 10
-161.515
 11
-161.05
 20
37.595
 21
37.71
  0
LINE
  8
0
 10
-161.05
 11
-160.585
 20
37.71
 21
37.595
  0
LINE
  8
0
 10
-160.585
 11
-160.227
 20
37.595
 21
37.278
  0
LINE
  8
0
 10
-160.227
 11
-160.057
 20
37.278
 21
36.831
  0
LINE
  8
0
 10
-160.057
 11
-160.115
 20
36.831
 21
36.355
  0
LINE
  8
0
 10
-160.115
 11
-160.387
 20
36.355
 21
35.961
  0
LINE
  8
0
 10
-160.387
 11
-160.811
 20
35.961
 21
35.739
  0
LINE
  8
0
 10
-160.811
 11
-161.289
 20
35.739
 21
35.739
  0
LINE
  8
0
 10
-161.289
 11
-161.713
 20
35.739
 21
35.961
  0
LINE
  8
0
 10
-161.713
 11
-161.985
 20
35.961
 21
36.355
  0
LINE
  8
0
 10
-161.985
 11
-162.043
 20
36.355
 21
36.831
  0
LINE
  8
0
 10
-162.043
 11
-161.873
 20
352.411
 21
352.858
  0
LINE
  8
0
 10
-161.873
 11
-161.515
 20
352.858
 21
353.175
  0
LINE
  8
0
 10
-161.515
 11
-161.05
 20
353.175
 21
353.29
  0
LINE
  8
0
 10
-161.05
 11
-160.585
 20
353.29
 21
353.175
  0
LINE
  8
0
 10
-160.585
 11
-160.227
 20
353.175
 21
352.858
  0
LINE
  8
0
 10
-160.227
 11
-160.057
 20
352.858
 21
352.411
  0
LINE
  8
0
 10
-160.057
 11
-160.115
 20
352.411
 21
351.935
  0
LINE
  8
0
 10
-160.115
 11
-160.387
 20
351.935
 21
351.541
  0
LINE
  8
0
 10
-160.387
 11
-160.811
 20
351.541
 21
351.319
  0
LINE
  8
0
 10
-160.811
 11
-161.289
 20
351.319
 21
351.319
  0
LINE
  8
0
 10
-161.289
 11
-161.713
 20
351.319
 21
351.541
  0
LINE
  8
0
 10
-161.713
 11
-161.985
 20
351.541
 21
351.935
  0
LINE
  8
0
 10
-161.985
 11
-162.043
 20
351.935
 21
352.411
  0
LINE
  8
0
 10
-161.243
 11
-161.185
 20
323.059
 21
323.535
  0
LINE
  8
0
 10
-161.185
 11
-160.913
 20
323.535
 21
323.929
  0
LINE
  8
0
 10
-160.913
 11
-160.489
 20
323.929
 21
324.151
  0
LINE
  8
0
 10
-160.489
 11
-160.011
 20
324.151
 21
324.151
  0
LINE
  8
0
 10
-160.011
 11
-159.587
 20
324.151
 21
323.929
  0
LINE
  8
0
 10
-159.587
 11
-159.315
 20
323.929
 21
323.535
  0
LINE
  8
0
 10
-159.315
 11
-159.257
 20
323.535
 21
323.059
  0
LINE
  8
0
 10
-159.257
 11
-159.427
 20
323.059
 21
322.612
  0
LINE
  8
0
 10
-159.427
 11
-159.785
 20
322.612
 21
322.295
  0
LINE
  8
0
 10
-159.785
 11
-160.25
 20
322.295
 21
322.18
  0
LINE
  8
0
 10
-160.25
 11
-160.715
 20
322.18
 21
322.295
  0
LINE
  8
0
 10
-160.715
 11
-161.073
 20
322.295
 21
322.612
  0
LINE
  8
0
 10
-161.073
 11
-161.243
 20
322.612
 21
323.059
  0
LINE
  8
0
 10
-141.95
 11
-141.835
 20
8.2
 21
8.665
  0
LINE
  8
0
 10
-141.835
 11
-141.518
 20
8.665
 21
9.023
  0
LINE
  8
0
 10
-141.518
 11
-141.071
 20
9.023
 21
9.193
  0
LINE
  8
0
 10
-141.071
 11
-140.595
 20
9.193
 21
9.135
  0
LINE
  8
0
 10
-140.595
 11
-140.201
 20
9.135
 21
8.863
  0
LINE
  8
0
 10
-140.201
 11
-139.979
 20
8.863
 21
8.439
  0
LINE
  8
0
 10
-139.979
 11
-139.979
 20
8.439
 21
7.961
  0
LINE
  8
0
 10
-139.979
 11
-140.201
 20
7.961
 21
7.537
  0
LINE
  8
0
 10
-140.201
 11
-140.595
 20
7.537
 21
7.265
  0
LINE
  8
0
 10
-140.595
 11
-141.071
 20
7.265
 21
7.207
  0
LINE
  8
0
 10
-141.071
 11
-141.518
 20
7.207
 21
7.377
  0
LINE
  8
0
 10
-141.518
 11
-141.835
 20
7.377
 21
7.735
  0
LINE
  8
0
 10
-141.835
 11
-141.95
 20
7.735
 21
8.2
  0
LINE
  8
0
 10
-115.25
 11
-115.209
 20
214
 21
214.494
  0
LINE
  8
0
 10
-115.209
 11
-115.087
 20
214.494
 21
214.974
  0
LINE
  8
0
 10
-115.087
 11
-114.888
 20
214.974
 21
215.428
  0
LINE
  8
0
 10
-114.888
 11
-114.617
 20
215.428
 21
215.843
  0
LINE
  8
0
 10
-114.617
 11
-114.282
 20
215.843
 21
216.207
  0
LINE
  8
0
 10
-114.282
 11
-113.891
 20
216.207
 21
216.511
  0
LINE
  8
0
 10
-113.891
 11
-113.455
 20
216.511
 21
216.747
  0
LINE
  8
0
 10
-113.455
 11
-112.986
 20
216.747
 21
216.908
  0
LINE
  8
0
 10
-112.986
 11
-112.498
 20
216.908
 21
216.99
  0
LINE
  8
0
 10
-112.498
 11
-25.26
 20
216.99
 21
216.994
  0
LINE
  8
0
 10
-25.26
 11
-25.26
 20
216.994
 21
212
  0
LINE
  8
0
 10
-25.26
 11
11.76
 20
212
 21
212
  0
LINE
  8
0
 10
11.76
 11
11.76
 20
212
 21
216.996
  0
LINE
  8
0
 10
11.76
 11
98.75
 20
216.996
 21
217
  0
LINE
  8
0
 10
98.75
 11
99.244
 20
217
 21
216.959
  0
LINE
  8
0
 10
99.244
 11
99.724
 20
216.959
 21
216.837
  0
LINE
  8
0
 10
99.724
 11
100.178
 20
216.837
 21
216.638
  0
LINE
  8
0
 10
100.178
 11
100.593
 20
216.638
 21
216.367
  0
LINE
  8
0
 10
100.593
 11
100.957
 20
216.367
 21
216.032
  0
LINE
  8
0
 10
100.957
 11
101.261
 20
216.032
 21
215.641
  0
LINE
  8
0
 10
101.261
 11
101.497
 20
215.641
 21
215.205
  0
LINE
  8
0
 10
101.497
 11
101.658
 20
215.205
 21
214.736
  0
LINE
  8
0
 10
101.658
 11
101.74
 20
214.736
 21
214.248
  0
LINE
  8
0
 10
101.74
 11
101.75
 20
214.248
 21
3
  0
LINE
  8
0
 10
101.75
 11
101.709
 20
3
 21
2.506
  0
LINE
  8
0
 10
101.709
 11
101.587
 20
2.506
 21
2.026
  0
LINE
  8
0
 10
101.587
 11
101.388
 20
2.026
 21
1.572
  0
LINE
  8
0
 10
101.388
 11
101.117
 20
1.572
 21
1.157
  0
LINE
  8
0
 10
101.117
 11
100.782
 20
1.157
 21
0.793
  0
LINE
  8
0
 10
100.782
 11
100.391
 20
0.793
 21
0.489
  0
LINE
  8
0
 10
100.391
 11
99.955
 20
0.489
 21
0.253
  0
LINE
  8
0
 10
99.955
 11
99.486
 20
0.253
 21
0.092
  0
LINE
  8
0
 10
99.486
 11
98.998
 20
0.092
 21
0.01
  0
LINE
  8
0
 10
98.998
 11
-112.25
 20
0.01
 21
0
  0
LINE
  8
0
 10
-112.25
 11
-112.744
 20
0
 21
0.041
  0
LINE
  8
0
 10
-112.744
 11
-113.224
 20
0.041
 21
0.163
  0
LINE
  8
0
 10
-113.224
 11
-113.678
 20
0.163
 21
0.362
  0
LINE
  8
0
 10
-113.678
 11
-114.093
 20
0.362
 21
0.633
  0
LINE
  8
0
 10
-114.093
 11
-114.457
 20
0.633
 21
0.968
  0
LINE
  8
0
 10
-114.457
 11
-114.761
 20
0.968
 21
1.359
  0
LINE
  8
0
 10
-114.761
 11
-114.997
 20
1.359
 21
1.795
  0
LINE
  8
0
 10
-114.997
 11
-115.158
 20
1.795
 21
2.264
  0
LINE
  8
0
 10
-115.158
 11
-115.24
 20
2.264
 21
2.752
  0
LINE
  8
0
 10
-115.24
 11
-115.25
 20
2.752
 21
214
  0
LINE
  8
0
 10
-112.5
 11
-112.405
 20
4
 21
4.478
  0
LINE
  8
0
 10
-112.405
 11
-112.134
 20
4.478
 21
4.884
  0
LINE
  8
0
 10
-112.134
 11
-111.728
 20
4.884
 21
5.155
  0
LINE
  8
0
 10
-111.728
 11
-111.25
 20
5.155
 21
5.25
  0
LINE
  8
0
 10
-111.25
 11
-110.772
 20
5.25
 21
5.155
  0
LINE
  8
0
 10
-110.772
 11
-110.366
 20
5.155
 21
4.884
  0
LINE
  8
0
 10
-110.366
 11
-110.095
 20
4.884
 21
4.478
  0
LINE
  8
0
 10
-110.095
 11
-110
 20
4.478
 21
4
  0
LINE
  8
0
 10
-110
 11
-110.095
 20
4
 21
3.522
  0
LINE
  8
0
 10
-110.095
 11
-110.366
 20
3.522
 21
3.116
  0
LINE
  8
0
 10
-110.366
 11
-110.772
 20
3.116
 21
2.845
  0
LINE
  8
0
 10
-110.772
 11
-111.25
 20
2.845
 21
2.75
  0
LINE
  8
0
 10
-111.25
 11
-111.728
 20
2.75
 21
2.845
  0
LINE
  8
0
 10
-111.728
 11
-112.134
 20
2.845
 21
3.116
  0
LINE
  8
0
 10
-112.134
 11
-112.405
 20
3.116
 21
3.522
  0
LINE
  8
0
 10
-112.405
 11
-112.5
 20
3.522
 21
4
  0
LINE
  8
0
 10
-112.5
 11
-112.405
 20
213
 21
213.478
  0
LINE
  8
0
 10
-112.405
 11
-112.134
 20
213.478
 21
213.884
  0
LINE
  8
0
 10
-112.134
 11
-111.728
 20
213.884
 21
214.155
  0
LINE
  8
0
 10
-111.728
 11
-111.25
 20
214.155
 21
214.25
  0
LINE
  8
0
 10
-111.25
 11
-110.772
 20
214.25
 21
214.155
  0
LINE
  8
0
 10
-110.772
 11
-110.366
 20
214.155
 21
213.884
  0
LINE
  8
0
 10
-110.366
 11
-110.095
 20
213.884
 21
213.478
  0
LINE
  8
0
 10
-110.095
 11
-110
 20
213.478
 21
213
  0
LINE
  8
0
 10
-110
 11
-110.095
 20
213
 21
212.522
  0
LINE
  8
0
 10
-110.095
 11
-110.366
 20
212.522
 21
212.116
  0
LINE
  8
0
 10
-110.366
 11
-110.772
 20
212.116
 21
211.845
  0
LINE
  8
0
 10
-110.772
 11
-111.25
 20
211.845
 21
211.75
  0
LINE
  8
0
 10
-111.25
 11
-111.728
 20
211.75
 21
211.845
  0
LINE
  8
0
 10
-111.728
 11
-112.134
 20
211.845
 21
212.116
  0
LINE
  8
0
 10
-112.134
 11
-112.405
 20
212.116
 21
212.522
  0
LINE
  8
0
 10
-112.405
 11
-112.5
 20
212.522
 21
213
  0
LINE
  8
0
 10
-111.4
 11
-111.327
 20
19.5
 21
19.986
  0
LINE
  8
0
 10
-111.327
 11
-111.113
 20
19.986
 21
20.429
  0
LINE
  8
0
 10
-111.113
 11
-110.779
 20
20.429
 21
20.79
  0
LINE
  8
0
 10
-110.779
 11
-110.353
 20
20.79
 21
21.036
  0
LINE
  8
0
 10
-110.353
 11
-109.873
 20
21.036
 21
21.145
  0
LINE
  8
0
 10
-109.873
 11
-109.383
 20
21.145
 21
21.109
  0
LINE
  8
0
 10
-109.383
 11
-108.925
 20
21.109
 21
20.929
  0
LINE
  8
0
 10
-108.925
 11
-108.54
 20
20.929
 21
20.622
  0
LINE
  8
0
 10
-108.54
 11
-108.263
 20
20.622
 21
20.216
  0
LINE
  8
0
 10
-108.263
 11
-108.118
 20
20.216
 21
19.746
  0
LINE
  8
0
 10
-108.118
 11
-108.118
 20
19.746
 21
19.254
  0
LINE
  8
0
 10
-108.118
 11
-108.263
 20
19.254
 21
18.784
  0
LINE
  8
0
 10
-108.263
 11
-108.54
 20
18.784
 21
18.378
  0
LINE
  8
0
 10
-108.54
 11
-108.925
 20
18.378
 21
18.071
  0
LINE
  8
0
 10
-108.925
 11
-109.383
 20
18.071
 21
17.891
  0
LINE
  8
0
 10
-109.383
 11
-109.873
 20
17.891
 21
17.855
  0
LINE
  8
0
 10
-109.873
 11
-110.353
 20
17.855
 21
17.964
  0
LINE
  8
0
 10
-110.353
 11
-110.779
 20
17.964
 21
18.21
  0
LINE
  8
0
 10
-110.779
 11
-111.113
 20
18.21
 21
18.571
  0
LINE
  8
0
 10
-111.113
 11
-111.327
 20
18.571
 21
19.014
  0
LINE
  8
0
 10
-111.327
 11
-111.4
 20
19.014
 21
19.5
  0
LINE
  8
0
 10
-111.4
 11
-111.327
 20
176.5
 21
176.986
  0
LINE
  8
0
 10
-111.327
 11
-111.113
 20
176.986
 21
177.429
  0
LINE
  8
0
 10
-111.113
 11
-110.779
 20
177.429
 21
177.79
  0
LINE
  8
0
 10
-110.779
 11
-110.353
 20
177.79
 21
178.036
  0
LINE
  8
0
 10
-110.353
 11
-109.873
 20
178.036
 21
178.145
  0
LINE
  8
0
 10
-109.873
 11
-109.383
 20
178.145
 21
178.109
  0
LINE
  8
0
 10
-109.383
 11
-108.925
 20
178.109
 21
177.929
  0
LINE
  8
0
 10
-108.925
 11
-108.54
 20
177.929
 21
177.622
  0
LINE
  8
0
 10
-108.54
 11
-108.263
 20
177.622
 21
177.216
  0
LINE
  8
0
 10
-108.263
 11
-108.118
 20
177.216
 21
176.746
  0
LINE
  8
0
 10
-108.118
 11
-108.118
 20
176.746
 21
176.254
  0
LINE
  8
0
 10
-108.118
 11
-108.263
 20
176.254
 21
175.784
  0
LINE
  8
0
 10
-108.263
 11
-108.54
 20
175.784
 21
175.378
  0
LINE
  8
0
 10
-108.54
 11
-108.925
 20
175.378
 21
175.071
  0
LINE
  8
0
 10
-108.925
 11
-109.383
 20
175.071
 21
174.891
  0
LINE
  8
0
 10
-109.383
 11
-109.873
 20
174.891
 21
174.855
  0
LINE
  8
0
 10
-109.873
 11
-110.353
 20
174.855
 21
174.964
  0
LINE
  8
0
 10
-110.353
 11
-110.779
 20
174.964
 21
175.21
  0
LINE
  8
0
 10
-110.779
 11
-111.113
 20
175.21
 21
175.571
  0
LINE
  8
0
 10
-111.113
 11
-111.327
 20
175.571
 21
176.014
  0
LINE
  8
0
 10
-111.327
 11
-111.4
 20
176.014
 21
176.5
  0
LINE
  8
0
 10
-80.4
 11
-80.327
 20
40.5
 21
40.986
  0
LINE
  8
0
 10
-80.327
 11
-80.113
 20
40.986
 21
41.429
  0
LINE
  8
0
 10
-80.113
 11
-79.779
 20
41.429
 21
41.79
  0
LINE
  8
0
 10
-79.779
 11
-79.353
 20
41.79
 21
42.036
  0
LINE
  8
0
 10
-79.353
 11
-78.873
 20
42.036
 21
42.145
  0
LINE
  8
0
 10
-78.873
 11
-78.383
 20
42.145
 21
42.109
  0
LINE
  8
0
 10
-78.383
 11
-77.925
 20
42.109
 21
41.929
  0
LINE
  8
0
 10
-77.925
 11
-77.54
 20
41.929
 21
41.622
  0
LINE
  8
0
 10
-77.54
 11
-77.263
 20
41.622
 21
41.216
  0
LINE
  8
0
 10
-77.263
 11
-77.118
 20
41.216
 21
40.746
  0
LINE
  8
0
 10
-77.118
 11
-77.118
 20
40.746
 21
40.254
  0
LINE
  8
0
 10
-77.118
 11
-77.263
 20
40.254
 21
39.784
  0
LINE
  8
0
 10
-77.263
 11
-77.54
 20
39.784
 21
39.378
  0
LINE
  8
0
 10
-77.54
 11
-77.925
 20
39.378
 21
39.071
  0
LINE
  8
0
 10
-77.925
 11
-78.383
 20
39.071
 21
38.891
  0
LINE
  8
0
 10
-78.383
 11
-78.873
 20
38.891
 21
38.855
  0
LINE
  8
0
 10
-78.873
 11
-79.353
 20
38.855
 21
38.964
  0
LINE
  8
0
 10
-79.353
 11
-79.779
 20
38.964
 21
39.21
  0
LINE
  8
0
 10
-79.779
 11
-80.113
 20
39.21
 21
39.571
  0
LINE
  8
0
 10
-80.113
 11
-80.327
 20
39.571
 21
40.014
  0
LINE
  8
0
 10
-80.327
 11
-80.4
 20
40.014
 21
40.5
  0
LINE
  8
0
 10
-80.4
 11
-80.327
 20
197.5
 21
197.986
  0
LINE
  8
0
 10
-80.327
 11
-80.113
 20
197.986
 21
198.429
  0
LINE
  8
0
 10
-80.113
 11
-79.779
 20
198.429
 21
198.79
  0
LINE
  8
0
 10
-79.779
 11
-79.353
 20
198.79
 21
199.036
  0
LINE
  8
0
 10
-79.353
 11
-78.873
 20
199.036
 21
199.145
  0
LINE
  8
0
 10
-78.873
 11
-78.383
 20
199.145
 21
199.109
  0
LINE
  8
0
 10
-78.383
 11
-77.925
 20
199.109
 21
198.929
  0
LINE
  8
0
 10
-77.925
 11
-77.54
 20
198.929
 21
198.622
  0
LINE
  8
0
 10
-77.54
 11
-77.263
 20
198.622
 21
198.216
  0
LINE
  8
0
 10
-77.263
 11
-77.118
 20
198.216
 21
197.746
  0
LINE
  8
0
 10
-77.118
 11
-77.118
 20
197.746
 21
197.254
  0
LINE
  8
0
 10
-77.118
 11
-77.263
 20
197.254
 21
196.784
  0
LINE
  8
0
 10
-77.263
 11
-77.54
 20
196.784
 21
196.378
  0
LINE
  8
0
 10
-77.54
 11
-77.925
 20
196.378
 21
196.071
  0
LINE
  8
0
 10
-77.925
 11
-78.383
 20
196.071
 21
195.891
  0
LINE
  8
0
 10
-78.383
 11
-78.873
 20
195.891
 21
195.855
  0
LINE
  8
0
 10
-78.873
 11
-79.353
 20
195.855
 21
195.964
  0
LINE
  8
0
 10
-79.353
 11
-79.779
 20
195.964
 21
196.21
  0
LINE
  8
0
 10
-79.779
 11
-80.113
 20
196.21
 21
196.571
  0
LINE
  8
0
 10
-80.113
 11
-80.327
 20
196.571
 21
197.014
  0
LINE
  8
0
 10
-80.327
 11
-80.4
 20
197.014
 21
197.5
  0
LINE
  8
0
 10
-39.91
 11
-39.837
 20
54.825
 21
55.312
  0
LINE
  8
0
 10
-39.837
 11
-39.623
 20
55.312
 21
55.755
  0
LINE
  8
0
 10
-39.623
 11
-39.289
 20
55.755
 21
56.115
  0
LINE
  8
0
 10
-39.289
 11
-38.863
 20
56.115
 21
56.361
  0
LINE
  8
0
 10
-38.863
 11
-38.383
 20
56.361
 21
56.471
  0
LINE
  8
0
 10
-38.383
 11
-37.893
 20
56.471
 21
56.434
  0
LINE
  8
0
 10
-37.893
 11
-37.435
 20
56.434
 21
56.254
  0
LINE
  8
0
 10
-37.435
 11
-37.05
 20
56.254
 21
55.948
  0
LINE
  8
0
 10
-37.05
 11
-36.773
 20
55.948
 21
55.541
  0
LINE
  8
0
 10
-36.773
 11
-36.628
 20
55.541
 21
55.071
  0
LINE
  8
0
 10
-36.628
 11
-36.628
 20
55.071
 21
54.579
  0
LINE
  8
0
 10
-36.628
 11
-36.773
 20
54.579
 21
54.11
  0
LINE
  8
0
 10
-36.773
 11
-37.05
 20
54.11
 21
53.703
  0
LINE
  8
0
 10
-37.05
 11
-37.435
 20
53.703
 21
53.396
  0
LINE
  8
0
 10
-37.435
 11
-37.893
 20
53.396
 21
53.217
  0
LINE
  8
0
 10
-37.893
 11
-38.383
 20
53.217
 21
53.18
  0
LINE
  8
0
 10
-38.383
 11
-38.863
 20
53.18
 21
53.289
  0
LINE
  8
0
 10
-38.863
 11
-39.289
 20
53.289
 21
53.535
  0
LINE
  8
0
 10
-39.289
 11
-39.623
 20
53.535
 21
53.896
  0
LINE
  8
0
 10
-39.623
 11
-39.837
 20
53.896
 21
54.339
  0
LINE
  8
0
 10
-39.837
 11
-39.91
 20
54.339
 21
54.825
  0
LINE
  8
0
 10
-39.91
 11
-39.837
 20
69.475
 21
69.961
  0
LINE
  8
0
 10
-39.837
 11
-39.623
 20
69.961
 21
70.404
  0
LINE
  8
0
 10
-39.623
 11
-39.289
 20
70.404
 21
70.765
  0
LINE
  8
0
 10
-39.289
 11
-38.863
 20
70.765
 21
71.011
  0
LINE
  8
0
 10
-38.863
 11
-38.383
 20
71.011
 21
71.12
  0
LINE
  8
0
 10
-38.383
 11
-37.893
 20
71.12
 21
71.083
  0
LINE
  8
0
 10
-37.893
 11
-37.435
 20
71.083
 21
70.904
  0
LINE
  8
0
 10
-37.435
 11
-37.05
 20
70.904
 21
70.597
  0
LINE
  8
0
 10
-37.05
 11
-36.773
 20
70.597
 21
70.19
  0
LINE
  8
0
 10
-36.773
 11
-36.628
 20
70.19
 21
69.721
  0
LINE
  8
0
 10
-36.628
 11
-36.628
 20
69.721
 21
69.229
  0
LINE
  8
0
 10
-36.628
 11
-36.773
 20
69.229
 21
68.759
  0
LINE
  8
0
 10
-36.773
 11
-37.05
 20
68.759
 21
68.352
  0
LINE
  8
0
 10
-37.05
 11
-37.435
 20
68.352
 21
68.046
  0
LINE
  8
0
 10
-37.435
 11
-37.893
 20
68.046
 21
67.866
  0
LINE
  8
0
 10
-37.893
 11
-38.383
 20
67.866
 21
67.829
  0
LINE
  8
0
 10
-38.383
 11
-38.863
 20
67.829
 21
67.939
  0
LINE
  8
0
 10
-38.863
 11
-39.289
 20
67.939
 21
68.185
  0
LINE
  8
0
 10
-39.289
 11
-39.623
 20
68.185
 21
68.545
  0
LINE
  8
0
 10
-39.623
 11
-39.837
 20
68.545
 21
68.988
  0
LINE
  8
0
 10
-39.837
 11
-39.91
 20
68.988
 21
69.475
  0
LINE
  8
0
 10
-39.892
 11
-39.892
 20
144.429
 21
144.921
  0
LINE
  8
0
 10
-39.892
 11
-39.747
 20
144.921
 21
145.391
  0
LINE
  8
0
 10
-39.747
 11
-39.47
 20
145.391
 21
145.798
  0
LINE
  8
0
 10
-39.47
 11
-39.085
 20
145.798
 21
146.104
  0
LINE
  8
0
 10
-39.085
 11
-38.627
 20
146.104
 21
146.284
  0
LINE
  8
0
 10
-38.627
 11
-38.137
 20
146.284
 21
146.321
  0
LINE
  8
0
 10
-38.137
 11
-37.657
 20
146.321
 21
146.211
  0
LINE
  8
0
 10
-37.657
 11
-37.231
 20
146.211
 21
145.965
  0
LINE
  8
0
 10
-37.231
 11
-36.897
 20
145.965
 21
145.605
  0
LINE
  8
0
 10
-36.897
 11
-36.683
 20
145.605
 21
145.162
  0
LINE
  8
0
 10
-36.683
 11
-36.61
 20
145.162
 21
144.675
  0
LINE
  8
0
 10
-36.61
 11
-36.683
 20
144.675
 21
144.189
  0
LINE
  8
0
 10
-36.683
 11
-36.897
 20
144.189
 21
143.746
  0
LINE
  8
0
 10
-36.897
 11
-37.231
 20
143.746
 21
143.385
  0
LINE
  8
0
 10
-37.231
 11
-37.657
 20
143.385
 21
143.139
  0
LINE
  8
0
 10
-37.657
 11
-38.137
 20
143.139
 21
143.03
  0
LINE
  8
0
 10
-38.137
 11
-38.627
 20
143.03
 21
143.067
  0
LINE
  8
0
 10
-38.627
 11
-39.085
 20
143.067
 21
143.246
  0
LINE
  8
0
 10
-39.085
 11
-39.47
 20
143.246
 21
143.553
  0
LINE
  8
0
 10
-39.47
 11
-39.747
 20
143.553
 21
143.96
  0
LINE
  8
0
 10
-39.747
 11
-39.892
 20
143.96
 21
144.429
  0
LINE
  8
0
 10
-39.892
 11
-39.892
 20
159.079
 21
159.571
  0
LINE
  8
0
 10
-39.892
 11
-39.747
 20
159.571
 21
160.04
  0
LINE
  8
0
 10
-39.747
 11
-39.47
 20
160.04
 21
160.447
  0
LINE
  8
0
 10
-39.47
 11
-39.085
 20
160.447
 21
160.754
  0
LINE
  8
0
 10
-39.085
 11
-38.627
 20
160.754
 21
160.933
  0
LINE
  8
0
 10
-38.627
 11
-38.137
 20
160.933
 21
160.97
  0
LINE
  8
0
 10
-38.137
 11
-37.657
 20
160.97
 21
160.861
  0
LINE
  8
0
 10
-37.657
 11
-37.231
 20
160.861
 21
160.615
  0
LINE
  8
0
 10
-37.231
 11
-36.897
 20
160.615
 21
160.254
  0
LINE
  8
0
 10
-36.897
 11
-36.683
 20
160.254
 21
159.811
  0
LINE
  8
0
 10
-36.683
 11
-36.61
 20
159.811
 21
159.325
  0
LINE
  8
0
 10
-36.61
 11
-36.683
 20
159.325
 21
158.838
  0
LINE
  8
0
 10
-36.683
 11
-36.897
 20
158.838
 21
158.395
  0
LINE
  8
0
 10
-36.897
 11
-37.231
 20
158.395
 21
158.035
  0
LINE
  8
0
 10
-37.231
 11
-37.657
 20
158.035
 21
157.789
  0
LINE
  8
0
 10
-37.657
 11
-38.137
 20
157.789
 21
157.679
  0
LINE
  8
0
 10
-38.137
 11
-38.627
 20
157.679
 21
157.716
  0
LINE
  8
0
 10
-38.627
 11
-39.085
 20
157.716
 21
157.896
  0
LINE
  8
0
 10
-39.085
 11
-39.47
 20
157.896
 21
158.202
  0
LINE
  8
0
 10
-39.47
 11
-39.747
 20
158.202
 21
158.609
  0
LINE
  8
0
 10
-39.747
 11
-39.892
 20
158.609
 21
159.079
  0
LINE
  8
0
 10
-29.042
 11
-29.042
 20
206.754
 21
207.246
  0
LINE
  8
0
 10
-29.042
 11
-28.897
 20
207.246
 21
207.716
  0
LINE
  8
0
 10
-28.897
 11
-28.62
 20
207.716
 21
208.122
  0
LINE
  8
0
 10
-28.62
 11
-28.235
 20
208.122
 21
208.429
  0
LINE
  8
0
 10
-28.235
 11
-27.777
 20
208.429
 21
208.609
  0
LINE
  8
0
 10
-27.777
 11
-27.287
 20
208.609
 21
208.645
  0
LINE
  8
0
 10
-27.287
 11
-26.807
 20
208.645
 21
208.536
  0
LINE
  8
0
 10
-26.807
 11
-26.381
 20
208.536
 21
208.29
  0
LINE
  8
0
 10
-26.381
 11
-26.047
 20
208.29
 21
207.929
  0
LINE
  8
0
 10
-26.047
 11
-25.833
 20
207.929
 21
207.486
  0
LINE
  8
0
 10
-25.833
 11
-25.76
 20
207.486
 21
207
  0
LINE
  8
0
 10
-25.76
 11
-25.833
 20
207
 21
206.514
  0
LINE
  8
0
 10
-25.833
 11
-26.047
 20
206.514
 21
206.071
  0
LINE
  8
0
 10
-26.047
 11
-26.381
 20
206.071
 21
205.71
  0
LINE
  8
0
 10
-26.381
 11
-26.807
 20
205.71
 21
205.464
  0
LINE
  8
0
 10
-26.807
 11
-27.287
 20
205.464
 21
205.355
  0
LINE
  8
0
 10
-27.287
 11
-27.777
 20
205.355
 21
205.391
  0
LINE
  8
0
 10
-27.777
 11
-28.235
 20
205.391
 21
205.571
  0
LINE
  8
0
 10
-28.235
 11
-28.62
 20
205.571
 21
205.878
  0
LINE
  8
0
 10
-28.62
 11
-28.897
 20
205.878
 21
206.284
  0
LINE
  8
0
 10
-28.897
 11
-29.042
 20
206.284
 21
206.754
  0
LINE
  8
0
 10
12.278
 11
12.278
 20
206.754
 21
207.246
  0
LINE
  8
0
 10
12.278
 11
12.423
 20
207.246
 21
207.716
  0
LINE
  8
0
 10
12.423
 11
12.7
 20
207.716
 21
208.122
  0
LINE
  8
0
 10
12.7
 11
13.085
 20
208.122
 21
208.429
  0
LINE
  8
0
 10
13.085
 11
13.543
 20
208.429
 21
208.609
  0
LINE
  8
0
 10
13.543
 11
14.033
 20
208.609
 21
208.645
  0
LINE
  8
0
 10
14.033
 11
14.513
 20
208.645
 21
208.536
  0
LINE
  8
0
 10
14.513
 11
14.939
 20
208.536
 21
208.29
  0
LINE
  8
0
 10
14.939
 11
15.273
 20
208.29
 21
207.929
  0
LINE
  8
0
 10
15.273
 11
15.487
 20
207.929
 21
207.486
  0
LINE
  8
0
 10
15.487
 11
15.56
 20
207.486
 21
207
  0
LINE
  8
0
 10
15.56
 11
15.487
 20
207
 21
206.514
  0
LINE
  8
0
 10
15.487
 11
15.273
 20
206.514
 21
206.071
  0
LINE
  8
0
 10
15.273
 11
14.939
 20
206.071
 21
205.71
  0
LINE
  8
0
 10
14.939
 11
14.513
 20
205.71
 21
205.464
  0
LINE
  8
0
 10
14.513
 11
14.033
 20
205.464
 21
205.355
  0
LINE
  8
0
 10
14.033
 11
13.543
 20
205.355
 21
205.391
  0
LINE
  8
0
 10
13.543
 11
13.085
 20
205.391
 21
205.571
  0
LINE
  8
0
 10
13.085
 11
12.7
 20
205.571
 21
205.878
  0
LINE
  8
0
 10
12.7
 11
12.423
 20
205.878
 21
206.284
  0
LINE
  8
0
 10
12.423
 11
12.278
 20
206.284
 21
206.754
  0
LINE
  8
0
 10
63.6
 11
63.673
 20
98
 21
98.486
  0
LINE
  8
0
 10
63.673
 11
63.887
 20
98.486
 21
98.929
  0
LINE
  8
0
 10
63.887
 11
64.221
 20
98.929
 21
99.29
  0
LINE
  8
0
 10
64.221
 11
64.647
 20
99.29
 21
99.536
  0
LINE
  8
0
 10
64.647
 11
65.127
 20
99.536
 21
99.645
  0
LINE
  8
0
 10
65.127
 11
65.617
 20
99.645
 21
99.609
  0
LINE
  8
0
 10
65.617
 11
66.075
 20
99.609
 21
99.429
  0
LINE
  8
0
 10
66.075
 11
66.46
 20
99.429
 21
99.122
  0
LINE
  8
0
 10
66.46
 11
66.737
 20
99.122
 21
98.716
  0
LINE
  8
0
 10
66.737
 11
66.882
 20
98.716
 21
98.246
  0
LINE
  8
0
 10
66.882
 11
66.882
 20
98.246
 21
97.754
  0
LINE
  8
0
 10
66.882
 11
66.737
 20
97.754
 21
97.284
  0
LINE
  8
0
 10
66.737
 11
66.46
 20
97.284
 21
96.878
  0
LINE
  8
0
 10
66.46
 11
66.075
 20
96.878
 21
96.571
  0
LINE
  8
0
 10
66.075
 11
65.617
 20
96.571
 21
96.391
  0
LINE
  8
0
 10
65.617
 11
65.127
 20
96.391
 21
96.355
  0
LINE
  8
0
 10
65.127
 11
64.647
 20
96.355
 21
96.464
  0
LINE
  8
0
 10
64.647
 11
64.221
 20
96.464
 21
96.71
  0
LINE
  8
0
 10
64.221
 11
63.887
 20
96.71
 21
97.071
  0
LINE
  8
0
 10
63.887
 11
63.673
 20
97.071
 21
97.514
  0
LINE
  8
0
 10
63.673
 11
63.6
 20
97.514
 21
98
  0
LINE
  8
0
 10
94.6
 11
94.673
 20
119
 21
119.486
  0
LINE
  8
0
 10
94.673
 11
94.887
 20
119.486
 21
119.929
  0
LINE
  8
0
 10
94.887
 11
95.221
 20
119.929
 21
120.29
  0
LINE
  8
0
 10
95.221
 11
95.647
 20
120.29
 21
120.536
  0
LINE
  8
0
 10
95.647
 11
96.127
 20
120.536
 21
120.645
  0
LINE
  8
0
 10
96.127
 11
96.617
 20
120.645
 21
120.609
  0
LINE
  8
0
 10
96.617
 11
97.075
 20
120.609
 21
120.429
  0
LINE
  8
0
 10
97.075
 11
97.46
 20
120.429
 21
120.122
  0
LINE
  8
0
 10
97.46
 11
97.737
 20
120.122
 21
119.716
  0
LINE
  8
0
 10
97.737
 11
97.882
 20
119.716
 21
119.246
  0
LINE
  8
0
 10
97.882
 11
97.882
 20
119.246
 21
118.754
  0
LINE
  8
0
 10
97.882
 11
97.737
 20
118.754
 21
118.284
  0
LINE
  8
0
 10
97.737
 11
97.46
 20
118.284
 21
117.878
  0
LINE
  8
0
 10
97.46
 11
97.075
 20
117.878
 21
117.571
  0
LINE
  8
0
 10
97.075
 11
96.617
 20
117.571
 21
117.391
  0
LINE
  8
0
 10
96.617
 11
96.127
 20
117.391
 21
117.355
  0
LINE
  8
0
 10
96.127
 11
95.647
 20
117.355
 21
117.464
  0
LINE
  8
0
 10
95.647
 11
95.221
 20
117.464
 21
117.71
  0
LINE
  8
0
 10
95.221
 11
94.887
 20
117.71
 21
118.071
  0
LINE
  8
0
 10
94.887
 11
94.673
 20
118.071
 21
118.514
  0
LINE
  8
0
 10
94.673
 11
94.6
 20
118.514
 21
119
  0
LINE
  8
0
 10
96.5
 11
96.595
 20
4
 21
4.478
  0
LINE
  8
0
 10
96.595
 11
96.866
 20
4.478
 21
4.884
  0
LINE
  8
0
 10
96.866
 11
97.272
 20
4.884
 21
5.155
  0
LINE
  8
0
 10
97.272
 11
97.75
 20
5.155
 21
5.25
  0
LINE
  8
0
 10
97.75
 11
98.228
 20
5.25
 21
5.155
  0
LINE
  8
0
 10
98.228
 11
98.634
 20
5.155
 21
4.884
  0
LINE
  8
0
 10
98.634
 11
98.905
 20
4.884
 21
4.478
  0
LINE
  8
0
 10
98.905
 11
99
 20
4.478
 21
4
  0
LINE
  8
0
 10
99
 11
98.905
 20
4
 21
3.522
  0
LINE
  8
0
 10
98.905
 11
98.634
 20
3.522
 21
3.116
  0
LINE
  8
0
 10
98.634
 11
98.228
 20
3.116
 21
2.845
  0
LINE
  8
0
 10
98.228
 11
97.75
 20
2.845
 21
2.75
  0
LINE
  8
0
 10
97.75
 11
97.272
 20
2.75
 21
2.845
  0
LINE
  8
0
 10
97.272
 11
96.866
 20
2.845
 21
3.116
  0
LINE
  8
0
 10
96.866
 11
96.595
 20
3.116
 21
3.522
  0
LINE
  8
0
 10
96.595
 11
96.5
 20
3.522
 21
4
  0
LINE
  8
0
 10
96.5
 11
96.595
 20
213
 21
213.478
  0
LINE
  8
0
 10
96.595
 11
96.866
 20
213.478
 21
213.884
  0
LINE
  8
0
 10
96.866
 11
97.272
 20
213.884
 21
214.155
  0
LINE
  8
0
 10
97.272
 11
97.75
 20
214.155
 21
214.25
  0
LINE
  8
0
 10
97.75
 11
98.228
 20
214.25
 21
214.155
  0
LINE
  8
0
 10
98.228
 11
98.634
 20
214.155
 21
213.884
  0
LINE
  8
0
 10
98.634
 11
98.905
 20
213.884
 21
213.478
  0
LINE
  8
0
 10
98.905
 11
99
 20
213.478
 21
213
  0
LINE
  8
0
 10
99
 11
98.905
 20
213
 21
212.522
  0
LINE
  8
0
 10
98.905
 11
98.634
 20
212.522
 21
212.116
  0
LINE
  8
0
 10
98.634
 11
98.228
 20
212.116
 21
211.845
  0
LINE
  8
0
 10
98.228
 11
97.75
 20
211.845
 21
211.75
  0
LINE
  8
0
 10
97.75
 11
97.272
 20
211.75
 21
211.845
  0
LINE
  8
0
 10
97.272
 11
96.866
 20
211.845
 21
212.116
  0
LINE
  8
0
 10
96.866
 11
96.595
 20
212.116
 21
212.522
  0
LINE
  8
0
 10
96.595
 11
96.5
 20
212.522
 21
213
  0
LINE
  8
0
 10
123.257
 11
123.315
 20
380.379
 21
380.855
  0
LINE
  8
0
 10
123.315
 11
123.587
 20
380.855
 21
381.249
  0
LINE
  8
0
 10
123.587
 11
124.011
 20
381.249
 21
381.471
  0
LINE
  8
0
 10
124.011
 11
124.489
 20
381.471
 21
381.471
  0
LINE
  8
0
 10
124.489
 11
124.913
 20
381.471
 21
381.249
  0
LINE
  8
0
 10
124.913
 11
125.185
 20
381.249
 21
380.855
  0
LINE
  8
0
 10
125.185
 11
125.243
 20
380.855
 21
380.379
  0
LINE
  8
0
 10
125.243
 11
125.073
 20
380.379
 21
379.932
  0
LINE
  8
0
 10
125.073
 11
124.715
 20
379.932
 21
379.615
  0
LINE
  8
0
 10
124.715
 11
124.25
 20
379.615
 21
379.5
  0
LINE
  8
0
 10
124.25
 11
123.785
 20
379.5
 21
379.615
  0
LINE
  8
0
 10
123.785
 11
123.427
 20
379.615
 21
379.932
  0
LINE
  8
0
 10
123.427
 11
123.257
 20
379.932
 21
380.379
  0
LINE
  8
0
 10
126.657
 11
126.715
 20
323.059
 21
323.535
  0
LINE
  8
0
 10
126.715
 11
126.987
 20
323.535
 21
323.929
  0
LINE
  8
0
 10
126.987
 11
127.411
 20
323.929
 21
324.151
  0
LINE
  8
0
 10
127.411
 11
127.889
 20
324.151
 21
324.151
  0
LINE
  8
0
 10
127.889
 11
128.313
 20
324.151
 21
323.929
  0
LINE
  8
0
 10
128.313
 11
128.585
 20
323.929
 21
323.535
  0
LINE
  8
0
 10
128.585
 11
128.643
 20
323.535
 21
323.059
  0
LINE
  8
0
 10
128.643
 11
128.473
 20
323.059
 21
322.612
  0
LINE
  8
0
 10
128.473
 11
128.115
 20
322.612
 21
322.295
  0
LINE
  8
0
 10
128.115
 11
127.65
 20
322.295
 21
322.18
  0
LINE
  8
0
 10
127.65
 11
127.185
 20
322.18
 21
322.295
  0
LINE
  8
0
 10
127.185
 11
126.827
 20
322.295
 21
322.612
  0
LINE
  8
0
 10
126.827
 11
126.657
 20
322.612
 21
323.059
  0
LINE
  8
0
 10
127.457
 11
127.515
 20
36.589
 21
37.065
  0
LINE
  8
0
 10
127.515
 11
127.787
 20
37.065
 21
37.459
  0
LINE
  8
0
 10
127.787
 11
128.211
 20
37.459
 21
37.681
  0
LINE
  8
0
 10
128.211
 11
128.689
 20
37.681
 21
37.681
  0
LINE
  8
0
 10
128.689
 11
129.113
 20
37.681
 21
37.459
  0
LINE
  8
0
 10
129.113
 11
129.385
 20
37.459
 21
37.065
  0
LINE
  8
0
 10
129.385
 11
129.443
 20
37.065
 21
36.589
  0
LINE
  8
0
 10
129.443
 11
129.273
 20
36.589
 21
36.142
  0
LINE
  8
0
 10
129.273
 11
128.915
 20
36.142
 21
35.825
  0
LINE
  8
0
 10
128.915
 11
128.45
 20
35.825
 21
35.71
  0
LINE
  8
0
 10
128.45
 11
127.985
 20
35.71
 21
35.825
  0
LINE
  8
0
 10
127.985
 11
127.627
 20
35.825
 21
36.142
  0
LINE
  8
0
 10
127.627
 11
127.457
 20
36.142
 21
36.589
  0
LINE
  8
0
 10
127.457
 11
127.515
 20
352.169
 21
352.645
  0
LINE
  8
0
 10
127.515
 11
127.787
 20
352.645
 21
353.039
  0
LINE
  8
0
 10
127.787
 11
128.211
 20
353.039
 21
353.261
  0
LINE
  8
0
 10
128.211
 11
128.689
 20
353.261
 21
353.261
  0
LINE
  8
0
 10
128.689
 11
129.113
 20
353.261
 21
353.039
  0
LINE
  8
0
 10
129.113
 11
129.385
 20
353.039
 21
352.645
  0
LINE
  8
0
 10
129.385
 11
129.443
 20
352.645
 21
352.169
  0
LINE
  8
0
 10
129.443
 11
129.273
 20
352.169
 21
351.722
  0
LINE
  8
0
 10
129.273
 11
128.915
 20
351.722
 21
351.405
  0
LINE
  8
0
 10
128.915
 11
128.45
 20
351.405
 21
351.29
  0
LINE
  8
0
 10
128.45
 11
127.985
 20
351.29
 21
351.405
  0
LINE
  8
0
 10
127.985
 11
127.627
 20
351.405
 21
351.722
  0
LINE
  8
0
 10
127.627
 11
127.457
 20
351.722
 21
352.169
  0
LINE
  8
0
 10
141.279
 11
141.279
 20
60.761
 21
61.239
  0
LINE
  8
0
 10
141.279
 11
141.501
 20
61.239
 21
61.663
  0
LINE
  8
0
 10
141.501
 11
141.895
 20
61.663
 21
61.935
  0
LINE
  8
0
 10
141.895
 11
142.371
 20
61.935
 21
61.993
  0
LINE
  8
0
 10
142.371
 11
142.818
 20
61.993
 21
61.823
  0
LINE
  8
0
 10
142.818
 11
143.135
 20
61.823
 21
61.465
  0
LINE
  8
0
 10
143.135
 11
143.25
 20
61.465
 21
61
  0
LINE
  8
0
 10
143.25
 11
143.135
 20
61
 21
60.535
  0
LINE
  8
0
 10
143.135
 11
142.818
 20
60.535
 21
60.177
  0
LINE
  8
0
 10
142.818
 11
142.371
 20
60.177
 21
60.007
  0
LINE
  8
0
 10
142.371
 11
141.895
 20
60.007
 21
60.065
  0
LINE
  8
0
 10
141.895
 11
141.501
 20
60.065
 21
60.337
  0
LINE
  8
0
 10
141.501
 11
141.279
 20
60.337
 21
60.761
  0
LINE
  8
0
 10
156.257
 11
156.315
 20
380.379
 21
380.855
  0
LINE
  8
0
 10
156.315
 11
156.587
 20
380.855
 21
381.249
  0
LINE
  8
0
 10
156.587
 11
157.011
 20
381.249
 21
381.471
  0
LINE
  8
0
 10
157.011
 11
157.489
 20
381.471
 21
381.471
  0
LINE
  8
0
 10
157.489
 11
157.913
 20
381.471
 21
381.249
  0
LINE
  8
0
 10
157.913
 11
158.185
 20
381.249
 21
380.855
  0
LINE
  8
0
 10
158.185
 11
158.243
 20
380.855
 21
380.379
  0
LINE
  8
0
 10
158.243
 11
158.073
 20
380.379
 21
379.932
  0
LINE
  8
0
 10
158.073
 11
157.715
 20
379.932
 21
379.615
  0
LINE
  8
0
 10
157.715
 11
157.25
 20
379.615
 21
379.5
  0
LINE
  8
0
 10
157.25
 11
156.785
 20
379.5
 21
379.615
  0
LINE
  8
0
 10
156.785
 11
156.427
 20
379.615
 21
379.932
  0
LINE
  8
0
 10
156.427
 11
156.257
 20
379.932
 21
380.379
  0
LINE
  8
0
 10
157.35
 11
157.465
 20
8.2
 21
8.665
  0
LINE
  8
0
 10
157.465
 11
157.782
 20
8.665
 21
9.023
  0
LINE
  8
0
 10
157.782
 11
158.229
 20
9.023
 21
9.193
  0
LINE
  8
0
 10
158.229
 11
158.705
 20
9.193
 21
9.135
  0
LINE
  8
0
 10
158.705
 11
159.099
 20
9.135
 21
8.863
  0
LINE
  8
0
 10
159.099
 11
159.321
 20
8.863
 21
8.439
  0
LINE
  8
0
 10
159.321
 11
159.321
 20
8.439
 21
7.961
  0
LINE
  8
0
 10
159.321
 11
159.099
 20
7.961
 21
7.537
  0
LINE
  8
0
 10
159.099
 11
158.705
 20
7.537
 21
7.265
  0
LINE
  8
0
 10
158.705
 11
158.229
 20
7.265
 21
7.207
  0
LINE
  8
0
 10
158.229
 11
157.782
 20
7.207
 21
7.377
  0
LINE
  8
0
 10
157.782
 11
157.465
 20
7.377
 21
7.735
  0
LINE
  8
0
 10
157.465
 11
157.35
 20
7.735
 21
8.2
  0
LINE
  8
0
 10
158.87
 11
158.918
 20
20.9
 21
21.388
  0
LINE
  8
0
 10
158.918
 11
159.06
 20
21.388
 21
21.857
  0
LINE
  8
0
 10
159.06
 11
159.291
 20
21.857
 21
22.289
  0
LINE
  8
0
 10
159.291
 11
159.602
 20
22.289
 21
22.668
  0
LINE
  8
0
 10
159.602
 11
159.981
 20
22.668
 21
22.979
  0
LINE
  8
0
 10
159.981
 11
160.413
 20
22.979
 21
23.21
  0
LINE
  8
0
 10
160.413
 11
160.882
 20
23.21
 21
23.352
  0
LINE
  8
0
 10
160.882
 11
161.37
 20
23.352
 21
23.4
  0
LINE
  8
0
 10
161.37
 11
161.858
 20
23.4
 21
23.352
  0
LINE
  8
0
 10
161.858
 11
162.327
 20
23.352
 21
23.21
  0
LINE
  8
0
 10
162.327
 11
162.759
 20
23.21
 21
22.979
  0
LINE
  8
0
 10
162.759
 11
163.138
 20
22.979
 21
22.668
  0
LINE
  8
0
 10
163.138
 11
163.449
 20
22.668
 21
22.289
  0
LINE
  8
0
 10
163.449
 11
163.68
 20
22.289
 21
21.857
  0
LINE
  8
0
 10
163.68
 11
163.822
 20
21.857
 21
21.388
  0
LINE
  8
0
 10
163.822
 11
163.87
 20
21.388
 21
20.9
  0
LINE
  8
0
 10
163.87
 11
163.822
 20
20.9
 21
20.412
  0
LINE
  8
0
 10
163.822
 11
163.68
 20
20.412
 21
19.943
  0
LINE
  8
0
 10
163.68
 11
163.449
 20
19.943
 21
19.511
  0
LINE
  8
0
 10
163.449
 11
163.138
 20
19.511
 21
19.132
  0
LINE
  8
0
 10
163.138
 11
162.759
 20
19.132
 21
18.821
  0
LINE
  8
0
 10
162.759
 11
162.327
 20
18.821
 21
18.59
  0
LINE
  8
0
 10
162.327
 11
161.858
 20
18.59
 21
18.448
  0
LINE
  8
0
 10
161.858
 11
161.37
 20
18.448
 21
18.4
  0
LINE
  8
0
 10
161.37
 11
160.882
 20
18.4
 21
18.448
  0
LINE
  8
0
 10
160.882
 11
160.413
 20
18.448
 21
18.59
  0
LINE
  8
0
 10
160.413
 11
159.981
 20
18.59
 21
18.821
  0
LINE
  8
0
 10
159.981
 11
159.602
 20
18.821
 21
19.132
  0
LINE
  8
0
 10
159.602
 11
159.291
 20
19.132
 21
19.511
  0
LINE
  8
0
 10
159.291
 11
159.06
 20
19.511
 21
19.943
  0
LINE
  8
0
 10
159.06
 11
158.918
 20
19.943
 21
20.412
  0
LINE
  8
0
 10
158.918
 11
158.87
 20
20.412
 21
20.9
  0
LINE
  8
0
 10
173.279
 11
173.279
 20
60.761
 21
61.239
  0
LINE
  8
0
 10
173.279
 11
173.501
 20
61.239
 21
61.663
  0
LINE
  8
0
 10
173.501
 11
173.895
 20
61.663
 21
61.935
  0
LINE
  8
0
 10
173.895
 11
174.371
 20
61.935
 21
61.993
  0
LINE
  8
0
 10
174.371
 11
174.818
 20
61.993
 21
61.823
  0
LINE
  8
0
 10
174.818
 11
175.135
 20
61.823
 21
61.465
  0
LINE
  8
0
 10
175.135
 11
175.25
 20
61.465
 21
61
  0
LINE
  8
0
 10
175.25
 11
175.135
 20
61
 21
60.535
  0
LINE
  8
0
 10
175.135
 11
174.818
 20
60.535
 21
60.177
  0
LINE
  8
0
 10
174.818
 11
174.371
 20
60.177
 21
60.007
  0
LINE
  8
0
 10
174.371
 11
173.895
 20
60.007
 21
60.065
  0
LINE
  8
0
 10
173.895
 11
173.501
 20
60.065
 21
60.337
  0
LINE
  8
0
 10
173.501
 11
173.279
 20
60.337
 21
60.761
  0
LINE
  8
0
 10
178.57
 11
178.685
 20
8.2
 21
8.665
  0
LINE
  8
0
 10
178.685
 11
179.002
 20
8.665
 21
9.023
  0
LINE
  8
0
 10
179.002
 11
179.449
 20
9.023
 21
9.193
  0
LINE
  8
0
 10
179.449
 11
179.925
 20
9.193
 21
9.135
  0
LINE
  8
0
 10
179.925
 11
180.319
 20
9.135
 21
8.863
  0
LINE
  8
0
 10
180.319
 11
180.541
 20
8.863
 21
8.439
  0
LINE
  8
0
 10
180.541
 11
180.541
 20
8.439
 21
7.961
  0
LINE
  8
0
 10
180.541
 11
180.319
 20
7.961
 21
7.537
  0
LINE
  8
0
 10
180.319
 11
179.925
 20
7.537
 21
7.265
  0
LINE
  8
0
 10
179.925
 11
179.449
 20
7.265
 21
7.207
  0
LINE
  8
0
 10
179.449
 11
179.002
 20
7.207
 21
7.377
  0
LINE
  8
0
 10
179.002
 11
178.685
 20
7.377
 21
7.735
  0
LINE
  8
0
 10
178.685
 11
178.57
 20
7.735
 21
8.2
  0
LINE
  8
0
 10
183.579
 11
183.579
 20
376.761
 21
377.239
  0
LINE
  8
0
 10
183.579
 11
183.801
 20
377.239
 21
377.663
  0
LINE
  8
0
 10
183.801
 11
184.195
 20
377.663
 21
377.935
  0
LINE
  8
0
 10
184.195
 11
184.671
 20
377.935
 21
377.993
  0
LINE
  8
0
 10
184.671
 11
185.118
 20
377.993
 21
377.823
  0
LINE
  8
0
 10
185.118
 11
185.435
 20
377.823
 21
377.465
  0
LINE
  8
0
 10
185.435
 11
185.55
 20
377.465
 21
377
  0
LINE
  8
0
 10
185.55
 11
185.435
 20
377
 21
376.535
  0
LINE
  8
0
 10
185.435
 11
185.118
 20
376.535
 21
376.177
  0
LINE
  8
0
 10
185.118
 11
184.671
 20
376.177
 21
376.007
  0
LINE
  8
0
 10
184.671
 11
184.195
 20
376.007
 21
376.065
  0
LINE
  8
0
 10
184.195
 11
183.801
 20
376.065
 21
376.337
  0
LINE
  8
0
 10
183.801
 11
183.579
 20
376.337
 21
376.761
  0
LINE
  8
0
 10
203.33
 11
203.445
 20
8.2
 21
8.665
  0
LINE
  8
0
 10
203.445
 11
203.762
 20
8.665
 21
9.023
  0
LINE
  8
0
 10
203.762
 11
204.209
 20
9.023
 21
9.193
  0
LINE
  8
0
 10
204.209
 11
204.685
 20
9.193
 21
9.135
  0
LINE
  8
0
 10
204.685
 11
205.079
 20
9.135
 21
8.863
  0
LINE
  8
0
 10
205.079
 11
205.301
 20
8.863
 21
8.439
  0
LINE
  8
0
 10
205.301
 11
205.301
 20
8.439
 21
7.961
  0
LINE
  8
0
 10
205.301
 11
205.079
 20
7.961
 21
7.537
  0
LINE
  8
0
 10
205.079
 11
204.685
 20
7.537
 21
7.265
  0
LINE
  8
0
 10
204.685
 11
204.209
 20
7.265
 21
7.207
  0
LINE
  8
0
 10
204.209
 11
203.762
 20
7.207
 21
7.377
  0
LINE
  8
0
 10
203.762
 11
203.445
 20
7.377
 21
7.735
  0
LINE
  8
0
 10
203.445
 11
203.33
 20
7.735
 21
8.2
  0
LINE
  8
0
 10
217.979
 11
217.979
 20
376.761
 21
377.239
  0
LINE
  8
0
 10
217.979
 11
218.201
 20
377.239
 21
377.663
  0
LINE
  8
0
 10
218.201
 11
218.595
 20
377.663
 21
377.935
  0
LINE
  8
0
 10
218.595
 11
219.071
 20
377.935
 21
377.993
  0
LINE
  8
0
 10
219.071
 11
219.518
 20
377.993
 21
377.823
  0
LINE
  8
0
 10
219.518
 11
219.835
 20
377.823
 21
377.465
  0
LINE
  8
0
 10
219.835
 11
219.95
 20
377.465
 21
377
  0
LINE
  8
0
 10
219.95
 11
219.835
 20
377
 21
376.535
  0
LINE
  8
0
 10
219.835
 11
219.518
 20
376.535
 21
376.177
  0
LINE
  8
0
 10
219.518
 11
219.071
 20
376.177
 21
376.007
  0
LINE
  8
0
 10
219.071
 11
218.595
 20
376.007
 21
376.065
  0
LINE
  8
0
 10
218.595
 11
218.201
 20
376.065
 21
376.337
  0
LINE
  8
0
 10
218.201
 11
217.979
 20
376.337
 21
376.761
  0
LINE
  8
0
 10
224.55
 11
224.665
 20
8.2
 21
8.665
  0
LINE
  8
0
 10
224.665
 11
224.982
 20
8.665
 21
9.023
  0
LINE
  8
0
 10
224.982
 11
225.429
 20
9.023
 21
9.193
  0
LINE
  8
0
 10
225.429
 11
225.905
 20
9.193
 21
9.135
  0
LINE
  8
0
 10
225.905
 11
226.299
 20
9.135
 21
8.863
  0
LINE
  8
0
 10
226.299
 11
226.521
 20
8.863
 21
8.439
  0
LINE
  8
0
 10
226.521
 11
226.521
 20
8.439
 21
7.961
  0
LINE
  8
0
 10
226.521
 11
226.299
 20
7.961
 21
7.537
  0
LINE
  8
0
 10
226.299
 11
225.905
 20
7.537
 21
7.265
  0
LINE
  8
0
 10
225.905
 11
225.429
 20
7.265
 21
7.207
  0
LINE
  8
0
 10
225.429
 11
224.982
 20
7.207
 21
7.377
  0
LINE
  8
0
 10
224.982
 11
224.665
 20
7.377
 21
7.735
  0
LINE
  8
0
 10
224.665
 11
224.55
 20
7.735
 21
8.2
  0
ENDSEC
  0
SECTION
  2
OBJECTS
  0
DICTIONARY
  0
ENDSEC
  0
EOF
