<?xml version="1.0"?>
<svg xmlns="http://www.w3.org/2000/svg" version="1.1" height="331mm" width="401mm" >
 <g style="fill-opacity:1.0; stroke:black; stroke-width:1;">
  <line x1="391.000000mm" y1="321.000000mm" x2="391.000000mm" y2="321.000000mm" />
  <line x1="391.000000mm" y1="321.000000mm" x2="0.000000mm" y2="321.000000mm" />
  <line x1="0.000000mm" y1="321.000000mm" x2="0.000000mm" y2="162.500000mm" />
  <line x1="0.000000mm" y1="162.500000mm" x2="391.000000mm" y2="162.500000mm" />
  <line x1="391.000000mm" y1="162.500000mm" x2="391.000000mm" y2="321.000000mm" />
  <line x1="391.000000mm" y1="158.500000mm" x2="391.000000mm" y2="158.500000mm" />
  <line x1="391.000000mm" y1="158.500000mm" x2="0.000000mm" y2="158.500000mm" />
  <line x1="0.000000mm" y1="158.500000mm" x2="0.000000mm" y2="0.000000mm" />
  <line x1="0.000000mm" y1="0.000000mm" x2="391.000000mm" y2="0.000000mm" />
  <line x1="391.000000mm" y1="0.000000mm" x2="391.000000mm" y2="158.500000mm" />
  <circle cx="8.500151mm" cy="256.599567mm" r="3.499825mm" fill="none"/>
  <line x1="15.499802mm" y1="256.599567mm" x2="1.500500mm" y2="256.599567mm" />
  <line x1="8.500151mm" y1="249.599917mm" x2="8.500151mm" y2="263.599218mm" />
  <text x="11mm" y="253mm" font-size="24">
   7.0
  </text>
  <circle cx="7.500170mm" cy="181.399939mm" r="2.500268mm" fill="none"/>
  <line x1="12.500707mm" y1="181.399939mm" x2="2.499633mm" y2="181.399939mm" />
  <line x1="7.500170mm" y1="176.399402mm" x2="7.500170mm" y2="186.400476mm" />
  <text x="10mm" y="178mm" font-size="24">
   5.0
  </text>
  <circle cx="7.000009mm" cy="244.399777mm" r="1.999983mm" fill="none"/>
  <line x1="10.999974mm" y1="244.399777mm" x2="3.000044mm" y2="244.399777mm" />
  <line x1="7.000009mm" y1="240.399812mm" x2="7.000009mm" y2="248.399742mm" />
  <text x="8mm" y="242mm" font-size="24">
   4.0
  </text>
  <circle cx="7.000009mm" cy="190.899777mm" r="1.999983mm" fill="none"/>
  <line x1="10.999974mm" y1="190.899777mm" x2="3.000044mm" y2="190.899777mm" />
  <line x1="7.000009mm" y1="186.899812mm" x2="7.000009mm" y2="194.899742mm" />
  <text x="8mm" y="188mm" font-size="24">
   4.0
  </text>
  <circle cx="8.200066mm" cy="311.300138mm" r="1.000138mm" fill="none"/>
  <line x1="10.200342mm" y1="311.300138mm" x2="6.199790mm" y2="311.300138mm" />
  <line x1="8.200066mm" y1="309.299862mm" x2="8.200066mm" y2="313.300414mm" />
  <text x="9mm" y="310mm" font-size="24">
   2.0
  </text>
  <circle cx="8.200066mm" cy="291.280138mm" r="1.000138mm" fill="none"/>
  <line x1="10.200342mm" y1="291.280138mm" x2="6.199790mm" y2="291.280138mm" />
  <line x1="8.200066mm" y1="289.279862mm" x2="8.200066mm" y2="293.280414mm" />
  <text x="9mm" y="290mm" font-size="24">
   2.0
  </text>
  <circle cx="8.200066mm" cy="29.720138mm" r="1.000138mm" fill="none"/>
  <line x1="10.200342mm" y1="29.720138mm" x2="6.199790mm" y2="29.720138mm" />
  <line x1="8.200066mm" y1="27.719862mm" x2="8.200066mm" y2="31.720414mm" />
  <text x="9mm" y="28mm" font-size="24">
   2.0
  </text>
  <circle cx="8.200066mm" cy="9.700138mm" r="1.000138mm" fill="none"/>
  <line x1="10.200342mm" y1="9.700138mm" x2="6.199790mm" y2="9.700138mm" />
  <line x1="8.200066mm" y1="7.699862mm" x2="8.200066mm" y2="11.700414mm" />
  <text x="9mm" y="8mm" font-size="24">
   2.0
  </text>
  <circle cx="26.100371mm" cy="150.299769mm" r="1.000161mm" fill="none"/>
  <line x1="28.100692mm" y1="150.299769mm" x2="24.100050mm" y2="150.299769mm" />
  <line x1="26.100371mm" y1="148.299448mm" x2="26.100371mm" y2="152.300090mm" />
  <text x="27mm" y="149mm" font-size="24">
   2.0
  </text>
  <circle cx="26.099659mm" cy="170.700016mm" r="1.000019mm" fill="none"/>
  <line x1="28.099698mm" y1="170.700016mm" x2="24.099621mm" y2="170.700016mm" />
  <line x1="26.099659mm" y1="168.699978mm" x2="26.099659mm" y2="172.700054mm" />
  <text x="27mm" y="169mm" font-size="24">
   2.0
  </text>
  <circle cx="32.899659mm" cy="314.000016mm" r="1.000019mm" fill="none"/>
  <line x1="34.899698mm" y1="314.000016mm" x2="30.899621mm" y2="314.000016mm" />
  <line x1="32.899659mm" y1="311.999978mm" x2="32.899659mm" y2="316.000054mm" />
  <text x="33mm" y="312mm" font-size="24">
   2.0
  </text>
  <circle cx="46.120371mm" cy="150.299769mm" r="1.000161mm" fill="none"/>
  <line x1="48.120692mm" y1="150.299769mm" x2="44.120050mm" y2="150.299769mm" />
  <line x1="46.120371mm" y1="148.299448mm" x2="46.120371mm" y2="152.300090mm" />
  <text x="47mm" y="149mm" font-size="24">
   2.0
  </text>
  <circle cx="46.119659mm" cy="170.700016mm" r="1.000019mm" fill="none"/>
  <line x1="48.119698mm" y1="170.700016mm" x2="44.119621mm" y2="170.700016mm" />
  <line x1="46.119659mm" y1="168.699978mm" x2="46.119659mm" y2="172.700054mm" />
  <text x="47mm" y="169mm" font-size="24">
   2.0
  </text>
  <circle cx="53.249964mm" cy="135.849964mm" r="2.200229mm" fill="none"/>
  <line x1="57.650421mm" y1="135.849964mm" x2="48.849507mm" y2="135.849964mm" />
  <line x1="53.249964mm" y1="131.449507mm" x2="53.249964mm" y2="140.250421mm" />
  <text x="55mm" y="133mm" font-size="24">
   4.4
  </text>
  <circle cx="53.249964mm" cy="64.349964mm" r="2.200229mm" fill="none"/>
  <line x1="57.650421mm" y1="64.349964mm" x2="48.849507mm" y2="64.349964mm" />
  <line x1="53.249964mm" y1="59.949507mm" x2="53.249964mm" y2="68.750421mm" />
  <text x="55mm" y="62mm" font-size="24">
   4.4
  </text>
  <circle cx="89.000225mm" cy="100.099651mm" r="37.499925mm" fill="none"/>
  <line x1="164.000075mm" y1="100.099651mm" x2="14.000375mm" y2="100.099651mm" />
  <line x1="89.000225mm" y1="25.099800mm" x2="89.000225mm" y2="175.099501mm" />
  <text x="126mm" y="62mm" font-size="24">
   75.0
  </text>
  <circle cx="124.749964mm" cy="135.849964mm" r="2.200229mm" fill="none"/>
  <line x1="129.150421mm" y1="135.849964mm" x2="120.349507mm" y2="135.849964mm" />
  <line x1="124.749964mm" y1="131.449507mm" x2="124.749964mm" y2="140.250421mm" />
  <text x="126mm" y="133mm" font-size="24">
   4.4
  </text>
  <circle cx="124.749964mm" cy="64.349964mm" r="2.200229mm" fill="none"/>
  <line x1="129.150421mm" y1="64.349964mm" x2="120.349507mm" y2="64.349964mm" />
  <line x1="124.749964mm" y1="59.949507mm" x2="124.749964mm" y2="68.750421mm" />
  <text x="126mm" y="62mm" font-size="24">
   4.4
  </text>
  <circle cx="149.899659mm" cy="314.000016mm" r="1.000019mm" fill="none"/>
  <line x1="151.899698mm" y1="314.000016mm" x2="147.899621mm" y2="314.000016mm" />
  <line x1="149.899659mm" y1="311.999978mm" x2="149.899659mm" y2="316.000054mm" />
  <text x="150mm" y="312mm" font-size="24">
   2.0
  </text>
  <circle cx="192.050194mm" cy="306.450223mm" r="0.849908mm" fill="none"/>
  <line x1="193.750009mm" y1="306.450223mm" x2="190.350378mm" y2="306.450223mm" />
  <line x1="192.050194mm" y1="304.750407mm" x2="192.050194mm" y2="308.150038mm" />
  <text x="192mm" y="305mm" font-size="24">
   1.7
  </text>
  <circle cx="192.050194mm" cy="274.950223mm" r="0.849908mm" fill="none"/>
  <line x1="193.750009mm" y1="274.950223mm" x2="190.350378mm" y2="274.950223mm" />
  <line x1="192.050194mm" y1="273.250407mm" x2="192.050194mm" y2="276.650038mm" />
  <text x="192mm" y="274mm" font-size="24">
   1.7
  </text>
  <circle cx="206.350194mm" cy="290.550223mm" r="0.849908mm" fill="none"/>
  <line x1="208.050009mm" y1="290.550223mm" x2="204.650378mm" y2="290.550223mm" />
  <line x1="206.350194mm" y1="288.850407mm" x2="206.350194mm" y2="292.250038mm" />
  <text x="207mm" y="289mm" font-size="24">
   1.7
  </text>
  <circle cx="206.350194mm" cy="259.050223mm" r="0.849908mm" fill="none"/>
  <line x1="208.050009mm" y1="259.050223mm" x2="204.650378mm" y2="259.050223mm" />
  <line x1="206.350194mm" y1="257.350407mm" x2="206.350194mm" y2="260.750038mm" />
  <text x="207mm" y="258mm" font-size="24">
   1.7
  </text>
  <circle cx="241.870087mm" cy="265.880061mm" r="1.250061mm" fill="none"/>
  <line x1="244.370208mm" y1="265.880061mm" x2="239.369966mm" y2="265.880061mm" />
  <line x1="241.870087mm" y1="263.379939mm" x2="241.870087mm" y2="268.380182mm" />
  <text x="243mm" y="264mm" font-size="24">
   2.5
  </text>
  <circle cx="243.140087mm" cy="217.620061mm" r="1.250061mm" fill="none"/>
  <line x1="245.640208mm" y1="217.620061mm" x2="240.639966mm" y2="217.620061mm" />
  <line x1="243.140087mm" y1="215.119939mm" x2="243.140087mm" y2="220.120182mm" />
  <text x="244mm" y="216mm" font-size="24">
   2.5
  </text>
  <circle cx="286.511361mm" cy="194.599847mm" r="1.000116mm" fill="none"/>
  <line x1="288.511593mm" y1="194.599847mm" x2="284.511129mm" y2="194.599847mm" />
  <line x1="286.511361mm" y1="192.599615mm" x2="286.511361mm" y2="196.600079mm" />
  <text x="287mm" y="193mm" font-size="24">
   2.0
  </text>
  <circle cx="286.511361mm" cy="69.599847mm" r="1.000116mm" fill="none"/>
  <line x1="288.511593mm" y1="69.599847mm" x2="284.511129mm" y2="69.599847mm" />
  <line x1="286.511361mm" y1="67.599615mm" x2="286.511361mm" y2="71.600079mm" />
  <text x="287mm" y="68mm" font-size="24">
   2.0
  </text>
  <circle cx="293.940087mm" cy="260.800061mm" r="1.250061mm" fill="none"/>
  <line x1="296.440208mm" y1="260.800061mm" x2="291.439966mm" y2="260.800061mm" />
  <line x1="293.940087mm" y1="258.299939mm" x2="293.940087mm" y2="263.300182mm" />
  <text x="295mm" y="259mm" font-size="24">
   2.5
  </text>
  <circle cx="293.940087mm" cy="232.860061mm" r="1.250061mm" fill="none"/>
  <line x1="296.440208mm" y1="232.860061mm" x2="291.439966mm" y2="232.860061mm" />
  <line x1="293.940087mm" y1="230.359939mm" x2="293.940087mm" y2="235.360182mm" />
  <text x="295mm" y="231mm" font-size="24">
   2.5
  </text>
  <circle cx="318.070087mm" cy="217.620061mm" r="1.250061mm" fill="none"/>
  <line x1="320.570208mm" y1="217.620061mm" x2="315.569966mm" y2="217.620061mm" />
  <line x1="318.070087mm" y1="215.119939mm" x2="318.070087mm" y2="220.120182mm" />
  <text x="319mm" y="216mm" font-size="24">
   2.5
  </text>
  <circle cx="320.279808mm" cy="170.500013mm" r="2.999761mm" fill="none"/>
  <line x1="326.279330mm" y1="170.500013mm" x2="314.280285mm" y2="170.500013mm" />
  <line x1="320.279808mm" y1="164.500490mm" x2="320.279808mm" y2="176.499535mm" />
  <text x="323mm" y="167mm" font-size="24">
   6.0
  </text>
  <circle cx="320.279808mm" cy="150.500013mm" r="2.999761mm" fill="none"/>
  <line x1="326.279330mm" y1="150.500013mm" x2="314.280285mm" y2="150.500013mm" />
  <line x1="320.279808mm" y1="144.500490mm" x2="320.279808mm" y2="156.499535mm" />
  <text x="323mm" y="147mm" font-size="24">
   6.0
  </text>
  <circle cx="324.420087mm" cy="265.880061mm" r="1.250061mm" fill="none"/>
  <line x1="326.920208mm" y1="265.880061mm" x2="321.919966mm" y2="265.880061mm" />
  <line x1="324.420087mm" y1="263.379939mm" x2="324.420087mm" y2="268.380182mm" />
  <text x="325mm" y="264mm" font-size="24">
   2.5
  </text>
  <circle cx="331.779818mm" cy="169.500055mm" r="2.000011mm" fill="none"/>
  <line x1="335.779840mm" y1="169.500055mm" x2="327.779795mm" y2="169.500055mm" />
  <line x1="331.779818mm" y1="165.500033mm" x2="331.779818mm" y2="173.500077mm" />
  <text x="333mm" y="167mm" font-size="24">
   4.0
  </text>
  <circle cx="331.779818mm" cy="151.500055mm" r="2.000011mm" fill="none"/>
  <line x1="335.779840mm" y1="151.500055mm" x2="327.779795mm" y2="151.500055mm" />
  <line x1="331.779818mm" y1="147.500033mm" x2="331.779818mm" y2="155.500077mm" />
  <text x="333mm" y="149mm" font-size="24">
   4.0
  </text>
  <circle cx="344.880371mm" cy="150.299769mm" r="1.000161mm" fill="none"/>
  <line x1="346.880692mm" y1="150.299769mm" x2="342.880050mm" y2="150.299769mm" />
  <line x1="344.880371mm" y1="148.299448mm" x2="344.880371mm" y2="152.300090mm" />
  <text x="345mm" y="149mm" font-size="24">
   2.0
  </text>
  <circle cx="344.879659mm" cy="170.700016mm" r="1.000019mm" fill="none"/>
  <line x1="346.879698mm" y1="170.700016mm" x2="342.879621mm" y2="170.700016mm" />
  <line x1="344.879659mm" y1="168.699978mm" x2="344.879659mm" y2="172.700054mm" />
  <text x="345mm" y="169mm" font-size="24">
   2.0
  </text>
  <circle cx="364.900371mm" cy="150.299769mm" r="1.000161mm" fill="none"/>
  <line x1="366.900692mm" y1="150.299769mm" x2="362.900050mm" y2="150.299769mm" />
  <line x1="364.900371mm" y1="148.299448mm" x2="364.900371mm" y2="152.300090mm" />
  <text x="365mm" y="149mm" font-size="24">
   2.0
  </text>
  <circle cx="364.899659mm" cy="170.700016mm" r="1.000019mm" fill="none"/>
  <line x1="366.899698mm" y1="170.700016mm" x2="362.899621mm" y2="170.700016mm" />
  <line x1="364.899659mm" y1="168.699978mm" x2="364.899659mm" y2="172.700054mm" />
  <text x="365mm" y="169mm" font-size="24">
   2.0
  </text>
 </g>
</svg>
