<?xml version="1.0"?>
<svg xmlns="http://www.w3.org/2000/svg" version="1.1" height="401mm" width="481mm" >
 <g style="fill-opacity:1.0; stroke:black; stroke-width:1;">
  <line x1="103.500000mm" y1="391.000000mm" x2="103.500000mm" y2="391.000000mm" />
  <line x1="103.500000mm" y1="391.000000mm" x2="0.000000mm" y2="391.000000mm" />
  <line x1="0.000000mm" y1="391.000000mm" x2="0.000000mm" y2="0.000000mm" />
  <line x1="0.000000mm" y1="0.000000mm" x2="470.500000mm" y2="0.000000mm" />
  <line x1="470.500000mm" y1="0.000000mm" x2="470.500000mm" y2="391.000000mm" />
  <line x1="470.500000mm" y1="391.000000mm" x2="353.500000mm" y2="391.000000mm" />
  <line x1="353.500000mm" y1="391.000000mm" x2="353.500000mm" y2="109.900000mm" />
  <line x1="353.500000mm" y1="109.900000mm" x2="353.475000mm" y2="109.402000mm" />
  <line x1="353.475000mm" y1="109.402000mm" x2="353.401000mm" y2="108.909000mm" />
  <line x1="353.401000mm" y1="108.909000mm" x2="353.278000mm" y2="108.426000mm" />
  <line x1="353.278000mm" y1="108.426000mm" x2="353.107000mm" y2="107.958000mm" />
  <line x1="353.107000mm" y1="107.958000mm" x2="352.891000mm" y2="107.509000mm" />
  <line x1="352.891000mm" y1="107.509000mm" x2="352.631000mm" y2="107.083000mm" />
  <line x1="352.631000mm" y1="107.083000mm" x2="352.330000mm" y2="106.686000mm" />
  <line x1="352.330000mm" y1="106.686000mm" x2="351.991000mm" y2="106.321000mm" />
  <line x1="351.991000mm" y1="106.321000mm" x2="351.617000mm" y2="105.991000mm" />
  <line x1="351.617000mm" y1="105.991000mm" x2="351.213000mm" y2="105.700000mm" />
  <line x1="351.213000mm" y1="105.700000mm" x2="350.781000mm" y2="105.451000mm" />
  <line x1="350.781000mm" y1="105.451000mm" x2="350.327000mm" y2="105.246000mm" />
  <line x1="350.327000mm" y1="105.246000mm" x2="349.854000mm" y2="105.087000mm" />
  <line x1="349.854000mm" y1="105.087000mm" x2="349.368000mm" y2="104.976000mm" />
  <line x1="349.368000mm" y1="104.976000mm" x2="348.874000mm" y2="104.914000mm" />
  <line x1="348.874000mm" y1="104.914000mm" x2="348.500000mm" y2="104.905000mm" />
  <line x1="348.500000mm" y1="104.905000mm" x2="348.500000mm" y2="104.900000mm" />
  <line x1="348.500000mm" y1="104.900000mm" x2="108.500000mm" y2="104.900000mm" />
  <line x1="108.500000mm" y1="104.900000mm" x2="108.500000mm" y2="104.905000mm" />
  <line x1="108.500000mm" y1="104.905000mm" x2="108.375000mm" y2="104.902000mm" />
  <line x1="108.375000mm" y1="104.902000mm" x2="107.878000mm" y2="104.939000mm" />
  <line x1="107.878000mm" y1="104.939000mm" x2="107.387000mm" y2="105.025000mm" />
  <line x1="107.387000mm" y1="105.025000mm" x2="106.908000mm" y2="105.160000mm" />
  <line x1="106.908000mm" y1="105.160000mm" x2="106.444000mm" y2="105.342000mm" />
  <line x1="106.444000mm" y1="105.342000mm" x2="106.000000mm" y2="105.570000mm" />
  <line x1="106.000000mm" y1="105.570000mm" x2="105.581000mm" y2="105.840000mm" />
  <line x1="105.581000mm" y1="105.840000mm" x2="105.192000mm" y2="106.151000mm" />
  <line x1="105.192000mm" y1="106.151000mm" x2="104.835000mm" y2="106.499000mm" />
  <line x1="104.835000mm" y1="106.499000mm" x2="104.514000mm" y2="106.881000mm" />
  <line x1="104.514000mm" y1="106.881000mm" x2="104.234000mm" y2="107.293000mm" />
  <line x1="104.234000mm" y1="107.293000mm" x2="103.995000mm" y2="107.731000mm" />
  <line x1="103.995000mm" y1="107.731000mm" x2="103.802000mm" y2="108.190000mm" />
  <line x1="103.802000mm" y1="108.190000mm" x2="103.655000mm" y2="108.666000mm" />
  <line x1="103.655000mm" y1="108.666000mm" x2="103.556000mm" y2="109.155000mm" />
  <line x1="103.556000mm" y1="109.155000mm" x2="103.506000mm" y2="109.651000mm" />
  <line x1="103.506000mm" y1="109.651000mm" x2="103.506000mm" y2="109.900000mm" />
  <line x1="103.506000mm" y1="109.900000mm" x2="103.500000mm" y2="109.900000mm" />
  <line x1="103.500000mm" y1="109.900000mm" x2="103.500000mm" y2="391.000000mm" />
  <circle cx="7.499659mm" cy="275.900016mm" r="1.000019mm" fill="none"/>
  <line x1="9.499698mm" y1="275.900016mm" x2="5.499621mm" y2="275.900016mm" />
  <line x1="7.499659mm" y1="273.899978mm" x2="7.499659mm" y2="277.900054mm" />
  <text x="8mm" y="274mm" font-size="24">
   2.0
  </text>
  <circle cx="7.499659mm" cy="234.500016mm" r="1.000019mm" fill="none"/>
  <line x1="9.499698mm" y1="234.500016mm" x2="5.499621mm" y2="234.500016mm" />
  <line x1="7.499659mm" y1="232.499978mm" x2="7.499659mm" y2="236.500054mm" />
  <text x="8mm" y="233mm" font-size="24">
   2.0
  </text>
  <circle cx="9.700371mm" cy="382.799769mm" r="1.000161mm" fill="none"/>
  <line x1="11.700692mm" y1="382.799769mm" x2="7.700050mm" y2="382.799769mm" />
  <line x1="9.700371mm" y1="380.799448mm" x2="9.700371mm" y2="384.800090mm" />
  <text x="10mm" y="381mm" font-size="24">
   2.0
  </text>
  <circle cx="16.499659mm" cy="330.000016mm" r="1.000019mm" fill="none"/>
  <line x1="18.499698mm" y1="330.000016mm" x2="14.499621mm" y2="330.000016mm" />
  <line x1="16.499659mm" y1="327.999978mm" x2="16.499659mm" y2="332.000054mm" />
  <text x="17mm" y="328mm" font-size="24">
   2.0
  </text>
  <circle cx="29.720371mm" cy="382.799769mm" r="1.000161mm" fill="none"/>
  <line x1="31.720692mm" y1="382.799769mm" x2="27.720050mm" y2="382.799769mm" />
  <line x1="29.720371mm" y1="380.799448mm" x2="29.720371mm" y2="384.800090mm" />
  <text x="30mm" y="381mm" font-size="24">
   2.0
  </text>
  <circle cx="34.499818mm" cy="318.000055mm" r="2.000011mm" fill="none"/>
  <line x1="38.499840mm" y1="318.000055mm" x2="30.499795mm" y2="318.000055mm" />
  <line x1="34.499818mm" y1="314.000033mm" x2="34.499818mm" y2="322.000077mm" />
  <text x="36mm" y="316mm" font-size="24">
   4.0
  </text>
  <circle cx="40.499818mm" cy="19.000055mm" r="2.000011mm" fill="none"/>
  <line x1="44.499840mm" y1="19.000055mm" x2="36.499795mm" y2="19.000055mm" />
  <line x1="40.499818mm" y1="15.000033mm" x2="40.499818mm" y2="23.000077mm" />
  <text x="42mm" y="17mm" font-size="24">
   4.0
  </text>
  <circle cx="41.920170mm" cy="383.499939mm" r="2.500268mm" fill="none"/>
  <line x1="46.920707mm" y1="383.499939mm" x2="36.919633mm" y2="383.499939mm" />
  <line x1="41.920170mm" y1="378.499402mm" x2="41.920170mm" y2="388.500476mm" />
  <text x="44mm" y="380mm" font-size="24">
   5.0
  </text>
  <circle cx="40.500000mm" cy="8.499997mm" r="0.999978mm" fill="none"/>
  <line x1="42.499956mm" y1="8.499997mm" x2="38.500044mm" y2="8.499997mm" />
  <line x1="40.500000mm" y1="6.500041mm" x2="40.500000mm" y2="10.499953mm" />
  <text x="41mm" y="7mm" font-size="24">
   2.0
  </text>
  <circle cx="48.499659mm" cy="330.000016mm" r="1.000019mm" fill="none"/>
  <line x1="50.499698mm" y1="330.000016mm" x2="46.499621mm" y2="330.000016mm" />
  <line x1="48.499659mm" y1="327.999978mm" x2="48.499659mm" y2="332.000054mm" />
  <text x="49mm" y="328mm" font-size="24">
   2.0
  </text>
  <circle cx="73.500000mm" cy="8.499997mm" r="0.999978mm" fill="none"/>
  <line x1="75.499956mm" y1="8.499997mm" x2="71.500044mm" y2="8.499997mm" />
  <line x1="73.500000mm" y1="6.500041mm" x2="73.500000mm" y2="10.499953mm" />
  <text x="74mm" y="7mm" font-size="24">
   2.0
  </text>
  <circle cx="74.200066mm" cy="354.890138mm" r="1.000138mm" fill="none"/>
  <line x1="76.200342mm" y1="354.890138mm" x2="72.199790mm" y2="354.890138mm" />
  <line x1="74.200066mm" y1="352.889862mm" x2="74.200066mm" y2="356.890414mm" />
  <text x="75mm" y="353mm" font-size="24">
   2.0
  </text>
  <circle cx="74.200066mm" cy="36.110138mm" r="1.000138mm" fill="none"/>
  <line x1="76.200342mm" y1="36.110138mm" x2="72.199790mm" y2="36.110138mm" />
  <line x1="74.200066mm" y1="34.109862mm" x2="74.200066mm" y2="38.110414mm" />
  <text x="75mm" y="35mm" font-size="24">
   2.0
  </text>
  <circle cx="74.280371mm" cy="382.799769mm" r="1.000161mm" fill="none"/>
  <line x1="76.280692mm" y1="382.799769mm" x2="72.280050mm" y2="382.799769mm" />
  <line x1="74.280371mm" y1="380.799448mm" x2="74.280371mm" y2="384.800090mm" />
  <text x="75mm" y="381mm" font-size="24">
   2.0
  </text>
  <circle cx="75.000000mm" cy="64.619997mm" r="0.999978mm" fill="none"/>
  <line x1="76.999956mm" y1="64.619997mm" x2="73.000044mm" y2="64.619997mm" />
  <line x1="75.000000mm" y1="62.620041mm" x2="75.000000mm" y2="66.619953mm" />
  <text x="75mm" y="63mm" font-size="24">
   2.0
  </text>
  <circle cx="94.300371mm" cy="382.799769mm" r="1.000161mm" fill="none"/>
  <line x1="96.300692mm" y1="382.799769mm" x2="92.300050mm" y2="382.799769mm" />
  <line x1="94.300371mm" y1="380.799448mm" x2="94.300371mm" y2="384.800090mm" />
  <text x="95mm" y="381mm" font-size="24">
   2.0
  </text>
  <line x1="120.010000mm" y1="388.248000mm" x2="120.010000mm" y2="388.248000mm" />
  <line x1="120.010000mm" y1="388.248000mm" x2="120.000000mm" y2="177.000000mm" />
  <line x1="120.000000mm" y1="177.000000mm" x2="120.041000mm" y2="176.506000mm" />
  <line x1="120.041000mm" y1="176.506000mm" x2="120.163000mm" y2="176.026000mm" />
  <line x1="120.163000mm" y1="176.026000mm" x2="120.362000mm" y2="175.572000mm" />
  <line x1="120.362000mm" y1="175.572000mm" x2="120.633000mm" y2="175.157000mm" />
  <line x1="120.633000mm" y1="175.157000mm" x2="120.968000mm" y2="174.793000mm" />
  <line x1="120.968000mm" y1="174.793000mm" x2="121.359000mm" y2="174.489000mm" />
  <line x1="121.359000mm" y1="174.489000mm" x2="121.795000mm" y2="174.253000mm" />
  <line x1="121.795000mm" y1="174.253000mm" x2="122.264000mm" y2="174.092000mm" />
  <line x1="122.264000mm" y1="174.092000mm" x2="122.752000mm" y2="174.010000mm" />
  <line x1="122.752000mm" y1="174.010000mm" x2="209.990000mm" y2="174.006000mm" />
  <line x1="209.990000mm" y1="174.006000mm" x2="209.990000mm" y2="178.100000mm" />
  <line x1="209.990000mm" y1="178.100000mm" x2="247.010000mm" y2="178.100000mm" />
  <line x1="247.010000mm" y1="178.100000mm" x2="247.010000mm" y2="174.004000mm" />
  <line x1="247.010000mm" y1="174.004000mm" x2="334.000000mm" y2="174.000000mm" />
  <line x1="334.000000mm" y1="174.000000mm" x2="334.494000mm" y2="174.041000mm" />
  <line x1="334.494000mm" y1="174.041000mm" x2="334.974000mm" y2="174.163000mm" />
  <line x1="334.974000mm" y1="174.163000mm" x2="335.428000mm" y2="174.362000mm" />
  <line x1="335.428000mm" y1="174.362000mm" x2="335.843000mm" y2="174.633000mm" />
  <line x1="335.843000mm" y1="174.633000mm" x2="336.207000mm" y2="174.968000mm" />
  <line x1="336.207000mm" y1="174.968000mm" x2="336.511000mm" y2="175.359000mm" />
  <line x1="336.511000mm" y1="175.359000mm" x2="336.747000mm" y2="175.795000mm" />
  <line x1="336.747000mm" y1="175.795000mm" x2="336.908000mm" y2="176.264000mm" />
  <line x1="336.908000mm" y1="176.264000mm" x2="336.990000mm" y2="176.752000mm" />
  <line x1="336.990000mm" y1="176.752000mm" x2="337.000000mm" y2="388.000000mm" />
  <line x1="337.000000mm" y1="388.000000mm" x2="336.959000mm" y2="388.494000mm" />
  <line x1="336.959000mm" y1="388.494000mm" x2="336.837000mm" y2="388.974000mm" />
  <line x1="336.837000mm" y1="388.974000mm" x2="336.638000mm" y2="389.428000mm" />
  <line x1="336.638000mm" y1="389.428000mm" x2="336.367000mm" y2="389.843000mm" />
  <line x1="336.367000mm" y1="389.843000mm" x2="336.032000mm" y2="390.207000mm" />
  <line x1="336.032000mm" y1="390.207000mm" x2="335.641000mm" y2="390.511000mm" />
  <line x1="335.641000mm" y1="390.511000mm" x2="335.205000mm" y2="390.747000mm" />
  <line x1="335.205000mm" y1="390.747000mm" x2="334.736000mm" y2="390.908000mm" />
  <line x1="334.736000mm" y1="390.908000mm" x2="334.248000mm" y2="390.990000mm" />
  <line x1="334.248000mm" y1="390.990000mm" x2="123.000000mm" y2="391.000000mm" />
  <line x1="123.000000mm" y1="391.000000mm" x2="122.506000mm" y2="390.959000mm" />
  <line x1="122.506000mm" y1="390.959000mm" x2="122.026000mm" y2="390.837000mm" />
  <line x1="122.026000mm" y1="390.837000mm" x2="121.572000mm" y2="390.638000mm" />
  <line x1="121.572000mm" y1="390.638000mm" x2="121.157000mm" y2="390.367000mm" />
  <line x1="121.157000mm" y1="390.367000mm" x2="120.793000mm" y2="390.032000mm" />
  <line x1="120.793000mm" y1="390.032000mm" x2="120.489000mm" y2="389.641000mm" />
  <line x1="120.489000mm" y1="389.641000mm" x2="120.253000mm" y2="389.205000mm" />
  <line x1="120.253000mm" y1="389.205000mm" x2="120.092000mm" y2="388.736000mm" />
  <line x1="120.092000mm" y1="388.736000mm" x2="120.010000mm" y2="388.248000mm" />
  <circle cx="124.000087mm" cy="387.000061mm" r="1.250061mm" fill="none"/>
  <line x1="126.500208mm" y1="387.000061mm" x2="121.499966mm" y2="387.000061mm" />
  <line x1="124.000087mm" y1="384.499939mm" x2="124.000087mm" y2="389.500182mm" />
  <text x="125mm" y="385mm" font-size="24">
   2.5
  </text>
  <circle cx="124.000087mm" cy="178.000061mm" r="1.250061mm" fill="none"/>
  <line x1="126.500208mm" y1="178.000061mm" x2="121.499966mm" y2="178.000061mm" />
  <line x1="124.000087mm" y1="175.499939mm" x2="124.000087mm" y2="180.500182mm" />
  <text x="125mm" y="176mm" font-size="24">
   2.5
  </text>
  <circle cx="125.499999mm" cy="371.499893mm" r="1.650220mm" fill="none"/>
  <line x1="128.800439mm" y1="371.499893mm" x2="122.199559mm" y2="371.499893mm" />
  <line x1="125.499999mm" y1="368.199453mm" x2="125.499999mm" y2="374.800333mm" />
  <text x="127mm" y="369mm" font-size="24">
   3.3
  </text>
  <circle cx="125.499999mm" cy="214.499893mm" r="1.650220mm" fill="none"/>
  <line x1="128.800439mm" y1="214.499893mm" x2="122.199559mm" y2="214.499893mm" />
  <line x1="125.499999mm" y1="211.199453mm" x2="125.499999mm" y2="217.800333mm" />
  <text x="127mm" y="212mm" font-size="24">
   3.3
  </text>
  <circle cx="156.499999mm" cy="350.499893mm" r="1.650220mm" fill="none"/>
  <line x1="159.800439mm" y1="350.499893mm" x2="153.199559mm" y2="350.499893mm" />
  <line x1="156.499999mm" y1="347.199453mm" x2="156.499999mm" y2="353.800333mm" />
  <text x="158mm" y="348mm" font-size="24">
   3.3
  </text>
  <circle cx="156.499999mm" cy="193.499893mm" r="1.650220mm" fill="none"/>
  <line x1="159.800439mm" y1="193.499893mm" x2="153.199559mm" y2="193.499893mm" />
  <line x1="156.499999mm" y1="190.199453mm" x2="156.499999mm" y2="196.800333mm" />
  <text x="158mm" y="191mm" font-size="24">
   3.3
  </text>
  <circle cx="196.989999mm" cy="336.174893mm" r="1.650220mm" fill="none"/>
  <line x1="200.290439mm" y1="336.174893mm" x2="193.689559mm" y2="336.174893mm" />
  <line x1="196.989999mm" y1="332.874453mm" x2="196.989999mm" y2="339.475333mm" />
  <text x="198mm" y="334mm" font-size="24">
   3.3
  </text>
  <circle cx="196.989999mm" cy="321.525893mm" r="1.650220mm" fill="none"/>
  <line x1="200.290439mm" y1="321.525893mm" x2="193.689559mm" y2="321.525893mm" />
  <line x1="196.989999mm" y1="318.225453mm" x2="196.989999mm" y2="324.826333mm" />
  <text x="198mm" y="319mm" font-size="24">
   3.3
  </text>
  <circle cx="196.989767mm" cy="246.324407mm" r="1.650015mm" fill="none"/>
  <line x1="200.289796mm" y1="246.324407mm" x2="193.689737mm" y2="246.324407mm" />
  <line x1="196.989767mm" y1="243.024377mm" x2="196.989767mm" y2="249.624436mm" />
  <text x="198mm" y="244mm" font-size="24">
   3.3
  </text>
  <circle cx="196.989767mm" cy="231.675407mm" r="1.650015mm" fill="none"/>
  <line x1="200.289796mm" y1="231.675407mm" x2="193.689737mm" y2="231.675407mm" />
  <line x1="196.989767mm" y1="228.375377mm" x2="196.989767mm" y2="234.975436mm" />
  <text x="198mm" y="230mm" font-size="24">
   3.3
  </text>
  <circle cx="207.839456mm" cy="182.200195mm" r="1.649827mm" fill="none"/>
  <line x1="211.139111mm" y1="182.200195mm" x2="204.539802mm" y2="182.200195mm" />
  <line x1="207.839456mm" y1="178.900541mm" x2="207.839456mm" y2="185.499849mm" />
  <text x="209mm" y="180mm" font-size="24">
   3.3
  </text>
  <circle cx="249.159456mm" cy="182.200195mm" r="1.649827mm" fill="none"/>
  <line x1="252.459111mm" y1="182.200195mm" x2="245.859802mm" y2="182.200195mm" />
  <line x1="249.159456mm" y1="178.900541mm" x2="249.159456mm" y2="185.499849mm" />
  <text x="250mm" y="180mm" font-size="24">
   3.3
  </text>
  <circle cx="300.499999mm" cy="292.999893mm" r="1.650220mm" fill="none"/>
  <line x1="303.800439mm" y1="292.999893mm" x2="297.199559mm" y2="292.999893mm" />
  <line x1="300.499999mm" y1="289.699453mm" x2="300.499999mm" y2="296.300333mm" />
  <text x="302mm" y="291mm" font-size="24">
   3.3
  </text>
  <circle cx="331.499999mm" cy="271.999893mm" r="1.650220mm" fill="none"/>
  <line x1="334.800439mm" y1="271.999893mm" x2="328.199559mm" y2="271.999893mm" />
  <line x1="331.499999mm" y1="268.699453mm" x2="331.499999mm" y2="275.300333mm" />
  <text x="333mm" y="270mm" font-size="24">
   3.3
  </text>
  <circle cx="333.000087mm" cy="387.000061mm" r="1.250061mm" fill="none"/>
  <line x1="335.500208mm" y1="387.000061mm" x2="330.499966mm" y2="387.000061mm" />
  <line x1="333.000087mm" y1="384.499939mm" x2="333.000087mm" y2="389.500182mm" />
  <text x="334mm" y="385mm" font-size="24">
   2.5
  </text>
  <circle cx="333.000087mm" cy="178.000061mm" r="1.250061mm" fill="none"/>
  <line x1="335.500208mm" y1="178.000061mm" x2="330.499966mm" y2="178.000061mm" />
  <line x1="333.000087mm" y1="175.499939mm" x2="333.000087mm" y2="180.500182mm" />
  <text x="334mm" y="176mm" font-size="24">
   2.5
  </text>
  <circle cx="359.500000mm" cy="8.499997mm" r="0.999978mm" fill="none"/>
  <line x1="361.499956mm" y1="8.499997mm" x2="357.500044mm" y2="8.499997mm" />
  <line x1="359.500000mm" y1="6.500041mm" x2="359.500000mm" y2="10.499953mm" />
  <text x="360mm" y="7mm" font-size="24">
   2.0
  </text>
  <circle cx="362.900000mm" cy="64.619997mm" r="0.999978mm" fill="none"/>
  <line x1="364.899956mm" y1="64.619997mm" x2="360.900044mm" y2="64.619997mm" />
  <line x1="362.900000mm" y1="62.620041mm" x2="362.900000mm" y2="66.619953mm" />
  <text x="363mm" y="63mm" font-size="24">
   2.0
  </text>
  <circle cx="363.700000mm" cy="354.889997mm" r="0.999978mm" fill="none"/>
  <line x1="365.699956mm" y1="354.889997mm" x2="361.700044mm" y2="354.889997mm" />
  <line x1="363.700000mm" y1="352.890041mm" x2="363.700000mm" y2="356.889953mm" />
  <text x="364mm" y="353mm" font-size="24">
   2.0
  </text>
  <circle cx="363.700000mm" cy="36.109997mm" r="0.999978mm" fill="none"/>
  <line x1="365.699956mm" y1="36.109997mm" x2="361.700044mm" y2="36.109997mm" />
  <line x1="363.700000mm" y1="34.110041mm" x2="363.700000mm" y2="38.109953mm" />
  <text x="364mm" y="35mm" font-size="24">
   2.0
  </text>
  <circle cx="377.499659mm" cy="330.000016mm" r="1.000019mm" fill="none"/>
  <line x1="379.499698mm" y1="330.000016mm" x2="375.499621mm" y2="330.000016mm" />
  <line x1="377.499659mm" y1="327.999978mm" x2="377.499659mm" y2="332.000054mm" />
  <text x="378mm" y="328mm" font-size="24">
   2.0
  </text>
  <circle cx="392.500000mm" cy="8.499997mm" r="0.999978mm" fill="none"/>
  <line x1="394.499956mm" y1="8.499997mm" x2="390.500044mm" y2="8.499997mm" />
  <line x1="392.500000mm" y1="6.500041mm" x2="392.500000mm" y2="10.499953mm" />
  <text x="393mm" y="7mm" font-size="24">
   2.0
  </text>
  <circle cx="393.600371mm" cy="382.799769mm" r="1.000161mm" fill="none"/>
  <line x1="395.600692mm" y1="382.799769mm" x2="391.600050mm" y2="382.799769mm" />
  <line x1="393.600371mm" y1="380.799448mm" x2="393.600371mm" y2="384.800090mm" />
  <text x="394mm" y="381mm" font-size="24">
   2.0
  </text>
  <circle cx="395.420170mm" cy="370.099939mm" r="2.500268mm" fill="none"/>
  <line x1="400.420707mm" y1="370.099939mm" x2="390.419633mm" y2="370.099939mm" />
  <line x1="395.420170mm" y1="365.099402mm" x2="395.420170mm" y2="375.100476mm" />
  <text x="397mm" y="367mm" font-size="24">
   5.0
  </text>
  <circle cx="409.499659mm" cy="330.000016mm" r="1.000019mm" fill="none"/>
  <line x1="411.499698mm" y1="330.000016mm" x2="407.499621mm" y2="330.000016mm" />
  <line x1="409.499659mm" y1="327.999978mm" x2="409.499659mm" y2="332.000054mm" />
  <text x="410mm" y="328mm" font-size="24">
   2.0
  </text>
  <circle cx="413.620371mm" cy="382.799769mm" r="1.000161mm" fill="none"/>
  <line x1="415.620692mm" y1="382.799769mm" x2="411.620050mm" y2="382.799769mm" />
  <line x1="413.620371mm" y1="380.799448mm" x2="413.620371mm" y2="384.800090mm" />
  <text x="414mm" y="381mm" font-size="24">
   2.0
  </text>
  <circle cx="419.799659mm" cy="12.000016mm" r="1.000019mm" fill="none"/>
  <line x1="421.799698mm" y1="12.000016mm" x2="417.799621mm" y2="12.000016mm" />
  <line x1="419.799659mm" y1="9.999978mm" x2="419.799659mm" y2="14.000054mm" />
  <text x="420mm" y="10mm" font-size="24">
   2.0
  </text>
  <circle cx="440.780371mm" cy="382.799769mm" r="1.000161mm" fill="none"/>
  <line x1="442.780692mm" y1="382.799769mm" x2="438.780050mm" y2="382.799769mm" />
  <line x1="440.780371mm" y1="380.799448mm" x2="440.780371mm" y2="384.800090mm" />
  <text x="441mm" y="381mm" font-size="24">
   2.0
  </text>
  <circle cx="454.199659mm" cy="12.000016mm" r="1.000019mm" fill="none"/>
  <line x1="456.199698mm" y1="12.000016mm" x2="452.199621mm" y2="12.000016mm" />
  <line x1="454.199659mm" y1="9.999978mm" x2="454.199659mm" y2="14.000054mm" />
  <text x="455mm" y="10mm" font-size="24">
   2.0
  </text>
  <circle cx="460.800371mm" cy="382.799769mm" r="1.000161mm" fill="none"/>
  <line x1="462.800692mm" y1="382.799769mm" x2="458.800050mm" y2="382.799769mm" />
  <line x1="460.800371mm" y1="380.799448mm" x2="460.800371mm" y2="384.800090mm" />
  <text x="461mm" y="381mm" font-size="24">
   2.0
  </text>
 </g>
</svg>
