<?xml version="1.0"?>
<svg xmlns="http://www.w3.org/2000/svg" version="1.1" height="399mm" width="481mm" >
 <g style="fill-opacity:1.0; stroke:black; stroke-width:1;">
  <line x1="103.500000mm" y1="389.000000mm" x2="103.500000mm" y2="389.000000mm" />
  <line x1="103.500000mm" y1="389.000000mm" x2="0.000000mm" y2="389.000000mm" />
  <line x1="0.000000mm" y1="389.000000mm" x2="0.000000mm" y2="0.000000mm" />
  <line x1="0.000000mm" y1="0.000000mm" x2="470.500000mm" y2="0.000000mm" />
  <line x1="470.500000mm" y1="0.000000mm" x2="470.500000mm" y2="389.000000mm" />
  <line x1="470.500000mm" y1="389.000000mm" x2="353.500000mm" y2="389.000000mm" />
  <line x1="353.500000mm" y1="389.000000mm" x2="353.500000mm" y2="107.900000mm" />
  <line x1="353.500000mm" y1="107.900000mm" x2="353.475000mm" y2="107.402000mm" />
  <line x1="353.475000mm" y1="107.402000mm" x2="353.401000mm" y2="106.909000mm" />
  <line x1="353.401000mm" y1="106.909000mm" x2="353.278000mm" y2="106.426000mm" />
  <line x1="353.278000mm" y1="106.426000mm" x2="353.107000mm" y2="105.958000mm" />
  <line x1="353.107000mm" y1="105.958000mm" x2="352.891000mm" y2="105.509000mm" />
  <line x1="352.891000mm" y1="105.509000mm" x2="352.631000mm" y2="105.083000mm" />
  <line x1="352.631000mm" y1="105.083000mm" x2="352.330000mm" y2="104.686000mm" />
  <line x1="352.330000mm" y1="104.686000mm" x2="351.991000mm" y2="104.321000mm" />
  <line x1="351.991000mm" y1="104.321000mm" x2="351.617000mm" y2="103.991000mm" />
  <line x1="351.617000mm" y1="103.991000mm" x2="351.213000mm" y2="103.700000mm" />
  <line x1="351.213000mm" y1="103.700000mm" x2="350.781000mm" y2="103.451000mm" />
  <line x1="350.781000mm" y1="103.451000mm" x2="350.327000mm" y2="103.246000mm" />
  <line x1="350.327000mm" y1="103.246000mm" x2="349.854000mm" y2="103.087000mm" />
  <line x1="349.854000mm" y1="103.087000mm" x2="349.368000mm" y2="102.976000mm" />
  <line x1="349.368000mm" y1="102.976000mm" x2="348.874000mm" y2="102.914000mm" />
  <line x1="348.874000mm" y1="102.914000mm" x2="348.500000mm" y2="102.905000mm" />
  <line x1="348.500000mm" y1="102.905000mm" x2="348.500000mm" y2="102.900000mm" />
  <line x1="348.500000mm" y1="102.900000mm" x2="108.500000mm" y2="102.900000mm" />
  <line x1="108.500000mm" y1="102.900000mm" x2="108.500000mm" y2="102.905000mm" />
  <line x1="108.500000mm" y1="102.905000mm" x2="108.375000mm" y2="102.902000mm" />
  <line x1="108.375000mm" y1="102.902000mm" x2="107.878000mm" y2="102.939000mm" />
  <line x1="107.878000mm" y1="102.939000mm" x2="107.387000mm" y2="103.025000mm" />
  <line x1="107.387000mm" y1="103.025000mm" x2="106.908000mm" y2="103.160000mm" />
  <line x1="106.908000mm" y1="103.160000mm" x2="106.444000mm" y2="103.342000mm" />
  <line x1="106.444000mm" y1="103.342000mm" x2="106.000000mm" y2="103.570000mm" />
  <line x1="106.000000mm" y1="103.570000mm" x2="105.581000mm" y2="103.840000mm" />
  <line x1="105.581000mm" y1="103.840000mm" x2="105.192000mm" y2="104.151000mm" />
  <line x1="105.192000mm" y1="104.151000mm" x2="104.835000mm" y2="104.499000mm" />
  <line x1="104.835000mm" y1="104.499000mm" x2="104.514000mm" y2="104.881000mm" />
  <line x1="104.514000mm" y1="104.881000mm" x2="104.234000mm" y2="105.293000mm" />
  <line x1="104.234000mm" y1="105.293000mm" x2="103.995000mm" y2="105.731000mm" />
  <line x1="103.995000mm" y1="105.731000mm" x2="103.802000mm" y2="106.190000mm" />
  <line x1="103.802000mm" y1="106.190000mm" x2="103.655000mm" y2="106.666000mm" />
  <line x1="103.655000mm" y1="106.666000mm" x2="103.556000mm" y2="107.155000mm" />
  <line x1="103.556000mm" y1="107.155000mm" x2="103.506000mm" y2="107.651000mm" />
  <line x1="103.506000mm" y1="107.651000mm" x2="103.506000mm" y2="107.900000mm" />
  <line x1="103.506000mm" y1="107.900000mm" x2="103.500000mm" y2="107.900000mm" />
  <line x1="103.500000mm" y1="107.900000mm" x2="103.500000mm" y2="389.000000mm" />
  <circle cx="7.499659mm" cy="275.900016mm" r="1.000019mm" fill="none"/>
  <line x1="9.499698mm" y1="275.900016mm" x2="5.499621mm" y2="275.900016mm" />
  <line x1="7.499659mm" y1="273.899978mm" x2="7.499659mm" y2="277.900054mm" />
  <text x="8mm" y="274mm" font-size="24">
   2.0
  </text>
  <circle cx="7.499659mm" cy="234.500016mm" r="1.000019mm" fill="none"/>
  <line x1="9.499698mm" y1="234.500016mm" x2="5.499621mm" y2="234.500016mm" />
  <line x1="7.499659mm" y1="232.499978mm" x2="7.499659mm" y2="236.500054mm" />
  <text x="8mm" y="233mm" font-size="24">
   2.0
  </text>
  <circle cx="9.700371mm" cy="380.799769mm" r="1.000161mm" fill="none"/>
  <line x1="11.700692mm" y1="380.799769mm" x2="7.700050mm" y2="380.799769mm" />
  <line x1="9.700371mm" y1="378.799448mm" x2="9.700371mm" y2="382.800090mm" />
  <text x="10mm" y="379mm" font-size="24">
   2.0
  </text>
  <circle cx="16.499659mm" cy="328.000016mm" r="1.000019mm" fill="none"/>
  <line x1="18.499698mm" y1="328.000016mm" x2="14.499621mm" y2="328.000016mm" />
  <line x1="16.499659mm" y1="325.999978mm" x2="16.499659mm" y2="330.000054mm" />
  <text x="17mm" y="326mm" font-size="24">
   2.0
  </text>
  <circle cx="30.920371mm" cy="380.799769mm" r="1.000161mm" fill="none"/>
  <line x1="32.920692mm" y1="380.799769mm" x2="28.920050mm" y2="380.799769mm" />
  <line x1="30.920371mm" y1="378.799448mm" x2="30.920371mm" y2="382.800090mm" />
  <text x="31mm" y="379mm" font-size="24">
   2.0
  </text>
  <circle cx="34.499818mm" cy="316.000055mm" r="2.000011mm" fill="none"/>
  <line x1="38.499840mm" y1="316.000055mm" x2="30.499795mm" y2="316.000055mm" />
  <line x1="34.499818mm" y1="312.000033mm" x2="34.499818mm" y2="320.000077mm" />
  <text x="36mm" y="314mm" font-size="24">
   4.0
  </text>
  <circle cx="40.499818mm" cy="19.000055mm" r="2.000011mm" fill="none"/>
  <line x1="44.499840mm" y1="19.000055mm" x2="36.499795mm" y2="19.000055mm" />
  <line x1="40.499818mm" y1="15.000033mm" x2="40.499818mm" y2="23.000077mm" />
  <text x="42mm" y="17mm" font-size="24">
   4.0
  </text>
  <circle cx="40.500000mm" cy="8.499997mm" r="0.999978mm" fill="none"/>
  <line x1="42.499956mm" y1="8.499997mm" x2="38.500044mm" y2="8.499997mm" />
  <line x1="40.500000mm" y1="6.500041mm" x2="40.500000mm" y2="10.499953mm" />
  <text x="41mm" y="7mm" font-size="24">
   2.0
  </text>
  <circle cx="43.120170mm" cy="381.499939mm" r="2.500268mm" fill="none"/>
  <line x1="48.120707mm" y1="381.499939mm" x2="38.119633mm" y2="381.499939mm" />
  <line x1="43.120170mm" y1="376.499402mm" x2="43.120170mm" y2="386.500476mm" />
  <text x="45mm" y="378mm" font-size="24">
   5.0
  </text>
  <circle cx="48.499659mm" cy="328.000016mm" r="1.000019mm" fill="none"/>
  <line x1="50.499698mm" y1="328.000016mm" x2="46.499621mm" y2="328.000016mm" />
  <line x1="48.499659mm" y1="325.999978mm" x2="48.499659mm" y2="330.000054mm" />
  <text x="49mm" y="326mm" font-size="24">
   2.0
  </text>
  <circle cx="73.080371mm" cy="380.799769mm" r="1.000161mm" fill="none"/>
  <line x1="75.080692mm" y1="380.799769mm" x2="71.080050mm" y2="380.799769mm" />
  <line x1="73.080371mm" y1="378.799448mm" x2="73.080371mm" y2="382.800090mm" />
  <text x="74mm" y="379mm" font-size="24">
   2.0
  </text>
  <circle cx="73.500000mm" cy="8.499997mm" r="0.999978mm" fill="none"/>
  <line x1="75.499956mm" y1="8.499997mm" x2="71.500044mm" y2="8.499997mm" />
  <line x1="73.500000mm" y1="6.500041mm" x2="73.500000mm" y2="10.499953mm" />
  <text x="74mm" y="7mm" font-size="24">
   2.0
  </text>
  <circle cx="74.200066mm" cy="352.290138mm" r="1.000138mm" fill="none"/>
  <line x1="76.200342mm" y1="352.290138mm" x2="72.199790mm" y2="352.290138mm" />
  <line x1="74.200066mm" y1="350.289862mm" x2="74.200066mm" y2="354.290414mm" />
  <text x="75mm" y="351mm" font-size="24">
   2.0
  </text>
  <circle cx="74.200066mm" cy="36.710138mm" r="1.000138mm" fill="none"/>
  <line x1="76.200342mm" y1="36.710138mm" x2="72.199790mm" y2="36.710138mm" />
  <line x1="74.200066mm" y1="34.709862mm" x2="74.200066mm" y2="38.710414mm" />
  <text x="75mm" y="35mm" font-size="24">
   2.0
  </text>
  <circle cx="75.000000mm" cy="65.819997mm" r="0.999978mm" fill="none"/>
  <line x1="76.999956mm" y1="65.819997mm" x2="73.000044mm" y2="65.819997mm" />
  <line x1="75.000000mm" y1="63.820041mm" x2="75.000000mm" y2="67.819953mm" />
  <text x="75mm" y="64mm" font-size="24">
   2.0
  </text>
  <circle cx="94.300371mm" cy="380.799769mm" r="1.000161mm" fill="none"/>
  <line x1="96.300692mm" y1="380.799769mm" x2="92.300050mm" y2="380.799769mm" />
  <line x1="94.300371mm" y1="378.799448mm" x2="94.300371mm" y2="382.800090mm" />
  <text x="95mm" y="379mm" font-size="24">
   2.0
  </text>
  <circle cx="108.499962mm" cy="107.899817mm" r="4.989768mm" fill="none"/>
  <line x1="118.479499mm" y1="107.899817mm" x2="98.520425mm" y2="107.899817mm" />
  <line x1="108.499962mm" y1="97.920280mm" x2="108.499962mm" y2="117.879354mm" />
  <text x="113mm" y="102mm" font-size="24">
   10.0
  </text>
  <circle cx="348.499962mm" cy="107.899817mm" r="4.989768mm" fill="none"/>
  <line x1="358.479499mm" y1="107.899817mm" x2="338.520425mm" y2="107.899817mm" />
  <line x1="348.499962mm" y1="97.920280mm" x2="348.499962mm" y2="117.879354mm" />
  <text x="353mm" y="102mm" font-size="24">
   10.0
  </text>
  <circle cx="359.500000mm" cy="8.499997mm" r="0.999978mm" fill="none"/>
  <line x1="361.499956mm" y1="8.499997mm" x2="357.500044mm" y2="8.499997mm" />
  <line x1="359.500000mm" y1="6.500041mm" x2="359.500000mm" y2="10.499953mm" />
  <text x="360mm" y="7mm" font-size="24">
   2.0
  </text>
  <circle cx="362.900000mm" cy="65.819997mm" r="0.999978mm" fill="none"/>
  <line x1="364.899956mm" y1="65.819997mm" x2="360.900044mm" y2="65.819997mm" />
  <line x1="362.900000mm" y1="63.820041mm" x2="362.900000mm" y2="67.819953mm" />
  <text x="363mm" y="64mm" font-size="24">
   2.0
  </text>
  <circle cx="363.700000mm" cy="352.289997mm" r="0.999978mm" fill="none"/>
  <line x1="365.699956mm" y1="352.289997mm" x2="361.700044mm" y2="352.289997mm" />
  <line x1="363.700000mm" y1="350.290041mm" x2="363.700000mm" y2="354.289953mm" />
  <text x="364mm" y="351mm" font-size="24">
   2.0
  </text>
  <circle cx="363.700000mm" cy="36.709997mm" r="0.999978mm" fill="none"/>
  <line x1="365.699956mm" y1="36.709997mm" x2="361.700044mm" y2="36.709997mm" />
  <line x1="363.700000mm" y1="34.710041mm" x2="363.700000mm" y2="38.709953mm" />
  <text x="364mm" y="35mm" font-size="24">
   2.0
  </text>
  <circle cx="377.499659mm" cy="328.000016mm" r="1.000019mm" fill="none"/>
  <line x1="379.499698mm" y1="328.000016mm" x2="375.499621mm" y2="328.000016mm" />
  <line x1="377.499659mm" y1="325.999978mm" x2="377.499659mm" y2="330.000054mm" />
  <text x="378mm" y="326mm" font-size="24">
   2.0
  </text>
  <circle cx="392.500000mm" cy="8.499997mm" r="0.999978mm" fill="none"/>
  <line x1="394.499956mm" y1="8.499997mm" x2="390.500044mm" y2="8.499997mm" />
  <line x1="392.500000mm" y1="6.500041mm" x2="392.500000mm" y2="10.499953mm" />
  <text x="393mm" y="7mm" font-size="24">
   2.0
  </text>
  <circle cx="393.600371mm" cy="380.799769mm" r="1.000161mm" fill="none"/>
  <line x1="395.600692mm" y1="380.799769mm" x2="391.600050mm" y2="380.799769mm" />
  <line x1="393.600371mm" y1="378.799448mm" x2="393.600371mm" y2="382.800090mm" />
  <text x="394mm" y="379mm" font-size="24">
   2.0
  </text>
  <circle cx="396.620170mm" cy="368.099939mm" r="2.500268mm" fill="none"/>
  <line x1="401.620707mm" y1="368.099939mm" x2="391.619633mm" y2="368.099939mm" />
  <line x1="396.620170mm" y1="363.099402mm" x2="396.620170mm" y2="373.100476mm" />
  <text x="399mm" y="365mm" font-size="24">
   5.0
  </text>
  <circle cx="409.499659mm" cy="328.000016mm" r="1.000019mm" fill="none"/>
  <line x1="411.499698mm" y1="328.000016mm" x2="407.499621mm" y2="328.000016mm" />
  <line x1="409.499659mm" y1="325.999978mm" x2="409.499659mm" y2="330.000054mm" />
  <text x="410mm" y="326mm" font-size="24">
   2.0
  </text>
  <circle cx="414.820371mm" cy="380.799769mm" r="1.000161mm" fill="none"/>
  <line x1="416.820692mm" y1="380.799769mm" x2="412.820050mm" y2="380.799769mm" />
  <line x1="414.820371mm" y1="378.799448mm" x2="414.820371mm" y2="382.800090mm" />
  <text x="415mm" y="379mm" font-size="24">
   2.0
  </text>
  <circle cx="419.799659mm" cy="12.000016mm" r="1.000019mm" fill="none"/>
  <line x1="421.799698mm" y1="12.000016mm" x2="417.799621mm" y2="12.000016mm" />
  <line x1="419.799659mm" y1="9.999978mm" x2="419.799659mm" y2="14.000054mm" />
  <text x="420mm" y="10mm" font-size="24">
   2.0
  </text>
  <circle cx="439.580371mm" cy="380.799769mm" r="1.000161mm" fill="none"/>
  <line x1="441.580692mm" y1="380.799769mm" x2="437.580050mm" y2="380.799769mm" />
  <line x1="439.580371mm" y1="378.799448mm" x2="439.580371mm" y2="382.800090mm" />
  <text x="440mm" y="379mm" font-size="24">
   2.0
  </text>
  <circle cx="454.199659mm" cy="12.000016mm" r="1.000019mm" fill="none"/>
  <line x1="456.199698mm" y1="12.000016mm" x2="452.199621mm" y2="12.000016mm" />
  <line x1="454.199659mm" y1="9.999978mm" x2="454.199659mm" y2="14.000054mm" />
  <text x="455mm" y="10mm" font-size="24">
   2.0
  </text>
  <circle cx="460.800371mm" cy="380.799769mm" r="1.000161mm" fill="none"/>
  <line x1="462.800692mm" y1="380.799769mm" x2="458.800050mm" y2="380.799769mm" />
  <line x1="460.800371mm" y1="378.799448mm" x2="460.800371mm" y2="382.800090mm" />
  <text x="461mm" y="379mm" font-size="24">
   2.0
  </text>
 </g>
</svg>
