<?xml version="1.0"?>
<svg xmlns="http://www.w3.org/2000/svg" version="1.1" height="432mm" width="481mm" >
 <g style="fill-opacity:1.0; stroke:black; stroke-width:1;">
  <line x1="470.500000mm" y1="422.000000mm" x2="470.500000mm" y2="422.000000mm" />
  <line x1="470.500000mm" y1="422.000000mm" x2="0.000000mm" y2="422.000000mm" />
  <line x1="0.000000mm" y1="422.000000mm" x2="0.000000mm" y2="0.000000mm" />
  <line x1="0.000000mm" y1="0.000000mm" x2="470.500000mm" y2="0.000000mm" />
  <line x1="470.500000mm" y1="0.000000mm" x2="470.500000mm" y2="422.000000mm" />
  <circle cx="19.709659mm" cy="150.300016mm" r="1.000019mm" fill="none"/>
  <line x1="21.709698mm" y1="150.300016mm" x2="17.709621mm" y2="150.300016mm" />
  <line x1="19.709659mm" y1="148.299978mm" x2="19.709659mm" y2="152.300054mm" />
  <text x="20mm" y="149mm" font-size="24">
   2.0
  </text>
  <circle cx="32.499971mm" cy="210.999864mm" r="4.000103mm" fill="none"/>
  <line x1="40.500177mm" y1="210.999864mm" x2="24.499766mm" y2="210.999864mm" />
  <line x1="32.499971mm" y1="202.999659mm" x2="32.499971mm" y2="219.000070mm" />
  <text x="36mm" y="206mm" font-size="24">
   8.0
  </text>
  <circle cx="74.200000mm" cy="19.709997mm" r="0.999978mm" fill="none"/>
  <line x1="76.199956mm" y1="19.709997mm" x2="72.200044mm" y2="19.709997mm" />
  <line x1="74.200000mm" y1="17.710041mm" x2="74.200000mm" y2="21.709953mm" />
  <text x="75mm" y="18mm" font-size="24">
   2.0
  </text>
  <circle cx="84.289659mm" cy="150.300016mm" r="1.000019mm" fill="none"/>
  <line x1="86.289698mm" y1="150.300016mm" x2="82.289621mm" y2="150.300016mm" />
  <line x1="84.289659mm" y1="148.299978mm" x2="84.289659mm" y2="152.300054mm" />
  <text x="85mm" y="149mm" font-size="24">
   2.0
  </text>
  <circle cx="128.000066mm" cy="413.500138mm" r="1.000138mm" fill="none"/>
  <line x1="130.000342mm" y1="413.500138mm" x2="125.999790mm" y2="413.500138mm" />
  <line x1="128.000066mm" y1="411.499862mm" x2="128.000066mm" y2="415.500414mm" />
  <text x="129mm" y="412mm" font-size="24">
   2.0
  </text>
  <circle cx="128.000066mm" cy="8.500138mm" r="1.000138mm" fill="none"/>
  <line x1="130.000342mm" y1="8.500138mm" x2="125.999790mm" y2="8.500138mm" />
  <line x1="128.000066mm" y1="6.499862mm" x2="128.000066mm" y2="10.500414mm" />
  <text x="129mm" y="7mm" font-size="24">
   2.0
  </text>
  <circle cx="161.000066mm" cy="413.500138mm" r="1.000138mm" fill="none"/>
  <line x1="163.000342mm" y1="413.500138mm" x2="158.999790mm" y2="413.500138mm" />
  <line x1="161.000066mm" y1="411.499862mm" x2="161.000066mm" y2="415.500414mm" />
  <text x="162mm" y="412mm" font-size="24">
   2.0
  </text>
  <circle cx="161.000066mm" cy="8.500138mm" r="1.000138mm" fill="none"/>
  <line x1="163.000342mm" y1="8.500138mm" x2="158.999790mm" y2="8.500138mm" />
  <line x1="161.000066mm" y1="6.499862mm" x2="161.000066mm" y2="10.500414mm" />
  <text x="162mm" y="7mm" font-size="24">
   2.0
  </text>
  <circle cx="196.989659mm" cy="22.500016mm" r="1.000019mm" fill="none"/>
  <line x1="198.989698mm" y1="22.500016mm" x2="194.989621mm" y2="22.500016mm" />
  <line x1="196.989659mm" y1="20.499978mm" x2="196.989659mm" y2="24.500054mm" />
  <text x="197mm" y="21mm" font-size="24">
   2.0
  </text>
  <circle cx="207.489659mm" cy="110.700016mm" r="1.000019mm" fill="none"/>
  <line x1="209.489698mm" y1="110.700016mm" x2="205.489621mm" y2="110.700016mm" />
  <line x1="207.489659mm" y1="108.699978mm" x2="207.489659mm" y2="112.700054mm" />
  <text x="208mm" y="109mm" font-size="24">
   2.0
  </text>
  <circle cx="215.490000mm" cy="414.499997mm" r="0.999978mm" fill="none"/>
  <line x1="217.489956mm" y1="414.499997mm" x2="213.490044mm" y2="414.499997mm" />
  <line x1="215.490000mm" y1="412.500041mm" x2="215.490000mm" y2="416.499953mm" />
  <text x="216mm" y="413mm" font-size="24">
   2.0
  </text>
  <circle cx="215.490000mm" cy="351.499997mm" r="0.999978mm" fill="none"/>
  <line x1="217.489956mm" y1="351.499997mm" x2="213.490044mm" y2="351.499997mm" />
  <line x1="215.490000mm" y1="349.500041mm" x2="215.490000mm" y2="353.499953mm" />
  <text x="216mm" y="350mm" font-size="24">
   2.0
  </text>
  <circle cx="245.490000mm" cy="414.499997mm" r="0.999978mm" fill="none"/>
  <line x1="247.489956mm" y1="414.499997mm" x2="243.490044mm" y2="414.499997mm" />
  <line x1="245.490000mm" y1="412.500041mm" x2="245.490000mm" y2="416.499953mm" />
  <text x="246mm" y="413mm" font-size="24">
   2.0
  </text>
  <circle cx="245.490000mm" cy="351.499997mm" r="0.999978mm" fill="none"/>
  <line x1="247.489956mm" y1="351.499997mm" x2="243.490044mm" y2="351.499997mm" />
  <line x1="245.490000mm" y1="349.500041mm" x2="245.490000mm" y2="353.499953mm" />
  <text x="246mm" y="350mm" font-size="24">
   2.0
  </text>
  <circle cx="249.509659mm" cy="110.700016mm" r="1.000019mm" fill="none"/>
  <line x1="251.509698mm" y1="110.700016mm" x2="247.509621mm" y2="110.700016mm" />
  <line x1="249.509659mm" y1="108.699978mm" x2="249.509659mm" y2="112.700054mm" />
  <text x="250mm" y="109mm" font-size="24">
   2.0
  </text>
  <circle cx="255.250000mm" cy="71.199997mm" r="0.999978mm" fill="none"/>
  <line x1="257.249956mm" y1="71.199997mm" x2="253.250044mm" y2="71.199997mm" />
  <line x1="255.250000mm" y1="69.200041mm" x2="255.250000mm" y2="73.199953mm" />
  <text x="256mm" y="70mm" font-size="24">
   2.0
  </text>
  <circle cx="296.000000mm" cy="344.999997mm" r="0.999978mm" fill="none"/>
  <line x1="297.999956mm" y1="344.999997mm" x2="294.000044mm" y2="344.999997mm" />
  <line x1="296.000000mm" y1="343.000041mm" x2="296.000000mm" y2="346.999953mm" />
  <text x="296mm" y="344mm" font-size="24">
   2.0
  </text>
  <circle cx="296.000000mm" cy="86.999997mm" r="0.999978mm" fill="none"/>
  <line x1="297.999956mm" y1="86.999997mm" x2="294.000044mm" y2="86.999997mm" />
  <line x1="296.000000mm" y1="85.000041mm" x2="296.000000mm" y2="88.999953mm" />
  <text x="296mm" y="86mm" font-size="24">
   2.0
  </text>
  <circle cx="329.000000mm" cy="344.999997mm" r="0.999978mm" fill="none"/>
  <line x1="330.999956mm" y1="344.999997mm" x2="327.000044mm" y2="344.999997mm" />
  <line x1="329.000000mm" y1="343.000041mm" x2="329.000000mm" y2="346.999953mm" />
  <text x="329mm" y="344mm" font-size="24">
   2.0
  </text>
  <circle cx="329.000000mm" cy="86.999997mm" r="0.999978mm" fill="none"/>
  <line x1="330.999956mm" y1="86.999997mm" x2="327.000044mm" y2="86.999997mm" />
  <line x1="329.000000mm" y1="85.000041mm" x2="329.000000mm" y2="88.999953mm" />
  <text x="329mm" y="86mm" font-size="24">
   2.0
  </text>
  <circle cx="344.699659mm" cy="326.500016mm" r="1.000019mm" fill="none"/>
  <line x1="346.699698mm" y1="326.500016mm" x2="342.699621mm" y2="326.500016mm" />
  <line x1="344.699659mm" y1="324.499978mm" x2="344.699659mm" y2="328.500054mm" />
  <text x="345mm" y="325mm" font-size="24">
   2.0
  </text>
  <circle cx="344.699659mm" cy="147.100016mm" r="1.000019mm" fill="none"/>
  <line x1="346.699698mm" y1="147.100016mm" x2="342.699621mm" y2="147.100016mm" />
  <line x1="344.699659mm" y1="145.099978mm" x2="344.699659mm" y2="149.100054mm" />
  <text x="345mm" y="146mm" font-size="24">
   2.0
  </text>
  <circle cx="363.700066mm" cy="19.710138mm" r="1.000138mm" fill="none"/>
  <line x1="365.700342mm" y1="19.710138mm" x2="361.699790mm" y2="19.710138mm" />
  <line x1="363.700066mm" y1="17.709862mm" x2="363.700066mm" y2="21.710414mm" />
  <text x="364mm" y="18mm" font-size="24">
   2.0
  </text>
  <circle cx="393.499971mm" cy="210.999864mm" r="4.000103mm" fill="none"/>
  <line x1="401.500177mm" y1="210.999864mm" x2="385.499766mm" y2="210.999864mm" />
  <line x1="393.499971mm" y1="202.999659mm" x2="393.499971mm" y2="219.000070mm" />
  <text x="397mm" y="206mm" font-size="24">
   8.0
  </text>
  <circle cx="403.609659mm" cy="150.300016mm" r="1.000019mm" fill="none"/>
  <line x1="405.609698mm" y1="150.300016mm" x2="401.609621mm" y2="150.300016mm" />
  <line x1="403.609659mm" y1="148.299978mm" x2="403.609659mm" y2="152.300054mm" />
  <text x="404mm" y="149mm" font-size="24">
   2.0
  </text>
  <circle cx="450.789659mm" cy="150.300016mm" r="1.000019mm" fill="none"/>
  <line x1="452.789698mm" y1="150.300016mm" x2="448.789621mm" y2="150.300016mm" />
  <line x1="450.789659mm" y1="148.299978mm" x2="450.789659mm" y2="152.300054mm" />
  <text x="451mm" y="149mm" font-size="24">
   2.0
  </text>
  <circle cx="465.600000mm" cy="131.099997mm" r="0.999978mm" fill="none"/>
  <line x1="467.599956mm" y1="131.099997mm" x2="463.600044mm" y2="131.099997mm" />
  <line x1="465.600000mm" y1="129.100041mm" x2="465.600000mm" y2="133.099953mm" />
  <text x="466mm" y="130mm" font-size="24">
   2.0
  </text>
 </g>
</svg>
