  0
SECTION
  2
BLOCKS
  0
ENDSEC
  0
SECTION
  2
ENTITIES
  0
LINE
  8
0
 10
0
 11
0
 20
-162.5
 21
-4
  0
LINE
  8
0
 10
0
 11
389
 20
-4
 21
-4
  0
LINE
  8
0
 10
389
 11
389
 20
-4
 21
-162.5
  0
LINE
  8
0
 10
389
 11
0
 20
-162.5
 21
-162.5
  0
LINE
  8
0
 10
0
 11
0
 20
0
 21
158.5
  0
LINE
  8
0
 10
0
 11
389
 20
158.5
 21
158.5
  0
LINE
  8
0
 10
389
 11
389
 20
158.5
 21
0
  0
LINE
  8
0
 10
389
 11
0
 20
0
 21
0
  0
LINE
  8
0
 10
5
 11
5.036
 20
-98.1
 21
-97.602
  0
LINE
  8
0
 10
5.036
 11
5.142
 20
-97.602
 21
-97.114
  0
LINE
  8
0
 10
5.142
 11
5.316
 20
-97.114
 21
-96.646
  0
LINE
  8
0
 10
5.316
 11
5.556
 20
-96.646
 21
-96.208
  0
LINE
  8
0
 10
5.556
 11
5.855
 20
-96.208
 21
-95.808
  0
LINE
  8
0
 10
5.855
 11
6.208
 20
-95.808
 21
-95.455
  0
LINE
  8
0
 10
6.208
 11
6.608
 20
-95.455
 21
-95.156
  0
LINE
  8
0
 10
6.608
 11
7.046
 20
-95.156
 21
-94.916
  0
LINE
  8
0
 10
7.046
 11
7.514
 20
-94.916
 21
-94.742
  0
LINE
  8
0
 10
7.514
 11
8.002
 20
-94.742
 21
-94.636
  0
LINE
  8
0
 10
8.002
 11
8.5
 20
-94.636
 21
-94.6
  0
LINE
  8
0
 10
8.5
 11
8.998
 20
-94.6
 21
-94.636
  0
LINE
  8
0
 10
8.998
 11
9.486
 20
-94.636
 21
-94.742
  0
LINE
  8
0
 10
9.486
 11
9.954
 20
-94.742
 21
-94.916
  0
LINE
  8
0
 10
9.954
 11
10.392
 20
-94.916
 21
-95.156
  0
LINE
  8
0
 10
10.392
 11
10.792
 20
-95.156
 21
-95.455
  0
LINE
  8
0
 10
10.792
 11
11.145
 20
-95.455
 21
-95.808
  0
LINE
  8
0
 10
11.145
 11
11.444
 20
-95.808
 21
-96.208
  0
LINE
  8
0
 10
11.444
 11
11.684
 20
-96.208
 21
-96.646
  0
LINE
  8
0
 10
11.684
 11
11.858
 20
-96.646
 21
-97.114
  0
LINE
  8
0
 10
11.858
 11
11.964
 20
-97.114
 21
-97.602
  0
LINE
  8
0
 10
11.964
 11
12
 20
-97.602
 21
-98.1
  0
LINE
  8
0
 10
12
 11
11.964
 20
-98.1
 21
-98.598
  0
LINE
  8
0
 10
11.964
 11
11.858
 20
-98.598
 21
-99.086
  0
LINE
  8
0
 10
11.858
 11
11.684
 20
-99.086
 21
-99.554
  0
LINE
  8
0
 10
11.684
 11
11.444
 20
-99.554
 21
-99.992
  0
LINE
  8
0
 10
11.444
 11
11.145
 20
-99.992
 21
-100.392
  0
LINE
  8
0
 10
11.145
 11
10.792
 20
-100.392
 21
-100.745
  0
LINE
  8
0
 10
10.792
 11
10.392
 20
-100.745
 21
-101.044
  0
LINE
  8
0
 10
10.392
 11
9.954
 20
-101.044
 21
-101.284
  0
LINE
  8
0
 10
9.954
 11
9.486
 20
-101.284
 21
-101.458
  0
LINE
  8
0
 10
9.486
 11
8.998
 20
-101.458
 21
-101.564
  0
LINE
  8
0
 10
8.998
 11
8.5
 20
-101.564
 21
-101.6
  0
LINE
  8
0
 10
8.5
 11
8.002
 20
-101.6
 21
-101.564
  0
LINE
  8
0
 10
8.002
 11
7.514
 20
-101.564
 21
-101.458
  0
LINE
  8
0
 10
7.514
 11
7.046
 20
-101.458
 21
-101.284
  0
LINE
  8
0
 10
7.046
 11
6.608
 20
-101.284
 21
-101.044
  0
LINE
  8
0
 10
6.608
 11
6.208
 20
-101.044
 21
-100.745
  0
LINE
  8
0
 10
6.208
 11
5.855
 20
-100.745
 21
-100.392
  0
LINE
  8
0
 10
5.855
 11
5.556
 20
-100.392
 21
-99.992
  0
LINE
  8
0
 10
5.556
 11
5.316
 20
-99.992
 21
-99.554
  0
LINE
  8
0
 10
5.316
 11
5.142
 20
-99.554
 21
-99.086
  0
LINE
  8
0
 10
5.142
 11
5.036
 20
-99.086
 21
-98.598
  0
LINE
  8
0
 10
5.036
 11
5
 20
-98.598
 21
-98.1
  0
LINE
  8
0
 10
5
 11
5.048
 20
-22.9
 21
-22.412
  0
LINE
  8
0
 10
5.048
 11
5.19
 20
-22.412
 21
-21.943
  0
LINE
  8
0
 10
5.19
 11
5.421
 20
-21.943
 21
-21.511
  0
LINE
  8
0
 10
5.421
 11
5.732
 20
-21.511
 21
-21.132
  0
LINE
  8
0
 10
5.732
 11
6.111
 20
-21.132
 21
-20.821
  0
LINE
  8
0
 10
6.111
 11
6.543
 20
-20.821
 21
-20.59
  0
LINE
  8
0
 10
6.543
 11
7.012
 20
-20.59
 21
-20.448
  0
LINE
  8
0
 10
7.012
 11
7.5
 20
-20.448
 21
-20.4
  0
LINE
  8
0
 10
7.5
 11
7.988
 20
-20.4
 21
-20.448
  0
LINE
  8
0
 10
7.988
 11
8.457
 20
-20.448
 21
-20.59
  0
LINE
  8
0
 10
8.457
 11
8.889
 20
-20.59
 21
-20.821
  0
LINE
  8
0
 10
8.889
 11
9.268
 20
-20.821
 21
-21.132
  0
LINE
  8
0
 10
9.268
 11
9.579
 20
-21.132
 21
-21.511
  0
LINE
  8
0
 10
9.579
 11
9.81
 20
-21.511
 21
-21.943
  0
LINE
  8
0
 10
9.81
 11
9.952
 20
-21.943
 21
-22.412
  0
LINE
  8
0
 10
9.952
 11
10
 20
-22.412
 21
-22.9
  0
LINE
  8
0
 10
10
 11
9.952
 20
-22.9
 21
-23.388
  0
LINE
  8
0
 10
9.952
 11
9.81
 20
-23.388
 21
-23.857
  0
LINE
  8
0
 10
9.81
 11
9.579
 20
-23.857
 21
-24.289
  0
LINE
  8
0
 10
9.579
 11
9.268
 20
-24.289
 21
-24.668
  0
LINE
  8
0
 10
9.268
 11
8.889
 20
-24.668
 21
-24.979
  0
LINE
  8
0
 10
8.889
 11
8.457
 20
-24.979
 21
-25.21
  0
LINE
  8
0
 10
8.457
 11
7.988
 20
-25.21
 21
-25.352
  0
LINE
  8
0
 10
7.988
 11
7.5
 20
-25.352
 21
-25.4
  0
LINE
  8
0
 10
7.5
 11
7.012
 20
-25.4
 21
-25.352
  0
LINE
  8
0
 10
7.012
 11
6.543
 20
-25.352
 21
-25.21
  0
LINE
  8
0
 10
6.543
 11
6.111
 20
-25.21
 21
-24.979
  0
LINE
  8
0
 10
6.111
 11
5.732
 20
-24.979
 21
-24.668
  0
LINE
  8
0
 10
5.732
 11
5.421
 20
-24.668
 21
-24.289
  0
LINE
  8
0
 10
5.421
 11
5.19
 20
-24.289
 21
-23.857
  0
LINE
  8
0
 10
5.19
 11
5.048
 20
-23.857
 21
-23.388
  0
LINE
  8
0
 10
5.048
 11
5
 20
-23.388
 21
-22.9
  0
LINE
  8
0
 10
5.015
 11
5.015
 20
-86.141
 21
-85.659
  0
LINE
  8
0
 10
5.015
 11
5.13
 20
-85.659
 21
-85.191
  0
LINE
  8
0
 10
5.13
 11
5.354
 20
-85.191
 21
-84.764
  0
LINE
  8
0
 10
5.354
 11
5.674
 20
-84.764
 21
-84.403
  0
LINE
  8
0
 10
5.674
 11
6.071
 20
-84.403
 21
-84.129
  0
LINE
  8
0
 10
6.071
 11
6.521
 20
-84.129
 21
-83.958
  0
LINE
  8
0
 10
6.521
 11
7
 20
-83.958
 21
-83.9
  0
LINE
  8
0
 10
7
 11
7.479
 20
-83.9
 21
-83.958
  0
LINE
  8
0
 10
7.479
 11
7.929
 20
-83.958
 21
-84.129
  0
LINE
  8
0
 10
7.929
 11
8.326
 20
-84.129
 21
-84.403
  0
LINE
  8
0
 10
8.326
 11
8.646
 20
-84.403
 21
-84.764
  0
LINE
  8
0
 10
8.646
 11
8.87
 20
-84.764
 21
-85.191
  0
LINE
  8
0
 10
8.87
 11
8.985
 20
-85.191
 21
-85.659
  0
LINE
  8
0
 10
8.985
 11
8.985
 20
-85.659
 21
-86.141
  0
LINE
  8
0
 10
8.985
 11
8.87
 20
-86.141
 21
-86.609
  0
LINE
  8
0
 10
8.87
 11
8.646
 20
-86.609
 21
-87.036
  0
LINE
  8
0
 10
8.646
 11
8.326
 20
-87.036
 21
-87.397
  0
LINE
  8
0
 10
8.326
 11
7.929
 20
-87.397
 21
-87.671
  0
LINE
  8
0
 10
7.929
 11
7.479
 20
-87.671
 21
-87.842
  0
LINE
  8
0
 10
7.479
 11
7
 20
-87.842
 21
-87.9
  0
LINE
  8
0
 10
7
 11
6.521
 20
-87.9
 21
-87.842
  0
LINE
  8
0
 10
6.521
 11
6.071
 20
-87.842
 21
-87.671
  0
LINE
  8
0
 10
6.071
 11
5.674
 20
-87.671
 21
-87.397
  0
LINE
  8
0
 10
5.674
 11
5.354
 20
-87.397
 21
-87.036
  0
LINE
  8
0
 10
5.354
 11
5.13
 20
-87.036
 21
-86.609
  0
LINE
  8
0
 10
5.13
 11
5.015
 20
-86.609
 21
-86.141
  0
LINE
  8
0
 10
5.015
 11
5.015
 20
-32.641
 21
-32.159
  0
LINE
  8
0
 10
5.015
 11
5.13
 20
-32.159
 21
-31.691
  0
LINE
  8
0
 10
5.13
 11
5.354
 20
-31.691
 21
-31.264
  0
LINE
  8
0
 10
5.354
 11
5.674
 20
-31.264
 21
-30.903
  0
LINE
  8
0
 10
5.674
 11
6.071
 20
-30.903
 21
-30.629
  0
LINE
  8
0
 10
6.071
 11
6.521
 20
-30.629
 21
-30.458
  0
LINE
  8
0
 10
6.521
 11
7
 20
-30.458
 21
-30.4
  0
LINE
  8
0
 10
7
 11
7.479
 20
-30.4
 21
-30.458
  0
LINE
  8
0
 10
7.479
 11
7.929
 20
-30.458
 21
-30.629
  0
LINE
  8
0
 10
7.929
 11
8.326
 20
-30.629
 21
-30.903
  0
LINE
  8
0
 10
8.326
 11
8.646
 20
-30.903
 21
-31.264
  0
LINE
  8
0
 10
8.646
 11
8.87
 20
-31.264
 21
-31.691
  0
LINE
  8
0
 10
8.87
 11
8.985
 20
-31.691
 21
-32.159
  0
LINE
  8
0
 10
8.985
 11
8.985
 20
-32.159
 21
-32.641
  0
LINE
  8
0
 10
8.985
 11
8.87
 20
-32.641
 21
-33.109
  0
LINE
  8
0
 10
8.87
 11
8.646
 20
-33.109
 21
-33.536
  0
LINE
  8
0
 10
8.646
 11
8.326
 20
-33.536
 21
-33.897
  0
LINE
  8
0
 10
8.326
 11
7.929
 20
-33.897
 21
-34.171
  0
LINE
  8
0
 10
7.929
 11
7.479
 20
-34.171
 21
-34.342
  0
LINE
  8
0
 10
7.479
 11
7
 20
-34.342
 21
-34.4
  0
LINE
  8
0
 10
7
 11
6.521
 20
-34.4
 21
-34.342
  0
LINE
  8
0
 10
6.521
 11
6.071
 20
-34.342
 21
-34.171
  0
LINE
  8
0
 10
6.071
 11
5.674
 20
-34.171
 21
-33.897
  0
LINE
  8
0
 10
5.674
 11
5.354
 20
-33.897
 21
-33.536
  0
LINE
  8
0
 10
5.354
 11
5.13
 20
-33.536
 21
-33.109
  0
LINE
  8
0
 10
5.13
 11
5.015
 20
-33.109
 21
-32.641
  0
LINE
  8
0
 10
7.207
 11
7.377
 20
-152.679
 21
-152.232
  0
LINE
  8
0
 10
7.377
 11
7.735
 20
-152.232
 21
-151.915
  0
LINE
  8
0
 10
7.735
 11
8.2
 20
-151.915
 21
-151.8
  0
LINE
  8
0
 10
8.2
 11
8.665
 20
-151.8
 21
-151.915
  0
LINE
  8
0
 10
8.665
 11
9.023
 20
-151.915
 21
-152.232
  0
LINE
  8
0
 10
9.023
 11
9.193
 20
-152.232
 21
-152.679
  0
LINE
  8
0
 10
9.193
 11
9.135
 20
-152.679
 21
-153.155
  0
LINE
  8
0
 10
9.135
 11
8.863
 20
-153.155
 21
-153.549
  0
LINE
  8
0
 10
8.863
 11
8.439
 20
-153.549
 21
-153.771
  0
LINE
  8
0
 10
8.439
 11
7.961
 20
-153.771
 21
-153.771
  0
LINE
  8
0
 10
7.961
 11
7.537
 20
-153.771
 21
-153.549
  0
LINE
  8
0
 10
7.537
 11
7.265
 20
-153.549
 21
-153.155
  0
LINE
  8
0
 10
7.265
 11
7.207
 20
-153.155
 21
-152.679
  0
LINE
  8
0
 10
7.207
 11
7.377
 20
-131.459
 21
-131.012
  0
LINE
  8
0
 10
7.377
 11
7.735
 20
-131.012
 21
-130.695
  0
LINE
  8
0
 10
7.735
 11
8.2
 20
-130.695
 21
-130.58
  0
LINE
  8
0
 10
8.2
 11
8.665
 20
-130.58
 21
-130.695
  0
LINE
  8
0
 10
8.665
 11
9.023
 20
-130.695
 21
-131.012
  0
LINE
  8
0
 10
9.023
 11
9.193
 20
-131.012
 21
-131.459
  0
LINE
  8
0
 10
9.193
 11
9.135
 20
-131.459
 21
-131.935
  0
LINE
  8
0
 10
9.135
 11
8.863
 20
-131.935
 21
-132.329
  0
LINE
  8
0
 10
8.863
 11
8.439
 20
-132.329
 21
-132.551
  0
LINE
  8
0
 10
8.439
 11
7.961
 20
-132.551
 21
-132.551
  0
LINE
  8
0
 10
7.961
 11
7.537
 20
-132.551
 21
-132.329
  0
LINE
  8
0
 10
7.537
 11
7.265
 20
-132.329
 21
-131.935
  0
LINE
  8
0
 10
7.265
 11
7.207
 20
-131.935
 21
-131.459
  0
LINE
  8
0
 10
7.207
 11
7.377
 20
127.701
 21
128.148
  0
LINE
  8
0
 10
7.377
 11
7.735
 20
128.148
 21
128.465
  0
LINE
  8
0
 10
7.735
 11
8.2
 20
128.465
 21
128.58
  0
LINE
  8
0
 10
8.2
 11
8.665
 20
128.58
 21
128.465
  0
LINE
  8
0
 10
8.665
 11
9.023
 20
128.465
 21
128.148
  0
LINE
  8
0
 10
9.023
 11
9.193
 20
128.148
 21
127.701
  0
LINE
  8
0
 10
9.193
 11
9.135
 20
127.701
 21
127.225
  0
LINE
  8
0
 10
9.135
 11
8.863
 20
127.225
 21
126.831
  0
LINE
  8
0
 10
8.863
 11
8.439
 20
126.831
 21
126.609
  0
LINE
  8
0
 10
8.439
 11
7.961
 20
126.609
 21
126.609
  0
LINE
  8
0
 10
7.961
 11
7.537
 20
126.609
 21
126.831
  0
LINE
  8
0
 10
7.537
 11
7.265
 20
126.831
 21
127.225
  0
LINE
  8
0
 10
7.265
 11
7.207
 20
127.225
 21
127.701
  0
LINE
  8
0
 10
7.207
 11
7.377
 20
148.921
 21
149.368
  0
LINE
  8
0
 10
7.377
 11
7.735
 20
149.368
 21
149.685
  0
LINE
  8
0
 10
7.735
 11
8.2
 20
149.685
 21
149.8
  0
LINE
  8
0
 10
8.2
 11
8.665
 20
149.8
 21
149.685
  0
LINE
  8
0
 10
8.665
 11
9.023
 20
149.685
 21
149.368
  0
LINE
  8
0
 10
9.023
 11
9.193
 20
149.368
 21
148.921
  0
LINE
  8
0
 10
9.193
 11
9.135
 20
148.921
 21
148.445
  0
LINE
  8
0
 10
9.135
 11
8.863
 20
148.445
 21
148.051
  0
LINE
  8
0
 10
8.863
 11
8.439
 20
148.051
 21
147.829
  0
LINE
  8
0
 10
8.439
 11
7.961
 20
147.829
 21
147.829
  0
LINE
  8
0
 10
7.961
 11
7.537
 20
147.829
 21
148.051
  0
LINE
  8
0
 10
7.537
 11
7.265
 20
148.051
 21
148.445
  0
LINE
  8
0
 10
7.265
 11
7.207
 20
148.445
 21
148.921
  0
LINE
  8
0
 10
25.1
 11
25.215
 20
8.2
 21
8.665
  0
LINE
  8
0
 10
25.215
 11
25.532
 20
8.665
 21
9.023
  0
LINE
  8
0
 10
25.532
 11
25.979
 20
9.023
 21
9.193
  0
LINE
  8
0
 10
25.979
 11
26.455
 20
9.193
 21
9.135
  0
LINE
  8
0
 10
26.455
 11
26.849
 20
9.135
 21
8.863
  0
LINE
  8
0
 10
26.849
 11
27.071
 20
8.863
 21
8.439
  0
LINE
  8
0
 10
27.071
 11
27.071
 20
8.439
 21
7.961
  0
LINE
  8
0
 10
27.071
 11
26.849
 20
7.961
 21
7.537
  0
LINE
  8
0
 10
26.849
 11
26.455
 20
7.537
 21
7.265
  0
LINE
  8
0
 10
26.455
 11
25.979
 20
7.265
 21
7.207
  0
LINE
  8
0
 10
25.979
 11
25.532
 20
7.207
 21
7.377
  0
LINE
  8
0
 10
25.532
 11
25.215
 20
7.377
 21
7.735
  0
LINE
  8
0
 10
25.215
 11
25.1
 20
7.735
 21
8.2
  0
LINE
  8
0
 10
25.129
 11
25.129
 20
-12.439
 21
-11.961
  0
LINE
  8
0
 10
25.129
 11
25.351
 20
-11.961
 21
-11.537
  0
LINE
  8
0
 10
25.351
 11
25.745
 20
-11.537
 21
-11.265
  0
LINE
  8
0
 10
25.745
 11
26.221
 20
-11.265
 21
-11.207
  0
LINE
  8
0
 10
26.221
 11
26.668
 20
-11.207
 21
-11.377
  0
LINE
  8
0
 10
26.668
 11
26.985
 20
-11.377
 21
-11.735
  0
LINE
  8
0
 10
26.985
 11
27.1
 20
-11.735
 21
-12.2
  0
LINE
  8
0
 10
27.1
 11
26.985
 20
-12.2
 21
-12.665
  0
LINE
  8
0
 10
26.985
 11
26.668
 20
-12.665
 21
-13.023
  0
LINE
  8
0
 10
26.668
 11
26.221
 20
-13.023
 21
-13.193
  0
LINE
  8
0
 10
26.221
 11
25.745
 20
-13.193
 21
-13.135
  0
LINE
  8
0
 10
25.745
 11
25.351
 20
-13.135
 21
-12.863
  0
LINE
  8
0
 10
25.351
 11
25.129
 20
-12.863
 21
-12.439
  0
LINE
  8
0
 10
31.929
 11
31.929
 20
-155.739
 21
-155.261
  0
LINE
  8
0
 10
31.929
 11
32.151
 20
-155.261
 21
-154.837
  0
LINE
  8
0
 10
32.151
 11
32.545
 20
-154.837
 21
-154.565
  0
LINE
  8
0
 10
32.545
 11
33.021
 20
-154.565
 21
-154.507
  0
LINE
  8
0
 10
33.021
 11
33.468
 20
-154.507
 21
-154.677
  0
LINE
  8
0
 10
33.468
 11
33.785
 20
-154.677
 21
-155.035
  0
LINE
  8
0
 10
33.785
 11
33.9
 20
-155.035
 21
-155.5
  0
LINE
  8
0
 10
33.9
 11
33.785
 20
-155.5
 21
-155.965
  0
LINE
  8
0
 10
33.785
 11
33.468
 20
-155.965
 21
-156.323
  0
LINE
  8
0
 10
33.468
 11
33.021
 20
-156.323
 21
-156.493
  0
LINE
  8
0
 10
33.021
 11
32.545
 20
-156.493
 21
-156.435
  0
LINE
  8
0
 10
32.545
 11
32.151
 20
-156.435
 21
-156.163
  0
LINE
  8
0
 10
32.151
 11
31.929
 20
-156.163
 21
-155.739
  0
LINE
  8
0
 10
46.32
 11
46.435
 20
8.2
 21
8.665
  0
LINE
  8
0
 10
46.435
 11
46.752
 20
8.665
 21
9.023
  0
LINE
  8
0
 10
46.752
 11
47.199
 20
9.023
 21
9.193
  0
LINE
  8
0
 10
47.199
 11
47.675
 20
9.193
 21
9.135
  0
LINE
  8
0
 10
47.675
 11
48.069
 20
9.135
 21
8.863
  0
LINE
  8
0
 10
48.069
 11
48.291
 20
8.863
 21
8.439
  0
LINE
  8
0
 10
48.291
 11
48.291
 20
8.439
 21
7.961
  0
LINE
  8
0
 10
48.291
 11
48.069
 20
7.961
 21
7.537
  0
LINE
  8
0
 10
48.069
 11
47.675
 20
7.537
 21
7.265
  0
LINE
  8
0
 10
47.675
 11
47.199
 20
7.265
 21
7.207
  0
LINE
  8
0
 10
47.199
 11
46.752
 20
7.207
 21
7.377
  0
LINE
  8
0
 10
46.752
 11
46.435
 20
7.377
 21
7.735
  0
LINE
  8
0
 10
46.435
 11
46.32
 20
7.735
 21
8.2
  0
LINE
  8
0
 10
46.349
 11
46.349
 20
-12.439
 21
-11.961
  0
LINE
  8
0
 10
46.349
 11
46.571
 20
-11.961
 21
-11.537
  0
LINE
  8
0
 10
46.571
 11
46.965
 20
-11.537
 21
-11.265
  0
LINE
  8
0
 10
46.965
 11
47.441
 20
-11.265
 21
-11.207
  0
LINE
  8
0
 10
47.441
 11
47.888
 20
-11.207
 21
-11.377
  0
LINE
  8
0
 10
47.888
 11
48.205
 20
-11.377
 21
-11.735
  0
LINE
  8
0
 10
48.205
 11
48.32
 20
-11.735
 21
-12.2
  0
LINE
  8
0
 10
48.32
 11
48.205
 20
-12.2
 21
-12.665
  0
LINE
  8
0
 10
48.205
 11
47.888
 20
-12.665
 21
-13.023
  0
LINE
  8
0
 10
47.888
 11
47.441
 20
-13.023
 21
-13.193
  0
LINE
  8
0
 10
47.441
 11
46.965
 20
-13.193
 21
-13.135
  0
LINE
  8
0
 10
46.965
 11
46.571
 20
-13.135
 21
-12.863
  0
LINE
  8
0
 10
46.571
 11
46.349
 20
-12.863
 21
-12.439
  0
LINE
  8
0
 10
51.05
 11
51.105
 20
22.65
 21
23.14
  0
LINE
  8
0
 10
51.105
 11
51.268
 20
23.14
 21
23.605
  0
LINE
  8
0
 10
51.268
 11
51.53
 20
23.605
 21
24.022
  0
LINE
  8
0
 10
51.53
 11
51.878
 20
24.022
 21
24.37
  0
LINE
  8
0
 10
51.878
 11
52.295
 20
24.37
 21
24.632
  0
LINE
  8
0
 10
52.295
 11
52.76
 20
24.632
 21
24.795
  0
LINE
  8
0
 10
52.76
 11
53.25
 20
24.795
 21
24.85
  0
LINE
  8
0
 10
53.25
 11
53.74
 20
24.85
 21
24.795
  0
LINE
  8
0
 10
53.74
 11
54.205
 20
24.795
 21
24.632
  0
LINE
  8
0
 10
54.205
 11
54.622
 20
24.632
 21
24.37
  0
LINE
  8
0
 10
54.622
 11
54.97
 20
24.37
 21
24.022
  0
LINE
  8
0
 10
54.97
 11
55.232
 20
24.022
 21
23.605
  0
LINE
  8
0
 10
55.232
 11
55.395
 20
23.605
 21
23.14
  0
LINE
  8
0
 10
55.395
 11
55.45
 20
23.14
 21
22.65
  0
LINE
  8
0
 10
55.45
 11
55.395
 20
22.65
 21
22.16
  0
LINE
  8
0
 10
55.395
 11
55.232
 20
22.16
 21
21.695
  0
LINE
  8
0
 10
55.232
 11
54.97
 20
21.695
 21
21.278
  0
LINE
  8
0
 10
54.97
 11
54.622
 20
21.278
 21
20.93
  0
LINE
  8
0
 10
54.622
 11
54.205
 20
20.93
 21
20.668
  0
LINE
  8
0
 10
54.205
 11
53.74
 20
20.668
 21
20.505
  0
LINE
  8
0
 10
53.74
 11
53.25
 20
20.505
 21
20.45
  0
LINE
  8
0
 10
53.25
 11
52.76
 20
20.45
 21
20.505
  0
LINE
  8
0
 10
52.76
 11
52.295
 20
20.505
 21
20.668
  0
LINE
  8
0
 10
52.295
 11
51.878
 20
20.668
 21
20.93
  0
LINE
  8
0
 10
51.878
 11
51.53
 20
20.93
 21
21.278
  0
LINE
  8
0
 10
51.53
 11
51.268
 20
21.278
 21
21.695
  0
LINE
  8
0
 10
51.268
 11
51.105
 20
21.695
 21
22.16
  0
LINE
  8
0
 10
51.105
 11
51.05
 20
22.16
 21
22.65
  0
LINE
  8
0
 10
51.05
 11
51.105
 20
94.15
 21
94.64
  0
LINE
  8
0
 10
51.105
 11
51.268
 20
94.64
 21
95.105
  0
LINE
  8
0
 10
51.268
 11
51.53
 20
95.105
 21
95.522
  0
LINE
  8
0
 10
51.53
 11
51.878
 20
95.522
 21
95.87
  0
LINE
  8
0
 10
51.878
 11
52.295
 20
95.87
 21
96.132
  0
LINE
  8
0
 10
52.295
 11
52.76
 20
96.132
 21
96.295
  0
LINE
  8
0
 10
52.76
 11
53.25
 20
96.295
 21
96.35
  0
LINE
  8
0
 10
53.25
 11
53.74
 20
96.35
 21
96.295
  0
LINE
  8
0
 10
53.74
 11
54.205
 20
96.295
 21
96.132
  0
LINE
  8
0
 10
54.205
 11
54.622
 20
96.132
 21
95.87
  0
LINE
  8
0
 10
54.622
 11
54.97
 20
95.87
 21
95.522
  0
LINE
  8
0
 10
54.97
 11
55.232
 20
95.522
 21
95.105
  0
LINE
  8
0
 10
55.232
 11
55.395
 20
95.105
 21
94.64
  0
LINE
  8
0
 10
55.395
 11
55.45
 20
94.64
 21
94.15
  0
LINE
  8
0
 10
55.45
 11
55.395
 20
94.15
 21
93.66
  0
LINE
  8
0
 10
55.395
 11
55.232
 20
93.66
 21
93.195
  0
LINE
  8
0
 10
55.232
 11
54.97
 20
93.195
 21
92.778
  0
LINE
  8
0
 10
54.97
 11
54.622
 20
92.778
 21
92.43
  0
LINE
  8
0
 10
54.622
 11
54.205
 20
92.43
 21
92.168
  0
LINE
  8
0
 10
54.205
 11
53.74
 20
92.168
 21
92.005
  0
LINE
  8
0
 10
53.74
 11
53.25
 20
92.005
 21
91.95
  0
LINE
  8
0
 10
53.25
 11
52.76
 20
91.95
 21
92.005
  0
LINE
  8
0
 10
52.76
 11
52.295
 20
92.005
 21
92.168
  0
LINE
  8
0
 10
52.295
 11
51.878
 20
92.168
 21
92.43
  0
LINE
  8
0
 10
51.878
 11
51.53
 20
92.43
 21
92.778
  0
LINE
  8
0
 10
51.53
 11
51.268
 20
92.778
 21
93.195
  0
LINE
  8
0
 10
51.268
 11
51.105
 20
93.195
 21
93.66
  0
LINE
  8
0
 10
51.105
 11
51.05
 20
93.66
 21
94.15
  0
LINE
  8
0
 10
51.5
 11
51.643
 20
58.4
 21
61.668
  0
LINE
  8
0
 10
51.643
 11
52.07
 20
61.668
 21
64.912
  0
LINE
  8
0
 10
52.07
 11
52.778
 20
64.912
 21
68.106
  0
LINE
  8
0
 10
52.778
 11
53.762
 20
68.106
 21
71.226
  0
LINE
  8
0
 10
53.762
 11
55.013
 20
71.226
 21
74.248
  0
LINE
  8
0
 10
55.013
 11
56.524
 20
74.248
 21
77.15
  0
LINE
  8
0
 10
56.524
 11
58.282
 20
77.15
 21
79.909
  0
LINE
  8
0
 10
58.282
 11
60.273
 20
79.909
 21
82.505
  0
LINE
  8
0
 10
60.273
 11
62.483
 20
82.505
 21
84.917
  0
LINE
  8
0
 10
62.483
 11
64.895
 20
84.917
 21
87.127
  0
LINE
  8
0
 10
64.895
 11
67.491
 20
87.127
 21
89.118
  0
LINE
  8
0
 10
67.491
 11
70.25
 20
89.118
 21
90.876
  0
LINE
  8
0
 10
70.25
 11
73.152
 20
90.876
 21
92.387
  0
LINE
  8
0
 10
73.152
 11
76.174
 20
92.387
 21
93.638
  0
LINE
  8
0
 10
76.174
 11
79.294
 20
93.638
 21
94.622
  0
LINE
  8
0
 10
79.294
 11
82.488
 20
94.622
 21
95.33
  0
LINE
  8
0
 10
82.488
 11
85.732
 20
95.33
 21
95.757
  0
LINE
  8
0
 10
85.732
 11
89
 20
95.757
 21
95.9
  0
LINE
  8
0
 10
89
 11
92.268
 20
95.9
 21
95.757
  0
LINE
  8
0
 10
92.268
 11
95.512
 20
95.757
 21
95.33
  0
LINE
  8
0
 10
95.512
 11
98.706
 20
95.33
 21
94.622
  0
LINE
  8
0
 10
98.706
 11
101.826
 20
94.622
 21
93.638
  0
LINE
  8
0
 10
101.826
 11
104.848
 20
93.638
 21
92.387
  0
LINE
  8
0
 10
104.848
 11
107.75
 20
92.387
 21
90.876
  0
LINE
  8
0
 10
107.75
 11
110.509
 20
90.876
 21
89.118
  0
LINE
  8
0
 10
110.509
 11
113.105
 20
89.118
 21
87.127
  0
LINE
  8
0
 10
113.105
 11
115.517
 20
87.127
 21
84.917
  0
LINE
  8
0
 10
115.517
 11
117.727
 20
84.917
 21
82.505
  0
LINE
  8
0
 10
117.727
 11
119.718
 20
82.505
 21
79.909
  0
LINE
  8
0
 10
119.718
 11
121.476
 20
79.909
 21
77.15
  0
LINE
  8
0
 10
121.476
 11
122.987
 20
77.15
 21
74.248
  0
LINE
  8
0
 10
122.987
 11
124.238
 20
74.248
 21
71.226
  0
LINE
  8
0
 10
124.238
 11
125.222
 20
71.226
 21
68.106
  0
LINE
  8
0
 10
125.222
 11
125.93
 20
68.106
 21
64.912
  0
LINE
  8
0
 10
125.93
 11
126.357
 20
64.912
 21
61.668
  0
LINE
  8
0
 10
126.357
 11
126.5
 20
61.668
 21
58.4
  0
LINE
  8
0
 10
126.5
 11
126.357
 20
58.4
 21
55.132
  0
LINE
  8
0
 10
126.357
 11
125.93
 20
55.132
 21
51.888
  0
LINE
  8
0
 10
125.93
 11
125.222
 20
51.888
 21
48.694
  0
LINE
  8
0
 10
125.222
 11
124.238
 20
48.694
 21
45.574
  0
LINE
  8
0
 10
124.238
 11
122.987
 20
45.574
 21
42.552
  0
LINE
  8
0
 10
122.987
 11
121.476
 20
42.552
 21
39.65
  0
LINE
  8
0
 10
121.476
 11
119.718
 20
39.65
 21
36.891
  0
LINE
  8
0
 10
119.718
 11
117.727
 20
36.891
 21
34.295
  0
LINE
  8
0
 10
117.727
 11
115.517
 20
34.295
 21
31.883
  0
LINE
  8
0
 10
115.517
 11
113.105
 20
31.883
 21
29.673
  0
LINE
  8
0
 10
113.105
 11
110.509
 20
29.673
 21
27.682
  0
LINE
  8
0
 10
110.509
 11
107.75
 20
27.682
 21
25.924
  0
LINE
  8
0
 10
107.75
 11
104.848
 20
25.924
 21
24.413
  0
LINE
  8
0
 10
104.848
 11
101.826
 20
24.413
 21
23.162
  0
LINE
  8
0
 10
101.826
 11
98.706
 20
23.162
 21
22.178
  0
LINE
  8
0
 10
98.706
 11
95.512
 20
22.178
 21
21.47
  0
LINE
  8
0
 10
95.512
 11
92.268
 20
21.47
 21
21.043
  0
LINE
  8
0
 10
92.268
 11
89
 20
21.043
 21
20.9
  0
LINE
  8
0
 10
89
 11
85.732
 20
20.9
 21
21.043
  0
LINE
  8
0
 10
85.732
 11
82.488
 20
21.043
 21
21.47
  0
LINE
  8
0
 10
82.488
 11
79.294
 20
21.47
 21
22.178
  0
LINE
  8
0
 10
79.294
 11
76.174
 20
22.178
 21
23.162
  0
LINE
  8
0
 10
76.174
 11
73.152
 20
23.162
 21
24.413
  0
LINE
  8
0
 10
73.152
 11
70.25
 20
24.413
 21
25.924
  0
LINE
  8
0
 10
70.25
 11
67.491
 20
25.924
 21
27.682
  0
LINE
  8
0
 10
67.491
 11
64.895
 20
27.682
 21
29.673
  0
LINE
  8
0
 10
64.895
 11
62.483
 20
29.673
 21
31.883
  0
LINE
  8
0
 10
62.483
 11
60.273
 20
31.883
 21
34.295
  0
LINE
  8
0
 10
60.273
 11
58.282
 20
34.295
 21
36.891
  0
LINE
  8
0
 10
58.282
 11
56.524
 20
36.891
 21
39.65
  0
LINE
  8
0
 10
56.524
 11
55.013
 20
39.65
 21
42.552
  0
LINE
  8
0
 10
55.013
 11
53.762
 20
42.552
 21
45.574
  0
LINE
  8
0
 10
53.762
 11
52.778
 20
45.574
 21
48.694
  0
LINE
  8
0
 10
52.778
 11
52.07
 20
48.694
 21
51.888
  0
LINE
  8
0
 10
52.07
 11
51.643
 20
51.888
 21
55.132
  0
LINE
  8
0
 10
51.643
 11
51.5
 20
55.132
 21
58.4
  0
LINE
  8
0
 10
122.55
 11
122.605
 20
22.65
 21
23.14
  0
LINE
  8
0
 10
122.605
 11
122.768
 20
23.14
 21
23.605
  0
LINE
  8
0
 10
122.768
 11
123.03
 20
23.605
 21
24.022
  0
LINE
  8
0
 10
123.03
 11
123.378
 20
24.022
 21
24.37
  0
LINE
  8
0
 10
123.378
 11
123.795
 20
24.37
 21
24.632
  0
LINE
  8
0
 10
123.795
 11
124.26
 20
24.632
 21
24.795
  0
LINE
  8
0
 10
124.26
 11
124.75
 20
24.795
 21
24.85
  0
LINE
  8
0
 10
124.75
 11
125.24
 20
24.85
 21
24.795
  0
LINE
  8
0
 10
125.24
 11
125.705
 20
24.795
 21
24.632
  0
LINE
  8
0
 10
125.705
 11
126.122
 20
24.632
 21
24.37
  0
LINE
  8
0
 10
126.122
 11
126.47
 20
24.37
 21
24.022
  0
LINE
  8
0
 10
126.47
 11
126.732
 20
24.022
 21
23.605
  0
LINE
  8
0
 10
126.732
 11
126.895
 20
23.605
 21
23.14
  0
LINE
  8
0
 10
126.895
 11
126.95
 20
23.14
 21
22.65
  0
LINE
  8
0
 10
126.95
 11
126.895
 20
22.65
 21
22.16
  0
LINE
  8
0
 10
126.895
 11
126.732
 20
22.16
 21
21.695
  0
LINE
  8
0
 10
126.732
 11
126.47
 20
21.695
 21
21.278
  0
LINE
  8
0
 10
126.47
 11
126.122
 20
21.278
 21
20.93
  0
LINE
  8
0
 10
126.122
 11
125.705
 20
20.93
 21
20.668
  0
LINE
  8
0
 10
125.705
 11
125.24
 20
20.668
 21
20.505
  0
LINE
  8
0
 10
125.24
 11
124.75
 20
20.505
 21
20.45
  0
LINE
  8
0
 10
124.75
 11
124.26
 20
20.45
 21
20.505
  0
LINE
  8
0
 10
124.26
 11
123.795
 20
20.505
 21
20.668
  0
LINE
  8
0
 10
123.795
 11
123.378
 20
20.668
 21
20.93
  0
LINE
  8
0
 10
123.378
 11
123.03
 20
20.93
 21
21.278
  0
LINE
  8
0
 10
123.03
 11
122.768
 20
21.278
 21
21.695
  0
LINE
  8
0
 10
122.768
 11
122.605
 20
21.695
 21
22.16
  0
LINE
  8
0
 10
122.605
 11
122.55
 20
22.16
 21
22.65
  0
LINE
  8
0
 10
122.55
 11
122.605
 20
94.15
 21
94.64
  0
LINE
  8
0
 10
122.605
 11
122.768
 20
94.64
 21
95.105
  0
LINE
  8
0
 10
122.768
 11
123.03
 20
95.105
 21
95.522
  0
LINE
  8
0
 10
123.03
 11
123.378
 20
95.522
 21
95.87
  0
LINE
  8
0
 10
123.378
 11
123.795
 20
95.87
 21
96.132
  0
LINE
  8
0
 10
123.795
 11
124.26
 20
96.132
 21
96.295
  0
LINE
  8
0
 10
124.26
 11
124.75
 20
96.295
 21
96.35
  0
LINE
  8
0
 10
124.75
 11
125.24
 20
96.35
 21
96.295
  0
LINE
  8
0
 10
125.24
 11
125.705
 20
96.295
 21
96.132
  0
LINE
  8
0
 10
125.705
 11
126.122
 20
96.132
 21
95.87
  0
LINE
  8
0
 10
126.122
 11
126.47
 20
95.87
 21
95.522
  0
LINE
  8
0
 10
126.47
 11
126.732
 20
95.522
 21
95.105
  0
LINE
  8
0
 10
126.732
 11
126.895
 20
95.105
 21
94.64
  0
LINE
  8
0
 10
126.895
 11
126.95
 20
94.64
 21
94.15
  0
LINE
  8
0
 10
126.95
 11
126.895
 20
94.15
 21
93.66
  0
LINE
  8
0
 10
126.895
 11
126.732
 20
93.66
 21
93.195
  0
LINE
  8
0
 10
126.732
 11
126.47
 20
93.195
 21
92.778
  0
LINE
  8
0
 10
126.47
 11
126.122
 20
92.778
 21
92.43
  0
LINE
  8
0
 10
126.122
 11
125.705
 20
92.43
 21
92.168
  0
LINE
  8
0
 10
125.705
 11
125.24
 20
92.168
 21
92.005
  0
LINE
  8
0
 10
125.24
 11
124.75
 20
92.005
 21
91.95
  0
LINE
  8
0
 10
124.75
 11
124.26
 20
91.95
 21
92.005
  0
LINE
  8
0
 10
124.26
 11
123.795
 20
92.005
 21
92.168
  0
LINE
  8
0
 10
123.795
 11
123.378
 20
92.168
 21
92.43
  0
LINE
  8
0
 10
123.378
 11
123.03
 20
92.43
 21
92.778
  0
LINE
  8
0
 10
123.03
 11
122.768
 20
92.778
 21
93.195
  0
LINE
  8
0
 10
122.768
 11
122.605
 20
93.195
 21
93.66
  0
LINE
  8
0
 10
122.605
 11
122.55
 20
93.66
 21
94.15
  0
LINE
  8
0
 10
148.929
 11
148.929
 20
-155.739
 21
-155.261
  0
LINE
  8
0
 10
148.929
 11
149.151
 20
-155.261
 21
-154.837
  0
LINE
  8
0
 10
149.151
 11
149.545
 20
-154.837
 21
-154.565
  0
LINE
  8
0
 10
149.545
 11
150.021
 20
-154.565
 21
-154.507
  0
LINE
  8
0
 10
150.021
 11
150.468
 20
-154.507
 21
-154.677
  0
LINE
  8
0
 10
150.468
 11
150.785
 20
-154.677
 21
-155.035
  0
LINE
  8
0
 10
150.785
 11
150.9
 20
-155.035
 21
-155.5
  0
LINE
  8
0
 10
150.9
 11
150.785
 20
-155.5
 21
-155.965
  0
LINE
  8
0
 10
150.785
 11
150.468
 20
-155.965
 21
-156.323
  0
LINE
  8
0
 10
150.468
 11
150.021
 20
-156.323
 21
-156.493
  0
LINE
  8
0
 10
150.021
 11
149.545
 20
-156.493
 21
-156.435
  0
LINE
  8
0
 10
149.545
 11
149.151
 20
-156.435
 21
-156.163
  0
LINE
  8
0
 10
149.151
 11
148.929
 20
-156.163
 21
-155.739
  0
LINE
  8
0
 10
191.234
 11
191.234
 20
-148.189
 21
-147.711
  0
LINE
  8
0
 10
191.234
 11
191.493
 20
-147.711
 21
-147.308
  0
LINE
  8
0
 10
191.493
 11
191.929
 20
-147.308
 21
-147.109
  0
LINE
  8
0
 10
191.929
 11
192.403
 20
-147.109
 21
-147.177
  0
LINE
  8
0
 10
192.403
 11
192.765
 20
-147.177
 21
-147.49
  0
LINE
  8
0
 10
192.765
 11
192.9
 20
-147.49
 21
-147.95
  0
LINE
  8
0
 10
192.9
 11
192.765
 20
-147.95
 21
-148.41
  0
LINE
  8
0
 10
192.765
 11
192.403
 20
-148.41
 21
-148.723
  0
LINE
  8
0
 10
192.403
 11
191.929
 20
-148.723
 21
-148.791
  0
LINE
  8
0
 10
191.929
 11
191.493
 20
-148.791
 21
-148.592
  0
LINE
  8
0
 10
191.493
 11
191.234
 20
-148.592
 21
-148.189
  0
LINE
  8
0
 10
191.234
 11
191.234
 20
-116.689
 21
-116.211
  0
LINE
  8
0
 10
191.234
 11
191.493
 20
-116.211
 21
-115.808
  0
LINE
  8
0
 10
191.493
 11
191.929
 20
-115.808
 21
-115.609
  0
LINE
  8
0
 10
191.929
 11
192.403
 20
-115.609
 21
-115.677
  0
LINE
  8
0
 10
192.403
 11
192.765
 20
-115.677
 21
-115.99
  0
LINE
  8
0
 10
192.765
 11
192.9
 20
-115.99
 21
-116.45
  0
LINE
  8
0
 10
192.9
 11
192.765
 20
-116.45
 21
-116.91
  0
LINE
  8
0
 10
192.765
 11
192.403
 20
-116.91
 21
-117.223
  0
LINE
  8
0
 10
192.403
 11
191.929
 20
-117.223
 21
-117.291
  0
LINE
  8
0
 10
191.929
 11
191.493
 20
-117.291
 21
-117.092
  0
LINE
  8
0
 10
191.493
 11
191.234
 20
-117.092
 21
-116.689
  0
LINE
  8
0
 10
205.534
 11
205.534
 20
-132.289
 21
-131.811
  0
LINE
  8
0
 10
205.534
 11
205.793
 20
-131.811
 21
-131.408
  0
LINE
  8
0
 10
205.793
 11
206.229
 20
-131.408
 21
-131.209
  0
LINE
  8
0
 10
206.229
 11
206.703
 20
-131.209
 21
-131.277
  0
LINE
  8
0
 10
206.703
 11
207.065
 20
-131.277
 21
-131.59
  0
LINE
  8
0
 10
207.065
 11
207.2
 20
-131.59
 21
-132.05
  0
LINE
  8
0
 10
207.2
 11
207.065
 20
-132.05
 21
-132.51
  0
LINE
  8
0
 10
207.065
 11
206.703
 20
-132.51
 21
-132.823
  0
LINE
  8
0
 10
206.703
 11
206.229
 20
-132.823
 21
-132.891
  0
LINE
  8
0
 10
206.229
 11
205.793
 20
-132.891
 21
-132.692
  0
LINE
  8
0
 10
205.793
 11
205.534
 20
-132.692
 21
-132.289
  0
LINE
  8
0
 10
205.534
 11
205.534
 20
-100.789
 21
-100.311
  0
LINE
  8
0
 10
205.534
 11
205.793
 20
-100.311
 21
-99.908
  0
LINE
  8
0
 10
205.793
 11
206.229
 20
-99.908
 21
-99.709
  0
LINE
  8
0
 10
206.229
 11
206.703
 20
-99.709
 21
-99.777
  0
LINE
  8
0
 10
206.703
 11
207.065
 20
-99.777
 21
-100.09
  0
LINE
  8
0
 10
207.065
 11
207.2
 20
-100.09
 21
-100.55
  0
LINE
  8
0
 10
207.2
 11
207.065
 20
-100.55
 21
-101.01
  0
LINE
  8
0
 10
207.065
 11
206.703
 20
-101.01
 21
-101.323
  0
LINE
  8
0
 10
206.703
 11
206.229
 20
-101.323
 21
-101.391
  0
LINE
  8
0
 10
206.229
 11
205.793
 20
-101.391
 21
-101.192
  0
LINE
  8
0
 10
205.793
 11
205.534
 20
-101.192
 21
-100.789
  0
LINE
  8
0
 10
229.26
 11
229.355
 20
-109.44
 21
-108.962
  0
LINE
  8
0
 10
229.355
 11
229.626
 20
-108.962
 21
-108.556
  0
LINE
  8
0
 10
229.626
 11
230.032
 20
-108.556
 21
-108.285
  0
LINE
  8
0
 10
230.032
 11
230.51
 20
-108.285
 21
-108.19
  0
LINE
  8
0
 10
230.51
 11
230.988
 20
-108.19
 21
-108.285
  0
LINE
  8
0
 10
230.988
 11
231.394
 20
-108.285
 21
-108.556
  0
LINE
  8
0
 10
231.394
 11
231.665
 20
-108.556
 21
-108.962
  0
LINE
  8
0
 10
231.665
 11
231.76
 20
-108.962
 21
-109.44
  0
LINE
  8
0
 10
231.76
 11
231.665
 20
-109.44
 21
-109.918
  0
LINE
  8
0
 10
231.665
 11
231.394
 20
-109.918
 21
-110.324
  0
LINE
  8
0
 10
231.394
 11
230.988
 20
-110.324
 21
-110.595
  0
LINE
  8
0
 10
230.988
 11
230.51
 20
-110.595
 21
-110.69
  0
LINE
  8
0
 10
230.51
 11
230.032
 20
-110.69
 21
-110.595
  0
LINE
  8
0
 10
230.032
 11
229.626
 20
-110.595
 21
-110.324
  0
LINE
  8
0
 10
229.626
 11
229.355
 20
-110.324
 21
-109.918
  0
LINE
  8
0
 10
229.355
 11
229.26
 20
-109.918
 21
-109.44
  0
LINE
  8
0
 10
229.26
 11
229.355
 20
-57.06
 21
-56.582
  0
LINE
  8
0
 10
229.355
 11
229.626
 20
-56.582
 21
-56.176
  0
LINE
  8
0
 10
229.626
 11
230.032
 20
-56.176
 21
-55.905
  0
LINE
  8
0
 10
230.032
 11
230.51
 20
-55.905
 21
-55.81
  0
LINE
  8
0
 10
230.51
 11
230.988
 20
-55.81
 21
-55.905
  0
LINE
  8
0
 10
230.988
 11
231.394
 20
-55.905
 21
-56.176
  0
LINE
  8
0
 10
231.394
 11
231.665
 20
-56.176
 21
-56.582
  0
LINE
  8
0
 10
231.665
 11
231.76
 20
-56.582
 21
-57.06
  0
LINE
  8
0
 10
231.76
 11
231.665
 20
-57.06
 21
-57.538
  0
LINE
  8
0
 10
231.665
 11
231.394
 20
-57.538
 21
-57.944
  0
LINE
  8
0
 10
231.394
 11
230.988
 20
-57.944
 21
-58.215
  0
LINE
  8
0
 10
230.988
 11
230.51
 20
-58.215
 21
-58.31
  0
LINE
  8
0
 10
230.51
 11
230.032
 20
-58.31
 21
-58.215
  0
LINE
  8
0
 10
230.032
 11
229.626
 20
-58.215
 21
-57.944
  0
LINE
  8
0
 10
229.626
 11
229.355
 20
-57.944
 21
-57.538
  0
LINE
  8
0
 10
229.355
 11
229.26
 20
-57.538
 21
-57.06
  0
LINE
  8
0
 10
287.512
 11
287.626
 20
-36.1
 21
-35.635
  0
LINE
  8
0
 10
287.626
 11
287.944
 20
-35.635
 21
-35.277
  0
LINE
  8
0
 10
287.944
 11
288.391
 20
-35.277
 21
-35.107
  0
LINE
  8
0
 10
288.391
 11
288.866
 20
-35.107
 21
-35.165
  0
LINE
  8
0
 10
288.866
 11
289.26
 20
-35.165
 21
-35.437
  0
LINE
  8
0
 10
289.26
 11
289.483
 20
-35.437
 21
-35.861
  0
LINE
  8
0
 10
289.483
 11
289.483
 20
-35.861
 21
-36.339
  0
LINE
  8
0
 10
289.483
 11
289.26
 20
-36.339
 21
-36.763
  0
LINE
  8
0
 10
289.26
 11
288.866
 20
-36.763
 21
-37.035
  0
LINE
  8
0
 10
288.866
 11
288.391
 20
-37.035
 21
-37.093
  0
LINE
  8
0
 10
288.391
 11
287.944
 20
-37.093
 21
-36.923
  0
LINE
  8
0
 10
287.944
 11
287.626
 20
-36.923
 21
-36.565
  0
LINE
  8
0
 10
287.626
 11
287.512
 20
-36.565
 21
-36.1
  0
LINE
  8
0
 10
287.512
 11
287.626
 20
88.9
 21
89.365
  0
LINE
  8
0
 10
287.626
 11
287.944
 20
89.365
 21
89.723
  0
LINE
  8
0
 10
287.944
 11
288.391
 20
89.723
 21
89.893
  0
LINE
  8
0
 10
288.391
 11
288.866
 20
89.893
 21
89.835
  0
LINE
  8
0
 10
288.866
 11
289.26
 20
89.835
 21
89.563
  0
LINE
  8
0
 10
289.26
 11
289.483
 20
89.563
 21
89.139
  0
LINE
  8
0
 10
289.483
 11
289.483
 20
89.139
 21
88.661
  0
LINE
  8
0
 10
289.483
 11
289.26
 20
88.661
 21
88.237
  0
LINE
  8
0
 10
289.26
 11
288.866
 20
88.237
 21
87.965
  0
LINE
  8
0
 10
288.866
 11
288.391
 20
87.965
 21
87.907
  0
LINE
  8
0
 10
288.391
 11
287.944
 20
87.907
 21
88.077
  0
LINE
  8
0
 10
287.944
 11
287.626
 20
88.077
 21
88.435
  0
LINE
  8
0
 10
287.626
 11
287.512
 20
88.435
 21
88.9
  0
LINE
  8
0
 10
314.08
 11
314.121
 20
-12
 21
-11.506
  0
LINE
  8
0
 10
314.121
 11
314.243
 20
-11.506
 21
-11.026
  0
LINE
  8
0
 10
314.243
 11
314.442
 20
-11.026
 21
-10.572
  0
LINE
  8
0
 10
314.442
 11
314.713
 20
-10.572
 21
-10.157
  0
LINE
  8
0
 10
314.713
 11
315.048
 20
-10.157
 21
-9.793
  0
LINE
  8
0
 10
315.048
 11
315.439
 20
-9.793
 21
-9.489
  0
LINE
  8
0
 10
315.439
 11
315.875
 20
-9.489
 21
-9.253
  0
LINE
  8
0
 10
315.875
 11
316.344
 20
-9.253
 21
-9.092
  0
LINE
  8
0
 10
316.344
 11
316.832
 20
-9.092
 21
-9.01
  0
LINE
  8
0
 10
316.832
 11
317.328
 20
-9.01
 21
-9.01
  0
LINE
  8
0
 10
317.328
 11
317.816
 20
-9.01
 21
-9.092
  0
LINE
  8
0
 10
317.816
 11
318.285
 20
-9.092
 21
-9.253
  0
LINE
  8
0
 10
318.285
 11
318.721
 20
-9.253
 21
-9.489
  0
LINE
  8
0
 10
318.721
 11
319.112
 20
-9.489
 21
-9.793
  0
LINE
  8
0
 10
319.112
 11
319.447
 20
-9.793
 21
-10.157
  0
LINE
  8
0
 10
319.447
 11
319.718
 20
-10.157
 21
-10.572
  0
LINE
  8
0
 10
319.718
 11
319.917
 20
-10.572
 21
-11.026
  0
LINE
  8
0
 10
319.917
 11
320.039
 20
-11.026
 21
-11.506
  0
LINE
  8
0
 10
320.039
 11
320.08
 20
-11.506
 21
-12
  0
LINE
  8
0
 10
320.08
 11
320.039
 20
-12
 21
-12.494
  0
LINE
  8
0
 10
320.039
 11
319.917
 20
-12.494
 21
-12.974
  0
LINE
  8
0
 10
319.917
 11
319.718
 20
-12.974
 21
-13.428
  0
LINE
  8
0
 10
319.718
 11
319.447
 20
-13.428
 21
-13.843
  0
LINE
  8
0
 10
319.447
 11
319.112
 20
-13.843
 21
-14.207
  0
LINE
  8
0
 10
319.112
 11
318.721
 20
-14.207
 21
-14.511
  0
LINE
  8
0
 10
318.721
 11
318.285
 20
-14.511
 21
-14.747
  0
LINE
  8
0
 10
318.285
 11
317.816
 20
-14.747
 21
-14.908
  0
LINE
  8
0
 10
317.816
 11
317.328
 20
-14.908
 21
-14.99
  0
LINE
  8
0
 10
317.328
 11
316.832
 20
-14.99
 21
-14.99
  0
LINE
  8
0
 10
316.832
 11
316.344
 20
-14.99
 21
-14.908
  0
LINE
  8
0
 10
316.344
 11
315.875
 20
-14.908
 21
-14.747
  0
LINE
  8
0
 10
315.875
 11
315.439
 20
-14.747
 21
-14.511
  0
LINE
  8
0
 10
315.439
 11
315.048
 20
-14.511
 21
-14.207
  0
LINE
  8
0
 10
315.048
 11
314.713
 20
-14.207
 21
-13.843
  0
LINE
  8
0
 10
314.713
 11
314.442
 20
-13.843
 21
-13.428
  0
LINE
  8
0
 10
314.442
 11
314.243
 20
-13.428
 21
-12.974
  0
LINE
  8
0
 10
314.243
 11
314.121
 20
-12.974
 21
-12.494
  0
LINE
  8
0
 10
314.121
 11
314.08
 20
-12.494
 21
-12
  0
LINE
  8
0
 10
314.08
 11
314.121
 20
8
 21
8.494
  0
LINE
  8
0
 10
314.121
 11
314.243
 20
8.494
 21
8.974
  0
LINE
  8
0
 10
314.243
 11
314.442
 20
8.974
 21
9.428
  0
LINE
  8
0
 10
314.442
 11
314.713
 20
9.428
 21
9.843
  0
LINE
  8
0
 10
314.713
 11
315.048
 20
9.843
 21
10.207
  0
LINE
  8
0
 10
315.048
 11
315.439
 20
10.207
 21
10.511
  0
LINE
  8
0
 10
315.439
 11
315.875
 20
10.511
 21
10.747
  0
LINE
  8
0
 10
315.875
 11
316.344
 20
10.747
 21
10.908
  0
LINE
  8
0
 10
316.344
 11
316.832
 20
10.908
 21
10.99
  0
LINE
  8
0
 10
316.832
 11
317.328
 20
10.99
 21
10.99
  0
LINE
  8
0
 10
317.328
 11
317.816
 20
10.99
 21
10.908
  0
LINE
  8
0
 10
317.816
 11
318.285
 20
10.908
 21
10.747
  0
LINE
  8
0
 10
318.285
 11
318.721
 20
10.747
 21
10.511
  0
LINE
  8
0
 10
318.721
 11
319.112
 20
10.511
 21
10.207
  0
LINE
  8
0
 10
319.112
 11
319.447
 20
10.207
 21
9.843
  0
LINE
  8
0
 10
319.447
 11
319.718
 20
9.843
 21
9.428
  0
LINE
  8
0
 10
319.718
 11
319.917
 20
9.428
 21
8.974
  0
LINE
  8
0
 10
319.917
 11
320.039
 20
8.974
 21
8.494
  0
LINE
  8
0
 10
320.039
 11
320.08
 20
8.494
 21
8
  0
LINE
  8
0
 10
320.08
 11
320.039
 20
8
 21
7.506
  0
LINE
  8
0
 10
320.039
 11
319.917
 20
7.506
 21
7.026
  0
LINE
  8
0
 10
319.917
 11
319.718
 20
7.026
 21
6.572
  0
LINE
  8
0
 10
319.718
 11
319.447
 20
6.572
 21
6.157
  0
LINE
  8
0
 10
319.447
 11
319.112
 20
6.157
 21
5.793
  0
LINE
  8
0
 10
319.112
 11
318.721
 20
5.793
 21
5.489
  0
LINE
  8
0
 10
318.721
 11
318.285
 20
5.489
 21
5.253
  0
LINE
  8
0
 10
318.285
 11
317.816
 20
5.253
 21
5.092
  0
LINE
  8
0
 10
317.816
 11
317.328
 20
5.092
 21
5.01
  0
LINE
  8
0
 10
317.328
 11
316.832
 20
5.01
 21
5.01
  0
LINE
  8
0
 10
316.832
 11
316.344
 20
5.01
 21
5.092
  0
LINE
  8
0
 10
316.344
 11
315.875
 20
5.092
 21
5.253
  0
LINE
  8
0
 10
315.875
 11
315.439
 20
5.253
 21
5.489
  0
LINE
  8
0
 10
315.439
 11
315.048
 20
5.489
 21
5.793
  0
LINE
  8
0
 10
315.048
 11
314.713
 20
5.793
 21
6.157
  0
LINE
  8
0
 10
314.713
 11
314.442
 20
6.157
 21
6.572
  0
LINE
  8
0
 10
314.442
 11
314.243
 20
6.572
 21
7.026
  0
LINE
  8
0
 10
314.243
 11
314.121
 20
7.026
 21
7.506
  0
LINE
  8
0
 10
314.121
 11
314.08
 20
7.506
 21
8
  0
LINE
  8
0
 10
323.64
 11
323.735
 20
-109.44
 21
-108.962
  0
LINE
  8
0
 10
323.735
 11
324.006
 20
-108.962
 21
-108.556
  0
LINE
  8
0
 10
324.006
 11
324.412
 20
-108.556
 21
-108.285
  0
LINE
  8
0
 10
324.412
 11
324.89
 20
-108.285
 21
-108.19
  0
LINE
  8
0
 10
324.89
 11
325.368
 20
-108.19
 21
-108.285
  0
LINE
  8
0
 10
325.368
 11
325.774
 20
-108.285
 21
-108.556
  0
LINE
  8
0
 10
325.774
 11
326.045
 20
-108.556
 21
-108.962
  0
LINE
  8
0
 10
326.045
 11
326.14
 20
-108.962
 21
-109.44
  0
LINE
  8
0
 10
326.14
 11
326.045
 20
-109.44
 21
-109.918
  0
LINE
  8
0
 10
326.045
 11
325.774
 20
-109.918
 21
-110.324
  0
LINE
  8
0
 10
325.774
 11
325.368
 20
-110.324
 21
-110.595
  0
LINE
  8
0
 10
325.368
 11
324.89
 20
-110.595
 21
-110.69
  0
LINE
  8
0
 10
324.89
 11
324.412
 20
-110.69
 21
-110.595
  0
LINE
  8
0
 10
324.412
 11
324.006
 20
-110.595
 21
-110.324
  0
LINE
  8
0
 10
324.006
 11
323.735
 20
-110.324
 21
-109.918
  0
LINE
  8
0
 10
323.735
 11
323.64
 20
-109.918
 21
-109.44
  0
LINE
  8
0
 10
323.64
 11
323.735
 20
-57.06
 21
-56.582
  0
LINE
  8
0
 10
323.735
 11
324.006
 20
-56.582
 21
-56.176
  0
LINE
  8
0
 10
324.006
 11
324.412
 20
-56.176
 21
-55.905
  0
LINE
  8
0
 10
324.412
 11
324.89
 20
-55.905
 21
-55.81
  0
LINE
  8
0
 10
324.89
 11
325.368
 20
-55.81
 21
-55.905
  0
LINE
  8
0
 10
325.368
 11
325.774
 20
-55.905
 21
-56.176
  0
LINE
  8
0
 10
325.774
 11
326.045
 20
-56.176
 21
-56.582
  0
LINE
  8
0
 10
326.045
 11
326.14
 20
-56.582
 21
-57.06
  0
LINE
  8
0
 10
326.14
 11
326.045
 20
-57.06
 21
-57.538
  0
LINE
  8
0
 10
326.045
 11
325.774
 20
-57.538
 21
-57.944
  0
LINE
  8
0
 10
325.774
 11
325.368
 20
-57.944
 21
-58.215
  0
LINE
  8
0
 10
325.368
 11
324.89
 20
-58.215
 21
-58.31
  0
LINE
  8
0
 10
324.89
 11
324.412
 20
-58.31
 21
-58.215
  0
LINE
  8
0
 10
324.412
 11
324.006
 20
-58.215
 21
-57.944
  0
LINE
  8
0
 10
324.006
 11
323.735
 20
-57.944
 21
-57.538
  0
LINE
  8
0
 10
323.735
 11
323.64
 20
-57.538
 21
-57.06
  0
LINE
  8
0
 10
326.58
 11
326.638
 20
-11
 21
-10.521
  0
LINE
  8
0
 10
326.638
 11
326.809
 20
-10.521
 21
-10.071
  0
LINE
  8
0
 10
326.809
 11
327.083
 20
-10.071
 21
-9.674
  0
LINE
  8
0
 10
327.083
 11
327.444
 20
-9.674
 21
-9.354
  0
LINE
  8
0
 10
327.444
 11
327.871
 20
-9.354
 21
-9.13
  0
LINE
  8
0
 10
327.871
 11
328.339
 20
-9.13
 21
-9.015
  0
LINE
  8
0
 10
328.339
 11
328.821
 20
-9.015
 21
-9.015
  0
LINE
  8
0
 10
328.821
 11
329.289
 20
-9.015
 21
-9.13
  0
LINE
  8
0
 10
329.289
 11
329.716
 20
-9.13
 21
-9.354
  0
LINE
  8
0
 10
329.716
 11
330.077
 20
-9.354
 21
-9.674
  0
LINE
  8
0
 10
330.077
 11
330.351
 20
-9.674
 21
-10.071
  0
LINE
  8
0
 10
330.351
 11
330.522
 20
-10.071
 21
-10.521
  0
LINE
  8
0
 10
330.522
 11
330.58
 20
-10.521
 21
-11
  0
LINE
  8
0
 10
330.58
 11
330.522
 20
-11
 21
-11.479
  0
LINE
  8
0
 10
330.522
 11
330.351
 20
-11.479
 21
-11.929
  0
LINE
  8
0
 10
330.351
 11
330.077
 20
-11.929
 21
-12.326
  0
LINE
  8
0
 10
330.077
 11
329.716
 20
-12.326
 21
-12.646
  0
LINE
  8
0
 10
329.716
 11
329.289
 20
-12.646
 21
-12.87
  0
LINE
  8
0
 10
329.289
 11
328.821
 20
-12.87
 21
-12.985
  0
LINE
  8
0
 10
328.821
 11
328.339
 20
-12.985
 21
-12.985
  0
LINE
  8
0
 10
328.339
 11
327.871
 20
-12.985
 21
-12.87
  0
LINE
  8
0
 10
327.871
 11
327.444
 20
-12.87
 21
-12.646
  0
LINE
  8
0
 10
327.444
 11
327.083
 20
-12.646
 21
-12.326
  0
LINE
  8
0
 10
327.083
 11
326.809
 20
-12.326
 21
-11.929
  0
LINE
  8
0
 10
326.809
 11
326.638
 20
-11.929
 21
-11.479
  0
LINE
  8
0
 10
326.638
 11
326.58
 20
-11.479
 21
-11
  0
LINE
  8
0
 10
326.58
 11
326.638
 20
7
 21
7.479
  0
LINE
  8
0
 10
326.638
 11
326.809
 20
7.479
 21
7.929
  0
LINE
  8
0
 10
326.809
 11
327.083
 20
7.929
 21
8.326
  0
LINE
  8
0
 10
327.083
 11
327.444
 20
8.326
 21
8.646
  0
LINE
  8
0
 10
327.444
 11
327.871
 20
8.646
 21
8.87
  0
LINE
  8
0
 10
327.871
 11
328.339
 20
8.87
 21
8.985
  0
LINE
  8
0
 10
328.339
 11
328.821
 20
8.985
 21
8.985
  0
LINE
  8
0
 10
328.821
 11
329.289
 20
8.985
 21
8.87
  0
LINE
  8
0
 10
329.289
 11
329.716
 20
8.87
 21
8.646
  0
LINE
  8
0
 10
329.716
 11
330.077
 20
8.646
 21
8.326
  0
LINE
  8
0
 10
330.077
 11
330.351
 20
8.326
 21
7.929
  0
LINE
  8
0
 10
330.351
 11
330.522
 20
7.929
 21
7.479
  0
LINE
  8
0
 10
330.522
 11
330.58
 20
7.479
 21
7
  0
LINE
  8
0
 10
330.58
 11
330.522
 20
7
 21
6.521
  0
LINE
  8
0
 10
330.522
 11
330.351
 20
6.521
 21
6.071
  0
LINE
  8
0
 10
330.351
 11
330.077
 20
6.071
 21
5.674
  0
LINE
  8
0
 10
330.077
 11
329.716
 20
5.674
 21
5.354
  0
LINE
  8
0
 10
329.716
 11
329.289
 20
5.354
 21
5.13
  0
LINE
  8
0
 10
329.289
 11
328.821
 20
5.13
 21
5.015
  0
LINE
  8
0
 10
328.821
 11
328.339
 20
5.015
 21
5.015
  0
LINE
  8
0
 10
328.339
 11
327.871
 20
5.015
 21
5.13
  0
LINE
  8
0
 10
327.871
 11
327.444
 20
5.13
 21
5.354
  0
LINE
  8
0
 10
327.444
 11
327.083
 20
5.354
 21
5.674
  0
LINE
  8
0
 10
327.083
 11
326.809
 20
5.674
 21
6.071
  0
LINE
  8
0
 10
326.809
 11
326.638
 20
6.071
 21
6.521
  0
LINE
  8
0
 10
326.638
 11
326.58
 20
6.521
 21
7
  0
LINE
  8
0
 10
340.68
 11
340.795
 20
8.2
 21
8.665
  0
LINE
  8
0
 10
340.795
 11
341.112
 20
8.665
 21
9.023
  0
LINE
  8
0
 10
341.112
 11
341.559
 20
9.023
 21
9.193
  0
LINE
  8
0
 10
341.559
 11
342.035
 20
9.193
 21
9.135
  0
LINE
  8
0
 10
342.035
 11
342.429
 20
9.135
 21
8.863
  0
LINE
  8
0
 10
342.429
 11
342.651
 20
8.863
 21
8.439
  0
LINE
  8
0
 10
342.651
 11
342.651
 20
8.439
 21
7.961
  0
LINE
  8
0
 10
342.651
 11
342.429
 20
7.961
 21
7.537
  0
LINE
  8
0
 10
342.429
 11
342.035
 20
7.537
 21
7.265
  0
LINE
  8
0
 10
342.035
 11
341.559
 20
7.265
 21
7.207
  0
LINE
  8
0
 10
341.559
 11
341.112
 20
7.207
 21
7.377
  0
LINE
  8
0
 10
341.112
 11
340.795
 20
7.377
 21
7.735
  0
LINE
  8
0
 10
340.795
 11
340.68
 20
7.735
 21
8.2
  0
LINE
  8
0
 10
340.709
 11
340.709
 20
-12.439
 21
-11.961
  0
LINE
  8
0
 10
340.709
 11
340.931
 20
-11.961
 21
-11.537
  0
LINE
  8
0
 10
340.931
 11
341.325
 20
-11.537
 21
-11.265
  0
LINE
  8
0
 10
341.325
 11
341.801
 20
-11.265
 21
-11.207
  0
LINE
  8
0
 10
341.801
 11
342.248
 20
-11.207
 21
-11.377
  0
LINE
  8
0
 10
342.248
 11
342.565
 20
-11.377
 21
-11.735
  0
LINE
  8
0
 10
342.565
 11
342.68
 20
-11.735
 21
-12.2
  0
LINE
  8
0
 10
342.68
 11
342.565
 20
-12.2
 21
-12.665
  0
LINE
  8
0
 10
342.565
 11
342.248
 20
-12.665
 21
-13.023
  0
LINE
  8
0
 10
342.248
 11
341.801
 20
-13.023
 21
-13.193
  0
LINE
  8
0
 10
341.801
 11
341.325
 20
-13.193
 21
-13.135
  0
LINE
  8
0
 10
341.325
 11
340.931
 20
-13.135
 21
-12.863
  0
LINE
  8
0
 10
340.931
 11
340.709
 20
-12.863
 21
-12.439
  0
LINE
  8
0
 10
361.9
 11
362.015
 20
8.2
 21
8.665
  0
LINE
  8
0
 10
362.015
 11
362.332
 20
8.665
 21
9.023
  0
LINE
  8
0
 10
362.332
 11
362.779
 20
9.023
 21
9.193
  0
LINE
  8
0
 10
362.779
 11
363.255
 20
9.193
 21
9.135
  0
LINE
  8
0
 10
363.255
 11
363.649
 20
9.135
 21
8.863
  0
LINE
  8
0
 10
363.649
 11
363.871
 20
8.863
 21
8.439
  0
LINE
  8
0
 10
363.871
 11
363.871
 20
8.439
 21
7.961
  0
LINE
  8
0
 10
363.871
 11
363.649
 20
7.961
 21
7.537
  0
LINE
  8
0
 10
363.649
 11
363.255
 20
7.537
 21
7.265
  0
LINE
  8
0
 10
363.255
 11
362.779
 20
7.265
 21
7.207
  0
LINE
  8
0
 10
362.779
 11
362.332
 20
7.207
 21
7.377
  0
LINE
  8
0
 10
362.332
 11
362.015
 20
7.377
 21
7.735
  0
LINE
  8
0
 10
362.015
 11
361.9
 20
7.735
 21
8.2
  0
LINE
  8
0
 10
361.929
 11
361.929
 20
-12.439
 21
-11.961
  0
LINE
  8
0
 10
361.929
 11
362.151
 20
-11.961
 21
-11.537
  0
LINE
  8
0
 10
362.151
 11
362.545
 20
-11.537
 21
-11.265
  0
LINE
  8
0
 10
362.545
 11
363.021
 20
-11.265
 21
-11.207
  0
LINE
  8
0
 10
363.021
 11
363.468
 20
-11.207
 21
-11.377
  0
LINE
  8
0
 10
363.468
 11
363.785
 20
-11.377
 21
-11.735
  0
LINE
  8
0
 10
363.785
 11
363.9
 20
-11.735
 21
-12.2
  0
LINE
  8
0
 10
363.9
 11
363.785
 20
-12.2
 21
-12.665
  0
LINE
  8
0
 10
363.785
 11
363.468
 20
-12.665
 21
-13.023
  0
LINE
  8
0
 10
363.468
 11
363.021
 20
-13.023
 21
-13.193
  0
LINE
  8
0
 10
363.021
 11
362.545
 20
-13.193
 21
-13.135
  0
LINE
  8
0
 10
362.545
 11
362.151
 20
-13.135
 21
-12.863
  0
LINE
  8
0
 10
362.151
 11
361.929
 20
-12.863
 21
-12.439
  0
ENDSEC
  0
SECTION
  2
OBJECTS
  0
DICTIONARY
  0
ENDSEC
  0
EOF
