  0
SECTION
  2
BLOCKS
  0
ENDSEC
  0
SECTION
  2
ENTITIES
  0
LINE
  8
0
 10
0
 11
0
 20
0
 21
158.5
  0
LINE
  8
0
 10
0
 11
391
 20
158.5
 21
158.5
  0
LINE
  8
0
 10
391
 11
391
 20
158.5
 21
0
  0
LINE
  8
0
 10
391
 11
0
 20
0
 21
0
  0
LINE
  8
0
 10
7.207
 11
7.377
 20
128.901
 21
129.348
  0
LINE
  8
0
 10
7.377
 11
7.735
 20
129.348
 21
129.665
  0
LINE
  8
0
 10
7.735
 11
8.2
 20
129.665
 21
129.78
  0
LINE
  8
0
 10
8.2
 11
8.665
 20
129.78
 21
129.665
  0
LINE
  8
0
 10
8.665
 11
9.023
 20
129.665
 21
129.348
  0
LINE
  8
0
 10
9.023
 11
9.193
 20
129.348
 21
128.901
  0
LINE
  8
0
 10
9.193
 11
9.135
 20
128.901
 21
128.425
  0
LINE
  8
0
 10
9.135
 11
8.863
 20
128.425
 21
128.031
  0
LINE
  8
0
 10
8.863
 11
8.439
 20
128.031
 21
127.809
  0
LINE
  8
0
 10
8.439
 11
7.961
 20
127.809
 21
127.809
  0
LINE
  8
0
 10
7.961
 11
7.537
 20
127.809
 21
128.031
  0
LINE
  8
0
 10
7.537
 11
7.265
 20
128.031
 21
128.425
  0
LINE
  8
0
 10
7.265
 11
7.207
 20
128.425
 21
128.901
  0
LINE
  8
0
 10
7.207
 11
7.377
 20
148.921
 21
149.368
  0
LINE
  8
0
 10
7.377
 11
7.735
 20
149.368
 21
149.685
  0
LINE
  8
0
 10
7.735
 11
8.2
 20
149.685
 21
149.8
  0
LINE
  8
0
 10
8.2
 11
8.665
 20
149.8
 21
149.685
  0
LINE
  8
0
 10
8.665
 11
9.023
 20
149.685
 21
149.368
  0
LINE
  8
0
 10
9.023
 11
9.193
 20
149.368
 21
148.921
  0
LINE
  8
0
 10
9.193
 11
9.135
 20
148.921
 21
148.445
  0
LINE
  8
0
 10
9.135
 11
8.863
 20
148.445
 21
148.051
  0
LINE
  8
0
 10
8.863
 11
8.439
 20
148.051
 21
147.829
  0
LINE
  8
0
 10
8.439
 11
7.961
 20
147.829
 21
147.829
  0
LINE
  8
0
 10
7.961
 11
7.537
 20
147.829
 21
148.051
  0
LINE
  8
0
 10
7.537
 11
7.265
 20
148.051
 21
148.445
  0
LINE
  8
0
 10
7.265
 11
7.207
 20
148.445
 21
148.921
  0
LINE
  8
0
 10
25.1
 11
25.215
 20
8.2
 21
8.665
  0
LINE
  8
0
 10
25.215
 11
25.532
 20
8.665
 21
9.023
  0
LINE
  8
0
 10
25.532
 11
25.979
 20
9.023
 21
9.193
  0
LINE
  8
0
 10
25.979
 11
26.455
 20
9.193
 21
9.135
  0
LINE
  8
0
 10
26.455
 11
26.849
 20
9.135
 21
8.863
  0
LINE
  8
0
 10
26.849
 11
27.071
 20
8.863
 21
8.439
  0
LINE
  8
0
 10
27.071
 11
27.071
 20
8.439
 21
7.961
  0
LINE
  8
0
 10
27.071
 11
26.849
 20
7.961
 21
7.537
  0
LINE
  8
0
 10
26.849
 11
26.455
 20
7.537
 21
7.265
  0
LINE
  8
0
 10
26.455
 11
25.979
 20
7.265
 21
7.207
  0
LINE
  8
0
 10
25.979
 11
25.532
 20
7.207
 21
7.377
  0
LINE
  8
0
 10
25.532
 11
25.215
 20
7.377
 21
7.735
  0
LINE
  8
0
 10
25.215
 11
25.1
 20
7.735
 21
8.2
  0
LINE
  8
0
 10
45.12
 11
45.235
 20
8.2
 21
8.665
  0
LINE
  8
0
 10
45.235
 11
45.552
 20
8.665
 21
9.023
  0
LINE
  8
0
 10
45.552
 11
45.999
 20
9.023
 21
9.193
  0
LINE
  8
0
 10
45.999
 11
46.475
 20
9.193
 21
9.135
  0
LINE
  8
0
 10
46.475
 11
46.869
 20
9.135
 21
8.863
  0
LINE
  8
0
 10
46.869
 11
47.091
 20
8.863
 21
8.439
  0
LINE
  8
0
 10
47.091
 11
47.091
 20
8.439
 21
7.961
  0
LINE
  8
0
 10
47.091
 11
46.869
 20
7.961
 21
7.537
  0
LINE
  8
0
 10
46.869
 11
46.475
 20
7.537
 21
7.265
  0
LINE
  8
0
 10
46.475
 11
45.999
 20
7.265
 21
7.207
  0
LINE
  8
0
 10
45.999
 11
45.552
 20
7.207
 21
7.377
  0
LINE
  8
0
 10
45.552
 11
45.235
 20
7.377
 21
7.735
  0
LINE
  8
0
 10
45.235
 11
45.12
 20
7.735
 21
8.2
  0
LINE
  8
0
 10
51.05
 11
51.105
 20
22.65
 21
23.14
  0
LINE
  8
0
 10
51.105
 11
51.268
 20
23.14
 21
23.605
  0
LINE
  8
0
 10
51.268
 11
51.53
 20
23.605
 21
24.022
  0
LINE
  8
0
 10
51.53
 11
51.878
 20
24.022
 21
24.37
  0
LINE
  8
0
 10
51.878
 11
52.295
 20
24.37
 21
24.632
  0
LINE
  8
0
 10
52.295
 11
52.76
 20
24.632
 21
24.795
  0
LINE
  8
0
 10
52.76
 11
53.25
 20
24.795
 21
24.85
  0
LINE
  8
0
 10
53.25
 11
53.74
 20
24.85
 21
24.795
  0
LINE
  8
0
 10
53.74
 11
54.205
 20
24.795
 21
24.632
  0
LINE
  8
0
 10
54.205
 11
54.622
 20
24.632
 21
24.37
  0
LINE
  8
0
 10
54.622
 11
54.97
 20
24.37
 21
24.022
  0
LINE
  8
0
 10
54.97
 11
55.232
 20
24.022
 21
23.605
  0
LINE
  8
0
 10
55.232
 11
55.395
 20
23.605
 21
23.14
  0
LINE
  8
0
 10
55.395
 11
55.45
 20
23.14
 21
22.65
  0
LINE
  8
0
 10
55.45
 11
55.395
 20
22.65
 21
22.16
  0
LINE
  8
0
 10
55.395
 11
55.232
 20
22.16
 21
21.695
  0
LINE
  8
0
 10
55.232
 11
54.97
 20
21.695
 21
21.278
  0
LINE
  8
0
 10
54.97
 11
54.622
 20
21.278
 21
20.93
  0
LINE
  8
0
 10
54.622
 11
54.205
 20
20.93
 21
20.668
  0
LINE
  8
0
 10
54.205
 11
53.74
 20
20.668
 21
20.505
  0
LINE
  8
0
 10
53.74
 11
53.25
 20
20.505
 21
20.45
  0
LINE
  8
0
 10
53.25
 11
52.76
 20
20.45
 21
20.505
  0
LINE
  8
0
 10
52.76
 11
52.295
 20
20.505
 21
20.668
  0
LINE
  8
0
 10
52.295
 11
51.878
 20
20.668
 21
20.93
  0
LINE
  8
0
 10
51.878
 11
51.53
 20
20.93
 21
21.278
  0
LINE
  8
0
 10
51.53
 11
51.268
 20
21.278
 21
21.695
  0
LINE
  8
0
 10
51.268
 11
51.105
 20
21.695
 21
22.16
  0
LINE
  8
0
 10
51.105
 11
51.05
 20
22.16
 21
22.65
  0
LINE
  8
0
 10
51.05
 11
51.105
 20
94.15
 21
94.64
  0
LINE
  8
0
 10
51.105
 11
51.268
 20
94.64
 21
95.105
  0
LINE
  8
0
 10
51.268
 11
51.53
 20
95.105
 21
95.522
  0
LINE
  8
0
 10
51.53
 11
51.878
 20
95.522
 21
95.87
  0
LINE
  8
0
 10
51.878
 11
52.295
 20
95.87
 21
96.132
  0
LINE
  8
0
 10
52.295
 11
52.76
 20
96.132
 21
96.295
  0
LINE
  8
0
 10
52.76
 11
53.25
 20
96.295
 21
96.35
  0
LINE
  8
0
 10
53.25
 11
53.74
 20
96.35
 21
96.295
  0
LINE
  8
0
 10
53.74
 11
54.205
 20
96.295
 21
96.132
  0
LINE
  8
0
 10
54.205
 11
54.622
 20
96.132
 21
95.87
  0
LINE
  8
0
 10
54.622
 11
54.97
 20
95.87
 21
95.522
  0
LINE
  8
0
 10
54.97
 11
55.232
 20
95.522
 21
95.105
  0
LINE
  8
0
 10
55.232
 11
55.395
 20
95.105
 21
94.64
  0
LINE
  8
0
 10
55.395
 11
55.45
 20
94.64
 21
94.15
  0
LINE
  8
0
 10
55.45
 11
55.395
 20
94.15
 21
93.66
  0
LINE
  8
0
 10
55.395
 11
55.232
 20
93.66
 21
93.195
  0
LINE
  8
0
 10
55.232
 11
54.97
 20
93.195
 21
92.778
  0
LINE
  8
0
 10
54.97
 11
54.622
 20
92.778
 21
92.43
  0
LINE
  8
0
 10
54.622
 11
54.205
 20
92.43
 21
92.168
  0
LINE
  8
0
 10
54.205
 11
53.74
 20
92.168
 21
92.005
  0
LINE
  8
0
 10
53.74
 11
53.25
 20
92.005
 21
91.95
  0
LINE
  8
0
 10
53.25
 11
52.76
 20
91.95
 21
92.005
  0
LINE
  8
0
 10
52.76
 11
52.295
 20
92.005
 21
92.168
  0
LINE
  8
0
 10
52.295
 11
51.878
 20
92.168
 21
92.43
  0
LINE
  8
0
 10
51.878
 11
51.53
 20
92.43
 21
92.778
  0
LINE
  8
0
 10
51.53
 11
51.268
 20
92.778
 21
93.195
  0
LINE
  8
0
 10
51.268
 11
51.105
 20
93.195
 21
93.66
  0
LINE
  8
0
 10
51.105
 11
51.05
 20
93.66
 21
94.15
  0
LINE
  8
0
 10
51.5
 11
51.643
 20
58.4
 21
61.668
  0
LINE
  8
0
 10
51.643
 11
52.07
 20
61.668
 21
64.912
  0
LINE
  8
0
 10
52.07
 11
52.778
 20
64.912
 21
68.106
  0
LINE
  8
0
 10
52.778
 11
53.762
 20
68.106
 21
71.226
  0
LINE
  8
0
 10
53.762
 11
55.013
 20
71.226
 21
74.248
  0
LINE
  8
0
 10
55.013
 11
56.524
 20
74.248
 21
77.15
  0
LINE
  8
0
 10
56.524
 11
58.282
 20
77.15
 21
79.909
  0
LINE
  8
0
 10
58.282
 11
60.273
 20
79.909
 21
82.505
  0
LINE
  8
0
 10
60.273
 11
62.483
 20
82.505
 21
84.917
  0
LINE
  8
0
 10
62.483
 11
64.895
 20
84.917
 21
87.127
  0
LINE
  8
0
 10
64.895
 11
67.491
 20
87.127
 21
89.118
  0
LINE
  8
0
 10
67.491
 11
70.25
 20
89.118
 21
90.876
  0
LINE
  8
0
 10
70.25
 11
73.152
 20
90.876
 21
92.387
  0
LINE
  8
0
 10
73.152
 11
76.174
 20
92.387
 21
93.638
  0
LINE
  8
0
 10
76.174
 11
79.294
 20
93.638
 21
94.622
  0
LINE
  8
0
 10
79.294
 11
82.488
 20
94.622
 21
95.33
  0
LINE
  8
0
 10
82.488
 11
85.732
 20
95.33
 21
95.757
  0
LINE
  8
0
 10
85.732
 11
89
 20
95.757
 21
95.9
  0
LINE
  8
0
 10
89
 11
92.268
 20
95.9
 21
95.757
  0
LINE
  8
0
 10
92.268
 11
95.512
 20
95.757
 21
95.33
  0
LINE
  8
0
 10
95.512
 11
98.706
 20
95.33
 21
94.622
  0
LINE
  8
0
 10
98.706
 11
101.826
 20
94.622
 21
93.638
  0
LINE
  8
0
 10
101.826
 11
104.848
 20
93.638
 21
92.387
  0
LINE
  8
0
 10
104.848
 11
107.75
 20
92.387
 21
90.876
  0
LINE
  8
0
 10
107.75
 11
110.509
 20
90.876
 21
89.118
  0
LINE
  8
0
 10
110.509
 11
113.105
 20
89.118
 21
87.127
  0
LINE
  8
0
 10
113.105
 11
115.517
 20
87.127
 21
84.917
  0
LINE
  8
0
 10
115.517
 11
117.727
 20
84.917
 21
82.505
  0
LINE
  8
0
 10
117.727
 11
119.718
 20
82.505
 21
79.909
  0
LINE
  8
0
 10
119.718
 11
121.476
 20
79.909
 21
77.15
  0
LINE
  8
0
 10
121.476
 11
122.987
 20
77.15
 21
74.248
  0
LINE
  8
0
 10
122.987
 11
124.238
 20
74.248
 21
71.226
  0
LINE
  8
0
 10
124.238
 11
125.222
 20
71.226
 21
68.106
  0
LINE
  8
0
 10
125.222
 11
125.93
 20
68.106
 21
64.912
  0
LINE
  8
0
 10
125.93
 11
126.357
 20
64.912
 21
61.668
  0
LINE
  8
0
 10
126.357
 11
126.5
 20
61.668
 21
58.4
  0
LINE
  8
0
 10
126.5
 11
126.357
 20
58.4
 21
55.132
  0
LINE
  8
0
 10
126.357
 11
125.93
 20
55.132
 21
51.888
  0
LINE
  8
0
 10
125.93
 11
125.222
 20
51.888
 21
48.694
  0
LINE
  8
0
 10
125.222
 11
124.238
 20
48.694
 21
45.574
  0
LINE
  8
0
 10
124.238
 11
122.987
 20
45.574
 21
42.552
  0
LINE
  8
0
 10
122.987
 11
121.476
 20
42.552
 21
39.65
  0
LINE
  8
0
 10
121.476
 11
119.718
 20
39.65
 21
36.891
  0
LINE
  8
0
 10
119.718
 11
117.727
 20
36.891
 21
34.295
  0
LINE
  8
0
 10
117.727
 11
115.517
 20
34.295
 21
31.883
  0
LINE
  8
0
 10
115.517
 11
113.105
 20
31.883
 21
29.673
  0
LINE
  8
0
 10
113.105
 11
110.509
 20
29.673
 21
27.682
  0
LINE
  8
0
 10
110.509
 11
107.75
 20
27.682
 21
25.924
  0
LINE
  8
0
 10
107.75
 11
104.848
 20
25.924
 21
24.413
  0
LINE
  8
0
 10
104.848
 11
101.826
 20
24.413
 21
23.162
  0
LINE
  8
0
 10
101.826
 11
98.706
 20
23.162
 21
22.178
  0
LINE
  8
0
 10
98.706
 11
95.512
 20
22.178
 21
21.47
  0
LINE
  8
0
 10
95.512
 11
92.268
 20
21.47
 21
21.043
  0
LINE
  8
0
 10
92.268
 11
89
 20
21.043
 21
20.9
  0
LINE
  8
0
 10
89
 11
85.732
 20
20.9
 21
21.043
  0
LINE
  8
0
 10
85.732
 11
82.488
 20
21.043
 21
21.47
  0
LINE
  8
0
 10
82.488
 11
79.294
 20
21.47
 21
22.178
  0
LINE
  8
0
 10
79.294
 11
76.174
 20
22.178
 21
23.162
  0
LINE
  8
0
 10
76.174
 11
73.152
 20
23.162
 21
24.413
  0
LINE
  8
0
 10
73.152
 11
70.25
 20
24.413
 21
25.924
  0
LINE
  8
0
 10
70.25
 11
67.491
 20
25.924
 21
27.682
  0
LINE
  8
0
 10
67.491
 11
64.895
 20
27.682
 21
29.673
  0
LINE
  8
0
 10
64.895
 11
62.483
 20
29.673
 21
31.883
  0
LINE
  8
0
 10
62.483
 11
60.273
 20
31.883
 21
34.295
  0
LINE
  8
0
 10
60.273
 11
58.282
 20
34.295
 21
36.891
  0
LINE
  8
0
 10
58.282
 11
56.524
 20
36.891
 21
39.65
  0
LINE
  8
0
 10
56.524
 11
55.013
 20
39.65
 21
42.552
  0
LINE
  8
0
 10
55.013
 11
53.762
 20
42.552
 21
45.574
  0
LINE
  8
0
 10
53.762
 11
52.778
 20
45.574
 21
48.694
  0
LINE
  8
0
 10
52.778
 11
52.07
 20
48.694
 21
51.888
  0
LINE
  8
0
 10
52.07
 11
51.643
 20
51.888
 21
55.132
  0
LINE
  8
0
 10
51.643
 11
51.5
 20
55.132
 21
58.4
  0
LINE
  8
0
 10
122.55
 11
122.605
 20
22.65
 21
23.14
  0
LINE
  8
0
 10
122.605
 11
122.768
 20
23.14
 21
23.605
  0
LINE
  8
0
 10
122.768
 11
123.03
 20
23.605
 21
24.022
  0
LINE
  8
0
 10
123.03
 11
123.378
 20
24.022
 21
24.37
  0
LINE
  8
0
 10
123.378
 11
123.795
 20
24.37
 21
24.632
  0
LINE
  8
0
 10
123.795
 11
124.26
 20
24.632
 21
24.795
  0
LINE
  8
0
 10
124.26
 11
124.75
 20
24.795
 21
24.85
  0
LINE
  8
0
 10
124.75
 11
125.24
 20
24.85
 21
24.795
  0
LINE
  8
0
 10
125.24
 11
125.705
 20
24.795
 21
24.632
  0
LINE
  8
0
 10
125.705
 11
126.122
 20
24.632
 21
24.37
  0
LINE
  8
0
 10
126.122
 11
126.47
 20
24.37
 21
24.022
  0
LINE
  8
0
 10
126.47
 11
126.732
 20
24.022
 21
23.605
  0
LINE
  8
0
 10
126.732
 11
126.895
 20
23.605
 21
23.14
  0
LINE
  8
0
 10
126.895
 11
126.95
 20
23.14
 21
22.65
  0
LINE
  8
0
 10
126.95
 11
126.895
 20
22.65
 21
22.16
  0
LINE
  8
0
 10
126.895
 11
126.732
 20
22.16
 21
21.695
  0
LINE
  8
0
 10
126.732
 11
126.47
 20
21.695
 21
21.278
  0
LINE
  8
0
 10
126.47
 11
126.122
 20
21.278
 21
20.93
  0
LINE
  8
0
 10
126.122
 11
125.705
 20
20.93
 21
20.668
  0
LINE
  8
0
 10
125.705
 11
125.24
 20
20.668
 21
20.505
  0
LINE
  8
0
 10
125.24
 11
124.75
 20
20.505
 21
20.45
  0
LINE
  8
0
 10
124.75
 11
124.26
 20
20.45
 21
20.505
  0
LINE
  8
0
 10
124.26
 11
123.795
 20
20.505
 21
20.668
  0
LINE
  8
0
 10
123.795
 11
123.378
 20
20.668
 21
20.93
  0
LINE
  8
0
 10
123.378
 11
123.03
 20
20.93
 21
21.278
  0
LINE
  8
0
 10
123.03
 11
122.768
 20
21.278
 21
21.695
  0
LINE
  8
0
 10
122.768
 11
122.605
 20
21.695
 21
22.16
  0
LINE
  8
0
 10
122.605
 11
122.55
 20
22.16
 21
22.65
  0
LINE
  8
0
 10
122.55
 11
122.605
 20
94.15
 21
94.64
  0
LINE
  8
0
 10
122.605
 11
122.768
 20
94.64
 21
95.105
  0
LINE
  8
0
 10
122.768
 11
123.03
 20
95.105
 21
95.522
  0
LINE
  8
0
 10
123.03
 11
123.378
 20
95.522
 21
95.87
  0
LINE
  8
0
 10
123.378
 11
123.795
 20
95.87
 21
96.132
  0
LINE
  8
0
 10
123.795
 11
124.26
 20
96.132
 21
96.295
  0
LINE
  8
0
 10
124.26
 11
124.75
 20
96.295
 21
96.35
  0
LINE
  8
0
 10
124.75
 11
125.24
 20
96.35
 21
96.295
  0
LINE
  8
0
 10
125.24
 11
125.705
 20
96.295
 21
96.132
  0
LINE
  8
0
 10
125.705
 11
126.122
 20
96.132
 21
95.87
  0
LINE
  8
0
 10
126.122
 11
126.47
 20
95.87
 21
95.522
  0
LINE
  8
0
 10
126.47
 11
126.732
 20
95.522
 21
95.105
  0
LINE
  8
0
 10
126.732
 11
126.895
 20
95.105
 21
94.64
  0
LINE
  8
0
 10
126.895
 11
126.95
 20
94.64
 21
94.15
  0
LINE
  8
0
 10
126.95
 11
126.895
 20
94.15
 21
93.66
  0
LINE
  8
0
 10
126.895
 11
126.732
 20
93.66
 21
93.195
  0
LINE
  8
0
 10
126.732
 11
126.47
 20
93.195
 21
92.778
  0
LINE
  8
0
 10
126.47
 11
126.122
 20
92.778
 21
92.43
  0
LINE
  8
0
 10
126.122
 11
125.705
 20
92.43
 21
92.168
  0
LINE
  8
0
 10
125.705
 11
125.24
 20
92.168
 21
92.005
  0
LINE
  8
0
 10
125.24
 11
124.75
 20
92.005
 21
91.95
  0
LINE
  8
0
 10
124.75
 11
124.26
 20
91.95
 21
92.005
  0
LINE
  8
0
 10
124.26
 11
123.795
 20
92.005
 21
92.168
  0
LINE
  8
0
 10
123.795
 11
123.378
 20
92.168
 21
92.43
  0
LINE
  8
0
 10
123.378
 11
123.03
 20
92.43
 21
92.778
  0
LINE
  8
0
 10
123.03
 11
122.768
 20
92.778
 21
93.195
  0
LINE
  8
0
 10
122.768
 11
122.605
 20
93.195
 21
93.66
  0
LINE
  8
0
 10
122.605
 11
122.55
 20
93.66
 21
94.15
  0
LINE
  8
0
 10
285.512
 11
285.626
 20
88.9
 21
89.365
  0
LINE
  8
0
 10
285.626
 11
285.944
 20
89.365
 21
89.723
  0
LINE
  8
0
 10
285.944
 11
286.391
 20
89.723
 21
89.893
  0
LINE
  8
0
 10
286.391
 11
286.866
 20
89.893
 21
89.835
  0
LINE
  8
0
 10
286.866
 11
287.26
 20
89.835
 21
89.563
  0
LINE
  8
0
 10
287.26
 11
287.483
 20
89.563
 21
89.139
  0
LINE
  8
0
 10
287.483
 11
287.483
 20
89.139
 21
88.661
  0
LINE
  8
0
 10
287.483
 11
287.26
 20
88.661
 21
88.237
  0
LINE
  8
0
 10
287.26
 11
286.866
 20
88.237
 21
87.965
  0
LINE
  8
0
 10
286.866
 11
286.391
 20
87.965
 21
87.907
  0
LINE
  8
0
 10
286.391
 11
285.944
 20
87.907
 21
88.077
  0
LINE
  8
0
 10
285.944
 11
285.626
 20
88.077
 21
88.435
  0
LINE
  8
0
 10
285.626
 11
285.512
 20
88.435
 21
88.9
  0
LINE
  8
0
 10
317.28
 11
317.321
 20
8
 21
8.494
  0
LINE
  8
0
 10
317.321
 11
317.443
 20
8.494
 21
8.974
  0
LINE
  8
0
 10
317.443
 11
317.642
 20
8.974
 21
9.428
  0
LINE
  8
0
 10
317.642
 11
317.913
 20
9.428
 21
9.843
  0
LINE
  8
0
 10
317.913
 11
318.248
 20
9.843
 21
10.207
  0
LINE
  8
0
 10
318.248
 11
318.639
 20
10.207
 21
10.511
  0
LINE
  8
0
 10
318.639
 11
319.075
 20
10.511
 21
10.747
  0
LINE
  8
0
 10
319.075
 11
319.544
 20
10.747
 21
10.908
  0
LINE
  8
0
 10
319.544
 11
320.032
 20
10.908
 21
10.99
  0
LINE
  8
0
 10
320.032
 11
320.528
 20
10.99
 21
10.99
  0
LINE
  8
0
 10
320.528
 11
321.016
 20
10.99
 21
10.908
  0
LINE
  8
0
 10
321.016
 11
321.485
 20
10.908
 21
10.747
  0
LINE
  8
0
 10
321.485
 11
321.921
 20
10.747
 21
10.511
  0
LINE
  8
0
 10
321.921
 11
322.312
 20
10.511
 21
10.207
  0
LINE
  8
0
 10
322.312
 11
322.647
 20
10.207
 21
9.843
  0
LINE
  8
0
 10
322.647
 11
322.918
 20
9.843
 21
9.428
  0
LINE
  8
0
 10
322.918
 11
323.117
 20
9.428
 21
8.974
  0
LINE
  8
0
 10
323.117
 11
323.239
 20
8.974
 21
8.494
  0
LINE
  8
0
 10
323.239
 11
323.28
 20
8.494
 21
8
  0
LINE
  8
0
 10
323.28
 11
323.239
 20
8
 21
7.506
  0
LINE
  8
0
 10
323.239
 11
323.117
 20
7.506
 21
7.026
  0
LINE
  8
0
 10
323.117
 11
322.918
 20
7.026
 21
6.572
  0
LINE
  8
0
 10
322.918
 11
322.647
 20
6.572
 21
6.157
  0
LINE
  8
0
 10
322.647
 11
322.312
 20
6.157
 21
5.793
  0
LINE
  8
0
 10
322.312
 11
321.921
 20
5.793
 21
5.489
  0
LINE
  8
0
 10
321.921
 11
321.485
 20
5.489
 21
5.253
  0
LINE
  8
0
 10
321.485
 11
321.016
 20
5.253
 21
5.092
  0
LINE
  8
0
 10
321.016
 11
320.528
 20
5.092
 21
5.01
  0
LINE
  8
0
 10
320.528
 11
320.032
 20
5.01
 21
5.01
  0
LINE
  8
0
 10
320.032
 11
319.544
 20
5.01
 21
5.092
  0
LINE
  8
0
 10
319.544
 11
319.075
 20
5.092
 21
5.253
  0
LINE
  8
0
 10
319.075
 11
318.639
 20
5.253
 21
5.489
  0
LINE
  8
0
 10
318.639
 11
318.248
 20
5.489
 21
5.793
  0
LINE
  8
0
 10
318.248
 11
317.913
 20
5.793
 21
6.157
  0
LINE
  8
0
 10
317.913
 11
317.642
 20
6.157
 21
6.572
  0
LINE
  8
0
 10
317.642
 11
317.443
 20
6.572
 21
7.026
  0
LINE
  8
0
 10
317.443
 11
317.321
 20
7.026
 21
7.506
  0
LINE
  8
0
 10
317.321
 11
317.28
 20
7.506
 21
8
  0
LINE
  8
0
 10
329.78
 11
329.838
 20
7
 21
7.479
  0
LINE
  8
0
 10
329.838
 11
330.009
 20
7.479
 21
7.929
  0
LINE
  8
0
 10
330.009
 11
330.283
 20
7.929
 21
8.326
  0
LINE
  8
0
 10
330.283
 11
330.644
 20
8.326
 21
8.646
  0
LINE
  8
0
 10
330.644
 11
331.071
 20
8.646
 21
8.87
  0
LINE
  8
0
 10
331.071
 11
331.539
 20
8.87
 21
8.985
  0
LINE
  8
0
 10
331.539
 11
332.021
 20
8.985
 21
8.985
  0
LINE
  8
0
 10
332.021
 11
332.489
 20
8.985
 21
8.87
  0
LINE
  8
0
 10
332.489
 11
332.916
 20
8.87
 21
8.646
  0
LINE
  8
0
 10
332.916
 11
333.277
 20
8.646
 21
8.326
  0
LINE
  8
0
 10
333.277
 11
333.551
 20
8.326
 21
7.929
  0
LINE
  8
0
 10
333.551
 11
333.722
 20
7.929
 21
7.479
  0
LINE
  8
0
 10
333.722
 11
333.78
 20
7.479
 21
7
  0
LINE
  8
0
 10
333.78
 11
333.722
 20
7
 21
6.521
  0
LINE
  8
0
 10
333.722
 11
333.551
 20
6.521
 21
6.071
  0
LINE
  8
0
 10
333.551
 11
333.277
 20
6.071
 21
5.674
  0
LINE
  8
0
 10
333.277
 11
332.916
 20
5.674
 21
5.354
  0
LINE
  8
0
 10
332.916
 11
332.489
 20
5.354
 21
5.13
  0
LINE
  8
0
 10
332.489
 11
332.021
 20
5.13
 21
5.015
  0
LINE
  8
0
 10
332.021
 11
331.539
 20
5.015
 21
5.015
  0
LINE
  8
0
 10
331.539
 11
331.071
 20
5.015
 21
5.13
  0
LINE
  8
0
 10
331.071
 11
330.644
 20
5.13
 21
5.354
  0
LINE
  8
0
 10
330.644
 11
330.283
 20
5.354
 21
5.674
  0
LINE
  8
0
 10
330.283
 11
330.009
 20
5.674
 21
6.071
  0
LINE
  8
0
 10
330.009
 11
329.838
 20
6.071
 21
6.521
  0
LINE
  8
0
 10
329.838
 11
329.78
 20
6.521
 21
7
  0
LINE
  8
0
 10
343.88
 11
343.995
 20
8.2
 21
8.665
  0
LINE
  8
0
 10
343.995
 11
344.312
 20
8.665
 21
9.023
  0
LINE
  8
0
 10
344.312
 11
344.759
 20
9.023
 21
9.193
  0
LINE
  8
0
 10
344.759
 11
345.235
 20
9.193
 21
9.135
  0
LINE
  8
0
 10
345.235
 11
345.629
 20
9.135
 21
8.863
  0
LINE
  8
0
 10
345.629
 11
345.851
 20
8.863
 21
8.439
  0
LINE
  8
0
 10
345.851
 11
345.851
 20
8.439
 21
7.961
  0
LINE
  8
0
 10
345.851
 11
345.629
 20
7.961
 21
7.537
  0
LINE
  8
0
 10
345.629
 11
345.235
 20
7.537
 21
7.265
  0
LINE
  8
0
 10
345.235
 11
344.759
 20
7.265
 21
7.207
  0
LINE
  8
0
 10
344.759
 11
344.312
 20
7.207
 21
7.377
  0
LINE
  8
0
 10
344.312
 11
343.995
 20
7.377
 21
7.735
  0
LINE
  8
0
 10
343.995
 11
343.88
 20
7.735
 21
8.2
  0
LINE
  8
0
 10
363.9
 11
364.015
 20
8.2
 21
8.665
  0
LINE
  8
0
 10
364.015
 11
364.332
 20
8.665
 21
9.023
  0
LINE
  8
0
 10
364.332
 11
364.779
 20
9.023
 21
9.193
  0
LINE
  8
0
 10
364.779
 11
365.255
 20
9.193
 21
9.135
  0
LINE
  8
0
 10
365.255
 11
365.649
 20
9.135
 21
8.863
  0
LINE
  8
0
 10
365.649
 11
365.871
 20
8.863
 21
8.439
  0
LINE
  8
0
 10
365.871
 11
365.871
 20
8.439
 21
7.961
  0
LINE
  8
0
 10
365.871
 11
365.649
 20
7.961
 21
7.537
  0
LINE
  8
0
 10
365.649
 11
365.255
 20
7.537
 21
7.265
  0
LINE
  8
0
 10
365.255
 11
364.779
 20
7.265
 21
7.207
  0
LINE
  8
0
 10
364.779
 11
364.332
 20
7.207
 21
7.377
  0
LINE
  8
0
 10
364.332
 11
364.015
 20
7.377
 21
7.735
  0
LINE
  8
0
 10
364.015
 11
363.9
 20
7.735
 21
8.2
  0
ENDSEC
  0
SECTION
  2
OBJECTS
  0
DICTIONARY
  0
ENDSEC
  0
EOF
