<?xml version="1.0"?>
<svg xmlns="http://www.w3.org/2000/svg" version="1.1" height="331mm" width="399mm" >
 <g style="fill-opacity:1.0; stroke:black; stroke-width:1;">
  <line x1="389.000000mm" y1="321.000000mm" x2="389.000000mm" y2="321.000000mm" />
  <line x1="389.000000mm" y1="321.000000mm" x2="0.000000mm" y2="321.000000mm" />
  <line x1="0.000000mm" y1="321.000000mm" x2="0.000000mm" y2="162.500000mm" />
  <line x1="0.000000mm" y1="162.500000mm" x2="389.000000mm" y2="162.500000mm" />
  <line x1="389.000000mm" y1="162.500000mm" x2="389.000000mm" y2="321.000000mm" />
  <line x1="389.000000mm" y1="158.500000mm" x2="389.000000mm" y2="158.500000mm" />
  <line x1="389.000000mm" y1="158.500000mm" x2="0.000000mm" y2="158.500000mm" />
  <line x1="0.000000mm" y1="158.500000mm" x2="0.000000mm" y2="0.000000mm" />
  <line x1="0.000000mm" y1="0.000000mm" x2="389.000000mm" y2="0.000000mm" />
  <line x1="389.000000mm" y1="0.000000mm" x2="389.000000mm" y2="158.500000mm" />
  <circle cx="8.500151mm" cy="256.599567mm" r="3.499825mm" fill="none"/>
  <line x1="15.499802mm" y1="256.599567mm" x2="1.500500mm" y2="256.599567mm" />
  <line x1="8.500151mm" y1="249.599917mm" x2="8.500151mm" y2="263.599218mm" />
  <text x="11mm" y="253mm" font-size="24">
   7.0
  </text>
  <circle cx="7.500170mm" cy="181.399939mm" r="2.500268mm" fill="none"/>
  <line x1="12.500707mm" y1="181.399939mm" x2="2.499633mm" y2="181.399939mm" />
  <line x1="7.500170mm" y1="176.399402mm" x2="7.500170mm" y2="186.400476mm" />
  <text x="10mm" y="178mm" font-size="24">
   5.0
  </text>
  <circle cx="7.000009mm" cy="244.399777mm" r="1.999983mm" fill="none"/>
  <line x1="10.999974mm" y1="244.399777mm" x2="3.000044mm" y2="244.399777mm" />
  <line x1="7.000009mm" y1="240.399812mm" x2="7.000009mm" y2="248.399742mm" />
  <text x="8mm" y="242mm" font-size="24">
   4.0
  </text>
  <circle cx="7.000009mm" cy="190.899777mm" r="1.999983mm" fill="none"/>
  <line x1="10.999974mm" y1="190.899777mm" x2="3.000044mm" y2="190.899777mm" />
  <line x1="7.000009mm" y1="186.899812mm" x2="7.000009mm" y2="194.899742mm" />
  <text x="8mm" y="188mm" font-size="24">
   4.0
  </text>
  <circle cx="8.200066mm" cy="311.300138mm" r="1.000138mm" fill="none"/>
  <line x1="10.200342mm" y1="311.300138mm" x2="6.199790mm" y2="311.300138mm" />
  <line x1="8.200066mm" y1="309.299862mm" x2="8.200066mm" y2="313.300414mm" />
  <text x="9mm" y="310mm" font-size="24">
   2.0
  </text>
  <circle cx="8.200066mm" cy="290.080138mm" r="1.000138mm" fill="none"/>
  <line x1="10.200342mm" y1="290.080138mm" x2="6.199790mm" y2="290.080138mm" />
  <line x1="8.200066mm" y1="288.079862mm" x2="8.200066mm" y2="292.080414mm" />
  <text x="9mm" y="289mm" font-size="24">
   2.0
  </text>
  <circle cx="8.200066mm" cy="30.920138mm" r="1.000138mm" fill="none"/>
  <line x1="10.200342mm" y1="30.920138mm" x2="6.199790mm" y2="30.920138mm" />
  <line x1="8.200066mm" y1="28.919862mm" x2="8.200066mm" y2="32.920414mm" />
  <text x="9mm" y="29mm" font-size="24">
   2.0
  </text>
  <circle cx="8.200066mm" cy="9.700138mm" r="1.000138mm" fill="none"/>
  <line x1="10.200342mm" y1="9.700138mm" x2="6.199790mm" y2="9.700138mm" />
  <line x1="8.200066mm" y1="7.699862mm" x2="8.200066mm" y2="11.700414mm" />
  <text x="9mm" y="8mm" font-size="24">
   2.0
  </text>
  <circle cx="26.100371mm" cy="150.299769mm" r="1.000161mm" fill="none"/>
  <line x1="28.100692mm" y1="150.299769mm" x2="24.100050mm" y2="150.299769mm" />
  <line x1="26.100371mm" y1="148.299448mm" x2="26.100371mm" y2="152.300090mm" />
  <text x="27mm" y="149mm" font-size="24">
   2.0
  </text>
  <circle cx="26.099659mm" cy="170.700016mm" r="1.000019mm" fill="none"/>
  <line x1="28.099698mm" y1="170.700016mm" x2="24.099621mm" y2="170.700016mm" />
  <line x1="26.099659mm" y1="168.699978mm" x2="26.099659mm" y2="172.700054mm" />
  <text x="27mm" y="169mm" font-size="24">
   2.0
  </text>
  <circle cx="32.899659mm" cy="314.000016mm" r="1.000019mm" fill="none"/>
  <line x1="34.899698mm" y1="314.000016mm" x2="30.899621mm" y2="314.000016mm" />
  <line x1="32.899659mm" y1="311.999978mm" x2="32.899659mm" y2="316.000054mm" />
  <text x="33mm" y="312mm" font-size="24">
   2.0
  </text>
  <circle cx="47.320371mm" cy="150.299769mm" r="1.000161mm" fill="none"/>
  <line x1="49.320692mm" y1="150.299769mm" x2="45.320050mm" y2="150.299769mm" />
  <line x1="47.320371mm" y1="148.299448mm" x2="47.320371mm" y2="152.300090mm" />
  <text x="48mm" y="149mm" font-size="24">
   2.0
  </text>
  <circle cx="47.319659mm" cy="170.700016mm" r="1.000019mm" fill="none"/>
  <line x1="49.319698mm" y1="170.700016mm" x2="45.319621mm" y2="170.700016mm" />
  <line x1="47.319659mm" y1="168.699978mm" x2="47.319659mm" y2="172.700054mm" />
  <text x="48mm" y="169mm" font-size="24">
   2.0
  </text>
  <circle cx="53.249964mm" cy="135.849964mm" r="2.200229mm" fill="none"/>
  <line x1="57.650421mm" y1="135.849964mm" x2="48.849507mm" y2="135.849964mm" />
  <line x1="53.249964mm" y1="131.449507mm" x2="53.249964mm" y2="140.250421mm" />
  <text x="55mm" y="133mm" font-size="24">
   4.4
  </text>
  <circle cx="53.249964mm" cy="64.349964mm" r="2.200229mm" fill="none"/>
  <line x1="57.650421mm" y1="64.349964mm" x2="48.849507mm" y2="64.349964mm" />
  <line x1="53.249964mm" y1="59.949507mm" x2="53.249964mm" y2="68.750421mm" />
  <text x="55mm" y="62mm" font-size="24">
   4.4
  </text>
  <circle cx="89.000225mm" cy="100.099651mm" r="37.499925mm" fill="none"/>
  <line x1="164.000075mm" y1="100.099651mm" x2="14.000375mm" y2="100.099651mm" />
  <line x1="89.000225mm" y1="25.099800mm" x2="89.000225mm" y2="175.099501mm" />
  <text x="126mm" y="62mm" font-size="24">
   75.0
  </text>
  <circle cx="124.749964mm" cy="135.849964mm" r="2.200229mm" fill="none"/>
  <line x1="129.150421mm" y1="135.849964mm" x2="120.349507mm" y2="135.849964mm" />
  <line x1="124.749964mm" y1="131.449507mm" x2="124.749964mm" y2="140.250421mm" />
  <text x="126mm" y="133mm" font-size="24">
   4.4
  </text>
  <circle cx="124.749964mm" cy="64.349964mm" r="2.200229mm" fill="none"/>
  <line x1="129.150421mm" y1="64.349964mm" x2="120.349507mm" y2="64.349964mm" />
  <line x1="124.749964mm" y1="59.949507mm" x2="124.749964mm" y2="68.750421mm" />
  <text x="126mm" y="62mm" font-size="24">
   4.4
  </text>
  <circle cx="149.899659mm" cy="314.000016mm" r="1.000019mm" fill="none"/>
  <line x1="151.899698mm" y1="314.000016mm" x2="147.899621mm" y2="314.000016mm" />
  <line x1="149.899659mm" y1="311.999978mm" x2="149.899659mm" y2="316.000054mm" />
  <text x="150mm" y="312mm" font-size="24">
   2.0
  </text>
  <circle cx="192.050194mm" cy="306.450223mm" r="0.849908mm" fill="none"/>
  <line x1="193.750009mm" y1="306.450223mm" x2="190.350378mm" y2="306.450223mm" />
  <line x1="192.050194mm" y1="304.750407mm" x2="192.050194mm" y2="308.150038mm" />
  <text x="192mm" y="305mm" font-size="24">
   1.7
  </text>
  <circle cx="192.050194mm" cy="274.950223mm" r="0.849908mm" fill="none"/>
  <line x1="193.750009mm" y1="274.950223mm" x2="190.350378mm" y2="274.950223mm" />
  <line x1="192.050194mm" y1="273.250407mm" x2="192.050194mm" y2="276.650038mm" />
  <text x="192mm" y="274mm" font-size="24">
   1.7
  </text>
  <circle cx="206.350194mm" cy="290.550223mm" r="0.849908mm" fill="none"/>
  <line x1="208.050009mm" y1="290.550223mm" x2="204.650378mm" y2="290.550223mm" />
  <line x1="206.350194mm" y1="288.850407mm" x2="206.350194mm" y2="292.250038mm" />
  <text x="207mm" y="289mm" font-size="24">
   1.7
  </text>
  <circle cx="206.350194mm" cy="259.050223mm" r="0.849908mm" fill="none"/>
  <line x1="208.050009mm" y1="259.050223mm" x2="204.650378mm" y2="259.050223mm" />
  <line x1="206.350194mm" y1="257.350407mm" x2="206.350194mm" y2="260.750038mm" />
  <text x="207mm" y="258mm" font-size="24">
   1.7
  </text>
  <circle cx="230.510087mm" cy="267.940061mm" r="1.250061mm" fill="none"/>
  <line x1="233.010208mm" y1="267.940061mm" x2="228.009966mm" y2="267.940061mm" />
  <line x1="230.510087mm" y1="265.439939mm" x2="230.510087mm" y2="270.440182mm" />
  <text x="231mm" y="266mm" font-size="24">
   2.5
  </text>
  <circle cx="230.510087mm" cy="215.560061mm" r="1.250061mm" fill="none"/>
  <line x1="233.010208mm" y1="215.560061mm" x2="228.009966mm" y2="215.560061mm" />
  <line x1="230.510087mm" y1="213.059939mm" x2="230.510087mm" y2="218.060182mm" />
  <text x="231mm" y="214mm" font-size="24">
   2.5
  </text>
  <circle cx="288.511361mm" cy="194.599847mm" r="1.000116mm" fill="none"/>
  <line x1="290.511593mm" y1="194.599847mm" x2="286.511129mm" y2="194.599847mm" />
  <line x1="288.511361mm" y1="192.599615mm" x2="288.511361mm" y2="196.600079mm" />
  <text x="289mm" y="193mm" font-size="24">
   2.0
  </text>
  <circle cx="288.511361mm" cy="69.599847mm" r="1.000116mm" fill="none"/>
  <line x1="290.511593mm" y1="69.599847mm" x2="286.511129mm" y2="69.599847mm" />
  <line x1="288.511361mm" y1="67.599615mm" x2="288.511361mm" y2="71.600079mm" />
  <text x="289mm" y="68mm" font-size="24">
   2.0
  </text>
  <circle cx="317.079808mm" cy="170.500013mm" r="2.999761mm" fill="none"/>
  <line x1="323.079330mm" y1="170.500013mm" x2="311.080285mm" y2="170.500013mm" />
  <line x1="317.079808mm" y1="164.500490mm" x2="317.079808mm" y2="176.499535mm" />
  <text x="320mm" y="167mm" font-size="24">
   6.0
  </text>
  <circle cx="317.079808mm" cy="150.500013mm" r="2.999761mm" fill="none"/>
  <line x1="323.079330mm" y1="150.500013mm" x2="311.080285mm" y2="150.500013mm" />
  <line x1="317.079808mm" y1="144.500490mm" x2="317.079808mm" y2="156.499535mm" />
  <text x="320mm" y="147mm" font-size="24">
   6.0
  </text>
  <circle cx="324.890087mm" cy="267.940061mm" r="1.250061mm" fill="none"/>
  <line x1="327.390208mm" y1="267.940061mm" x2="322.389966mm" y2="267.940061mm" />
  <line x1="324.890087mm" y1="265.439939mm" x2="324.890087mm" y2="270.440182mm" />
  <text x="326mm" y="266mm" font-size="24">
   2.5
  </text>
  <circle cx="324.890087mm" cy="215.560061mm" r="1.250061mm" fill="none"/>
  <line x1="327.390208mm" y1="215.560061mm" x2="322.389966mm" y2="215.560061mm" />
  <line x1="324.890087mm" y1="213.059939mm" x2="324.890087mm" y2="218.060182mm" />
  <text x="326mm" y="214mm" font-size="24">
   2.5
  </text>
  <circle cx="328.579818mm" cy="169.500055mm" r="2.000011mm" fill="none"/>
  <line x1="332.579840mm" y1="169.500055mm" x2="324.579795mm" y2="169.500055mm" />
  <line x1="328.579818mm" y1="165.500033mm" x2="328.579818mm" y2="173.500077mm" />
  <text x="330mm" y="167mm" font-size="24">
   4.0
  </text>
  <circle cx="328.579818mm" cy="151.500055mm" r="2.000011mm" fill="none"/>
  <line x1="332.579840mm" y1="151.500055mm" x2="324.579795mm" y2="151.500055mm" />
  <line x1="328.579818mm" y1="147.500033mm" x2="328.579818mm" y2="155.500077mm" />
  <text x="330mm" y="149mm" font-size="24">
   4.0
  </text>
  <circle cx="341.680371mm" cy="150.299769mm" r="1.000161mm" fill="none"/>
  <line x1="343.680692mm" y1="150.299769mm" x2="339.680050mm" y2="150.299769mm" />
  <line x1="341.680371mm" y1="148.299448mm" x2="341.680371mm" y2="152.300090mm" />
  <text x="342mm" y="149mm" font-size="24">
   2.0
  </text>
  <circle cx="341.679659mm" cy="170.700016mm" r="1.000019mm" fill="none"/>
  <line x1="343.679698mm" y1="170.700016mm" x2="339.679621mm" y2="170.700016mm" />
  <line x1="341.679659mm" y1="168.699978mm" x2="341.679659mm" y2="172.700054mm" />
  <text x="342mm" y="169mm" font-size="24">
   2.0
  </text>
  <circle cx="362.900371mm" cy="150.299769mm" r="1.000161mm" fill="none"/>
  <line x1="364.900692mm" y1="150.299769mm" x2="360.900050mm" y2="150.299769mm" />
  <line x1="362.900371mm" y1="148.299448mm" x2="362.900371mm" y2="152.300090mm" />
  <text x="363mm" y="149mm" font-size="24">
   2.0
  </text>
  <circle cx="362.899659mm" cy="170.700016mm" r="1.000019mm" fill="none"/>
  <line x1="364.899698mm" y1="170.700016mm" x2="360.899621mm" y2="170.700016mm" />
  <line x1="362.899659mm" y1="168.699978mm" x2="362.899659mm" y2="172.700054mm" />
  <text x="363mm" y="169mm" font-size="24">
   2.0
  </text>
 </g>
</svg>
