  0
SECTION
  2
BLOCKS
  0
ENDSEC
  0
SECTION
  2
ENTITIES
  0
LINE
  8
0
 10
0
 11
0
 20
0
 21
167
  0
LINE
  8
0
 10
0
 11
388
 20
167
 21
167
  0
LINE
  8
0
 10
388
 11
388
 20
167
 21
0
  0
LINE
  8
0
 10
388
 11
0
 20
0
 21
0
  0
LINE
  8
0
 10
6
 11
6.055
 20
137.28
 21
137.77
  0
LINE
  8
0
 10
6.055
 11
6.218
 20
137.77
 21
138.235
  0
LINE
  8
0
 10
6.218
 11
6.48
 20
138.235
 21
138.652
  0
LINE
  8
0
 10
6.48
 11
6.828
 20
138.652
 21
139
  0
LINE
  8
0
 10
6.828
 11
7.245
 20
139
 21
139.262
  0
LINE
  8
0
 10
7.245
 11
7.71
 20
139.262
 21
139.425
  0
LINE
  8
0
 10
7.71
 11
8.2
 20
139.425
 21
139.48
  0
LINE
  8
0
 10
8.2
 11
8.69
 20
139.48
 21
139.425
  0
LINE
  8
0
 10
8.69
 11
9.155
 20
139.425
 21
139.262
  0
LINE
  8
0
 10
9.155
 11
9.572
 20
139.262
 21
139
  0
LINE
  8
0
 10
9.572
 11
9.92
 20
139
 21
138.652
  0
LINE
  8
0
 10
9.92
 11
10.182
 20
138.652
 21
138.235
  0
LINE
  8
0
 10
10.182
 11
10.345
 20
138.235
 21
137.77
  0
LINE
  8
0
 10
10.345
 11
10.4
 20
137.77
 21
137.28
  0
LINE
  8
0
 10
10.4
 11
10.345
 20
137.28
 21
136.79
  0
LINE
  8
0
 10
10.345
 11
10.182
 20
136.79
 21
136.325
  0
LINE
  8
0
 10
10.182
 11
9.92
 20
136.325
 21
135.908
  0
LINE
  8
0
 10
9.92
 11
9.572
 20
135.908
 21
135.56
  0
LINE
  8
0
 10
9.572
 11
9.155
 20
135.56
 21
135.298
  0
LINE
  8
0
 10
9.155
 11
8.69
 20
135.298
 21
135.135
  0
LINE
  8
0
 10
8.69
 11
8.2
 20
135.135
 21
135.08
  0
LINE
  8
0
 10
8.2
 11
7.71
 20
135.08
 21
135.135
  0
LINE
  8
0
 10
7.71
 11
7.245
 20
135.135
 21
135.298
  0
LINE
  8
0
 10
7.245
 11
6.828
 20
135.298
 21
135.56
  0
LINE
  8
0
 10
6.828
 11
6.48
 20
135.56
 21
135.908
  0
LINE
  8
0
 10
6.48
 11
6.218
 20
135.908
 21
136.325
  0
LINE
  8
0
 10
6.218
 11
6.055
 20
136.325
 21
136.79
  0
LINE
  8
0
 10
6.055
 11
6
 20
136.79
 21
137.28
  0
LINE
  8
0
 10
6
 11
6.055
 20
157.3
 21
157.79
  0
LINE
  8
0
 10
6.055
 11
6.218
 20
157.79
 21
158.255
  0
LINE
  8
0
 10
6.218
 11
6.48
 20
158.255
 21
158.672
  0
LINE
  8
0
 10
6.48
 11
6.828
 20
158.672
 21
159.02
  0
LINE
  8
0
 10
6.828
 11
7.245
 20
159.02
 21
159.282
  0
LINE
  8
0
 10
7.245
 11
7.71
 20
159.282
 21
159.445
  0
LINE
  8
0
 10
7.71
 11
8.2
 20
159.445
 21
159.5
  0
LINE
  8
0
 10
8.2
 11
8.69
 20
159.5
 21
159.445
  0
LINE
  8
0
 10
8.69
 11
9.155
 20
159.445
 21
159.282
  0
LINE
  8
0
 10
9.155
 11
9.572
 20
159.282
 21
159.02
  0
LINE
  8
0
 10
9.572
 11
9.92
 20
159.02
 21
158.672
  0
LINE
  8
0
 10
9.92
 11
10.182
 20
158.672
 21
158.255
  0
LINE
  8
0
 10
10.182
 11
10.345
 20
158.255
 21
157.79
  0
LINE
  8
0
 10
10.345
 11
10.4
 20
157.79
 21
157.3
  0
LINE
  8
0
 10
10.4
 11
10.345
 20
157.3
 21
156.81
  0
LINE
  8
0
 10
10.345
 11
10.182
 20
156.81
 21
156.345
  0
LINE
  8
0
 10
10.182
 11
9.92
 20
156.345
 21
155.928
  0
LINE
  8
0
 10
9.92
 11
9.572
 20
155.928
 21
155.58
  0
LINE
  8
0
 10
9.572
 11
9.155
 20
155.58
 21
155.318
  0
LINE
  8
0
 10
9.155
 11
8.69
 20
155.318
 21
155.155
  0
LINE
  8
0
 10
8.69
 11
8.2
 20
155.155
 21
155.1
  0
LINE
  8
0
 10
8.2
 11
7.71
 20
155.1
 21
155.155
  0
LINE
  8
0
 10
7.71
 11
7.245
 20
155.155
 21
155.318
  0
LINE
  8
0
 10
7.245
 11
6.828
 20
155.318
 21
155.58
  0
LINE
  8
0
 10
6.828
 11
6.48
 20
155.58
 21
155.928
  0
LINE
  8
0
 10
6.48
 11
6.218
 20
155.928
 21
156.345
  0
LINE
  8
0
 10
6.218
 11
6.055
 20
156.345
 21
156.81
  0
LINE
  8
0
 10
6.055
 11
6
 20
156.81
 21
157.3
  0
LINE
  8
0
 10
23.9
 11
23.955
 20
8.2
 21
8.69
  0
LINE
  8
0
 10
23.955
 11
24.118
 20
8.69
 21
9.155
  0
LINE
  8
0
 10
24.118
 11
24.38
 20
9.155
 21
9.572
  0
LINE
  8
0
 10
24.38
 11
24.728
 20
9.572
 21
9.92
  0
LINE
  8
0
 10
24.728
 11
25.145
 20
9.92
 21
10.182
  0
LINE
  8
0
 10
25.145
 11
25.61
 20
10.182
 21
10.345
  0
LINE
  8
0
 10
25.61
 11
26.1
 20
10.345
 21
10.4
  0
LINE
  8
0
 10
26.1
 11
26.59
 20
10.4
 21
10.345
  0
LINE
  8
0
 10
26.59
 11
27.055
 20
10.345
 21
10.182
  0
LINE
  8
0
 10
27.055
 11
27.472
 20
10.182
 21
9.92
  0
LINE
  8
0
 10
27.472
 11
27.82
 20
9.92
 21
9.572
  0
LINE
  8
0
 10
27.82
 11
28.082
 20
9.572
 21
9.155
  0
LINE
  8
0
 10
28.082
 11
28.245
 20
9.155
 21
8.69
  0
LINE
  8
0
 10
28.245
 11
28.3
 20
8.69
 21
8.2
  0
LINE
  8
0
 10
28.3
 11
28.245
 20
8.2
 21
7.71
  0
LINE
  8
0
 10
28.245
 11
28.082
 20
7.71
 21
7.245
  0
LINE
  8
0
 10
28.082
 11
27.82
 20
7.245
 21
6.828
  0
LINE
  8
0
 10
27.82
 11
27.472
 20
6.828
 21
6.48
  0
LINE
  8
0
 10
27.472
 11
27.055
 20
6.48
 21
6.218
  0
LINE
  8
0
 10
27.055
 11
26.59
 20
6.218
 21
6.055
  0
LINE
  8
0
 10
26.59
 11
26.1
 20
6.055
 21
6
  0
LINE
  8
0
 10
26.1
 11
25.61
 20
6
 21
6.055
  0
LINE
  8
0
 10
25.61
 11
25.145
 20
6.055
 21
6.218
  0
LINE
  8
0
 10
25.145
 11
24.728
 20
6.218
 21
6.48
  0
LINE
  8
0
 10
24.728
 11
24.38
 20
6.48
 21
6.828
  0
LINE
  8
0
 10
24.38
 11
24.118
 20
6.828
 21
7.245
  0
LINE
  8
0
 10
24.118
 11
23.955
 20
7.245
 21
7.71
  0
LINE
  8
0
 10
23.955
 11
23.9
 20
7.71
 21
8.2
  0
LINE
  8
0
 10
43.92
 11
43.975
 20
8.2
 21
8.69
  0
LINE
  8
0
 10
43.975
 11
44.138
 20
8.69
 21
9.155
  0
LINE
  8
0
 10
44.138
 11
44.4
 20
9.155
 21
9.572
  0
LINE
  8
0
 10
44.4
 11
44.748
 20
9.572
 21
9.92
  0
LINE
  8
0
 10
44.748
 11
45.165
 20
9.92
 21
10.182
  0
LINE
  8
0
 10
45.165
 11
45.63
 20
10.182
 21
10.345
  0
LINE
  8
0
 10
45.63
 11
46.12
 20
10.345
 21
10.4
  0
LINE
  8
0
 10
46.12
 11
46.61
 20
10.4
 21
10.345
  0
LINE
  8
0
 10
46.61
 11
47.075
 20
10.345
 21
10.182
  0
LINE
  8
0
 10
47.075
 11
47.492
 20
10.182
 21
9.92
  0
LINE
  8
0
 10
47.492
 11
47.84
 20
9.92
 21
9.572
  0
LINE
  8
0
 10
47.84
 11
48.102
 20
9.572
 21
9.155
  0
LINE
  8
0
 10
48.102
 11
48.265
 20
9.155
 21
8.69
  0
LINE
  8
0
 10
48.265
 11
48.32
 20
8.69
 21
8.2
  0
LINE
  8
0
 10
48.32
 11
48.265
 20
8.2
 21
7.71
  0
LINE
  8
0
 10
48.265
 11
48.102
 20
7.71
 21
7.245
  0
LINE
  8
0
 10
48.102
 11
47.84
 20
7.245
 21
6.828
  0
LINE
  8
0
 10
47.84
 11
47.492
 20
6.828
 21
6.48
  0
LINE
  8
0
 10
47.492
 11
47.075
 20
6.48
 21
6.218
  0
LINE
  8
0
 10
47.075
 11
46.61
 20
6.218
 21
6.055
  0
LINE
  8
0
 10
46.61
 11
46.12
 20
6.055
 21
6
  0
LINE
  8
0
 10
46.12
 11
45.63
 20
6
 21
6.055
  0
LINE
  8
0
 10
45.63
 11
45.165
 20
6.055
 21
6.218
  0
LINE
  8
0
 10
45.165
 11
44.748
 20
6.218
 21
6.48
  0
LINE
  8
0
 10
44.748
 11
44.4
 20
6.48
 21
6.828
  0
LINE
  8
0
 10
44.4
 11
44.138
 20
6.828
 21
7.245
  0
LINE
  8
0
 10
44.138
 11
43.975
 20
7.245
 21
7.71
  0
LINE
  8
0
 10
43.975
 11
43.92
 20
7.71
 21
8.2
  0
LINE
  8
0
 10
49.55
 11
49.605
 20
22.65
 21
23.14
  0
LINE
  8
0
 10
49.605
 11
49.768
 20
23.14
 21
23.605
  0
LINE
  8
0
 10
49.768
 11
50.03
 20
23.605
 21
24.022
  0
LINE
  8
0
 10
50.03
 11
50.378
 20
24.022
 21
24.37
  0
LINE
  8
0
 10
50.378
 11
50.795
 20
24.37
 21
24.632
  0
LINE
  8
0
 10
50.795
 11
51.26
 20
24.632
 21
24.795
  0
LINE
  8
0
 10
51.26
 11
51.75
 20
24.795
 21
24.85
  0
LINE
  8
0
 10
51.75
 11
52.24
 20
24.85
 21
24.795
  0
LINE
  8
0
 10
52.24
 11
52.705
 20
24.795
 21
24.632
  0
LINE
  8
0
 10
52.705
 11
53.122
 20
24.632
 21
24.37
  0
LINE
  8
0
 10
53.122
 11
53.47
 20
24.37
 21
24.022
  0
LINE
  8
0
 10
53.47
 11
53.732
 20
24.022
 21
23.605
  0
LINE
  8
0
 10
53.732
 11
53.895
 20
23.605
 21
23.14
  0
LINE
  8
0
 10
53.895
 11
53.95
 20
23.14
 21
22.65
  0
LINE
  8
0
 10
53.95
 11
53.895
 20
22.65
 21
22.16
  0
LINE
  8
0
 10
53.895
 11
53.732
 20
22.16
 21
21.695
  0
LINE
  8
0
 10
53.732
 11
53.47
 20
21.695
 21
21.278
  0
LINE
  8
0
 10
53.47
 11
53.122
 20
21.278
 21
20.93
  0
LINE
  8
0
 10
53.122
 11
52.705
 20
20.93
 21
20.668
  0
LINE
  8
0
 10
52.705
 11
52.24
 20
20.668
 21
20.505
  0
LINE
  8
0
 10
52.24
 11
51.75
 20
20.505
 21
20.45
  0
LINE
  8
0
 10
51.75
 11
51.26
 20
20.45
 21
20.505
  0
LINE
  8
0
 10
51.26
 11
50.795
 20
20.505
 21
20.668
  0
LINE
  8
0
 10
50.795
 11
50.378
 20
20.668
 21
20.93
  0
LINE
  8
0
 10
50.378
 11
50.03
 20
20.93
 21
21.278
  0
LINE
  8
0
 10
50.03
 11
49.768
 20
21.278
 21
21.695
  0
LINE
  8
0
 10
49.768
 11
49.605
 20
21.695
 21
22.16
  0
LINE
  8
0
 10
49.605
 11
49.55
 20
22.16
 21
22.65
  0
LINE
  8
0
 10
49.55
 11
49.605
 20
94.15
 21
94.64
  0
LINE
  8
0
 10
49.605
 11
49.768
 20
94.64
 21
95.105
  0
LINE
  8
0
 10
49.768
 11
50.03
 20
95.105
 21
95.522
  0
LINE
  8
0
 10
50.03
 11
50.378
 20
95.522
 21
95.87
  0
LINE
  8
0
 10
50.378
 11
50.795
 20
95.87
 21
96.132
  0
LINE
  8
0
 10
50.795
 11
51.26
 20
96.132
 21
96.295
  0
LINE
  8
0
 10
51.26
 11
51.75
 20
96.295
 21
96.35
  0
LINE
  8
0
 10
51.75
 11
52.24
 20
96.35
 21
96.295
  0
LINE
  8
0
 10
52.24
 11
52.705
 20
96.295
 21
96.132
  0
LINE
  8
0
 10
52.705
 11
53.122
 20
96.132
 21
95.87
  0
LINE
  8
0
 10
53.122
 11
53.47
 20
95.87
 21
95.522
  0
LINE
  8
0
 10
53.47
 11
53.732
 20
95.522
 21
95.105
  0
LINE
  8
0
 10
53.732
 11
53.895
 20
95.105
 21
94.64
  0
LINE
  8
0
 10
53.895
 11
53.95
 20
94.64
 21
94.15
  0
LINE
  8
0
 10
53.95
 11
53.895
 20
94.15
 21
93.66
  0
LINE
  8
0
 10
53.895
 11
53.732
 20
93.66
 21
93.195
  0
LINE
  8
0
 10
53.732
 11
53.47
 20
93.195
 21
92.778
  0
LINE
  8
0
 10
53.47
 11
53.122
 20
92.778
 21
92.43
  0
LINE
  8
0
 10
53.122
 11
52.705
 20
92.43
 21
92.168
  0
LINE
  8
0
 10
52.705
 11
52.24
 20
92.168
 21
92.005
  0
LINE
  8
0
 10
52.24
 11
51.75
 20
92.005
 21
91.95
  0
LINE
  8
0
 10
51.75
 11
51.26
 20
91.95
 21
92.005
  0
LINE
  8
0
 10
51.26
 11
50.795
 20
92.005
 21
92.168
  0
LINE
  8
0
 10
50.795
 11
50.378
 20
92.168
 21
92.43
  0
LINE
  8
0
 10
50.378
 11
50.03
 20
92.43
 21
92.778
  0
LINE
  8
0
 10
50.03
 11
49.768
 20
92.778
 21
93.195
  0
LINE
  8
0
 10
49.768
 11
49.605
 20
93.195
 21
93.66
  0
LINE
  8
0
 10
49.605
 11
49.55
 20
93.66
 21
94.15
  0
LINE
  8
0
 10
50
 11
50.143
 20
58.4
 21
61.668
  0
LINE
  8
0
 10
50.143
 11
50.57
 20
61.668
 21
64.912
  0
LINE
  8
0
 10
50.57
 11
51.278
 20
64.912
 21
68.106
  0
LINE
  8
0
 10
51.278
 11
52.262
 20
68.106
 21
71.226
  0
LINE
  8
0
 10
52.262
 11
53.513
 20
71.226
 21
74.248
  0
LINE
  8
0
 10
53.513
 11
55.024
 20
74.248
 21
77.15
  0
LINE
  8
0
 10
55.024
 11
56.782
 20
77.15
 21
79.909
  0
LINE
  8
0
 10
56.782
 11
58.773
 20
79.909
 21
82.505
  0
LINE
  8
0
 10
58.773
 11
60.983
 20
82.505
 21
84.917
  0
LINE
  8
0
 10
60.983
 11
63.395
 20
84.917
 21
87.127
  0
LINE
  8
0
 10
63.395
 11
65.991
 20
87.127
 21
89.118
  0
LINE
  8
0
 10
65.991
 11
68.75
 20
89.118
 21
90.876
  0
LINE
  8
0
 10
68.75
 11
71.652
 20
90.876
 21
92.387
  0
LINE
  8
0
 10
71.652
 11
74.674
 20
92.387
 21
93.638
  0
LINE
  8
0
 10
74.674
 11
77.794
 20
93.638
 21
94.622
  0
LINE
  8
0
 10
77.794
 11
80.988
 20
94.622
 21
95.33
  0
LINE
  8
0
 10
80.988
 11
84.232
 20
95.33
 21
95.757
  0
LINE
  8
0
 10
84.232
 11
87.5
 20
95.757
 21
95.9
  0
LINE
  8
0
 10
87.5
 11
90.768
 20
95.9
 21
95.757
  0
LINE
  8
0
 10
90.768
 11
94.012
 20
95.757
 21
95.33
  0
LINE
  8
0
 10
94.012
 11
97.206
 20
95.33
 21
94.622
  0
LINE
  8
0
 10
97.206
 11
100.326
 20
94.622
 21
93.638
  0
LINE
  8
0
 10
100.326
 11
103.348
 20
93.638
 21
92.387
  0
LINE
  8
0
 10
103.348
 11
106.25
 20
92.387
 21
90.876
  0
LINE
  8
0
 10
106.25
 11
109.009
 20
90.876
 21
89.118
  0
LINE
  8
0
 10
109.009
 11
111.605
 20
89.118
 21
87.127
  0
LINE
  8
0
 10
111.605
 11
114.017
 20
87.127
 21
84.917
  0
LINE
  8
0
 10
114.017
 11
116.227
 20
84.917
 21
82.505
  0
LINE
  8
0
 10
116.227
 11
118.218
 20
82.505
 21
79.909
  0
LINE
  8
0
 10
118.218
 11
119.976
 20
79.909
 21
77.15
  0
LINE
  8
0
 10
119.976
 11
121.487
 20
77.15
 21
74.248
  0
LINE
  8
0
 10
121.487
 11
122.738
 20
74.248
 21
71.226
  0
LINE
  8
0
 10
122.738
 11
123.722
 20
71.226
 21
68.106
  0
LINE
  8
0
 10
123.722
 11
124.43
 20
68.106
 21
64.912
  0
LINE
  8
0
 10
124.43
 11
124.857
 20
64.912
 21
61.668
  0
LINE
  8
0
 10
124.857
 11
125
 20
61.668
 21
58.4
  0
LINE
  8
0
 10
125
 11
124.857
 20
58.4
 21
55.132
  0
LINE
  8
0
 10
124.857
 11
124.43
 20
55.132
 21
51.888
  0
LINE
  8
0
 10
124.43
 11
123.722
 20
51.888
 21
48.694
  0
LINE
  8
0
 10
123.722
 11
122.738
 20
48.694
 21
45.574
  0
LINE
  8
0
 10
122.738
 11
121.487
 20
45.574
 21
42.552
  0
LINE
  8
0
 10
121.487
 11
119.976
 20
42.552
 21
39.65
  0
LINE
  8
0
 10
119.976
 11
118.218
 20
39.65
 21
36.891
  0
LINE
  8
0
 10
118.218
 11
116.227
 20
36.891
 21
34.295
  0
LINE
  8
0
 10
116.227
 11
114.017
 20
34.295
 21
31.883
  0
LINE
  8
0
 10
114.017
 11
111.605
 20
31.883
 21
29.673
  0
LINE
  8
0
 10
111.605
 11
109.009
 20
29.673
 21
27.682
  0
LINE
  8
0
 10
109.009
 11
106.25
 20
27.682
 21
25.924
  0
LINE
  8
0
 10
106.25
 11
103.348
 20
25.924
 21
24.413
  0
LINE
  8
0
 10
103.348
 11
100.326
 20
24.413
 21
23.162
  0
LINE
  8
0
 10
100.326
 11
97.206
 20
23.162
 21
22.178
  0
LINE
  8
0
 10
97.206
 11
94.012
 20
22.178
 21
21.47
  0
LINE
  8
0
 10
94.012
 11
90.768
 20
21.47
 21
21.043
  0
LINE
  8
0
 10
90.768
 11
87.5
 20
21.043
 21
20.9
  0
LINE
  8
0
 10
87.5
 11
84.232
 20
20.9
 21
21.043
  0
LINE
  8
0
 10
84.232
 11
80.988
 20
21.043
 21
21.47
  0
LINE
  8
0
 10
80.988
 11
77.794
 20
21.47
 21
22.178
  0
LINE
  8
0
 10
77.794
 11
74.674
 20
22.178
 21
23.162
  0
LINE
  8
0
 10
74.674
 11
71.652
 20
23.162
 21
24.413
  0
LINE
  8
0
 10
71.652
 11
68.75
 20
24.413
 21
25.924
  0
LINE
  8
0
 10
68.75
 11
65.991
 20
25.924
 21
27.682
  0
LINE
  8
0
 10
65.991
 11
63.395
 20
27.682
 21
29.673
  0
LINE
  8
0
 10
63.395
 11
60.983
 20
29.673
 21
31.883
  0
LINE
  8
0
 10
60.983
 11
58.773
 20
31.883
 21
34.295
  0
LINE
  8
0
 10
58.773
 11
56.782
 20
34.295
 21
36.891
  0
LINE
  8
0
 10
56.782
 11
55.024
 20
36.891
 21
39.65
  0
LINE
  8
0
 10
55.024
 11
53.513
 20
39.65
 21
42.552
  0
LINE
  8
0
 10
53.513
 11
52.262
 20
42.552
 21
45.574
  0
LINE
  8
0
 10
52.262
 11
51.278
 20
45.574
 21
48.694
  0
LINE
  8
0
 10
51.278
 11
50.57
 20
48.694
 21
51.888
  0
LINE
  8
0
 10
50.57
 11
50.143
 20
51.888
 21
55.132
  0
LINE
  8
0
 10
50.143
 11
50
 20
55.132
 21
58.4
  0
LINE
  8
0
 10
121.05
 11
121.105
 20
22.65
 21
23.14
  0
LINE
  8
0
 10
121.105
 11
121.268
 20
23.14
 21
23.605
  0
LINE
  8
0
 10
121.268
 11
121.53
 20
23.605
 21
24.022
  0
LINE
  8
0
 10
121.53
 11
121.878
 20
24.022
 21
24.37
  0
LINE
  8
0
 10
121.878
 11
122.295
 20
24.37
 21
24.632
  0
LINE
  8
0
 10
122.295
 11
122.76
 20
24.632
 21
24.795
  0
LINE
  8
0
 10
122.76
 11
123.25
 20
24.795
 21
24.85
  0
LINE
  8
0
 10
123.25
 11
123.74
 20
24.85
 21
24.795
  0
LINE
  8
0
 10
123.74
 11
124.205
 20
24.795
 21
24.632
  0
LINE
  8
0
 10
124.205
 11
124.622
 20
24.632
 21
24.37
  0
LINE
  8
0
 10
124.622
 11
124.97
 20
24.37
 21
24.022
  0
LINE
  8
0
 10
124.97
 11
125.232
 20
24.022
 21
23.605
  0
LINE
  8
0
 10
125.232
 11
125.395
 20
23.605
 21
23.14
  0
LINE
  8
0
 10
125.395
 11
125.45
 20
23.14
 21
22.65
  0
LINE
  8
0
 10
125.45
 11
125.395
 20
22.65
 21
22.16
  0
LINE
  8
0
 10
125.395
 11
125.232
 20
22.16
 21
21.695
  0
LINE
  8
0
 10
125.232
 11
124.97
 20
21.695
 21
21.278
  0
LINE
  8
0
 10
124.97
 11
124.622
 20
21.278
 21
20.93
  0
LINE
  8
0
 10
124.622
 11
124.205
 20
20.93
 21
20.668
  0
LINE
  8
0
 10
124.205
 11
123.74
 20
20.668
 21
20.505
  0
LINE
  8
0
 10
123.74
 11
123.25
 20
20.505
 21
20.45
  0
LINE
  8
0
 10
123.25
 11
122.76
 20
20.45
 21
20.505
  0
LINE
  8
0
 10
122.76
 11
122.295
 20
20.505
 21
20.668
  0
LINE
  8
0
 10
122.295
 11
121.878
 20
20.668
 21
20.93
  0
LINE
  8
0
 10
121.878
 11
121.53
 20
20.93
 21
21.278
  0
LINE
  8
0
 10
121.53
 11
121.268
 20
21.278
 21
21.695
  0
LINE
  8
0
 10
121.268
 11
121.105
 20
21.695
 21
22.16
  0
LINE
  8
0
 10
121.105
 11
121.05
 20
22.16
 21
22.65
  0
LINE
  8
0
 10
121.05
 11
121.105
 20
94.15
 21
94.64
  0
LINE
  8
0
 10
121.105
 11
121.268
 20
94.64
 21
95.105
  0
LINE
  8
0
 10
121.268
 11
121.53
 20
95.105
 21
95.522
  0
LINE
  8
0
 10
121.53
 11
121.878
 20
95.522
 21
95.87
  0
LINE
  8
0
 10
121.878
 11
122.295
 20
95.87
 21
96.132
  0
LINE
  8
0
 10
122.295
 11
122.76
 20
96.132
 21
96.295
  0
LINE
  8
0
 10
122.76
 11
123.25
 20
96.295
 21
96.35
  0
LINE
  8
0
 10
123.25
 11
123.74
 20
96.35
 21
96.295
  0
LINE
  8
0
 10
123.74
 11
124.205
 20
96.295
 21
96.132
  0
LINE
  8
0
 10
124.205
 11
124.622
 20
96.132
 21
95.87
  0
LINE
  8
0
 10
124.622
 11
124.97
 20
95.87
 21
95.522
  0
LINE
  8
0
 10
124.97
 11
125.232
 20
95.522
 21
95.105
  0
LINE
  8
0
 10
125.232
 11
125.395
 20
95.105
 21
94.64
  0
LINE
  8
0
 10
125.395
 11
125.45
 20
94.64
 21
94.15
  0
LINE
  8
0
 10
125.45
 11
125.395
 20
94.15
 21
93.66
  0
LINE
  8
0
 10
125.395
 11
125.232
 20
93.66
 21
93.195
  0
LINE
  8
0
 10
125.232
 11
124.97
 20
93.195
 21
92.778
  0
LINE
  8
0
 10
124.97
 11
124.622
 20
92.778
 21
92.43
  0
LINE
  8
0
 10
124.622
 11
124.205
 20
92.43
 21
92.168
  0
LINE
  8
0
 10
124.205
 11
123.74
 20
92.168
 21
92.005
  0
LINE
  8
0
 10
123.74
 11
123.25
 20
92.005
 21
91.95
  0
LINE
  8
0
 10
123.25
 11
122.76
 20
91.95
 21
92.005
  0
LINE
  8
0
 10
122.76
 11
122.295
 20
92.005
 21
92.168
  0
LINE
  8
0
 10
122.295
 11
121.878
 20
92.168
 21
92.43
  0
LINE
  8
0
 10
121.878
 11
121.53
 20
92.43
 21
92.778
  0
LINE
  8
0
 10
121.53
 11
121.268
 20
92.778
 21
93.195
  0
LINE
  8
0
 10
121.268
 11
121.105
 20
93.195
 21
93.66
  0
LINE
  8
0
 10
121.105
 11
121.05
 20
93.66
 21
94.15
  0
LINE
  8
0
 10
281.312
 11
281.367
 20
88.9
 21
89.39
  0
LINE
  8
0
 10
281.367
 11
281.529
 20
89.39
 21
89.855
  0
LINE
  8
0
 10
281.529
 11
281.792
 20
89.855
 21
90.272
  0
LINE
  8
0
 10
281.792
 11
282.14
 20
90.272
 21
90.62
  0
LINE
  8
0
 10
282.14
 11
282.557
 20
90.62
 21
90.882
  0
LINE
  8
0
 10
282.557
 11
283.022
 20
90.882
 21
91.045
  0
LINE
  8
0
 10
283.022
 11
283.512
 20
91.045
 21
91.1
  0
LINE
  8
0
 10
283.512
 11
284.001
 20
91.1
 21
91.045
  0
LINE
  8
0
 10
284.001
 11
284.466
 20
91.045
 21
90.882
  0
LINE
  8
0
 10
284.466
 11
284.883
 20
90.882
 21
90.62
  0
LINE
  8
0
 10
284.883
 11
285.232
 20
90.62
 21
90.272
  0
LINE
  8
0
 10
285.232
 11
285.494
 20
90.272
 21
89.855
  0
LINE
  8
0
 10
285.494
 11
285.656
 20
89.855
 21
89.39
  0
LINE
  8
0
 10
285.656
 11
285.712
 20
89.39
 21
88.9
  0
LINE
  8
0
 10
285.712
 11
285.656
 20
88.9
 21
88.41
  0
LINE
  8
0
 10
285.656
 11
285.494
 20
88.41
 21
87.945
  0
LINE
  8
0
 10
285.494
 11
285.232
 20
87.945
 21
87.528
  0
LINE
  8
0
 10
285.232
 11
284.883
 20
87.528
 21
87.18
  0
LINE
  8
0
 10
284.883
 11
284.466
 20
87.18
 21
86.918
  0
LINE
  8
0
 10
284.466
 11
284.001
 20
86.918
 21
86.755
  0
LINE
  8
0
 10
284.001
 11
283.512
 20
86.755
 21
86.7
  0
LINE
  8
0
 10
283.512
 11
283.022
 20
86.7
 21
86.755
  0
LINE
  8
0
 10
283.022
 11
282.557
 20
86.755
 21
86.918
  0
LINE
  8
0
 10
282.557
 11
282.14
 20
86.918
 21
87.18
  0
LINE
  8
0
 10
282.14
 11
281.792
 20
87.18
 21
87.528
  0
LINE
  8
0
 10
281.792
 11
281.529
 20
87.528
 21
87.945
  0
LINE
  8
0
 10
281.529
 11
281.367
 20
87.945
 21
88.41
  0
LINE
  8
0
 10
281.367
 11
281.312
 20
88.41
 21
88.9
  0
LINE
  8
0
 10
313.88
 11
313.921
 20
8
 21
8.494
  0
LINE
  8
0
 10
313.921
 11
314.043
 20
8.494
 21
8.974
  0
LINE
  8
0
 10
314.043
 11
314.242
 20
8.974
 21
9.428
  0
LINE
  8
0
 10
314.242
 11
314.513
 20
9.428
 21
9.843
  0
LINE
  8
0
 10
314.513
 11
314.848
 20
9.843
 21
10.207
  0
LINE
  8
0
 10
314.848
 11
315.239
 20
10.207
 21
10.511
  0
LINE
  8
0
 10
315.239
 11
315.675
 20
10.511
 21
10.747
  0
LINE
  8
0
 10
315.675
 11
316.144
 20
10.747
 21
10.908
  0
LINE
  8
0
 10
316.144
 11
316.632
 20
10.908
 21
10.99
  0
LINE
  8
0
 10
316.632
 11
317.128
 20
10.99
 21
10.99
  0
LINE
  8
0
 10
317.128
 11
317.616
 20
10.99
 21
10.908
  0
LINE
  8
0
 10
317.616
 11
318.085
 20
10.908
 21
10.747
  0
LINE
  8
0
 10
318.085
 11
318.521
 20
10.747
 21
10.511
  0
LINE
  8
0
 10
318.521
 11
318.912
 20
10.511
 21
10.207
  0
LINE
  8
0
 10
318.912
 11
319.247
 20
10.207
 21
9.843
  0
LINE
  8
0
 10
319.247
 11
319.518
 20
9.843
 21
9.428
  0
LINE
  8
0
 10
319.518
 11
319.717
 20
9.428
 21
8.974
  0
LINE
  8
0
 10
319.717
 11
319.839
 20
8.974
 21
8.494
  0
LINE
  8
0
 10
319.839
 11
319.88
 20
8.494
 21
8
  0
LINE
  8
0
 10
319.88
 11
319.839
 20
8
 21
7.506
  0
LINE
  8
0
 10
319.839
 11
319.717
 20
7.506
 21
7.026
  0
LINE
  8
0
 10
319.717
 11
319.518
 20
7.026
 21
6.572
  0
LINE
  8
0
 10
319.518
 11
319.247
 20
6.572
 21
6.157
  0
LINE
  8
0
 10
319.247
 11
318.912
 20
6.157
 21
5.793
  0
LINE
  8
0
 10
318.912
 11
318.521
 20
5.793
 21
5.489
  0
LINE
  8
0
 10
318.521
 11
318.085
 20
5.489
 21
5.253
  0
LINE
  8
0
 10
318.085
 11
317.616
 20
5.253
 21
5.092
  0
LINE
  8
0
 10
317.616
 11
317.128
 20
5.092
 21
5.01
  0
LINE
  8
0
 10
317.128
 11
316.632
 20
5.01
 21
5.01
  0
LINE
  8
0
 10
316.632
 11
316.144
 20
5.01
 21
5.092
  0
LINE
  8
0
 10
316.144
 11
315.675
 20
5.092
 21
5.253
  0
LINE
  8
0
 10
315.675
 11
315.239
 20
5.253
 21
5.489
  0
LINE
  8
0
 10
315.239
 11
314.848
 20
5.489
 21
5.793
  0
LINE
  8
0
 10
314.848
 11
314.513
 20
5.793
 21
6.157
  0
LINE
  8
0
 10
314.513
 11
314.242
 20
6.157
 21
6.572
  0
LINE
  8
0
 10
314.242
 11
314.043
 20
6.572
 21
7.026
  0
LINE
  8
0
 10
314.043
 11
313.921
 20
7.026
 21
7.506
  0
LINE
  8
0
 10
313.921
 11
313.88
 20
7.506
 21
8
  0
LINE
  8
0
 10
326.78
 11
326.838
 20
7
 21
7.479
  0
LINE
  8
0
 10
326.838
 11
327.009
 20
7.479
 21
7.929
  0
LINE
  8
0
 10
327.009
 11
327.283
 20
7.929
 21
8.326
  0
LINE
  8
0
 10
327.283
 11
327.644
 20
8.326
 21
8.646
  0
LINE
  8
0
 10
327.644
 11
328.071
 20
8.646
 21
8.87
  0
LINE
  8
0
 10
328.071
 11
328.539
 20
8.87
 21
8.985
  0
LINE
  8
0
 10
328.539
 11
329.021
 20
8.985
 21
8.985
  0
LINE
  8
0
 10
329.021
 11
329.489
 20
8.985
 21
8.87
  0
LINE
  8
0
 10
329.489
 11
329.916
 20
8.87
 21
8.646
  0
LINE
  8
0
 10
329.916
 11
330.277
 20
8.646
 21
8.326
  0
LINE
  8
0
 10
330.277
 11
330.551
 20
8.326
 21
7.929
  0
LINE
  8
0
 10
330.551
 11
330.722
 20
7.929
 21
7.479
  0
LINE
  8
0
 10
330.722
 11
330.78
 20
7.479
 21
7
  0
LINE
  8
0
 10
330.78
 11
330.722
 20
7
 21
6.521
  0
LINE
  8
0
 10
330.722
 11
330.551
 20
6.521
 21
6.071
  0
LINE
  8
0
 10
330.551
 11
330.277
 20
6.071
 21
5.674
  0
LINE
  8
0
 10
330.277
 11
329.916
 20
5.674
 21
5.354
  0
LINE
  8
0
 10
329.916
 11
329.489
 20
5.354
 21
5.13
  0
LINE
  8
0
 10
329.489
 11
329.021
 20
5.13
 21
5.015
  0
LINE
  8
0
 10
329.021
 11
328.539
 20
5.015
 21
5.015
  0
LINE
  8
0
 10
328.539
 11
328.071
 20
5.015
 21
5.13
  0
LINE
  8
0
 10
328.071
 11
327.644
 20
5.13
 21
5.354
  0
LINE
  8
0
 10
327.644
 11
327.283
 20
5.354
 21
5.674
  0
LINE
  8
0
 10
327.283
 11
327.009
 20
5.674
 21
6.071
  0
LINE
  8
0
 10
327.009
 11
326.838
 20
6.071
 21
6.521
  0
LINE
  8
0
 10
326.838
 11
326.78
 20
6.521
 21
7
  0
LINE
  8
0
 10
339.68
 11
339.735
 20
8.2
 21
8.69
  0
LINE
  8
0
 10
339.735
 11
339.898
 20
8.69
 21
9.155
  0
LINE
  8
0
 10
339.898
 11
340.16
 20
9.155
 21
9.572
  0
LINE
  8
0
 10
340.16
 11
340.508
 20
9.572
 21
9.92
  0
LINE
  8
0
 10
340.508
 11
340.925
 20
9.92
 21
10.182
  0
LINE
  8
0
 10
340.925
 11
341.39
 20
10.182
 21
10.345
  0
LINE
  8
0
 10
341.39
 11
341.88
 20
10.345
 21
10.4
  0
LINE
  8
0
 10
341.88
 11
342.37
 20
10.4
 21
10.345
  0
LINE
  8
0
 10
342.37
 11
342.835
 20
10.345
 21
10.182
  0
LINE
  8
0
 10
342.835
 11
343.252
 20
10.182
 21
9.92
  0
LINE
  8
0
 10
343.252
 11
343.6
 20
9.92
 21
9.572
  0
LINE
  8
0
 10
343.6
 11
343.862
 20
9.572
 21
9.155
  0
LINE
  8
0
 10
343.862
 11
344.025
 20
9.155
 21
8.69
  0
LINE
  8
0
 10
344.025
 11
344.08
 20
8.69
 21
8.2
  0
LINE
  8
0
 10
344.08
 11
344.025
 20
8.2
 21
7.71
  0
LINE
  8
0
 10
344.025
 11
343.862
 20
7.71
 21
7.245
  0
LINE
  8
0
 10
343.862
 11
343.6
 20
7.245
 21
6.828
  0
LINE
  8
0
 10
343.6
 11
343.252
 20
6.828
 21
6.48
  0
LINE
  8
0
 10
343.252
 11
342.835
 20
6.48
 21
6.218
  0
LINE
  8
0
 10
342.835
 11
342.37
 20
6.218
 21
6.055
  0
LINE
  8
0
 10
342.37
 11
341.88
 20
6.055
 21
6
  0
LINE
  8
0
 10
341.88
 11
341.39
 20
6
 21
6.055
  0
LINE
  8
0
 10
341.39
 11
340.925
 20
6.055
 21
6.218
  0
LINE
  8
0
 10
340.925
 11
340.508
 20
6.218
 21
6.48
  0
LINE
  8
0
 10
340.508
 11
340.16
 20
6.48
 21
6.828
  0
LINE
  8
0
 10
340.16
 11
339.898
 20
6.828
 21
7.245
  0
LINE
  8
0
 10
339.898
 11
339.735
 20
7.245
 21
7.71
  0
LINE
  8
0
 10
339.735
 11
339.68
 20
7.71
 21
8.2
  0
LINE
  8
0
 10
359.7
 11
359.755
 20
8.2
 21
8.69
  0
LINE
  8
0
 10
359.755
 11
359.918
 20
8.69
 21
9.155
  0
LINE
  8
0
 10
359.918
 11
360.18
 20
9.155
 21
9.572
  0
LINE
  8
0
 10
360.18
 11
360.528
 20
9.572
 21
9.92
  0
LINE
  8
0
 10
360.528
 11
360.945
 20
9.92
 21
10.182
  0
LINE
  8
0
 10
360.945
 11
361.41
 20
10.182
 21
10.345
  0
LINE
  8
0
 10
361.41
 11
361.9
 20
10.345
 21
10.4
  0
LINE
  8
0
 10
361.9
 11
362.39
 20
10.4
 21
10.345
  0
LINE
  8
0
 10
362.39
 11
362.855
 20
10.345
 21
10.182
  0
LINE
  8
0
 10
362.855
 11
363.272
 20
10.182
 21
9.92
  0
LINE
  8
0
 10
363.272
 11
363.62
 20
9.92
 21
9.572
  0
LINE
  8
0
 10
363.62
 11
363.882
 20
9.572
 21
9.155
  0
LINE
  8
0
 10
363.882
 11
364.045
 20
9.155
 21
8.69
  0
LINE
  8
0
 10
364.045
 11
364.1
 20
8.69
 21
8.2
  0
LINE
  8
0
 10
364.1
 11
364.045
 20
8.2
 21
7.71
  0
LINE
  8
0
 10
364.045
 11
363.882
 20
7.71
 21
7.245
  0
LINE
  8
0
 10
363.882
 11
363.62
 20
7.245
 21
6.828
  0
LINE
  8
0
 10
363.62
 11
363.272
 20
6.828
 21
6.48
  0
LINE
  8
0
 10
363.272
 11
362.855
 20
6.48
 21
6.218
  0
LINE
  8
0
 10
362.855
 11
362.39
 20
6.218
 21
6.055
  0
LINE
  8
0
 10
362.39
 11
361.9
 20
6.055
 21
6
  0
LINE
  8
0
 10
361.9
 11
361.41
 20
6
 21
6.055
  0
LINE
  8
0
 10
361.41
 11
360.945
 20
6.055
 21
6.218
  0
LINE
  8
0
 10
360.945
 11
360.528
 20
6.218
 21
6.48
  0
LINE
  8
0
 10
360.528
 11
360.18
 20
6.48
 21
6.828
  0
LINE
  8
0
 10
360.18
 11
359.918
 20
6.828
 21
7.245
  0
LINE
  8
0
 10
359.918
 11
359.755
 20
7.245
 21
7.71
  0
LINE
  8
0
 10
359.755
 11
359.7
 20
7.71
 21
8.2
  0
ENDSEC
  0
SECTION
  2
OBJECTS
  0
DICTIONARY
  0
ENDSEC
  0
EOF
