<?xml version="1.0"?>
<svg xmlns="http://www.w3.org/2000/svg" version="1.1" height="432mm" width="481mm" >
 <g style="fill-opacity:1.0; stroke:black; stroke-width:1;">
  <line x1="470.500000mm" y1="422.000000mm" x2="470.500000mm" y2="422.000000mm" />
  <line x1="470.500000mm" y1="422.000000mm" x2="0.000000mm" y2="422.000000mm" />
  <line x1="0.000000mm" y1="422.000000mm" x2="0.000000mm" y2="0.000000mm" />
  <line x1="0.000000mm" y1="0.000000mm" x2="470.500000mm" y2="0.000000mm" />
  <line x1="470.500000mm" y1="0.000000mm" x2="470.500000mm" y2="422.000000mm" />
  <circle cx="19.709964mm" cy="159.299964mm" r="2.200229mm" fill="none"/>
  <line x1="24.110421mm" y1="159.299964mm" x2="15.309507mm" y2="159.299964mm" />
  <line x1="19.709964mm" y1="154.899507mm" x2="19.709964mm" y2="163.700421mm" />
  <text x="21mm" y="157mm" font-size="24">
   4.4
  </text>
  <circle cx="32.499971mm" cy="210.999864mm" r="4.000103mm" fill="none"/>
  <line x1="40.500177mm" y1="210.999864mm" x2="24.499766mm" y2="210.999864mm" />
  <line x1="32.499971mm" y1="202.999659mm" x2="32.499971mm" y2="219.000070mm" />
  <text x="36mm" y="206mm" font-size="24">
   8.0
  </text>
  <circle cx="65.199964mm" cy="402.289964mm" r="2.200229mm" fill="none"/>
  <line x1="69.600421mm" y1="402.289964mm" x2="60.799507mm" y2="402.289964mm" />
  <line x1="65.199964mm" y1="397.889507mm" x2="65.199964mm" y2="406.690421mm" />
  <text x="67mm" y="400mm" font-size="24">
   4.4
  </text>
  <circle cx="65.199964mm" cy="19.709964mm" r="2.200229mm" fill="none"/>
  <line x1="69.600421mm" y1="19.709964mm" x2="60.799507mm" y2="19.709964mm" />
  <line x1="65.199964mm" y1="15.309507mm" x2="65.199964mm" y2="24.110421mm" />
  <text x="67mm" y="17mm" font-size="24">
   4.4
  </text>
  <circle cx="84.289964mm" cy="159.299964mm" r="2.200229mm" fill="none"/>
  <line x1="88.690421mm" y1="159.299964mm" x2="79.889507mm" y2="159.299964mm" />
  <line x1="84.289964mm" y1="154.899507mm" x2="84.289964mm" y2="163.700421mm" />
  <text x="86mm" y="157mm" font-size="24">
   4.4
  </text>
  <circle cx="127.999964mm" cy="413.499964mm" r="2.200229mm" fill="none"/>
  <line x1="132.400421mm" y1="413.499964mm" x2="123.599507mm" y2="413.499964mm" />
  <line x1="127.999964mm" y1="409.099507mm" x2="127.999964mm" y2="417.900421mm" />
  <text x="130mm" y="411mm" font-size="24">
   4.4
  </text>
  <circle cx="127.999964mm" cy="8.499964mm" r="2.200229mm" fill="none"/>
  <line x1="132.400421mm" y1="8.499964mm" x2="123.599507mm" y2="8.499964mm" />
  <line x1="127.999964mm" y1="4.099507mm" x2="127.999964mm" y2="12.900421mm" />
  <text x="130mm" y="6mm" font-size="24">
   4.4
  </text>
  <circle cx="160.999964mm" cy="413.499964mm" r="2.200229mm" fill="none"/>
  <line x1="165.400421mm" y1="413.499964mm" x2="156.599507mm" y2="413.499964mm" />
  <line x1="160.999964mm" y1="409.099507mm" x2="160.999964mm" y2="417.900421mm" />
  <text x="163mm" y="411mm" font-size="24">
   4.4
  </text>
  <circle cx="160.999964mm" cy="8.499964mm" r="2.200229mm" fill="none"/>
  <line x1="165.400421mm" y1="8.499964mm" x2="156.599507mm" y2="8.499964mm" />
  <line x1="160.999964mm" y1="4.099507mm" x2="160.999964mm" y2="12.900421mm" />
  <text x="163mm" y="6mm" font-size="24">
   4.4
  </text>
  <circle cx="196.989964mm" cy="22.499964mm" r="2.200229mm" fill="none"/>
  <line x1="201.390421mm" y1="22.499964mm" x2="192.589507mm" y2="22.499964mm" />
  <line x1="196.989964mm" y1="18.099507mm" x2="196.989964mm" y2="26.900421mm" />
  <text x="199mm" y="20mm" font-size="24">
   4.4
  </text>
  <circle cx="207.289964mm" cy="110.699964mm" r="2.200229mm" fill="none"/>
  <line x1="211.690421mm" y1="110.699964mm" x2="202.889507mm" y2="110.699964mm" />
  <line x1="207.289964mm" y1="106.299507mm" x2="207.289964mm" y2="115.100421mm" />
  <text x="209mm" y="108mm" font-size="24">
   4.4
  </text>
  <circle cx="215.489964mm" cy="414.499964mm" r="2.200229mm" fill="none"/>
  <line x1="219.890421mm" y1="414.499964mm" x2="211.089507mm" y2="414.499964mm" />
  <line x1="215.489964mm" y1="410.099507mm" x2="215.489964mm" y2="418.900421mm" />
  <text x="217mm" y="412mm" font-size="24">
   4.4
  </text>
  <circle cx="215.489964mm" cy="351.499964mm" r="2.200229mm" fill="none"/>
  <line x1="219.890421mm" y1="351.499964mm" x2="211.089507mm" y2="351.499964mm" />
  <line x1="215.489964mm" y1="347.099507mm" x2="215.489964mm" y2="355.900421mm" />
  <text x="217mm" y="349mm" font-size="24">
   4.4
  </text>
  <circle cx="245.489964mm" cy="414.499964mm" r="2.200229mm" fill="none"/>
  <line x1="249.890421mm" y1="414.499964mm" x2="241.089507mm" y2="414.499964mm" />
  <line x1="245.489964mm" y1="410.099507mm" x2="245.489964mm" y2="418.900421mm" />
  <text x="247mm" y="412mm" font-size="24">
   4.4
  </text>
  <circle cx="245.489964mm" cy="351.499964mm" r="2.200229mm" fill="none"/>
  <line x1="249.890421mm" y1="351.499964mm" x2="241.089507mm" y2="351.499964mm" />
  <line x1="245.489964mm" y1="347.099507mm" x2="245.489964mm" y2="355.900421mm" />
  <text x="247mm" y="349mm" font-size="24">
   4.4
  </text>
  <circle cx="249.709964mm" cy="110.699964mm" r="2.200229mm" fill="none"/>
  <line x1="254.110421mm" y1="110.699964mm" x2="245.309507mm" y2="110.699964mm" />
  <line x1="249.709964mm" y1="106.299507mm" x2="249.709964mm" y2="115.100421mm" />
  <text x="251mm" y="108mm" font-size="24">
   4.4
  </text>
  <circle cx="252.749872mm" cy="79.500269mm" r="1.500269mm" fill="none"/>
  <line x1="255.750410mm" y1="79.500269mm" x2="249.749333mm" y2="79.500269mm" />
  <line x1="252.749872mm" y1="76.499731mm" x2="252.749872mm" y2="82.500808mm" />
  <text x="254mm" y="77mm" font-size="24">
   3.0
  </text>
  <circle cx="252.749872mm" cy="73.700269mm" r="1.500269mm" fill="none"/>
  <line x1="255.750410mm" y1="73.700269mm" x2="249.749333mm" y2="73.700269mm" />
  <line x1="252.749872mm" y1="70.699731mm" x2="252.749872mm" y2="76.700808mm" />
  <text x="254mm" y="72mm" font-size="24">
   3.0
  </text>
  <circle cx="254.990170mm" cy="382.999939mm" r="2.500268mm" fill="none"/>
  <line x1="259.990707mm" y1="382.999939mm" x2="249.989633mm" y2="382.999939mm" />
  <line x1="254.990170mm" y1="377.999402mm" x2="254.990170mm" y2="388.000476mm" />
  <text x="257mm" y="380mm" font-size="24">
   5.0
  </text>
  <circle cx="257.750221mm" cy="68.299698mm" r="1.500135mm" fill="none"/>
  <line x1="260.750491mm" y1="68.299698mm" x2="254.749951mm" y2="68.299698mm" />
  <line x1="257.750221mm" y1="65.299428mm" x2="257.750221mm" y2="71.299968mm" />
  <text x="259mm" y="66mm" font-size="24">
   3.0
  </text>
  <circle cx="257.750221mm" cy="59.699698mm" r="1.500135mm" fill="none"/>
  <line x1="260.750491mm" y1="59.699698mm" x2="254.749951mm" y2="59.699698mm" />
  <line x1="257.750221mm" y1="56.699428mm" x2="257.750221mm" y2="62.699968mm" />
  <text x="259mm" y="58mm" font-size="24">
   3.0
  </text>
  <circle cx="295.999964mm" cy="344.999964mm" r="2.200229mm" fill="none"/>
  <line x1="300.400421mm" y1="344.999964mm" x2="291.599507mm" y2="344.999964mm" />
  <line x1="295.999964mm" y1="340.599507mm" x2="295.999964mm" y2="349.400421mm" />
  <text x="298mm" y="342mm" font-size="24">
   4.4
  </text>
  <circle cx="295.999964mm" cy="86.999964mm" r="2.200229mm" fill="none"/>
  <line x1="300.400421mm" y1="86.999964mm" x2="291.599507mm" y2="86.999964mm" />
  <line x1="295.999964mm" y1="82.599507mm" x2="295.999964mm" y2="91.400421mm" />
  <text x="298mm" y="84mm" font-size="24">
   4.4
  </text>
  <circle cx="328.999964mm" cy="344.999964mm" r="2.200229mm" fill="none"/>
  <line x1="333.400421mm" y1="344.999964mm" x2="324.599507mm" y2="344.999964mm" />
  <line x1="328.999964mm" y1="340.599507mm" x2="328.999964mm" y2="349.400421mm" />
  <text x="331mm" y="342mm" font-size="24">
   4.4
  </text>
  <circle cx="328.999964mm" cy="86.999964mm" r="2.200229mm" fill="none"/>
  <line x1="333.400421mm" y1="86.999964mm" x2="324.599507mm" y2="86.999964mm" />
  <line x1="328.999964mm" y1="82.599507mm" x2="328.999964mm" y2="91.400421mm" />
  <text x="331mm" y="84mm" font-size="24">
   4.4
  </text>
  <circle cx="328.999818mm" cy="331.500055mm" r="2.000011mm" fill="none"/>
  <line x1="332.999840mm" y1="331.500055mm" x2="324.999795mm" y2="331.500055mm" />
  <line x1="328.999818mm" y1="327.500033mm" x2="328.999818mm" y2="335.500077mm" />
  <text x="330mm" y="329mm" font-size="24">
   4.0
  </text>
  <circle cx="336.000118mm" cy="323.999873mm" r="1.500017mm" fill="none"/>
  <line x1="339.000152mm" y1="323.999873mm" x2="333.000085mm" y2="323.999873mm" />
  <line x1="336.000118mm" y1="320.999839mm" x2="336.000118mm" y2="326.999907mm" />
  <text x="337mm" y="322mm" font-size="24">
   3.0
  </text>
  <circle cx="336.000118mm" cy="153.599873mm" r="1.500017mm" fill="none"/>
  <line x1="339.000152mm" y1="153.599873mm" x2="333.000085mm" y2="153.599873mm" />
  <line x1="336.000118mm" y1="150.599839mm" x2="336.000118mm" y2="156.599907mm" />
  <text x="337mm" y="152mm" font-size="24">
   3.0
  </text>
  <circle cx="338.899818mm" cy="139.100055mm" r="2.000011mm" fill="none"/>
  <line x1="342.899840mm" y1="139.100055mm" x2="334.899795mm" y2="139.100055mm" />
  <line x1="338.899818mm" y1="135.100033mm" x2="338.899818mm" y2="143.100077mm" />
  <text x="340mm" y="137mm" font-size="24">
   4.0
  </text>
  <circle cx="341.800118mm" cy="323.999873mm" r="1.500017mm" fill="none"/>
  <line x1="344.800152mm" y1="323.999873mm" x2="338.800085mm" y2="323.999873mm" />
  <line x1="341.800118mm" y1="320.999839mm" x2="341.800118mm" y2="326.999907mm" />
  <text x="343mm" y="322mm" font-size="24">
   3.0
  </text>
  <circle cx="341.800118mm" cy="153.599873mm" r="1.500017mm" fill="none"/>
  <line x1="344.800152mm" y1="153.599873mm" x2="338.800085mm" y2="153.599873mm" />
  <line x1="341.800118mm" y1="150.599839mm" x2="341.800118mm" y2="156.599907mm" />
  <text x="343mm" y="152mm" font-size="24">
   3.0
  </text>
  <circle cx="347.200041mm" cy="329.000115mm" r="1.500245mm" fill="none"/>
  <line x1="350.200531mm" y1="329.000115mm" x2="344.199551mm" y2="329.000115mm" />
  <line x1="347.200041mm" y1="325.999625mm" x2="347.200041mm" y2="332.000605mm" />
  <text x="348mm" y="327mm" font-size="24">
   3.0
  </text>
  <circle cx="347.200041mm" cy="158.600115mm" r="1.500245mm" fill="none"/>
  <line x1="350.200531mm" y1="158.600115mm" x2="344.199551mm" y2="158.600115mm" />
  <line x1="347.200041mm" y1="155.599625mm" x2="347.200041mm" y2="161.600605mm" />
  <text x="348mm" y="157mm" font-size="24">
   3.0
  </text>
  <circle cx="350.100170mm" cy="148.599939mm" r="2.500268mm" fill="none"/>
  <line x1="355.100707mm" y1="148.599939mm" x2="345.099633mm" y2="148.599939mm" />
  <line x1="350.100170mm" y1="143.599402mm" x2="350.100170mm" y2="153.600476mm" />
  <text x="352mm" y="146mm" font-size="24">
   5.0
  </text>
  <circle cx="353.000041mm" cy="329.000115mm" r="1.500245mm" fill="none"/>
  <line x1="356.000531mm" y1="329.000115mm" x2="349.999551mm" y2="329.000115mm" />
  <line x1="353.000041mm" y1="325.999625mm" x2="353.000041mm" y2="332.000605mm" />
  <text x="354mm" y="327mm" font-size="24">
   3.0
  </text>
  <circle cx="353.000041mm" cy="158.600115mm" r="1.500245mm" fill="none"/>
  <line x1="356.000531mm" y1="158.600115mm" x2="349.999551mm" y2="158.600115mm" />
  <line x1="353.000041mm" y1="155.599625mm" x2="353.000041mm" y2="161.600605mm" />
  <text x="354mm" y="157mm" font-size="24">
   3.0
  </text>
  <circle cx="360.799964mm" cy="402.289964mm" r="2.200229mm" fill="none"/>
  <line x1="365.200421mm" y1="402.289964mm" x2="356.399507mm" y2="402.289964mm" />
  <line x1="360.799964mm" y1="397.889507mm" x2="360.799964mm" y2="406.690421mm" />
  <text x="363mm" y="400mm" font-size="24">
   4.4
  </text>
  <circle cx="360.799964mm" cy="19.709964mm" r="2.200229mm" fill="none"/>
  <line x1="365.200421mm" y1="19.709964mm" x2="356.399507mm" y2="19.709964mm" />
  <line x1="360.799964mm" y1="15.309507mm" x2="360.799964mm" y2="24.110421mm" />
  <text x="363mm" y="17mm" font-size="24">
   4.4
  </text>
  <circle cx="393.499971mm" cy="210.999864mm" r="4.000103mm" fill="none"/>
  <line x1="401.500177mm" y1="210.999864mm" x2="385.499766mm" y2="210.999864mm" />
  <line x1="393.499971mm" y1="202.999659mm" x2="393.499971mm" y2="219.000070mm" />
  <text x="397mm" y="206mm" font-size="24">
   8.0
  </text>
  <circle cx="391.709964mm" cy="159.299964mm" r="2.200229mm" fill="none"/>
  <line x1="396.110421mm" y1="159.299964mm" x2="387.309507mm" y2="159.299964mm" />
  <line x1="391.709964mm" y1="154.899507mm" x2="391.709964mm" y2="163.700421mm" />
  <text x="393mm" y="157mm" font-size="24">
   4.4
  </text>
  <circle cx="450.789964mm" cy="159.299964mm" r="2.200229mm" fill="none"/>
  <line x1="455.190421mm" y1="159.299964mm" x2="446.389507mm" y2="159.299964mm" />
  <line x1="450.789964mm" y1="154.899507mm" x2="450.789964mm" y2="163.700421mm" />
  <text x="452mm" y="157mm" font-size="24">
   4.4
  </text>
  <circle cx="453.699964mm" cy="137.999964mm" r="2.200229mm" fill="none"/>
  <line x1="458.100421mm" y1="137.999964mm" x2="449.299507mm" y2="137.999964mm" />
  <line x1="453.699964mm" y1="133.599507mm" x2="453.699964mm" y2="142.400421mm" />
  <text x="455mm" y="135mm" font-size="24">
   4.4
  </text>
 </g>
</svg>
