<?xml version="1.0"?>
<svg xmlns="http://www.w3.org/2000/svg" version="1.1" height="177mm" width="398mm" >
 <g style="fill-opacity:1.0; stroke:black; stroke-width:1;">
  <line x1="388.000000mm" y1="167.000000mm" x2="388.000000mm" y2="167.000000mm" />
  <line x1="388.000000mm" y1="167.000000mm" x2="0.000000mm" y2="167.000000mm" />
  <line x1="0.000000mm" y1="167.000000mm" x2="0.000000mm" y2="0.000000mm" />
  <line x1="0.000000mm" y1="0.000000mm" x2="388.000000mm" y2="0.000000mm" />
  <line x1="388.000000mm" y1="0.000000mm" x2="388.000000mm" y2="167.000000mm" />
  <circle cx="8.500151mm" cy="103.499567mm" r="3.499825mm" fill="none"/>
  <line x1="15.499802mm" y1="103.499567mm" x2="1.500500mm" y2="103.499567mm" />
  <line x1="8.500151mm" y1="96.499917mm" x2="8.500151mm" y2="110.499218mm" />
  <text x="11mm" y="99mm" font-size="24">
   7.0
  </text>
  <circle cx="7.500170mm" cy="18.899939mm" r="2.500268mm" fill="none"/>
  <line x1="12.500707mm" y1="18.899939mm" x2="2.499633mm" y2="18.899939mm" />
  <line x1="7.500170mm" y1="13.899402mm" x2="7.500170mm" y2="23.900476mm" />
  <text x="10mm" y="16mm" font-size="24">
   5.0
  </text>
  <circle cx="7.000009mm" cy="90.899777mm" r="1.999983mm" fill="none"/>
  <line x1="10.999974mm" y1="90.899777mm" x2="3.000044mm" y2="90.899777mm" />
  <line x1="7.000009mm" y1="86.899812mm" x2="7.000009mm" y2="94.899742mm" />
  <text x="8mm" y="88mm" font-size="24">
   4.0
  </text>
  <circle cx="7.000009mm" cy="28.399777mm" r="1.999983mm" fill="none"/>
  <line x1="10.999974mm" y1="28.399777mm" x2="3.000044mm" y2="28.399777mm" />
  <line x1="7.000009mm" y1="24.399812mm" x2="7.000009mm" y2="32.399742mm" />
  <text x="8mm" y="26mm" font-size="24">
   4.0
  </text>
  <circle cx="8.199964mm" cy="157.299964mm" r="2.200229mm" fill="none"/>
  <line x1="12.600421mm" y1="157.299964mm" x2="3.799507mm" y2="157.299964mm" />
  <line x1="8.199964mm" y1="152.899507mm" x2="8.199964mm" y2="161.700421mm" />
  <text x="10mm" y="155mm" font-size="24">
   4.4
  </text>
  <circle cx="8.199964mm" cy="137.279964mm" r="2.200229mm" fill="none"/>
  <line x1="12.600421mm" y1="137.279964mm" x2="3.799507mm" y2="137.279964mm" />
  <line x1="8.199964mm" y1="132.879507mm" x2="8.199964mm" y2="141.680421mm" />
  <text x="10mm" y="135mm" font-size="24">
   4.4
  </text>
  <circle cx="26.099964mm" cy="8.199964mm" r="2.200229mm" fill="none"/>
  <line x1="30.500421mm" y1="8.199964mm" x2="21.699507mm" y2="8.199964mm" />
  <line x1="26.099964mm" y1="3.799507mm" x2="26.099964mm" y2="12.600421mm" />
  <text x="28mm" y="5mm" font-size="24">
   4.4
  </text>
  <circle cx="32.899964mm" cy="159.999964mm" r="2.200229mm" fill="none"/>
  <line x1="37.300421mm" y1="159.999964mm" x2="28.499507mm" y2="159.999964mm" />
  <line x1="32.899964mm" y1="155.599507mm" x2="32.899964mm" y2="164.400421mm" />
  <text x="35mm" y="157mm" font-size="24">
   4.4
  </text>
  <circle cx="46.119964mm" cy="8.199964mm" r="2.200229mm" fill="none"/>
  <line x1="50.520421mm" y1="8.199964mm" x2="41.719507mm" y2="8.199964mm" />
  <line x1="46.119964mm" y1="3.799507mm" x2="46.119964mm" y2="12.600421mm" />
  <text x="48mm" y="5mm" font-size="24">
   4.4
  </text>
  <circle cx="149.899964mm" cy="159.999964mm" r="2.200229mm" fill="none"/>
  <line x1="154.300421mm" y1="159.999964mm" x2="145.499507mm" y2="159.999964mm" />
  <line x1="149.899964mm" y1="155.599507mm" x2="149.899964mm" y2="164.400421mm" />
  <text x="152mm" y="157mm" font-size="24">
   4.4
  </text>
  <circle cx="192.049590mm" cy="152.449819mm" r="1.400139mm" fill="none"/>
  <line x1="194.849868mm" y1="152.449819mm" x2="189.249311mm" y2="152.449819mm" />
  <line x1="192.049590mm" y1="149.649540mm" x2="192.049590mm" y2="155.250098mm" />
  <text x="193mm" y="151mm" font-size="24">
   2.8
  </text>
  <circle cx="192.049590mm" cy="120.949819mm" r="1.400139mm" fill="none"/>
  <line x1="194.849868mm" y1="120.949819mm" x2="189.249311mm" y2="120.949819mm" />
  <line x1="192.049590mm" y1="118.149540mm" x2="192.049590mm" y2="123.750098mm" />
  <text x="193mm" y="119mm" font-size="24">
   2.8
  </text>
  <circle cx="206.349590mm" cy="136.549819mm" r="1.400139mm" fill="none"/>
  <line x1="209.149868mm" y1="136.549819mm" x2="203.549311mm" y2="136.549819mm" />
  <line x1="206.349590mm" y1="133.749540mm" x2="206.349590mm" y2="139.350098mm" />
  <text x="207mm" y="135mm" font-size="24">
   2.8
  </text>
  <circle cx="206.349590mm" cy="105.049819mm" r="1.400139mm" fill="none"/>
  <line x1="209.149868mm" y1="105.049819mm" x2="203.549311mm" y2="105.049819mm" />
  <line x1="206.349590mm" y1="102.249540mm" x2="206.349590mm" y2="107.850098mm" />
  <text x="207mm" y="103mm" font-size="24">
   2.8
  </text>
  <circle cx="230.010037mm" cy="109.689798mm" r="1.650231mm" fill="none"/>
  <line x1="233.310499mm" y1="109.689798mm" x2="226.709575mm" y2="109.689798mm" />
  <line x1="230.010037mm" y1="106.389336mm" x2="230.010037mm" y2="112.990260mm" />
  <text x="231mm" y="108mm" font-size="24">
   3.3
  </text>
  <circle cx="230.010037mm" cy="57.309798mm" r="1.650231mm" fill="none"/>
  <line x1="233.310499mm" y1="57.309798mm" x2="226.709575mm" y2="57.309798mm" />
  <line x1="230.010037mm" y1="54.009336mm" x2="230.010037mm" y2="60.610260mm" />
  <text x="231mm" y="55mm" font-size="24">
   3.3
  </text>
  <circle cx="283.511627mm" cy="32.099813mm" r="2.199934mm" fill="none"/>
  <line x1="287.911494mm" y1="32.099813mm" x2="279.111760mm" y2="32.099813mm" />
  <line x1="283.511627mm" y1="27.699946mm" x2="283.511627mm" y2="36.499680mm" />
  <text x="285mm" y="29mm" font-size="24">
   4.4
  </text>
  <circle cx="316.879808mm" cy="8.000013mm" r="2.999761mm" fill="none"/>
  <line x1="322.879330mm" y1="8.000013mm" x2="310.880285mm" y2="8.000013mm" />
  <line x1="316.879808mm" y1="2.000490mm" x2="316.879808mm" y2="13.999535mm" />
  <text x="319mm" y="5mm" font-size="24">
   6.0
  </text>
  <circle cx="324.390037mm" cy="109.689798mm" r="1.650231mm" fill="none"/>
  <line x1="327.690499mm" y1="109.689798mm" x2="321.089575mm" y2="109.689798mm" />
  <line x1="324.390037mm" y1="106.389336mm" x2="324.390037mm" y2="112.990260mm" />
  <text x="326mm" y="108mm" font-size="24">
   3.3
  </text>
  <circle cx="324.390037mm" cy="57.309798mm" r="1.650231mm" fill="none"/>
  <line x1="327.690499mm" y1="57.309798mm" x2="321.089575mm" y2="57.309798mm" />
  <line x1="324.390037mm" y1="54.009336mm" x2="324.390037mm" y2="60.610260mm" />
  <text x="326mm" y="55mm" font-size="24">
   3.3
  </text>
  <circle cx="328.779818mm" cy="7.000055mm" r="2.000011mm" fill="none"/>
  <line x1="332.779840mm" y1="7.000055mm" x2="324.779795mm" y2="7.000055mm" />
  <line x1="328.779818mm" y1="3.000033mm" x2="328.779818mm" y2="11.000077mm" />
  <text x="330mm" y="5mm" font-size="24">
   4.0
  </text>
  <circle cx="341.879964mm" cy="8.199964mm" r="2.200229mm" fill="none"/>
  <line x1="346.280421mm" y1="8.199964mm" x2="337.479507mm" y2="8.199964mm" />
  <line x1="341.879964mm" y1="3.799507mm" x2="341.879964mm" y2="12.600421mm" />
  <text x="344mm" y="5mm" font-size="24">
   4.4
  </text>
  <circle cx="361.899964mm" cy="8.199964mm" r="2.200229mm" fill="none"/>
  <line x1="366.300421mm" y1="8.199964mm" x2="357.499507mm" y2="8.199964mm" />
  <line x1="361.899964mm" y1="3.799507mm" x2="361.899964mm" y2="12.600421mm" />
  <text x="364mm" y="5mm" font-size="24">
   4.4
  </text>
 </g>
</svg>
