<?xml version="1.0"?>
<svg xmlns="http://www.w3.org/2000/svg" version="1.1" height="177mm" width="398mm" >
 <g style="fill-opacity:1.0; stroke:black; stroke-width:1;">
  <line x1="388.000000mm" y1="167.000000mm" x2="388.000000mm" y2="167.000000mm" />
  <line x1="388.000000mm" y1="167.000000mm" x2="0.000000mm" y2="167.000000mm" />
  <line x1="0.000000mm" y1="167.000000mm" x2="0.000000mm" y2="0.000000mm" />
  <line x1="0.000000mm" y1="0.000000mm" x2="388.000000mm" y2="0.000000mm" />
  <line x1="388.000000mm" y1="0.000000mm" x2="388.000000mm" y2="167.000000mm" />
  <circle cx="8.199964mm" cy="29.719964mm" r="2.200229mm" fill="none"/>
  <line x1="12.600421mm" y1="29.719964mm" x2="3.799507mm" y2="29.719964mm" />
  <line x1="8.199964mm" y1="25.319507mm" x2="8.199964mm" y2="34.120421mm" />
  <text x="10mm" y="27mm" font-size="24">
   4.4
  </text>
  <circle cx="8.199964mm" cy="9.699964mm" r="2.200229mm" fill="none"/>
  <line x1="12.600421mm" y1="9.699964mm" x2="3.799507mm" y2="9.699964mm" />
  <line x1="8.199964mm" y1="5.299507mm" x2="8.199964mm" y2="14.100421mm" />
  <text x="10mm" y="7mm" font-size="24">
   4.4
  </text>
  <circle cx="26.099964mm" cy="158.799964mm" r="2.200229mm" fill="none"/>
  <line x1="30.500421mm" y1="158.799964mm" x2="21.699507mm" y2="158.799964mm" />
  <line x1="26.099964mm" y1="154.399507mm" x2="26.099964mm" y2="163.200421mm" />
  <text x="28mm" y="156mm" font-size="24">
   4.4
  </text>
  <circle cx="46.119964mm" cy="158.799964mm" r="2.200229mm" fill="none"/>
  <line x1="50.520421mm" y1="158.799964mm" x2="41.719507mm" y2="158.799964mm" />
  <line x1="46.119964mm" y1="154.399507mm" x2="46.119964mm" y2="163.200421mm" />
  <text x="48mm" y="156mm" font-size="24">
   4.4
  </text>
  <circle cx="51.749964mm" cy="144.349964mm" r="2.200229mm" fill="none"/>
  <line x1="56.150421mm" y1="144.349964mm" x2="47.349507mm" y2="144.349964mm" />
  <line x1="51.749964mm" y1="139.949507mm" x2="51.749964mm" y2="148.750421mm" />
  <text x="53mm" y="142mm" font-size="24">
   4.4
  </text>
  <circle cx="51.749964mm" cy="72.849964mm" r="2.200229mm" fill="none"/>
  <line x1="56.150421mm" y1="72.849964mm" x2="47.349507mm" y2="72.849964mm" />
  <line x1="51.749964mm" y1="68.449507mm" x2="51.749964mm" y2="77.250421mm" />
  <text x="53mm" y="70mm" font-size="24">
   4.4
  </text>
  <circle cx="87.500225mm" cy="108.599651mm" r="37.499925mm" fill="none"/>
  <line x1="162.500075mm" y1="108.599651mm" x2="12.500375mm" y2="108.599651mm" />
  <line x1="87.500225mm" y1="33.599800mm" x2="87.500225mm" y2="183.599501mm" />
  <text x="125mm" y="71mm" font-size="24">
   75.0
  </text>
  <circle cx="123.249964mm" cy="144.349964mm" r="2.200229mm" fill="none"/>
  <line x1="127.650421mm" y1="144.349964mm" x2="118.849507mm" y2="144.349964mm" />
  <line x1="123.249964mm" y1="139.949507mm" x2="123.249964mm" y2="148.750421mm" />
  <text x="125mm" y="142mm" font-size="24">
   4.4
  </text>
  <circle cx="123.249964mm" cy="72.849964mm" r="2.200229mm" fill="none"/>
  <line x1="127.650421mm" y1="72.849964mm" x2="118.849507mm" y2="72.849964mm" />
  <line x1="123.249964mm" y1="68.449507mm" x2="123.249964mm" y2="77.250421mm" />
  <text x="125mm" y="70mm" font-size="24">
   4.4
  </text>
  <circle cx="283.511627mm" cy="78.099813mm" r="2.199934mm" fill="none"/>
  <line x1="287.911494mm" y1="78.099813mm" x2="279.111760mm" y2="78.099813mm" />
  <line x1="283.511627mm" y1="73.699946mm" x2="283.511627mm" y2="82.499680mm" />
  <text x="285mm" y="75mm" font-size="24">
   4.4
  </text>
  <circle cx="316.879808mm" cy="159.000013mm" r="2.999761mm" fill="none"/>
  <line x1="322.879330mm" y1="159.000013mm" x2="310.880285mm" y2="159.000013mm" />
  <line x1="316.879808mm" y1="153.000490mm" x2="316.879808mm" y2="164.999535mm" />
  <text x="319mm" y="156mm" font-size="24">
   6.0
  </text>
  <circle cx="328.779818mm" cy="160.000055mm" r="2.000011mm" fill="none"/>
  <line x1="332.779840mm" y1="160.000055mm" x2="324.779795mm" y2="160.000055mm" />
  <line x1="328.779818mm" y1="156.000033mm" x2="328.779818mm" y2="164.000077mm" />
  <text x="330mm" y="158mm" font-size="24">
   4.0
  </text>
  <circle cx="341.879964mm" cy="158.799964mm" r="2.200229mm" fill="none"/>
  <line x1="346.280421mm" y1="158.799964mm" x2="337.479507mm" y2="158.799964mm" />
  <line x1="341.879964mm" y1="154.399507mm" x2="341.879964mm" y2="163.200421mm" />
  <text x="344mm" y="156mm" font-size="24">
   4.4
  </text>
  <circle cx="361.899964mm" cy="158.799964mm" r="2.200229mm" fill="none"/>
  <line x1="366.300421mm" y1="158.799964mm" x2="357.499507mm" y2="158.799964mm" />
  <line x1="361.899964mm" y1="154.399507mm" x2="361.899964mm" y2="163.200421mm" />
  <text x="364mm" y="156mm" font-size="24">
   4.4
  </text>
 </g>
</svg>
