  0
SECTION
  2
BLOCKS
  0
ENDSEC
  0
SECTION
  2
ENTITIES
  0
LINE
  8
0
 10
0
 11
0
 20
-167
 21
0
  0
LINE
  8
0
 10
0
 11
388
 20
0
 21
0
  0
LINE
  8
0
 10
388
 11
388
 20
0
 21
-167
  0
LINE
  8
0
 10
388
 11
0
 20
-167
 21
-167
  0
LINE
  8
0
 10
5
 11
5.036
 20
-103.5
 21
-103.002
  0
LINE
  8
0
 10
5.036
 11
5.142
 20
-103.002
 21
-102.514
  0
LINE
  8
0
 10
5.142
 11
5.316
 20
-102.514
 21
-102.046
  0
LINE
  8
0
 10
5.316
 11
5.556
 20
-102.046
 21
-101.608
  0
LINE
  8
0
 10
5.556
 11
5.855
 20
-101.608
 21
-101.208
  0
LINE
  8
0
 10
5.855
 11
6.208
 20
-101.208
 21
-100.855
  0
LINE
  8
0
 10
6.208
 11
6.608
 20
-100.855
 21
-100.556
  0
LINE
  8
0
 10
6.608
 11
7.046
 20
-100.556
 21
-100.316
  0
LINE
  8
0
 10
7.046
 11
7.514
 20
-100.316
 21
-100.142
  0
LINE
  8
0
 10
7.514
 11
8.002
 20
-100.142
 21
-100.036
  0
LINE
  8
0
 10
8.002
 11
8.5
 20
-100.036
 21
-100
  0
LINE
  8
0
 10
8.5
 11
8.998
 20
-100
 21
-100.036
  0
LINE
  8
0
 10
8.998
 11
9.486
 20
-100.036
 21
-100.142
  0
LINE
  8
0
 10
9.486
 11
9.954
 20
-100.142
 21
-100.316
  0
LINE
  8
0
 10
9.954
 11
10.392
 20
-100.316
 21
-100.556
  0
LINE
  8
0
 10
10.392
 11
10.792
 20
-100.556
 21
-100.855
  0
LINE
  8
0
 10
10.792
 11
11.145
 20
-100.855
 21
-101.208
  0
LINE
  8
0
 10
11.145
 11
11.444
 20
-101.208
 21
-101.608
  0
LINE
  8
0
 10
11.444
 11
11.684
 20
-101.608
 21
-102.046
  0
LINE
  8
0
 10
11.684
 11
11.858
 20
-102.046
 21
-102.514
  0
LINE
  8
0
 10
11.858
 11
11.964
 20
-102.514
 21
-103.002
  0
LINE
  8
0
 10
11.964
 11
12
 20
-103.002
 21
-103.5
  0
LINE
  8
0
 10
12
 11
11.964
 20
-103.5
 21
-103.998
  0
LINE
  8
0
 10
11.964
 11
11.858
 20
-103.998
 21
-104.486
  0
LINE
  8
0
 10
11.858
 11
11.684
 20
-104.486
 21
-104.954
  0
LINE
  8
0
 10
11.684
 11
11.444
 20
-104.954
 21
-105.392
  0
LINE
  8
0
 10
11.444
 11
11.145
 20
-105.392
 21
-105.792
  0
LINE
  8
0
 10
11.145
 11
10.792
 20
-105.792
 21
-106.145
  0
LINE
  8
0
 10
10.792
 11
10.392
 20
-106.145
 21
-106.444
  0
LINE
  8
0
 10
10.392
 11
9.954
 20
-106.444
 21
-106.684
  0
LINE
  8
0
 10
9.954
 11
9.486
 20
-106.684
 21
-106.858
  0
LINE
  8
0
 10
9.486
 11
8.998
 20
-106.858
 21
-106.964
  0
LINE
  8
0
 10
8.998
 11
8.5
 20
-106.964
 21
-107
  0
LINE
  8
0
 10
8.5
 11
8.002
 20
-107
 21
-106.964
  0
LINE
  8
0
 10
8.002
 11
7.514
 20
-106.964
 21
-106.858
  0
LINE
  8
0
 10
7.514
 11
7.046
 20
-106.858
 21
-106.684
  0
LINE
  8
0
 10
7.046
 11
6.608
 20
-106.684
 21
-106.444
  0
LINE
  8
0
 10
6.608
 11
6.208
 20
-106.444
 21
-106.145
  0
LINE
  8
0
 10
6.208
 11
5.855
 20
-106.145
 21
-105.792
  0
LINE
  8
0
 10
5.855
 11
5.556
 20
-105.792
 21
-105.392
  0
LINE
  8
0
 10
5.556
 11
5.316
 20
-105.392
 21
-104.954
  0
LINE
  8
0
 10
5.316
 11
5.142
 20
-104.954
 21
-104.486
  0
LINE
  8
0
 10
5.142
 11
5.036
 20
-104.486
 21
-103.998
  0
LINE
  8
0
 10
5.036
 11
5
 20
-103.998
 21
-103.5
  0
LINE
  8
0
 10
5
 11
5.048
 20
-18.9
 21
-18.412
  0
LINE
  8
0
 10
5.048
 11
5.19
 20
-18.412
 21
-17.943
  0
LINE
  8
0
 10
5.19
 11
5.421
 20
-17.943
 21
-17.511
  0
LINE
  8
0
 10
5.421
 11
5.732
 20
-17.511
 21
-17.132
  0
LINE
  8
0
 10
5.732
 11
6.111
 20
-17.132
 21
-16.821
  0
LINE
  8
0
 10
6.111
 11
6.543
 20
-16.821
 21
-16.59
  0
LINE
  8
0
 10
6.543
 11
7.012
 20
-16.59
 21
-16.448
  0
LINE
  8
0
 10
7.012
 11
7.5
 20
-16.448
 21
-16.4
  0
LINE
  8
0
 10
7.5
 11
7.988
 20
-16.4
 21
-16.448
  0
LINE
  8
0
 10
7.988
 11
8.457
 20
-16.448
 21
-16.59
  0
LINE
  8
0
 10
8.457
 11
8.889
 20
-16.59
 21
-16.821
  0
LINE
  8
0
 10
8.889
 11
9.268
 20
-16.821
 21
-17.132
  0
LINE
  8
0
 10
9.268
 11
9.579
 20
-17.132
 21
-17.511
  0
LINE
  8
0
 10
9.579
 11
9.81
 20
-17.511
 21
-17.943
  0
LINE
  8
0
 10
9.81
 11
9.952
 20
-17.943
 21
-18.412
  0
LINE
  8
0
 10
9.952
 11
10
 20
-18.412
 21
-18.9
  0
LINE
  8
0
 10
10
 11
9.952
 20
-18.9
 21
-19.388
  0
LINE
  8
0
 10
9.952
 11
9.81
 20
-19.388
 21
-19.857
  0
LINE
  8
0
 10
9.81
 11
9.579
 20
-19.857
 21
-20.289
  0
LINE
  8
0
 10
9.579
 11
9.268
 20
-20.289
 21
-20.668
  0
LINE
  8
0
 10
9.268
 11
8.889
 20
-20.668
 21
-20.979
  0
LINE
  8
0
 10
8.889
 11
8.457
 20
-20.979
 21
-21.21
  0
LINE
  8
0
 10
8.457
 11
7.988
 20
-21.21
 21
-21.352
  0
LINE
  8
0
 10
7.988
 11
7.5
 20
-21.352
 21
-21.4
  0
LINE
  8
0
 10
7.5
 11
7.012
 20
-21.4
 21
-21.352
  0
LINE
  8
0
 10
7.012
 11
6.543
 20
-21.352
 21
-21.21
  0
LINE
  8
0
 10
6.543
 11
6.111
 20
-21.21
 21
-20.979
  0
LINE
  8
0
 10
6.111
 11
5.732
 20
-20.979
 21
-20.668
  0
LINE
  8
0
 10
5.732
 11
5.421
 20
-20.668
 21
-20.289
  0
LINE
  8
0
 10
5.421
 11
5.19
 20
-20.289
 21
-19.857
  0
LINE
  8
0
 10
5.19
 11
5.048
 20
-19.857
 21
-19.388
  0
LINE
  8
0
 10
5.048
 11
5
 20
-19.388
 21
-18.9
  0
LINE
  8
0
 10
5.015
 11
5.015
 20
-91.141
 21
-90.659
  0
LINE
  8
0
 10
5.015
 11
5.13
 20
-90.659
 21
-90.191
  0
LINE
  8
0
 10
5.13
 11
5.354
 20
-90.191
 21
-89.764
  0
LINE
  8
0
 10
5.354
 11
5.674
 20
-89.764
 21
-89.403
  0
LINE
  8
0
 10
5.674
 11
6.071
 20
-89.403
 21
-89.129
  0
LINE
  8
0
 10
6.071
 11
6.521
 20
-89.129
 21
-88.958
  0
LINE
  8
0
 10
6.521
 11
7
 20
-88.958
 21
-88.9
  0
LINE
  8
0
 10
7
 11
7.479
 20
-88.9
 21
-88.958
  0
LINE
  8
0
 10
7.479
 11
7.929
 20
-88.958
 21
-89.129
  0
LINE
  8
0
 10
7.929
 11
8.326
 20
-89.129
 21
-89.403
  0
LINE
  8
0
 10
8.326
 11
8.646
 20
-89.403
 21
-89.764
  0
LINE
  8
0
 10
8.646
 11
8.87
 20
-89.764
 21
-90.191
  0
LINE
  8
0
 10
8.87
 11
8.985
 20
-90.191
 21
-90.659
  0
LINE
  8
0
 10
8.985
 11
8.985
 20
-90.659
 21
-91.141
  0
LINE
  8
0
 10
8.985
 11
8.87
 20
-91.141
 21
-91.609
  0
LINE
  8
0
 10
8.87
 11
8.646
 20
-91.609
 21
-92.036
  0
LINE
  8
0
 10
8.646
 11
8.326
 20
-92.036
 21
-92.397
  0
LINE
  8
0
 10
8.326
 11
7.929
 20
-92.397
 21
-92.671
  0
LINE
  8
0
 10
7.929
 11
7.479
 20
-92.671
 21
-92.842
  0
LINE
  8
0
 10
7.479
 11
7
 20
-92.842
 21
-92.9
  0
LINE
  8
0
 10
7
 11
6.521
 20
-92.9
 21
-92.842
  0
LINE
  8
0
 10
6.521
 11
6.071
 20
-92.842
 21
-92.671
  0
LINE
  8
0
 10
6.071
 11
5.674
 20
-92.671
 21
-92.397
  0
LINE
  8
0
 10
5.674
 11
5.354
 20
-92.397
 21
-92.036
  0
LINE
  8
0
 10
5.354
 11
5.13
 20
-92.036
 21
-91.609
  0
LINE
  8
0
 10
5.13
 11
5.015
 20
-91.609
 21
-91.141
  0
LINE
  8
0
 10
5.015
 11
5.015
 20
-28.641
 21
-28.159
  0
LINE
  8
0
 10
5.015
 11
5.13
 20
-28.159
 21
-27.691
  0
LINE
  8
0
 10
5.13
 11
5.354
 20
-27.691
 21
-27.264
  0
LINE
  8
0
 10
5.354
 11
5.674
 20
-27.264
 21
-26.903
  0
LINE
  8
0
 10
5.674
 11
6.071
 20
-26.903
 21
-26.629
  0
LINE
  8
0
 10
6.071
 11
6.521
 20
-26.629
 21
-26.458
  0
LINE
  8
0
 10
6.521
 11
7
 20
-26.458
 21
-26.4
  0
LINE
  8
0
 10
7
 11
7.479
 20
-26.4
 21
-26.458
  0
LINE
  8
0
 10
7.479
 11
7.929
 20
-26.458
 21
-26.629
  0
LINE
  8
0
 10
7.929
 11
8.326
 20
-26.629
 21
-26.903
  0
LINE
  8
0
 10
8.326
 11
8.646
 20
-26.903
 21
-27.264
  0
LINE
  8
0
 10
8.646
 11
8.87
 20
-27.264
 21
-27.691
  0
LINE
  8
0
 10
8.87
 11
8.985
 20
-27.691
 21
-28.159
  0
LINE
  8
0
 10
8.985
 11
8.985
 20
-28.159
 21
-28.641
  0
LINE
  8
0
 10
8.985
 11
8.87
 20
-28.641
 21
-29.109
  0
LINE
  8
0
 10
8.87
 11
8.646
 20
-29.109
 21
-29.536
  0
LINE
  8
0
 10
8.646
 11
8.326
 20
-29.536
 21
-29.897
  0
LINE
  8
0
 10
8.326
 11
7.929
 20
-29.897
 21
-30.171
  0
LINE
  8
0
 10
7.929
 11
7.479
 20
-30.171
 21
-30.342
  0
LINE
  8
0
 10
7.479
 11
7
 20
-30.342
 21
-30.4
  0
LINE
  8
0
 10
7
 11
6.521
 20
-30.4
 21
-30.342
  0
LINE
  8
0
 10
6.521
 11
6.071
 20
-30.342
 21
-30.171
  0
LINE
  8
0
 10
6.071
 11
5.674
 20
-30.171
 21
-29.897
  0
LINE
  8
0
 10
5.674
 11
5.354
 20
-29.897
 21
-29.536
  0
LINE
  8
0
 10
5.354
 11
5.13
 20
-29.536
 21
-29.109
  0
LINE
  8
0
 10
5.13
 11
5.015
 20
-29.109
 21
-28.641
  0
LINE
  8
0
 10
6
 11
6.055
 20
-157.3
 21
-156.81
  0
LINE
  8
0
 10
6.055
 11
6.218
 20
-156.81
 21
-156.345
  0
LINE
  8
0
 10
6.218
 11
6.48
 20
-156.345
 21
-155.928
  0
LINE
  8
0
 10
6.48
 11
6.828
 20
-155.928
 21
-155.58
  0
LINE
  8
0
 10
6.828
 11
7.245
 20
-155.58
 21
-155.318
  0
LINE
  8
0
 10
7.245
 11
7.71
 20
-155.318
 21
-155.155
  0
LINE
  8
0
 10
7.71
 11
8.2
 20
-155.155
 21
-155.1
  0
LINE
  8
0
 10
8.2
 11
8.69
 20
-155.1
 21
-155.155
  0
LINE
  8
0
 10
8.69
 11
9.155
 20
-155.155
 21
-155.318
  0
LINE
  8
0
 10
9.155
 11
9.572
 20
-155.318
 21
-155.58
  0
LINE
  8
0
 10
9.572
 11
9.92
 20
-155.58
 21
-155.928
  0
LINE
  8
0
 10
9.92
 11
10.182
 20
-155.928
 21
-156.345
  0
LINE
  8
0
 10
10.182
 11
10.345
 20
-156.345
 21
-156.81
  0
LINE
  8
0
 10
10.345
 11
10.4
 20
-156.81
 21
-157.3
  0
LINE
  8
0
 10
10.4
 11
10.345
 20
-157.3
 21
-157.79
  0
LINE
  8
0
 10
10.345
 11
10.182
 20
-157.79
 21
-158.255
  0
LINE
  8
0
 10
10.182
 11
9.92
 20
-158.255
 21
-158.672
  0
LINE
  8
0
 10
9.92
 11
9.572
 20
-158.672
 21
-159.02
  0
LINE
  8
0
 10
9.572
 11
9.155
 20
-159.02
 21
-159.282
  0
LINE
  8
0
 10
9.155
 11
8.69
 20
-159.282
 21
-159.445
  0
LINE
  8
0
 10
8.69
 11
8.2
 20
-159.445
 21
-159.5
  0
LINE
  8
0
 10
8.2
 11
7.71
 20
-159.5
 21
-159.445
  0
LINE
  8
0
 10
7.71
 11
7.245
 20
-159.445
 21
-159.282
  0
LINE
  8
0
 10
7.245
 11
6.828
 20
-159.282
 21
-159.02
  0
LINE
  8
0
 10
6.828
 11
6.48
 20
-159.02
 21
-158.672
  0
LINE
  8
0
 10
6.48
 11
6.218
 20
-158.672
 21
-158.255
  0
LINE
  8
0
 10
6.218
 11
6.055
 20
-158.255
 21
-157.79
  0
LINE
  8
0
 10
6.055
 11
6
 20
-157.79
 21
-157.3
  0
LINE
  8
0
 10
6
 11
6.055
 20
-137.28
 21
-136.79
  0
LINE
  8
0
 10
6.055
 11
6.218
 20
-136.79
 21
-136.325
  0
LINE
  8
0
 10
6.218
 11
6.48
 20
-136.325
 21
-135.908
  0
LINE
  8
0
 10
6.48
 11
6.828
 20
-135.908
 21
-135.56
  0
LINE
  8
0
 10
6.828
 11
7.245
 20
-135.56
 21
-135.298
  0
LINE
  8
0
 10
7.245
 11
7.71
 20
-135.298
 21
-135.135
  0
LINE
  8
0
 10
7.71
 11
8.2
 20
-135.135
 21
-135.08
  0
LINE
  8
0
 10
8.2
 11
8.69
 20
-135.08
 21
-135.135
  0
LINE
  8
0
 10
8.69
 11
9.155
 20
-135.135
 21
-135.298
  0
LINE
  8
0
 10
9.155
 11
9.572
 20
-135.298
 21
-135.56
  0
LINE
  8
0
 10
9.572
 11
9.92
 20
-135.56
 21
-135.908
  0
LINE
  8
0
 10
9.92
 11
10.182
 20
-135.908
 21
-136.325
  0
LINE
  8
0
 10
10.182
 11
10.345
 20
-136.325
 21
-136.79
  0
LINE
  8
0
 10
10.345
 11
10.4
 20
-136.79
 21
-137.28
  0
LINE
  8
0
 10
10.4
 11
10.345
 20
-137.28
 21
-137.77
  0
LINE
  8
0
 10
10.345
 11
10.182
 20
-137.77
 21
-138.235
  0
LINE
  8
0
 10
10.182
 11
9.92
 20
-138.235
 21
-138.652
  0
LINE
  8
0
 10
9.92
 11
9.572
 20
-138.652
 21
-139
  0
LINE
  8
0
 10
9.572
 11
9.155
 20
-139
 21
-139.262
  0
LINE
  8
0
 10
9.155
 11
8.69
 20
-139.262
 21
-139.425
  0
LINE
  8
0
 10
8.69
 11
8.2
 20
-139.425
 21
-139.48
  0
LINE
  8
0
 10
8.2
 11
7.71
 20
-139.48
 21
-139.425
  0
LINE
  8
0
 10
7.71
 11
7.245
 20
-139.425
 21
-139.262
  0
LINE
  8
0
 10
7.245
 11
6.828
 20
-139.262
 21
-139
  0
LINE
  8
0
 10
6.828
 11
6.48
 20
-139
 21
-138.652
  0
LINE
  8
0
 10
6.48
 11
6.218
 20
-138.652
 21
-138.235
  0
LINE
  8
0
 10
6.218
 11
6.055
 20
-138.235
 21
-137.77
  0
LINE
  8
0
 10
6.055
 11
6
 20
-137.77
 21
-137.28
  0
LINE
  8
0
 10
23.9
 11
23.955
 20
-8.2
 21
-7.71
  0
LINE
  8
0
 10
23.955
 11
24.118
 20
-7.71
 21
-7.245
  0
LINE
  8
0
 10
24.118
 11
24.38
 20
-7.245
 21
-6.828
  0
LINE
  8
0
 10
24.38
 11
24.728
 20
-6.828
 21
-6.48
  0
LINE
  8
0
 10
24.728
 11
25.145
 20
-6.48
 21
-6.218
  0
LINE
  8
0
 10
25.145
 11
25.61
 20
-6.218
 21
-6.055
  0
LINE
  8
0
 10
25.61
 11
26.1
 20
-6.055
 21
-6
  0
LINE
  8
0
 10
26.1
 11
26.59
 20
-6
 21
-6.055
  0
LINE
  8
0
 10
26.59
 11
27.055
 20
-6.055
 21
-6.218
  0
LINE
  8
0
 10
27.055
 11
27.472
 20
-6.218
 21
-6.48
  0
LINE
  8
0
 10
27.472
 11
27.82
 20
-6.48
 21
-6.828
  0
LINE
  8
0
 10
27.82
 11
28.082
 20
-6.828
 21
-7.245
  0
LINE
  8
0
 10
28.082
 11
28.245
 20
-7.245
 21
-7.71
  0
LINE
  8
0
 10
28.245
 11
28.3
 20
-7.71
 21
-8.2
  0
LINE
  8
0
 10
28.3
 11
28.245
 20
-8.2
 21
-8.69
  0
LINE
  8
0
 10
28.245
 11
28.082
 20
-8.69
 21
-9.155
  0
LINE
  8
0
 10
28.082
 11
27.82
 20
-9.155
 21
-9.572
  0
LINE
  8
0
 10
27.82
 11
27.472
 20
-9.572
 21
-9.92
  0
LINE
  8
0
 10
27.472
 11
27.055
 20
-9.92
 21
-10.182
  0
LINE
  8
0
 10
27.055
 11
26.59
 20
-10.182
 21
-10.345
  0
LINE
  8
0
 10
26.59
 11
26.1
 20
-10.345
 21
-10.4
  0
LINE
  8
0
 10
26.1
 11
25.61
 20
-10.4
 21
-10.345
  0
LINE
  8
0
 10
25.61
 11
25.145
 20
-10.345
 21
-10.182
  0
LINE
  8
0
 10
25.145
 11
24.728
 20
-10.182
 21
-9.92
  0
LINE
  8
0
 10
24.728
 11
24.38
 20
-9.92
 21
-9.572
  0
LINE
  8
0
 10
24.38
 11
24.118
 20
-9.572
 21
-9.155
  0
LINE
  8
0
 10
24.118
 11
23.955
 20
-9.155
 21
-8.69
  0
LINE
  8
0
 10
23.955
 11
23.9
 20
-8.69
 21
-8.2
  0
LINE
  8
0
 10
30.7
 11
30.755
 20
-160
 21
-159.51
  0
LINE
  8
0
 10
30.755
 11
30.918
 20
-159.51
 21
-159.045
  0
LINE
  8
0
 10
30.918
 11
31.18
 20
-159.045
 21
-158.628
  0
LINE
  8
0
 10
31.18
 11
31.528
 20
-158.628
 21
-158.28
  0
LINE
  8
0
 10
31.528
 11
31.945
 20
-158.28
 21
-158.018
  0
LINE
  8
0
 10
31.945
 11
32.41
 20
-158.018
 21
-157.855
  0
LINE
  8
0
 10
32.41
 11
32.9
 20
-157.855
 21
-157.8
  0
LINE
  8
0
 10
32.9
 11
33.39
 20
-157.8
 21
-157.855
  0
LINE
  8
0
 10
33.39
 11
33.855
 20
-157.855
 21
-158.018
  0
LINE
  8
0
 10
33.855
 11
34.272
 20
-158.018
 21
-158.28
  0
LINE
  8
0
 10
34.272
 11
34.62
 20
-158.28
 21
-158.628
  0
LINE
  8
0
 10
34.62
 11
34.882
 20
-158.628
 21
-159.045
  0
LINE
  8
0
 10
34.882
 11
35.045
 20
-159.045
 21
-159.51
  0
LINE
  8
0
 10
35.045
 11
35.1
 20
-159.51
 21
-160
  0
LINE
  8
0
 10
35.1
 11
35.045
 20
-160
 21
-160.49
  0
LINE
  8
0
 10
35.045
 11
34.882
 20
-160.49
 21
-160.955
  0
LINE
  8
0
 10
34.882
 11
34.62
 20
-160.955
 21
-161.372
  0
LINE
  8
0
 10
34.62
 11
34.272
 20
-161.372
 21
-161.72
  0
LINE
  8
0
 10
34.272
 11
33.855
 20
-161.72
 21
-161.982
  0
LINE
  8
0
 10
33.855
 11
33.39
 20
-161.982
 21
-162.145
  0
LINE
  8
0
 10
33.39
 11
32.9
 20
-162.145
 21
-162.2
  0
LINE
  8
0
 10
32.9
 11
32.41
 20
-162.2
 21
-162.145
  0
LINE
  8
0
 10
32.41
 11
31.945
 20
-162.145
 21
-161.982
  0
LINE
  8
0
 10
31.945
 11
31.528
 20
-161.982
 21
-161.72
  0
LINE
  8
0
 10
31.528
 11
31.18
 20
-161.72
 21
-161.372
  0
LINE
  8
0
 10
31.18
 11
30.918
 20
-161.372
 21
-160.955
  0
LINE
  8
0
 10
30.918
 11
30.755
 20
-160.955
 21
-160.49
  0
LINE
  8
0
 10
30.755
 11
30.7
 20
-160.49
 21
-160
  0
LINE
  8
0
 10
43.92
 11
43.975
 20
-8.2
 21
-7.71
  0
LINE
  8
0
 10
43.975
 11
44.138
 20
-7.71
 21
-7.245
  0
LINE
  8
0
 10
44.138
 11
44.4
 20
-7.245
 21
-6.828
  0
LINE
  8
0
 10
44.4
 11
44.748
 20
-6.828
 21
-6.48
  0
LINE
  8
0
 10
44.748
 11
45.165
 20
-6.48
 21
-6.218
  0
LINE
  8
0
 10
45.165
 11
45.63
 20
-6.218
 21
-6.055
  0
LINE
  8
0
 10
45.63
 11
46.12
 20
-6.055
 21
-6
  0
LINE
  8
0
 10
46.12
 11
46.61
 20
-6
 21
-6.055
  0
LINE
  8
0
 10
46.61
 11
47.075
 20
-6.055
 21
-6.218
  0
LINE
  8
0
 10
47.075
 11
47.492
 20
-6.218
 21
-6.48
  0
LINE
  8
0
 10
47.492
 11
47.84
 20
-6.48
 21
-6.828
  0
LINE
  8
0
 10
47.84
 11
48.102
 20
-6.828
 21
-7.245
  0
LINE
  8
0
 10
48.102
 11
48.265
 20
-7.245
 21
-7.71
  0
LINE
  8
0
 10
48.265
 11
48.32
 20
-7.71
 21
-8.2
  0
LINE
  8
0
 10
48.32
 11
48.265
 20
-8.2
 21
-8.69
  0
LINE
  8
0
 10
48.265
 11
48.102
 20
-8.69
 21
-9.155
  0
LINE
  8
0
 10
48.102
 11
47.84
 20
-9.155
 21
-9.572
  0
LINE
  8
0
 10
47.84
 11
47.492
 20
-9.572
 21
-9.92
  0
LINE
  8
0
 10
47.492
 11
47.075
 20
-9.92
 21
-10.182
  0
LINE
  8
0
 10
47.075
 11
46.61
 20
-10.182
 21
-10.345
  0
LINE
  8
0
 10
46.61
 11
46.12
 20
-10.345
 21
-10.4
  0
LINE
  8
0
 10
46.12
 11
45.63
 20
-10.4
 21
-10.345
  0
LINE
  8
0
 10
45.63
 11
45.165
 20
-10.345
 21
-10.182
  0
LINE
  8
0
 10
45.165
 11
44.748
 20
-10.182
 21
-9.92
  0
LINE
  8
0
 10
44.748
 11
44.4
 20
-9.92
 21
-9.572
  0
LINE
  8
0
 10
44.4
 11
44.138
 20
-9.572
 21
-9.155
  0
LINE
  8
0
 10
44.138
 11
43.975
 20
-9.155
 21
-8.69
  0
LINE
  8
0
 10
43.975
 11
43.92
 20
-8.69
 21
-8.2
  0
LINE
  8
0
 10
147.7
 11
147.755
 20
-160
 21
-159.51
  0
LINE
  8
0
 10
147.755
 11
147.918
 20
-159.51
 21
-159.045
  0
LINE
  8
0
 10
147.918
 11
148.18
 20
-159.045
 21
-158.628
  0
LINE
  8
0
 10
148.18
 11
148.528
 20
-158.628
 21
-158.28
  0
LINE
  8
0
 10
148.528
 11
148.945
 20
-158.28
 21
-158.018
  0
LINE
  8
0
 10
148.945
 11
149.41
 20
-158.018
 21
-157.855
  0
LINE
  8
0
 10
149.41
 11
149.9
 20
-157.855
 21
-157.8
  0
LINE
  8
0
 10
149.9
 11
150.39
 20
-157.8
 21
-157.855
  0
LINE
  8
0
 10
150.39
 11
150.855
 20
-157.855
 21
-158.018
  0
LINE
  8
0
 10
150.855
 11
151.272
 20
-158.018
 21
-158.28
  0
LINE
  8
0
 10
151.272
 11
151.62
 20
-158.28
 21
-158.628
  0
LINE
  8
0
 10
151.62
 11
151.882
 20
-158.628
 21
-159.045
  0
LINE
  8
0
 10
151.882
 11
152.045
 20
-159.045
 21
-159.51
  0
LINE
  8
0
 10
152.045
 11
152.1
 20
-159.51
 21
-160
  0
LINE
  8
0
 10
152.1
 11
152.045
 20
-160
 21
-160.49
  0
LINE
  8
0
 10
152.045
 11
151.882
 20
-160.49
 21
-160.955
  0
LINE
  8
0
 10
151.882
 11
151.62
 20
-160.955
 21
-161.372
  0
LINE
  8
0
 10
151.62
 11
151.272
 20
-161.372
 21
-161.72
  0
LINE
  8
0
 10
151.272
 11
150.855
 20
-161.72
 21
-161.982
  0
LINE
  8
0
 10
150.855
 11
150.39
 20
-161.982
 21
-162.145
  0
LINE
  8
0
 10
150.39
 11
149.9
 20
-162.145
 21
-162.2
  0
LINE
  8
0
 10
149.9
 11
149.41
 20
-162.2
 21
-162.145
  0
LINE
  8
0
 10
149.41
 11
148.945
 20
-162.145
 21
-161.982
  0
LINE
  8
0
 10
148.945
 11
148.528
 20
-161.982
 21
-161.72
  0
LINE
  8
0
 10
148.528
 11
148.18
 20
-161.72
 21
-161.372
  0
LINE
  8
0
 10
148.18
 11
147.918
 20
-161.372
 21
-160.955
  0
LINE
  8
0
 10
147.918
 11
147.755
 20
-160.955
 21
-160.49
  0
LINE
  8
0
 10
147.755
 11
147.7
 20
-160.49
 21
-160
  0
LINE
  8
0
 10
190.65
 11
190.734
 20
-152.45
 21
-151.971
  0
LINE
  8
0
 10
190.734
 11
190.978
 20
-151.971
 21
-151.55
  0
LINE
  8
0
 10
190.978
 11
191.35
 20
-151.55
 21
-151.238
  0
LINE
  8
0
 10
191.35
 11
191.807
 20
-151.238
 21
-151.071
  0
LINE
  8
0
 10
191.807
 11
192.293
 20
-151.071
 21
-151.071
  0
LINE
  8
0
 10
192.293
 11
192.75
 20
-151.071
 21
-151.238
  0
LINE
  8
0
 10
192.75
 11
193.122
 20
-151.238
 21
-151.55
  0
LINE
  8
0
 10
193.122
 11
193.366
 20
-151.55
 21
-151.971
  0
LINE
  8
0
 10
193.366
 11
193.45
 20
-151.971
 21
-152.45
  0
LINE
  8
0
 10
193.45
 11
193.366
 20
-152.45
 21
-152.929
  0
LINE
  8
0
 10
193.366
 11
193.122
 20
-152.929
 21
-153.35
  0
LINE
  8
0
 10
193.122
 11
192.75
 20
-153.35
 21
-153.662
  0
LINE
  8
0
 10
192.75
 11
192.293
 20
-153.662
 21
-153.829
  0
LINE
  8
0
 10
192.293
 11
191.807
 20
-153.829
 21
-153.829
  0
LINE
  8
0
 10
191.807
 11
191.35
 20
-153.829
 21
-153.662
  0
LINE
  8
0
 10
191.35
 11
190.978
 20
-153.662
 21
-153.35
  0
LINE
  8
0
 10
190.978
 11
190.734
 20
-153.35
 21
-152.929
  0
LINE
  8
0
 10
190.734
 11
190.65
 20
-152.929
 21
-152.45
  0
LINE
  8
0
 10
190.65
 11
190.734
 20
-120.95
 21
-120.471
  0
LINE
  8
0
 10
190.734
 11
190.978
 20
-120.471
 21
-120.05
  0
LINE
  8
0
 10
190.978
 11
191.35
 20
-120.05
 21
-119.738
  0
LINE
  8
0
 10
191.35
 11
191.807
 20
-119.738
 21
-119.571
  0
LINE
  8
0
 10
191.807
 11
192.293
 20
-119.571
 21
-119.571
  0
LINE
  8
0
 10
192.293
 11
192.75
 20
-119.571
 21
-119.738
  0
LINE
  8
0
 10
192.75
 11
193.122
 20
-119.738
 21
-120.05
  0
LINE
  8
0
 10
193.122
 11
193.366
 20
-120.05
 21
-120.471
  0
LINE
  8
0
 10
193.366
 11
193.45
 20
-120.471
 21
-120.95
  0
LINE
  8
0
 10
193.45
 11
193.366
 20
-120.95
 21
-121.429
  0
LINE
  8
0
 10
193.366
 11
193.122
 20
-121.429
 21
-121.85
  0
LINE
  8
0
 10
193.122
 11
192.75
 20
-121.85
 21
-122.162
  0
LINE
  8
0
 10
192.75
 11
192.293
 20
-122.162
 21
-122.329
  0
LINE
  8
0
 10
192.293
 11
191.807
 20
-122.329
 21
-122.329
  0
LINE
  8
0
 10
191.807
 11
191.35
 20
-122.329
 21
-122.162
  0
LINE
  8
0
 10
191.35
 11
190.978
 20
-122.162
 21
-121.85
  0
LINE
  8
0
 10
190.978
 11
190.734
 20
-121.85
 21
-121.429
  0
LINE
  8
0
 10
190.734
 11
190.65
 20
-121.429
 21
-120.95
  0
LINE
  8
0
 10
204.95
 11
205.034
 20
-136.55
 21
-136.071
  0
LINE
  8
0
 10
205.034
 11
205.278
 20
-136.071
 21
-135.65
  0
LINE
  8
0
 10
205.278
 11
205.65
 20
-135.65
 21
-135.338
  0
LINE
  8
0
 10
205.65
 11
206.107
 20
-135.338
 21
-135.171
  0
LINE
  8
0
 10
206.107
 11
206.593
 20
-135.171
 21
-135.171
  0
LINE
  8
0
 10
206.593
 11
207.05
 20
-135.171
 21
-135.338
  0
LINE
  8
0
 10
207.05
 11
207.422
 20
-135.338
 21
-135.65
  0
LINE
  8
0
 10
207.422
 11
207.666
 20
-135.65
 21
-136.071
  0
LINE
  8
0
 10
207.666
 11
207.75
 20
-136.071
 21
-136.55
  0
LINE
  8
0
 10
207.75
 11
207.666
 20
-136.55
 21
-137.029
  0
LINE
  8
0
 10
207.666
 11
207.422
 20
-137.029
 21
-137.45
  0
LINE
  8
0
 10
207.422
 11
207.05
 20
-137.45
 21
-137.762
  0
LINE
  8
0
 10
207.05
 11
206.593
 20
-137.762
 21
-137.929
  0
LINE
  8
0
 10
206.593
 11
206.107
 20
-137.929
 21
-137.929
  0
LINE
  8
0
 10
206.107
 11
205.65
 20
-137.929
 21
-137.762
  0
LINE
  8
0
 10
205.65
 11
205.278
 20
-137.762
 21
-137.45
  0
LINE
  8
0
 10
205.278
 11
205.034
 20
-137.45
 21
-137.029
  0
LINE
  8
0
 10
205.034
 11
204.95
 20
-137.029
 21
-136.55
  0
LINE
  8
0
 10
204.95
 11
205.034
 20
-105.05
 21
-104.571
  0
LINE
  8
0
 10
205.034
 11
205.278
 20
-104.571
 21
-104.15
  0
LINE
  8
0
 10
205.278
 11
205.65
 20
-104.15
 21
-103.838
  0
LINE
  8
0
 10
205.65
 11
206.107
 20
-103.838
 21
-103.671
  0
LINE
  8
0
 10
206.107
 11
206.593
 20
-103.671
 21
-103.671
  0
LINE
  8
0
 10
206.593
 11
207.05
 20
-103.671
 21
-103.838
  0
LINE
  8
0
 10
207.05
 11
207.422
 20
-103.838
 21
-104.15
  0
LINE
  8
0
 10
207.422
 11
207.666
 20
-104.15
 21
-104.571
  0
LINE
  8
0
 10
207.666
 11
207.75
 20
-104.571
 21
-105.05
  0
LINE
  8
0
 10
207.75
 11
207.666
 20
-105.05
 21
-105.529
  0
LINE
  8
0
 10
207.666
 11
207.422
 20
-105.529
 21
-105.95
  0
LINE
  8
0
 10
207.422
 11
207.05
 20
-105.95
 21
-106.262
  0
LINE
  8
0
 10
207.05
 11
206.593
 20
-106.262
 21
-106.429
  0
LINE
  8
0
 10
206.593
 11
206.107
 20
-106.429
 21
-106.429
  0
LINE
  8
0
 10
206.107
 11
205.65
 20
-106.429
 21
-106.262
  0
LINE
  8
0
 10
205.65
 11
205.278
 20
-106.262
 21
-105.95
  0
LINE
  8
0
 10
205.278
 11
205.034
 20
-105.95
 21
-105.529
  0
LINE
  8
0
 10
205.034
 11
204.95
 20
-105.529
 21
-105.05
  0
LINE
  8
0
 10
228.365
 11
228.401
 20
-109.813
 21
-109.323
  0
LINE
  8
0
 10
228.401
 11
228.581
 20
-109.323
 21
-108.865
  0
LINE
  8
0
 10
228.581
 11
228.888
 20
-108.865
 21
-108.48
  0
LINE
  8
0
 10
228.888
 11
229.294
 20
-108.48
 21
-108.203
  0
LINE
  8
0
 10
229.294
 11
229.764
 20
-108.203
 21
-108.058
  0
LINE
  8
0
 10
229.764
 11
230.256
 20
-108.058
 21
-108.058
  0
LINE
  8
0
 10
230.256
 11
230.726
 20
-108.058
 21
-108.203
  0
LINE
  8
0
 10
230.726
 11
231.132
 20
-108.203
 21
-108.48
  0
LINE
  8
0
 10
231.132
 11
231.439
 20
-108.48
 21
-108.865
  0
LINE
  8
0
 10
231.439
 11
231.619
 20
-108.865
 21
-109.323
  0
LINE
  8
0
 10
231.619
 11
231.655
 20
-109.323
 21
-109.813
  0
LINE
  8
0
 10
231.655
 11
231.546
 20
-109.813
 21
-110.293
  0
LINE
  8
0
 10
231.546
 11
231.3
 20
-110.293
 21
-110.719
  0
LINE
  8
0
 10
231.3
 11
230.939
 20
-110.719
 21
-111.053
  0
LINE
  8
0
 10
230.939
 11
230.496
 20
-111.053
 21
-111.267
  0
LINE
  8
0
 10
230.496
 11
230.01
 20
-111.267
 21
-111.34
  0
LINE
  8
0
 10
230.01
 11
229.524
 20
-111.34
 21
-111.267
  0
LINE
  8
0
 10
229.524
 11
229.081
 20
-111.267
 21
-111.053
  0
LINE
  8
0
 10
229.081
 11
228.72
 20
-111.053
 21
-110.719
  0
LINE
  8
0
 10
228.72
 11
228.474
 20
-110.719
 21
-110.293
  0
LINE
  8
0
 10
228.474
 11
228.365
 20
-110.293
 21
-109.813
  0
LINE
  8
0
 10
228.365
 11
228.401
 20
-57.433
 21
-56.943
  0
LINE
  8
0
 10
228.401
 11
228.581
 20
-56.943
 21
-56.485
  0
LINE
  8
0
 10
228.581
 11
228.888
 20
-56.485
 21
-56.1
  0
LINE
  8
0
 10
228.888
 11
229.294
 20
-56.1
 21
-55.823
  0
LINE
  8
0
 10
229.294
 11
229.764
 20
-55.823
 21
-55.678
  0
LINE
  8
0
 10
229.764
 11
230.256
 20
-55.678
 21
-55.678
  0
LINE
  8
0
 10
230.256
 11
230.726
 20
-55.678
 21
-55.823
  0
LINE
  8
0
 10
230.726
 11
231.132
 20
-55.823
 21
-56.1
  0
LINE
  8
0
 10
231.132
 11
231.439
 20
-56.1
 21
-56.485
  0
LINE
  8
0
 10
231.439
 11
231.619
 20
-56.485
 21
-56.943
  0
LINE
  8
0
 10
231.619
 11
231.655
 20
-56.943
 21
-57.433
  0
LINE
  8
0
 10
231.655
 11
231.546
 20
-57.433
 21
-57.913
  0
LINE
  8
0
 10
231.546
 11
231.3
 20
-57.913
 21
-58.339
  0
LINE
  8
0
 10
231.3
 11
230.939
 20
-58.339
 21
-58.673
  0
LINE
  8
0
 10
230.939
 11
230.496
 20
-58.673
 21
-58.887
  0
LINE
  8
0
 10
230.496
 11
230.01
 20
-58.887
 21
-58.96
  0
LINE
  8
0
 10
230.01
 11
229.524
 20
-58.96
 21
-58.887
  0
LINE
  8
0
 10
229.524
 11
229.081
 20
-58.887
 21
-58.673
  0
LINE
  8
0
 10
229.081
 11
228.72
 20
-58.673
 21
-58.339
  0
LINE
  8
0
 10
228.72
 11
228.474
 20
-58.339
 21
-57.913
  0
LINE
  8
0
 10
228.474
 11
228.365
 20
-57.913
 21
-57.433
  0
LINE
  8
0
 10
281.312
 11
281.367
 20
-32.1
 21
-31.61
  0
LINE
  8
0
 10
281.367
 11
281.529
 20
-31.61
 21
-31.145
  0
LINE
  8
0
 10
281.529
 11
281.792
 20
-31.145
 21
-30.728
  0
LINE
  8
0
 10
281.792
 11
282.14
 20
-30.728
 21
-30.38
  0
LINE
  8
0
 10
282.14
 11
282.557
 20
-30.38
 21
-30.118
  0
LINE
  8
0
 10
282.557
 11
283.022
 20
-30.118
 21
-29.955
  0
LINE
  8
0
 10
283.022
 11
283.512
 20
-29.955
 21
-29.9
  0
LINE
  8
0
 10
283.512
 11
284.001
 20
-29.9
 21
-29.955
  0
LINE
  8
0
 10
284.001
 11
284.466
 20
-29.955
 21
-30.118
  0
LINE
  8
0
 10
284.466
 11
284.883
 20
-30.118
 21
-30.38
  0
LINE
  8
0
 10
284.883
 11
285.232
 20
-30.38
 21
-30.728
  0
LINE
  8
0
 10
285.232
 11
285.494
 20
-30.728
 21
-31.145
  0
LINE
  8
0
 10
285.494
 11
285.656
 20
-31.145
 21
-31.61
  0
LINE
  8
0
 10
285.656
 11
285.712
 20
-31.61
 21
-32.1
  0
LINE
  8
0
 10
285.712
 11
285.656
 20
-32.1
 21
-32.59
  0
LINE
  8
0
 10
285.656
 11
285.494
 20
-32.59
 21
-33.055
  0
LINE
  8
0
 10
285.494
 11
285.232
 20
-33.055
 21
-33.472
  0
LINE
  8
0
 10
285.232
 11
284.883
 20
-33.472
 21
-33.82
  0
LINE
  8
0
 10
284.883
 11
284.466
 20
-33.82
 21
-34.082
  0
LINE
  8
0
 10
284.466
 11
284.001
 20
-34.082
 21
-34.245
  0
LINE
  8
0
 10
284.001
 11
283.512
 20
-34.245
 21
-34.3
  0
LINE
  8
0
 10
283.512
 11
283.022
 20
-34.3
 21
-34.245
  0
LINE
  8
0
 10
283.022
 11
282.557
 20
-34.245
 21
-34.082
  0
LINE
  8
0
 10
282.557
 11
282.14
 20
-34.082
 21
-33.82
  0
LINE
  8
0
 10
282.14
 11
281.792
 20
-33.82
 21
-33.472
  0
LINE
  8
0
 10
281.792
 11
281.529
 20
-33.472
 21
-33.055
  0
LINE
  8
0
 10
281.529
 11
281.367
 20
-33.055
 21
-32.59
  0
LINE
  8
0
 10
281.367
 11
281.312
 20
-32.59
 21
-32.1
  0
LINE
  8
0
 10
313.88
 11
313.921
 20
-8
 21
-7.506
  0
LINE
  8
0
 10
313.921
 11
314.043
 20
-7.506
 21
-7.026
  0
LINE
  8
0
 10
314.043
 11
314.242
 20
-7.026
 21
-6.572
  0
LINE
  8
0
 10
314.242
 11
314.513
 20
-6.572
 21
-6.157
  0
LINE
  8
0
 10
314.513
 11
314.848
 20
-6.157
 21
-5.793
  0
LINE
  8
0
 10
314.848
 11
315.239
 20
-5.793
 21
-5.489
  0
LINE
  8
0
 10
315.239
 11
315.675
 20
-5.489
 21
-5.253
  0
LINE
  8
0
 10
315.675
 11
316.144
 20
-5.253
 21
-5.092
  0
LINE
  8
0
 10
316.144
 11
316.632
 20
-5.092
 21
-5.01
  0
LINE
  8
0
 10
316.632
 11
317.128
 20
-5.01
 21
-5.01
  0
LINE
  8
0
 10
317.128
 11
317.616
 20
-5.01
 21
-5.092
  0
LINE
  8
0
 10
317.616
 11
318.085
 20
-5.092
 21
-5.253
  0
LINE
  8
0
 10
318.085
 11
318.521
 20
-5.253
 21
-5.489
  0
LINE
  8
0
 10
318.521
 11
318.912
 20
-5.489
 21
-5.793
  0
LINE
  8
0
 10
318.912
 11
319.247
 20
-5.793
 21
-6.157
  0
LINE
  8
0
 10
319.247
 11
319.518
 20
-6.157
 21
-6.572
  0
LINE
  8
0
 10
319.518
 11
319.717
 20
-6.572
 21
-7.026
  0
LINE
  8
0
 10
319.717
 11
319.839
 20
-7.026
 21
-7.506
  0
LINE
  8
0
 10
319.839
 11
319.88
 20
-7.506
 21
-8
  0
LINE
  8
0
 10
319.88
 11
319.839
 20
-8
 21
-8.494
  0
LINE
  8
0
 10
319.839
 11
319.717
 20
-8.494
 21
-8.974
  0
LINE
  8
0
 10
319.717
 11
319.518
 20
-8.974
 21
-9.428
  0
LINE
  8
0
 10
319.518
 11
319.247
 20
-9.428
 21
-9.843
  0
LINE
  8
0
 10
319.247
 11
318.912
 20
-9.843
 21
-10.207
  0
LINE
  8
0
 10
318.912
 11
318.521
 20
-10.207
 21
-10.511
  0
LINE
  8
0
 10
318.521
 11
318.085
 20
-10.511
 21
-10.747
  0
LINE
  8
0
 10
318.085
 11
317.616
 20
-10.747
 21
-10.908
  0
LINE
  8
0
 10
317.616
 11
317.128
 20
-10.908
 21
-10.99
  0
LINE
  8
0
 10
317.128
 11
316.632
 20
-10.99
 21
-10.99
  0
LINE
  8
0
 10
316.632
 11
316.144
 20
-10.99
 21
-10.908
  0
LINE
  8
0
 10
316.144
 11
315.675
 20
-10.908
 21
-10.747
  0
LINE
  8
0
 10
315.675
 11
315.239
 20
-10.747
 21
-10.511
  0
LINE
  8
0
 10
315.239
 11
314.848
 20
-10.511
 21
-10.207
  0
LINE
  8
0
 10
314.848
 11
314.513
 20
-10.207
 21
-9.843
  0
LINE
  8
0
 10
314.513
 11
314.242
 20
-9.843
 21
-9.428
  0
LINE
  8
0
 10
314.242
 11
314.043
 20
-9.428
 21
-8.974
  0
LINE
  8
0
 10
314.043
 11
313.921
 20
-8.974
 21
-8.494
  0
LINE
  8
0
 10
313.921
 11
313.88
 20
-8.494
 21
-8
  0
LINE
  8
0
 10
322.745
 11
322.781
 20
-109.813
 21
-109.323
  0
LINE
  8
0
 10
322.781
 11
322.961
 20
-109.323
 21
-108.865
  0
LINE
  8
0
 10
322.961
 11
323.268
 20
-108.865
 21
-108.48
  0
LINE
  8
0
 10
323.268
 11
323.674
 20
-108.48
 21
-108.203
  0
LINE
  8
0
 10
323.674
 11
324.144
 20
-108.203
 21
-108.058
  0
LINE
  8
0
 10
324.144
 11
324.636
 20
-108.058
 21
-108.058
  0
LINE
  8
0
 10
324.636
 11
325.106
 20
-108.058
 21
-108.203
  0
LINE
  8
0
 10
325.106
 11
325.512
 20
-108.203
 21
-108.48
  0
LINE
  8
0
 10
325.512
 11
325.819
 20
-108.48
 21
-108.865
  0
LINE
  8
0
 10
325.819
 11
325.999
 20
-108.865
 21
-109.323
  0
LINE
  8
0
 10
325.999
 11
326.035
 20
-109.323
 21
-109.813
  0
LINE
  8
0
 10
326.035
 11
325.926
 20
-109.813
 21
-110.293
  0
LINE
  8
0
 10
325.926
 11
325.68
 20
-110.293
 21
-110.719
  0
LINE
  8
0
 10
325.68
 11
325.319
 20
-110.719
 21
-111.053
  0
LINE
  8
0
 10
325.319
 11
324.876
 20
-111.053
 21
-111.267
  0
LINE
  8
0
 10
324.876
 11
324.39
 20
-111.267
 21
-111.34
  0
LINE
  8
0
 10
324.39
 11
323.904
 20
-111.34
 21
-111.267
  0
LINE
  8
0
 10
323.904
 11
323.461
 20
-111.267
 21
-111.053
  0
LINE
  8
0
 10
323.461
 11
323.1
 20
-111.053
 21
-110.719
  0
LINE
  8
0
 10
323.1
 11
322.854
 20
-110.719
 21
-110.293
  0
LINE
  8
0
 10
322.854
 11
322.745
 20
-110.293
 21
-109.813
  0
LINE
  8
0
 10
322.745
 11
322.781
 20
-57.433
 21
-56.943
  0
LINE
  8
0
 10
322.781
 11
322.961
 20
-56.943
 21
-56.485
  0
LINE
  8
0
 10
322.961
 11
323.268
 20
-56.485
 21
-56.1
  0
LINE
  8
0
 10
323.268
 11
323.674
 20
-56.1
 21
-55.823
  0
LINE
  8
0
 10
323.674
 11
324.144
 20
-55.823
 21
-55.678
  0
LINE
  8
0
 10
324.144
 11
324.636
 20
-55.678
 21
-55.678
  0
LINE
  8
0
 10
324.636
 11
325.106
 20
-55.678
 21
-55.823
  0
LINE
  8
0
 10
325.106
 11
325.512
 20
-55.823
 21
-56.1
  0
LINE
  8
0
 10
325.512
 11
325.819
 20
-56.1
 21
-56.485
  0
LINE
  8
0
 10
325.819
 11
325.999
 20
-56.485
 21
-56.943
  0
LINE
  8
0
 10
325.999
 11
326.035
 20
-56.943
 21
-57.433
  0
LINE
  8
0
 10
326.035
 11
325.926
 20
-57.433
 21
-57.913
  0
LINE
  8
0
 10
325.926
 11
325.68
 20
-57.913
 21
-58.339
  0
LINE
  8
0
 10
325.68
 11
325.319
 20
-58.339
 21
-58.673
  0
LINE
  8
0
 10
325.319
 11
324.876
 20
-58.673
 21
-58.887
  0
LINE
  8
0
 10
324.876
 11
324.39
 20
-58.887
 21
-58.96
  0
LINE
  8
0
 10
324.39
 11
323.904
 20
-58.96
 21
-58.887
  0
LINE
  8
0
 10
323.904
 11
323.461
 20
-58.887
 21
-58.673
  0
LINE
  8
0
 10
323.461
 11
323.1
 20
-58.673
 21
-58.339
  0
LINE
  8
0
 10
323.1
 11
322.854
 20
-58.339
 21
-57.913
  0
LINE
  8
0
 10
322.854
 11
322.745
 20
-57.913
 21
-57.433
  0
LINE
  8
0
 10
326.78
 11
326.838
 20
-7
 21
-6.521
  0
LINE
  8
0
 10
326.838
 11
327.009
 20
-6.521
 21
-6.071
  0
LINE
  8
0
 10
327.009
 11
327.283
 20
-6.071
 21
-5.674
  0
LINE
  8
0
 10
327.283
 11
327.644
 20
-5.674
 21
-5.354
  0
LINE
  8
0
 10
327.644
 11
328.071
 20
-5.354
 21
-5.13
  0
LINE
  8
0
 10
328.071
 11
328.539
 20
-5.13
 21
-5.015
  0
LINE
  8
0
 10
328.539
 11
329.021
 20
-5.015
 21
-5.015
  0
LINE
  8
0
 10
329.021
 11
329.489
 20
-5.015
 21
-5.13
  0
LINE
  8
0
 10
329.489
 11
329.916
 20
-5.13
 21
-5.354
  0
LINE
  8
0
 10
329.916
 11
330.277
 20
-5.354
 21
-5.674
  0
LINE
  8
0
 10
330.277
 11
330.551
 20
-5.674
 21
-6.071
  0
LINE
  8
0
 10
330.551
 11
330.722
 20
-6.071
 21
-6.521
  0
LINE
  8
0
 10
330.722
 11
330.78
 20
-6.521
 21
-7
  0
LINE
  8
0
 10
330.78
 11
330.722
 20
-7
 21
-7.479
  0
LINE
  8
0
 10
330.722
 11
330.551
 20
-7.479
 21
-7.929
  0
LINE
  8
0
 10
330.551
 11
330.277
 20
-7.929
 21
-8.326
  0
LINE
  8
0
 10
330.277
 11
329.916
 20
-8.326
 21
-8.646
  0
LINE
  8
0
 10
329.916
 11
329.489
 20
-8.646
 21
-8.87
  0
LINE
  8
0
 10
329.489
 11
329.021
 20
-8.87
 21
-8.985
  0
LINE
  8
0
 10
329.021
 11
328.539
 20
-8.985
 21
-8.985
  0
LINE
  8
0
 10
328.539
 11
328.071
 20
-8.985
 21
-8.87
  0
LINE
  8
0
 10
328.071
 11
327.644
 20
-8.87
 21
-8.646
  0
LINE
  8
0
 10
327.644
 11
327.283
 20
-8.646
 21
-8.326
  0
LINE
  8
0
 10
327.283
 11
327.009
 20
-8.326
 21
-7.929
  0
LINE
  8
0
 10
327.009
 11
326.838
 20
-7.929
 21
-7.479
  0
LINE
  8
0
 10
326.838
 11
326.78
 20
-7.479
 21
-7
  0
LINE
  8
0
 10
339.68
 11
339.735
 20
-8.2
 21
-7.71
  0
LINE
  8
0
 10
339.735
 11
339.898
 20
-7.71
 21
-7.245
  0
LINE
  8
0
 10
339.898
 11
340.16
 20
-7.245
 21
-6.828
  0
LINE
  8
0
 10
340.16
 11
340.508
 20
-6.828
 21
-6.48
  0
LINE
  8
0
 10
340.508
 11
340.925
 20
-6.48
 21
-6.218
  0
LINE
  8
0
 10
340.925
 11
341.39
 20
-6.218
 21
-6.055
  0
LINE
  8
0
 10
341.39
 11
341.88
 20
-6.055
 21
-6
  0
LINE
  8
0
 10
341.88
 11
342.37
 20
-6
 21
-6.055
  0
LINE
  8
0
 10
342.37
 11
342.835
 20
-6.055
 21
-6.218
  0
LINE
  8
0
 10
342.835
 11
343.252
 20
-6.218
 21
-6.48
  0
LINE
  8
0
 10
343.252
 11
343.6
 20
-6.48
 21
-6.828
  0
LINE
  8
0
 10
343.6
 11
343.862
 20
-6.828
 21
-7.245
  0
LINE
  8
0
 10
343.862
 11
344.025
 20
-7.245
 21
-7.71
  0
LINE
  8
0
 10
344.025
 11
344.08
 20
-7.71
 21
-8.2
  0
LINE
  8
0
 10
344.08
 11
344.025
 20
-8.2
 21
-8.69
  0
LINE
  8
0
 10
344.025
 11
343.862
 20
-8.69
 21
-9.155
  0
LINE
  8
0
 10
343.862
 11
343.6
 20
-9.155
 21
-9.572
  0
LINE
  8
0
 10
343.6
 11
343.252
 20
-9.572
 21
-9.92
  0
LINE
  8
0
 10
343.252
 11
342.835
 20
-9.92
 21
-10.182
  0
LINE
  8
0
 10
342.835
 11
342.37
 20
-10.182
 21
-10.345
  0
LINE
  8
0
 10
342.37
 11
341.88
 20
-10.345
 21
-10.4
  0
LINE
  8
0
 10
341.88
 11
341.39
 20
-10.4
 21
-10.345
  0
LINE
  8
0
 10
341.39
 11
340.925
 20
-10.345
 21
-10.182
  0
LINE
  8
0
 10
340.925
 11
340.508
 20
-10.182
 21
-9.92
  0
LINE
  8
0
 10
340.508
 11
340.16
 20
-9.92
 21
-9.572
  0
LINE
  8
0
 10
340.16
 11
339.898
 20
-9.572
 21
-9.155
  0
LINE
  8
0
 10
339.898
 11
339.735
 20
-9.155
 21
-8.69
  0
LINE
  8
0
 10
339.735
 11
339.68
 20
-8.69
 21
-8.2
  0
LINE
  8
0
 10
359.7
 11
359.755
 20
-8.2
 21
-7.71
  0
LINE
  8
0
 10
359.755
 11
359.918
 20
-7.71
 21
-7.245
  0
LINE
  8
0
 10
359.918
 11
360.18
 20
-7.245
 21
-6.828
  0
LINE
  8
0
 10
360.18
 11
360.528
 20
-6.828
 21
-6.48
  0
LINE
  8
0
 10
360.528
 11
360.945
 20
-6.48
 21
-6.218
  0
LINE
  8
0
 10
360.945
 11
361.41
 20
-6.218
 21
-6.055
  0
LINE
  8
0
 10
361.41
 11
361.9
 20
-6.055
 21
-6
  0
LINE
  8
0
 10
361.9
 11
362.39
 20
-6
 21
-6.055
  0
LINE
  8
0
 10
362.39
 11
362.855
 20
-6.055
 21
-6.218
  0
LINE
  8
0
 10
362.855
 11
363.272
 20
-6.218
 21
-6.48
  0
LINE
  8
0
 10
363.272
 11
363.62
 20
-6.48
 21
-6.828
  0
LINE
  8
0
 10
363.62
 11
363.882
 20
-6.828
 21
-7.245
  0
LINE
  8
0
 10
363.882
 11
364.045
 20
-7.245
 21
-7.71
  0
LINE
  8
0
 10
364.045
 11
364.1
 20
-7.71
 21
-8.2
  0
LINE
  8
0
 10
364.1
 11
364.045
 20
-8.2
 21
-8.69
  0
LINE
  8
0
 10
364.045
 11
363.882
 20
-8.69
 21
-9.155
  0
LINE
  8
0
 10
363.882
 11
363.62
 20
-9.155
 21
-9.572
  0
LINE
  8
0
 10
363.62
 11
363.272
 20
-9.572
 21
-9.92
  0
LINE
  8
0
 10
363.272
 11
362.855
 20
-9.92
 21
-10.182
  0
LINE
  8
0
 10
362.855
 11
362.39
 20
-10.182
 21
-10.345
  0
LINE
  8
0
 10
362.39
 11
361.9
 20
-10.345
 21
-10.4
  0
LINE
  8
0
 10
361.9
 11
361.41
 20
-10.4
 21
-10.345
  0
LINE
  8
0
 10
361.41
 11
360.945
 20
-10.345
 21
-10.182
  0
LINE
  8
0
 10
360.945
 11
360.528
 20
-10.182
 21
-9.92
  0
LINE
  8
0
 10
360.528
 11
360.18
 20
-9.92
 21
-9.572
  0
LINE
  8
0
 10
360.18
 11
359.918
 20
-9.572
 21
-9.155
  0
LINE
  8
0
 10
359.918
 11
359.755
 20
-9.155
 21
-8.69
  0
LINE
  8
0
 10
359.755
 11
359.7
 20
-8.69
 21
-8.2
  0
ENDSEC
  0
SECTION
  2
OBJECTS
  0
DICTIONARY
  0
ENDSEC
  0
EOF
