<?xml version="1.0"?>
<svg xmlns="http://www.w3.org/2000/svg" version="1.1" height="348mm" width="398mm" >
 <g style="fill-opacity:1.0; stroke:black; stroke-width:1;">
  <line x1="388.000000mm" y1="338.000000mm" x2="388.000000mm" y2="338.000000mm" />
  <line x1="388.000000mm" y1="338.000000mm" x2="0.000000mm" y2="338.000000mm" />
  <line x1="0.000000mm" y1="338.000000mm" x2="0.000000mm" y2="171.000000mm" />
  <line x1="0.000000mm" y1="171.000000mm" x2="388.000000mm" y2="171.000000mm" />
  <line x1="388.000000mm" y1="171.000000mm" x2="388.000000mm" y2="338.000000mm" />
  <line x1="388.000000mm" y1="167.000000mm" x2="388.000000mm" y2="167.000000mm" />
  <line x1="388.000000mm" y1="167.000000mm" x2="0.000000mm" y2="167.000000mm" />
  <line x1="0.000000mm" y1="167.000000mm" x2="0.000000mm" y2="0.000000mm" />
  <line x1="0.000000mm" y1="0.000000mm" x2="388.000000mm" y2="0.000000mm" />
  <line x1="388.000000mm" y1="0.000000mm" x2="388.000000mm" y2="167.000000mm" />
  <circle cx="8.500151mm" cy="274.499567mm" r="3.499825mm" fill="none"/>
  <line x1="15.499802mm" y1="274.499567mm" x2="1.500500mm" y2="274.499567mm" />
  <line x1="8.500151mm" y1="267.499917mm" x2="8.500151mm" y2="281.499218mm" />
  <text x="11mm" y="270mm" font-size="24">
   7.0
  </text>
  <circle cx="7.500170mm" cy="189.899939mm" r="2.500268mm" fill="none"/>
  <line x1="12.500707mm" y1="189.899939mm" x2="2.499633mm" y2="189.899939mm" />
  <line x1="7.500170mm" y1="184.899402mm" x2="7.500170mm" y2="194.900476mm" />
  <text x="10mm" y="187mm" font-size="24">
   5.0
  </text>
  <circle cx="7.000009mm" cy="261.899777mm" r="1.999983mm" fill="none"/>
  <line x1="10.999974mm" y1="261.899777mm" x2="3.000044mm" y2="261.899777mm" />
  <line x1="7.000009mm" y1="257.899812mm" x2="7.000009mm" y2="265.899742mm" />
  <text x="8mm" y="259mm" font-size="24">
   4.0
  </text>
  <circle cx="7.000009mm" cy="199.399777mm" r="1.999983mm" fill="none"/>
  <line x1="10.999974mm" y1="199.399777mm" x2="3.000044mm" y2="199.399777mm" />
  <line x1="7.000009mm" y1="195.399812mm" x2="7.000009mm" y2="203.399742mm" />
  <text x="8mm" y="197mm" font-size="24">
   4.0
  </text>
  <circle cx="8.199964mm" cy="328.299964mm" r="2.200229mm" fill="none"/>
  <line x1="12.600421mm" y1="328.299964mm" x2="3.799507mm" y2="328.299964mm" />
  <line x1="8.199964mm" y1="323.899507mm" x2="8.199964mm" y2="332.700421mm" />
  <text x="10mm" y="326mm" font-size="24">
   4.4
  </text>
  <circle cx="8.199964mm" cy="308.279964mm" r="2.200229mm" fill="none"/>
  <line x1="12.600421mm" y1="308.279964mm" x2="3.799507mm" y2="308.279964mm" />
  <line x1="8.199964mm" y1="303.879507mm" x2="8.199964mm" y2="312.680421mm" />
  <text x="10mm" y="306mm" font-size="24">
   4.4
  </text>
  <circle cx="8.199964mm" cy="29.719964mm" r="2.200229mm" fill="none"/>
  <line x1="12.600421mm" y1="29.719964mm" x2="3.799507mm" y2="29.719964mm" />
  <line x1="8.199964mm" y1="25.319507mm" x2="8.199964mm" y2="34.120421mm" />
  <text x="10mm" y="27mm" font-size="24">
   4.4
  </text>
  <circle cx="8.199964mm" cy="9.699964mm" r="2.200229mm" fill="none"/>
  <line x1="12.600421mm" y1="9.699964mm" x2="3.799507mm" y2="9.699964mm" />
  <line x1="8.199964mm" y1="5.299507mm" x2="8.199964mm" y2="14.100421mm" />
  <text x="10mm" y="7mm" font-size="24">
   4.4
  </text>
  <circle cx="26.099964mm" cy="179.199964mm" r="2.200229mm" fill="none"/>
  <line x1="30.500421mm" y1="179.199964mm" x2="21.699507mm" y2="179.199964mm" />
  <line x1="26.099964mm" y1="174.799507mm" x2="26.099964mm" y2="183.600421mm" />
  <text x="28mm" y="176mm" font-size="24">
   4.4
  </text>
  <circle cx="26.099964mm" cy="158.799964mm" r="2.200229mm" fill="none"/>
  <line x1="30.500421mm" y1="158.799964mm" x2="21.699507mm" y2="158.799964mm" />
  <line x1="26.099964mm" y1="154.399507mm" x2="26.099964mm" y2="163.200421mm" />
  <text x="28mm" y="156mm" font-size="24">
   4.4
  </text>
  <circle cx="32.899964mm" cy="330.999964mm" r="2.200229mm" fill="none"/>
  <line x1="37.300421mm" y1="330.999964mm" x2="28.499507mm" y2="330.999964mm" />
  <line x1="32.899964mm" y1="326.599507mm" x2="32.899964mm" y2="335.400421mm" />
  <text x="35mm" y="328mm" font-size="24">
   4.4
  </text>
  <circle cx="46.119964mm" cy="179.199964mm" r="2.200229mm" fill="none"/>
  <line x1="50.520421mm" y1="179.199964mm" x2="41.719507mm" y2="179.199964mm" />
  <line x1="46.119964mm" y1="174.799507mm" x2="46.119964mm" y2="183.600421mm" />
  <text x="48mm" y="176mm" font-size="24">
   4.4
  </text>
  <circle cx="46.119964mm" cy="158.799964mm" r="2.200229mm" fill="none"/>
  <line x1="50.520421mm" y1="158.799964mm" x2="41.719507mm" y2="158.799964mm" />
  <line x1="46.119964mm" y1="154.399507mm" x2="46.119964mm" y2="163.200421mm" />
  <text x="48mm" y="156mm" font-size="24">
   4.4
  </text>
  <circle cx="51.749964mm" cy="144.349964mm" r="2.200229mm" fill="none"/>
  <line x1="56.150421mm" y1="144.349964mm" x2="47.349507mm" y2="144.349964mm" />
  <line x1="51.749964mm" y1="139.949507mm" x2="51.749964mm" y2="148.750421mm" />
  <text x="53mm" y="142mm" font-size="24">
   4.4
  </text>
  <circle cx="51.749964mm" cy="72.849964mm" r="2.200229mm" fill="none"/>
  <line x1="56.150421mm" y1="72.849964mm" x2="47.349507mm" y2="72.849964mm" />
  <line x1="51.749964mm" y1="68.449507mm" x2="51.749964mm" y2="77.250421mm" />
  <text x="53mm" y="70mm" font-size="24">
   4.4
  </text>
  <circle cx="87.500225mm" cy="108.599651mm" r="37.499925mm" fill="none"/>
  <line x1="162.500075mm" y1="108.599651mm" x2="12.500375mm" y2="108.599651mm" />
  <line x1="87.500225mm" y1="33.599800mm" x2="87.500225mm" y2="183.599501mm" />
  <text x="125mm" y="71mm" font-size="24">
   75.0
  </text>
  <circle cx="123.249964mm" cy="144.349964mm" r="2.200229mm" fill="none"/>
  <line x1="127.650421mm" y1="144.349964mm" x2="118.849507mm" y2="144.349964mm" />
  <line x1="123.249964mm" y1="139.949507mm" x2="123.249964mm" y2="148.750421mm" />
  <text x="125mm" y="142mm" font-size="24">
   4.4
  </text>
  <circle cx="123.249964mm" cy="72.849964mm" r="2.200229mm" fill="none"/>
  <line x1="127.650421mm" y1="72.849964mm" x2="118.849507mm" y2="72.849964mm" />
  <line x1="123.249964mm" y1="68.449507mm" x2="123.249964mm" y2="77.250421mm" />
  <text x="125mm" y="70mm" font-size="24">
   4.4
  </text>
  <circle cx="149.899964mm" cy="330.999964mm" r="2.200229mm" fill="none"/>
  <line x1="154.300421mm" y1="330.999964mm" x2="145.499507mm" y2="330.999964mm" />
  <line x1="149.899964mm" y1="326.599507mm" x2="149.899964mm" y2="335.400421mm" />
  <text x="152mm" y="328mm" font-size="24">
   4.4
  </text>
  <circle cx="192.049590mm" cy="323.449819mm" r="1.400139mm" fill="none"/>
  <line x1="194.849868mm" y1="323.449819mm" x2="189.249311mm" y2="323.449819mm" />
  <line x1="192.049590mm" y1="320.649540mm" x2="192.049590mm" y2="326.250098mm" />
  <text x="193mm" y="322mm" font-size="24">
   2.8
  </text>
  <circle cx="192.049590mm" cy="291.949819mm" r="1.400139mm" fill="none"/>
  <line x1="194.849868mm" y1="291.949819mm" x2="189.249311mm" y2="291.949819mm" />
  <line x1="192.049590mm" y1="289.149540mm" x2="192.049590mm" y2="294.750098mm" />
  <text x="193mm" y="290mm" font-size="24">
   2.8
  </text>
  <circle cx="206.349590mm" cy="307.549819mm" r="1.400139mm" fill="none"/>
  <line x1="209.149868mm" y1="307.549819mm" x2="203.549311mm" y2="307.549819mm" />
  <line x1="206.349590mm" y1="304.749540mm" x2="206.349590mm" y2="310.350098mm" />
  <text x="207mm" y="306mm" font-size="24">
   2.8
  </text>
  <circle cx="206.349590mm" cy="276.049819mm" r="1.400139mm" fill="none"/>
  <line x1="209.149868mm" y1="276.049819mm" x2="203.549311mm" y2="276.049819mm" />
  <line x1="206.349590mm" y1="273.249540mm" x2="206.349590mm" y2="278.850098mm" />
  <text x="207mm" y="274mm" font-size="24">
   2.8
  </text>
  <circle cx="230.010037mm" cy="280.689798mm" r="1.650231mm" fill="none"/>
  <line x1="233.310499mm" y1="280.689798mm" x2="226.709575mm" y2="280.689798mm" />
  <line x1="230.010037mm" y1="277.389336mm" x2="230.010037mm" y2="283.990260mm" />
  <text x="231mm" y="279mm" font-size="24">
   3.3
  </text>
  <circle cx="230.010037mm" cy="228.309798mm" r="1.650231mm" fill="none"/>
  <line x1="233.310499mm" y1="228.309798mm" x2="226.709575mm" y2="228.309798mm" />
  <line x1="230.010037mm" y1="225.009336mm" x2="230.010037mm" y2="231.610260mm" />
  <text x="231mm" y="226mm" font-size="24">
   3.3
  </text>
  <circle cx="283.511627mm" cy="203.099813mm" r="2.199934mm" fill="none"/>
  <line x1="287.911494mm" y1="203.099813mm" x2="279.111760mm" y2="203.099813mm" />
  <line x1="283.511627mm" y1="198.699946mm" x2="283.511627mm" y2="207.499680mm" />
  <text x="285mm" y="200mm" font-size="24">
   4.4
  </text>
  <circle cx="283.511627mm" cy="78.099813mm" r="2.199934mm" fill="none"/>
  <line x1="287.911494mm" y1="78.099813mm" x2="279.111760mm" y2="78.099813mm" />
  <line x1="283.511627mm" y1="73.699946mm" x2="283.511627mm" y2="82.499680mm" />
  <text x="285mm" y="75mm" font-size="24">
   4.4
  </text>
  <circle cx="316.879808mm" cy="179.000013mm" r="2.999761mm" fill="none"/>
  <line x1="322.879330mm" y1="179.000013mm" x2="310.880285mm" y2="179.000013mm" />
  <line x1="316.879808mm" y1="173.000490mm" x2="316.879808mm" y2="184.999535mm" />
  <text x="319mm" y="176mm" font-size="24">
   6.0
  </text>
  <circle cx="316.879808mm" cy="159.000013mm" r="2.999761mm" fill="none"/>
  <line x1="322.879330mm" y1="159.000013mm" x2="310.880285mm" y2="159.000013mm" />
  <line x1="316.879808mm" y1="153.000490mm" x2="316.879808mm" y2="164.999535mm" />
  <text x="319mm" y="156mm" font-size="24">
   6.0
  </text>
  <circle cx="324.390037mm" cy="280.689798mm" r="1.650231mm" fill="none"/>
  <line x1="327.690499mm" y1="280.689798mm" x2="321.089575mm" y2="280.689798mm" />
  <line x1="324.390037mm" y1="277.389336mm" x2="324.390037mm" y2="283.990260mm" />
  <text x="326mm" y="279mm" font-size="24">
   3.3
  </text>
  <circle cx="324.390037mm" cy="228.309798mm" r="1.650231mm" fill="none"/>
  <line x1="327.690499mm" y1="228.309798mm" x2="321.089575mm" y2="228.309798mm" />
  <line x1="324.390037mm" y1="225.009336mm" x2="324.390037mm" y2="231.610260mm" />
  <text x="326mm" y="226mm" font-size="24">
   3.3
  </text>
  <circle cx="328.779818mm" cy="178.000055mm" r="2.000011mm" fill="none"/>
  <line x1="332.779840mm" y1="178.000055mm" x2="324.779795mm" y2="178.000055mm" />
  <line x1="328.779818mm" y1="174.000033mm" x2="328.779818mm" y2="182.000077mm" />
  <text x="330mm" y="176mm" font-size="24">
   4.0
  </text>
  <circle cx="328.779818mm" cy="160.000055mm" r="2.000011mm" fill="none"/>
  <line x1="332.779840mm" y1="160.000055mm" x2="324.779795mm" y2="160.000055mm" />
  <line x1="328.779818mm" y1="156.000033mm" x2="328.779818mm" y2="164.000077mm" />
  <text x="330mm" y="158mm" font-size="24">
   4.0
  </text>
  <circle cx="341.879964mm" cy="179.199964mm" r="2.200229mm" fill="none"/>
  <line x1="346.280421mm" y1="179.199964mm" x2="337.479507mm" y2="179.199964mm" />
  <line x1="341.879964mm" y1="174.799507mm" x2="341.879964mm" y2="183.600421mm" />
  <text x="344mm" y="176mm" font-size="24">
   4.4
  </text>
  <circle cx="341.879964mm" cy="158.799964mm" r="2.200229mm" fill="none"/>
  <line x1="346.280421mm" y1="158.799964mm" x2="337.479507mm" y2="158.799964mm" />
  <line x1="341.879964mm" y1="154.399507mm" x2="341.879964mm" y2="163.200421mm" />
  <text x="344mm" y="156mm" font-size="24">
   4.4
  </text>
  <circle cx="361.899964mm" cy="179.199964mm" r="2.200229mm" fill="none"/>
  <line x1="366.300421mm" y1="179.199964mm" x2="357.499507mm" y2="179.199964mm" />
  <line x1="361.899964mm" y1="174.799507mm" x2="361.899964mm" y2="183.600421mm" />
  <text x="364mm" y="176mm" font-size="24">
   4.4
  </text>
  <circle cx="361.899964mm" cy="158.799964mm" r="2.200229mm" fill="none"/>
  <line x1="366.300421mm" y1="158.799964mm" x2="357.499507mm" y2="158.799964mm" />
  <line x1="361.899964mm" y1="154.399507mm" x2="361.899964mm" y2="163.200421mm" />
  <text x="364mm" y="156mm" font-size="24">
   4.4
  </text>
 </g>
</svg>
