  0
SECTION
  2
BLOCKS
  0
ENDSEC
  0
SECTION
  2
ENTITIES
  0
LINE
  8
0
 10
0
 11
0
 20
-167.5
 21
0
  0
LINE
  8
0
 10
0
 11
388
 20
0
 21
0
  0
LINE
  8
0
 10
388
 11
388
 20
0
 21
-167.5
  0
LINE
  8
0
 10
388
 11
0
 20
-167.5
 21
-167.5
  0
LINE
  8
0
 10
5
 11
5.036
 20
-103.5
 21
-103.002
  0
LINE
  8
0
 10
5.036
 11
5.142
 20
-103.002
 21
-102.514
  0
LINE
  8
0
 10
5.142
 11
5.316
 20
-102.514
 21
-102.046
  0
LINE
  8
0
 10
5.316
 11
5.556
 20
-102.046
 21
-101.608
  0
LINE
  8
0
 10
5.556
 11
5.855
 20
-101.608
 21
-101.208
  0
LINE
  8
0
 10
5.855
 11
6.208
 20
-101.208
 21
-100.855
  0
LINE
  8
0
 10
6.208
 11
6.608
 20
-100.855
 21
-100.556
  0
LINE
  8
0
 10
6.608
 11
7.046
 20
-100.556
 21
-100.316
  0
LINE
  8
0
 10
7.046
 11
7.514
 20
-100.316
 21
-100.142
  0
LINE
  8
0
 10
7.514
 11
8.002
 20
-100.142
 21
-100.036
  0
LINE
  8
0
 10
8.002
 11
8.5
 20
-100.036
 21
-100
  0
LINE
  8
0
 10
8.5
 11
8.998
 20
-100
 21
-100.036
  0
LINE
  8
0
 10
8.998
 11
9.486
 20
-100.036
 21
-100.142
  0
LINE
  8
0
 10
9.486
 11
9.954
 20
-100.142
 21
-100.316
  0
LINE
  8
0
 10
9.954
 11
10.392
 20
-100.316
 21
-100.556
  0
LINE
  8
0
 10
10.392
 11
10.792
 20
-100.556
 21
-100.855
  0
LINE
  8
0
 10
10.792
 11
11.145
 20
-100.855
 21
-101.208
  0
LINE
  8
0
 10
11.145
 11
11.444
 20
-101.208
 21
-101.608
  0
LINE
  8
0
 10
11.444
 11
11.684
 20
-101.608
 21
-102.046
  0
LINE
  8
0
 10
11.684
 11
11.858
 20
-102.046
 21
-102.514
  0
LINE
  8
0
 10
11.858
 11
11.964
 20
-102.514
 21
-103.002
  0
LINE
  8
0
 10
11.964
 11
12
 20
-103.002
 21
-103.5
  0
LINE
  8
0
 10
12
 11
11.964
 20
-103.5
 21
-103.998
  0
LINE
  8
0
 10
11.964
 11
11.858
 20
-103.998
 21
-104.486
  0
LINE
  8
0
 10
11.858
 11
11.684
 20
-104.486
 21
-104.954
  0
LINE
  8
0
 10
11.684
 11
11.444
 20
-104.954
 21
-105.392
  0
LINE
  8
0
 10
11.444
 11
11.145
 20
-105.392
 21
-105.792
  0
LINE
  8
0
 10
11.145
 11
10.792
 20
-105.792
 21
-106.145
  0
LINE
  8
0
 10
10.792
 11
10.392
 20
-106.145
 21
-106.444
  0
LINE
  8
0
 10
10.392
 11
9.954
 20
-106.444
 21
-106.684
  0
LINE
  8
0
 10
9.954
 11
9.486
 20
-106.684
 21
-106.858
  0
LINE
  8
0
 10
9.486
 11
8.998
 20
-106.858
 21
-106.964
  0
LINE
  8
0
 10
8.998
 11
8.5
 20
-106.964
 21
-107
  0
LINE
  8
0
 10
8.5
 11
8.002
 20
-107
 21
-106.964
  0
LINE
  8
0
 10
8.002
 11
7.514
 20
-106.964
 21
-106.858
  0
LINE
  8
0
 10
7.514
 11
7.046
 20
-106.858
 21
-106.684
  0
LINE
  8
0
 10
7.046
 11
6.608
 20
-106.684
 21
-106.444
  0
LINE
  8
0
 10
6.608
 11
6.208
 20
-106.444
 21
-106.145
  0
LINE
  8
0
 10
6.208
 11
5.855
 20
-106.145
 21
-105.792
  0
LINE
  8
0
 10
5.855
 11
5.556
 20
-105.792
 21
-105.392
  0
LINE
  8
0
 10
5.556
 11
5.316
 20
-105.392
 21
-104.954
  0
LINE
  8
0
 10
5.316
 11
5.142
 20
-104.954
 21
-104.486
  0
LINE
  8
0
 10
5.142
 11
5.036
 20
-104.486
 21
-103.998
  0
LINE
  8
0
 10
5.036
 11
5
 20
-103.998
 21
-103.5
  0
LINE
  8
0
 10
5
 11
5.048
 20
-18.9
 21
-18.412
  0
LINE
  8
0
 10
5.048
 11
5.19
 20
-18.412
 21
-17.943
  0
LINE
  8
0
 10
5.19
 11
5.421
 20
-17.943
 21
-17.511
  0
LINE
  8
0
 10
5.421
 11
5.732
 20
-17.511
 21
-17.132
  0
LINE
  8
0
 10
5.732
 11
6.111
 20
-17.132
 21
-16.821
  0
LINE
  8
0
 10
6.111
 11
6.543
 20
-16.821
 21
-16.59
  0
LINE
  8
0
 10
6.543
 11
7.012
 20
-16.59
 21
-16.448
  0
LINE
  8
0
 10
7.012
 11
7.5
 20
-16.448
 21
-16.4
  0
LINE
  8
0
 10
7.5
 11
7.988
 20
-16.4
 21
-16.448
  0
LINE
  8
0
 10
7.988
 11
8.457
 20
-16.448
 21
-16.59
  0
LINE
  8
0
 10
8.457
 11
8.889
 20
-16.59
 21
-16.821
  0
LINE
  8
0
 10
8.889
 11
9.268
 20
-16.821
 21
-17.132
  0
LINE
  8
0
 10
9.268
 11
9.579
 20
-17.132
 21
-17.511
  0
LINE
  8
0
 10
9.579
 11
9.81
 20
-17.511
 21
-17.943
  0
LINE
  8
0
 10
9.81
 11
9.952
 20
-17.943
 21
-18.412
  0
LINE
  8
0
 10
9.952
 11
10
 20
-18.412
 21
-18.9
  0
LINE
  8
0
 10
10
 11
9.952
 20
-18.9
 21
-19.388
  0
LINE
  8
0
 10
9.952
 11
9.81
 20
-19.388
 21
-19.857
  0
LINE
  8
0
 10
9.81
 11
9.579
 20
-19.857
 21
-20.289
  0
LINE
  8
0
 10
9.579
 11
9.268
 20
-20.289
 21
-20.668
  0
LINE
  8
0
 10
9.268
 11
8.889
 20
-20.668
 21
-20.979
  0
LINE
  8
0
 10
8.889
 11
8.457
 20
-20.979
 21
-21.21
  0
LINE
  8
0
 10
8.457
 11
7.988
 20
-21.21
 21
-21.352
  0
LINE
  8
0
 10
7.988
 11
7.5
 20
-21.352
 21
-21.4
  0
LINE
  8
0
 10
7.5
 11
7.012
 20
-21.4
 21
-21.352
  0
LINE
  8
0
 10
7.012
 11
6.543
 20
-21.352
 21
-21.21
  0
LINE
  8
0
 10
6.543
 11
6.111
 20
-21.21
 21
-20.979
  0
LINE
  8
0
 10
6.111
 11
5.732
 20
-20.979
 21
-20.668
  0
LINE
  8
0
 10
5.732
 11
5.421
 20
-20.668
 21
-20.289
  0
LINE
  8
0
 10
5.421
 11
5.19
 20
-20.289
 21
-19.857
  0
LINE
  8
0
 10
5.19
 11
5.048
 20
-19.857
 21
-19.388
  0
LINE
  8
0
 10
5.048
 11
5
 20
-19.388
 21
-18.9
  0
LINE
  8
0
 10
5.015
 11
5.015
 20
-91.141
 21
-90.659
  0
LINE
  8
0
 10
5.015
 11
5.13
 20
-90.659
 21
-90.191
  0
LINE
  8
0
 10
5.13
 11
5.354
 20
-90.191
 21
-89.764
  0
LINE
  8
0
 10
5.354
 11
5.674
 20
-89.764
 21
-89.403
  0
LINE
  8
0
 10
5.674
 11
6.071
 20
-89.403
 21
-89.129
  0
LINE
  8
0
 10
6.071
 11
6.521
 20
-89.129
 21
-88.958
  0
LINE
  8
0
 10
6.521
 11
7
 20
-88.958
 21
-88.9
  0
LINE
  8
0
 10
7
 11
7.479
 20
-88.9
 21
-88.958
  0
LINE
  8
0
 10
7.479
 11
7.929
 20
-88.958
 21
-89.129
  0
LINE
  8
0
 10
7.929
 11
8.326
 20
-89.129
 21
-89.403
  0
LINE
  8
0
 10
8.326
 11
8.646
 20
-89.403
 21
-89.764
  0
LINE
  8
0
 10
8.646
 11
8.87
 20
-89.764
 21
-90.191
  0
LINE
  8
0
 10
8.87
 11
8.985
 20
-90.191
 21
-90.659
  0
LINE
  8
0
 10
8.985
 11
8.985
 20
-90.659
 21
-91.141
  0
LINE
  8
0
 10
8.985
 11
8.87
 20
-91.141
 21
-91.609
  0
LINE
  8
0
 10
8.87
 11
8.646
 20
-91.609
 21
-92.036
  0
LINE
  8
0
 10
8.646
 11
8.326
 20
-92.036
 21
-92.397
  0
LINE
  8
0
 10
8.326
 11
7.929
 20
-92.397
 21
-92.671
  0
LINE
  8
0
 10
7.929
 11
7.479
 20
-92.671
 21
-92.842
  0
LINE
  8
0
 10
7.479
 11
7
 20
-92.842
 21
-92.9
  0
LINE
  8
0
 10
7
 11
6.521
 20
-92.9
 21
-92.842
  0
LINE
  8
0
 10
6.521
 11
6.071
 20
-92.842
 21
-92.671
  0
LINE
  8
0
 10
6.071
 11
5.674
 20
-92.671
 21
-92.397
  0
LINE
  8
0
 10
5.674
 11
5.354
 20
-92.397
 21
-92.036
  0
LINE
  8
0
 10
5.354
 11
5.13
 20
-92.036
 21
-91.609
  0
LINE
  8
0
 10
5.13
 11
5.015
 20
-91.609
 21
-91.141
  0
LINE
  8
0
 10
5.015
 11
5.015
 20
-28.641
 21
-28.159
  0
LINE
  8
0
 10
5.015
 11
5.13
 20
-28.159
 21
-27.691
  0
LINE
  8
0
 10
5.13
 11
5.354
 20
-27.691
 21
-27.264
  0
LINE
  8
0
 10
5.354
 11
5.674
 20
-27.264
 21
-26.903
  0
LINE
  8
0
 10
5.674
 11
6.071
 20
-26.903
 21
-26.629
  0
LINE
  8
0
 10
6.071
 11
6.521
 20
-26.629
 21
-26.458
  0
LINE
  8
0
 10
6.521
 11
7
 20
-26.458
 21
-26.4
  0
LINE
  8
0
 10
7
 11
7.479
 20
-26.4
 21
-26.458
  0
LINE
  8
0
 10
7.479
 11
7.929
 20
-26.458
 21
-26.629
  0
LINE
  8
0
 10
7.929
 11
8.326
 20
-26.629
 21
-26.903
  0
LINE
  8
0
 10
8.326
 11
8.646
 20
-26.903
 21
-27.264
  0
LINE
  8
0
 10
8.646
 11
8.87
 20
-27.264
 21
-27.691
  0
LINE
  8
0
 10
8.87
 11
8.985
 20
-27.691
 21
-28.159
  0
LINE
  8
0
 10
8.985
 11
8.985
 20
-28.159
 21
-28.641
  0
LINE
  8
0
 10
8.985
 11
8.87
 20
-28.641
 21
-29.109
  0
LINE
  8
0
 10
8.87
 11
8.646
 20
-29.109
 21
-29.536
  0
LINE
  8
0
 10
8.646
 11
8.326
 20
-29.536
 21
-29.897
  0
LINE
  8
0
 10
8.326
 11
7.929
 20
-29.897
 21
-30.171
  0
LINE
  8
0
 10
7.929
 11
7.479
 20
-30.171
 21
-30.342
  0
LINE
  8
0
 10
7.479
 11
7
 20
-30.342
 21
-30.4
  0
LINE
  8
0
 10
7
 11
6.521
 20
-30.4
 21
-30.342
  0
LINE
  8
0
 10
6.521
 11
6.071
 20
-30.342
 21
-30.171
  0
LINE
  8
0
 10
6.071
 11
5.674
 20
-30.171
 21
-29.897
  0
LINE
  8
0
 10
5.674
 11
5.354
 20
-29.897
 21
-29.536
  0
LINE
  8
0
 10
5.354
 11
5.13
 20
-29.536
 21
-29.109
  0
LINE
  8
0
 10
5.13
 11
5.015
 20
-29.109
 21
-28.641
  0
LINE
  8
0
 10
6
 11
6.055
 20
-157.8
 21
-157.31
  0
LINE
  8
0
 10
6.055
 11
6.218
 20
-157.31
 21
-156.845
  0
LINE
  8
0
 10
6.218
 11
6.48
 20
-156.845
 21
-156.428
  0
LINE
  8
0
 10
6.48
 11
6.828
 20
-156.428
 21
-156.08
  0
LINE
  8
0
 10
6.828
 11
7.245
 20
-156.08
 21
-155.818
  0
LINE
  8
0
 10
7.245
 11
7.71
 20
-155.818
 21
-155.655
  0
LINE
  8
0
 10
7.71
 11
8.2
 20
-155.655
 21
-155.6
  0
LINE
  8
0
 10
8.2
 11
8.69
 20
-155.6
 21
-155.655
  0
LINE
  8
0
 10
8.69
 11
9.155
 20
-155.655
 21
-155.818
  0
LINE
  8
0
 10
9.155
 11
9.572
 20
-155.818
 21
-156.08
  0
LINE
  8
0
 10
9.572
 11
9.92
 20
-156.08
 21
-156.428
  0
LINE
  8
0
 10
9.92
 11
10.182
 20
-156.428
 21
-156.845
  0
LINE
  8
0
 10
10.182
 11
10.345
 20
-156.845
 21
-157.31
  0
LINE
  8
0
 10
10.345
 11
10.4
 20
-157.31
 21
-157.8
  0
LINE
  8
0
 10
10.4
 11
10.345
 20
-157.8
 21
-158.29
  0
LINE
  8
0
 10
10.345
 11
10.182
 20
-158.29
 21
-158.755
  0
LINE
  8
0
 10
10.182
 11
9.92
 20
-158.755
 21
-159.172
  0
LINE
  8
0
 10
9.92
 11
9.572
 20
-159.172
 21
-159.52
  0
LINE
  8
0
 10
9.572
 11
9.155
 20
-159.52
 21
-159.782
  0
LINE
  8
0
 10
9.155
 11
8.69
 20
-159.782
 21
-159.945
  0
LINE
  8
0
 10
8.69
 11
8.2
 20
-159.945
 21
-160
  0
LINE
  8
0
 10
8.2
 11
7.71
 20
-160
 21
-159.945
  0
LINE
  8
0
 10
7.71
 11
7.245
 20
-159.945
 21
-159.782
  0
LINE
  8
0
 10
7.245
 11
6.828
 20
-159.782
 21
-159.52
  0
LINE
  8
0
 10
6.828
 11
6.48
 20
-159.52
 21
-159.172
  0
LINE
  8
0
 10
6.48
 11
6.218
 20
-159.172
 21
-158.755
  0
LINE
  8
0
 10
6.218
 11
6.055
 20
-158.755
 21
-158.29
  0
LINE
  8
0
 10
6.055
 11
6
 20
-158.29
 21
-157.8
  0
LINE
  8
0
 10
6
 11
6.055
 20
-137.78
 21
-137.29
  0
LINE
  8
0
 10
6.055
 11
6.218
 20
-137.29
 21
-136.825
  0
LINE
  8
0
 10
6.218
 11
6.48
 20
-136.825
 21
-136.408
  0
LINE
  8
0
 10
6.48
 11
6.828
 20
-136.408
 21
-136.06
  0
LINE
  8
0
 10
6.828
 11
7.245
 20
-136.06
 21
-135.798
  0
LINE
  8
0
 10
7.245
 11
7.71
 20
-135.798
 21
-135.635
  0
LINE
  8
0
 10
7.71
 11
8.2
 20
-135.635
 21
-135.58
  0
LINE
  8
0
 10
8.2
 11
8.69
 20
-135.58
 21
-135.635
  0
LINE
  8
0
 10
8.69
 11
9.155
 20
-135.635
 21
-135.798
  0
LINE
  8
0
 10
9.155
 11
9.572
 20
-135.798
 21
-136.06
  0
LINE
  8
0
 10
9.572
 11
9.92
 20
-136.06
 21
-136.408
  0
LINE
  8
0
 10
9.92
 11
10.182
 20
-136.408
 21
-136.825
  0
LINE
  8
0
 10
10.182
 11
10.345
 20
-136.825
 21
-137.29
  0
LINE
  8
0
 10
10.345
 11
10.4
 20
-137.29
 21
-137.78
  0
LINE
  8
0
 10
10.4
 11
10.345
 20
-137.78
 21
-138.27
  0
LINE
  8
0
 10
10.345
 11
10.182
 20
-138.27
 21
-138.735
  0
LINE
  8
0
 10
10.182
 11
9.92
 20
-138.735
 21
-139.152
  0
LINE
  8
0
 10
9.92
 11
9.572
 20
-139.152
 21
-139.5
  0
LINE
  8
0
 10
9.572
 11
9.155
 20
-139.5
 21
-139.762
  0
LINE
  8
0
 10
9.155
 11
8.69
 20
-139.762
 21
-139.925
  0
LINE
  8
0
 10
8.69
 11
8.2
 20
-139.925
 21
-139.98
  0
LINE
  8
0
 10
8.2
 11
7.71
 20
-139.98
 21
-139.925
  0
LINE
  8
0
 10
7.71
 11
7.245
 20
-139.925
 21
-139.762
  0
LINE
  8
0
 10
7.245
 11
6.828
 20
-139.762
 21
-139.5
  0
LINE
  8
0
 10
6.828
 11
6.48
 20
-139.5
 21
-139.152
  0
LINE
  8
0
 10
6.48
 11
6.218
 20
-139.152
 21
-138.735
  0
LINE
  8
0
 10
6.218
 11
6.055
 20
-138.735
 21
-138.27
  0
LINE
  8
0
 10
6.055
 11
6
 20
-138.27
 21
-137.78
  0
LINE
  8
0
 10
23.9
 11
23.955
 20
-8.2
 21
-7.71
  0
LINE
  8
0
 10
23.955
 11
24.118
 20
-7.71
 21
-7.245
  0
LINE
  8
0
 10
24.118
 11
24.38
 20
-7.245
 21
-6.828
  0
LINE
  8
0
 10
24.38
 11
24.728
 20
-6.828
 21
-6.48
  0
LINE
  8
0
 10
24.728
 11
25.145
 20
-6.48
 21
-6.218
  0
LINE
  8
0
 10
25.145
 11
25.61
 20
-6.218
 21
-6.055
  0
LINE
  8
0
 10
25.61
 11
26.1
 20
-6.055
 21
-6
  0
LINE
  8
0
 10
26.1
 11
26.59
 20
-6
 21
-6.055
  0
LINE
  8
0
 10
26.59
 11
27.055
 20
-6.055
 21
-6.218
  0
LINE
  8
0
 10
27.055
 11
27.472
 20
-6.218
 21
-6.48
  0
LINE
  8
0
 10
27.472
 11
27.82
 20
-6.48
 21
-6.828
  0
LINE
  8
0
 10
27.82
 11
28.082
 20
-6.828
 21
-7.245
  0
LINE
  8
0
 10
28.082
 11
28.245
 20
-7.245
 21
-7.71
  0
LINE
  8
0
 10
28.245
 11
28.3
 20
-7.71
 21
-8.2
  0
LINE
  8
0
 10
28.3
 11
28.245
 20
-8.2
 21
-8.69
  0
LINE
  8
0
 10
28.245
 11
28.082
 20
-8.69
 21
-9.155
  0
LINE
  8
0
 10
28.082
 11
27.82
 20
-9.155
 21
-9.572
  0
LINE
  8
0
 10
27.82
 11
27.472
 20
-9.572
 21
-9.92
  0
LINE
  8
0
 10
27.472
 11
27.055
 20
-9.92
 21
-10.182
  0
LINE
  8
0
 10
27.055
 11
26.59
 20
-10.182
 21
-10.345
  0
LINE
  8
0
 10
26.59
 11
26.1
 20
-10.345
 21
-10.4
  0
LINE
  8
0
 10
26.1
 11
25.61
 20
-10.4
 21
-10.345
  0
LINE
  8
0
 10
25.61
 11
25.145
 20
-10.345
 21
-10.182
  0
LINE
  8
0
 10
25.145
 11
24.728
 20
-10.182
 21
-9.92
  0
LINE
  8
0
 10
24.728
 11
24.38
 20
-9.92
 21
-9.572
  0
LINE
  8
0
 10
24.38
 11
24.118
 20
-9.572
 21
-9.155
  0
LINE
  8
0
 10
24.118
 11
23.955
 20
-9.155
 21
-8.69
  0
LINE
  8
0
 10
23.955
 11
23.9
 20
-8.69
 21
-8.2
  0
LINE
  8
0
 10
30.7
 11
30.755
 20
-160.5
 21
-160.01
  0
LINE
  8
0
 10
30.755
 11
30.918
 20
-160.01
 21
-159.545
  0
LINE
  8
0
 10
30.918
 11
31.18
 20
-159.545
 21
-159.128
  0
LINE
  8
0
 10
31.18
 11
31.528
 20
-159.128
 21
-158.78
  0
LINE
  8
0
 10
31.528
 11
31.945
 20
-158.78
 21
-158.518
  0
LINE
  8
0
 10
31.945
 11
32.41
 20
-158.518
 21
-158.355
  0
LINE
  8
0
 10
32.41
 11
32.9
 20
-158.355
 21
-158.3
  0
LINE
  8
0
 10
32.9
 11
33.39
 20
-158.3
 21
-158.355
  0
LINE
  8
0
 10
33.39
 11
33.855
 20
-158.355
 21
-158.518
  0
LINE
  8
0
 10
33.855
 11
34.272
 20
-158.518
 21
-158.78
  0
LINE
  8
0
 10
34.272
 11
34.62
 20
-158.78
 21
-159.128
  0
LINE
  8
0
 10
34.62
 11
34.882
 20
-159.128
 21
-159.545
  0
LINE
  8
0
 10
34.882
 11
35.045
 20
-159.545
 21
-160.01
  0
LINE
  8
0
 10
35.045
 11
35.1
 20
-160.01
 21
-160.5
  0
LINE
  8
0
 10
35.1
 11
35.045
 20
-160.5
 21
-160.99
  0
LINE
  8
0
 10
35.045
 11
34.882
 20
-160.99
 21
-161.455
  0
LINE
  8
0
 10
34.882
 11
34.62
 20
-161.455
 21
-161.872
  0
LINE
  8
0
 10
34.62
 11
34.272
 20
-161.872
 21
-162.22
  0
LINE
  8
0
 10
34.272
 11
33.855
 20
-162.22
 21
-162.482
  0
LINE
  8
0
 10
33.855
 11
33.39
 20
-162.482
 21
-162.645
  0
LINE
  8
0
 10
33.39
 11
32.9
 20
-162.645
 21
-162.7
  0
LINE
  8
0
 10
32.9
 11
32.41
 20
-162.7
 21
-162.645
  0
LINE
  8
0
 10
32.41
 11
31.945
 20
-162.645
 21
-162.482
  0
LINE
  8
0
 10
31.945
 11
31.528
 20
-162.482
 21
-162.22
  0
LINE
  8
0
 10
31.528
 11
31.18
 20
-162.22
 21
-161.872
  0
LINE
  8
0
 10
31.18
 11
30.918
 20
-161.872
 21
-161.455
  0
LINE
  8
0
 10
30.918
 11
30.755
 20
-161.455
 21
-160.99
  0
LINE
  8
0
 10
30.755
 11
30.7
 20
-160.99
 21
-160.5
  0
LINE
  8
0
 10
43.92
 11
43.975
 20
-8.2
 21
-7.71
  0
LINE
  8
0
 10
43.975
 11
44.138
 20
-7.71
 21
-7.245
  0
LINE
  8
0
 10
44.138
 11
44.4
 20
-7.245
 21
-6.828
  0
LINE
  8
0
 10
44.4
 11
44.748
 20
-6.828
 21
-6.48
  0
LINE
  8
0
 10
44.748
 11
45.165
 20
-6.48
 21
-6.218
  0
LINE
  8
0
 10
45.165
 11
45.63
 20
-6.218
 21
-6.055
  0
LINE
  8
0
 10
45.63
 11
46.12
 20
-6.055
 21
-6
  0
LINE
  8
0
 10
46.12
 11
46.61
 20
-6
 21
-6.055
  0
LINE
  8
0
 10
46.61
 11
47.075
 20
-6.055
 21
-6.218
  0
LINE
  8
0
 10
47.075
 11
47.492
 20
-6.218
 21
-6.48
  0
LINE
  8
0
 10
47.492
 11
47.84
 20
-6.48
 21
-6.828
  0
LINE
  8
0
 10
47.84
 11
48.102
 20
-6.828
 21
-7.245
  0
LINE
  8
0
 10
48.102
 11
48.265
 20
-7.245
 21
-7.71
  0
LINE
  8
0
 10
48.265
 11
48.32
 20
-7.71
 21
-8.2
  0
LINE
  8
0
 10
48.32
 11
48.265
 20
-8.2
 21
-8.69
  0
LINE
  8
0
 10
48.265
 11
48.102
 20
-8.69
 21
-9.155
  0
LINE
  8
0
 10
48.102
 11
47.84
 20
-9.155
 21
-9.572
  0
LINE
  8
0
 10
47.84
 11
47.492
 20
-9.572
 21
-9.92
  0
LINE
  8
0
 10
47.492
 11
47.075
 20
-9.92
 21
-10.182
  0
LINE
  8
0
 10
47.075
 11
46.61
 20
-10.182
 21
-10.345
  0
LINE
  8
0
 10
46.61
 11
46.12
 20
-10.345
 21
-10.4
  0
LINE
  8
0
 10
46.12
 11
45.63
 20
-10.4
 21
-10.345
  0
LINE
  8
0
 10
45.63
 11
45.165
 20
-10.345
 21
-10.182
  0
LINE
  8
0
 10
45.165
 11
44.748
 20
-10.182
 21
-9.92
  0
LINE
  8
0
 10
44.748
 11
44.4
 20
-9.92
 21
-9.572
  0
LINE
  8
0
 10
44.4
 11
44.138
 20
-9.572
 21
-9.155
  0
LINE
  8
0
 10
44.138
 11
43.975
 20
-9.155
 21
-8.69
  0
LINE
  8
0
 10
43.975
 11
43.92
 20
-8.69
 21
-8.2
  0
LINE
  8
0
 10
147.7
 11
147.755
 20
-160.5
 21
-160.01
  0
LINE
  8
0
 10
147.755
 11
147.918
 20
-160.01
 21
-159.545
  0
LINE
  8
0
 10
147.918
 11
148.18
 20
-159.545
 21
-159.128
  0
LINE
  8
0
 10
148.18
 11
148.528
 20
-159.128
 21
-158.78
  0
LINE
  8
0
 10
148.528
 11
148.945
 20
-158.78
 21
-158.518
  0
LINE
  8
0
 10
148.945
 11
149.41
 20
-158.518
 21
-158.355
  0
LINE
  8
0
 10
149.41
 11
149.9
 20
-158.355
 21
-158.3
  0
LINE
  8
0
 10
149.9
 11
150.39
 20
-158.3
 21
-158.355
  0
LINE
  8
0
 10
150.39
 11
150.855
 20
-158.355
 21
-158.518
  0
LINE
  8
0
 10
150.855
 11
151.272
 20
-158.518
 21
-158.78
  0
LINE
  8
0
 10
151.272
 11
151.62
 20
-158.78
 21
-159.128
  0
LINE
  8
0
 10
151.62
 11
151.882
 20
-159.128
 21
-159.545
  0
LINE
  8
0
 10
151.882
 11
152.045
 20
-159.545
 21
-160.01
  0
LINE
  8
0
 10
152.045
 11
152.1
 20
-160.01
 21
-160.5
  0
LINE
  8
0
 10
152.1
 11
152.045
 20
-160.5
 21
-160.99
  0
LINE
  8
0
 10
152.045
 11
151.882
 20
-160.99
 21
-161.455
  0
LINE
  8
0
 10
151.882
 11
151.62
 20
-161.455
 21
-161.872
  0
LINE
  8
0
 10
151.62
 11
151.272
 20
-161.872
 21
-162.22
  0
LINE
  8
0
 10
151.272
 11
150.855
 20
-162.22
 21
-162.482
  0
LINE
  8
0
 10
150.855
 11
150.39
 20
-162.482
 21
-162.645
  0
LINE
  8
0
 10
150.39
 11
149.9
 20
-162.645
 21
-162.7
  0
LINE
  8
0
 10
149.9
 11
149.41
 20
-162.7
 21
-162.645
  0
LINE
  8
0
 10
149.41
 11
148.945
 20
-162.645
 21
-162.482
  0
LINE
  8
0
 10
148.945
 11
148.528
 20
-162.482
 21
-162.22
  0
LINE
  8
0
 10
148.528
 11
148.18
 20
-162.22
 21
-161.872
  0
LINE
  8
0
 10
148.18
 11
147.918
 20
-161.872
 21
-161.455
  0
LINE
  8
0
 10
147.918
 11
147.755
 20
-161.455
 21
-160.99
  0
LINE
  8
0
 10
147.755
 11
147.7
 20
-160.99
 21
-160.5
  0
LINE
  8
0
 10
190.65
 11
190.734
 20
-152.95
 21
-152.471
  0
LINE
  8
0
 10
190.734
 11
190.978
 20
-152.471
 21
-152.05
  0
LINE
  8
0
 10
190.978
 11
191.35
 20
-152.05
 21
-151.738
  0
LINE
  8
0
 10
191.35
 11
191.807
 20
-151.738
 21
-151.571
  0
LINE
  8
0
 10
191.807
 11
192.293
 20
-151.571
 21
-151.571
  0
LINE
  8
0
 10
192.293
 11
192.75
 20
-151.571
 21
-151.738
  0
LINE
  8
0
 10
192.75
 11
193.122
 20
-151.738
 21
-152.05
  0
LINE
  8
0
 10
193.122
 11
193.366
 20
-152.05
 21
-152.471
  0
LINE
  8
0
 10
193.366
 11
193.45
 20
-152.471
 21
-152.95
  0
LINE
  8
0
 10
193.45
 11
193.366
 20
-152.95
 21
-153.429
  0
LINE
  8
0
 10
193.366
 11
193.122
 20
-153.429
 21
-153.85
  0
LINE
  8
0
 10
193.122
 11
192.75
 20
-153.85
 21
-154.162
  0
LINE
  8
0
 10
192.75
 11
192.293
 20
-154.162
 21
-154.329
  0
LINE
  8
0
 10
192.293
 11
191.807
 20
-154.329
 21
-154.329
  0
LINE
  8
0
 10
191.807
 11
191.35
 20
-154.329
 21
-154.162
  0
LINE
  8
0
 10
191.35
 11
190.978
 20
-154.162
 21
-153.85
  0
LINE
  8
0
 10
190.978
 11
190.734
 20
-153.85
 21
-153.429
  0
LINE
  8
0
 10
190.734
 11
190.65
 20
-153.429
 21
-152.95
  0
LINE
  8
0
 10
190.65
 11
190.734
 20
-121.45
 21
-120.971
  0
LINE
  8
0
 10
190.734
 11
190.978
 20
-120.971
 21
-120.55
  0
LINE
  8
0
 10
190.978
 11
191.35
 20
-120.55
 21
-120.238
  0
LINE
  8
0
 10
191.35
 11
191.807
 20
-120.238
 21
-120.071
  0
LINE
  8
0
 10
191.807
 11
192.293
 20
-120.071
 21
-120.071
  0
LINE
  8
0
 10
192.293
 11
192.75
 20
-120.071
 21
-120.238
  0
LINE
  8
0
 10
192.75
 11
193.122
 20
-120.238
 21
-120.55
  0
LINE
  8
0
 10
193.122
 11
193.366
 20
-120.55
 21
-120.971
  0
LINE
  8
0
 10
193.366
 11
193.45
 20
-120.971
 21
-121.45
  0
LINE
  8
0
 10
193.45
 11
193.366
 20
-121.45
 21
-121.929
  0
LINE
  8
0
 10
193.366
 11
193.122
 20
-121.929
 21
-122.35
  0
LINE
  8
0
 10
193.122
 11
192.75
 20
-122.35
 21
-122.662
  0
LINE
  8
0
 10
192.75
 11
192.293
 20
-122.662
 21
-122.829
  0
LINE
  8
0
 10
192.293
 11
191.807
 20
-122.829
 21
-122.829
  0
LINE
  8
0
 10
191.807
 11
191.35
 20
-122.829
 21
-122.662
  0
LINE
  8
0
 10
191.35
 11
190.978
 20
-122.662
 21
-122.35
  0
LINE
  8
0
 10
190.978
 11
190.734
 20
-122.35
 21
-121.929
  0
LINE
  8
0
 10
190.734
 11
190.65
 20
-121.929
 21
-121.45
  0
LINE
  8
0
 10
204.95
 11
205.034
 20
-137.05
 21
-136.571
  0
LINE
  8
0
 10
205.034
 11
205.278
 20
-136.571
 21
-136.15
  0
LINE
  8
0
 10
205.278
 11
205.65
 20
-136.15
 21
-135.838
  0
LINE
  8
0
 10
205.65
 11
206.107
 20
-135.838
 21
-135.671
  0
LINE
  8
0
 10
206.107
 11
206.593
 20
-135.671
 21
-135.671
  0
LINE
  8
0
 10
206.593
 11
207.05
 20
-135.671
 21
-135.838
  0
LINE
  8
0
 10
207.05
 11
207.422
 20
-135.838
 21
-136.15
  0
LINE
  8
0
 10
207.422
 11
207.666
 20
-136.15
 21
-136.571
  0
LINE
  8
0
 10
207.666
 11
207.75
 20
-136.571
 21
-137.05
  0
LINE
  8
0
 10
207.75
 11
207.666
 20
-137.05
 21
-137.529
  0
LINE
  8
0
 10
207.666
 11
207.422
 20
-137.529
 21
-137.95
  0
LINE
  8
0
 10
207.422
 11
207.05
 20
-137.95
 21
-138.262
  0
LINE
  8
0
 10
207.05
 11
206.593
 20
-138.262
 21
-138.429
  0
LINE
  8
0
 10
206.593
 11
206.107
 20
-138.429
 21
-138.429
  0
LINE
  8
0
 10
206.107
 11
205.65
 20
-138.429
 21
-138.262
  0
LINE
  8
0
 10
205.65
 11
205.278
 20
-138.262
 21
-137.95
  0
LINE
  8
0
 10
205.278
 11
205.034
 20
-137.95
 21
-137.529
  0
LINE
  8
0
 10
205.034
 11
204.95
 20
-137.529
 21
-137.05
  0
LINE
  8
0
 10
204.95
 11
205.034
 20
-105.55
 21
-105.071
  0
LINE
  8
0
 10
205.034
 11
205.278
 20
-105.071
 21
-104.65
  0
LINE
  8
0
 10
205.278
 11
205.65
 20
-104.65
 21
-104.338
  0
LINE
  8
0
 10
205.65
 11
206.107
 20
-104.338
 21
-104.171
  0
LINE
  8
0
 10
206.107
 11
206.593
 20
-104.171
 21
-104.171
  0
LINE
  8
0
 10
206.593
 11
207.05
 20
-104.171
 21
-104.338
  0
LINE
  8
0
 10
207.05
 11
207.422
 20
-104.338
 21
-104.65
  0
LINE
  8
0
 10
207.422
 11
207.666
 20
-104.65
 21
-105.071
  0
LINE
  8
0
 10
207.666
 11
207.75
 20
-105.071
 21
-105.55
  0
LINE
  8
0
 10
207.75
 11
207.666
 20
-105.55
 21
-106.029
  0
LINE
  8
0
 10
207.666
 11
207.422
 20
-106.029
 21
-106.45
  0
LINE
  8
0
 10
207.422
 11
207.05
 20
-106.45
 21
-106.762
  0
LINE
  8
0
 10
207.05
 11
206.593
 20
-106.762
 21
-106.929
  0
LINE
  8
0
 10
206.593
 11
206.107
 20
-106.929
 21
-106.929
  0
LINE
  8
0
 10
206.107
 11
205.65
 20
-106.929
 21
-106.762
  0
LINE
  8
0
 10
205.65
 11
205.278
 20
-106.762
 21
-106.45
  0
LINE
  8
0
 10
205.278
 11
205.034
 20
-106.45
 21
-106.029
  0
LINE
  8
0
 10
205.034
 11
204.95
 20
-106.029
 21
-105.55
  0
LINE
  8
0
 10
238.725
 11
238.761
 20
-108.003
 21
-107.513
  0
LINE
  8
0
 10
238.761
 11
238.941
 20
-107.513
 21
-107.055
  0
LINE
  8
0
 10
238.941
 11
239.248
 20
-107.055
 21
-106.67
  0
LINE
  8
0
 10
239.248
 11
239.654
 20
-106.67
 21
-106.393
  0
LINE
  8
0
 10
239.654
 11
240.124
 20
-106.393
 21
-106.248
  0
LINE
  8
0
 10
240.124
 11
240.616
 20
-106.248
 21
-106.248
  0
LINE
  8
0
 10
240.616
 11
241.086
 20
-106.248
 21
-106.393
  0
LINE
  8
0
 10
241.086
 11
241.492
 20
-106.393
 21
-106.67
  0
LINE
  8
0
 10
241.492
 11
241.799
 20
-106.67
 21
-107.055
  0
LINE
  8
0
 10
241.799
 11
241.979
 20
-107.055
 21
-107.513
  0
LINE
  8
0
 10
241.979
 11
242.015
 20
-107.513
 21
-108.003
  0
LINE
  8
0
 10
242.015
 11
241.906
 20
-108.003
 21
-108.483
  0
LINE
  8
0
 10
241.906
 11
241.66
 20
-108.483
 21
-108.909
  0
LINE
  8
0
 10
241.66
 11
241.299
 20
-108.909
 21
-109.243
  0
LINE
  8
0
 10
241.299
 11
240.856
 20
-109.243
 21
-109.457
  0
LINE
  8
0
 10
240.856
 11
240.37
 20
-109.457
 21
-109.53
  0
LINE
  8
0
 10
240.37
 11
239.884
 20
-109.53
 21
-109.457
  0
LINE
  8
0
 10
239.884
 11
239.441
 20
-109.457
 21
-109.243
  0
LINE
  8
0
 10
239.441
 11
239.08
 20
-109.243
 21
-108.909
  0
LINE
  8
0
 10
239.08
 11
238.834
 20
-108.909
 21
-108.483
  0
LINE
  8
0
 10
238.834
 11
238.725
 20
-108.483
 21
-108.003
  0
LINE
  8
0
 10
239.995
 11
240.031
 20
-59.743
 21
-59.253
  0
LINE
  8
0
 10
240.031
 11
240.211
 20
-59.253
 21
-58.795
  0
LINE
  8
0
 10
240.211
 11
240.518
 20
-58.795
 21
-58.41
  0
LINE
  8
0
 10
240.518
 11
240.924
 20
-58.41
 21
-58.133
  0
LINE
  8
0
 10
240.924
 11
241.394
 20
-58.133
 21
-57.988
  0
LINE
  8
0
 10
241.394
 11
241.886
 20
-57.988
 21
-57.988
  0
LINE
  8
0
 10
241.886
 11
242.356
 20
-57.988
 21
-58.133
  0
LINE
  8
0
 10
242.356
 11
242.762
 20
-58.133
 21
-58.41
  0
LINE
  8
0
 10
242.762
 11
243.069
 20
-58.41
 21
-58.795
  0
LINE
  8
0
 10
243.069
 11
243.249
 20
-58.795
 21
-59.253
  0
LINE
  8
0
 10
243.249
 11
243.285
 20
-59.253
 21
-59.743
  0
LINE
  8
0
 10
243.285
 11
243.176
 20
-59.743
 21
-60.223
  0
LINE
  8
0
 10
243.176
 11
242.93
 20
-60.223
 21
-60.649
  0
LINE
  8
0
 10
242.93
 11
242.569
 20
-60.649
 21
-60.983
  0
LINE
  8
0
 10
242.569
 11
242.126
 20
-60.983
 21
-61.197
  0
LINE
  8
0
 10
242.126
 11
241.64
 20
-61.197
 21
-61.27
  0
LINE
  8
0
 10
241.64
 11
241.154
 20
-61.27
 21
-61.197
  0
LINE
  8
0
 10
241.154
 11
240.711
 20
-61.197
 21
-60.983
  0
LINE
  8
0
 10
240.711
 11
240.35
 20
-60.983
 21
-60.649
  0
LINE
  8
0
 10
240.35
 11
240.104
 20
-60.649
 21
-60.223
  0
LINE
  8
0
 10
240.104
 11
239.995
 20
-60.223
 21
-59.743
  0
LINE
  8
0
 10
281.312
 11
281.367
 20
-32.1
 21
-31.61
  0
LINE
  8
0
 10
281.367
 11
281.529
 20
-31.61
 21
-31.145
  0
LINE
  8
0
 10
281.529
 11
281.792
 20
-31.145
 21
-30.728
  0
LINE
  8
0
 10
281.792
 11
282.14
 20
-30.728
 21
-30.38
  0
LINE
  8
0
 10
282.14
 11
282.557
 20
-30.38
 21
-30.118
  0
LINE
  8
0
 10
282.557
 11
283.022
 20
-30.118
 21
-29.955
  0
LINE
  8
0
 10
283.022
 11
283.512
 20
-29.955
 21
-29.9
  0
LINE
  8
0
 10
283.512
 11
284.001
 20
-29.9
 21
-29.955
  0
LINE
  8
0
 10
284.001
 11
284.466
 20
-29.955
 21
-30.118
  0
LINE
  8
0
 10
284.466
 11
284.883
 20
-30.118
 21
-30.38
  0
LINE
  8
0
 10
284.883
 11
285.232
 20
-30.38
 21
-30.728
  0
LINE
  8
0
 10
285.232
 11
285.494
 20
-30.728
 21
-31.145
  0
LINE
  8
0
 10
285.494
 11
285.656
 20
-31.145
 21
-31.61
  0
LINE
  8
0
 10
285.656
 11
285.712
 20
-31.61
 21
-32.1
  0
LINE
  8
0
 10
285.712
 11
285.656
 20
-32.1
 21
-32.59
  0
LINE
  8
0
 10
285.656
 11
285.494
 20
-32.59
 21
-33.055
  0
LINE
  8
0
 10
285.494
 11
285.232
 20
-33.055
 21
-33.472
  0
LINE
  8
0
 10
285.232
 11
284.883
 20
-33.472
 21
-33.82
  0
LINE
  8
0
 10
284.883
 11
284.466
 20
-33.82
 21
-34.082
  0
LINE
  8
0
 10
284.466
 11
284.001
 20
-34.082
 21
-34.245
  0
LINE
  8
0
 10
284.001
 11
283.512
 20
-34.245
 21
-34.3
  0
LINE
  8
0
 10
283.512
 11
283.022
 20
-34.3
 21
-34.245
  0
LINE
  8
0
 10
283.022
 11
282.557
 20
-34.245
 21
-34.082
  0
LINE
  8
0
 10
282.557
 11
282.14
 20
-34.082
 21
-33.82
  0
LINE
  8
0
 10
282.14
 11
281.792
 20
-33.82
 21
-33.472
  0
LINE
  8
0
 10
281.792
 11
281.529
 20
-33.472
 21
-33.055
  0
LINE
  8
0
 10
281.529
 11
281.367
 20
-33.055
 21
-32.59
  0
LINE
  8
0
 10
281.367
 11
281.312
 20
-32.59
 21
-32.1
  0
LINE
  8
0
 10
290.795
 11
290.831
 20
-102.923
 21
-102.433
  0
LINE
  8
0
 10
290.831
 11
291.011
 20
-102.433
 21
-101.975
  0
LINE
  8
0
 10
291.011
 11
291.318
 20
-101.975
 21
-101.59
  0
LINE
  8
0
 10
291.318
 11
291.724
 20
-101.59
 21
-101.313
  0
LINE
  8
0
 10
291.724
 11
292.194
 20
-101.313
 21
-101.168
  0
LINE
  8
0
 10
292.194
 11
292.686
 20
-101.168
 21
-101.168
  0
LINE
  8
0
 10
292.686
 11
293.156
 20
-101.168
 21
-101.313
  0
LINE
  8
0
 10
293.156
 11
293.562
 20
-101.313
 21
-101.59
  0
LINE
  8
0
 10
293.562
 11
293.869
 20
-101.59
 21
-101.975
  0
LINE
  8
0
 10
293.869
 11
294.049
 20
-101.975
 21
-102.433
  0
LINE
  8
0
 10
294.049
 11
294.085
 20
-102.433
 21
-102.923
  0
LINE
  8
0
 10
294.085
 11
293.976
 20
-102.923
 21
-103.403
  0
LINE
  8
0
 10
293.976
 11
293.73
 20
-103.403
 21
-103.829
  0
LINE
  8
0
 10
293.73
 11
293.369
 20
-103.829
 21
-104.163
  0
LINE
  8
0
 10
293.369
 11
292.926
 20
-104.163
 21
-104.377
  0
LINE
  8
0
 10
292.926
 11
292.44
 20
-104.377
 21
-104.45
  0
LINE
  8
0
 10
292.44
 11
291.954
 20
-104.45
 21
-104.377
  0
LINE
  8
0
 10
291.954
 11
291.511
 20
-104.377
 21
-104.163
  0
LINE
  8
0
 10
291.511
 11
291.15
 20
-104.163
 21
-103.829
  0
LINE
  8
0
 10
291.15
 11
290.904
 20
-103.829
 21
-103.403
  0
LINE
  8
0
 10
290.904
 11
290.795
 20
-103.403
 21
-102.923
  0
LINE
  8
0
 10
290.795
 11
290.831
 20
-74.983
 21
-74.493
  0
LINE
  8
0
 10
290.831
 11
291.011
 20
-74.493
 21
-74.035
  0
LINE
  8
0
 10
291.011
 11
291.318
 20
-74.035
 21
-73.65
  0
LINE
  8
0
 10
291.318
 11
291.724
 20
-73.65
 21
-73.373
  0
LINE
  8
0
 10
291.724
 11
292.194
 20
-73.373
 21
-73.228
  0
LINE
  8
0
 10
292.194
 11
292.686
 20
-73.228
 21
-73.228
  0
LINE
  8
0
 10
292.686
 11
293.156
 20
-73.228
 21
-73.373
  0
LINE
  8
0
 10
293.156
 11
293.562
 20
-73.373
 21
-73.65
  0
LINE
  8
0
 10
293.562
 11
293.869
 20
-73.65
 21
-74.035
  0
LINE
  8
0
 10
293.869
 11
294.049
 20
-74.035
 21
-74.493
  0
LINE
  8
0
 10
294.049
 11
294.085
 20
-74.493
 21
-74.983
  0
LINE
  8
0
 10
294.085
 11
293.976
 20
-74.983
 21
-75.463
  0
LINE
  8
0
 10
293.976
 11
293.73
 20
-75.463
 21
-75.889
  0
LINE
  8
0
 10
293.73
 11
293.369
 20
-75.889
 21
-76.223
  0
LINE
  8
0
 10
293.369
 11
292.926
 20
-76.223
 21
-76.437
  0
LINE
  8
0
 10
292.926
 11
292.44
 20
-76.437
 21
-76.51
  0
LINE
  8
0
 10
292.44
 11
291.954
 20
-76.51
 21
-76.437
  0
LINE
  8
0
 10
291.954
 11
291.511
 20
-76.437
 21
-76.223
  0
LINE
  8
0
 10
291.511
 11
291.15
 20
-76.223
 21
-75.889
  0
LINE
  8
0
 10
291.15
 11
290.904
 20
-75.889
 21
-75.463
  0
LINE
  8
0
 10
290.904
 11
290.795
 20
-75.463
 21
-74.983
  0
LINE
  8
0
 10
313.88
 11
313.921
 20
-8
 21
-7.506
  0
LINE
  8
0
 10
313.921
 11
314.043
 20
-7.506
 21
-7.026
  0
LINE
  8
0
 10
314.043
 11
314.242
 20
-7.026
 21
-6.572
  0
LINE
  8
0
 10
314.242
 11
314.513
 20
-6.572
 21
-6.157
  0
LINE
  8
0
 10
314.513
 11
314.848
 20
-6.157
 21
-5.793
  0
LINE
  8
0
 10
314.848
 11
315.239
 20
-5.793
 21
-5.489
  0
LINE
  8
0
 10
315.239
 11
315.675
 20
-5.489
 21
-5.253
  0
LINE
  8
0
 10
315.675
 11
316.144
 20
-5.253
 21
-5.092
  0
LINE
  8
0
 10
316.144
 11
316.632
 20
-5.092
 21
-5.01
  0
LINE
  8
0
 10
316.632
 11
317.128
 20
-5.01
 21
-5.01
  0
LINE
  8
0
 10
317.128
 11
317.616
 20
-5.01
 21
-5.092
  0
LINE
  8
0
 10
317.616
 11
318.085
 20
-5.092
 21
-5.253
  0
LINE
  8
0
 10
318.085
 11
318.521
 20
-5.253
 21
-5.489
  0
LINE
  8
0
 10
318.521
 11
318.912
 20
-5.489
 21
-5.793
  0
LINE
  8
0
 10
318.912
 11
319.247
 20
-5.793
 21
-6.157
  0
LINE
  8
0
 10
319.247
 11
319.518
 20
-6.157
 21
-6.572
  0
LINE
  8
0
 10
319.518
 11
319.717
 20
-6.572
 21
-7.026
  0
LINE
  8
0
 10
319.717
 11
319.839
 20
-7.026
 21
-7.506
  0
LINE
  8
0
 10
319.839
 11
319.88
 20
-7.506
 21
-8
  0
LINE
  8
0
 10
319.88
 11
319.839
 20
-8
 21
-8.494
  0
LINE
  8
0
 10
319.839
 11
319.717
 20
-8.494
 21
-8.974
  0
LINE
  8
0
 10
319.717
 11
319.518
 20
-8.974
 21
-9.428
  0
LINE
  8
0
 10
319.518
 11
319.247
 20
-9.428
 21
-9.843
  0
LINE
  8
0
 10
319.247
 11
318.912
 20
-9.843
 21
-10.207
  0
LINE
  8
0
 10
318.912
 11
318.521
 20
-10.207
 21
-10.511
  0
LINE
  8
0
 10
318.521
 11
318.085
 20
-10.511
 21
-10.747
  0
LINE
  8
0
 10
318.085
 11
317.616
 20
-10.747
 21
-10.908
  0
LINE
  8
0
 10
317.616
 11
317.128
 20
-10.908
 21
-10.99
  0
LINE
  8
0
 10
317.128
 11
316.632
 20
-10.99
 21
-10.99
  0
LINE
  8
0
 10
316.632
 11
316.144
 20
-10.99
 21
-10.908
  0
LINE
  8
0
 10
316.144
 11
315.675
 20
-10.908
 21
-10.747
  0
LINE
  8
0
 10
315.675
 11
315.239
 20
-10.747
 21
-10.511
  0
LINE
  8
0
 10
315.239
 11
314.848
 20
-10.511
 21
-10.207
  0
LINE
  8
0
 10
314.848
 11
314.513
 20
-10.207
 21
-9.843
  0
LINE
  8
0
 10
314.513
 11
314.242
 20
-9.843
 21
-9.428
  0
LINE
  8
0
 10
314.242
 11
314.043
 20
-9.428
 21
-8.974
  0
LINE
  8
0
 10
314.043
 11
313.921
 20
-8.974
 21
-8.494
  0
LINE
  8
0
 10
313.921
 11
313.88
 20
-8.494
 21
-8
  0
LINE
  8
0
 10
314.925
 11
314.961
 20
-59.743
 21
-59.253
  0
LINE
  8
0
 10
314.961
 11
315.141
 20
-59.253
 21
-58.795
  0
LINE
  8
0
 10
315.141
 11
315.448
 20
-58.795
 21
-58.41
  0
LINE
  8
0
 10
315.448
 11
315.854
 20
-58.41
 21
-58.133
  0
LINE
  8
0
 10
315.854
 11
316.324
 20
-58.133
 21
-57.988
  0
LINE
  8
0
 10
316.324
 11
316.816
 20
-57.988
 21
-57.988
  0
LINE
  8
0
 10
316.816
 11
317.286
 20
-57.988
 21
-58.133
  0
LINE
  8
0
 10
317.286
 11
317.692
 20
-58.133
 21
-58.41
  0
LINE
  8
0
 10
317.692
 11
317.999
 20
-58.41
 21
-58.795
  0
LINE
  8
0
 10
317.999
 11
318.179
 20
-58.795
 21
-59.253
  0
LINE
  8
0
 10
318.179
 11
318.215
 20
-59.253
 21
-59.743
  0
LINE
  8
0
 10
318.215
 11
318.106
 20
-59.743
 21
-60.223
  0
LINE
  8
0
 10
318.106
 11
317.86
 20
-60.223
 21
-60.649
  0
LINE
  8
0
 10
317.86
 11
317.499
 20
-60.649
 21
-60.983
  0
LINE
  8
0
 10
317.499
 11
317.056
 20
-60.983
 21
-61.197
  0
LINE
  8
0
 10
317.056
 11
316.57
 20
-61.197
 21
-61.27
  0
LINE
  8
0
 10
316.57
 11
316.084
 20
-61.27
 21
-61.197
  0
LINE
  8
0
 10
316.084
 11
315.641
 20
-61.197
 21
-60.983
  0
LINE
  8
0
 10
315.641
 11
315.28
 20
-60.983
 21
-60.649
  0
LINE
  8
0
 10
315.28
 11
315.034
 20
-60.649
 21
-60.223
  0
LINE
  8
0
 10
315.034
 11
314.925
 20
-60.223
 21
-59.743
  0
LINE
  8
0
 10
321.275
 11
321.311
 20
-108.003
 21
-107.513
  0
LINE
  8
0
 10
321.311
 11
321.491
 20
-107.513
 21
-107.055
  0
LINE
  8
0
 10
321.491
 11
321.798
 20
-107.055
 21
-106.67
  0
LINE
  8
0
 10
321.798
 11
322.204
 20
-106.67
 21
-106.393
  0
LINE
  8
0
 10
322.204
 11
322.674
 20
-106.393
 21
-106.248
  0
LINE
  8
0
 10
322.674
 11
323.166
 20
-106.248
 21
-106.248
  0
LINE
  8
0
 10
323.166
 11
323.636
 20
-106.248
 21
-106.393
  0
LINE
  8
0
 10
323.636
 11
324.042
 20
-106.393
 21
-106.67
  0
LINE
  8
0
 10
324.042
 11
324.349
 20
-106.67
 21
-107.055
  0
LINE
  8
0
 10
324.349
 11
324.529
 20
-107.055
 21
-107.513
  0
LINE
  8
0
 10
324.529
 11
324.565
 20
-107.513
 21
-108.003
  0
LINE
  8
0
 10
324.565
 11
324.456
 20
-108.003
 21
-108.483
  0
LINE
  8
0
 10
324.456
 11
324.21
 20
-108.483
 21
-108.909
  0
LINE
  8
0
 10
324.21
 11
323.849
 20
-108.909
 21
-109.243
  0
LINE
  8
0
 10
323.849
 11
323.406
 20
-109.243
 21
-109.457
  0
LINE
  8
0
 10
323.406
 11
322.92
 20
-109.457
 21
-109.53
  0
LINE
  8
0
 10
322.92
 11
322.434
 20
-109.53
 21
-109.457
  0
LINE
  8
0
 10
322.434
 11
321.991
 20
-109.457
 21
-109.243
  0
LINE
  8
0
 10
321.991
 11
321.63
 20
-109.243
 21
-108.909
  0
LINE
  8
0
 10
321.63
 11
321.384
 20
-108.909
 21
-108.483
  0
LINE
  8
0
 10
321.384
 11
321.275
 20
-108.483
 21
-108.003
  0
LINE
  8
0
 10
326.78
 11
326.838
 20
-7
 21
-6.521
  0
LINE
  8
0
 10
326.838
 11
327.009
 20
-6.521
 21
-6.071
  0
LINE
  8
0
 10
327.009
 11
327.283
 20
-6.071
 21
-5.674
  0
LINE
  8
0
 10
327.283
 11
327.644
 20
-5.674
 21
-5.354
  0
LINE
  8
0
 10
327.644
 11
328.071
 20
-5.354
 21
-5.13
  0
LINE
  8
0
 10
328.071
 11
328.539
 20
-5.13
 21
-5.015
  0
LINE
  8
0
 10
328.539
 11
329.021
 20
-5.015
 21
-5.015
  0
LINE
  8
0
 10
329.021
 11
329.489
 20
-5.015
 21
-5.13
  0
LINE
  8
0
 10
329.489
 11
329.916
 20
-5.13
 21
-5.354
  0
LINE
  8
0
 10
329.916
 11
330.277
 20
-5.354
 21
-5.674
  0
LINE
  8
0
 10
330.277
 11
330.551
 20
-5.674
 21
-6.071
  0
LINE
  8
0
 10
330.551
 11
330.722
 20
-6.071
 21
-6.521
  0
LINE
  8
0
 10
330.722
 11
330.78
 20
-6.521
 21
-7
  0
LINE
  8
0
 10
330.78
 11
330.722
 20
-7
 21
-7.479
  0
LINE
  8
0
 10
330.722
 11
330.551
 20
-7.479
 21
-7.929
  0
LINE
  8
0
 10
330.551
 11
330.277
 20
-7.929
 21
-8.326
  0
LINE
  8
0
 10
330.277
 11
329.916
 20
-8.326
 21
-8.646
  0
LINE
  8
0
 10
329.916
 11
329.489
 20
-8.646
 21
-8.87
  0
LINE
  8
0
 10
329.489
 11
329.021
 20
-8.87
 21
-8.985
  0
LINE
  8
0
 10
329.021
 11
328.539
 20
-8.985
 21
-8.985
  0
LINE
  8
0
 10
328.539
 11
328.071
 20
-8.985
 21
-8.87
  0
LINE
  8
0
 10
328.071
 11
327.644
 20
-8.87
 21
-8.646
  0
LINE
  8
0
 10
327.644
 11
327.283
 20
-8.646
 21
-8.326
  0
LINE
  8
0
 10
327.283
 11
327.009
 20
-8.326
 21
-7.929
  0
LINE
  8
0
 10
327.009
 11
326.838
 20
-7.929
 21
-7.479
  0
LINE
  8
0
 10
326.838
 11
326.78
 20
-7.479
 21
-7
  0
LINE
  8
0
 10
339.68
 11
339.735
 20
-8.2
 21
-7.71
  0
LINE
  8
0
 10
339.735
 11
339.898
 20
-7.71
 21
-7.245
  0
LINE
  8
0
 10
339.898
 11
340.16
 20
-7.245
 21
-6.828
  0
LINE
  8
0
 10
340.16
 11
340.508
 20
-6.828
 21
-6.48
  0
LINE
  8
0
 10
340.508
 11
340.925
 20
-6.48
 21
-6.218
  0
LINE
  8
0
 10
340.925
 11
341.39
 20
-6.218
 21
-6.055
  0
LINE
  8
0
 10
341.39
 11
341.88
 20
-6.055
 21
-6
  0
LINE
  8
0
 10
341.88
 11
342.37
 20
-6
 21
-6.055
  0
LINE
  8
0
 10
342.37
 11
342.835
 20
-6.055
 21
-6.218
  0
LINE
  8
0
 10
342.835
 11
343.252
 20
-6.218
 21
-6.48
  0
LINE
  8
0
 10
343.252
 11
343.6
 20
-6.48
 21
-6.828
  0
LINE
  8
0
 10
343.6
 11
343.862
 20
-6.828
 21
-7.245
  0
LINE
  8
0
 10
343.862
 11
344.025
 20
-7.245
 21
-7.71
  0
LINE
  8
0
 10
344.025
 11
344.08
 20
-7.71
 21
-8.2
  0
LINE
  8
0
 10
344.08
 11
344.025
 20
-8.2
 21
-8.69
  0
LINE
  8
0
 10
344.025
 11
343.862
 20
-8.69
 21
-9.155
  0
LINE
  8
0
 10
343.862
 11
343.6
 20
-9.155
 21
-9.572
  0
LINE
  8
0
 10
343.6
 11
343.252
 20
-9.572
 21
-9.92
  0
LINE
  8
0
 10
343.252
 11
342.835
 20
-9.92
 21
-10.182
  0
LINE
  8
0
 10
342.835
 11
342.37
 20
-10.182
 21
-10.345
  0
LINE
  8
0
 10
342.37
 11
341.88
 20
-10.345
 21
-10.4
  0
LINE
  8
0
 10
341.88
 11
341.39
 20
-10.4
 21
-10.345
  0
LINE
  8
0
 10
341.39
 11
340.925
 20
-10.345
 21
-10.182
  0
LINE
  8
0
 10
340.925
 11
340.508
 20
-10.182
 21
-9.92
  0
LINE
  8
0
 10
340.508
 11
340.16
 20
-9.92
 21
-9.572
  0
LINE
  8
0
 10
340.16
 11
339.898
 20
-9.572
 21
-9.155
  0
LINE
  8
0
 10
339.898
 11
339.735
 20
-9.155
 21
-8.69
  0
LINE
  8
0
 10
339.735
 11
339.68
 20
-8.69
 21
-8.2
  0
LINE
  8
0
 10
359.7
 11
359.755
 20
-8.2
 21
-7.71
  0
LINE
  8
0
 10
359.755
 11
359.918
 20
-7.71
 21
-7.245
  0
LINE
  8
0
 10
359.918
 11
360.18
 20
-7.245
 21
-6.828
  0
LINE
  8
0
 10
360.18
 11
360.528
 20
-6.828
 21
-6.48
  0
LINE
  8
0
 10
360.528
 11
360.945
 20
-6.48
 21
-6.218
  0
LINE
  8
0
 10
360.945
 11
361.41
 20
-6.218
 21
-6.055
  0
LINE
  8
0
 10
361.41
 11
361.9
 20
-6.055
 21
-6
  0
LINE
  8
0
 10
361.9
 11
362.39
 20
-6
 21
-6.055
  0
LINE
  8
0
 10
362.39
 11
362.855
 20
-6.055
 21
-6.218
  0
LINE
  8
0
 10
362.855
 11
363.272
 20
-6.218
 21
-6.48
  0
LINE
  8
0
 10
363.272
 11
363.62
 20
-6.48
 21
-6.828
  0
LINE
  8
0
 10
363.62
 11
363.882
 20
-6.828
 21
-7.245
  0
LINE
  8
0
 10
363.882
 11
364.045
 20
-7.245
 21
-7.71
  0
LINE
  8
0
 10
364.045
 11
364.1
 20
-7.71
 21
-8.2
  0
LINE
  8
0
 10
364.1
 11
364.045
 20
-8.2
 21
-8.69
  0
LINE
  8
0
 10
364.045
 11
363.882
 20
-8.69
 21
-9.155
  0
LINE
  8
0
 10
363.882
 11
363.62
 20
-9.155
 21
-9.572
  0
LINE
  8
0
 10
363.62
 11
363.272
 20
-9.572
 21
-9.92
  0
LINE
  8
0
 10
363.272
 11
362.855
 20
-9.92
 21
-10.182
  0
LINE
  8
0
 10
362.855
 11
362.39
 20
-10.182
 21
-10.345
  0
LINE
  8
0
 10
362.39
 11
361.9
 20
-10.345
 21
-10.4
  0
LINE
  8
0
 10
361.9
 11
361.41
 20
-10.4
 21
-10.345
  0
LINE
  8
0
 10
361.41
 11
360.945
 20
-10.345
 21
-10.182
  0
LINE
  8
0
 10
360.945
 11
360.528
 20
-10.182
 21
-9.92
  0
LINE
  8
0
 10
360.528
 11
360.18
 20
-9.92
 21
-9.572
  0
LINE
  8
0
 10
360.18
 11
359.918
 20
-9.572
 21
-9.155
  0
LINE
  8
0
 10
359.918
 11
359.755
 20
-9.155
 21
-8.69
  0
LINE
  8
0
 10
359.755
 11
359.7
 20
-8.69
 21
-8.2
  0
ENDSEC
  0
SECTION
  2
OBJECTS
  0
DICTIONARY
  0
ENDSEC
  0
EOF
