<?xml version="1.0"?>
<svg xmlns="http://www.w3.org/2000/svg" version="1.1" height="398mm" width="481mm" >
 <g style="fill-opacity:1.0; stroke:black; stroke-width:1;">
  <line x1="103.500000mm" y1="388.000000mm" x2="103.500000mm" y2="388.000000mm" />
  <line x1="103.500000mm" y1="388.000000mm" x2="0.000000mm" y2="388.000000mm" />
  <line x1="0.000000mm" y1="388.000000mm" x2="0.000000mm" y2="0.000000mm" />
  <line x1="0.000000mm" y1="0.000000mm" x2="470.500000mm" y2="0.000000mm" />
  <line x1="470.500000mm" y1="0.000000mm" x2="470.500000mm" y2="388.000000mm" />
  <line x1="470.500000mm" y1="388.000000mm" x2="353.500000mm" y2="388.000000mm" />
  <line x1="353.500000mm" y1="388.000000mm" x2="353.500000mm" y2="109.900000mm" />
  <line x1="353.500000mm" y1="109.900000mm" x2="353.475000mm" y2="109.402000mm" />
  <line x1="353.475000mm" y1="109.402000mm" x2="353.401000mm" y2="108.909000mm" />
  <line x1="353.401000mm" y1="108.909000mm" x2="353.278000mm" y2="108.426000mm" />
  <line x1="353.278000mm" y1="108.426000mm" x2="353.107000mm" y2="107.958000mm" />
  <line x1="353.107000mm" y1="107.958000mm" x2="352.891000mm" y2="107.509000mm" />
  <line x1="352.891000mm" y1="107.509000mm" x2="352.631000mm" y2="107.083000mm" />
  <line x1="352.631000mm" y1="107.083000mm" x2="352.330000mm" y2="106.686000mm" />
  <line x1="352.330000mm" y1="106.686000mm" x2="351.991000mm" y2="106.321000mm" />
  <line x1="351.991000mm" y1="106.321000mm" x2="351.617000mm" y2="105.991000mm" />
  <line x1="351.617000mm" y1="105.991000mm" x2="351.213000mm" y2="105.700000mm" />
  <line x1="351.213000mm" y1="105.700000mm" x2="350.781000mm" y2="105.451000mm" />
  <line x1="350.781000mm" y1="105.451000mm" x2="350.327000mm" y2="105.246000mm" />
  <line x1="350.327000mm" y1="105.246000mm" x2="349.854000mm" y2="105.087000mm" />
  <line x1="349.854000mm" y1="105.087000mm" x2="349.368000mm" y2="104.976000mm" />
  <line x1="349.368000mm" y1="104.976000mm" x2="348.874000mm" y2="104.914000mm" />
  <line x1="348.874000mm" y1="104.914000mm" x2="348.500000mm" y2="104.905000mm" />
  <line x1="348.500000mm" y1="104.905000mm" x2="348.500000mm" y2="104.900000mm" />
  <line x1="348.500000mm" y1="104.900000mm" x2="108.500000mm" y2="104.900000mm" />
  <line x1="108.500000mm" y1="104.900000mm" x2="108.500000mm" y2="104.905000mm" />
  <line x1="108.500000mm" y1="104.905000mm" x2="108.375000mm" y2="104.902000mm" />
  <line x1="108.375000mm" y1="104.902000mm" x2="107.878000mm" y2="104.939000mm" />
  <line x1="107.878000mm" y1="104.939000mm" x2="107.387000mm" y2="105.025000mm" />
  <line x1="107.387000mm" y1="105.025000mm" x2="106.908000mm" y2="105.160000mm" />
  <line x1="106.908000mm" y1="105.160000mm" x2="106.444000mm" y2="105.342000mm" />
  <line x1="106.444000mm" y1="105.342000mm" x2="106.000000mm" y2="105.570000mm" />
  <line x1="106.000000mm" y1="105.570000mm" x2="105.581000mm" y2="105.840000mm" />
  <line x1="105.581000mm" y1="105.840000mm" x2="105.192000mm" y2="106.151000mm" />
  <line x1="105.192000mm" y1="106.151000mm" x2="104.835000mm" y2="106.499000mm" />
  <line x1="104.835000mm" y1="106.499000mm" x2="104.514000mm" y2="106.881000mm" />
  <line x1="104.514000mm" y1="106.881000mm" x2="104.234000mm" y2="107.293000mm" />
  <line x1="104.234000mm" y1="107.293000mm" x2="103.995000mm" y2="107.731000mm" />
  <line x1="103.995000mm" y1="107.731000mm" x2="103.802000mm" y2="108.190000mm" />
  <line x1="103.802000mm" y1="108.190000mm" x2="103.655000mm" y2="108.666000mm" />
  <line x1="103.655000mm" y1="108.666000mm" x2="103.556000mm" y2="109.155000mm" />
  <line x1="103.556000mm" y1="109.155000mm" x2="103.506000mm" y2="109.651000mm" />
  <line x1="103.506000mm" y1="109.651000mm" x2="103.506000mm" y2="109.900000mm" />
  <line x1="103.506000mm" y1="109.900000mm" x2="103.500000mm" y2="109.900000mm" />
  <line x1="103.500000mm" y1="109.900000mm" x2="103.500000mm" y2="388.000000mm" />
  <circle cx="7.499964mm" cy="275.899964mm" r="2.200229mm" fill="none"/>
  <line x1="11.900421mm" y1="275.899964mm" x2="3.099507mm" y2="275.899964mm" />
  <line x1="7.499964mm" y1="271.499507mm" x2="7.499964mm" y2="280.300421mm" />
  <text x="9mm" y="273mm" font-size="24">
   4.4
  </text>
  <circle cx="7.499964mm" cy="234.499964mm" r="2.200229mm" fill="none"/>
  <line x1="11.900421mm" y1="234.499964mm" x2="3.099507mm" y2="234.499964mm" />
  <line x1="7.499964mm" y1="230.099507mm" x2="7.499964mm" y2="238.900421mm" />
  <text x="9mm" y="232mm" font-size="24">
   4.4
  </text>
  <circle cx="9.699964mm" cy="379.799964mm" r="2.200229mm" fill="none"/>
  <line x1="14.100421mm" y1="379.799964mm" x2="5.299507mm" y2="379.799964mm" />
  <line x1="9.699964mm" y1="375.399507mm" x2="9.699964mm" y2="384.200421mm" />
  <text x="11mm" y="377mm" font-size="24">
   4.4
  </text>
  <circle cx="16.499964mm" cy="326.999964mm" r="2.200229mm" fill="none"/>
  <line x1="20.900421mm" y1="326.999964mm" x2="12.099507mm" y2="326.999964mm" />
  <line x1="16.499964mm" y1="322.599507mm" x2="16.499964mm" y2="331.400421mm" />
  <text x="18mm" y="324mm" font-size="24">
   4.4
  </text>
  <circle cx="29.719964mm" cy="379.799964mm" r="2.200229mm" fill="none"/>
  <line x1="34.120421mm" y1="379.799964mm" x2="25.319507mm" y2="379.799964mm" />
  <line x1="29.719964mm" y1="375.399507mm" x2="29.719964mm" y2="384.200421mm" />
  <text x="31mm" y="377mm" font-size="24">
   4.4
  </text>
  <circle cx="34.499818mm" cy="315.000055mm" r="2.000011mm" fill="none"/>
  <line x1="38.499840mm" y1="315.000055mm" x2="30.499795mm" y2="315.000055mm" />
  <line x1="34.499818mm" y1="311.000033mm" x2="34.499818mm" y2="319.000077mm" />
  <text x="36mm" y="313mm" font-size="24">
   4.0
  </text>
  <circle cx="40.499964mm" cy="8.499964mm" r="2.200229mm" fill="none"/>
  <line x1="44.900421mm" y1="8.499964mm" x2="36.099507mm" y2="8.499964mm" />
  <line x1="40.499964mm" y1="4.099507mm" x2="40.499964mm" y2="12.900421mm" />
  <text x="42mm" y="6mm" font-size="24">
   4.4
  </text>
  <circle cx="40.499818mm" cy="19.000055mm" r="2.000011mm" fill="none"/>
  <line x1="44.499840mm" y1="19.000055mm" x2="36.499795mm" y2="19.000055mm" />
  <line x1="40.499818mm" y1="15.000033mm" x2="40.499818mm" y2="23.000077mm" />
  <text x="42mm" y="17mm" font-size="24">
   4.0
  </text>
  <circle cx="41.920170mm" cy="380.499939mm" r="2.500268mm" fill="none"/>
  <line x1="46.920707mm" y1="380.499939mm" x2="36.919633mm" y2="380.499939mm" />
  <line x1="41.920170mm" y1="375.499402mm" x2="41.920170mm" y2="385.500476mm" />
  <text x="44mm" y="377mm" font-size="24">
   5.0
  </text>
  <circle cx="48.499964mm" cy="326.999964mm" r="2.200229mm" fill="none"/>
  <line x1="52.900421mm" y1="326.999964mm" x2="44.099507mm" y2="326.999964mm" />
  <line x1="48.499964mm" y1="322.599507mm" x2="48.499964mm" y2="331.400421mm" />
  <text x="50mm" y="324mm" font-size="24">
   4.4
  </text>
  <circle cx="65.199964mm" cy="351.889964mm" r="2.200229mm" fill="none"/>
  <line x1="69.600421mm" y1="351.889964mm" x2="60.799507mm" y2="351.889964mm" />
  <line x1="65.199964mm" y1="347.489507mm" x2="65.199964mm" y2="356.290421mm" />
  <text x="67mm" y="349mm" font-size="24">
   4.4
  </text>
  <circle cx="65.199964mm" cy="36.109964mm" r="2.200229mm" fill="none"/>
  <line x1="69.600421mm" y1="36.109964mm" x2="60.799507mm" y2="36.109964mm" />
  <line x1="65.199964mm" y1="31.709507mm" x2="65.199964mm" y2="40.510421mm" />
  <text x="67mm" y="33mm" font-size="24">
   4.4
  </text>
  <circle cx="68.000221mm" cy="62.119698mm" r="1.500135mm" fill="none"/>
  <line x1="71.000491mm" y1="62.119698mm" x2="64.999951mm" y2="62.119698mm" />
  <line x1="68.000221mm" y1="59.119428mm" x2="68.000221mm" y2="65.119968mm" />
  <text x="69mm" y="60mm" font-size="24">
   3.0
  </text>
  <circle cx="68.000221mm" cy="56.319698mm" r="1.500135mm" fill="none"/>
  <line x1="71.000491mm" y1="56.319698mm" x2="64.999951mm" y2="56.319698mm" />
  <line x1="68.000221mm" y1="53.319428mm" x2="68.000221mm" y2="59.319968mm" />
  <text x="69mm" y="54mm" font-size="24">
   3.0
  </text>
  <circle cx="73.499964mm" cy="8.499964mm" r="2.200229mm" fill="none"/>
  <line x1="77.900421mm" y1="8.499964mm" x2="69.099507mm" y2="8.499964mm" />
  <line x1="73.499964mm" y1="4.099507mm" x2="73.499964mm" y2="12.900421mm" />
  <text x="75mm" y="6mm" font-size="24">
   4.4
  </text>
  <circle cx="72.999872mm" cy="74.720269mm" r="1.500269mm" fill="none"/>
  <line x1="76.000410mm" y1="74.720269mm" x2="69.999333mm" y2="74.720269mm" />
  <line x1="72.999872mm" y1="71.719731mm" x2="72.999872mm" y2="77.720808mm" />
  <text x="74mm" y="73mm" font-size="24">
   3.0
  </text>
  <circle cx="72.999872mm" cy="67.520269mm" r="1.500269mm" fill="none"/>
  <line x1="76.000410mm" y1="67.520269mm" x2="69.999333mm" y2="67.520269mm" />
  <line x1="72.999872mm" y1="64.519731mm" x2="72.999872mm" y2="70.520808mm" />
  <text x="74mm" y="66mm" font-size="24">
   3.0
  </text>
  <circle cx="74.279964mm" cy="379.799964mm" r="2.200229mm" fill="none"/>
  <line x1="78.680421mm" y1="379.799964mm" x2="69.879507mm" y2="379.799964mm" />
  <line x1="74.279964mm" y1="375.399507mm" x2="74.279964mm" y2="384.200421mm" />
  <text x="76mm" y="377mm" font-size="24">
   4.4
  </text>
  <circle cx="94.299964mm" cy="379.799964mm" r="2.200229mm" fill="none"/>
  <line x1="98.700421mm" y1="379.799964mm" x2="89.899507mm" y2="379.799964mm" />
  <line x1="94.299964mm" y1="375.399507mm" x2="94.299964mm" y2="384.200421mm" />
  <text x="96mm" y="377mm" font-size="24">
   4.4
  </text>
  <line x1="120.010000mm" y1="385.248000mm" x2="120.010000mm" y2="385.248000mm" />
  <line x1="120.010000mm" y1="385.248000mm" x2="120.000000mm" y2="174.000000mm" />
  <line x1="120.000000mm" y1="174.000000mm" x2="120.041000mm" y2="173.506000mm" />
  <line x1="120.041000mm" y1="173.506000mm" x2="120.163000mm" y2="173.026000mm" />
  <line x1="120.163000mm" y1="173.026000mm" x2="120.362000mm" y2="172.572000mm" />
  <line x1="120.362000mm" y1="172.572000mm" x2="120.633000mm" y2="172.157000mm" />
  <line x1="120.633000mm" y1="172.157000mm" x2="120.968000mm" y2="171.793000mm" />
  <line x1="120.968000mm" y1="171.793000mm" x2="121.359000mm" y2="171.489000mm" />
  <line x1="121.359000mm" y1="171.489000mm" x2="121.795000mm" y2="171.253000mm" />
  <line x1="121.795000mm" y1="171.253000mm" x2="122.264000mm" y2="171.092000mm" />
  <line x1="122.264000mm" y1="171.092000mm" x2="122.752000mm" y2="171.010000mm" />
  <line x1="122.752000mm" y1="171.010000mm" x2="209.990000mm" y2="171.006000mm" />
  <line x1="209.990000mm" y1="171.006000mm" x2="209.990000mm" y2="175.100000mm" />
  <line x1="209.990000mm" y1="175.100000mm" x2="247.010000mm" y2="175.100000mm" />
  <line x1="247.010000mm" y1="175.100000mm" x2="247.010000mm" y2="171.004000mm" />
  <line x1="247.010000mm" y1="171.004000mm" x2="334.000000mm" y2="171.000000mm" />
  <line x1="334.000000mm" y1="171.000000mm" x2="334.494000mm" y2="171.041000mm" />
  <line x1="334.494000mm" y1="171.041000mm" x2="334.974000mm" y2="171.163000mm" />
  <line x1="334.974000mm" y1="171.163000mm" x2="335.428000mm" y2="171.362000mm" />
  <line x1="335.428000mm" y1="171.362000mm" x2="335.843000mm" y2="171.633000mm" />
  <line x1="335.843000mm" y1="171.633000mm" x2="336.207000mm" y2="171.968000mm" />
  <line x1="336.207000mm" y1="171.968000mm" x2="336.511000mm" y2="172.359000mm" />
  <line x1="336.511000mm" y1="172.359000mm" x2="336.747000mm" y2="172.795000mm" />
  <line x1="336.747000mm" y1="172.795000mm" x2="336.908000mm" y2="173.264000mm" />
  <line x1="336.908000mm" y1="173.264000mm" x2="336.990000mm" y2="173.752000mm" />
  <line x1="336.990000mm" y1="173.752000mm" x2="337.000000mm" y2="385.000000mm" />
  <line x1="337.000000mm" y1="385.000000mm" x2="336.959000mm" y2="385.494000mm" />
  <line x1="336.959000mm" y1="385.494000mm" x2="336.837000mm" y2="385.974000mm" />
  <line x1="336.837000mm" y1="385.974000mm" x2="336.638000mm" y2="386.428000mm" />
  <line x1="336.638000mm" y1="386.428000mm" x2="336.367000mm" y2="386.843000mm" />
  <line x1="336.367000mm" y1="386.843000mm" x2="336.032000mm" y2="387.207000mm" />
  <line x1="336.032000mm" y1="387.207000mm" x2="335.641000mm" y2="387.511000mm" />
  <line x1="335.641000mm" y1="387.511000mm" x2="335.205000mm" y2="387.747000mm" />
  <line x1="335.205000mm" y1="387.747000mm" x2="334.736000mm" y2="387.908000mm" />
  <line x1="334.736000mm" y1="387.908000mm" x2="334.248000mm" y2="387.990000mm" />
  <line x1="334.248000mm" y1="387.990000mm" x2="123.000000mm" y2="388.000000mm" />
  <line x1="123.000000mm" y1="388.000000mm" x2="122.506000mm" y2="387.959000mm" />
  <line x1="122.506000mm" y1="387.959000mm" x2="122.026000mm" y2="387.837000mm" />
  <line x1="122.026000mm" y1="387.837000mm" x2="121.572000mm" y2="387.638000mm" />
  <line x1="121.572000mm" y1="387.638000mm" x2="121.157000mm" y2="387.367000mm" />
  <line x1="121.157000mm" y1="387.367000mm" x2="120.793000mm" y2="387.032000mm" />
  <line x1="120.793000mm" y1="387.032000mm" x2="120.489000mm" y2="386.641000mm" />
  <line x1="120.489000mm" y1="386.641000mm" x2="120.253000mm" y2="386.205000mm" />
  <line x1="120.253000mm" y1="386.205000mm" x2="120.092000mm" y2="385.736000mm" />
  <line x1="120.092000mm" y1="385.736000mm" x2="120.010000mm" y2="385.248000mm" />
  <circle cx="124.000087mm" cy="384.000061mm" r="1.250061mm" fill="none"/>
  <line x1="126.500208mm" y1="384.000061mm" x2="121.499966mm" y2="384.000061mm" />
  <line x1="124.000087mm" y1="381.499939mm" x2="124.000087mm" y2="386.500182mm" />
  <text x="125mm" y="382mm" font-size="24">
   2.5
  </text>
  <circle cx="124.000087mm" cy="175.000061mm" r="1.250061mm" fill="none"/>
  <line x1="126.500208mm" y1="175.000061mm" x2="121.499966mm" y2="175.000061mm" />
  <line x1="124.000087mm" y1="172.499939mm" x2="124.000087mm" y2="177.500182mm" />
  <text x="125mm" y="173mm" font-size="24">
   2.5
  </text>
  <circle cx="125.499999mm" cy="368.499893mm" r="1.650220mm" fill="none"/>
  <line x1="128.800439mm" y1="368.499893mm" x2="122.199559mm" y2="368.499893mm" />
  <line x1="125.499999mm" y1="365.199453mm" x2="125.499999mm" y2="371.800333mm" />
  <text x="127mm" y="366mm" font-size="24">
   3.3
  </text>
  <circle cx="125.499999mm" cy="211.499893mm" r="1.650220mm" fill="none"/>
  <line x1="128.800439mm" y1="211.499893mm" x2="122.199559mm" y2="211.499893mm" />
  <line x1="125.499999mm" y1="208.199453mm" x2="125.499999mm" y2="214.800333mm" />
  <text x="127mm" y="209mm" font-size="24">
   3.3
  </text>
  <circle cx="156.499999mm" cy="347.499893mm" r="1.650220mm" fill="none"/>
  <line x1="159.800439mm" y1="347.499893mm" x2="153.199559mm" y2="347.499893mm" />
  <line x1="156.499999mm" y1="344.199453mm" x2="156.499999mm" y2="350.800333mm" />
  <text x="158mm" y="345mm" font-size="24">
   3.3
  </text>
  <circle cx="156.499999mm" cy="190.499893mm" r="1.650220mm" fill="none"/>
  <line x1="159.800439mm" y1="190.499893mm" x2="153.199559mm" y2="190.499893mm" />
  <line x1="156.499999mm" y1="187.199453mm" x2="156.499999mm" y2="193.800333mm" />
  <text x="158mm" y="188mm" font-size="24">
   3.3
  </text>
  <circle cx="196.989999mm" cy="333.174893mm" r="1.650220mm" fill="none"/>
  <line x1="200.290439mm" y1="333.174893mm" x2="193.689559mm" y2="333.174893mm" />
  <line x1="196.989999mm" y1="329.874453mm" x2="196.989999mm" y2="336.475333mm" />
  <text x="198mm" y="331mm" font-size="24">
   3.3
  </text>
  <circle cx="196.989999mm" cy="318.525893mm" r="1.650220mm" fill="none"/>
  <line x1="200.290439mm" y1="318.525893mm" x2="193.689559mm" y2="318.525893mm" />
  <line x1="196.989999mm" y1="315.225453mm" x2="196.989999mm" y2="321.826333mm" />
  <text x="198mm" y="316mm" font-size="24">
   3.3
  </text>
  <circle cx="196.989767mm" cy="243.324407mm" r="1.650015mm" fill="none"/>
  <line x1="200.289796mm" y1="243.324407mm" x2="193.689737mm" y2="243.324407mm" />
  <line x1="196.989767mm" y1="240.024377mm" x2="196.989767mm" y2="246.624436mm" />
  <text x="198mm" y="241mm" font-size="24">
   3.3
  </text>
  <circle cx="196.989767mm" cy="228.675407mm" r="1.650015mm" fill="none"/>
  <line x1="200.289796mm" y1="228.675407mm" x2="193.689737mm" y2="228.675407mm" />
  <line x1="196.989767mm" y1="225.375377mm" x2="196.989767mm" y2="231.975436mm" />
  <text x="198mm" y="227mm" font-size="24">
   3.3
  </text>
  <circle cx="207.839456mm" cy="179.200195mm" r="1.649827mm" fill="none"/>
  <line x1="211.139111mm" y1="179.200195mm" x2="204.539802mm" y2="179.200195mm" />
  <line x1="207.839456mm" y1="175.900541mm" x2="207.839456mm" y2="182.499849mm" />
  <text x="209mm" y="177mm" font-size="24">
   3.3
  </text>
  <circle cx="249.159456mm" cy="179.200195mm" r="1.649827mm" fill="none"/>
  <line x1="252.459111mm" y1="179.200195mm" x2="245.859802mm" y2="179.200195mm" />
  <line x1="249.159456mm" y1="175.900541mm" x2="249.159456mm" y2="182.499849mm" />
  <text x="250mm" y="177mm" font-size="24">
   3.3
  </text>
  <circle cx="300.499999mm" cy="289.999893mm" r="1.650220mm" fill="none"/>
  <line x1="303.800439mm" y1="289.999893mm" x2="297.199559mm" y2="289.999893mm" />
  <line x1="300.499999mm" y1="286.699453mm" x2="300.499999mm" y2="293.300333mm" />
  <text x="302mm" y="288mm" font-size="24">
   3.3
  </text>
  <circle cx="331.499999mm" cy="268.999893mm" r="1.650220mm" fill="none"/>
  <line x1="334.800439mm" y1="268.999893mm" x2="328.199559mm" y2="268.999893mm" />
  <line x1="331.499999mm" y1="265.699453mm" x2="331.499999mm" y2="272.300333mm" />
  <text x="333mm" y="267mm" font-size="24">
   3.3
  </text>
  <circle cx="333.000087mm" cy="384.000061mm" r="1.250061mm" fill="none"/>
  <line x1="335.500208mm" y1="384.000061mm" x2="330.499966mm" y2="384.000061mm" />
  <line x1="333.000087mm" y1="381.499939mm" x2="333.000087mm" y2="386.500182mm" />
  <text x="334mm" y="382mm" font-size="24">
   2.5
  </text>
  <circle cx="333.000087mm" cy="175.000061mm" r="1.250061mm" fill="none"/>
  <line x1="335.500208mm" y1="175.000061mm" x2="330.499966mm" y2="175.000061mm" />
  <line x1="333.000087mm" y1="172.499939mm" x2="333.000087mm" y2="177.500182mm" />
  <text x="334mm" y="173mm" font-size="24">
   2.5
  </text>
  <circle cx="353.000221mm" cy="62.119698mm" r="1.500135mm" fill="none"/>
  <line x1="356.000491mm" y1="62.119698mm" x2="349.999951mm" y2="62.119698mm" />
  <line x1="353.000221mm" y1="59.119428mm" x2="353.000221mm" y2="65.119968mm" />
  <text x="354mm" y="60mm" font-size="24">
   3.0
  </text>
  <circle cx="353.000221mm" cy="56.319698mm" r="1.500135mm" fill="none"/>
  <line x1="356.000491mm" y1="56.319698mm" x2="349.999951mm" y2="56.319698mm" />
  <line x1="353.000221mm" y1="53.319428mm" x2="353.000221mm" y2="59.319968mm" />
  <text x="354mm" y="54mm" font-size="24">
   3.0
  </text>
  <circle cx="357.999872mm" cy="74.720269mm" r="1.500269mm" fill="none"/>
  <line x1="361.000410mm" y1="74.720269mm" x2="354.999333mm" y2="74.720269mm" />
  <line x1="357.999872mm" y1="71.719731mm" x2="357.999872mm" y2="77.720808mm" />
  <text x="359mm" y="73mm" font-size="24">
   3.0
  </text>
  <circle cx="357.999872mm" cy="67.520269mm" r="1.500269mm" fill="none"/>
  <line x1="361.000410mm" y1="67.520269mm" x2="354.999333mm" y2="67.520269mm" />
  <line x1="357.999872mm" y1="64.519731mm" x2="357.999872mm" y2="70.520808mm" />
  <text x="359mm" y="66mm" font-size="24">
   3.0
  </text>
  <circle cx="359.499964mm" cy="8.499964mm" r="2.200229mm" fill="none"/>
  <line x1="363.900421mm" y1="8.499964mm" x2="355.099507mm" y2="8.499964mm" />
  <line x1="359.499964mm" y1="4.099507mm" x2="359.499964mm" y2="12.900421mm" />
  <text x="361mm" y="6mm" font-size="24">
   4.4
  </text>
  <circle cx="360.799964mm" cy="351.889964mm" r="2.200229mm" fill="none"/>
  <line x1="365.200421mm" y1="351.889964mm" x2="356.399507mm" y2="351.889964mm" />
  <line x1="360.799964mm" y1="347.489507mm" x2="360.799964mm" y2="356.290421mm" />
  <text x="363mm" y="349mm" font-size="24">
   4.4
  </text>
  <circle cx="360.799964mm" cy="36.109964mm" r="2.200229mm" fill="none"/>
  <line x1="365.200421mm" y1="36.109964mm" x2="356.399507mm" y2="36.109964mm" />
  <line x1="360.799964mm" y1="31.709507mm" x2="360.799964mm" y2="40.510421mm" />
  <text x="363mm" y="33mm" font-size="24">
   4.4
  </text>
  <circle cx="377.499964mm" cy="326.999964mm" r="2.200229mm" fill="none"/>
  <line x1="381.900421mm" y1="326.999964mm" x2="373.099507mm" y2="326.999964mm" />
  <line x1="377.499964mm" y1="322.599507mm" x2="377.499964mm" y2="331.400421mm" />
  <text x="379mm" y="324mm" font-size="24">
   4.4
  </text>
  <circle cx="381.699964mm" cy="379.799964mm" r="2.200229mm" fill="none"/>
  <line x1="386.100421mm" y1="379.799964mm" x2="377.299507mm" y2="379.799964mm" />
  <line x1="381.699964mm" y1="375.399507mm" x2="381.699964mm" y2="384.200421mm" />
  <text x="383mm" y="377mm" font-size="24">
   4.4
  </text>
  <circle cx="392.499964mm" cy="8.499964mm" r="2.200229mm" fill="none"/>
  <line x1="396.900421mm" y1="8.499964mm" x2="388.099507mm" y2="8.499964mm" />
  <line x1="392.499964mm" y1="4.099507mm" x2="392.499964mm" y2="12.900421mm" />
  <text x="394mm" y="6mm" font-size="24">
   4.4
  </text>
  <circle cx="395.420170mm" cy="367.099939mm" r="2.500268mm" fill="none"/>
  <line x1="400.420707mm" y1="367.099939mm" x2="390.419633mm" y2="367.099939mm" />
  <line x1="395.420170mm" y1="362.099402mm" x2="395.420170mm" y2="372.100476mm" />
  <text x="397mm" y="364mm" font-size="24">
   5.0
  </text>
  <circle cx="401.719964mm" cy="379.799964mm" r="2.200229mm" fill="none"/>
  <line x1="406.120421mm" y1="379.799964mm" x2="397.319507mm" y2="379.799964mm" />
  <line x1="401.719964mm" y1="375.399507mm" x2="401.719964mm" y2="384.200421mm" />
  <text x="403mm" y="377mm" font-size="24">
   4.4
  </text>
  <circle cx="409.499964mm" cy="326.999964mm" r="2.200229mm" fill="none"/>
  <line x1="413.900421mm" y1="326.999964mm" x2="405.099507mm" y2="326.999964mm" />
  <line x1="409.499964mm" y1="322.599507mm" x2="409.499964mm" y2="331.400421mm" />
  <text x="411mm" y="324mm" font-size="24">
   4.4
  </text>
  <circle cx="419.599964mm" cy="11.999964mm" r="2.200229mm" fill="none"/>
  <line x1="424.000421mm" y1="11.999964mm" x2="415.199507mm" y2="11.999964mm" />
  <line x1="419.599964mm" y1="7.599507mm" x2="419.599964mm" y2="16.400421mm" />
  <text x="421mm" y="9mm" font-size="24">
   4.4
  </text>
  <circle cx="440.779964mm" cy="379.799964mm" r="2.200229mm" fill="none"/>
  <line x1="445.180421mm" y1="379.799964mm" x2="436.379507mm" y2="379.799964mm" />
  <line x1="440.779964mm" y1="375.399507mm" x2="440.779964mm" y2="384.200421mm" />
  <text x="442mm" y="377mm" font-size="24">
   4.4
  </text>
  <circle cx="453.499964mm" cy="357.599964mm" r="2.200229mm" fill="none"/>
  <line x1="457.900421mm" y1="357.599964mm" x2="449.099507mm" y2="357.599964mm" />
  <line x1="453.499964mm" y1="353.199507mm" x2="453.499964mm" y2="362.000421mm" />
  <text x="455mm" y="355mm" font-size="24">
   4.4
  </text>
  <circle cx="454.399964mm" cy="11.999964mm" r="2.200229mm" fill="none"/>
  <line x1="458.800421mm" y1="11.999964mm" x2="449.999507mm" y2="11.999964mm" />
  <line x1="454.399964mm" y1="7.599507mm" x2="454.399964mm" y2="16.400421mm" />
  <text x="456mm" y="9mm" font-size="24">
   4.4
  </text>
  <circle cx="460.799964mm" cy="379.799964mm" r="2.200229mm" fill="none"/>
  <line x1="465.200421mm" y1="379.799964mm" x2="456.399507mm" y2="379.799964mm" />
  <line x1="460.799964mm" y1="375.399507mm" x2="460.799964mm" y2="384.200421mm" />
  <text x="463mm" y="377mm" font-size="24">
   4.4
  </text>
 </g>
</svg>
