  0
SECTION
  2
BLOCKS
  0
ENDSEC
  0
SECTION
  2
ENTITIES
  0
LINE
  8
0
 10
0
 11
0
 20
-171
 21
-4
  0
LINE
  8
0
 10
0
 11
388
 20
-4
 21
-4
  0
LINE
  8
0
 10
388
 11
388
 20
-4
 21
-171
  0
LINE
  8
0
 10
388
 11
0
 20
-171
 21
-171
  0
LINE
  8
0
 10
0
 11
0
 20
0
 21
167
  0
LINE
  8
0
 10
0
 11
388
 20
167
 21
167
  0
LINE
  8
0
 10
388
 11
388
 20
167
 21
0
  0
LINE
  8
0
 10
388
 11
0
 20
0
 21
0
  0
LINE
  8
0
 10
5
 11
5.036
 20
-107.5
 21
-107.002
  0
LINE
  8
0
 10
5.036
 11
5.142
 20
-107.002
 21
-106.514
  0
LINE
  8
0
 10
5.142
 11
5.316
 20
-106.514
 21
-106.046
  0
LINE
  8
0
 10
5.316
 11
5.556
 20
-106.046
 21
-105.608
  0
LINE
  8
0
 10
5.556
 11
5.855
 20
-105.608
 21
-105.208
  0
LINE
  8
0
 10
5.855
 11
6.208
 20
-105.208
 21
-104.855
  0
LINE
  8
0
 10
6.208
 11
6.608
 20
-104.855
 21
-104.556
  0
LINE
  8
0
 10
6.608
 11
7.046
 20
-104.556
 21
-104.316
  0
LINE
  8
0
 10
7.046
 11
7.514
 20
-104.316
 21
-104.142
  0
LINE
  8
0
 10
7.514
 11
8.002
 20
-104.142
 21
-104.036
  0
LINE
  8
0
 10
8.002
 11
8.5
 20
-104.036
 21
-104
  0
LINE
  8
0
 10
8.5
 11
8.998
 20
-104
 21
-104.036
  0
LINE
  8
0
 10
8.998
 11
9.486
 20
-104.036
 21
-104.142
  0
LINE
  8
0
 10
9.486
 11
9.954
 20
-104.142
 21
-104.316
  0
LINE
  8
0
 10
9.954
 11
10.392
 20
-104.316
 21
-104.556
  0
LINE
  8
0
 10
10.392
 11
10.792
 20
-104.556
 21
-104.855
  0
LINE
  8
0
 10
10.792
 11
11.145
 20
-104.855
 21
-105.208
  0
LINE
  8
0
 10
11.145
 11
11.444
 20
-105.208
 21
-105.608
  0
LINE
  8
0
 10
11.444
 11
11.684
 20
-105.608
 21
-106.046
  0
LINE
  8
0
 10
11.684
 11
11.858
 20
-106.046
 21
-106.514
  0
LINE
  8
0
 10
11.858
 11
11.964
 20
-106.514
 21
-107.002
  0
LINE
  8
0
 10
11.964
 11
12
 20
-107.002
 21
-107.5
  0
LINE
  8
0
 10
12
 11
11.964
 20
-107.5
 21
-107.998
  0
LINE
  8
0
 10
11.964
 11
11.858
 20
-107.998
 21
-108.486
  0
LINE
  8
0
 10
11.858
 11
11.684
 20
-108.486
 21
-108.954
  0
LINE
  8
0
 10
11.684
 11
11.444
 20
-108.954
 21
-109.392
  0
LINE
  8
0
 10
11.444
 11
11.145
 20
-109.392
 21
-109.792
  0
LINE
  8
0
 10
11.145
 11
10.792
 20
-109.792
 21
-110.145
  0
LINE
  8
0
 10
10.792
 11
10.392
 20
-110.145
 21
-110.444
  0
LINE
  8
0
 10
10.392
 11
9.954
 20
-110.444
 21
-110.684
  0
LINE
  8
0
 10
9.954
 11
9.486
 20
-110.684
 21
-110.858
  0
LINE
  8
0
 10
9.486
 11
8.998
 20
-110.858
 21
-110.964
  0
LINE
  8
0
 10
8.998
 11
8.5
 20
-110.964
 21
-111
  0
LINE
  8
0
 10
8.5
 11
8.002
 20
-111
 21
-110.964
  0
LINE
  8
0
 10
8.002
 11
7.514
 20
-110.964
 21
-110.858
  0
LINE
  8
0
 10
7.514
 11
7.046
 20
-110.858
 21
-110.684
  0
LINE
  8
0
 10
7.046
 11
6.608
 20
-110.684
 21
-110.444
  0
LINE
  8
0
 10
6.608
 11
6.208
 20
-110.444
 21
-110.145
  0
LINE
  8
0
 10
6.208
 11
5.855
 20
-110.145
 21
-109.792
  0
LINE
  8
0
 10
5.855
 11
5.556
 20
-109.792
 21
-109.392
  0
LINE
  8
0
 10
5.556
 11
5.316
 20
-109.392
 21
-108.954
  0
LINE
  8
0
 10
5.316
 11
5.142
 20
-108.954
 21
-108.486
  0
LINE
  8
0
 10
5.142
 11
5.036
 20
-108.486
 21
-107.998
  0
LINE
  8
0
 10
5.036
 11
5
 20
-107.998
 21
-107.5
  0
LINE
  8
0
 10
5
 11
5.048
 20
-22.9
 21
-22.412
  0
LINE
  8
0
 10
5.048
 11
5.19
 20
-22.412
 21
-21.943
  0
LINE
  8
0
 10
5.19
 11
5.421
 20
-21.943
 21
-21.511
  0
LINE
  8
0
 10
5.421
 11
5.732
 20
-21.511
 21
-21.132
  0
LINE
  8
0
 10
5.732
 11
6.111
 20
-21.132
 21
-20.821
  0
LINE
  8
0
 10
6.111
 11
6.543
 20
-20.821
 21
-20.59
  0
LINE
  8
0
 10
6.543
 11
7.012
 20
-20.59
 21
-20.448
  0
LINE
  8
0
 10
7.012
 11
7.5
 20
-20.448
 21
-20.4
  0
LINE
  8
0
 10
7.5
 11
7.988
 20
-20.4
 21
-20.448
  0
LINE
  8
0
 10
7.988
 11
8.457
 20
-20.448
 21
-20.59
  0
LINE
  8
0
 10
8.457
 11
8.889
 20
-20.59
 21
-20.821
  0
LINE
  8
0
 10
8.889
 11
9.268
 20
-20.821
 21
-21.132
  0
LINE
  8
0
 10
9.268
 11
9.579
 20
-21.132
 21
-21.511
  0
LINE
  8
0
 10
9.579
 11
9.81
 20
-21.511
 21
-21.943
  0
LINE
  8
0
 10
9.81
 11
9.952
 20
-21.943
 21
-22.412
  0
LINE
  8
0
 10
9.952
 11
10
 20
-22.412
 21
-22.9
  0
LINE
  8
0
 10
10
 11
9.952
 20
-22.9
 21
-23.388
  0
LINE
  8
0
 10
9.952
 11
9.81
 20
-23.388
 21
-23.857
  0
LINE
  8
0
 10
9.81
 11
9.579
 20
-23.857
 21
-24.289
  0
LINE
  8
0
 10
9.579
 11
9.268
 20
-24.289
 21
-24.668
  0
LINE
  8
0
 10
9.268
 11
8.889
 20
-24.668
 21
-24.979
  0
LINE
  8
0
 10
8.889
 11
8.457
 20
-24.979
 21
-25.21
  0
LINE
  8
0
 10
8.457
 11
7.988
 20
-25.21
 21
-25.352
  0
LINE
  8
0
 10
7.988
 11
7.5
 20
-25.352
 21
-25.4
  0
LINE
  8
0
 10
7.5
 11
7.012
 20
-25.4
 21
-25.352
  0
LINE
  8
0
 10
7.012
 11
6.543
 20
-25.352
 21
-25.21
  0
LINE
  8
0
 10
6.543
 11
6.111
 20
-25.21
 21
-24.979
  0
LINE
  8
0
 10
6.111
 11
5.732
 20
-24.979
 21
-24.668
  0
LINE
  8
0
 10
5.732
 11
5.421
 20
-24.668
 21
-24.289
  0
LINE
  8
0
 10
5.421
 11
5.19
 20
-24.289
 21
-23.857
  0
LINE
  8
0
 10
5.19
 11
5.048
 20
-23.857
 21
-23.388
  0
LINE
  8
0
 10
5.048
 11
5
 20
-23.388
 21
-22.9
  0
LINE
  8
0
 10
5.015
 11
5.015
 20
-95.141
 21
-94.659
  0
LINE
  8
0
 10
5.015
 11
5.13
 20
-94.659
 21
-94.191
  0
LINE
  8
0
 10
5.13
 11
5.354
 20
-94.191
 21
-93.764
  0
LINE
  8
0
 10
5.354
 11
5.674
 20
-93.764
 21
-93.403
  0
LINE
  8
0
 10
5.674
 11
6.071
 20
-93.403
 21
-93.129
  0
LINE
  8
0
 10
6.071
 11
6.521
 20
-93.129
 21
-92.958
  0
LINE
  8
0
 10
6.521
 11
7
 20
-92.958
 21
-92.9
  0
LINE
  8
0
 10
7
 11
7.479
 20
-92.9
 21
-92.958
  0
LINE
  8
0
 10
7.479
 11
7.929
 20
-92.958
 21
-93.129
  0
LINE
  8
0
 10
7.929
 11
8.326
 20
-93.129
 21
-93.403
  0
LINE
  8
0
 10
8.326
 11
8.646
 20
-93.403
 21
-93.764
  0
LINE
  8
0
 10
8.646
 11
8.87
 20
-93.764
 21
-94.191
  0
LINE
  8
0
 10
8.87
 11
8.985
 20
-94.191
 21
-94.659
  0
LINE
  8
0
 10
8.985
 11
8.985
 20
-94.659
 21
-95.141
  0
LINE
  8
0
 10
8.985
 11
8.87
 20
-95.141
 21
-95.609
  0
LINE
  8
0
 10
8.87
 11
8.646
 20
-95.609
 21
-96.036
  0
LINE
  8
0
 10
8.646
 11
8.326
 20
-96.036
 21
-96.397
  0
LINE
  8
0
 10
8.326
 11
7.929
 20
-96.397
 21
-96.671
  0
LINE
  8
0
 10
7.929
 11
7.479
 20
-96.671
 21
-96.842
  0
LINE
  8
0
 10
7.479
 11
7
 20
-96.842
 21
-96.9
  0
LINE
  8
0
 10
7
 11
6.521
 20
-96.9
 21
-96.842
  0
LINE
  8
0
 10
6.521
 11
6.071
 20
-96.842
 21
-96.671
  0
LINE
  8
0
 10
6.071
 11
5.674
 20
-96.671
 21
-96.397
  0
LINE
  8
0
 10
5.674
 11
5.354
 20
-96.397
 21
-96.036
  0
LINE
  8
0
 10
5.354
 11
5.13
 20
-96.036
 21
-95.609
  0
LINE
  8
0
 10
5.13
 11
5.015
 20
-95.609
 21
-95.141
  0
LINE
  8
0
 10
5.015
 11
5.015
 20
-32.641
 21
-32.159
  0
LINE
  8
0
 10
5.015
 11
5.13
 20
-32.159
 21
-31.691
  0
LINE
  8
0
 10
5.13
 11
5.354
 20
-31.691
 21
-31.264
  0
LINE
  8
0
 10
5.354
 11
5.674
 20
-31.264
 21
-30.903
  0
LINE
  8
0
 10
5.674
 11
6.071
 20
-30.903
 21
-30.629
  0
LINE
  8
0
 10
6.071
 11
6.521
 20
-30.629
 21
-30.458
  0
LINE
  8
0
 10
6.521
 11
7
 20
-30.458
 21
-30.4
  0
LINE
  8
0
 10
7
 11
7.479
 20
-30.4
 21
-30.458
  0
LINE
  8
0
 10
7.479
 11
7.929
 20
-30.458
 21
-30.629
  0
LINE
  8
0
 10
7.929
 11
8.326
 20
-30.629
 21
-30.903
  0
LINE
  8
0
 10
8.326
 11
8.646
 20
-30.903
 21
-31.264
  0
LINE
  8
0
 10
8.646
 11
8.87
 20
-31.264
 21
-31.691
  0
LINE
  8
0
 10
8.87
 11
8.985
 20
-31.691
 21
-32.159
  0
LINE
  8
0
 10
8.985
 11
8.985
 20
-32.159
 21
-32.641
  0
LINE
  8
0
 10
8.985
 11
8.87
 20
-32.641
 21
-33.109
  0
LINE
  8
0
 10
8.87
 11
8.646
 20
-33.109
 21
-33.536
  0
LINE
  8
0
 10
8.646
 11
8.326
 20
-33.536
 21
-33.897
  0
LINE
  8
0
 10
8.326
 11
7.929
 20
-33.897
 21
-34.171
  0
LINE
  8
0
 10
7.929
 11
7.479
 20
-34.171
 21
-34.342
  0
LINE
  8
0
 10
7.479
 11
7
 20
-34.342
 21
-34.4
  0
LINE
  8
0
 10
7
 11
6.521
 20
-34.4
 21
-34.342
  0
LINE
  8
0
 10
6.521
 11
6.071
 20
-34.342
 21
-34.171
  0
LINE
  8
0
 10
6.071
 11
5.674
 20
-34.171
 21
-33.897
  0
LINE
  8
0
 10
5.674
 11
5.354
 20
-33.897
 21
-33.536
  0
LINE
  8
0
 10
5.354
 11
5.13
 20
-33.536
 21
-33.109
  0
LINE
  8
0
 10
5.13
 11
5.015
 20
-33.109
 21
-32.641
  0
LINE
  8
0
 10
6
 11
6.055
 20
-161.3
 21
-160.81
  0
LINE
  8
0
 10
6.055
 11
6.218
 20
-160.81
 21
-160.345
  0
LINE
  8
0
 10
6.218
 11
6.48
 20
-160.345
 21
-159.928
  0
LINE
  8
0
 10
6.48
 11
6.828
 20
-159.928
 21
-159.58
  0
LINE
  8
0
 10
6.828
 11
7.245
 20
-159.58
 21
-159.318
  0
LINE
  8
0
 10
7.245
 11
7.71
 20
-159.318
 21
-159.155
  0
LINE
  8
0
 10
7.71
 11
8.2
 20
-159.155
 21
-159.1
  0
LINE
  8
0
 10
8.2
 11
8.69
 20
-159.1
 21
-159.155
  0
LINE
  8
0
 10
8.69
 11
9.155
 20
-159.155
 21
-159.318
  0
LINE
  8
0
 10
9.155
 11
9.572
 20
-159.318
 21
-159.58
  0
LINE
  8
0
 10
9.572
 11
9.92
 20
-159.58
 21
-159.928
  0
LINE
  8
0
 10
9.92
 11
10.182
 20
-159.928
 21
-160.345
  0
LINE
  8
0
 10
10.182
 11
10.345
 20
-160.345
 21
-160.81
  0
LINE
  8
0
 10
10.345
 11
10.4
 20
-160.81
 21
-161.3
  0
LINE
  8
0
 10
10.4
 11
10.345
 20
-161.3
 21
-161.79
  0
LINE
  8
0
 10
10.345
 11
10.182
 20
-161.79
 21
-162.255
  0
LINE
  8
0
 10
10.182
 11
9.92
 20
-162.255
 21
-162.672
  0
LINE
  8
0
 10
9.92
 11
9.572
 20
-162.672
 21
-163.02
  0
LINE
  8
0
 10
9.572
 11
9.155
 20
-163.02
 21
-163.282
  0
LINE
  8
0
 10
9.155
 11
8.69
 20
-163.282
 21
-163.445
  0
LINE
  8
0
 10
8.69
 11
8.2
 20
-163.445
 21
-163.5
  0
LINE
  8
0
 10
8.2
 11
7.71
 20
-163.5
 21
-163.445
  0
LINE
  8
0
 10
7.71
 11
7.245
 20
-163.445
 21
-163.282
  0
LINE
  8
0
 10
7.245
 11
6.828
 20
-163.282
 21
-163.02
  0
LINE
  8
0
 10
6.828
 11
6.48
 20
-163.02
 21
-162.672
  0
LINE
  8
0
 10
6.48
 11
6.218
 20
-162.672
 21
-162.255
  0
LINE
  8
0
 10
6.218
 11
6.055
 20
-162.255
 21
-161.79
  0
LINE
  8
0
 10
6.055
 11
6
 20
-161.79
 21
-161.3
  0
LINE
  8
0
 10
6
 11
6.055
 20
-141.28
 21
-140.79
  0
LINE
  8
0
 10
6.055
 11
6.218
 20
-140.79
 21
-140.325
  0
LINE
  8
0
 10
6.218
 11
6.48
 20
-140.325
 21
-139.908
  0
LINE
  8
0
 10
6.48
 11
6.828
 20
-139.908
 21
-139.56
  0
LINE
  8
0
 10
6.828
 11
7.245
 20
-139.56
 21
-139.298
  0
LINE
  8
0
 10
7.245
 11
7.71
 20
-139.298
 21
-139.135
  0
LINE
  8
0
 10
7.71
 11
8.2
 20
-139.135
 21
-139.08
  0
LINE
  8
0
 10
8.2
 11
8.69
 20
-139.08
 21
-139.135
  0
LINE
  8
0
 10
8.69
 11
9.155
 20
-139.135
 21
-139.298
  0
LINE
  8
0
 10
9.155
 11
9.572
 20
-139.298
 21
-139.56
  0
LINE
  8
0
 10
9.572
 11
9.92
 20
-139.56
 21
-139.908
  0
LINE
  8
0
 10
9.92
 11
10.182
 20
-139.908
 21
-140.325
  0
LINE
  8
0
 10
10.182
 11
10.345
 20
-140.325
 21
-140.79
  0
LINE
  8
0
 10
10.345
 11
10.4
 20
-140.79
 21
-141.28
  0
LINE
  8
0
 10
10.4
 11
10.345
 20
-141.28
 21
-141.77
  0
LINE
  8
0
 10
10.345
 11
10.182
 20
-141.77
 21
-142.235
  0
LINE
  8
0
 10
10.182
 11
9.92
 20
-142.235
 21
-142.652
  0
LINE
  8
0
 10
9.92
 11
9.572
 20
-142.652
 21
-143
  0
LINE
  8
0
 10
9.572
 11
9.155
 20
-143
 21
-143.262
  0
LINE
  8
0
 10
9.155
 11
8.69
 20
-143.262
 21
-143.425
  0
LINE
  8
0
 10
8.69
 11
8.2
 20
-143.425
 21
-143.48
  0
LINE
  8
0
 10
8.2
 11
7.71
 20
-143.48
 21
-143.425
  0
LINE
  8
0
 10
7.71
 11
7.245
 20
-143.425
 21
-143.262
  0
LINE
  8
0
 10
7.245
 11
6.828
 20
-143.262
 21
-143
  0
LINE
  8
0
 10
6.828
 11
6.48
 20
-143
 21
-142.652
  0
LINE
  8
0
 10
6.48
 11
6.218
 20
-142.652
 21
-142.235
  0
LINE
  8
0
 10
6.218
 11
6.055
 20
-142.235
 21
-141.77
  0
LINE
  8
0
 10
6.055
 11
6
 20
-141.77
 21
-141.28
  0
LINE
  8
0
 10
6
 11
6.055
 20
137.28
 21
137.77
  0
LINE
  8
0
 10
6.055
 11
6.218
 20
137.77
 21
138.235
  0
LINE
  8
0
 10
6.218
 11
6.48
 20
138.235
 21
138.652
  0
LINE
  8
0
 10
6.48
 11
6.828
 20
138.652
 21
139
  0
LINE
  8
0
 10
6.828
 11
7.245
 20
139
 21
139.262
  0
LINE
  8
0
 10
7.245
 11
7.71
 20
139.262
 21
139.425
  0
LINE
  8
0
 10
7.71
 11
8.2
 20
139.425
 21
139.48
  0
LINE
  8
0
 10
8.2
 11
8.69
 20
139.48
 21
139.425
  0
LINE
  8
0
 10
8.69
 11
9.155
 20
139.425
 21
139.262
  0
LINE
  8
0
 10
9.155
 11
9.572
 20
139.262
 21
139
  0
LINE
  8
0
 10
9.572
 11
9.92
 20
139
 21
138.652
  0
LINE
  8
0
 10
9.92
 11
10.182
 20
138.652
 21
138.235
  0
LINE
  8
0
 10
10.182
 11
10.345
 20
138.235
 21
137.77
  0
LINE
  8
0
 10
10.345
 11
10.4
 20
137.77
 21
137.28
  0
LINE
  8
0
 10
10.4
 11
10.345
 20
137.28
 21
136.79
  0
LINE
  8
0
 10
10.345
 11
10.182
 20
136.79
 21
136.325
  0
LINE
  8
0
 10
10.182
 11
9.92
 20
136.325
 21
135.908
  0
LINE
  8
0
 10
9.92
 11
9.572
 20
135.908
 21
135.56
  0
LINE
  8
0
 10
9.572
 11
9.155
 20
135.56
 21
135.298
  0
LINE
  8
0
 10
9.155
 11
8.69
 20
135.298
 21
135.135
  0
LINE
  8
0
 10
8.69
 11
8.2
 20
135.135
 21
135.08
  0
LINE
  8
0
 10
8.2
 11
7.71
 20
135.08
 21
135.135
  0
LINE
  8
0
 10
7.71
 11
7.245
 20
135.135
 21
135.298
  0
LINE
  8
0
 10
7.245
 11
6.828
 20
135.298
 21
135.56
  0
LINE
  8
0
 10
6.828
 11
6.48
 20
135.56
 21
135.908
  0
LINE
  8
0
 10
6.48
 11
6.218
 20
135.908
 21
136.325
  0
LINE
  8
0
 10
6.218
 11
6.055
 20
136.325
 21
136.79
  0
LINE
  8
0
 10
6.055
 11
6
 20
136.79
 21
137.28
  0
LINE
  8
0
 10
6
 11
6.055
 20
157.3
 21
157.79
  0
LINE
  8
0
 10
6.055
 11
6.218
 20
157.79
 21
158.255
  0
LINE
  8
0
 10
6.218
 11
6.48
 20
158.255
 21
158.672
  0
LINE
  8
0
 10
6.48
 11
6.828
 20
158.672
 21
159.02
  0
LINE
  8
0
 10
6.828
 11
7.245
 20
159.02
 21
159.282
  0
LINE
  8
0
 10
7.245
 11
7.71
 20
159.282
 21
159.445
  0
LINE
  8
0
 10
7.71
 11
8.2
 20
159.445
 21
159.5
  0
LINE
  8
0
 10
8.2
 11
8.69
 20
159.5
 21
159.445
  0
LINE
  8
0
 10
8.69
 11
9.155
 20
159.445
 21
159.282
  0
LINE
  8
0
 10
9.155
 11
9.572
 20
159.282
 21
159.02
  0
LINE
  8
0
 10
9.572
 11
9.92
 20
159.02
 21
158.672
  0
LINE
  8
0
 10
9.92
 11
10.182
 20
158.672
 21
158.255
  0
LINE
  8
0
 10
10.182
 11
10.345
 20
158.255
 21
157.79
  0
LINE
  8
0
 10
10.345
 11
10.4
 20
157.79
 21
157.3
  0
LINE
  8
0
 10
10.4
 11
10.345
 20
157.3
 21
156.81
  0
LINE
  8
0
 10
10.345
 11
10.182
 20
156.81
 21
156.345
  0
LINE
  8
0
 10
10.182
 11
9.92
 20
156.345
 21
155.928
  0
LINE
  8
0
 10
9.92
 11
9.572
 20
155.928
 21
155.58
  0
LINE
  8
0
 10
9.572
 11
9.155
 20
155.58
 21
155.318
  0
LINE
  8
0
 10
9.155
 11
8.69
 20
155.318
 21
155.155
  0
LINE
  8
0
 10
8.69
 11
8.2
 20
155.155
 21
155.1
  0
LINE
  8
0
 10
8.2
 11
7.71
 20
155.1
 21
155.155
  0
LINE
  8
0
 10
7.71
 11
7.245
 20
155.155
 21
155.318
  0
LINE
  8
0
 10
7.245
 11
6.828
 20
155.318
 21
155.58
  0
LINE
  8
0
 10
6.828
 11
6.48
 20
155.58
 21
155.928
  0
LINE
  8
0
 10
6.48
 11
6.218
 20
155.928
 21
156.345
  0
LINE
  8
0
 10
6.218
 11
6.055
 20
156.345
 21
156.81
  0
LINE
  8
0
 10
6.055
 11
6
 20
156.81
 21
157.3
  0
LINE
  8
0
 10
23.9
 11
23.955
 20
-12.2
 21
-11.71
  0
LINE
  8
0
 10
23.955
 11
24.118
 20
-11.71
 21
-11.245
  0
LINE
  8
0
 10
24.118
 11
24.38
 20
-11.245
 21
-10.828
  0
LINE
  8
0
 10
24.38
 11
24.728
 20
-10.828
 21
-10.48
  0
LINE
  8
0
 10
24.728
 11
25.145
 20
-10.48
 21
-10.218
  0
LINE
  8
0
 10
25.145
 11
25.61
 20
-10.218
 21
-10.055
  0
LINE
  8
0
 10
25.61
 11
26.1
 20
-10.055
 21
-10
  0
LINE
  8
0
 10
26.1
 11
26.59
 20
-10
 21
-10.055
  0
LINE
  8
0
 10
26.59
 11
27.055
 20
-10.055
 21
-10.218
  0
LINE
  8
0
 10
27.055
 11
27.472
 20
-10.218
 21
-10.48
  0
LINE
  8
0
 10
27.472
 11
27.82
 20
-10.48
 21
-10.828
  0
LINE
  8
0
 10
27.82
 11
28.082
 20
-10.828
 21
-11.245
  0
LINE
  8
0
 10
28.082
 11
28.245
 20
-11.245
 21
-11.71
  0
LINE
  8
0
 10
28.245
 11
28.3
 20
-11.71
 21
-12.2
  0
LINE
  8
0
 10
28.3
 11
28.245
 20
-12.2
 21
-12.69
  0
LINE
  8
0
 10
28.245
 11
28.082
 20
-12.69
 21
-13.155
  0
LINE
  8
0
 10
28.082
 11
27.82
 20
-13.155
 21
-13.572
  0
LINE
  8
0
 10
27.82
 11
27.472
 20
-13.572
 21
-13.92
  0
LINE
  8
0
 10
27.472
 11
27.055
 20
-13.92
 21
-14.182
  0
LINE
  8
0
 10
27.055
 11
26.59
 20
-14.182
 21
-14.345
  0
LINE
  8
0
 10
26.59
 11
26.1
 20
-14.345
 21
-14.4
  0
LINE
  8
0
 10
26.1
 11
25.61
 20
-14.4
 21
-14.345
  0
LINE
  8
0
 10
25.61
 11
25.145
 20
-14.345
 21
-14.182
  0
LINE
  8
0
 10
25.145
 11
24.728
 20
-14.182
 21
-13.92
  0
LINE
  8
0
 10
24.728
 11
24.38
 20
-13.92
 21
-13.572
  0
LINE
  8
0
 10
24.38
 11
24.118
 20
-13.572
 21
-13.155
  0
LINE
  8
0
 10
24.118
 11
23.955
 20
-13.155
 21
-12.69
  0
LINE
  8
0
 10
23.955
 11
23.9
 20
-12.69
 21
-12.2
  0
LINE
  8
0
 10
23.9
 11
23.955
 20
8.2
 21
8.69
  0
LINE
  8
0
 10
23.955
 11
24.118
 20
8.69
 21
9.155
  0
LINE
  8
0
 10
24.118
 11
24.38
 20
9.155
 21
9.572
  0
LINE
  8
0
 10
24.38
 11
24.728
 20
9.572
 21
9.92
  0
LINE
  8
0
 10
24.728
 11
25.145
 20
9.92
 21
10.182
  0
LINE
  8
0
 10
25.145
 11
25.61
 20
10.182
 21
10.345
  0
LINE
  8
0
 10
25.61
 11
26.1
 20
10.345
 21
10.4
  0
LINE
  8
0
 10
26.1
 11
26.59
 20
10.4
 21
10.345
  0
LINE
  8
0
 10
26.59
 11
27.055
 20
10.345
 21
10.182
  0
LINE
  8
0
 10
27.055
 11
27.472
 20
10.182
 21
9.92
  0
LINE
  8
0
 10
27.472
 11
27.82
 20
9.92
 21
9.572
  0
LINE
  8
0
 10
27.82
 11
28.082
 20
9.572
 21
9.155
  0
LINE
  8
0
 10
28.082
 11
28.245
 20
9.155
 21
8.69
  0
LINE
  8
0
 10
28.245
 11
28.3
 20
8.69
 21
8.2
  0
LINE
  8
0
 10
28.3
 11
28.245
 20
8.2
 21
7.71
  0
LINE
  8
0
 10
28.245
 11
28.082
 20
7.71
 21
7.245
  0
LINE
  8
0
 10
28.082
 11
27.82
 20
7.245
 21
6.828
  0
LINE
  8
0
 10
27.82
 11
27.472
 20
6.828
 21
6.48
  0
LINE
  8
0
 10
27.472
 11
27.055
 20
6.48
 21
6.218
  0
LINE
  8
0
 10
27.055
 11
26.59
 20
6.218
 21
6.055
  0
LINE
  8
0
 10
26.59
 11
26.1
 20
6.055
 21
6
  0
LINE
  8
0
 10
26.1
 11
25.61
 20
6
 21
6.055
  0
LINE
  8
0
 10
25.61
 11
25.145
 20
6.055
 21
6.218
  0
LINE
  8
0
 10
25.145
 11
24.728
 20
6.218
 21
6.48
  0
LINE
  8
0
 10
24.728
 11
24.38
 20
6.48
 21
6.828
  0
LINE
  8
0
 10
24.38
 11
24.118
 20
6.828
 21
7.245
  0
LINE
  8
0
 10
24.118
 11
23.955
 20
7.245
 21
7.71
  0
LINE
  8
0
 10
23.955
 11
23.9
 20
7.71
 21
8.2
  0
LINE
  8
0
 10
30.7
 11
30.755
 20
-164
 21
-163.51
  0
LINE
  8
0
 10
30.755
 11
30.918
 20
-163.51
 21
-163.045
  0
LINE
  8
0
 10
30.918
 11
31.18
 20
-163.045
 21
-162.628
  0
LINE
  8
0
 10
31.18
 11
31.528
 20
-162.628
 21
-162.28
  0
LINE
  8
0
 10
31.528
 11
31.945
 20
-162.28
 21
-162.018
  0
LINE
  8
0
 10
31.945
 11
32.41
 20
-162.018
 21
-161.855
  0
LINE
  8
0
 10
32.41
 11
32.9
 20
-161.855
 21
-161.8
  0
LINE
  8
0
 10
32.9
 11
33.39
 20
-161.8
 21
-161.855
  0
LINE
  8
0
 10
33.39
 11
33.855
 20
-161.855
 21
-162.018
  0
LINE
  8
0
 10
33.855
 11
34.272
 20
-162.018
 21
-162.28
  0
LINE
  8
0
 10
34.272
 11
34.62
 20
-162.28
 21
-162.628
  0
LINE
  8
0
 10
34.62
 11
34.882
 20
-162.628
 21
-163.045
  0
LINE
  8
0
 10
34.882
 11
35.045
 20
-163.045
 21
-163.51
  0
LINE
  8
0
 10
35.045
 11
35.1
 20
-163.51
 21
-164
  0
LINE
  8
0
 10
35.1
 11
35.045
 20
-164
 21
-164.49
  0
LINE
  8
0
 10
35.045
 11
34.882
 20
-164.49
 21
-164.955
  0
LINE
  8
0
 10
34.882
 11
34.62
 20
-164.955
 21
-165.372
  0
LINE
  8
0
 10
34.62
 11
34.272
 20
-165.372
 21
-165.72
  0
LINE
  8
0
 10
34.272
 11
33.855
 20
-165.72
 21
-165.982
  0
LINE
  8
0
 10
33.855
 11
33.39
 20
-165.982
 21
-166.145
  0
LINE
  8
0
 10
33.39
 11
32.9
 20
-166.145
 21
-166.2
  0
LINE
  8
0
 10
32.9
 11
32.41
 20
-166.2
 21
-166.145
  0
LINE
  8
0
 10
32.41
 11
31.945
 20
-166.145
 21
-165.982
  0
LINE
  8
0
 10
31.945
 11
31.528
 20
-165.982
 21
-165.72
  0
LINE
  8
0
 10
31.528
 11
31.18
 20
-165.72
 21
-165.372
  0
LINE
  8
0
 10
31.18
 11
30.918
 20
-165.372
 21
-164.955
  0
LINE
  8
0
 10
30.918
 11
30.755
 20
-164.955
 21
-164.49
  0
LINE
  8
0
 10
30.755
 11
30.7
 20
-164.49
 21
-164
  0
LINE
  8
0
 10
43.92
 11
43.975
 20
-12.2
 21
-11.71
  0
LINE
  8
0
 10
43.975
 11
44.138
 20
-11.71
 21
-11.245
  0
LINE
  8
0
 10
44.138
 11
44.4
 20
-11.245
 21
-10.828
  0
LINE
  8
0
 10
44.4
 11
44.748
 20
-10.828
 21
-10.48
  0
LINE
  8
0
 10
44.748
 11
45.165
 20
-10.48
 21
-10.218
  0
LINE
  8
0
 10
45.165
 11
45.63
 20
-10.218
 21
-10.055
  0
LINE
  8
0
 10
45.63
 11
46.12
 20
-10.055
 21
-10
  0
LINE
  8
0
 10
46.12
 11
46.61
 20
-10
 21
-10.055
  0
LINE
  8
0
 10
46.61
 11
47.075
 20
-10.055
 21
-10.218
  0
LINE
  8
0
 10
47.075
 11
47.492
 20
-10.218
 21
-10.48
  0
LINE
  8
0
 10
47.492
 11
47.84
 20
-10.48
 21
-10.828
  0
LINE
  8
0
 10
47.84
 11
48.102
 20
-10.828
 21
-11.245
  0
LINE
  8
0
 10
48.102
 11
48.265
 20
-11.245
 21
-11.71
  0
LINE
  8
0
 10
48.265
 11
48.32
 20
-11.71
 21
-12.2
  0
LINE
  8
0
 10
48.32
 11
48.265
 20
-12.2
 21
-12.69
  0
LINE
  8
0
 10
48.265
 11
48.102
 20
-12.69
 21
-13.155
  0
LINE
  8
0
 10
48.102
 11
47.84
 20
-13.155
 21
-13.572
  0
LINE
  8
0
 10
47.84
 11
47.492
 20
-13.572
 21
-13.92
  0
LINE
  8
0
 10
47.492
 11
47.075
 20
-13.92
 21
-14.182
  0
LINE
  8
0
 10
47.075
 11
46.61
 20
-14.182
 21
-14.345
  0
LINE
  8
0
 10
46.61
 11
46.12
 20
-14.345
 21
-14.4
  0
LINE
  8
0
 10
46.12
 11
45.63
 20
-14.4
 21
-14.345
  0
LINE
  8
0
 10
45.63
 11
45.165
 20
-14.345
 21
-14.182
  0
LINE
  8
0
 10
45.165
 11
44.748
 20
-14.182
 21
-13.92
  0
LINE
  8
0
 10
44.748
 11
44.4
 20
-13.92
 21
-13.572
  0
LINE
  8
0
 10
44.4
 11
44.138
 20
-13.572
 21
-13.155
  0
LINE
  8
0
 10
44.138
 11
43.975
 20
-13.155
 21
-12.69
  0
LINE
  8
0
 10
43.975
 11
43.92
 20
-12.69
 21
-12.2
  0
LINE
  8
0
 10
43.92
 11
43.975
 20
8.2
 21
8.69
  0
LINE
  8
0
 10
43.975
 11
44.138
 20
8.69
 21
9.155
  0
LINE
  8
0
 10
44.138
 11
44.4
 20
9.155
 21
9.572
  0
LINE
  8
0
 10
44.4
 11
44.748
 20
9.572
 21
9.92
  0
LINE
  8
0
 10
44.748
 11
45.165
 20
9.92
 21
10.182
  0
LINE
  8
0
 10
45.165
 11
45.63
 20
10.182
 21
10.345
  0
LINE
  8
0
 10
45.63
 11
46.12
 20
10.345
 21
10.4
  0
LINE
  8
0
 10
46.12
 11
46.61
 20
10.4
 21
10.345
  0
LINE
  8
0
 10
46.61
 11
47.075
 20
10.345
 21
10.182
  0
LINE
  8
0
 10
47.075
 11
47.492
 20
10.182
 21
9.92
  0
LINE
  8
0
 10
47.492
 11
47.84
 20
9.92
 21
9.572
  0
LINE
  8
0
 10
47.84
 11
48.102
 20
9.572
 21
9.155
  0
LINE
  8
0
 10
48.102
 11
48.265
 20
9.155
 21
8.69
  0
LINE
  8
0
 10
48.265
 11
48.32
 20
8.69
 21
8.2
  0
LINE
  8
0
 10
48.32
 11
48.265
 20
8.2
 21
7.71
  0
LINE
  8
0
 10
48.265
 11
48.102
 20
7.71
 21
7.245
  0
LINE
  8
0
 10
48.102
 11
47.84
 20
7.245
 21
6.828
  0
LINE
  8
0
 10
47.84
 11
47.492
 20
6.828
 21
6.48
  0
LINE
  8
0
 10
47.492
 11
47.075
 20
6.48
 21
6.218
  0
LINE
  8
0
 10
47.075
 11
46.61
 20
6.218
 21
6.055
  0
LINE
  8
0
 10
46.61
 11
46.12
 20
6.055
 21
6
  0
LINE
  8
0
 10
46.12
 11
45.63
 20
6
 21
6.055
  0
LINE
  8
0
 10
45.63
 11
45.165
 20
6.055
 21
6.218
  0
LINE
  8
0
 10
45.165
 11
44.748
 20
6.218
 21
6.48
  0
LINE
  8
0
 10
44.748
 11
44.4
 20
6.48
 21
6.828
  0
LINE
  8
0
 10
44.4
 11
44.138
 20
6.828
 21
7.245
  0
LINE
  8
0
 10
44.138
 11
43.975
 20
7.245
 21
7.71
  0
LINE
  8
0
 10
43.975
 11
43.92
 20
7.71
 21
8.2
  0
LINE
  8
0
 10
49.55
 11
49.605
 20
22.65
 21
23.14
  0
LINE
  8
0
 10
49.605
 11
49.768
 20
23.14
 21
23.605
  0
LINE
  8
0
 10
49.768
 11
50.03
 20
23.605
 21
24.022
  0
LINE
  8
0
 10
50.03
 11
50.378
 20
24.022
 21
24.37
  0
LINE
  8
0
 10
50.378
 11
50.795
 20
24.37
 21
24.632
  0
LINE
  8
0
 10
50.795
 11
51.26
 20
24.632
 21
24.795
  0
LINE
  8
0
 10
51.26
 11
51.75
 20
24.795
 21
24.85
  0
LINE
  8
0
 10
51.75
 11
52.24
 20
24.85
 21
24.795
  0
LINE
  8
0
 10
52.24
 11
52.705
 20
24.795
 21
24.632
  0
LINE
  8
0
 10
52.705
 11
53.122
 20
24.632
 21
24.37
  0
LINE
  8
0
 10
53.122
 11
53.47
 20
24.37
 21
24.022
  0
LINE
  8
0
 10
53.47
 11
53.732
 20
24.022
 21
23.605
  0
LINE
  8
0
 10
53.732
 11
53.895
 20
23.605
 21
23.14
  0
LINE
  8
0
 10
53.895
 11
53.95
 20
23.14
 21
22.65
  0
LINE
  8
0
 10
53.95
 11
53.895
 20
22.65
 21
22.16
  0
LINE
  8
0
 10
53.895
 11
53.732
 20
22.16
 21
21.695
  0
LINE
  8
0
 10
53.732
 11
53.47
 20
21.695
 21
21.278
  0
LINE
  8
0
 10
53.47
 11
53.122
 20
21.278
 21
20.93
  0
LINE
  8
0
 10
53.122
 11
52.705
 20
20.93
 21
20.668
  0
LINE
  8
0
 10
52.705
 11
52.24
 20
20.668
 21
20.505
  0
LINE
  8
0
 10
52.24
 11
51.75
 20
20.505
 21
20.45
  0
LINE
  8
0
 10
51.75
 11
51.26
 20
20.45
 21
20.505
  0
LINE
  8
0
 10
51.26
 11
50.795
 20
20.505
 21
20.668
  0
LINE
  8
0
 10
50.795
 11
50.378
 20
20.668
 21
20.93
  0
LINE
  8
0
 10
50.378
 11
50.03
 20
20.93
 21
21.278
  0
LINE
  8
0
 10
50.03
 11
49.768
 20
21.278
 21
21.695
  0
LINE
  8
0
 10
49.768
 11
49.605
 20
21.695
 21
22.16
  0
LINE
  8
0
 10
49.605
 11
49.55
 20
22.16
 21
22.65
  0
LINE
  8
0
 10
49.55
 11
49.605
 20
94.15
 21
94.64
  0
LINE
  8
0
 10
49.605
 11
49.768
 20
94.64
 21
95.105
  0
LINE
  8
0
 10
49.768
 11
50.03
 20
95.105
 21
95.522
  0
LINE
  8
0
 10
50.03
 11
50.378
 20
95.522
 21
95.87
  0
LINE
  8
0
 10
50.378
 11
50.795
 20
95.87
 21
96.132
  0
LINE
  8
0
 10
50.795
 11
51.26
 20
96.132
 21
96.295
  0
LINE
  8
0
 10
51.26
 11
51.75
 20
96.295
 21
96.35
  0
LINE
  8
0
 10
51.75
 11
52.24
 20
96.35
 21
96.295
  0
LINE
  8
0
 10
52.24
 11
52.705
 20
96.295
 21
96.132
  0
LINE
  8
0
 10
52.705
 11
53.122
 20
96.132
 21
95.87
  0
LINE
  8
0
 10
53.122
 11
53.47
 20
95.87
 21
95.522
  0
LINE
  8
0
 10
53.47
 11
53.732
 20
95.522
 21
95.105
  0
LINE
  8
0
 10
53.732
 11
53.895
 20
95.105
 21
94.64
  0
LINE
  8
0
 10
53.895
 11
53.95
 20
94.64
 21
94.15
  0
LINE
  8
0
 10
53.95
 11
53.895
 20
94.15
 21
93.66
  0
LINE
  8
0
 10
53.895
 11
53.732
 20
93.66
 21
93.195
  0
LINE
  8
0
 10
53.732
 11
53.47
 20
93.195
 21
92.778
  0
LINE
  8
0
 10
53.47
 11
53.122
 20
92.778
 21
92.43
  0
LINE
  8
0
 10
53.122
 11
52.705
 20
92.43
 21
92.168
  0
LINE
  8
0
 10
52.705
 11
52.24
 20
92.168
 21
92.005
  0
LINE
  8
0
 10
52.24
 11
51.75
 20
92.005
 21
91.95
  0
LINE
  8
0
 10
51.75
 11
51.26
 20
91.95
 21
92.005
  0
LINE
  8
0
 10
51.26
 11
50.795
 20
92.005
 21
92.168
  0
LINE
  8
0
 10
50.795
 11
50.378
 20
92.168
 21
92.43
  0
LINE
  8
0
 10
50.378
 11
50.03
 20
92.43
 21
92.778
  0
LINE
  8
0
 10
50.03
 11
49.768
 20
92.778
 21
93.195
  0
LINE
  8
0
 10
49.768
 11
49.605
 20
93.195
 21
93.66
  0
LINE
  8
0
 10
49.605
 11
49.55
 20
93.66
 21
94.15
  0
LINE
  8
0
 10
50
 11
50.143
 20
58.4
 21
61.668
  0
LINE
  8
0
 10
50.143
 11
50.57
 20
61.668
 21
64.912
  0
LINE
  8
0
 10
50.57
 11
51.278
 20
64.912
 21
68.106
  0
LINE
  8
0
 10
51.278
 11
52.262
 20
68.106
 21
71.226
  0
LINE
  8
0
 10
52.262
 11
53.513
 20
71.226
 21
74.248
  0
LINE
  8
0
 10
53.513
 11
55.024
 20
74.248
 21
77.15
  0
LINE
  8
0
 10
55.024
 11
56.782
 20
77.15
 21
79.909
  0
LINE
  8
0
 10
56.782
 11
58.773
 20
79.909
 21
82.505
  0
LINE
  8
0
 10
58.773
 11
60.983
 20
82.505
 21
84.917
  0
LINE
  8
0
 10
60.983
 11
63.395
 20
84.917
 21
87.127
  0
LINE
  8
0
 10
63.395
 11
65.991
 20
87.127
 21
89.118
  0
LINE
  8
0
 10
65.991
 11
68.75
 20
89.118
 21
90.876
  0
LINE
  8
0
 10
68.75
 11
71.652
 20
90.876
 21
92.387
  0
LINE
  8
0
 10
71.652
 11
74.674
 20
92.387
 21
93.638
  0
LINE
  8
0
 10
74.674
 11
77.794
 20
93.638
 21
94.622
  0
LINE
  8
0
 10
77.794
 11
80.988
 20
94.622
 21
95.33
  0
LINE
  8
0
 10
80.988
 11
84.232
 20
95.33
 21
95.757
  0
LINE
  8
0
 10
84.232
 11
87.5
 20
95.757
 21
95.9
  0
LINE
  8
0
 10
87.5
 11
90.768
 20
95.9
 21
95.757
  0
LINE
  8
0
 10
90.768
 11
94.012
 20
95.757
 21
95.33
  0
LINE
  8
0
 10
94.012
 11
97.206
 20
95.33
 21
94.622
  0
LINE
  8
0
 10
97.206
 11
100.326
 20
94.622
 21
93.638
  0
LINE
  8
0
 10
100.326
 11
103.348
 20
93.638
 21
92.387
  0
LINE
  8
0
 10
103.348
 11
106.25
 20
92.387
 21
90.876
  0
LINE
  8
0
 10
106.25
 11
109.009
 20
90.876
 21
89.118
  0
LINE
  8
0
 10
109.009
 11
111.605
 20
89.118
 21
87.127
  0
LINE
  8
0
 10
111.605
 11
114.017
 20
87.127
 21
84.917
  0
LINE
  8
0
 10
114.017
 11
116.227
 20
84.917
 21
82.505
  0
LINE
  8
0
 10
116.227
 11
118.218
 20
82.505
 21
79.909
  0
LINE
  8
0
 10
118.218
 11
119.976
 20
79.909
 21
77.15
  0
LINE
  8
0
 10
119.976
 11
121.487
 20
77.15
 21
74.248
  0
LINE
  8
0
 10
121.487
 11
122.738
 20
74.248
 21
71.226
  0
LINE
  8
0
 10
122.738
 11
123.722
 20
71.226
 21
68.106
  0
LINE
  8
0
 10
123.722
 11
124.43
 20
68.106
 21
64.912
  0
LINE
  8
0
 10
124.43
 11
124.857
 20
64.912
 21
61.668
  0
LINE
  8
0
 10
124.857
 11
125
 20
61.668
 21
58.4
  0
LINE
  8
0
 10
125
 11
124.857
 20
58.4
 21
55.132
  0
LINE
  8
0
 10
124.857
 11
124.43
 20
55.132
 21
51.888
  0
LINE
  8
0
 10
124.43
 11
123.722
 20
51.888
 21
48.694
  0
LINE
  8
0
 10
123.722
 11
122.738
 20
48.694
 21
45.574
  0
LINE
  8
0
 10
122.738
 11
121.487
 20
45.574
 21
42.552
  0
LINE
  8
0
 10
121.487
 11
119.976
 20
42.552
 21
39.65
  0
LINE
  8
0
 10
119.976
 11
118.218
 20
39.65
 21
36.891
  0
LINE
  8
0
 10
118.218
 11
116.227
 20
36.891
 21
34.295
  0
LINE
  8
0
 10
116.227
 11
114.017
 20
34.295
 21
31.883
  0
LINE
  8
0
 10
114.017
 11
111.605
 20
31.883
 21
29.673
  0
LINE
  8
0
 10
111.605
 11
109.009
 20
29.673
 21
27.682
  0
LINE
  8
0
 10
109.009
 11
106.25
 20
27.682
 21
25.924
  0
LINE
  8
0
 10
106.25
 11
103.348
 20
25.924
 21
24.413
  0
LINE
  8
0
 10
103.348
 11
100.326
 20
24.413
 21
23.162
  0
LINE
  8
0
 10
100.326
 11
97.206
 20
23.162
 21
22.178
  0
LINE
  8
0
 10
97.206
 11
94.012
 20
22.178
 21
21.47
  0
LINE
  8
0
 10
94.012
 11
90.768
 20
21.47
 21
21.043
  0
LINE
  8
0
 10
90.768
 11
87.5
 20
21.043
 21
20.9
  0
LINE
  8
0
 10
87.5
 11
84.232
 20
20.9
 21
21.043
  0
LINE
  8
0
 10
84.232
 11
80.988
 20
21.043
 21
21.47
  0
LINE
  8
0
 10
80.988
 11
77.794
 20
21.47
 21
22.178
  0
LINE
  8
0
 10
77.794
 11
74.674
 20
22.178
 21
23.162
  0
LINE
  8
0
 10
74.674
 11
71.652
 20
23.162
 21
24.413
  0
LINE
  8
0
 10
71.652
 11
68.75
 20
24.413
 21
25.924
  0
LINE
  8
0
 10
68.75
 11
65.991
 20
25.924
 21
27.682
  0
LINE
  8
0
 10
65.991
 11
63.395
 20
27.682
 21
29.673
  0
LINE
  8
0
 10
63.395
 11
60.983
 20
29.673
 21
31.883
  0
LINE
  8
0
 10
60.983
 11
58.773
 20
31.883
 21
34.295
  0
LINE
  8
0
 10
58.773
 11
56.782
 20
34.295
 21
36.891
  0
LINE
  8
0
 10
56.782
 11
55.024
 20
36.891
 21
39.65
  0
LINE
  8
0
 10
55.024
 11
53.513
 20
39.65
 21
42.552
  0
LINE
  8
0
 10
53.513
 11
52.262
 20
42.552
 21
45.574
  0
LINE
  8
0
 10
52.262
 11
51.278
 20
45.574
 21
48.694
  0
LINE
  8
0
 10
51.278
 11
50.57
 20
48.694
 21
51.888
  0
LINE
  8
0
 10
50.57
 11
50.143
 20
51.888
 21
55.132
  0
LINE
  8
0
 10
50.143
 11
50
 20
55.132
 21
58.4
  0
LINE
  8
0
 10
121.05
 11
121.105
 20
22.65
 21
23.14
  0
LINE
  8
0
 10
121.105
 11
121.268
 20
23.14
 21
23.605
  0
LINE
  8
0
 10
121.268
 11
121.53
 20
23.605
 21
24.022
  0
LINE
  8
0
 10
121.53
 11
121.878
 20
24.022
 21
24.37
  0
LINE
  8
0
 10
121.878
 11
122.295
 20
24.37
 21
24.632
  0
LINE
  8
0
 10
122.295
 11
122.76
 20
24.632
 21
24.795
  0
LINE
  8
0
 10
122.76
 11
123.25
 20
24.795
 21
24.85
  0
LINE
  8
0
 10
123.25
 11
123.74
 20
24.85
 21
24.795
  0
LINE
  8
0
 10
123.74
 11
124.205
 20
24.795
 21
24.632
  0
LINE
  8
0
 10
124.205
 11
124.622
 20
24.632
 21
24.37
  0
LINE
  8
0
 10
124.622
 11
124.97
 20
24.37
 21
24.022
  0
LINE
  8
0
 10
124.97
 11
125.232
 20
24.022
 21
23.605
  0
LINE
  8
0
 10
125.232
 11
125.395
 20
23.605
 21
23.14
  0
LINE
  8
0
 10
125.395
 11
125.45
 20
23.14
 21
22.65
  0
LINE
  8
0
 10
125.45
 11
125.395
 20
22.65
 21
22.16
  0
LINE
  8
0
 10
125.395
 11
125.232
 20
22.16
 21
21.695
  0
LINE
  8
0
 10
125.232
 11
124.97
 20
21.695
 21
21.278
  0
LINE
  8
0
 10
124.97
 11
124.622
 20
21.278
 21
20.93
  0
LINE
  8
0
 10
124.622
 11
124.205
 20
20.93
 21
20.668
  0
LINE
  8
0
 10
124.205
 11
123.74
 20
20.668
 21
20.505
  0
LINE
  8
0
 10
123.74
 11
123.25
 20
20.505
 21
20.45
  0
LINE
  8
0
 10
123.25
 11
122.76
 20
20.45
 21
20.505
  0
LINE
  8
0
 10
122.76
 11
122.295
 20
20.505
 21
20.668
  0
LINE
  8
0
 10
122.295
 11
121.878
 20
20.668
 21
20.93
  0
LINE
  8
0
 10
121.878
 11
121.53
 20
20.93
 21
21.278
  0
LINE
  8
0
 10
121.53
 11
121.268
 20
21.278
 21
21.695
  0
LINE
  8
0
 10
121.268
 11
121.105
 20
21.695
 21
22.16
  0
LINE
  8
0
 10
121.105
 11
121.05
 20
22.16
 21
22.65
  0
LINE
  8
0
 10
121.05
 11
121.105
 20
94.15
 21
94.64
  0
LINE
  8
0
 10
121.105
 11
121.268
 20
94.64
 21
95.105
  0
LINE
  8
0
 10
121.268
 11
121.53
 20
95.105
 21
95.522
  0
LINE
  8
0
 10
121.53
 11
121.878
 20
95.522
 21
95.87
  0
LINE
  8
0
 10
121.878
 11
122.295
 20
95.87
 21
96.132
  0
LINE
  8
0
 10
122.295
 11
122.76
 20
96.132
 21
96.295
  0
LINE
  8
0
 10
122.76
 11
123.25
 20
96.295
 21
96.35
  0
LINE
  8
0
 10
123.25
 11
123.74
 20
96.35
 21
96.295
  0
LINE
  8
0
 10
123.74
 11
124.205
 20
96.295
 21
96.132
  0
LINE
  8
0
 10
124.205
 11
124.622
 20
96.132
 21
95.87
  0
LINE
  8
0
 10
124.622
 11
124.97
 20
95.87
 21
95.522
  0
LINE
  8
0
 10
124.97
 11
125.232
 20
95.522
 21
95.105
  0
LINE
  8
0
 10
125.232
 11
125.395
 20
95.105
 21
94.64
  0
LINE
  8
0
 10
125.395
 11
125.45
 20
94.64
 21
94.15
  0
LINE
  8
0
 10
125.45
 11
125.395
 20
94.15
 21
93.66
  0
LINE
  8
0
 10
125.395
 11
125.232
 20
93.66
 21
93.195
  0
LINE
  8
0
 10
125.232
 11
124.97
 20
93.195
 21
92.778
  0
LINE
  8
0
 10
124.97
 11
124.622
 20
92.778
 21
92.43
  0
LINE
  8
0
 10
124.622
 11
124.205
 20
92.43
 21
92.168
  0
LINE
  8
0
 10
124.205
 11
123.74
 20
92.168
 21
92.005
  0
LINE
  8
0
 10
123.74
 11
123.25
 20
92.005
 21
91.95
  0
LINE
  8
0
 10
123.25
 11
122.76
 20
91.95
 21
92.005
  0
LINE
  8
0
 10
122.76
 11
122.295
 20
92.005
 21
92.168
  0
LINE
  8
0
 10
122.295
 11
121.878
 20
92.168
 21
92.43
  0
LINE
  8
0
 10
121.878
 11
121.53
 20
92.43
 21
92.778
  0
LINE
  8
0
 10
121.53
 11
121.268
 20
92.778
 21
93.195
  0
LINE
  8
0
 10
121.268
 11
121.105
 20
93.195
 21
93.66
  0
LINE
  8
0
 10
121.105
 11
121.05
 20
93.66
 21
94.15
  0
LINE
  8
0
 10
147.7
 11
147.755
 20
-164
 21
-163.51
  0
LINE
  8
0
 10
147.755
 11
147.918
 20
-163.51
 21
-163.045
  0
LINE
  8
0
 10
147.918
 11
148.18
 20
-163.045
 21
-162.628
  0
LINE
  8
0
 10
148.18
 11
148.528
 20
-162.628
 21
-162.28
  0
LINE
  8
0
 10
148.528
 11
148.945
 20
-162.28
 21
-162.018
  0
LINE
  8
0
 10
148.945
 11
149.41
 20
-162.018
 21
-161.855
  0
LINE
  8
0
 10
149.41
 11
149.9
 20
-161.855
 21
-161.8
  0
LINE
  8
0
 10
149.9
 11
150.39
 20
-161.8
 21
-161.855
  0
LINE
  8
0
 10
150.39
 11
150.855
 20
-161.855
 21
-162.018
  0
LINE
  8
0
 10
150.855
 11
151.272
 20
-162.018
 21
-162.28
  0
LINE
  8
0
 10
151.272
 11
151.62
 20
-162.28
 21
-162.628
  0
LINE
  8
0
 10
151.62
 11
151.882
 20
-162.628
 21
-163.045
  0
LINE
  8
0
 10
151.882
 11
152.045
 20
-163.045
 21
-163.51
  0
LINE
  8
0
 10
152.045
 11
152.1
 20
-163.51
 21
-164
  0
LINE
  8
0
 10
152.1
 11
152.045
 20
-164
 21
-164.49
  0
LINE
  8
0
 10
152.045
 11
151.882
 20
-164.49
 21
-164.955
  0
LINE
  8
0
 10
151.882
 11
151.62
 20
-164.955
 21
-165.372
  0
LINE
  8
0
 10
151.62
 11
151.272
 20
-165.372
 21
-165.72
  0
LINE
  8
0
 10
151.272
 11
150.855
 20
-165.72
 21
-165.982
  0
LINE
  8
0
 10
150.855
 11
150.39
 20
-165.982
 21
-166.145
  0
LINE
  8
0
 10
150.39
 11
149.9
 20
-166.145
 21
-166.2
  0
LINE
  8
0
 10
149.9
 11
149.41
 20
-166.2
 21
-166.145
  0
LINE
  8
0
 10
149.41
 11
148.945
 20
-166.145
 21
-165.982
  0
LINE
  8
0
 10
148.945
 11
148.528
 20
-165.982
 21
-165.72
  0
LINE
  8
0
 10
148.528
 11
148.18
 20
-165.72
 21
-165.372
  0
LINE
  8
0
 10
148.18
 11
147.918
 20
-165.372
 21
-164.955
  0
LINE
  8
0
 10
147.918
 11
147.755
 20
-164.955
 21
-164.49
  0
LINE
  8
0
 10
147.755
 11
147.7
 20
-164.49
 21
-164
  0
LINE
  8
0
 10
190.65
 11
190.734
 20
-156.45
 21
-155.971
  0
LINE
  8
0
 10
190.734
 11
190.978
 20
-155.971
 21
-155.55
  0
LINE
  8
0
 10
190.978
 11
191.35
 20
-155.55
 21
-155.238
  0
LINE
  8
0
 10
191.35
 11
191.807
 20
-155.238
 21
-155.071
  0
LINE
  8
0
 10
191.807
 11
192.293
 20
-155.071
 21
-155.071
  0
LINE
  8
0
 10
192.293
 11
192.75
 20
-155.071
 21
-155.238
  0
LINE
  8
0
 10
192.75
 11
193.122
 20
-155.238
 21
-155.55
  0
LINE
  8
0
 10
193.122
 11
193.366
 20
-155.55
 21
-155.971
  0
LINE
  8
0
 10
193.366
 11
193.45
 20
-155.971
 21
-156.45
  0
LINE
  8
0
 10
193.45
 11
193.366
 20
-156.45
 21
-156.929
  0
LINE
  8
0
 10
193.366
 11
193.122
 20
-156.929
 21
-157.35
  0
LINE
  8
0
 10
193.122
 11
192.75
 20
-157.35
 21
-157.662
  0
LINE
  8
0
 10
192.75
 11
192.293
 20
-157.662
 21
-157.829
  0
LINE
  8
0
 10
192.293
 11
191.807
 20
-157.829
 21
-157.829
  0
LINE
  8
0
 10
191.807
 11
191.35
 20
-157.829
 21
-157.662
  0
LINE
  8
0
 10
191.35
 11
190.978
 20
-157.662
 21
-157.35
  0
LINE
  8
0
 10
190.978
 11
190.734
 20
-157.35
 21
-156.929
  0
LINE
  8
0
 10
190.734
 11
190.65
 20
-156.929
 21
-156.45
  0
LINE
  8
0
 10
190.65
 11
190.734
 20
-124.95
 21
-124.471
  0
LINE
  8
0
 10
190.734
 11
190.978
 20
-124.471
 21
-124.05
  0
LINE
  8
0
 10
190.978
 11
191.35
 20
-124.05
 21
-123.738
  0
LINE
  8
0
 10
191.35
 11
191.807
 20
-123.738
 21
-123.571
  0
LINE
  8
0
 10
191.807
 11
192.293
 20
-123.571
 21
-123.571
  0
LINE
  8
0
 10
192.293
 11
192.75
 20
-123.571
 21
-123.738
  0
LINE
  8
0
 10
192.75
 11
193.122
 20
-123.738
 21
-124.05
  0
LINE
  8
0
 10
193.122
 11
193.366
 20
-124.05
 21
-124.471
  0
LINE
  8
0
 10
193.366
 11
193.45
 20
-124.471
 21
-124.95
  0
LINE
  8
0
 10
193.45
 11
193.366
 20
-124.95
 21
-125.429
  0
LINE
  8
0
 10
193.366
 11
193.122
 20
-125.429
 21
-125.85
  0
LINE
  8
0
 10
193.122
 11
192.75
 20
-125.85
 21
-126.162
  0
LINE
  8
0
 10
192.75
 11
192.293
 20
-126.162
 21
-126.329
  0
LINE
  8
0
 10
192.293
 11
191.807
 20
-126.329
 21
-126.329
  0
LINE
  8
0
 10
191.807
 11
191.35
 20
-126.329
 21
-126.162
  0
LINE
  8
0
 10
191.35
 11
190.978
 20
-126.162
 21
-125.85
  0
LINE
  8
0
 10
190.978
 11
190.734
 20
-125.85
 21
-125.429
  0
LINE
  8
0
 10
190.734
 11
190.65
 20
-125.429
 21
-124.95
  0
LINE
  8
0
 10
204.95
 11
205.034
 20
-140.55
 21
-140.071
  0
LINE
  8
0
 10
205.034
 11
205.278
 20
-140.071
 21
-139.65
  0
LINE
  8
0
 10
205.278
 11
205.65
 20
-139.65
 21
-139.338
  0
LINE
  8
0
 10
205.65
 11
206.107
 20
-139.338
 21
-139.171
  0
LINE
  8
0
 10
206.107
 11
206.593
 20
-139.171
 21
-139.171
  0
LINE
  8
0
 10
206.593
 11
207.05
 20
-139.171
 21
-139.338
  0
LINE
  8
0
 10
207.05
 11
207.422
 20
-139.338
 21
-139.65
  0
LINE
  8
0
 10
207.422
 11
207.666
 20
-139.65
 21
-140.071
  0
LINE
  8
0
 10
207.666
 11
207.75
 20
-140.071
 21
-140.55
  0
LINE
  8
0
 10
207.75
 11
207.666
 20
-140.55
 21
-141.029
  0
LINE
  8
0
 10
207.666
 11
207.422
 20
-141.029
 21
-141.45
  0
LINE
  8
0
 10
207.422
 11
207.05
 20
-141.45
 21
-141.762
  0
LINE
  8
0
 10
207.05
 11
206.593
 20
-141.762
 21
-141.929
  0
LINE
  8
0
 10
206.593
 11
206.107
 20
-141.929
 21
-141.929
  0
LINE
  8
0
 10
206.107
 11
205.65
 20
-141.929
 21
-141.762
  0
LINE
  8
0
 10
205.65
 11
205.278
 20
-141.762
 21
-141.45
  0
LINE
  8
0
 10
205.278
 11
205.034
 20
-141.45
 21
-141.029
  0
LINE
  8
0
 10
205.034
 11
204.95
 20
-141.029
 21
-140.55
  0
LINE
  8
0
 10
204.95
 11
205.034
 20
-109.05
 21
-108.571
  0
LINE
  8
0
 10
205.034
 11
205.278
 20
-108.571
 21
-108.15
  0
LINE
  8
0
 10
205.278
 11
205.65
 20
-108.15
 21
-107.838
  0
LINE
  8
0
 10
205.65
 11
206.107
 20
-107.838
 21
-107.671
  0
LINE
  8
0
 10
206.107
 11
206.593
 20
-107.671
 21
-107.671
  0
LINE
  8
0
 10
206.593
 11
207.05
 20
-107.671
 21
-107.838
  0
LINE
  8
0
 10
207.05
 11
207.422
 20
-107.838
 21
-108.15
  0
LINE
  8
0
 10
207.422
 11
207.666
 20
-108.15
 21
-108.571
  0
LINE
  8
0
 10
207.666
 11
207.75
 20
-108.571
 21
-109.05
  0
LINE
  8
0
 10
207.75
 11
207.666
 20
-109.05
 21
-109.529
  0
LINE
  8
0
 10
207.666
 11
207.422
 20
-109.529
 21
-109.95
  0
LINE
  8
0
 10
207.422
 11
207.05
 20
-109.95
 21
-110.262
  0
LINE
  8
0
 10
207.05
 11
206.593
 20
-110.262
 21
-110.429
  0
LINE
  8
0
 10
206.593
 11
206.107
 20
-110.429
 21
-110.429
  0
LINE
  8
0
 10
206.107
 11
205.65
 20
-110.429
 21
-110.262
  0
LINE
  8
0
 10
205.65
 11
205.278
 20
-110.262
 21
-109.95
  0
LINE
  8
0
 10
205.278
 11
205.034
 20
-109.95
 21
-109.529
  0
LINE
  8
0
 10
205.034
 11
204.95
 20
-109.529
 21
-109.05
  0
LINE
  8
0
 10
228.365
 11
228.401
 20
-113.813
 21
-113.323
  0
LINE
  8
0
 10
228.401
 11
228.581
 20
-113.323
 21
-112.865
  0
LINE
  8
0
 10
228.581
 11
228.888
 20
-112.865
 21
-112.48
  0
LINE
  8
0
 10
228.888
 11
229.294
 20
-112.48
 21
-112.203
  0
LINE
  8
0
 10
229.294
 11
229.764
 20
-112.203
 21
-112.058
  0
LINE
  8
0
 10
229.764
 11
230.256
 20
-112.058
 21
-112.058
  0
LINE
  8
0
 10
230.256
 11
230.726
 20
-112.058
 21
-112.203
  0
LINE
  8
0
 10
230.726
 11
231.132
 20
-112.203
 21
-112.48
  0
LINE
  8
0
 10
231.132
 11
231.439
 20
-112.48
 21
-112.865
  0
LINE
  8
0
 10
231.439
 11
231.619
 20
-112.865
 21
-113.323
  0
LINE
  8
0
 10
231.619
 11
231.655
 20
-113.323
 21
-113.813
  0
LINE
  8
0
 10
231.655
 11
231.546
 20
-113.813
 21
-114.293
  0
LINE
  8
0
 10
231.546
 11
231.3
 20
-114.293
 21
-114.719
  0
LINE
  8
0
 10
231.3
 11
230.939
 20
-114.719
 21
-115.053
  0
LINE
  8
0
 10
230.939
 11
230.496
 20
-115.053
 21
-115.267
  0
LINE
  8
0
 10
230.496
 11
230.01
 20
-115.267
 21
-115.34
  0
LINE
  8
0
 10
230.01
 11
229.524
 20
-115.34
 21
-115.267
  0
LINE
  8
0
 10
229.524
 11
229.081
 20
-115.267
 21
-115.053
  0
LINE
  8
0
 10
229.081
 11
228.72
 20
-115.053
 21
-114.719
  0
LINE
  8
0
 10
228.72
 11
228.474
 20
-114.719
 21
-114.293
  0
LINE
  8
0
 10
228.474
 11
228.365
 20
-114.293
 21
-113.813
  0
LINE
  8
0
 10
228.365
 11
228.401
 20
-61.433
 21
-60.943
  0
LINE
  8
0
 10
228.401
 11
228.581
 20
-60.943
 21
-60.485
  0
LINE
  8
0
 10
228.581
 11
228.888
 20
-60.485
 21
-60.1
  0
LINE
  8
0
 10
228.888
 11
229.294
 20
-60.1
 21
-59.823
  0
LINE
  8
0
 10
229.294
 11
229.764
 20
-59.823
 21
-59.678
  0
LINE
  8
0
 10
229.764
 11
230.256
 20
-59.678
 21
-59.678
  0
LINE
  8
0
 10
230.256
 11
230.726
 20
-59.678
 21
-59.823
  0
LINE
  8
0
 10
230.726
 11
231.132
 20
-59.823
 21
-60.1
  0
LINE
  8
0
 10
231.132
 11
231.439
 20
-60.1
 21
-60.485
  0
LINE
  8
0
 10
231.439
 11
231.619
 20
-60.485
 21
-60.943
  0
LINE
  8
0
 10
231.619
 11
231.655
 20
-60.943
 21
-61.433
  0
LINE
  8
0
 10
231.655
 11
231.546
 20
-61.433
 21
-61.913
  0
LINE
  8
0
 10
231.546
 11
231.3
 20
-61.913
 21
-62.339
  0
LINE
  8
0
 10
231.3
 11
230.939
 20
-62.339
 21
-62.673
  0
LINE
  8
0
 10
230.939
 11
230.496
 20
-62.673
 21
-62.887
  0
LINE
  8
0
 10
230.496
 11
230.01
 20
-62.887
 21
-62.96
  0
LINE
  8
0
 10
230.01
 11
229.524
 20
-62.96
 21
-62.887
  0
LINE
  8
0
 10
229.524
 11
229.081
 20
-62.887
 21
-62.673
  0
LINE
  8
0
 10
229.081
 11
228.72
 20
-62.673
 21
-62.339
  0
LINE
  8
0
 10
228.72
 11
228.474
 20
-62.339
 21
-61.913
  0
LINE
  8
0
 10
228.474
 11
228.365
 20
-61.913
 21
-61.433
  0
LINE
  8
0
 10
281.312
 11
281.367
 20
-36.1
 21
-35.61
  0
LINE
  8
0
 10
281.367
 11
281.529
 20
-35.61
 21
-35.145
  0
LINE
  8
0
 10
281.529
 11
281.792
 20
-35.145
 21
-34.728
  0
LINE
  8
0
 10
281.792
 11
282.14
 20
-34.728
 21
-34.38
  0
LINE
  8
0
 10
282.14
 11
282.557
 20
-34.38
 21
-34.118
  0
LINE
  8
0
 10
282.557
 11
283.022
 20
-34.118
 21
-33.955
  0
LINE
  8
0
 10
283.022
 11
283.512
 20
-33.955
 21
-33.9
  0
LINE
  8
0
 10
283.512
 11
284.001
 20
-33.9
 21
-33.955
  0
LINE
  8
0
 10
284.001
 11
284.466
 20
-33.955
 21
-34.118
  0
LINE
  8
0
 10
284.466
 11
284.883
 20
-34.118
 21
-34.38
  0
LINE
  8
0
 10
284.883
 11
285.232
 20
-34.38
 21
-34.728
  0
LINE
  8
0
 10
285.232
 11
285.494
 20
-34.728
 21
-35.145
  0
LINE
  8
0
 10
285.494
 11
285.656
 20
-35.145
 21
-35.61
  0
LINE
  8
0
 10
285.656
 11
285.712
 20
-35.61
 21
-36.1
  0
LINE
  8
0
 10
285.712
 11
285.656
 20
-36.1
 21
-36.59
  0
LINE
  8
0
 10
285.656
 11
285.494
 20
-36.59
 21
-37.055
  0
LINE
  8
0
 10
285.494
 11
285.232
 20
-37.055
 21
-37.472
  0
LINE
  8
0
 10
285.232
 11
284.883
 20
-37.472
 21
-37.82
  0
LINE
  8
0
 10
284.883
 11
284.466
 20
-37.82
 21
-38.082
  0
LINE
  8
0
 10
284.466
 11
284.001
 20
-38.082
 21
-38.245
  0
LINE
  8
0
 10
284.001
 11
283.512
 20
-38.245
 21
-38.3
  0
LINE
  8
0
 10
283.512
 11
283.022
 20
-38.3
 21
-38.245
  0
LINE
  8
0
 10
283.022
 11
282.557
 20
-38.245
 21
-38.082
  0
LINE
  8
0
 10
282.557
 11
282.14
 20
-38.082
 21
-37.82
  0
LINE
  8
0
 10
282.14
 11
281.792
 20
-37.82
 21
-37.472
  0
LINE
  8
0
 10
281.792
 11
281.529
 20
-37.472
 21
-37.055
  0
LINE
  8
0
 10
281.529
 11
281.367
 20
-37.055
 21
-36.59
  0
LINE
  8
0
 10
281.367
 11
281.312
 20
-36.59
 21
-36.1
  0
LINE
  8
0
 10
281.312
 11
281.367
 20
88.9
 21
89.39
  0
LINE
  8
0
 10
281.367
 11
281.529
 20
89.39
 21
89.855
  0
LINE
  8
0
 10
281.529
 11
281.792
 20
89.855
 21
90.272
  0
LINE
  8
0
 10
281.792
 11
282.14
 20
90.272
 21
90.62
  0
LINE
  8
0
 10
282.14
 11
282.557
 20
90.62
 21
90.882
  0
LINE
  8
0
 10
282.557
 11
283.022
 20
90.882
 21
91.045
  0
LINE
  8
0
 10
283.022
 11
283.512
 20
91.045
 21
91.1
  0
LINE
  8
0
 10
283.512
 11
284.001
 20
91.1
 21
91.045
  0
LINE
  8
0
 10
284.001
 11
284.466
 20
91.045
 21
90.882
  0
LINE
  8
0
 10
284.466
 11
284.883
 20
90.882
 21
90.62
  0
LINE
  8
0
 10
284.883
 11
285.232
 20
90.62
 21
90.272
  0
LINE
  8
0
 10
285.232
 11
285.494
 20
90.272
 21
89.855
  0
LINE
  8
0
 10
285.494
 11
285.656
 20
89.855
 21
89.39
  0
LINE
  8
0
 10
285.656
 11
285.712
 20
89.39
 21
88.9
  0
LINE
  8
0
 10
285.712
 11
285.656
 20
88.9
 21
88.41
  0
LINE
  8
0
 10
285.656
 11
285.494
 20
88.41
 21
87.945
  0
LINE
  8
0
 10
285.494
 11
285.232
 20
87.945
 21
87.528
  0
LINE
  8
0
 10
285.232
 11
284.883
 20
87.528
 21
87.18
  0
LINE
  8
0
 10
284.883
 11
284.466
 20
87.18
 21
86.918
  0
LINE
  8
0
 10
284.466
 11
284.001
 20
86.918
 21
86.755
  0
LINE
  8
0
 10
284.001
 11
283.512
 20
86.755
 21
86.7
  0
LINE
  8
0
 10
283.512
 11
283.022
 20
86.7
 21
86.755
  0
LINE
  8
0
 10
283.022
 11
282.557
 20
86.755
 21
86.918
  0
LINE
  8
0
 10
282.557
 11
282.14
 20
86.918
 21
87.18
  0
LINE
  8
0
 10
282.14
 11
281.792
 20
87.18
 21
87.528
  0
LINE
  8
0
 10
281.792
 11
281.529
 20
87.528
 21
87.945
  0
LINE
  8
0
 10
281.529
 11
281.367
 20
87.945
 21
88.41
  0
LINE
  8
0
 10
281.367
 11
281.312
 20
88.41
 21
88.9
  0
LINE
  8
0
 10
313.88
 11
313.921
 20
-12
 21
-11.506
  0
LINE
  8
0
 10
313.921
 11
314.043
 20
-11.506
 21
-11.026
  0
LINE
  8
0
 10
314.043
 11
314.242
 20
-11.026
 21
-10.572
  0
LINE
  8
0
 10
314.242
 11
314.513
 20
-10.572
 21
-10.157
  0
LINE
  8
0
 10
314.513
 11
314.848
 20
-10.157
 21
-9.793
  0
LINE
  8
0
 10
314.848
 11
315.239
 20
-9.793
 21
-9.489
  0
LINE
  8
0
 10
315.239
 11
315.675
 20
-9.489
 21
-9.253
  0
LINE
  8
0
 10
315.675
 11
316.144
 20
-9.253
 21
-9.092
  0
LINE
  8
0
 10
316.144
 11
316.632
 20
-9.092
 21
-9.01
  0
LINE
  8
0
 10
316.632
 11
317.128
 20
-9.01
 21
-9.01
  0
LINE
  8
0
 10
317.128
 11
317.616
 20
-9.01
 21
-9.092
  0
LINE
  8
0
 10
317.616
 11
318.085
 20
-9.092
 21
-9.253
  0
LINE
  8
0
 10
318.085
 11
318.521
 20
-9.253
 21
-9.489
  0
LINE
  8
0
 10
318.521
 11
318.912
 20
-9.489
 21
-9.793
  0
LINE
  8
0
 10
318.912
 11
319.247
 20
-9.793
 21
-10.157
  0
LINE
  8
0
 10
319.247
 11
319.518
 20
-10.157
 21
-10.572
  0
LINE
  8
0
 10
319.518
 11
319.717
 20
-10.572
 21
-11.026
  0
LINE
  8
0
 10
319.717
 11
319.839
 20
-11.026
 21
-11.506
  0
LINE
  8
0
 10
319.839
 11
319.88
 20
-11.506
 21
-12
  0
LINE
  8
0
 10
319.88
 11
319.839
 20
-12
 21
-12.494
  0
LINE
  8
0
 10
319.839
 11
319.717
 20
-12.494
 21
-12.974
  0
LINE
  8
0
 10
319.717
 11
319.518
 20
-12.974
 21
-13.428
  0
LINE
  8
0
 10
319.518
 11
319.247
 20
-13.428
 21
-13.843
  0
LINE
  8
0
 10
319.247
 11
318.912
 20
-13.843
 21
-14.207
  0
LINE
  8
0
 10
318.912
 11
318.521
 20
-14.207
 21
-14.511
  0
LINE
  8
0
 10
318.521
 11
318.085
 20
-14.511
 21
-14.747
  0
LINE
  8
0
 10
318.085
 11
317.616
 20
-14.747
 21
-14.908
  0
LINE
  8
0
 10
317.616
 11
317.128
 20
-14.908
 21
-14.99
  0
LINE
  8
0
 10
317.128
 11
316.632
 20
-14.99
 21
-14.99
  0
LINE
  8
0
 10
316.632
 11
316.144
 20
-14.99
 21
-14.908
  0
LINE
  8
0
 10
316.144
 11
315.675
 20
-14.908
 21
-14.747
  0
LINE
  8
0
 10
315.675
 11
315.239
 20
-14.747
 21
-14.511
  0
LINE
  8
0
 10
315.239
 11
314.848
 20
-14.511
 21
-14.207
  0
LINE
  8
0
 10
314.848
 11
314.513
 20
-14.207
 21
-13.843
  0
LINE
  8
0
 10
314.513
 11
314.242
 20
-13.843
 21
-13.428
  0
LINE
  8
0
 10
314.242
 11
314.043
 20
-13.428
 21
-12.974
  0
LINE
  8
0
 10
314.043
 11
313.921
 20
-12.974
 21
-12.494
  0
LINE
  8
0
 10
313.921
 11
313.88
 20
-12.494
 21
-12
  0
LINE
  8
0
 10
313.88
 11
313.921
 20
8
 21
8.494
  0
LINE
  8
0
 10
313.921
 11
314.043
 20
8.494
 21
8.974
  0
LINE
  8
0
 10
314.043
 11
314.242
 20
8.974
 21
9.428
  0
LINE
  8
0
 10
314.242
 11
314.513
 20
9.428
 21
9.843
  0
LINE
  8
0
 10
314.513
 11
314.848
 20
9.843
 21
10.207
  0
LINE
  8
0
 10
314.848
 11
315.239
 20
10.207
 21
10.511
  0
LINE
  8
0
 10
315.239
 11
315.675
 20
10.511
 21
10.747
  0
LINE
  8
0
 10
315.675
 11
316.144
 20
10.747
 21
10.908
  0
LINE
  8
0
 10
316.144
 11
316.632
 20
10.908
 21
10.99
  0
LINE
  8
0
 10
316.632
 11
317.128
 20
10.99
 21
10.99
  0
LINE
  8
0
 10
317.128
 11
317.616
 20
10.99
 21
10.908
  0
LINE
  8
0
 10
317.616
 11
318.085
 20
10.908
 21
10.747
  0
LINE
  8
0
 10
318.085
 11
318.521
 20
10.747
 21
10.511
  0
LINE
  8
0
 10
318.521
 11
318.912
 20
10.511
 21
10.207
  0
LINE
  8
0
 10
318.912
 11
319.247
 20
10.207
 21
9.843
  0
LINE
  8
0
 10
319.247
 11
319.518
 20
9.843
 21
9.428
  0
LINE
  8
0
 10
319.518
 11
319.717
 20
9.428
 21
8.974
  0
LINE
  8
0
 10
319.717
 11
319.839
 20
8.974
 21
8.494
  0
LINE
  8
0
 10
319.839
 11
319.88
 20
8.494
 21
8
  0
LINE
  8
0
 10
319.88
 11
319.839
 20
8
 21
7.506
  0
LINE
  8
0
 10
319.839
 11
319.717
 20
7.506
 21
7.026
  0
LINE
  8
0
 10
319.717
 11
319.518
 20
7.026
 21
6.572
  0
LINE
  8
0
 10
319.518
 11
319.247
 20
6.572
 21
6.157
  0
LINE
  8
0
 10
319.247
 11
318.912
 20
6.157
 21
5.793
  0
LINE
  8
0
 10
318.912
 11
318.521
 20
5.793
 21
5.489
  0
LINE
  8
0
 10
318.521
 11
318.085
 20
5.489
 21
5.253
  0
LINE
  8
0
 10
318.085
 11
317.616
 20
5.253
 21
5.092
  0
LINE
  8
0
 10
317.616
 11
317.128
 20
5.092
 21
5.01
  0
LINE
  8
0
 10
317.128
 11
316.632
 20
5.01
 21
5.01
  0
LINE
  8
0
 10
316.632
 11
316.144
 20
5.01
 21
5.092
  0
LINE
  8
0
 10
316.144
 11
315.675
 20
5.092
 21
5.253
  0
LINE
  8
0
 10
315.675
 11
315.239
 20
5.253
 21
5.489
  0
LINE
  8
0
 10
315.239
 11
314.848
 20
5.489
 21
5.793
  0
LINE
  8
0
 10
314.848
 11
314.513
 20
5.793
 21
6.157
  0
LINE
  8
0
 10
314.513
 11
314.242
 20
6.157
 21
6.572
  0
LINE
  8
0
 10
314.242
 11
314.043
 20
6.572
 21
7.026
  0
LINE
  8
0
 10
314.043
 11
313.921
 20
7.026
 21
7.506
  0
LINE
  8
0
 10
313.921
 11
313.88
 20
7.506
 21
8
  0
LINE
  8
0
 10
322.745
 11
322.781
 20
-113.813
 21
-113.323
  0
LINE
  8
0
 10
322.781
 11
322.961
 20
-113.323
 21
-112.865
  0
LINE
  8
0
 10
322.961
 11
323.268
 20
-112.865
 21
-112.48
  0
LINE
  8
0
 10
323.268
 11
323.674
 20
-112.48
 21
-112.203
  0
LINE
  8
0
 10
323.674
 11
324.144
 20
-112.203
 21
-112.058
  0
LINE
  8
0
 10
324.144
 11
324.636
 20
-112.058
 21
-112.058
  0
LINE
  8
0
 10
324.636
 11
325.106
 20
-112.058
 21
-112.203
  0
LINE
  8
0
 10
325.106
 11
325.512
 20
-112.203
 21
-112.48
  0
LINE
  8
0
 10
325.512
 11
325.819
 20
-112.48
 21
-112.865
  0
LINE
  8
0
 10
325.819
 11
325.999
 20
-112.865
 21
-113.323
  0
LINE
  8
0
 10
325.999
 11
326.035
 20
-113.323
 21
-113.813
  0
LINE
  8
0
 10
326.035
 11
325.926
 20
-113.813
 21
-114.293
  0
LINE
  8
0
 10
325.926
 11
325.68
 20
-114.293
 21
-114.719
  0
LINE
  8
0
 10
325.68
 11
325.319
 20
-114.719
 21
-115.053
  0
LINE
  8
0
 10
325.319
 11
324.876
 20
-115.053
 21
-115.267
  0
LINE
  8
0
 10
324.876
 11
324.39
 20
-115.267
 21
-115.34
  0
LINE
  8
0
 10
324.39
 11
323.904
 20
-115.34
 21
-115.267
  0
LINE
  8
0
 10
323.904
 11
323.461
 20
-115.267
 21
-115.053
  0
LINE
  8
0
 10
323.461
 11
323.1
 20
-115.053
 21
-114.719
  0
LINE
  8
0
 10
323.1
 11
322.854
 20
-114.719
 21
-114.293
  0
LINE
  8
0
 10
322.854
 11
322.745
 20
-114.293
 21
-113.813
  0
LINE
  8
0
 10
322.745
 11
322.781
 20
-61.433
 21
-60.943
  0
LINE
  8
0
 10
322.781
 11
322.961
 20
-60.943
 21
-60.485
  0
LINE
  8
0
 10
322.961
 11
323.268
 20
-60.485
 21
-60.1
  0
LINE
  8
0
 10
323.268
 11
323.674
 20
-60.1
 21
-59.823
  0
LINE
  8
0
 10
323.674
 11
324.144
 20
-59.823
 21
-59.678
  0
LINE
  8
0
 10
324.144
 11
324.636
 20
-59.678
 21
-59.678
  0
LINE
  8
0
 10
324.636
 11
325.106
 20
-59.678
 21
-59.823
  0
LINE
  8
0
 10
325.106
 11
325.512
 20
-59.823
 21
-60.1
  0
LINE
  8
0
 10
325.512
 11
325.819
 20
-60.1
 21
-60.485
  0
LINE
  8
0
 10
325.819
 11
325.999
 20
-60.485
 21
-60.943
  0
LINE
  8
0
 10
325.999
 11
326.035
 20
-60.943
 21
-61.433
  0
LINE
  8
0
 10
326.035
 11
325.926
 20
-61.433
 21
-61.913
  0
LINE
  8
0
 10
325.926
 11
325.68
 20
-61.913
 21
-62.339
  0
LINE
  8
0
 10
325.68
 11
325.319
 20
-62.339
 21
-62.673
  0
LINE
  8
0
 10
325.319
 11
324.876
 20
-62.673
 21
-62.887
  0
LINE
  8
0
 10
324.876
 11
324.39
 20
-62.887
 21
-62.96
  0
LINE
  8
0
 10
324.39
 11
323.904
 20
-62.96
 21
-62.887
  0
LINE
  8
0
 10
323.904
 11
323.461
 20
-62.887
 21
-62.673
  0
LINE
  8
0
 10
323.461
 11
323.1
 20
-62.673
 21
-62.339
  0
LINE
  8
0
 10
323.1
 11
322.854
 20
-62.339
 21
-61.913
  0
LINE
  8
0
 10
322.854
 11
322.745
 20
-61.913
 21
-61.433
  0
LINE
  8
0
 10
326.78
 11
326.838
 20
-11
 21
-10.521
  0
LINE
  8
0
 10
326.838
 11
327.009
 20
-10.521
 21
-10.071
  0
LINE
  8
0
 10
327.009
 11
327.283
 20
-10.071
 21
-9.674
  0
LINE
  8
0
 10
327.283
 11
327.644
 20
-9.674
 21
-9.354
  0
LINE
  8
0
 10
327.644
 11
328.071
 20
-9.354
 21
-9.13
  0
LINE
  8
0
 10
328.071
 11
328.539
 20
-9.13
 21
-9.015
  0
LINE
  8
0
 10
328.539
 11
329.021
 20
-9.015
 21
-9.015
  0
LINE
  8
0
 10
329.021
 11
329.489
 20
-9.015
 21
-9.13
  0
LINE
  8
0
 10
329.489
 11
329.916
 20
-9.13
 21
-9.354
  0
LINE
  8
0
 10
329.916
 11
330.277
 20
-9.354
 21
-9.674
  0
LINE
  8
0
 10
330.277
 11
330.551
 20
-9.674
 21
-10.071
  0
LINE
  8
0
 10
330.551
 11
330.722
 20
-10.071
 21
-10.521
  0
LINE
  8
0
 10
330.722
 11
330.78
 20
-10.521
 21
-11
  0
LINE
  8
0
 10
330.78
 11
330.722
 20
-11
 21
-11.479
  0
LINE
  8
0
 10
330.722
 11
330.551
 20
-11.479
 21
-11.929
  0
LINE
  8
0
 10
330.551
 11
330.277
 20
-11.929
 21
-12.326
  0
LINE
  8
0
 10
330.277
 11
329.916
 20
-12.326
 21
-12.646
  0
LINE
  8
0
 10
329.916
 11
329.489
 20
-12.646
 21
-12.87
  0
LINE
  8
0
 10
329.489
 11
329.021
 20
-12.87
 21
-12.985
  0
LINE
  8
0
 10
329.021
 11
328.539
 20
-12.985
 21
-12.985
  0
LINE
  8
0
 10
328.539
 11
328.071
 20
-12.985
 21
-12.87
  0
LINE
  8
0
 10
328.071
 11
327.644
 20
-12.87
 21
-12.646
  0
LINE
  8
0
 10
327.644
 11
327.283
 20
-12.646
 21
-12.326
  0
LINE
  8
0
 10
327.283
 11
327.009
 20
-12.326
 21
-11.929
  0
LINE
  8
0
 10
327.009
 11
326.838
 20
-11.929
 21
-11.479
  0
LINE
  8
0
 10
326.838
 11
326.78
 20
-11.479
 21
-11
  0
LINE
  8
0
 10
326.78
 11
326.838
 20
7
 21
7.479
  0
LINE
  8
0
 10
326.838
 11
327.009
 20
7.479
 21
7.929
  0
LINE
  8
0
 10
327.009
 11
327.283
 20
7.929
 21
8.326
  0
LINE
  8
0
 10
327.283
 11
327.644
 20
8.326
 21
8.646
  0
LINE
  8
0
 10
327.644
 11
328.071
 20
8.646
 21
8.87
  0
LINE
  8
0
 10
328.071
 11
328.539
 20
8.87
 21
8.985
  0
LINE
  8
0
 10
328.539
 11
329.021
 20
8.985
 21
8.985
  0
LINE
  8
0
 10
329.021
 11
329.489
 20
8.985
 21
8.87
  0
LINE
  8
0
 10
329.489
 11
329.916
 20
8.87
 21
8.646
  0
LINE
  8
0
 10
329.916
 11
330.277
 20
8.646
 21
8.326
  0
LINE
  8
0
 10
330.277
 11
330.551
 20
8.326
 21
7.929
  0
LINE
  8
0
 10
330.551
 11
330.722
 20
7.929
 21
7.479
  0
LINE
  8
0
 10
330.722
 11
330.78
 20
7.479
 21
7
  0
LINE
  8
0
 10
330.78
 11
330.722
 20
7
 21
6.521
  0
LINE
  8
0
 10
330.722
 11
330.551
 20
6.521
 21
6.071
  0
LINE
  8
0
 10
330.551
 11
330.277
 20
6.071
 21
5.674
  0
LINE
  8
0
 10
330.277
 11
329.916
 20
5.674
 21
5.354
  0
LINE
  8
0
 10
329.916
 11
329.489
 20
5.354
 21
5.13
  0
LINE
  8
0
 10
329.489
 11
329.021
 20
5.13
 21
5.015
  0
LINE
  8
0
 10
329.021
 11
328.539
 20
5.015
 21
5.015
  0
LINE
  8
0
 10
328.539
 11
328.071
 20
5.015
 21
5.13
  0
LINE
  8
0
 10
328.071
 11
327.644
 20
5.13
 21
5.354
  0
LINE
  8
0
 10
327.644
 11
327.283
 20
5.354
 21
5.674
  0
LINE
  8
0
 10
327.283
 11
327.009
 20
5.674
 21
6.071
  0
LINE
  8
0
 10
327.009
 11
326.838
 20
6.071
 21
6.521
  0
LINE
  8
0
 10
326.838
 11
326.78
 20
6.521
 21
7
  0
LINE
  8
0
 10
339.68
 11
339.735
 20
-12.2
 21
-11.71
  0
LINE
  8
0
 10
339.735
 11
339.898
 20
-11.71
 21
-11.245
  0
LINE
  8
0
 10
339.898
 11
340.16
 20
-11.245
 21
-10.828
  0
LINE
  8
0
 10
340.16
 11
340.508
 20
-10.828
 21
-10.48
  0
LINE
  8
0
 10
340.508
 11
340.925
 20
-10.48
 21
-10.218
  0
LINE
  8
0
 10
340.925
 11
341.39
 20
-10.218
 21
-10.055
  0
LINE
  8
0
 10
341.39
 11
341.88
 20
-10.055
 21
-10
  0
LINE
  8
0
 10
341.88
 11
342.37
 20
-10
 21
-10.055
  0
LINE
  8
0
 10
342.37
 11
342.835
 20
-10.055
 21
-10.218
  0
LINE
  8
0
 10
342.835
 11
343.252
 20
-10.218
 21
-10.48
  0
LINE
  8
0
 10
343.252
 11
343.6
 20
-10.48
 21
-10.828
  0
LINE
  8
0
 10
343.6
 11
343.862
 20
-10.828
 21
-11.245
  0
LINE
  8
0
 10
343.862
 11
344.025
 20
-11.245
 21
-11.71
  0
LINE
  8
0
 10
344.025
 11
344.08
 20
-11.71
 21
-12.2
  0
LINE
  8
0
 10
344.08
 11
344.025
 20
-12.2
 21
-12.69
  0
LINE
  8
0
 10
344.025
 11
343.862
 20
-12.69
 21
-13.155
  0
LINE
  8
0
 10
343.862
 11
343.6
 20
-13.155
 21
-13.572
  0
LINE
  8
0
 10
343.6
 11
343.252
 20
-13.572
 21
-13.92
  0
LINE
  8
0
 10
343.252
 11
342.835
 20
-13.92
 21
-14.182
  0
LINE
  8
0
 10
342.835
 11
342.37
 20
-14.182
 21
-14.345
  0
LINE
  8
0
 10
342.37
 11
341.88
 20
-14.345
 21
-14.4
  0
LINE
  8
0
 10
341.88
 11
341.39
 20
-14.4
 21
-14.345
  0
LINE
  8
0
 10
341.39
 11
340.925
 20
-14.345
 21
-14.182
  0
LINE
  8
0
 10
340.925
 11
340.508
 20
-14.182
 21
-13.92
  0
LINE
  8
0
 10
340.508
 11
340.16
 20
-13.92
 21
-13.572
  0
LINE
  8
0
 10
340.16
 11
339.898
 20
-13.572
 21
-13.155
  0
LINE
  8
0
 10
339.898
 11
339.735
 20
-13.155
 21
-12.69
  0
LINE
  8
0
 10
339.735
 11
339.68
 20
-12.69
 21
-12.2
  0
LINE
  8
0
 10
339.68
 11
339.735
 20
8.2
 21
8.69
  0
LINE
  8
0
 10
339.735
 11
339.898
 20
8.69
 21
9.155
  0
LINE
  8
0
 10
339.898
 11
340.16
 20
9.155
 21
9.572
  0
LINE
  8
0
 10
340.16
 11
340.508
 20
9.572
 21
9.92
  0
LINE
  8
0
 10
340.508
 11
340.925
 20
9.92
 21
10.182
  0
LINE
  8
0
 10
340.925
 11
341.39
 20
10.182
 21
10.345
  0
LINE
  8
0
 10
341.39
 11
341.88
 20
10.345
 21
10.4
  0
LINE
  8
0
 10
341.88
 11
342.37
 20
10.4
 21
10.345
  0
LINE
  8
0
 10
342.37
 11
342.835
 20
10.345
 21
10.182
  0
LINE
  8
0
 10
342.835
 11
343.252
 20
10.182
 21
9.92
  0
LINE
  8
0
 10
343.252
 11
343.6
 20
9.92
 21
9.572
  0
LINE
  8
0
 10
343.6
 11
343.862
 20
9.572
 21
9.155
  0
LINE
  8
0
 10
343.862
 11
344.025
 20
9.155
 21
8.69
  0
LINE
  8
0
 10
344.025
 11
344.08
 20
8.69
 21
8.2
  0
LINE
  8
0
 10
344.08
 11
344.025
 20
8.2
 21
7.71
  0
LINE
  8
0
 10
344.025
 11
343.862
 20
7.71
 21
7.245
  0
LINE
  8
0
 10
343.862
 11
343.6
 20
7.245
 21
6.828
  0
LINE
  8
0
 10
343.6
 11
343.252
 20
6.828
 21
6.48
  0
LINE
  8
0
 10
343.252
 11
342.835
 20
6.48
 21
6.218
  0
LINE
  8
0
 10
342.835
 11
342.37
 20
6.218
 21
6.055
  0
LINE
  8
0
 10
342.37
 11
341.88
 20
6.055
 21
6
  0
LINE
  8
0
 10
341.88
 11
341.39
 20
6
 21
6.055
  0
LINE
  8
0
 10
341.39
 11
340.925
 20
6.055
 21
6.218
  0
LINE
  8
0
 10
340.925
 11
340.508
 20
6.218
 21
6.48
  0
LINE
  8
0
 10
340.508
 11
340.16
 20
6.48
 21
6.828
  0
LINE
  8
0
 10
340.16
 11
339.898
 20
6.828
 21
7.245
  0
LINE
  8
0
 10
339.898
 11
339.735
 20
7.245
 21
7.71
  0
LINE
  8
0
 10
339.735
 11
339.68
 20
7.71
 21
8.2
  0
LINE
  8
0
 10
359.7
 11
359.755
 20
-12.2
 21
-11.71
  0
LINE
  8
0
 10
359.755
 11
359.918
 20
-11.71
 21
-11.245
  0
LINE
  8
0
 10
359.918
 11
360.18
 20
-11.245
 21
-10.828
  0
LINE
  8
0
 10
360.18
 11
360.528
 20
-10.828
 21
-10.48
  0
LINE
  8
0
 10
360.528
 11
360.945
 20
-10.48
 21
-10.218
  0
LINE
  8
0
 10
360.945
 11
361.41
 20
-10.218
 21
-10.055
  0
LINE
  8
0
 10
361.41
 11
361.9
 20
-10.055
 21
-10
  0
LINE
  8
0
 10
361.9
 11
362.39
 20
-10
 21
-10.055
  0
LINE
  8
0
 10
362.39
 11
362.855
 20
-10.055
 21
-10.218
  0
LINE
  8
0
 10
362.855
 11
363.272
 20
-10.218
 21
-10.48
  0
LINE
  8
0
 10
363.272
 11
363.62
 20
-10.48
 21
-10.828
  0
LINE
  8
0
 10
363.62
 11
363.882
 20
-10.828
 21
-11.245
  0
LINE
  8
0
 10
363.882
 11
364.045
 20
-11.245
 21
-11.71
  0
LINE
  8
0
 10
364.045
 11
364.1
 20
-11.71
 21
-12.2
  0
LINE
  8
0
 10
364.1
 11
364.045
 20
-12.2
 21
-12.69
  0
LINE
  8
0
 10
364.045
 11
363.882
 20
-12.69
 21
-13.155
  0
LINE
  8
0
 10
363.882
 11
363.62
 20
-13.155
 21
-13.572
  0
LINE
  8
0
 10
363.62
 11
363.272
 20
-13.572
 21
-13.92
  0
LINE
  8
0
 10
363.272
 11
362.855
 20
-13.92
 21
-14.182
  0
LINE
  8
0
 10
362.855
 11
362.39
 20
-14.182
 21
-14.345
  0
LINE
  8
0
 10
362.39
 11
361.9
 20
-14.345
 21
-14.4
  0
LINE
  8
0
 10
361.9
 11
361.41
 20
-14.4
 21
-14.345
  0
LINE
  8
0
 10
361.41
 11
360.945
 20
-14.345
 21
-14.182
  0
LINE
  8
0
 10
360.945
 11
360.528
 20
-14.182
 21
-13.92
  0
LINE
  8
0
 10
360.528
 11
360.18
 20
-13.92
 21
-13.572
  0
LINE
  8
0
 10
360.18
 11
359.918
 20
-13.572
 21
-13.155
  0
LINE
  8
0
 10
359.918
 11
359.755
 20
-13.155
 21
-12.69
  0
LINE
  8
0
 10
359.755
 11
359.7
 20
-12.69
 21
-12.2
  0
LINE
  8
0
 10
359.7
 11
359.755
 20
8.2
 21
8.69
  0
LINE
  8
0
 10
359.755
 11
359.918
 20
8.69
 21
9.155
  0
LINE
  8
0
 10
359.918
 11
360.18
 20
9.155
 21
9.572
  0
LINE
  8
0
 10
360.18
 11
360.528
 20
9.572
 21
9.92
  0
LINE
  8
0
 10
360.528
 11
360.945
 20
9.92
 21
10.182
  0
LINE
  8
0
 10
360.945
 11
361.41
 20
10.182
 21
10.345
  0
LINE
  8
0
 10
361.41
 11
361.9
 20
10.345
 21
10.4
  0
LINE
  8
0
 10
361.9
 11
362.39
 20
10.4
 21
10.345
  0
LINE
  8
0
 10
362.39
 11
362.855
 20
10.345
 21
10.182
  0
LINE
  8
0
 10
362.855
 11
363.272
 20
10.182
 21
9.92
  0
LINE
  8
0
 10
363.272
 11
363.62
 20
9.92
 21
9.572
  0
LINE
  8
0
 10
363.62
 11
363.882
 20
9.572
 21
9.155
  0
LINE
  8
0
 10
363.882
 11
364.045
 20
9.155
 21
8.69
  0
LINE
  8
0
 10
364.045
 11
364.1
 20
8.69
 21
8.2
  0
LINE
  8
0
 10
364.1
 11
364.045
 20
8.2
 21
7.71
  0
LINE
  8
0
 10
364.045
 11
363.882
 20
7.71
 21
7.245
  0
LINE
  8
0
 10
363.882
 11
363.62
 20
7.245
 21
6.828
  0
LINE
  8
0
 10
363.62
 11
363.272
 20
6.828
 21
6.48
  0
LINE
  8
0
 10
363.272
 11
362.855
 20
6.48
 21
6.218
  0
LINE
  8
0
 10
362.855
 11
362.39
 20
6.218
 21
6.055
  0
LINE
  8
0
 10
362.39
 11
361.9
 20
6.055
 21
6
  0
LINE
  8
0
 10
361.9
 11
361.41
 20
6
 21
6.055
  0
LINE
  8
0
 10
361.41
 11
360.945
 20
6.055
 21
6.218
  0
LINE
  8
0
 10
360.945
 11
360.528
 20
6.218
 21
6.48
  0
LINE
  8
0
 10
360.528
 11
360.18
 20
6.48
 21
6.828
  0
LINE
  8
0
 10
360.18
 11
359.918
 20
6.828
 21
7.245
  0
LINE
  8
0
 10
359.918
 11
359.755
 20
7.245
 21
7.71
  0
LINE
  8
0
 10
359.755
 11
359.7
 20
7.71
 21
8.2
  0
ENDSEC
  0
SECTION
  2
OBJECTS
  0
DICTIONARY
  0
ENDSEC
  0
EOF
