  0
SECTION
  2
BLOCKS
  0
ENDSEC
  0
SECTION
  2
ENTITIES
  0
LINE
  8
0
 10
-235.25
 11
-235.25
 20
0
 21
388
  0
LINE
  8
0
 10
-235.25
 11
235.25
 20
388
 21
388
  0
LINE
  8
0
 10
235.25
 11
235.25
 20
388
 21
0
  0
LINE
  8
0
 10
235.25
 11
118.25
 20
0
 21
0
  0
LINE
  8
0
 10
118.25
 11
118.25
 20
0
 21
278.1
  0
LINE
  8
0
 10
118.25
 11
118.225
 20
278.1
 21
278.598
  0
LINE
  8
0
 10
118.225
 11
118.151
 20
278.598
 21
279.091
  0
LINE
  8
0
 10
118.151
 11
118.028
 20
279.091
 21
279.574
  0
LINE
  8
0
 10
118.028
 11
117.857
 20
279.574
 21
280.042
  0
LINE
  8
0
 10
117.857
 11
117.641
 20
280.042
 21
280.491
  0
LINE
  8
0
 10
117.641
 11
117.381
 20
280.491
 21
280.917
  0
LINE
  8
0
 10
117.381
 11
117.08
 20
280.917
 21
281.314
  0
LINE
  8
0
 10
117.08
 11
116.741
 20
281.314
 21
281.679
  0
LINE
  8
0
 10
116.741
 11
116.367
 20
281.679
 21
282.009
  0
LINE
  8
0
 10
116.367
 11
115.963
 20
282.009
 21
282.3
  0
LINE
  8
0
 10
115.963
 11
115.531
 20
282.3
 21
282.549
  0
LINE
  8
0
 10
115.531
 11
115.077
 20
282.549
 21
282.754
  0
LINE
  8
0
 10
115.077
 11
114.604
 20
282.754
 21
282.913
  0
LINE
  8
0
 10
114.604
 11
114.118
 20
282.913
 21
283.024
  0
LINE
  8
0
 10
114.118
 11
113.624
 20
283.024
 21
283.086
  0
LINE
  8
0
 10
113.624
 11
113.25
 20
283.086
 21
283.095
  0
LINE
  8
0
 10
113.25
 11
113.25
 20
283.095
 21
283.1
  0
LINE
  8
0
 10
113.25
 11
-126.75
 20
283.1
 21
283.1
  0
LINE
  8
0
 10
-126.75
 11
-126.75
 20
283.1
 21
283.095
  0
LINE
  8
0
 10
-126.75
 11
-126.875
 20
283.095
 21
283.098
  0
LINE
  8
0
 10
-126.875
 11
-127.372
 20
283.098
 21
283.061
  0
LINE
  8
0
 10
-127.372
 11
-127.863
 20
283.061
 21
282.975
  0
LINE
  8
0
 10
-127.863
 11
-128.342
 20
282.975
 21
282.84
  0
LINE
  8
0
 10
-128.342
 11
-128.806
 20
282.84
 21
282.658
  0
LINE
  8
0
 10
-128.806
 11
-129.25
 20
282.658
 21
282.43
  0
LINE
  8
0
 10
-129.25
 11
-129.669
 20
282.43
 21
282.16
  0
LINE
  8
0
 10
-129.669
 11
-130.058
 20
282.16
 21
281.849
  0
LINE
  8
0
 10
-130.058
 11
-130.415
 20
281.849
 21
281.501
  0
LINE
  8
0
 10
-130.415
 11
-130.736
 20
281.501
 21
281.119
  0
LINE
  8
0
 10
-130.736
 11
-131.016
 20
281.119
 21
280.707
  0
LINE
  8
0
 10
-131.016
 11
-131.255
 20
280.707
 21
280.269
  0
LINE
  8
0
 10
-131.255
 11
-131.448
 20
280.269
 21
279.81
  0
LINE
  8
0
 10
-131.448
 11
-131.595
 20
279.81
 21
279.334
  0
LINE
  8
0
 10
-131.595
 11
-131.694
 20
279.334
 21
278.845
  0
LINE
  8
0
 10
-131.694
 11
-131.744
 20
278.845
 21
278.349
  0
LINE
  8
0
 10
-131.744
 11
-131.744
 20
278.349
 21
278.1
  0
LINE
  8
0
 10
-131.744
 11
-131.75
 20
278.1
 21
278.1
  0
LINE
  8
0
 10
-131.75
 11
-131.75
 20
278.1
 21
0
  0
LINE
  8
0
 10
-131.75
 11
-235.25
 20
0
 21
0
  0
LINE
  8
0
 10
-229.95
 11
-229.895
 20
112.1
 21
112.59
  0
LINE
  8
0
 10
-229.895
 11
-229.732
 20
112.59
 21
113.055
  0
LINE
  8
0
 10
-229.732
 11
-229.47
 20
113.055
 21
113.472
  0
LINE
  8
0
 10
-229.47
 11
-229.122
 20
113.472
 21
113.82
  0
LINE
  8
0
 10
-229.122
 11
-228.705
 20
113.82
 21
114.082
  0
LINE
  8
0
 10
-228.705
 11
-228.24
 20
114.082
 21
114.245
  0
LINE
  8
0
 10
-228.24
 11
-227.75
 20
114.245
 21
114.3
  0
LINE
  8
0
 10
-227.75
 11
-227.26
 20
114.3
 21
114.245
  0
LINE
  8
0
 10
-227.26
 11
-226.795
 20
114.245
 21
114.082
  0
LINE
  8
0
 10
-226.795
 11
-226.378
 20
114.082
 21
113.82
  0
LINE
  8
0
 10
-226.378
 11
-226.03
 20
113.82
 21
113.472
  0
LINE
  8
0
 10
-226.03
 11
-225.768
 20
113.472
 21
113.055
  0
LINE
  8
0
 10
-225.768
 11
-225.605
 20
113.055
 21
112.59
  0
LINE
  8
0
 10
-225.605
 11
-225.55
 20
112.59
 21
112.1
  0
LINE
  8
0
 10
-225.55
 11
-225.605
 20
112.1
 21
111.61
  0
LINE
  8
0
 10
-225.605
 11
-225.768
 20
111.61
 21
111.145
  0
LINE
  8
0
 10
-225.768
 11
-226.03
 20
111.145
 21
110.728
  0
LINE
  8
0
 10
-226.03
 11
-226.378
 20
110.728
 21
110.38
  0
LINE
  8
0
 10
-226.378
 11
-226.795
 20
110.38
 21
110.118
  0
LINE
  8
0
 10
-226.795
 11
-227.26
 20
110.118
 21
109.955
  0
LINE
  8
0
 10
-227.26
 11
-227.75
 20
109.955
 21
109.9
  0
LINE
  8
0
 10
-227.75
 11
-228.24
 20
109.9
 21
109.955
  0
LINE
  8
0
 10
-228.24
 11
-228.705
 20
109.955
 21
110.118
  0
LINE
  8
0
 10
-228.705
 11
-229.122
 20
110.118
 21
110.38
  0
LINE
  8
0
 10
-229.122
 11
-229.47
 20
110.38
 21
110.728
  0
LINE
  8
0
 10
-229.47
 11
-229.732
 20
110.728
 21
111.145
  0
LINE
  8
0
 10
-229.732
 11
-229.895
 20
111.145
 21
111.61
  0
LINE
  8
0
 10
-229.895
 11
-229.95
 20
111.61
 21
112.1
  0
LINE
  8
0
 10
-229.95
 11
-229.895
 20
153.5
 21
153.99
  0
LINE
  8
0
 10
-229.895
 11
-229.732
 20
153.99
 21
154.455
  0
LINE
  8
0
 10
-229.732
 11
-229.47
 20
154.455
 21
154.872
  0
LINE
  8
0
 10
-229.47
 11
-229.122
 20
154.872
 21
155.22
  0
LINE
  8
0
 10
-229.122
 11
-228.705
 20
155.22
 21
155.482
  0
LINE
  8
0
 10
-228.705
 11
-228.24
 20
155.482
 21
155.645
  0
LINE
  8
0
 10
-228.24
 11
-227.75
 20
155.645
 21
155.7
  0
LINE
  8
0
 10
-227.75
 11
-227.26
 20
155.7
 21
155.645
  0
LINE
  8
0
 10
-227.26
 11
-226.795
 20
155.645
 21
155.482
  0
LINE
  8
0
 10
-226.795
 11
-226.378
 20
155.482
 21
155.22
  0
LINE
  8
0
 10
-226.378
 11
-226.03
 20
155.22
 21
154.872
  0
LINE
  8
0
 10
-226.03
 11
-225.768
 20
154.872
 21
154.455
  0
LINE
  8
0
 10
-225.768
 11
-225.605
 20
154.455
 21
153.99
  0
LINE
  8
0
 10
-225.605
 11
-225.55
 20
153.99
 21
153.5
  0
LINE
  8
0
 10
-225.55
 11
-225.605
 20
153.5
 21
153.01
  0
LINE
  8
0
 10
-225.605
 11
-225.768
 20
153.01
 21
152.545
  0
LINE
  8
0
 10
-225.768
 11
-226.03
 20
152.545
 21
152.128
  0
LINE
  8
0
 10
-226.03
 11
-226.378
 20
152.128
 21
151.78
  0
LINE
  8
0
 10
-226.378
 11
-226.795
 20
151.78
 21
151.518
  0
LINE
  8
0
 10
-226.795
 11
-227.26
 20
151.518
 21
151.355
  0
LINE
  8
0
 10
-227.26
 11
-227.75
 20
151.355
 21
151.3
  0
LINE
  8
0
 10
-227.75
 11
-228.24
 20
151.3
 21
151.355
  0
LINE
  8
0
 10
-228.24
 11
-228.705
 20
151.355
 21
151.518
  0
LINE
  8
0
 10
-228.705
 11
-229.122
 20
151.518
 21
151.78
  0
LINE
  8
0
 10
-229.122
 11
-229.47
 20
151.78
 21
152.128
  0
LINE
  8
0
 10
-229.47
 11
-229.732
 20
152.128
 21
152.545
  0
LINE
  8
0
 10
-229.732
 11
-229.895
 20
152.545
 21
153.01
  0
LINE
  8
0
 10
-229.895
 11
-229.95
 20
153.01
 21
153.5
  0
LINE
  8
0
 10
-227.75
 11
-227.695
 20
8.2
 21
8.69
  0
LINE
  8
0
 10
-227.695
 11
-227.532
 20
8.69
 21
9.155
  0
LINE
  8
0
 10
-227.532
 11
-227.27
 20
9.155
 21
9.572
  0
LINE
  8
0
 10
-227.27
 11
-226.922
 20
9.572
 21
9.92
  0
LINE
  8
0
 10
-226.922
 11
-226.505
 20
9.92
 21
10.182
  0
LINE
  8
0
 10
-226.505
 11
-226.04
 20
10.182
 21
10.345
  0
LINE
  8
0
 10
-226.04
 11
-225.55
 20
10.345
 21
10.4
  0
LINE
  8
0
 10
-225.55
 11
-225.06
 20
10.4
 21
10.345
  0
LINE
  8
0
 10
-225.06
 11
-224.595
 20
10.345
 21
10.182
  0
LINE
  8
0
 10
-224.595
 11
-224.178
 20
10.182
 21
9.92
  0
LINE
  8
0
 10
-224.178
 11
-223.83
 20
9.92
 21
9.572
  0
LINE
  8
0
 10
-223.83
 11
-223.568
 20
9.572
 21
9.155
  0
LINE
  8
0
 10
-223.568
 11
-223.405
 20
9.155
 21
8.69
  0
LINE
  8
0
 10
-223.405
 11
-223.35
 20
8.69
 21
8.2
  0
LINE
  8
0
 10
-223.35
 11
-223.405
 20
8.2
 21
7.71
  0
LINE
  8
0
 10
-223.405
 11
-223.568
 20
7.71
 21
7.245
  0
LINE
  8
0
 10
-223.568
 11
-223.83
 20
7.245
 21
6.828
  0
LINE
  8
0
 10
-223.83
 11
-224.178
 20
6.828
 21
6.48
  0
LINE
  8
0
 10
-224.178
 11
-224.595
 20
6.48
 21
6.218
  0
LINE
  8
0
 10
-224.595
 11
-225.06
 20
6.218
 21
6.055
  0
LINE
  8
0
 10
-225.06
 11
-225.55
 20
6.055
 21
6
  0
LINE
  8
0
 10
-225.55
 11
-226.04
 20
6
 21
6.055
  0
LINE
  8
0
 10
-226.04
 11
-226.505
 20
6.055
 21
6.218
  0
LINE
  8
0
 10
-226.505
 11
-226.922
 20
6.218
 21
6.48
  0
LINE
  8
0
 10
-226.922
 11
-227.27
 20
6.48
 21
6.828
  0
LINE
  8
0
 10
-227.27
 11
-227.532
 20
6.828
 21
7.245
  0
LINE
  8
0
 10
-227.532
 11
-227.695
 20
7.245
 21
7.71
  0
LINE
  8
0
 10
-227.695
 11
-227.75
 20
7.71
 21
8.2
  0
LINE
  8
0
 10
-220.95
 11
-220.895
 20
61
 21
61.49
  0
LINE
  8
0
 10
-220.895
 11
-220.732
 20
61.49
 21
61.955
  0
LINE
  8
0
 10
-220.732
 11
-220.47
 20
61.955
 21
62.372
  0
LINE
  8
0
 10
-220.47
 11
-220.122
 20
62.372
 21
62.72
  0
LINE
  8
0
 10
-220.122
 11
-219.705
 20
62.72
 21
62.982
  0
LINE
  8
0
 10
-219.705
 11
-219.24
 20
62.982
 21
63.145
  0
LINE
  8
0
 10
-219.24
 11
-218.75
 20
63.145
 21
63.2
  0
LINE
  8
0
 10
-218.75
 11
-218.26
 20
63.2
 21
63.145
  0
LINE
  8
0
 10
-218.26
 11
-217.795
 20
63.145
 21
62.982
  0
LINE
  8
0
 10
-217.795
 11
-217.378
 20
62.982
 21
62.72
  0
LINE
  8
0
 10
-217.378
 11
-217.03
 20
62.72
 21
62.372
  0
LINE
  8
0
 10
-217.03
 11
-216.768
 20
62.372
 21
61.955
  0
LINE
  8
0
 10
-216.768
 11
-216.605
 20
61.955
 21
61.49
  0
LINE
  8
0
 10
-216.605
 11
-216.55
 20
61.49
 21
61
  0
LINE
  8
0
 10
-216.55
 11
-216.605
 20
61
 21
60.51
  0
LINE
  8
0
 10
-216.605
 11
-216.768
 20
60.51
 21
60.045
  0
LINE
  8
0
 10
-216.768
 11
-217.03
 20
60.045
 21
59.628
  0
LINE
  8
0
 10
-217.03
 11
-217.378
 20
59.628
 21
59.28
  0
LINE
  8
0
 10
-217.378
 11
-217.795
 20
59.28
 21
59.018
  0
LINE
  8
0
 10
-217.795
 11
-218.26
 20
59.018
 21
58.855
  0
LINE
  8
0
 10
-218.26
 11
-218.75
 20
58.855
 21
58.8
  0
LINE
  8
0
 10
-218.75
 11
-219.24
 20
58.8
 21
58.855
  0
LINE
  8
0
 10
-219.24
 11
-219.705
 20
58.855
 21
59.018
  0
LINE
  8
0
 10
-219.705
 11
-220.122
 20
59.018
 21
59.28
  0
LINE
  8
0
 10
-220.122
 11
-220.47
 20
59.28
 21
59.628
  0
LINE
  8
0
 10
-220.47
 11
-220.732
 20
59.628
 21
60.045
  0
LINE
  8
0
 10
-220.732
 11
-220.895
 20
60.045
 21
60.51
  0
LINE
  8
0
 10
-220.895
 11
-220.95
 20
60.51
 21
61
  0
LINE
  8
0
 10
-207.73
 11
-207.675
 20
8.2
 21
8.69
  0
LINE
  8
0
 10
-207.675
 11
-207.512
 20
8.69
 21
9.155
  0
LINE
  8
0
 10
-207.512
 11
-207.25
 20
9.155
 21
9.572
  0
LINE
  8
0
 10
-207.25
 11
-206.902
 20
9.572
 21
9.92
  0
LINE
  8
0
 10
-206.902
 11
-206.485
 20
9.92
 21
10.182
  0
LINE
  8
0
 10
-206.485
 11
-206.02
 20
10.182
 21
10.345
  0
LINE
  8
0
 10
-206.02
 11
-205.53
 20
10.345
 21
10.4
  0
LINE
  8
0
 10
-205.53
 11
-205.04
 20
10.4
 21
10.345
  0
LINE
  8
0
 10
-205.04
 11
-204.575
 20
10.345
 21
10.182
  0
LINE
  8
0
 10
-204.575
 11
-204.158
 20
10.182
 21
9.92
  0
LINE
  8
0
 10
-204.158
 11
-203.81
 20
9.92
 21
9.572
  0
LINE
  8
0
 10
-203.81
 11
-203.548
 20
9.572
 21
9.155
  0
LINE
  8
0
 10
-203.548
 11
-203.385
 20
9.155
 21
8.69
  0
LINE
  8
0
 10
-203.385
 11
-203.33
 20
8.69
 21
8.2
  0
LINE
  8
0
 10
-203.33
 11
-203.385
 20
8.2
 21
7.71
  0
LINE
  8
0
 10
-203.385
 11
-203.548
 20
7.71
 21
7.245
  0
LINE
  8
0
 10
-203.548
 11
-203.81
 20
7.245
 21
6.828
  0
LINE
  8
0
 10
-203.81
 11
-204.158
 20
6.828
 21
6.48
  0
LINE
  8
0
 10
-204.158
 11
-204.575
 20
6.48
 21
6.218
  0
LINE
  8
0
 10
-204.575
 11
-205.04
 20
6.218
 21
6.055
  0
LINE
  8
0
 10
-205.04
 11
-205.53
 20
6.055
 21
6
  0
LINE
  8
0
 10
-205.53
 11
-206.02
 20
6
 21
6.055
  0
LINE
  8
0
 10
-206.02
 11
-206.485
 20
6.055
 21
6.218
  0
LINE
  8
0
 10
-206.485
 11
-206.902
 20
6.218
 21
6.48
  0
LINE
  8
0
 10
-206.902
 11
-207.25
 20
6.48
 21
6.828
  0
LINE
  8
0
 10
-207.25
 11
-207.512
 20
6.828
 21
7.245
  0
LINE
  8
0
 10
-207.512
 11
-207.675
 20
7.245
 21
7.71
  0
LINE
  8
0
 10
-207.675
 11
-207.73
 20
7.71
 21
8.2
  0
LINE
  8
0
 10
-202.75
 11
-202.692
 20
73
 21
73.479
  0
LINE
  8
0
 10
-202.692
 11
-202.521
 20
73.479
 21
73.929
  0
LINE
  8
0
 10
-202.521
 11
-202.247
 20
73.929
 21
74.326
  0
LINE
  8
0
 10
-202.247
 11
-201.886
 20
74.326
 21
74.646
  0
LINE
  8
0
 10
-201.886
 11
-201.459
 20
74.646
 21
74.87
  0
LINE
  8
0
 10
-201.459
 11
-200.991
 20
74.87
 21
74.985
  0
LINE
  8
0
 10
-200.991
 11
-200.509
 20
74.985
 21
74.985
  0
LINE
  8
0
 10
-200.509
 11
-200.041
 20
74.985
 21
74.87
  0
LINE
  8
0
 10
-200.041
 11
-199.614
 20
74.87
 21
74.646
  0
LINE
  8
0
 10
-199.614
 11
-199.253
 20
74.646
 21
74.326
  0
LINE
  8
0
 10
-199.253
 11
-198.979
 20
74.326
 21
73.929
  0
LINE
  8
0
 10
-198.979
 11
-198.808
 20
73.929
 21
73.479
  0
LINE
  8
0
 10
-198.808
 11
-198.75
 20
73.479
 21
73
  0
LINE
  8
0
 10
-198.75
 11
-198.808
 20
73
 21
72.521
  0
LINE
  8
0
 10
-198.808
 11
-198.979
 20
72.521
 21
72.071
  0
LINE
  8
0
 10
-198.979
 11
-199.253
 20
72.071
 21
71.674
  0
LINE
  8
0
 10
-199.253
 11
-199.614
 20
71.674
 21
71.354
  0
LINE
  8
0
 10
-199.614
 11
-200.041
 20
71.354
 21
71.13
  0
LINE
  8
0
 10
-200.041
 11
-200.509
 20
71.13
 21
71.015
  0
LINE
  8
0
 10
-200.509
 11
-200.991
 20
71.015
 21
71.015
  0
LINE
  8
0
 10
-200.991
 11
-201.459
 20
71.015
 21
71.13
  0
LINE
  8
0
 10
-201.459
 11
-201.886
 20
71.13
 21
71.354
  0
LINE
  8
0
 10
-201.886
 11
-202.247
 20
71.354
 21
71.674
  0
LINE
  8
0
 10
-202.247
 11
-202.521
 20
71.674
 21
72.071
  0
LINE
  8
0
 10
-202.521
 11
-202.692
 20
72.071
 21
72.521
  0
LINE
  8
0
 10
-202.692
 11
-202.75
 20
72.521
 21
73
  0
LINE
  8
0
 10
-196.95
 11
-196.895
 20
379.5
 21
379.99
  0
LINE
  8
0
 10
-196.895
 11
-196.732
 20
379.99
 21
380.455
  0
LINE
  8
0
 10
-196.732
 11
-196.47
 20
380.455
 21
380.872
  0
LINE
  8
0
 10
-196.47
 11
-196.122
 20
380.872
 21
381.22
  0
LINE
  8
0
 10
-196.122
 11
-195.705
 20
381.22
 21
381.482
  0
LINE
  8
0
 10
-195.705
 11
-195.24
 20
381.482
 21
381.645
  0
LINE
  8
0
 10
-195.24
 11
-194.75
 20
381.645
 21
381.7
  0
LINE
  8
0
 10
-194.75
 11
-194.26
 20
381.7
 21
381.645
  0
LINE
  8
0
 10
-194.26
 11
-193.795
 20
381.645
 21
381.482
  0
LINE
  8
0
 10
-193.795
 11
-193.378
 20
381.482
 21
381.22
  0
LINE
  8
0
 10
-193.378
 11
-193.03
 20
381.22
 21
380.872
  0
LINE
  8
0
 10
-193.03
 11
-192.768
 20
380.872
 21
380.455
  0
LINE
  8
0
 10
-192.768
 11
-192.605
 20
380.455
 21
379.99
  0
LINE
  8
0
 10
-192.605
 11
-192.55
 20
379.99
 21
379.5
  0
LINE
  8
0
 10
-192.55
 11
-192.605
 20
379.5
 21
379.01
  0
LINE
  8
0
 10
-192.605
 11
-192.768
 20
379.01
 21
378.545
  0
LINE
  8
0
 10
-192.768
 11
-193.03
 20
378.545
 21
378.128
  0
LINE
  8
0
 10
-193.03
 11
-193.378
 20
378.128
 21
377.78
  0
LINE
  8
0
 10
-193.378
 11
-193.795
 20
377.78
 21
377.518
  0
LINE
  8
0
 10
-193.795
 11
-194.26
 20
377.518
 21
377.355
  0
LINE
  8
0
 10
-194.26
 11
-194.75
 20
377.355
 21
377.3
  0
LINE
  8
0
 10
-194.75
 11
-195.24
 20
377.3
 21
377.355
  0
LINE
  8
0
 10
-195.24
 11
-195.705
 20
377.355
 21
377.518
  0
LINE
  8
0
 10
-195.705
 11
-196.122
 20
377.518
 21
377.78
  0
LINE
  8
0
 10
-196.122
 11
-196.47
 20
377.78
 21
378.128
  0
LINE
  8
0
 10
-196.47
 11
-196.732
 20
378.128
 21
378.545
  0
LINE
  8
0
 10
-196.732
 11
-196.895
 20
378.545
 21
379.01
  0
LINE
  8
0
 10
-196.895
 11
-196.95
 20
379.01
 21
379.5
  0
LINE
  8
0
 10
-196.75
 11
-196.692
 20
369
 21
369.479
  0
LINE
  8
0
 10
-196.692
 11
-196.521
 20
369.479
 21
369.929
  0
LINE
  8
0
 10
-196.521
 11
-196.247
 20
369.929
 21
370.326
  0
LINE
  8
0
 10
-196.247
 11
-195.886
 20
370.326
 21
370.646
  0
LINE
  8
0
 10
-195.886
 11
-195.459
 20
370.646
 21
370.87
  0
LINE
  8
0
 10
-195.459
 11
-194.991
 20
370.87
 21
370.985
  0
LINE
  8
0
 10
-194.991
 11
-194.509
 20
370.985
 21
370.985
  0
LINE
  8
0
 10
-194.509
 11
-194.041
 20
370.985
 21
370.87
  0
LINE
  8
0
 10
-194.041
 11
-193.614
 20
370.87
 21
370.646
  0
LINE
  8
0
 10
-193.614
 11
-193.253
 20
370.646
 21
370.326
  0
LINE
  8
0
 10
-193.253
 11
-192.979
 20
370.326
 21
369.929
  0
LINE
  8
0
 10
-192.979
 11
-192.808
 20
369.929
 21
369.479
  0
LINE
  8
0
 10
-192.808
 11
-192.75
 20
369.479
 21
369
  0
LINE
  8
0
 10
-192.75
 11
-192.808
 20
369
 21
368.521
  0
LINE
  8
0
 10
-192.808
 11
-192.979
 20
368.521
 21
368.071
  0
LINE
  8
0
 10
-192.979
 11
-193.253
 20
368.071
 21
367.674
  0
LINE
  8
0
 10
-193.253
 11
-193.614
 20
367.674
 21
367.354
  0
LINE
  8
0
 10
-193.614
 11
-194.041
 20
367.354
 21
367.13
  0
LINE
  8
0
 10
-194.041
 11
-194.509
 20
367.13
 21
367.015
  0
LINE
  8
0
 10
-194.509
 11
-194.991
 20
367.015
 21
367.015
  0
LINE
  8
0
 10
-194.991
 11
-195.459
 20
367.015
 21
367.13
  0
LINE
  8
0
 10
-195.459
 11
-195.886
 20
367.13
 21
367.354
  0
LINE
  8
0
 10
-195.886
 11
-196.247
 20
367.354
 21
367.674
  0
LINE
  8
0
 10
-196.247
 11
-196.521
 20
367.674
 21
368.071
  0
LINE
  8
0
 10
-196.521
 11
-196.692
 20
368.071
 21
368.521
  0
LINE
  8
0
 10
-196.692
 11
-196.75
 20
368.521
 21
369
  0
LINE
  8
0
 10
-195.83
 11
-195.782
 20
7.5
 21
7.988
  0
LINE
  8
0
 10
-195.782
 11
-195.64
 20
7.988
 21
8.457
  0
LINE
  8
0
 10
-195.64
 11
-195.409
 20
8.457
 21
8.889
  0
LINE
  8
0
 10
-195.409
 11
-195.098
 20
8.889
 21
9.268
  0
LINE
  8
0
 10
-195.098
 11
-194.719
 20
9.268
 21
9.579
  0
LINE
  8
0
 10
-194.719
 11
-194.287
 20
9.579
 21
9.81
  0
LINE
  8
0
 10
-194.287
 11
-193.818
 20
9.81
 21
9.952
  0
LINE
  8
0
 10
-193.818
 11
-193.33
 20
9.952
 21
10
  0
LINE
  8
0
 10
-193.33
 11
-192.842
 20
10
 21
9.952
  0
LINE
  8
0
 10
-192.842
 11
-192.373
 20
9.952
 21
9.81
  0
LINE
  8
0
 10
-192.373
 11
-191.941
 20
9.81
 21
9.579
  0
LINE
  8
0
 10
-191.941
 11
-191.562
 20
9.579
 21
9.268
  0
LINE
  8
0
 10
-191.562
 11
-191.251
 20
9.268
 21
8.889
  0
LINE
  8
0
 10
-191.251
 11
-191.02
 20
8.889
 21
8.457
  0
LINE
  8
0
 10
-191.02
 11
-190.878
 20
8.457
 21
7.988
  0
LINE
  8
0
 10
-190.878
 11
-190.83
 20
7.988
 21
7.5
  0
LINE
  8
0
 10
-190.83
 11
-190.878
 20
7.5
 21
7.012
  0
LINE
  8
0
 10
-190.878
 11
-191.02
 20
7.012
 21
6.543
  0
LINE
  8
0
 10
-191.02
 11
-191.251
 20
6.543
 21
6.111
  0
LINE
  8
0
 10
-191.251
 11
-191.562
 20
6.111
 21
5.732
  0
LINE
  8
0
 10
-191.562
 11
-191.941
 20
5.732
 21
5.421
  0
LINE
  8
0
 10
-191.941
 11
-192.373
 20
5.421
 21
5.19
  0
LINE
  8
0
 10
-192.373
 11
-192.842
 20
5.19
 21
5.048
  0
LINE
  8
0
 10
-192.842
 11
-193.33
 20
5.048
 21
5
  0
LINE
  8
0
 10
-193.33
 11
-193.818
 20
5
 21
5.048
  0
LINE
  8
0
 10
-193.818
 11
-194.287
 20
5.048
 21
5.19
  0
LINE
  8
0
 10
-194.287
 11
-194.719
 20
5.19
 21
5.421
  0
LINE
  8
0
 10
-194.719
 11
-195.098
 20
5.421
 21
5.732
  0
LINE
  8
0
 10
-195.098
 11
-195.409
 20
5.732
 21
6.111
  0
LINE
  8
0
 10
-195.409
 11
-195.64
 20
6.111
 21
6.543
  0
LINE
  8
0
 10
-195.64
 11
-195.782
 20
6.543
 21
7.012
  0
LINE
  8
0
 10
-195.782
 11
-195.83
 20
7.012
 21
7.5
  0
LINE
  8
0
 10
-188.95
 11
-188.895
 20
61
 21
61.49
  0
LINE
  8
0
 10
-188.895
 11
-188.732
 20
61.49
 21
61.955
  0
LINE
  8
0
 10
-188.732
 11
-188.47
 20
61.955
 21
62.372
  0
LINE
  8
0
 10
-188.47
 11
-188.122
 20
62.372
 21
62.72
  0
LINE
  8
0
 10
-188.122
 11
-187.705
 20
62.72
 21
62.982
  0
LINE
  8
0
 10
-187.705
 11
-187.24
 20
62.982
 21
63.145
  0
LINE
  8
0
 10
-187.24
 11
-186.75
 20
63.145
 21
63.2
  0
LINE
  8
0
 10
-186.75
 11
-186.26
 20
63.2
 21
63.145
  0
LINE
  8
0
 10
-186.26
 11
-185.795
 20
63.145
 21
62.982
  0
LINE
  8
0
 10
-185.795
 11
-185.378
 20
62.982
 21
62.72
  0
LINE
  8
0
 10
-185.378
 11
-185.03
 20
62.72
 21
62.372
  0
LINE
  8
0
 10
-185.03
 11
-184.768
 20
62.372
 21
61.955
  0
LINE
  8
0
 10
-184.768
 11
-184.605
 20
61.955
 21
61.49
  0
LINE
  8
0
 10
-184.605
 11
-184.55
 20
61.49
 21
61
  0
LINE
  8
0
 10
-184.55
 11
-184.605
 20
61
 21
60.51
  0
LINE
  8
0
 10
-184.605
 11
-184.768
 20
60.51
 21
60.045
  0
LINE
  8
0
 10
-184.768
 11
-185.03
 20
60.045
 21
59.628
  0
LINE
  8
0
 10
-185.03
 11
-185.378
 20
59.628
 21
59.28
  0
LINE
  8
0
 10
-185.378
 11
-185.795
 20
59.28
 21
59.018
  0
LINE
  8
0
 10
-185.795
 11
-186.26
 20
59.018
 21
58.855
  0
LINE
  8
0
 10
-186.26
 11
-186.75
 20
58.855
 21
58.8
  0
LINE
  8
0
 10
-186.75
 11
-187.24
 20
58.8
 21
58.855
  0
LINE
  8
0
 10
-187.24
 11
-187.705
 20
58.855
 21
59.018
  0
LINE
  8
0
 10
-187.705
 11
-188.122
 20
59.018
 21
59.28
  0
LINE
  8
0
 10
-188.122
 11
-188.47
 20
59.28
 21
59.628
  0
LINE
  8
0
 10
-188.47
 11
-188.732
 20
59.628
 21
60.045
  0
LINE
  8
0
 10
-188.732
 11
-188.895
 20
60.045
 21
60.51
  0
LINE
  8
0
 10
-188.895
 11
-188.95
 20
60.51
 21
61
  0
LINE
  8
0
 10
-172.25
 11
-172.195
 20
36.11
 21
36.6
  0
LINE
  8
0
 10
-172.195
 11
-172.032
 20
36.6
 21
37.065
  0
LINE
  8
0
 10
-172.032
 11
-171.77
 20
37.065
 21
37.482
  0
LINE
  8
0
 10
-171.77
 11
-171.422
 20
37.482
 21
37.83
  0
LINE
  8
0
 10
-171.422
 11
-171.005
 20
37.83
 21
38.092
  0
LINE
  8
0
 10
-171.005
 11
-170.54
 20
38.092
 21
38.255
  0
LINE
  8
0
 10
-170.54
 11
-170.05
 20
38.255
 21
38.31
  0
LINE
  8
0
 10
-170.05
 11
-169.56
 20
38.31
 21
38.255
  0
LINE
  8
0
 10
-169.56
 11
-169.095
 20
38.255
 21
38.092
  0
LINE
  8
0
 10
-169.095
 11
-168.678
 20
38.092
 21
37.83
  0
LINE
  8
0
 10
-168.678
 11
-168.33
 20
37.83
 21
37.482
  0
LINE
  8
0
 10
-168.33
 11
-168.068
 20
37.482
 21
37.065
  0
LINE
  8
0
 10
-168.068
 11
-167.905
 20
37.065
 21
36.6
  0
LINE
  8
0
 10
-167.905
 11
-167.85
 20
36.6
 21
36.11
  0
LINE
  8
0
 10
-167.85
 11
-167.905
 20
36.11
 21
35.62
  0
LINE
  8
0
 10
-167.905
 11
-168.068
 20
35.62
 21
35.155
  0
LINE
  8
0
 10
-168.068
 11
-168.33
 20
35.155
 21
34.738
  0
LINE
  8
0
 10
-168.33
 11
-168.678
 20
34.738
 21
34.39
  0
LINE
  8
0
 10
-168.678
 11
-169.095
 20
34.39
 21
34.128
  0
LINE
  8
0
 10
-169.095
 11
-169.56
 20
34.128
 21
33.965
  0
LINE
  8
0
 10
-169.56
 11
-170.05
 20
33.965
 21
33.91
  0
LINE
  8
0
 10
-170.05
 11
-170.54
 20
33.91
 21
33.965
  0
LINE
  8
0
 10
-170.54
 11
-171.005
 20
33.965
 21
34.128
  0
LINE
  8
0
 10
-171.005
 11
-171.422
 20
34.128
 21
34.39
  0
LINE
  8
0
 10
-171.422
 11
-171.77
 20
34.39
 21
34.738
  0
LINE
  8
0
 10
-171.77
 11
-172.032
 20
34.738
 21
35.155
  0
LINE
  8
0
 10
-172.032
 11
-172.195
 20
35.155
 21
35.62
  0
LINE
  8
0
 10
-172.195
 11
-172.25
 20
35.62
 21
36.11
  0
LINE
  8
0
 10
-172.25
 11
-172.195
 20
351.89
 21
352.38
  0
LINE
  8
0
 10
-172.195
 11
-172.032
 20
352.38
 21
352.845
  0
LINE
  8
0
 10
-172.032
 11
-171.77
 20
352.845
 21
353.262
  0
LINE
  8
0
 10
-171.77
 11
-171.422
 20
353.262
 21
353.61
  0
LINE
  8
0
 10
-171.422
 11
-171.005
 20
353.61
 21
353.872
  0
LINE
  8
0
 10
-171.005
 11
-170.54
 20
353.872
 21
354.035
  0
LINE
  8
0
 10
-170.54
 11
-170.05
 20
354.035
 21
354.09
  0
LINE
  8
0
 10
-170.05
 11
-169.56
 20
354.09
 21
354.035
  0
LINE
  8
0
 10
-169.56
 11
-169.095
 20
354.035
 21
353.872
  0
LINE
  8
0
 10
-169.095
 11
-168.678
 20
353.872
 21
353.61
  0
LINE
  8
0
 10
-168.678
 11
-168.33
 20
353.61
 21
353.262
  0
LINE
  8
0
 10
-168.33
 11
-168.068
 20
353.262
 21
352.845
  0
LINE
  8
0
 10
-168.068
 11
-167.905
 20
352.845
 21
352.38
  0
LINE
  8
0
 10
-167.905
 11
-167.85
 20
352.38
 21
351.89
  0
LINE
  8
0
 10
-167.85
 11
-167.905
 20
351.89
 21
351.4
  0
LINE
  8
0
 10
-167.905
 11
-168.068
 20
351.4
 21
350.935
  0
LINE
  8
0
 10
-168.068
 11
-168.33
 20
350.935
 21
350.518
  0
LINE
  8
0
 10
-168.33
 11
-168.678
 20
350.518
 21
350.17
  0
LINE
  8
0
 10
-168.678
 11
-169.095
 20
350.17
 21
349.908
  0
LINE
  8
0
 10
-169.095
 11
-169.56
 20
349.908
 21
349.745
  0
LINE
  8
0
 10
-169.56
 11
-170.05
 20
349.745
 21
349.69
  0
LINE
  8
0
 10
-170.05
 11
-170.54
 20
349.69
 21
349.745
  0
LINE
  8
0
 10
-170.54
 11
-171.005
 20
349.745
 21
349.908
  0
LINE
  8
0
 10
-171.005
 11
-171.422
 20
349.908
 21
350.17
  0
LINE
  8
0
 10
-171.422
 11
-171.77
 20
350.17
 21
350.518
  0
LINE
  8
0
 10
-171.77
 11
-172.032
 20
350.518
 21
350.935
  0
LINE
  8
0
 10
-172.032
 11
-172.195
 20
350.935
 21
351.4
  0
LINE
  8
0
 10
-172.195
 11
-172.25
 20
351.4
 21
351.89
  0
LINE
  8
0
 10
-168.745
 11
-168.624
 20
326.004
 21
326.483
  0
LINE
  8
0
 10
-168.624
 11
-168.354
 20
326.483
 21
326.896
  0
LINE
  8
0
 10
-168.354
 11
-167.964
 20
326.896
 21
327.199
  0
LINE
  8
0
 10
-167.964
 11
-167.497
 20
327.199
 21
327.36
  0
LINE
  8
0
 10
-167.497
 11
-167.003
 20
327.36
 21
327.36
  0
LINE
  8
0
 10
-167.003
 11
-166.536
 20
327.36
 21
327.199
  0
LINE
  8
0
 10
-166.536
 11
-166.146
 20
327.199
 21
326.896
  0
LINE
  8
0
 10
-166.146
 11
-165.876
 20
326.896
 21
326.483
  0
LINE
  8
0
 10
-165.876
 11
-165.755
 20
326.483
 21
326.004
  0
LINE
  8
0
 10
-165.755
 11
-165.796
 20
326.004
 21
325.512
  0
LINE
  8
0
 10
-165.796
 11
-165.994
 20
325.512
 21
325.06
  0
LINE
  8
0
 10
-165.994
 11
-166.329
 20
325.06
 21
324.696
  0
LINE
  8
0
 10
-166.329
 11
-166.763
 20
324.696
 21
324.461
  0
LINE
  8
0
 10
-166.763
 11
-167.25
 20
324.461
 21
324.38
  0
LINE
  8
0
 10
-167.25
 11
-167.737
 20
324.38
 21
324.461
  0
LINE
  8
0
 10
-167.737
 11
-168.171
 20
324.461
 21
324.696
  0
LINE
  8
0
 10
-168.171
 11
-168.506
 20
324.696
 21
325.06
  0
LINE
  8
0
 10
-168.506
 11
-168.704
 20
325.06
 21
325.512
  0
LINE
  8
0
 10
-168.704
 11
-168.745
 20
325.512
 21
326.004
  0
LINE
  8
0
 10
-168.745
 11
-168.624
 20
331.804
 21
332.283
  0
LINE
  8
0
 10
-168.624
 11
-168.354
 20
332.283
 21
332.696
  0
LINE
  8
0
 10
-168.354
 11
-167.964
 20
332.696
 21
332.999
  0
LINE
  8
0
 10
-167.964
 11
-167.497
 20
332.999
 21
333.16
  0
LINE
  8
0
 10
-167.497
 11
-167.003
 20
333.16
 21
333.16
  0
LINE
  8
0
 10
-167.003
 11
-166.536
 20
333.16
 21
332.999
  0
LINE
  8
0
 10
-166.536
 11
-166.146
 20
332.999
 21
332.696
  0
LINE
  8
0
 10
-166.146
 11
-165.876
 20
332.696
 21
332.283
  0
LINE
  8
0
 10
-165.876
 11
-165.755
 20
332.283
 21
331.804
  0
LINE
  8
0
 10
-165.755
 11
-165.796
 20
331.804
 21
331.312
  0
LINE
  8
0
 10
-165.796
 11
-165.994
 20
331.312
 21
330.86
  0
LINE
  8
0
 10
-165.994
 11
-166.329
 20
330.86
 21
330.496
  0
LINE
  8
0
 10
-166.329
 11
-166.763
 20
330.496
 21
330.261
  0
LINE
  8
0
 10
-166.763
 11
-167.25
 20
330.261
 21
330.18
  0
LINE
  8
0
 10
-167.25
 11
-167.737
 20
330.18
 21
330.261
  0
LINE
  8
0
 10
-167.737
 11
-168.171
 20
330.261
 21
330.496
  0
LINE
  8
0
 10
-168.171
 11
-168.506
 20
330.496
 21
330.86
  0
LINE
  8
0
 10
-168.506
 11
-168.704
 20
330.86
 21
331.312
  0
LINE
  8
0
 10
-168.704
 11
-168.745
 20
331.312
 21
331.804
  0
LINE
  8
0
 10
-163.95
 11
-163.895
 20
379.5
 21
379.99
  0
LINE
  8
0
 10
-163.895
 11
-163.732
 20
379.99
 21
380.455
  0
LINE
  8
0
 10
-163.732
 11
-163.47
 20
380.455
 21
380.872
  0
LINE
  8
0
 10
-163.47
 11
-163.122
 20
380.872
 21
381.22
  0
LINE
  8
0
 10
-163.122
 11
-162.705
 20
381.22
 21
381.482
  0
LINE
  8
0
 10
-162.705
 11
-162.24
 20
381.482
 21
381.645
  0
LINE
  8
0
 10
-162.24
 11
-161.75
 20
381.645
 21
381.7
  0
LINE
  8
0
 10
-161.75
 11
-161.26
 20
381.7
 21
381.645
  0
LINE
  8
0
 10
-161.26
 11
-160.795
 20
381.645
 21
381.482
  0
LINE
  8
0
 10
-160.795
 11
-160.378
 20
381.482
 21
381.22
  0
LINE
  8
0
 10
-160.378
 11
-160.03
 20
381.22
 21
380.872
  0
LINE
  8
0
 10
-160.03
 11
-159.768
 20
380.872
 21
380.455
  0
LINE
  8
0
 10
-159.768
 11
-159.605
 20
380.455
 21
379.99
  0
LINE
  8
0
 10
-159.605
 11
-159.55
 20
379.99
 21
379.5
  0
LINE
  8
0
 10
-159.55
 11
-159.605
 20
379.5
 21
379.01
  0
LINE
  8
0
 10
-159.605
 11
-159.768
 20
379.01
 21
378.545
  0
LINE
  8
0
 10
-159.768
 11
-160.03
 20
378.545
 21
378.128
  0
LINE
  8
0
 10
-160.03
 11
-160.378
 20
378.128
 21
377.78
  0
LINE
  8
0
 10
-160.378
 11
-160.795
 20
377.78
 21
377.518
  0
LINE
  8
0
 10
-160.795
 11
-161.26
 20
377.518
 21
377.355
  0
LINE
  8
0
 10
-161.26
 11
-161.75
 20
377.355
 21
377.3
  0
LINE
  8
0
 10
-161.75
 11
-162.24
 20
377.3
 21
377.355
  0
LINE
  8
0
 10
-162.24
 11
-162.705
 20
377.355
 21
377.518
  0
LINE
  8
0
 10
-162.705
 11
-163.122
 20
377.518
 21
377.78
  0
LINE
  8
0
 10
-163.122
 11
-163.47
 20
377.78
 21
378.128
  0
LINE
  8
0
 10
-163.47
 11
-163.732
 20
378.128
 21
378.545
  0
LINE
  8
0
 10
-163.732
 11
-163.895
 20
378.545
 21
379.01
  0
LINE
  8
0
 10
-163.895
 11
-163.95
 20
379.01
 21
379.5
  0
LINE
  8
0
 10
-163.745
 11
-163.704
 20
313.156
 21
313.648
  0
LINE
  8
0
 10
-163.704
 11
-163.506
 20
313.648
 21
314.1
  0
LINE
  8
0
 10
-163.506
 11
-163.171
 20
314.1
 21
314.464
  0
LINE
  8
0
 10
-163.171
 11
-162.737
 20
314.464
 21
314.699
  0
LINE
  8
0
 10
-162.737
 11
-162.25
 20
314.699
 21
314.78
  0
LINE
  8
0
 10
-162.25
 11
-161.763
 20
314.78
 21
314.699
  0
LINE
  8
0
 10
-161.763
 11
-161.329
 20
314.699
 21
314.464
  0
LINE
  8
0
 10
-161.329
 11
-160.994
 20
314.464
 21
314.1
  0
LINE
  8
0
 10
-160.994
 11
-160.796
 20
314.1
 21
313.648
  0
LINE
  8
0
 10
-160.796
 11
-160.755
 20
313.648
 21
313.156
  0
LINE
  8
0
 10
-160.755
 11
-160.876
 20
313.156
 21
312.677
  0
LINE
  8
0
 10
-160.876
 11
-161.146
 20
312.677
 21
312.264
  0
LINE
  8
0
 10
-161.146
 11
-161.536
 20
312.264
 21
311.961
  0
LINE
  8
0
 10
-161.536
 11
-162.003
 20
311.961
 21
311.8
  0
LINE
  8
0
 10
-162.003
 11
-162.497
 20
311.8
 21
311.8
  0
LINE
  8
0
 10
-162.497
 11
-162.964
 20
311.8
 21
311.961
  0
LINE
  8
0
 10
-162.964
 11
-163.354
 20
311.961
 21
312.264
  0
LINE
  8
0
 10
-163.354
 11
-163.624
 20
312.264
 21
312.677
  0
LINE
  8
0
 10
-163.624
 11
-163.745
 20
312.677
 21
313.156
  0
LINE
  8
0
 10
-163.745
 11
-163.704
 20
320.356
 21
320.848
  0
LINE
  8
0
 10
-163.704
 11
-163.506
 20
320.848
 21
321.3
  0
LINE
  8
0
 10
-163.506
 11
-163.171
 20
321.3
 21
321.664
  0
LINE
  8
0
 10
-163.171
 11
-162.737
 20
321.664
 21
321.899
  0
LINE
  8
0
 10
-162.737
 11
-162.25
 20
321.899
 21
321.98
  0
LINE
  8
0
 10
-162.25
 11
-161.763
 20
321.98
 21
321.899
  0
LINE
  8
0
 10
-161.763
 11
-161.329
 20
321.899
 21
321.664
  0
LINE
  8
0
 10
-161.329
 11
-160.994
 20
321.664
 21
321.3
  0
LINE
  8
0
 10
-160.994
 11
-160.796
 20
321.3
 21
320.848
  0
LINE
  8
0
 10
-160.796
 11
-160.755
 20
320.848
 21
320.356
  0
LINE
  8
0
 10
-160.755
 11
-160.876
 20
320.356
 21
319.877
  0
LINE
  8
0
 10
-160.876
 11
-161.146
 20
319.877
 21
319.464
  0
LINE
  8
0
 10
-161.146
 11
-161.536
 20
319.464
 21
319.161
  0
LINE
  8
0
 10
-161.536
 11
-162.003
 20
319.161
 21
319
  0
LINE
  8
0
 10
-162.003
 11
-162.497
 20
319
 21
319
  0
LINE
  8
0
 10
-162.497
 11
-162.964
 20
319
 21
319.161
  0
LINE
  8
0
 10
-162.964
 11
-163.354
 20
319.161
 21
319.464
  0
LINE
  8
0
 10
-163.354
 11
-163.624
 20
319.464
 21
319.877
  0
LINE
  8
0
 10
-163.624
 11
-163.745
 20
319.877
 21
320.356
  0
LINE
  8
0
 10
-163.17
 11
-163.115
 20
8.2
 21
8.69
  0
LINE
  8
0
 10
-163.115
 11
-162.952
 20
8.69
 21
9.155
  0
LINE
  8
0
 10
-162.952
 11
-162.69
 20
9.155
 21
9.572
  0
LINE
  8
0
 10
-162.69
 11
-162.342
 20
9.572
 21
9.92
  0
LINE
  8
0
 10
-162.342
 11
-161.925
 20
9.92
 21
10.182
  0
LINE
  8
0
 10
-161.925
 11
-161.46
 20
10.182
 21
10.345
  0
LINE
  8
0
 10
-161.46
 11
-160.97
 20
10.345
 21
10.4
  0
LINE
  8
0
 10
-160.97
 11
-160.48
 20
10.4
 21
10.345
  0
LINE
  8
0
 10
-160.48
 11
-160.015
 20
10.345
 21
10.182
  0
LINE
  8
0
 10
-160.015
 11
-159.598
 20
10.182
 21
9.92
  0
LINE
  8
0
 10
-159.598
 11
-159.25
 20
9.92
 21
9.572
  0
LINE
  8
0
 10
-159.25
 11
-158.988
 20
9.572
 21
9.155
  0
LINE
  8
0
 10
-158.988
 11
-158.825
 20
9.155
 21
8.69
  0
LINE
  8
0
 10
-158.825
 11
-158.77
 20
8.69
 21
8.2
  0
LINE
  8
0
 10
-158.77
 11
-158.825
 20
8.2
 21
7.71
  0
LINE
  8
0
 10
-158.825
 11
-158.988
 20
7.71
 21
7.245
  0
LINE
  8
0
 10
-158.988
 11
-159.25
 20
7.245
 21
6.828
  0
LINE
  8
0
 10
-159.25
 11
-159.598
 20
6.828
 21
6.48
  0
LINE
  8
0
 10
-159.598
 11
-160.015
 20
6.48
 21
6.218
  0
LINE
  8
0
 10
-160.015
 11
-160.48
 20
6.218
 21
6.055
  0
LINE
  8
0
 10
-160.48
 11
-160.97
 20
6.055
 21
6
  0
LINE
  8
0
 10
-160.97
 11
-161.46
 20
6
 21
6.055
  0
LINE
  8
0
 10
-161.46
 11
-161.925
 20
6.055
 21
6.218
  0
LINE
  8
0
 10
-161.925
 11
-162.342
 20
6.218
 21
6.48
  0
LINE
  8
0
 10
-162.342
 11
-162.69
 20
6.48
 21
6.828
  0
LINE
  8
0
 10
-162.69
 11
-162.952
 20
6.828
 21
7.245
  0
LINE
  8
0
 10
-162.952
 11
-163.115
 20
7.245
 21
7.71
  0
LINE
  8
0
 10
-163.115
 11
-163.17
 20
7.71
 21
8.2
  0
LINE
  8
0
 10
-143.15
 11
-143.095
 20
8.2
 21
8.69
  0
LINE
  8
0
 10
-143.095
 11
-142.932
 20
8.69
 21
9.155
  0
LINE
  8
0
 10
-142.932
 11
-142.67
 20
9.155
 21
9.572
  0
LINE
  8
0
 10
-142.67
 11
-142.322
 20
9.572
 21
9.92
  0
LINE
  8
0
 10
-142.322
 11
-141.905
 20
9.92
 21
10.182
  0
LINE
  8
0
 10
-141.905
 11
-141.44
 20
10.182
 21
10.345
  0
LINE
  8
0
 10
-141.44
 11
-140.95
 20
10.345
 21
10.4
  0
LINE
  8
0
 10
-140.95
 11
-140.46
 20
10.4
 21
10.345
  0
LINE
  8
0
 10
-140.46
 11
-139.995
 20
10.345
 21
10.182
  0
LINE
  8
0
 10
-139.995
 11
-139.578
 20
10.182
 21
9.92
  0
LINE
  8
0
 10
-139.578
 11
-139.23
 20
9.92
 21
9.572
  0
LINE
  8
0
 10
-139.23
 11
-138.968
 20
9.572
 21
9.155
  0
LINE
  8
0
 10
-138.968
 11
-138.805
 20
9.155
 21
8.69
  0
LINE
  8
0
 10
-138.805
 11
-138.75
 20
8.69
 21
8.2
  0
LINE
  8
0
 10
-138.75
 11
-138.805
 20
8.2
 21
7.71
  0
LINE
  8
0
 10
-138.805
 11
-138.968
 20
7.71
 21
7.245
  0
LINE
  8
0
 10
-138.968
 11
-139.23
 20
7.245
 21
6.828
  0
LINE
  8
0
 10
-139.23
 11
-139.578
 20
6.828
 21
6.48
  0
LINE
  8
0
 10
-139.578
 11
-139.995
 20
6.48
 21
6.218
  0
LINE
  8
0
 10
-139.995
 11
-140.46
 20
6.218
 21
6.055
  0
LINE
  8
0
 10
-140.46
 11
-140.95
 20
6.055
 21
6
  0
LINE
  8
0
 10
-140.95
 11
-141.44
 20
6
 21
6.055
  0
LINE
  8
0
 10
-141.44
 11
-141.905
 20
6.055
 21
6.218
  0
LINE
  8
0
 10
-141.905
 11
-142.322
 20
6.218
 21
6.48
  0
LINE
  8
0
 10
-142.322
 11
-142.67
 20
6.48
 21
6.828
  0
LINE
  8
0
 10
-142.67
 11
-142.932
 20
6.828
 21
7.245
  0
LINE
  8
0
 10
-142.932
 11
-143.095
 20
7.245
 21
7.71
  0
LINE
  8
0
 10
-143.095
 11
-143.15
 20
7.71
 21
8.2
  0
LINE
  8
0
 10
-115.25
 11
-115.209
 20
214
 21
214.494
  0
LINE
  8
0
 10
-115.209
 11
-115.087
 20
214.494
 21
214.974
  0
LINE
  8
0
 10
-115.087
 11
-114.888
 20
214.974
 21
215.428
  0
LINE
  8
0
 10
-114.888
 11
-114.617
 20
215.428
 21
215.843
  0
LINE
  8
0
 10
-114.617
 11
-114.282
 20
215.843
 21
216.207
  0
LINE
  8
0
 10
-114.282
 11
-113.891
 20
216.207
 21
216.511
  0
LINE
  8
0
 10
-113.891
 11
-113.455
 20
216.511
 21
216.747
  0
LINE
  8
0
 10
-113.455
 11
-112.986
 20
216.747
 21
216.908
  0
LINE
  8
0
 10
-112.986
 11
-112.498
 20
216.908
 21
216.99
  0
LINE
  8
0
 10
-112.498
 11
-25.26
 20
216.99
 21
216.994
  0
LINE
  8
0
 10
-25.26
 11
-25.26
 20
216.994
 21
212.9
  0
LINE
  8
0
 10
-25.26
 11
11.76
 20
212.9
 21
212.9
  0
LINE
  8
0
 10
11.76
 11
11.76
 20
212.9
 21
216.996
  0
LINE
  8
0
 10
11.76
 11
98.75
 20
216.996
 21
217
  0
LINE
  8
0
 10
98.75
 11
99.244
 20
217
 21
216.959
  0
LINE
  8
0
 10
99.244
 11
99.724
 20
216.959
 21
216.837
  0
LINE
  8
0
 10
99.724
 11
100.178
 20
216.837
 21
216.638
  0
LINE
  8
0
 10
100.178
 11
100.593
 20
216.638
 21
216.367
  0
LINE
  8
0
 10
100.593
 11
100.957
 20
216.367
 21
216.032
  0
LINE
  8
0
 10
100.957
 11
101.261
 20
216.032
 21
215.641
  0
LINE
  8
0
 10
101.261
 11
101.497
 20
215.641
 21
215.205
  0
LINE
  8
0
 10
101.497
 11
101.658
 20
215.205
 21
214.736
  0
LINE
  8
0
 10
101.658
 11
101.74
 20
214.736
 21
214.248
  0
LINE
  8
0
 10
101.74
 11
101.75
 20
214.248
 21
3
  0
LINE
  8
0
 10
101.75
 11
101.709
 20
3
 21
2.506
  0
LINE
  8
0
 10
101.709
 11
101.587
 20
2.506
 21
2.026
  0
LINE
  8
0
 10
101.587
 11
101.388
 20
2.026
 21
1.572
  0
LINE
  8
0
 10
101.388
 11
101.117
 20
1.572
 21
1.157
  0
LINE
  8
0
 10
101.117
 11
100.782
 20
1.157
 21
0.793
  0
LINE
  8
0
 10
100.782
 11
100.391
 20
0.793
 21
0.489
  0
LINE
  8
0
 10
100.391
 11
99.955
 20
0.489
 21
0.253
  0
LINE
  8
0
 10
99.955
 11
99.486
 20
0.253
 21
0.092
  0
LINE
  8
0
 10
99.486
 11
98.998
 20
0.092
 21
0.01
  0
LINE
  8
0
 10
98.998
 11
-112.25
 20
0.01
 21
0
  0
LINE
  8
0
 10
-112.25
 11
-112.744
 20
0
 21
0.041
  0
LINE
  8
0
 10
-112.744
 11
-113.224
 20
0.041
 21
0.163
  0
LINE
  8
0
 10
-113.224
 11
-113.678
 20
0.163
 21
0.362
  0
LINE
  8
0
 10
-113.678
 11
-114.093
 20
0.362
 21
0.633
  0
LINE
  8
0
 10
-114.093
 11
-114.457
 20
0.633
 21
0.968
  0
LINE
  8
0
 10
-114.457
 11
-114.761
 20
0.968
 21
1.359
  0
LINE
  8
0
 10
-114.761
 11
-114.997
 20
1.359
 21
1.795
  0
LINE
  8
0
 10
-114.997
 11
-115.158
 20
1.795
 21
2.264
  0
LINE
  8
0
 10
-115.158
 11
-115.24
 20
2.264
 21
2.752
  0
LINE
  8
0
 10
-115.24
 11
-115.25
 20
2.752
 21
214
  0
LINE
  8
0
 10
-112.5
 11
-112.405
 20
4
 21
4.478
  0
LINE
  8
0
 10
-112.405
 11
-112.134
 20
4.478
 21
4.884
  0
LINE
  8
0
 10
-112.134
 11
-111.728
 20
4.884
 21
5.155
  0
LINE
  8
0
 10
-111.728
 11
-111.25
 20
5.155
 21
5.25
  0
LINE
  8
0
 10
-111.25
 11
-110.772
 20
5.25
 21
5.155
  0
LINE
  8
0
 10
-110.772
 11
-110.366
 20
5.155
 21
4.884
  0
LINE
  8
0
 10
-110.366
 11
-110.095
 20
4.884
 21
4.478
  0
LINE
  8
0
 10
-110.095
 11
-110
 20
4.478
 21
4
  0
LINE
  8
0
 10
-110
 11
-110.095
 20
4
 21
3.522
  0
LINE
  8
0
 10
-110.095
 11
-110.366
 20
3.522
 21
3.116
  0
LINE
  8
0
 10
-110.366
 11
-110.772
 20
3.116
 21
2.845
  0
LINE
  8
0
 10
-110.772
 11
-111.25
 20
2.845
 21
2.75
  0
LINE
  8
0
 10
-111.25
 11
-111.728
 20
2.75
 21
2.845
  0
LINE
  8
0
 10
-111.728
 11
-112.134
 20
2.845
 21
3.116
  0
LINE
  8
0
 10
-112.134
 11
-112.405
 20
3.116
 21
3.522
  0
LINE
  8
0
 10
-112.405
 11
-112.5
 20
3.522
 21
4
  0
LINE
  8
0
 10
-112.5
 11
-112.405
 20
213
 21
213.478
  0
LINE
  8
0
 10
-112.405
 11
-112.134
 20
213.478
 21
213.884
  0
LINE
  8
0
 10
-112.134
 11
-111.728
 20
213.884
 21
214.155
  0
LINE
  8
0
 10
-111.728
 11
-111.25
 20
214.155
 21
214.25
  0
LINE
  8
0
 10
-111.25
 11
-110.772
 20
214.25
 21
214.155
  0
LINE
  8
0
 10
-110.772
 11
-110.366
 20
214.155
 21
213.884
  0
LINE
  8
0
 10
-110.366
 11
-110.095
 20
213.884
 21
213.478
  0
LINE
  8
0
 10
-110.095
 11
-110
 20
213.478
 21
213
  0
LINE
  8
0
 10
-110
 11
-110.095
 20
213
 21
212.522
  0
LINE
  8
0
 10
-110.095
 11
-110.366
 20
212.522
 21
212.116
  0
LINE
  8
0
 10
-110.366
 11
-110.772
 20
212.116
 21
211.845
  0
LINE
  8
0
 10
-110.772
 11
-111.25
 20
211.845
 21
211.75
  0
LINE
  8
0
 10
-111.25
 11
-111.728
 20
211.75
 21
211.845
  0
LINE
  8
0
 10
-111.728
 11
-112.134
 20
211.845
 21
212.116
  0
LINE
  8
0
 10
-112.134
 11
-112.405
 20
212.116
 21
212.522
  0
LINE
  8
0
 10
-112.405
 11
-112.5
 20
212.522
 21
213
  0
LINE
  8
0
 10
-111.4
 11
-111.327
 20
19.5
 21
19.986
  0
LINE
  8
0
 10
-111.327
 11
-111.113
 20
19.986
 21
20.429
  0
LINE
  8
0
 10
-111.113
 11
-110.779
 20
20.429
 21
20.79
  0
LINE
  8
0
 10
-110.779
 11
-110.353
 20
20.79
 21
21.036
  0
LINE
  8
0
 10
-110.353
 11
-109.873
 20
21.036
 21
21.145
  0
LINE
  8
0
 10
-109.873
 11
-109.383
 20
21.145
 21
21.109
  0
LINE
  8
0
 10
-109.383
 11
-108.925
 20
21.109
 21
20.929
  0
LINE
  8
0
 10
-108.925
 11
-108.54
 20
20.929
 21
20.622
  0
LINE
  8
0
 10
-108.54
 11
-108.263
 20
20.622
 21
20.216
  0
LINE
  8
0
 10
-108.263
 11
-108.118
 20
20.216
 21
19.746
  0
LINE
  8
0
 10
-108.118
 11
-108.118
 20
19.746
 21
19.254
  0
LINE
  8
0
 10
-108.118
 11
-108.263
 20
19.254
 21
18.784
  0
LINE
  8
0
 10
-108.263
 11
-108.54
 20
18.784
 21
18.378
  0
LINE
  8
0
 10
-108.54
 11
-108.925
 20
18.378
 21
18.071
  0
LINE
  8
0
 10
-108.925
 11
-109.383
 20
18.071
 21
17.891
  0
LINE
  8
0
 10
-109.383
 11
-109.873
 20
17.891
 21
17.855
  0
LINE
  8
0
 10
-109.873
 11
-110.353
 20
17.855
 21
17.964
  0
LINE
  8
0
 10
-110.353
 11
-110.779
 20
17.964
 21
18.21
  0
LINE
  8
0
 10
-110.779
 11
-111.113
 20
18.21
 21
18.571
  0
LINE
  8
0
 10
-111.113
 11
-111.327
 20
18.571
 21
19.014
  0
LINE
  8
0
 10
-111.327
 11
-111.4
 20
19.014
 21
19.5
  0
LINE
  8
0
 10
-111.4
 11
-111.327
 20
176.5
 21
176.986
  0
LINE
  8
0
 10
-111.327
 11
-111.113
 20
176.986
 21
177.429
  0
LINE
  8
0
 10
-111.113
 11
-110.779
 20
177.429
 21
177.79
  0
LINE
  8
0
 10
-110.779
 11
-110.353
 20
177.79
 21
178.036
  0
LINE
  8
0
 10
-110.353
 11
-109.873
 20
178.036
 21
178.145
  0
LINE
  8
0
 10
-109.873
 11
-109.383
 20
178.145
 21
178.109
  0
LINE
  8
0
 10
-109.383
 11
-108.925
 20
178.109
 21
177.929
  0
LINE
  8
0
 10
-108.925
 11
-108.54
 20
177.929
 21
177.622
  0
LINE
  8
0
 10
-108.54
 11
-108.263
 20
177.622
 21
177.216
  0
LINE
  8
0
 10
-108.263
 11
-108.118
 20
177.216
 21
176.746
  0
LINE
  8
0
 10
-108.118
 11
-108.118
 20
176.746
 21
176.254
  0
LINE
  8
0
 10
-108.118
 11
-108.263
 20
176.254
 21
175.784
  0
LINE
  8
0
 10
-108.263
 11
-108.54
 20
175.784
 21
175.378
  0
LINE
  8
0
 10
-108.54
 11
-108.925
 20
175.378
 21
175.071
  0
LINE
  8
0
 10
-108.925
 11
-109.383
 20
175.071
 21
174.891
  0
LINE
  8
0
 10
-109.383
 11
-109.873
 20
174.891
 21
174.855
  0
LINE
  8
0
 10
-109.873
 11
-110.353
 20
174.855
 21
174.964
  0
LINE
  8
0
 10
-110.353
 11
-110.779
 20
174.964
 21
175.21
  0
LINE
  8
0
 10
-110.779
 11
-111.113
 20
175.21
 21
175.571
  0
LINE
  8
0
 10
-111.113
 11
-111.327
 20
175.571
 21
176.014
  0
LINE
  8
0
 10
-111.327
 11
-111.4
 20
176.014
 21
176.5
  0
LINE
  8
0
 10
-80.4
 11
-80.327
 20
40.5
 21
40.986
  0
LINE
  8
0
 10
-80.327
 11
-80.113
 20
40.986
 21
41.429
  0
LINE
  8
0
 10
-80.113
 11
-79.779
 20
41.429
 21
41.79
  0
LINE
  8
0
 10
-79.779
 11
-79.353
 20
41.79
 21
42.036
  0
LINE
  8
0
 10
-79.353
 11
-78.873
 20
42.036
 21
42.145
  0
LINE
  8
0
 10
-78.873
 11
-78.383
 20
42.145
 21
42.109
  0
LINE
  8
0
 10
-78.383
 11
-77.925
 20
42.109
 21
41.929
  0
LINE
  8
0
 10
-77.925
 11
-77.54
 20
41.929
 21
41.622
  0
LINE
  8
0
 10
-77.54
 11
-77.263
 20
41.622
 21
41.216
  0
LINE
  8
0
 10
-77.263
 11
-77.118
 20
41.216
 21
40.746
  0
LINE
  8
0
 10
-77.118
 11
-77.118
 20
40.746
 21
40.254
  0
LINE
  8
0
 10
-77.118
 11
-77.263
 20
40.254
 21
39.784
  0
LINE
  8
0
 10
-77.263
 11
-77.54
 20
39.784
 21
39.378
  0
LINE
  8
0
 10
-77.54
 11
-77.925
 20
39.378
 21
39.071
  0
LINE
  8
0
 10
-77.925
 11
-78.383
 20
39.071
 21
38.891
  0
LINE
  8
0
 10
-78.383
 11
-78.873
 20
38.891
 21
38.855
  0
LINE
  8
0
 10
-78.873
 11
-79.353
 20
38.855
 21
38.964
  0
LINE
  8
0
 10
-79.353
 11
-79.779
 20
38.964
 21
39.21
  0
LINE
  8
0
 10
-79.779
 11
-80.113
 20
39.21
 21
39.571
  0
LINE
  8
0
 10
-80.113
 11
-80.327
 20
39.571
 21
40.014
  0
LINE
  8
0
 10
-80.327
 11
-80.4
 20
40.014
 21
40.5
  0
LINE
  8
0
 10
-80.4
 11
-80.327
 20
197.5
 21
197.986
  0
LINE
  8
0
 10
-80.327
 11
-80.113
 20
197.986
 21
198.429
  0
LINE
  8
0
 10
-80.113
 11
-79.779
 20
198.429
 21
198.79
  0
LINE
  8
0
 10
-79.779
 11
-79.353
 20
198.79
 21
199.036
  0
LINE
  8
0
 10
-79.353
 11
-78.873
 20
199.036
 21
199.145
  0
LINE
  8
0
 10
-78.873
 11
-78.383
 20
199.145
 21
199.109
  0
LINE
  8
0
 10
-78.383
 11
-77.925
 20
199.109
 21
198.929
  0
LINE
  8
0
 10
-77.925
 11
-77.54
 20
198.929
 21
198.622
  0
LINE
  8
0
 10
-77.54
 11
-77.263
 20
198.622
 21
198.216
  0
LINE
  8
0
 10
-77.263
 11
-77.118
 20
198.216
 21
197.746
  0
LINE
  8
0
 10
-77.118
 11
-77.118
 20
197.746
 21
197.254
  0
LINE
  8
0
 10
-77.118
 11
-77.263
 20
197.254
 21
196.784
  0
LINE
  8
0
 10
-77.263
 11
-77.54
 20
196.784
 21
196.378
  0
LINE
  8
0
 10
-77.54
 11
-77.925
 20
196.378
 21
196.071
  0
LINE
  8
0
 10
-77.925
 11
-78.383
 20
196.071
 21
195.891
  0
LINE
  8
0
 10
-78.383
 11
-78.873
 20
195.891
 21
195.855
  0
LINE
  8
0
 10
-78.873
 11
-79.353
 20
195.855
 21
195.964
  0
LINE
  8
0
 10
-79.353
 11
-79.779
 20
195.964
 21
196.21
  0
LINE
  8
0
 10
-79.779
 11
-80.113
 20
196.21
 21
196.571
  0
LINE
  8
0
 10
-80.113
 11
-80.327
 20
196.571
 21
197.014
  0
LINE
  8
0
 10
-80.327
 11
-80.4
 20
197.014
 21
197.5
  0
LINE
  8
0
 10
-39.91
 11
-39.837
 20
54.825
 21
55.312
  0
LINE
  8
0
 10
-39.837
 11
-39.623
 20
55.312
 21
55.755
  0
LINE
  8
0
 10
-39.623
 11
-39.289
 20
55.755
 21
56.115
  0
LINE
  8
0
 10
-39.289
 11
-38.863
 20
56.115
 21
56.361
  0
LINE
  8
0
 10
-38.863
 11
-38.383
 20
56.361
 21
56.471
  0
LINE
  8
0
 10
-38.383
 11
-37.893
 20
56.471
 21
56.434
  0
LINE
  8
0
 10
-37.893
 11
-37.435
 20
56.434
 21
56.254
  0
LINE
  8
0
 10
-37.435
 11
-37.05
 20
56.254
 21
55.948
  0
LINE
  8
0
 10
-37.05
 11
-36.773
 20
55.948
 21
55.541
  0
LINE
  8
0
 10
-36.773
 11
-36.628
 20
55.541
 21
55.071
  0
LINE
  8
0
 10
-36.628
 11
-36.628
 20
55.071
 21
54.579
  0
LINE
  8
0
 10
-36.628
 11
-36.773
 20
54.579
 21
54.11
  0
LINE
  8
0
 10
-36.773
 11
-37.05
 20
54.11
 21
53.703
  0
LINE
  8
0
 10
-37.05
 11
-37.435
 20
53.703
 21
53.396
  0
LINE
  8
0
 10
-37.435
 11
-37.893
 20
53.396
 21
53.217
  0
LINE
  8
0
 10
-37.893
 11
-38.383
 20
53.217
 21
53.18
  0
LINE
  8
0
 10
-38.383
 11
-38.863
 20
53.18
 21
53.289
  0
LINE
  8
0
 10
-38.863
 11
-39.289
 20
53.289
 21
53.535
  0
LINE
  8
0
 10
-39.289
 11
-39.623
 20
53.535
 21
53.896
  0
LINE
  8
0
 10
-39.623
 11
-39.837
 20
53.896
 21
54.339
  0
LINE
  8
0
 10
-39.837
 11
-39.91
 20
54.339
 21
54.825
  0
LINE
  8
0
 10
-39.91
 11
-39.837
 20
69.475
 21
69.961
  0
LINE
  8
0
 10
-39.837
 11
-39.623
 20
69.961
 21
70.404
  0
LINE
  8
0
 10
-39.623
 11
-39.289
 20
70.404
 21
70.765
  0
LINE
  8
0
 10
-39.289
 11
-38.863
 20
70.765
 21
71.011
  0
LINE
  8
0
 10
-38.863
 11
-38.383
 20
71.011
 21
71.12
  0
LINE
  8
0
 10
-38.383
 11
-37.893
 20
71.12
 21
71.083
  0
LINE
  8
0
 10
-37.893
 11
-37.435
 20
71.083
 21
70.904
  0
LINE
  8
0
 10
-37.435
 11
-37.05
 20
70.904
 21
70.597
  0
LINE
  8
0
 10
-37.05
 11
-36.773
 20
70.597
 21
70.19
  0
LINE
  8
0
 10
-36.773
 11
-36.628
 20
70.19
 21
69.721
  0
LINE
  8
0
 10
-36.628
 11
-36.628
 20
69.721
 21
69.229
  0
LINE
  8
0
 10
-36.628
 11
-36.773
 20
69.229
 21
68.759
  0
LINE
  8
0
 10
-36.773
 11
-37.05
 20
68.759
 21
68.352
  0
LINE
  8
0
 10
-37.05
 11
-37.435
 20
68.352
 21
68.046
  0
LINE
  8
0
 10
-37.435
 11
-37.893
 20
68.046
 21
67.866
  0
LINE
  8
0
 10
-37.893
 11
-38.383
 20
67.866
 21
67.829
  0
LINE
  8
0
 10
-38.383
 11
-38.863
 20
67.829
 21
67.939
  0
LINE
  8
0
 10
-38.863
 11
-39.289
 20
67.939
 21
68.185
  0
LINE
  8
0
 10
-39.289
 11
-39.623
 20
68.185
 21
68.545
  0
LINE
  8
0
 10
-39.623
 11
-39.837
 20
68.545
 21
68.988
  0
LINE
  8
0
 10
-39.837
 11
-39.91
 20
68.988
 21
69.475
  0
LINE
  8
0
 10
-39.892
 11
-39.892
 20
144.429
 21
144.921
  0
LINE
  8
0
 10
-39.892
 11
-39.747
 20
144.921
 21
145.391
  0
LINE
  8
0
 10
-39.747
 11
-39.47
 20
145.391
 21
145.798
  0
LINE
  8
0
 10
-39.47
 11
-39.085
 20
145.798
 21
146.104
  0
LINE
  8
0
 10
-39.085
 11
-38.627
 20
146.104
 21
146.284
  0
LINE
  8
0
 10
-38.627
 11
-38.137
 20
146.284
 21
146.321
  0
LINE
  8
0
 10
-38.137
 11
-37.657
 20
146.321
 21
146.211
  0
LINE
  8
0
 10
-37.657
 11
-37.231
 20
146.211
 21
145.965
  0
LINE
  8
0
 10
-37.231
 11
-36.897
 20
145.965
 21
145.605
  0
LINE
  8
0
 10
-36.897
 11
-36.683
 20
145.605
 21
145.162
  0
LINE
  8
0
 10
-36.683
 11
-36.61
 20
145.162
 21
144.675
  0
LINE
  8
0
 10
-36.61
 11
-36.683
 20
144.675
 21
144.189
  0
LINE
  8
0
 10
-36.683
 11
-36.897
 20
144.189
 21
143.746
  0
LINE
  8
0
 10
-36.897
 11
-37.231
 20
143.746
 21
143.385
  0
LINE
  8
0
 10
-37.231
 11
-37.657
 20
143.385
 21
143.139
  0
LINE
  8
0
 10
-37.657
 11
-38.137
 20
143.139
 21
143.03
  0
LINE
  8
0
 10
-38.137
 11
-38.627
 20
143.03
 21
143.067
  0
LINE
  8
0
 10
-38.627
 11
-39.085
 20
143.067
 21
143.246
  0
LINE
  8
0
 10
-39.085
 11
-39.47
 20
143.246
 21
143.553
  0
LINE
  8
0
 10
-39.47
 11
-39.747
 20
143.553
 21
143.96
  0
LINE
  8
0
 10
-39.747
 11
-39.892
 20
143.96
 21
144.429
  0
LINE
  8
0
 10
-39.892
 11
-39.892
 20
159.079
 21
159.571
  0
LINE
  8
0
 10
-39.892
 11
-39.747
 20
159.571
 21
160.04
  0
LINE
  8
0
 10
-39.747
 11
-39.47
 20
160.04
 21
160.447
  0
LINE
  8
0
 10
-39.47
 11
-39.085
 20
160.447
 21
160.754
  0
LINE
  8
0
 10
-39.085
 11
-38.627
 20
160.754
 21
160.933
  0
LINE
  8
0
 10
-38.627
 11
-38.137
 20
160.933
 21
160.97
  0
LINE
  8
0
 10
-38.137
 11
-37.657
 20
160.97
 21
160.861
  0
LINE
  8
0
 10
-37.657
 11
-37.231
 20
160.861
 21
160.615
  0
LINE
  8
0
 10
-37.231
 11
-36.897
 20
160.615
 21
160.254
  0
LINE
  8
0
 10
-36.897
 11
-36.683
 20
160.254
 21
159.811
  0
LINE
  8
0
 10
-36.683
 11
-36.61
 20
159.811
 21
159.325
  0
LINE
  8
0
 10
-36.61
 11
-36.683
 20
159.325
 21
158.838
  0
LINE
  8
0
 10
-36.683
 11
-36.897
 20
158.838
 21
158.395
  0
LINE
  8
0
 10
-36.897
 11
-37.231
 20
158.395
 21
158.035
  0
LINE
  8
0
 10
-37.231
 11
-37.657
 20
158.035
 21
157.789
  0
LINE
  8
0
 10
-37.657
 11
-38.137
 20
157.789
 21
157.679
  0
LINE
  8
0
 10
-38.137
 11
-38.627
 20
157.679
 21
157.716
  0
LINE
  8
0
 10
-38.627
 11
-39.085
 20
157.716
 21
157.896
  0
LINE
  8
0
 10
-39.085
 11
-39.47
 20
157.896
 21
158.202
  0
LINE
  8
0
 10
-39.47
 11
-39.747
 20
158.202
 21
158.609
  0
LINE
  8
0
 10
-39.747
 11
-39.892
 20
158.609
 21
159.079
  0
LINE
  8
0
 10
-29.042
 11
-29.042
 20
208.554
 21
209.046
  0
LINE
  8
0
 10
-29.042
 11
-28.897
 20
209.046
 21
209.516
  0
LINE
  8
0
 10
-28.897
 11
-28.62
 20
209.516
 21
209.922
  0
LINE
  8
0
 10
-28.62
 11
-28.235
 20
209.922
 21
210.229
  0
LINE
  8
0
 10
-28.235
 11
-27.777
 20
210.229
 21
210.409
  0
LINE
  8
0
 10
-27.777
 11
-27.287
 20
210.409
 21
210.445
  0
LINE
  8
0
 10
-27.287
 11
-26.807
 20
210.445
 21
210.336
  0
LINE
  8
0
 10
-26.807
 11
-26.381
 20
210.336
 21
210.09
  0
LINE
  8
0
 10
-26.381
 11
-26.047
 20
210.09
 21
209.729
  0
LINE
  8
0
 10
-26.047
 11
-25.833
 20
209.729
 21
209.286
  0
LINE
  8
0
 10
-25.833
 11
-25.76
 20
209.286
 21
208.8
  0
LINE
  8
0
 10
-25.76
 11
-25.833
 20
208.8
 21
208.314
  0
LINE
  8
0
 10
-25.833
 11
-26.047
 20
208.314
 21
207.871
  0
LINE
  8
0
 10
-26.047
 11
-26.381
 20
207.871
 21
207.51
  0
LINE
  8
0
 10
-26.381
 11
-26.807
 20
207.51
 21
207.264
  0
LINE
  8
0
 10
-26.807
 11
-27.287
 20
207.264
 21
207.155
  0
LINE
  8
0
 10
-27.287
 11
-27.777
 20
207.155
 21
207.191
  0
LINE
  8
0
 10
-27.777
 11
-28.235
 20
207.191
 21
207.371
  0
LINE
  8
0
 10
-28.235
 11
-28.62
 20
207.371
 21
207.678
  0
LINE
  8
0
 10
-28.62
 11
-28.897
 20
207.678
 21
208.084
  0
LINE
  8
0
 10
-28.897
 11
-29.042
 20
208.084
 21
208.554
  0
LINE
  8
0
 10
12.278
 11
12.278
 20
208.554
 21
209.046
  0
LINE
  8
0
 10
12.278
 11
12.423
 20
209.046
 21
209.516
  0
LINE
  8
0
 10
12.423
 11
12.7
 20
209.516
 21
209.922
  0
LINE
  8
0
 10
12.7
 11
13.085
 20
209.922
 21
210.229
  0
LINE
  8
0
 10
13.085
 11
13.543
 20
210.229
 21
210.409
  0
LINE
  8
0
 10
13.543
 11
14.033
 20
210.409
 21
210.445
  0
LINE
  8
0
 10
14.033
 11
14.513
 20
210.445
 21
210.336
  0
LINE
  8
0
 10
14.513
 11
14.939
 20
210.336
 21
210.09
  0
LINE
  8
0
 10
14.939
 11
15.273
 20
210.09
 21
209.729
  0
LINE
  8
0
 10
15.273
 11
15.487
 20
209.729
 21
209.286
  0
LINE
  8
0
 10
15.487
 11
15.56
 20
209.286
 21
208.8
  0
LINE
  8
0
 10
15.56
 11
15.487
 20
208.8
 21
208.314
  0
LINE
  8
0
 10
15.487
 11
15.273
 20
208.314
 21
207.871
  0
LINE
  8
0
 10
15.273
 11
14.939
 20
207.871
 21
207.51
  0
LINE
  8
0
 10
14.939
 11
14.513
 20
207.51
 21
207.264
  0
LINE
  8
0
 10
14.513
 11
14.033
 20
207.264
 21
207.155
  0
LINE
  8
0
 10
14.033
 11
13.543
 20
207.155
 21
207.191
  0
LINE
  8
0
 10
13.543
 11
13.085
 20
207.191
 21
207.371
  0
LINE
  8
0
 10
13.085
 11
12.7
 20
207.371
 21
207.678
  0
LINE
  8
0
 10
12.7
 11
12.423
 20
207.678
 21
208.084
  0
LINE
  8
0
 10
12.423
 11
12.278
 20
208.084
 21
208.554
  0
LINE
  8
0
 10
63.6
 11
63.673
 20
98
 21
98.486
  0
LINE
  8
0
 10
63.673
 11
63.887
 20
98.486
 21
98.929
  0
LINE
  8
0
 10
63.887
 11
64.221
 20
98.929
 21
99.29
  0
LINE
  8
0
 10
64.221
 11
64.647
 20
99.29
 21
99.536
  0
LINE
  8
0
 10
64.647
 11
65.127
 20
99.536
 21
99.645
  0
LINE
  8
0
 10
65.127
 11
65.617
 20
99.645
 21
99.609
  0
LINE
  8
0
 10
65.617
 11
66.075
 20
99.609
 21
99.429
  0
LINE
  8
0
 10
66.075
 11
66.46
 20
99.429
 21
99.122
  0
LINE
  8
0
 10
66.46
 11
66.737
 20
99.122
 21
98.716
  0
LINE
  8
0
 10
66.737
 11
66.882
 20
98.716
 21
98.246
  0
LINE
  8
0
 10
66.882
 11
66.882
 20
98.246
 21
97.754
  0
LINE
  8
0
 10
66.882
 11
66.737
 20
97.754
 21
97.284
  0
LINE
  8
0
 10
66.737
 11
66.46
 20
97.284
 21
96.878
  0
LINE
  8
0
 10
66.46
 11
66.075
 20
96.878
 21
96.571
  0
LINE
  8
0
 10
66.075
 11
65.617
 20
96.571
 21
96.391
  0
LINE
  8
0
 10
65.617
 11
65.127
 20
96.391
 21
96.355
  0
LINE
  8
0
 10
65.127
 11
64.647
 20
96.355
 21
96.464
  0
LINE
  8
0
 10
64.647
 11
64.221
 20
96.464
 21
96.71
  0
LINE
  8
0
 10
64.221
 11
63.887
 20
96.71
 21
97.071
  0
LINE
  8
0
 10
63.887
 11
63.673
 20
97.071
 21
97.514
  0
LINE
  8
0
 10
63.673
 11
63.6
 20
97.514
 21
98
  0
LINE
  8
0
 10
94.6
 11
94.673
 20
119
 21
119.486
  0
LINE
  8
0
 10
94.673
 11
94.887
 20
119.486
 21
119.929
  0
LINE
  8
0
 10
94.887
 11
95.221
 20
119.929
 21
120.29
  0
LINE
  8
0
 10
95.221
 11
95.647
 20
120.29
 21
120.536
  0
LINE
  8
0
 10
95.647
 11
96.127
 20
120.536
 21
120.645
  0
LINE
  8
0
 10
96.127
 11
96.617
 20
120.645
 21
120.609
  0
LINE
  8
0
 10
96.617
 11
97.075
 20
120.609
 21
120.429
  0
LINE
  8
0
 10
97.075
 11
97.46
 20
120.429
 21
120.122
  0
LINE
  8
0
 10
97.46
 11
97.737
 20
120.122
 21
119.716
  0
LINE
  8
0
 10
97.737
 11
97.882
 20
119.716
 21
119.246
  0
LINE
  8
0
 10
97.882
 11
97.882
 20
119.246
 21
118.754
  0
LINE
  8
0
 10
97.882
 11
97.737
 20
118.754
 21
118.284
  0
LINE
  8
0
 10
97.737
 11
97.46
 20
118.284
 21
117.878
  0
LINE
  8
0
 10
97.46
 11
97.075
 20
117.878
 21
117.571
  0
LINE
  8
0
 10
97.075
 11
96.617
 20
117.571
 21
117.391
  0
LINE
  8
0
 10
96.617
 11
96.127
 20
117.391
 21
117.355
  0
LINE
  8
0
 10
96.127
 11
95.647
 20
117.355
 21
117.464
  0
LINE
  8
0
 10
95.647
 11
95.221
 20
117.464
 21
117.71
  0
LINE
  8
0
 10
95.221
 11
94.887
 20
117.71
 21
118.071
  0
LINE
  8
0
 10
94.887
 11
94.673
 20
118.071
 21
118.514
  0
LINE
  8
0
 10
94.673
 11
94.6
 20
118.514
 21
119
  0
LINE
  8
0
 10
96.5
 11
96.595
 20
4
 21
4.478
  0
LINE
  8
0
 10
96.595
 11
96.866
 20
4.478
 21
4.884
  0
LINE
  8
0
 10
96.866
 11
97.272
 20
4.884
 21
5.155
  0
LINE
  8
0
 10
97.272
 11
97.75
 20
5.155
 21
5.25
  0
LINE
  8
0
 10
97.75
 11
98.228
 20
5.25
 21
5.155
  0
LINE
  8
0
 10
98.228
 11
98.634
 20
5.155
 21
4.884
  0
LINE
  8
0
 10
98.634
 11
98.905
 20
4.884
 21
4.478
  0
LINE
  8
0
 10
98.905
 11
99
 20
4.478
 21
4
  0
LINE
  8
0
 10
99
 11
98.905
 20
4
 21
3.522
  0
LINE
  8
0
 10
98.905
 11
98.634
 20
3.522
 21
3.116
  0
LINE
  8
0
 10
98.634
 11
98.228
 20
3.116
 21
2.845
  0
LINE
  8
0
 10
98.228
 11
97.75
 20
2.845
 21
2.75
  0
LINE
  8
0
 10
97.75
 11
97.272
 20
2.75
 21
2.845
  0
LINE
  8
0
 10
97.272
 11
96.866
 20
2.845
 21
3.116
  0
LINE
  8
0
 10
96.866
 11
96.595
 20
3.116
 21
3.522
  0
LINE
  8
0
 10
96.595
 11
96.5
 20
3.522
 21
4
  0
LINE
  8
0
 10
96.5
 11
96.595
 20
213
 21
213.478
  0
LINE
  8
0
 10
96.595
 11
96.866
 20
213.478
 21
213.884
  0
LINE
  8
0
 10
96.866
 11
97.272
 20
213.884
 21
214.155
  0
LINE
  8
0
 10
97.272
 11
97.75
 20
214.155
 21
214.25
  0
LINE
  8
0
 10
97.75
 11
98.228
 20
214.25
 21
214.155
  0
LINE
  8
0
 10
98.228
 11
98.634
 20
214.155
 21
213.884
  0
LINE
  8
0
 10
98.634
 11
98.905
 20
213.884
 21
213.478
  0
LINE
  8
0
 10
98.905
 11
99
 20
213.478
 21
213
  0
LINE
  8
0
 10
99
 11
98.905
 20
213
 21
212.522
  0
LINE
  8
0
 10
98.905
 11
98.634
 20
212.522
 21
212.116
  0
LINE
  8
0
 10
98.634
 11
98.228
 20
212.116
 21
211.845
  0
LINE
  8
0
 10
98.228
 11
97.75
 20
211.845
 21
211.75
  0
LINE
  8
0
 10
97.75
 11
97.272
 20
211.75
 21
211.845
  0
LINE
  8
0
 10
97.272
 11
96.866
 20
211.845
 21
212.116
  0
LINE
  8
0
 10
96.866
 11
96.595
 20
212.116
 21
212.522
  0
LINE
  8
0
 10
96.595
 11
96.5
 20
212.522
 21
213
  0
LINE
  8
0
 10
116.255
 11
116.376
 20
326.004
 21
326.483
  0
LINE
  8
0
 10
116.376
 11
116.646
 20
326.483
 21
326.896
  0
LINE
  8
0
 10
116.646
 11
117.036
 20
326.896
 21
327.199
  0
LINE
  8
0
 10
117.036
 11
117.503
 20
327.199
 21
327.36
  0
LINE
  8
0
 10
117.503
 11
117.997
 20
327.36
 21
327.36
  0
LINE
  8
0
 10
117.997
 11
118.464
 20
327.36
 21
327.199
  0
LINE
  8
0
 10
118.464
 11
118.854
 20
327.199
 21
326.896
  0
LINE
  8
0
 10
118.854
 11
119.124
 20
326.896
 21
326.483
  0
LINE
  8
0
 10
119.124
 11
119.245
 20
326.483
 21
326.004
  0
LINE
  8
0
 10
119.245
 11
119.204
 20
326.004
 21
325.512
  0
LINE
  8
0
 10
119.204
 11
119.006
 20
325.512
 21
325.06
  0
LINE
  8
0
 10
119.006
 11
118.671
 20
325.06
 21
324.696
  0
LINE
  8
0
 10
118.671
 11
118.237
 20
324.696
 21
324.461
  0
LINE
  8
0
 10
118.237
 11
117.75
 20
324.461
 21
324.38
  0
LINE
  8
0
 10
117.75
 11
117.263
 20
324.38
 21
324.461
  0
LINE
  8
0
 10
117.263
 11
116.829
 20
324.461
 21
324.696
  0
LINE
  8
0
 10
116.829
 11
116.494
 20
324.696
 21
325.06
  0
LINE
  8
0
 10
116.494
 11
116.296
 20
325.06
 21
325.512
  0
LINE
  8
0
 10
116.296
 11
116.255
 20
325.512
 21
326.004
  0
LINE
  8
0
 10
116.255
 11
116.376
 20
331.804
 21
332.283
  0
LINE
  8
0
 10
116.376
 11
116.646
 20
332.283
 21
332.696
  0
LINE
  8
0
 10
116.646
 11
117.036
 20
332.696
 21
332.999
  0
LINE
  8
0
 10
117.036
 11
117.503
 20
332.999
 21
333.16
  0
LINE
  8
0
 10
117.503
 11
117.997
 20
333.16
 21
333.16
  0
LINE
  8
0
 10
117.997
 11
118.464
 20
333.16
 21
332.999
  0
LINE
  8
0
 10
118.464
 11
118.854
 20
332.999
 21
332.696
  0
LINE
  8
0
 10
118.854
 11
119.124
 20
332.696
 21
332.283
  0
LINE
  8
0
 10
119.124
 11
119.245
 20
332.283
 21
331.804
  0
LINE
  8
0
 10
119.245
 11
119.204
 20
331.804
 21
331.312
  0
LINE
  8
0
 10
119.204
 11
119.006
 20
331.312
 21
330.86
  0
LINE
  8
0
 10
119.006
 11
118.671
 20
330.86
 21
330.496
  0
LINE
  8
0
 10
118.671
 11
118.237
 20
330.496
 21
330.261
  0
LINE
  8
0
 10
118.237
 11
117.75
 20
330.261
 21
330.18
  0
LINE
  8
0
 10
117.75
 11
117.263
 20
330.18
 21
330.261
  0
LINE
  8
0
 10
117.263
 11
116.829
 20
330.261
 21
330.496
  0
LINE
  8
0
 10
116.829
 11
116.494
 20
330.496
 21
330.86
  0
LINE
  8
0
 10
116.494
 11
116.296
 20
330.86
 21
331.312
  0
LINE
  8
0
 10
116.296
 11
116.255
 20
331.312
 21
331.804
  0
LINE
  8
0
 10
121.255
 11
121.296
 20
313.156
 21
313.648
  0
LINE
  8
0
 10
121.296
 11
121.494
 20
313.648
 21
314.1
  0
LINE
  8
0
 10
121.494
 11
121.829
 20
314.1
 21
314.464
  0
LINE
  8
0
 10
121.829
 11
122.263
 20
314.464
 21
314.699
  0
LINE
  8
0
 10
122.263
 11
122.75
 20
314.699
 21
314.78
  0
LINE
  8
0
 10
122.75
 11
123.237
 20
314.78
 21
314.699
  0
LINE
  8
0
 10
123.237
 11
123.671
 20
314.699
 21
314.464
  0
LINE
  8
0
 10
123.671
 11
124.006
 20
314.464
 21
314.1
  0
LINE
  8
0
 10
124.006
 11
124.204
 20
314.1
 21
313.648
  0
LINE
  8
0
 10
124.204
 11
124.245
 20
313.648
 21
313.156
  0
LINE
  8
0
 10
124.245
 11
124.124
 20
313.156
 21
312.677
  0
LINE
  8
0
 10
124.124
 11
123.854
 20
312.677
 21
312.264
  0
LINE
  8
0
 10
123.854
 11
123.464
 20
312.264
 21
311.961
  0
LINE
  8
0
 10
123.464
 11
122.997
 20
311.961
 21
311.8
  0
LINE
  8
0
 10
122.997
 11
122.503
 20
311.8
 21
311.8
  0
LINE
  8
0
 10
122.503
 11
122.036
 20
311.8
 21
311.961
  0
LINE
  8
0
 10
122.036
 11
121.646
 20
311.961
 21
312.264
  0
LINE
  8
0
 10
121.646
 11
121.376
 20
312.264
 21
312.677
  0
LINE
  8
0
 10
121.376
 11
121.255
 20
312.677
 21
313.156
  0
LINE
  8
0
 10
121.255
 11
121.296
 20
320.356
 21
320.848
  0
LINE
  8
0
 10
121.296
 11
121.494
 20
320.848
 21
321.3
  0
LINE
  8
0
 10
121.494
 11
121.829
 20
321.3
 21
321.664
  0
LINE
  8
0
 10
121.829
 11
122.263
 20
321.664
 21
321.899
  0
LINE
  8
0
 10
122.263
 11
122.75
 20
321.899
 21
321.98
  0
LINE
  8
0
 10
122.75
 11
123.237
 20
321.98
 21
321.899
  0
LINE
  8
0
 10
123.237
 11
123.671
 20
321.899
 21
321.664
  0
LINE
  8
0
 10
123.671
 11
124.006
 20
321.664
 21
321.3
  0
LINE
  8
0
 10
124.006
 11
124.204
 20
321.3
 21
320.848
  0
LINE
  8
0
 10
124.204
 11
124.245
 20
320.848
 21
320.356
  0
LINE
  8
0
 10
124.245
 11
124.124
 20
320.356
 21
319.877
  0
LINE
  8
0
 10
124.124
 11
123.854
 20
319.877
 21
319.464
  0
LINE
  8
0
 10
123.854
 11
123.464
 20
319.464
 21
319.161
  0
LINE
  8
0
 10
123.464
 11
122.997
 20
319.161
 21
319
  0
LINE
  8
0
 10
122.997
 11
122.503
 20
319
 21
319
  0
LINE
  8
0
 10
122.503
 11
122.036
 20
319
 21
319.161
  0
LINE
  8
0
 10
122.036
 11
121.646
 20
319.161
 21
319.464
  0
LINE
  8
0
 10
121.646
 11
121.376
 20
319.464
 21
319.877
  0
LINE
  8
0
 10
121.376
 11
121.255
 20
319.877
 21
320.356
  0
LINE
  8
0
 10
122.05
 11
122.105
 20
379.5
 21
379.99
  0
LINE
  8
0
 10
122.105
 11
122.268
 20
379.99
 21
380.455
  0
LINE
  8
0
 10
122.268
 11
122.53
 20
380.455
 21
380.872
  0
LINE
  8
0
 10
122.53
 11
122.878
 20
380.872
 21
381.22
  0
LINE
  8
0
 10
122.878
 11
123.295
 20
381.22
 21
381.482
  0
LINE
  8
0
 10
123.295
 11
123.76
 20
381.482
 21
381.645
  0
LINE
  8
0
 10
123.76
 11
124.25
 20
381.645
 21
381.7
  0
LINE
  8
0
 10
124.25
 11
124.74
 20
381.7
 21
381.645
  0
LINE
  8
0
 10
124.74
 11
125.205
 20
381.645
 21
381.482
  0
LINE
  8
0
 10
125.205
 11
125.622
 20
381.482
 21
381.22
  0
LINE
  8
0
 10
125.622
 11
125.97
 20
381.22
 21
380.872
  0
LINE
  8
0
 10
125.97
 11
126.232
 20
380.872
 21
380.455
  0
LINE
  8
0
 10
126.232
 11
126.395
 20
380.455
 21
379.99
  0
LINE
  8
0
 10
126.395
 11
126.45
 20
379.99
 21
379.5
  0
LINE
  8
0
 10
126.45
 11
126.395
 20
379.5
 21
379.01
  0
LINE
  8
0
 10
126.395
 11
126.232
 20
379.01
 21
378.545
  0
LINE
  8
0
 10
126.232
 11
125.97
 20
378.545
 21
378.128
  0
LINE
  8
0
 10
125.97
 11
125.622
 20
378.128
 21
377.78
  0
LINE
  8
0
 10
125.622
 11
125.205
 20
377.78
 21
377.518
  0
LINE
  8
0
 10
125.205
 11
124.74
 20
377.518
 21
377.355
  0
LINE
  8
0
 10
124.74
 11
124.25
 20
377.355
 21
377.3
  0
LINE
  8
0
 10
124.25
 11
123.76
 20
377.3
 21
377.355
  0
LINE
  8
0
 10
123.76
 11
123.295
 20
377.355
 21
377.518
  0
LINE
  8
0
 10
123.295
 11
122.878
 20
377.518
 21
377.78
  0
LINE
  8
0
 10
122.878
 11
122.53
 20
377.78
 21
378.128
  0
LINE
  8
0
 10
122.53
 11
122.268
 20
378.128
 21
378.545
  0
LINE
  8
0
 10
122.268
 11
122.105
 20
378.545
 21
379.01
  0
LINE
  8
0
 10
122.105
 11
122.05
 20
379.01
 21
379.5
  0
LINE
  8
0
 10
123.35
 11
123.405
 20
36.11
 21
36.6
  0
LINE
  8
0
 10
123.405
 11
123.568
 20
36.6
 21
37.065
  0
LINE
  8
0
 10
123.568
 11
123.83
 20
37.065
 21
37.482
  0
LINE
  8
0
 10
123.83
 11
124.178
 20
37.482
 21
37.83
  0
LINE
  8
0
 10
124.178
 11
124.595
 20
37.83
 21
38.092
  0
LINE
  8
0
 10
124.595
 11
125.06
 20
38.092
 21
38.255
  0
LINE
  8
0
 10
125.06
 11
125.55
 20
38.255
 21
38.31
  0
LINE
  8
0
 10
125.55
 11
126.04
 20
38.31
 21
38.255
  0
LINE
  8
0
 10
126.04
 11
126.505
 20
38.255
 21
38.092
  0
LINE
  8
0
 10
126.505
 11
126.922
 20
38.092
 21
37.83
  0
LINE
  8
0
 10
126.922
 11
127.27
 20
37.83
 21
37.482
  0
LINE
  8
0
 10
127.27
 11
127.532
 20
37.482
 21
37.065
  0
LINE
  8
0
 10
127.532
 11
127.695
 20
37.065
 21
36.6
  0
LINE
  8
0
 10
127.695
 11
127.75
 20
36.6
 21
36.11
  0
LINE
  8
0
 10
127.75
 11
127.695
 20
36.11
 21
35.62
  0
LINE
  8
0
 10
127.695
 11
127.532
 20
35.62
 21
35.155
  0
LINE
  8
0
 10
127.532
 11
127.27
 20
35.155
 21
34.738
  0
LINE
  8
0
 10
127.27
 11
126.922
 20
34.738
 21
34.39
  0
LINE
  8
0
 10
126.922
 11
126.505
 20
34.39
 21
34.128
  0
LINE
  8
0
 10
126.505
 11
126.04
 20
34.128
 21
33.965
  0
LINE
  8
0
 10
126.04
 11
125.55
 20
33.965
 21
33.91
  0
LINE
  8
0
 10
125.55
 11
125.06
 20
33.91
 21
33.965
  0
LINE
  8
0
 10
125.06
 11
124.595
 20
33.965
 21
34.128
  0
LINE
  8
0
 10
124.595
 11
124.178
 20
34.128
 21
34.39
  0
LINE
  8
0
 10
124.178
 11
123.83
 20
34.39
 21
34.738
  0
LINE
  8
0
 10
123.83
 11
123.568
 20
34.738
 21
35.155
  0
LINE
  8
0
 10
123.568
 11
123.405
 20
35.155
 21
35.62
  0
LINE
  8
0
 10
123.405
 11
123.35
 20
35.62
 21
36.11
  0
LINE
  8
0
 10
123.35
 11
123.405
 20
351.89
 21
352.38
  0
LINE
  8
0
 10
123.405
 11
123.568
 20
352.38
 21
352.845
  0
LINE
  8
0
 10
123.568
 11
123.83
 20
352.845
 21
353.262
  0
LINE
  8
0
 10
123.83
 11
124.178
 20
353.262
 21
353.61
  0
LINE
  8
0
 10
124.178
 11
124.595
 20
353.61
 21
353.872
  0
LINE
  8
0
 10
124.595
 11
125.06
 20
353.872
 21
354.035
  0
LINE
  8
0
 10
125.06
 11
125.55
 20
354.035
 21
354.09
  0
LINE
  8
0
 10
125.55
 11
126.04
 20
354.09
 21
354.035
  0
LINE
  8
0
 10
126.04
 11
126.505
 20
354.035
 21
353.872
  0
LINE
  8
0
 10
126.505
 11
126.922
 20
353.872
 21
353.61
  0
LINE
  8
0
 10
126.922
 11
127.27
 20
353.61
 21
353.262
  0
LINE
  8
0
 10
127.27
 11
127.532
 20
353.262
 21
352.845
  0
LINE
  8
0
 10
127.532
 11
127.695
 20
352.845
 21
352.38
  0
LINE
  8
0
 10
127.695
 11
127.75
 20
352.38
 21
351.89
  0
LINE
  8
0
 10
127.75
 11
127.695
 20
351.89
 21
351.4
  0
LINE
  8
0
 10
127.695
 11
127.532
 20
351.4
 21
350.935
  0
LINE
  8
0
 10
127.532
 11
127.27
 20
350.935
 21
350.518
  0
LINE
  8
0
 10
127.27
 11
126.922
 20
350.518
 21
350.17
  0
LINE
  8
0
 10
126.922
 11
126.505
 20
350.17
 21
349.908
  0
LINE
  8
0
 10
126.505
 11
126.04
 20
349.908
 21
349.745
  0
LINE
  8
0
 10
126.04
 11
125.55
 20
349.745
 21
349.69
  0
LINE
  8
0
 10
125.55
 11
125.06
 20
349.69
 21
349.745
  0
LINE
  8
0
 10
125.06
 11
124.595
 20
349.745
 21
349.908
  0
LINE
  8
0
 10
124.595
 11
124.178
 20
349.908
 21
350.17
  0
LINE
  8
0
 10
124.178
 11
123.83
 20
350.17
 21
350.518
  0
LINE
  8
0
 10
123.83
 11
123.568
 20
350.518
 21
350.935
  0
LINE
  8
0
 10
123.568
 11
123.405
 20
350.935
 21
351.4
  0
LINE
  8
0
 10
123.405
 11
123.35
 20
351.4
 21
351.89
  0
LINE
  8
0
 10
140.05
 11
140.105
 20
61
 21
61.49
  0
LINE
  8
0
 10
140.105
 11
140.268
 20
61.49
 21
61.955
  0
LINE
  8
0
 10
140.268
 11
140.53
 20
61.955
 21
62.372
  0
LINE
  8
0
 10
140.53
 11
140.878
 20
62.372
 21
62.72
  0
LINE
  8
0
 10
140.878
 11
141.295
 20
62.72
 21
62.982
  0
LINE
  8
0
 10
141.295
 11
141.76
 20
62.982
 21
63.145
  0
LINE
  8
0
 10
141.76
 11
142.25
 20
63.145
 21
63.2
  0
LINE
  8
0
 10
142.25
 11
142.74
 20
63.2
 21
63.145
  0
LINE
  8
0
 10
142.74
 11
143.205
 20
63.145
 21
62.982
  0
LINE
  8
0
 10
143.205
 11
143.622
 20
62.982
 21
62.72
  0
LINE
  8
0
 10
143.622
 11
143.97
 20
62.72
 21
62.372
  0
LINE
  8
0
 10
143.97
 11
144.232
 20
62.372
 21
61.955
  0
LINE
  8
0
 10
144.232
 11
144.395
 20
61.955
 21
61.49
  0
LINE
  8
0
 10
144.395
 11
144.45
 20
61.49
 21
61
  0
LINE
  8
0
 10
144.45
 11
144.395
 20
61
 21
60.51
  0
LINE
  8
0
 10
144.395
 11
144.232
 20
60.51
 21
60.045
  0
LINE
  8
0
 10
144.232
 11
143.97
 20
60.045
 21
59.628
  0
LINE
  8
0
 10
143.97
 11
143.622
 20
59.628
 21
59.28
  0
LINE
  8
0
 10
143.622
 11
143.205
 20
59.28
 21
59.018
  0
LINE
  8
0
 10
143.205
 11
142.74
 20
59.018
 21
58.855
  0
LINE
  8
0
 10
142.74
 11
142.25
 20
58.855
 21
58.8
  0
LINE
  8
0
 10
142.25
 11
141.76
 20
58.8
 21
58.855
  0
LINE
  8
0
 10
141.76
 11
141.295
 20
58.855
 21
59.018
  0
LINE
  8
0
 10
141.295
 11
140.878
 20
59.018
 21
59.28
  0
LINE
  8
0
 10
140.878
 11
140.53
 20
59.28
 21
59.628
  0
LINE
  8
0
 10
140.53
 11
140.268
 20
59.628
 21
60.045
  0
LINE
  8
0
 10
140.268
 11
140.105
 20
60.045
 21
60.51
  0
LINE
  8
0
 10
140.105
 11
140.05
 20
60.51
 21
61
  0
LINE
  8
0
 10
144.25
 11
144.305
 20
8.2
 21
8.69
  0
LINE
  8
0
 10
144.305
 11
144.468
 20
8.69
 21
9.155
  0
LINE
  8
0
 10
144.468
 11
144.73
 20
9.155
 21
9.572
  0
LINE
  8
0
 10
144.73
 11
145.078
 20
9.572
 21
9.92
  0
LINE
  8
0
 10
145.078
 11
145.495
 20
9.92
 21
10.182
  0
LINE
  8
0
 10
145.495
 11
145.96
 20
10.182
 21
10.345
  0
LINE
  8
0
 10
145.96
 11
146.45
 20
10.345
 21
10.4
  0
LINE
  8
0
 10
146.45
 11
146.94
 20
10.4
 21
10.345
  0
LINE
  8
0
 10
146.94
 11
147.405
 20
10.345
 21
10.182
  0
LINE
  8
0
 10
147.405
 11
147.822
 20
10.182
 21
9.92
  0
LINE
  8
0
 10
147.822
 11
148.17
 20
9.92
 21
9.572
  0
LINE
  8
0
 10
148.17
 11
148.432
 20
9.572
 21
9.155
  0
LINE
  8
0
 10
148.432
 11
148.595
 20
9.155
 21
8.69
  0
LINE
  8
0
 10
148.595
 11
148.65
 20
8.69
 21
8.2
  0
LINE
  8
0
 10
148.65
 11
148.595
 20
8.2
 21
7.71
  0
LINE
  8
0
 10
148.595
 11
148.432
 20
7.71
 21
7.245
  0
LINE
  8
0
 10
148.432
 11
148.17
 20
7.245
 21
6.828
  0
LINE
  8
0
 10
148.17
 11
147.822
 20
6.828
 21
6.48
  0
LINE
  8
0
 10
147.822
 11
147.405
 20
6.48
 21
6.218
  0
LINE
  8
0
 10
147.405
 11
146.94
 20
6.218
 21
6.055
  0
LINE
  8
0
 10
146.94
 11
146.45
 20
6.055
 21
6
  0
LINE
  8
0
 10
146.45
 11
145.96
 20
6
 21
6.055
  0
LINE
  8
0
 10
145.96
 11
145.495
 20
6.055
 21
6.218
  0
LINE
  8
0
 10
145.495
 11
145.078
 20
6.218
 21
6.48
  0
LINE
  8
0
 10
145.078
 11
144.73
 20
6.48
 21
6.828
  0
LINE
  8
0
 10
144.73
 11
144.468
 20
6.828
 21
7.245
  0
LINE
  8
0
 10
144.468
 11
144.305
 20
7.245
 21
7.71
  0
LINE
  8
0
 10
144.305
 11
144.25
 20
7.71
 21
8.2
  0
LINE
  8
0
 10
155.05
 11
155.105
 20
379.5
 21
379.99
  0
LINE
  8
0
 10
155.105
 11
155.268
 20
379.99
 21
380.455
  0
LINE
  8
0
 10
155.268
 11
155.53
 20
380.455
 21
380.872
  0
LINE
  8
0
 10
155.53
 11
155.878
 20
380.872
 21
381.22
  0
LINE
  8
0
 10
155.878
 11
156.295
 20
381.22
 21
381.482
  0
LINE
  8
0
 10
156.295
 11
156.76
 20
381.482
 21
381.645
  0
LINE
  8
0
 10
156.76
 11
157.25
 20
381.645
 21
381.7
  0
LINE
  8
0
 10
157.25
 11
157.74
 20
381.7
 21
381.645
  0
LINE
  8
0
 10
157.74
 11
158.205
 20
381.645
 21
381.482
  0
LINE
  8
0
 10
158.205
 11
158.622
 20
381.482
 21
381.22
  0
LINE
  8
0
 10
158.622
 11
158.97
 20
381.22
 21
380.872
  0
LINE
  8
0
 10
158.97
 11
159.232
 20
380.872
 21
380.455
  0
LINE
  8
0
 10
159.232
 11
159.395
 20
380.455
 21
379.99
  0
LINE
  8
0
 10
159.395
 11
159.45
 20
379.99
 21
379.5
  0
LINE
  8
0
 10
159.45
 11
159.395
 20
379.5
 21
379.01
  0
LINE
  8
0
 10
159.395
 11
159.232
 20
379.01
 21
378.545
  0
LINE
  8
0
 10
159.232
 11
158.97
 20
378.545
 21
378.128
  0
LINE
  8
0
 10
158.97
 11
158.622
 20
378.128
 21
377.78
  0
LINE
  8
0
 10
158.622
 11
158.205
 20
377.78
 21
377.518
  0
LINE
  8
0
 10
158.205
 11
157.74
 20
377.518
 21
377.355
  0
LINE
  8
0
 10
157.74
 11
157.25
 20
377.355
 21
377.3
  0
LINE
  8
0
 10
157.25
 11
156.76
 20
377.3
 21
377.355
  0
LINE
  8
0
 10
156.76
 11
156.295
 20
377.355
 21
377.518
  0
LINE
  8
0
 10
156.295
 11
155.878
 20
377.518
 21
377.78
  0
LINE
  8
0
 10
155.878
 11
155.53
 20
377.78
 21
378.128
  0
LINE
  8
0
 10
155.53
 11
155.268
 20
378.128
 21
378.545
  0
LINE
  8
0
 10
155.268
 11
155.105
 20
378.545
 21
379.01
  0
LINE
  8
0
 10
155.105
 11
155.05
 20
379.01
 21
379.5
  0
LINE
  8
0
 10
157.67
 11
157.718
 20
20.9
 21
21.388
  0
LINE
  8
0
 10
157.718
 11
157.86
 20
21.388
 21
21.857
  0
LINE
  8
0
 10
157.86
 11
158.091
 20
21.857
 21
22.289
  0
LINE
  8
0
 10
158.091
 11
158.402
 20
22.289
 21
22.668
  0
LINE
  8
0
 10
158.402
 11
158.781
 20
22.668
 21
22.979
  0
LINE
  8
0
 10
158.781
 11
159.213
 20
22.979
 21
23.21
  0
LINE
  8
0
 10
159.213
 11
159.682
 20
23.21
 21
23.352
  0
LINE
  8
0
 10
159.682
 11
160.17
 20
23.352
 21
23.4
  0
LINE
  8
0
 10
160.17
 11
160.658
 20
23.4
 21
23.352
  0
LINE
  8
0
 10
160.658
 11
161.127
 20
23.352
 21
23.21
  0
LINE
  8
0
 10
161.127
 11
161.559
 20
23.21
 21
22.979
  0
LINE
  8
0
 10
161.559
 11
161.938
 20
22.979
 21
22.668
  0
LINE
  8
0
 10
161.938
 11
162.249
 20
22.668
 21
22.289
  0
LINE
  8
0
 10
162.249
 11
162.48
 20
22.289
 21
21.857
  0
LINE
  8
0
 10
162.48
 11
162.622
 20
21.857
 21
21.388
  0
LINE
  8
0
 10
162.622
 11
162.67
 20
21.388
 21
20.9
  0
LINE
  8
0
 10
162.67
 11
162.622
 20
20.9
 21
20.412
  0
LINE
  8
0
 10
162.622
 11
162.48
 20
20.412
 21
19.943
  0
LINE
  8
0
 10
162.48
 11
162.249
 20
19.943
 21
19.511
  0
LINE
  8
0
 10
162.249
 11
161.938
 20
19.511
 21
19.132
  0
LINE
  8
0
 10
161.938
 11
161.559
 20
19.132
 21
18.821
  0
LINE
  8
0
 10
161.559
 11
161.127
 20
18.821
 21
18.59
  0
LINE
  8
0
 10
161.127
 11
160.658
 20
18.59
 21
18.448
  0
LINE
  8
0
 10
160.658
 11
160.17
 20
18.448
 21
18.4
  0
LINE
  8
0
 10
160.17
 11
159.682
 20
18.4
 21
18.448
  0
LINE
  8
0
 10
159.682
 11
159.213
 20
18.448
 21
18.59
  0
LINE
  8
0
 10
159.213
 11
158.781
 20
18.59
 21
18.821
  0
LINE
  8
0
 10
158.781
 11
158.402
 20
18.821
 21
19.132
  0
LINE
  8
0
 10
158.402
 11
158.091
 20
19.132
 21
19.511
  0
LINE
  8
0
 10
158.091
 11
157.86
 20
19.511
 21
19.943
  0
LINE
  8
0
 10
157.86
 11
157.718
 20
19.943
 21
20.412
  0
LINE
  8
0
 10
157.718
 11
157.67
 20
20.412
 21
20.9
  0
LINE
  8
0
 10
164.27
 11
164.325
 20
8.2
 21
8.69
  0
LINE
  8
0
 10
164.325
 11
164.488
 20
8.69
 21
9.155
  0
LINE
  8
0
 10
164.488
 11
164.75
 20
9.155
 21
9.572
  0
LINE
  8
0
 10
164.75
 11
165.098
 20
9.572
 21
9.92
  0
LINE
  8
0
 10
165.098
 11
165.515
 20
9.92
 21
10.182
  0
LINE
  8
0
 10
165.515
 11
165.98
 20
10.182
 21
10.345
  0
LINE
  8
0
 10
165.98
 11
166.47
 20
10.345
 21
10.4
  0
LINE
  8
0
 10
166.47
 11
166.96
 20
10.4
 21
10.345
  0
LINE
  8
0
 10
166.96
 11
167.425
 20
10.345
 21
10.182
  0
LINE
  8
0
 10
167.425
 11
167.842
 20
10.182
 21
9.92
  0
LINE
  8
0
 10
167.842
 11
168.19
 20
9.92
 21
9.572
  0
LINE
  8
0
 10
168.19
 11
168.452
 20
9.572
 21
9.155
  0
LINE
  8
0
 10
168.452
 11
168.615
 20
9.155
 21
8.69
  0
LINE
  8
0
 10
168.615
 11
168.67
 20
8.69
 21
8.2
  0
LINE
  8
0
 10
168.67
 11
168.615
 20
8.2
 21
7.71
  0
LINE
  8
0
 10
168.615
 11
168.452
 20
7.71
 21
7.245
  0
LINE
  8
0
 10
168.452
 11
168.19
 20
7.245
 21
6.828
  0
LINE
  8
0
 10
168.19
 11
167.842
 20
6.828
 21
6.48
  0
LINE
  8
0
 10
167.842
 11
167.425
 20
6.48
 21
6.218
  0
LINE
  8
0
 10
167.425
 11
166.96
 20
6.218
 21
6.055
  0
LINE
  8
0
 10
166.96
 11
166.47
 20
6.055
 21
6
  0
LINE
  8
0
 10
166.47
 11
165.98
 20
6
 21
6.055
  0
LINE
  8
0
 10
165.98
 11
165.515
 20
6.055
 21
6.218
  0
LINE
  8
0
 10
165.515
 11
165.098
 20
6.218
 21
6.48
  0
LINE
  8
0
 10
165.098
 11
164.75
 20
6.48
 21
6.828
  0
LINE
  8
0
 10
164.75
 11
164.488
 20
6.828
 21
7.245
  0
LINE
  8
0
 10
164.488
 11
164.325
 20
7.245
 21
7.71
  0
LINE
  8
0
 10
164.325
 11
164.27
 20
7.71
 21
8.2
  0
LINE
  8
0
 10
172.05
 11
172.105
 20
61
 21
61.49
  0
LINE
  8
0
 10
172.105
 11
172.268
 20
61.49
 21
61.955
  0
LINE
  8
0
 10
172.268
 11
172.53
 20
61.955
 21
62.372
  0
LINE
  8
0
 10
172.53
 11
172.878
 20
62.372
 21
62.72
  0
LINE
  8
0
 10
172.878
 11
173.295
 20
62.72
 21
62.982
  0
LINE
  8
0
 10
173.295
 11
173.76
 20
62.982
 21
63.145
  0
LINE
  8
0
 10
173.76
 11
174.25
 20
63.145
 21
63.2
  0
LINE
  8
0
 10
174.25
 11
174.74
 20
63.2
 21
63.145
  0
LINE
  8
0
 10
174.74
 11
175.205
 20
63.145
 21
62.982
  0
LINE
  8
0
 10
175.205
 11
175.622
 20
62.982
 21
62.72
  0
LINE
  8
0
 10
175.622
 11
175.97
 20
62.72
 21
62.372
  0
LINE
  8
0
 10
175.97
 11
176.232
 20
62.372
 21
61.955
  0
LINE
  8
0
 10
176.232
 11
176.395
 20
61.955
 21
61.49
  0
LINE
  8
0
 10
176.395
 11
176.45
 20
61.49
 21
61
  0
LINE
  8
0
 10
176.45
 11
176.395
 20
61
 21
60.51
  0
LINE
  8
0
 10
176.395
 11
176.232
 20
60.51
 21
60.045
  0
LINE
  8
0
 10
176.232
 11
175.97
 20
60.045
 21
59.628
  0
LINE
  8
0
 10
175.97
 11
175.622
 20
59.628
 21
59.28
  0
LINE
  8
0
 10
175.622
 11
175.205
 20
59.28
 21
59.018
  0
LINE
  8
0
 10
175.205
 11
174.74
 20
59.018
 21
58.855
  0
LINE
  8
0
 10
174.74
 11
174.25
 20
58.855
 21
58.8
  0
LINE
  8
0
 10
174.25
 11
173.76
 20
58.8
 21
58.855
  0
LINE
  8
0
 10
173.76
 11
173.295
 20
58.855
 21
59.018
  0
LINE
  8
0
 10
173.295
 11
172.878
 20
59.018
 21
59.28
  0
LINE
  8
0
 10
172.878
 11
172.53
 20
59.28
 21
59.628
  0
LINE
  8
0
 10
172.53
 11
172.268
 20
59.628
 21
60.045
  0
LINE
  8
0
 10
172.268
 11
172.105
 20
60.045
 21
60.51
  0
LINE
  8
0
 10
172.105
 11
172.05
 20
60.51
 21
61
  0
LINE
  8
0
 10
182.15
 11
182.205
 20
376
 21
376.49
  0
LINE
  8
0
 10
182.205
 11
182.368
 20
376.49
 21
376.955
  0
LINE
  8
0
 10
182.368
 11
182.63
 20
376.955
 21
377.372
  0
LINE
  8
0
 10
182.63
 11
182.978
 20
377.372
 21
377.72
  0
LINE
  8
0
 10
182.978
 11
183.395
 20
377.72
 21
377.982
  0
LINE
  8
0
 10
183.395
 11
183.86
 20
377.982
 21
378.145
  0
LINE
  8
0
 10
183.86
 11
184.35
 20
378.145
 21
378.2
  0
LINE
  8
0
 10
184.35
 11
184.84
 20
378.2
 21
378.145
  0
LINE
  8
0
 10
184.84
 11
185.305
 20
378.145
 21
377.982
  0
LINE
  8
0
 10
185.305
 11
185.722
 20
377.982
 21
377.72
  0
LINE
  8
0
 10
185.722
 11
186.07
 20
377.72
 21
377.372
  0
LINE
  8
0
 10
186.07
 11
186.332
 20
377.372
 21
376.955
  0
LINE
  8
0
 10
186.332
 11
186.495
 20
376.955
 21
376.49
  0
LINE
  8
0
 10
186.495
 11
186.55
 20
376.49
 21
376
  0
LINE
  8
0
 10
186.55
 11
186.495
 20
376
 21
375.51
  0
LINE
  8
0
 10
186.495
 11
186.332
 20
375.51
 21
375.045
  0
LINE
  8
0
 10
186.332
 11
186.07
 20
375.045
 21
374.628
  0
LINE
  8
0
 10
186.07
 11
185.722
 20
374.628
 21
374.28
  0
LINE
  8
0
 10
185.722
 11
185.305
 20
374.28
 21
374.018
  0
LINE
  8
0
 10
185.305
 11
184.84
 20
374.018
 21
373.855
  0
LINE
  8
0
 10
184.84
 11
184.35
 20
373.855
 21
373.8
  0
LINE
  8
0
 10
184.35
 11
183.86
 20
373.8
 21
373.855
  0
LINE
  8
0
 10
183.86
 11
183.395
 20
373.855
 21
374.018
  0
LINE
  8
0
 10
183.395
 11
182.978
 20
374.018
 21
374.28
  0
LINE
  8
0
 10
182.978
 11
182.63
 20
374.28
 21
374.628
  0
LINE
  8
0
 10
182.63
 11
182.368
 20
374.628
 21
375.045
  0
LINE
  8
0
 10
182.368
 11
182.205
 20
375.045
 21
375.51
  0
LINE
  8
0
 10
182.205
 11
182.15
 20
375.51
 21
376
  0
LINE
  8
0
 10
203.33
 11
203.385
 20
8.2
 21
8.69
  0
LINE
  8
0
 10
203.385
 11
203.548
 20
8.69
 21
9.155
  0
LINE
  8
0
 10
203.548
 11
203.81
 20
9.155
 21
9.572
  0
LINE
  8
0
 10
203.81
 11
204.158
 20
9.572
 21
9.92
  0
LINE
  8
0
 10
204.158
 11
204.575
 20
9.92
 21
10.182
  0
LINE
  8
0
 10
204.575
 11
205.04
 20
10.182
 21
10.345
  0
LINE
  8
0
 10
205.04
 11
205.53
 20
10.345
 21
10.4
  0
LINE
  8
0
 10
205.53
 11
206.02
 20
10.4
 21
10.345
  0
LINE
  8
0
 10
206.02
 11
206.485
 20
10.345
 21
10.182
  0
LINE
  8
0
 10
206.485
 11
206.902
 20
10.182
 21
9.92
  0
LINE
  8
0
 10
206.902
 11
207.25
 20
9.92
 21
9.572
  0
LINE
  8
0
 10
207.25
 11
207.512
 20
9.572
 21
9.155
  0
LINE
  8
0
 10
207.512
 11
207.675
 20
9.155
 21
8.69
  0
LINE
  8
0
 10
207.675
 11
207.73
 20
8.69
 21
8.2
  0
LINE
  8
0
 10
207.73
 11
207.675
 20
8.2
 21
7.71
  0
LINE
  8
0
 10
207.675
 11
207.512
 20
7.71
 21
7.245
  0
LINE
  8
0
 10
207.512
 11
207.25
 20
7.245
 21
6.828
  0
LINE
  8
0
 10
207.25
 11
206.902
 20
6.828
 21
6.48
  0
LINE
  8
0
 10
206.902
 11
206.485
 20
6.48
 21
6.218
  0
LINE
  8
0
 10
206.485
 11
206.02
 20
6.218
 21
6.055
  0
LINE
  8
0
 10
206.02
 11
205.53
 20
6.055
 21
6
  0
LINE
  8
0
 10
205.53
 11
205.04
 20
6
 21
6.055
  0
LINE
  8
0
 10
205.04
 11
204.575
 20
6.055
 21
6.218
  0
LINE
  8
0
 10
204.575
 11
204.158
 20
6.218
 21
6.48
  0
LINE
  8
0
 10
204.158
 11
203.81
 20
6.48
 21
6.828
  0
LINE
  8
0
 10
203.81
 11
203.548
 20
6.828
 21
7.245
  0
LINE
  8
0
 10
203.548
 11
203.385
 20
7.245
 21
7.71
  0
LINE
  8
0
 10
203.385
 11
203.33
 20
7.71
 21
8.2
  0
LINE
  8
0
 10
216.05
 11
216.105
 20
30.4
 21
30.89
  0
LINE
  8
0
 10
216.105
 11
216.268
 20
30.89
 21
31.355
  0
LINE
  8
0
 10
216.268
 11
216.53
 20
31.355
 21
31.772
  0
LINE
  8
0
 10
216.53
 11
216.878
 20
31.772
 21
32.12
  0
LINE
  8
0
 10
216.878
 11
217.295
 20
32.12
 21
32.382
  0
LINE
  8
0
 10
217.295
 11
217.76
 20
32.382
 21
32.545
  0
LINE
  8
0
 10
217.76
 11
218.25
 20
32.545
 21
32.6
  0
LINE
  8
0
 10
218.25
 11
218.74
 20
32.6
 21
32.545
  0
LINE
  8
0
 10
218.74
 11
219.205
 20
32.545
 21
32.382
  0
LINE
  8
0
 10
219.205
 11
219.622
 20
32.382
 21
32.12
  0
LINE
  8
0
 10
219.622
 11
219.97
 20
32.12
 21
31.772
  0
LINE
  8
0
 10
219.97
 11
220.232
 20
31.772
 21
31.355
  0
LINE
  8
0
 10
220.232
 11
220.395
 20
31.355
 21
30.89
  0
LINE
  8
0
 10
220.395
 11
220.45
 20
30.89
 21
30.4
  0
LINE
  8
0
 10
220.45
 11
220.395
 20
30.4
 21
29.91
  0
LINE
  8
0
 10
220.395
 11
220.232
 20
29.91
 21
29.445
  0
LINE
  8
0
 10
220.232
 11
219.97
 20
29.445
 21
29.028
  0
LINE
  8
0
 10
219.97
 11
219.622
 20
29.028
 21
28.68
  0
LINE
  8
0
 10
219.622
 11
219.205
 20
28.68
 21
28.418
  0
LINE
  8
0
 10
219.205
 11
218.74
 20
28.418
 21
28.255
  0
LINE
  8
0
 10
218.74
 11
218.25
 20
28.255
 21
28.2
  0
LINE
  8
0
 10
218.25
 11
217.76
 20
28.2
 21
28.255
  0
LINE
  8
0
 10
217.76
 11
217.295
 20
28.255
 21
28.418
  0
LINE
  8
0
 10
217.295
 11
216.878
 20
28.418
 21
28.68
  0
LINE
  8
0
 10
216.878
 11
216.53
 20
28.68
 21
29.028
  0
LINE
  8
0
 10
216.53
 11
216.268
 20
29.028
 21
29.445
  0
LINE
  8
0
 10
216.268
 11
216.105
 20
29.445
 21
29.91
  0
LINE
  8
0
 10
216.105
 11
216.05
 20
29.91
 21
30.4
  0
LINE
  8
0
 10
216.95
 11
217.005
 20
376
 21
376.49
  0
LINE
  8
0
 10
217.005
 11
217.168
 20
376.49
 21
376.955
  0
LINE
  8
0
 10
217.168
 11
217.43
 20
376.955
 21
377.372
  0
LINE
  8
0
 10
217.43
 11
217.778
 20
377.372
 21
377.72
  0
LINE
  8
0
 10
217.778
 11
218.195
 20
377.72
 21
377.982
  0
LINE
  8
0
 10
218.195
 11
218.66
 20
377.982
 21
378.145
  0
LINE
  8
0
 10
218.66
 11
219.15
 20
378.145
 21
378.2
  0
LINE
  8
0
 10
219.15
 11
219.64
 20
378.2
 21
378.145
  0
LINE
  8
0
 10
219.64
 11
220.105
 20
378.145
 21
377.982
  0
LINE
  8
0
 10
220.105
 11
220.522
 20
377.982
 21
377.72
  0
LINE
  8
0
 10
220.522
 11
220.87
 20
377.72
 21
377.372
  0
LINE
  8
0
 10
220.87
 11
221.132
 20
377.372
 21
376.955
  0
LINE
  8
0
 10
221.132
 11
221.295
 20
376.955
 21
376.49
  0
LINE
  8
0
 10
221.295
 11
221.35
 20
376.49
 21
376
  0
LINE
  8
0
 10
221.35
 11
221.295
 20
376
 21
375.51
  0
LINE
  8
0
 10
221.295
 11
221.132
 20
375.51
 21
375.045
  0
LINE
  8
0
 10
221.132
 11
220.87
 20
375.045
 21
374.628
  0
LINE
  8
0
 10
220.87
 11
220.522
 20
374.628
 21
374.28
  0
LINE
  8
0
 10
220.522
 11
220.105
 20
374.28
 21
374.018
  0
LINE
  8
0
 10
220.105
 11
219.64
 20
374.018
 21
373.855
  0
LINE
  8
0
 10
219.64
 11
219.15
 20
373.855
 21
373.8
  0
LINE
  8
0
 10
219.15
 11
218.66
 20
373.8
 21
373.855
  0
LINE
  8
0
 10
218.66
 11
218.195
 20
373.855
 21
374.018
  0
LINE
  8
0
 10
218.195
 11
217.778
 20
374.018
 21
374.28
  0
LINE
  8
0
 10
217.778
 11
217.43
 20
374.28
 21
374.628
  0
LINE
  8
0
 10
217.43
 11
217.168
 20
374.628
 21
375.045
  0
LINE
  8
0
 10
217.168
 11
217.005
 20
375.045
 21
375.51
  0
LINE
  8
0
 10
217.005
 11
216.95
 20
375.51
 21
376
  0
LINE
  8
0
 10
223.35
 11
223.405
 20
8.2
 21
8.69
  0
LINE
  8
0
 10
223.405
 11
223.568
 20
8.69
 21
9.155
  0
LINE
  8
0
 10
223.568
 11
223.83
 20
9.155
 21
9.572
  0
LINE
  8
0
 10
223.83
 11
224.178
 20
9.572
 21
9.92
  0
LINE
  8
0
 10
224.178
 11
224.595
 20
9.92
 21
10.182
  0
LINE
  8
0
 10
224.595
 11
225.06
 20
10.182
 21
10.345
  0
LINE
  8
0
 10
225.06
 11
225.55
 20
10.345
 21
10.4
  0
LINE
  8
0
 10
225.55
 11
226.04
 20
10.4
 21
10.345
  0
LINE
  8
0
 10
226.04
 11
226.505
 20
10.345
 21
10.182
  0
LINE
  8
0
 10
226.505
 11
226.922
 20
10.182
 21
9.92
  0
LINE
  8
0
 10
226.922
 11
227.27
 20
9.92
 21
9.572
  0
LINE
  8
0
 10
227.27
 11
227.532
 20
9.572
 21
9.155
  0
LINE
  8
0
 10
227.532
 11
227.695
 20
9.155
 21
8.69
  0
LINE
  8
0
 10
227.695
 11
227.75
 20
8.69
 21
8.2
  0
LINE
  8
0
 10
227.75
 11
227.695
 20
8.2
 21
7.71
  0
LINE
  8
0
 10
227.695
 11
227.532
 20
7.71
 21
7.245
  0
LINE
  8
0
 10
227.532
 11
227.27
 20
7.245
 21
6.828
  0
LINE
  8
0
 10
227.27
 11
226.922
 20
6.828
 21
6.48
  0
LINE
  8
0
 10
226.922
 11
226.505
 20
6.48
 21
6.218
  0
LINE
  8
0
 10
226.505
 11
226.04
 20
6.218
 21
6.055
  0
LINE
  8
0
 10
226.04
 11
225.55
 20
6.055
 21
6
  0
LINE
  8
0
 10
225.55
 11
225.06
 20
6
 21
6.055
  0
LINE
  8
0
 10
225.06
 11
224.595
 20
6.055
 21
6.218
  0
LINE
  8
0
 10
224.595
 11
224.178
 20
6.218
 21
6.48
  0
LINE
  8
0
 10
224.178
 11
223.83
 20
6.48
 21
6.828
  0
LINE
  8
0
 10
223.83
 11
223.568
 20
6.828
 21
7.245
  0
LINE
  8
0
 10
223.568
 11
223.405
 20
7.245
 21
7.71
  0
LINE
  8
0
 10
223.405
 11
223.35
 20
7.71
 21
8.2
  0
ENDSEC
  0
SECTION
  2
OBJECTS
  0
DICTIONARY
  0
ENDSEC
  0
EOF
