  0
SECTION
  2
BLOCKS
  0
ENDSEC
  0
SECTION
  2
ENTITIES
  0
LINE
  8
0
 10
-235.25
 11
-235.25
 20
-211
 21
211
  0
LINE
  8
0
 10
-235.25
 11
235.25
 20
211
 21
211
  0
LINE
  8
0
 10
235.25
 11
235.25
 20
211
 21
-211
  0
LINE
  8
0
 10
235.25
 11
-235.25
 20
-211
 21
-211
  0
LINE
  8
0
 10
-217.74
 11
-217.685
 20
51.7
 21
52.19
  0
LINE
  8
0
 10
-217.685
 11
-217.522
 20
52.19
 21
52.655
  0
LINE
  8
0
 10
-217.522
 11
-217.26
 20
52.655
 21
53.072
  0
LINE
  8
0
 10
-217.26
 11
-216.912
 20
53.072
 21
53.42
  0
LINE
  8
0
 10
-216.912
 11
-216.495
 20
53.42
 21
53.682
  0
LINE
  8
0
 10
-216.495
 11
-216.03
 20
53.682
 21
53.845
  0
LINE
  8
0
 10
-216.03
 11
-215.54
 20
53.845
 21
53.9
  0
LINE
  8
0
 10
-215.54
 11
-215.05
 20
53.9
 21
53.845
  0
LINE
  8
0
 10
-215.05
 11
-214.585
 20
53.845
 21
53.682
  0
LINE
  8
0
 10
-214.585
 11
-214.168
 20
53.682
 21
53.42
  0
LINE
  8
0
 10
-214.168
 11
-213.82
 20
53.42
 21
53.072
  0
LINE
  8
0
 10
-213.82
 11
-213.558
 20
53.072
 21
52.655
  0
LINE
  8
0
 10
-213.558
 11
-213.395
 20
52.655
 21
52.19
  0
LINE
  8
0
 10
-213.395
 11
-213.34
 20
52.19
 21
51.7
  0
LINE
  8
0
 10
-213.34
 11
-213.395
 20
51.7
 21
51.21
  0
LINE
  8
0
 10
-213.395
 11
-213.558
 20
51.21
 21
50.745
  0
LINE
  8
0
 10
-213.558
 11
-213.82
 20
50.745
 21
50.328
  0
LINE
  8
0
 10
-213.82
 11
-214.168
 20
50.328
 21
49.98
  0
LINE
  8
0
 10
-214.168
 11
-214.585
 20
49.98
 21
49.718
  0
LINE
  8
0
 10
-214.585
 11
-215.05
 20
49.718
 21
49.555
  0
LINE
  8
0
 10
-215.05
 11
-215.54
 20
49.555
 21
49.5
  0
LINE
  8
0
 10
-215.54
 11
-216.03
 20
49.5
 21
49.555
  0
LINE
  8
0
 10
-216.03
 11
-216.495
 20
49.555
 21
49.718
  0
LINE
  8
0
 10
-216.495
 11
-216.912
 20
49.718
 21
49.98
  0
LINE
  8
0
 10
-216.912
 11
-217.26
 20
49.98
 21
50.328
  0
LINE
  8
0
 10
-217.26
 11
-217.522
 20
50.328
 21
50.745
  0
LINE
  8
0
 10
-217.522
 11
-217.685
 20
50.745
 21
51.21
  0
LINE
  8
0
 10
-217.685
 11
-217.74
 20
51.21
 21
51.7
  0
LINE
  8
0
 10
-206.742
 11
-206.742
 20
-0.246
 21
0.246
  0
LINE
  8
0
 10
-206.742
 11
-206.682
 20
0.246
 21
0.735
  0
LINE
  8
0
 10
-206.682
 11
-206.562
 20
0.735
 21
1.213
  0
LINE
  8
0
 10
-206.562
 11
-206.384
 20
1.213
 21
1.672
  0
LINE
  8
0
 10
-206.384
 11
-206.151
 20
1.672
 21
2.106
  0
LINE
  8
0
 10
-206.151
 11
-205.866
 20
2.106
 21
2.508
  0
LINE
  8
0
 10
-205.866
 11
-205.535
 20
2.508
 21
2.872
  0
LINE
  8
0
 10
-205.535
 11
-205.161
 20
2.872
 21
3.192
  0
LINE
  8
0
 10
-205.161
 11
-204.75
 20
3.192
 21
3.464
  0
LINE
  8
0
 10
-204.75
 11
-204.309
 20
3.464
 21
3.684
  0
LINE
  8
0
 10
-204.309
 11
-203.845
 20
3.684
 21
3.847
  0
LINE
  8
0
 10
-203.845
 11
-203.364
 20
3.847
 21
3.953
  0
LINE
  8
0
 10
-203.364
 11
-202.873
 20
3.953
 21
3.998
  0
LINE
  8
0
 10
-202.873
 11
-202.381
 20
3.998
 21
3.983
  0
LINE
  8
0
 10
-202.381
 11
-201.894
 20
3.983
 21
3.907
  0
LINE
  8
0
 10
-201.894
 11
-201.421
 20
3.907
 21
3.773
  0
LINE
  8
0
 10
-201.421
 11
-200.967
 20
3.773
 21
3.581
  0
LINE
  8
0
 10
-200.967
 11
-200.541
 20
3.581
 21
3.334
  0
LINE
  8
0
 10
-200.541
 11
-200.148
 20
3.334
 21
3.038
  0
LINE
  8
0
 10
-200.148
 11
-199.794
 20
3.038
 21
2.695
  0
LINE
  8
0
 10
-199.794
 11
-199.485
 20
2.695
 21
2.311
  0
LINE
  8
0
 10
-199.485
 11
-199.226
 20
2.311
 21
1.892
  0
LINE
  8
0
 10
-199.226
 11
-199.02
 20
1.892
 21
1.445
  0
LINE
  8
0
 10
-199.02
 11
-198.871
 20
1.445
 21
0.976
  0
LINE
  8
0
 10
-198.871
 11
-198.78
 20
0.976
 21
0.492
  0
LINE
  8
0
 10
-198.78
 11
-198.75
 20
0.492
 21
0
  0
LINE
  8
0
 10
-198.75
 11
-198.78
 20
0
 21
-0.492
  0
LINE
  8
0
 10
-198.78
 11
-198.871
 20
-0.492
 21
-0.976
  0
LINE
  8
0
 10
-198.871
 11
-199.02
 20
-0.976
 21
-1.445
  0
LINE
  8
0
 10
-199.02
 11
-199.226
 20
-1.445
 21
-1.892
  0
LINE
  8
0
 10
-199.226
 11
-199.485
 20
-1.892
 21
-2.311
  0
LINE
  8
0
 10
-199.485
 11
-199.794
 20
-2.311
 21
-2.695
  0
LINE
  8
0
 10
-199.794
 11
-200.148
 20
-2.695
 21
-3.038
  0
LINE
  8
0
 10
-200.148
 11
-200.541
 20
-3.038
 21
-3.334
  0
LINE
  8
0
 10
-200.541
 11
-200.967
 20
-3.334
 21
-3.581
  0
LINE
  8
0
 10
-200.967
 11
-201.421
 20
-3.581
 21
-3.773
  0
LINE
  8
0
 10
-201.421
 11
-201.894
 20
-3.773
 21
-3.907
  0
LINE
  8
0
 10
-201.894
 11
-202.381
 20
-3.907
 21
-3.983
  0
LINE
  8
0
 10
-202.381
 11
-202.873
 20
-3.983
 21
-3.998
  0
LINE
  8
0
 10
-202.873
 11
-203.364
 20
-3.998
 21
-3.953
  0
LINE
  8
0
 10
-203.364
 11
-203.845
 20
-3.953
 21
-3.847
  0
LINE
  8
0
 10
-203.845
 11
-204.309
 20
-3.847
 21
-3.684
  0
LINE
  8
0
 10
-204.309
 11
-204.75
 20
-3.684
 21
-3.464
  0
LINE
  8
0
 10
-204.75
 11
-205.161
 20
-3.464
 21
-3.192
  0
LINE
  8
0
 10
-205.161
 11
-205.535
 20
-3.192
 21
-2.872
  0
LINE
  8
0
 10
-205.535
 11
-205.866
 20
-2.872
 21
-2.508
  0
LINE
  8
0
 10
-205.866
 11
-206.151
 20
-2.508
 21
-2.106
  0
LINE
  8
0
 10
-206.151
 11
-206.384
 20
-2.106
 21
-1.672
  0
LINE
  8
0
 10
-206.384
 11
-206.562
 20
-1.672
 21
-1.213
  0
LINE
  8
0
 10
-206.562
 11
-206.682
 20
-1.213
 21
-0.735
  0
LINE
  8
0
 10
-206.682
 11
-206.742
 20
-0.735
 21
-0.246
  0
LINE
  8
0
 10
-172.25
 11
-172.195
 20
-191.29
 21
-190.8
  0
LINE
  8
0
 10
-172.195
 11
-172.032
 20
-190.8
 21
-190.335
  0
LINE
  8
0
 10
-172.032
 11
-171.77
 20
-190.335
 21
-189.918
  0
LINE
  8
0
 10
-171.77
 11
-171.422
 20
-189.918
 21
-189.57
  0
LINE
  8
0
 10
-171.422
 11
-171.005
 20
-189.57
 21
-189.308
  0
LINE
  8
0
 10
-171.005
 11
-170.54
 20
-189.308
 21
-189.145
  0
LINE
  8
0
 10
-170.54
 11
-170.05
 20
-189.145
 21
-189.09
  0
LINE
  8
0
 10
-170.05
 11
-169.56
 20
-189.09
 21
-189.145
  0
LINE
  8
0
 10
-169.56
 11
-169.095
 20
-189.145
 21
-189.308
  0
LINE
  8
0
 10
-169.095
 11
-168.678
 20
-189.308
 21
-189.57
  0
LINE
  8
0
 10
-168.678
 11
-168.33
 20
-189.57
 21
-189.918
  0
LINE
  8
0
 10
-168.33
 11
-168.068
 20
-189.918
 21
-190.335
  0
LINE
  8
0
 10
-168.068
 11
-167.905
 20
-190.335
 21
-190.8
  0
LINE
  8
0
 10
-167.905
 11
-167.85
 20
-190.8
 21
-191.29
  0
LINE
  8
0
 10
-167.85
 11
-167.905
 20
-191.29
 21
-191.78
  0
LINE
  8
0
 10
-167.905
 11
-168.068
 20
-191.78
 21
-192.245
  0
LINE
  8
0
 10
-168.068
 11
-168.33
 20
-192.245
 21
-192.662
  0
LINE
  8
0
 10
-168.33
 11
-168.678
 20
-192.662
 21
-193.01
  0
LINE
  8
0
 10
-168.678
 11
-169.095
 20
-193.01
 21
-193.272
  0
LINE
  8
0
 10
-169.095
 11
-169.56
 20
-193.272
 21
-193.435
  0
LINE
  8
0
 10
-169.56
 11
-170.05
 20
-193.435
 21
-193.49
  0
LINE
  8
0
 10
-170.05
 11
-170.54
 20
-193.49
 21
-193.435
  0
LINE
  8
0
 10
-170.54
 11
-171.005
 20
-193.435
 21
-193.272
  0
LINE
  8
0
 10
-171.005
 11
-171.422
 20
-193.272
 21
-193.01
  0
LINE
  8
0
 10
-171.422
 11
-171.77
 20
-193.01
 21
-192.662
  0
LINE
  8
0
 10
-171.77
 11
-172.032
 20
-192.662
 21
-192.245
  0
LINE
  8
0
 10
-172.032
 11
-172.195
 20
-192.245
 21
-191.78
  0
LINE
  8
0
 10
-172.195
 11
-172.25
 20
-191.78
 21
-191.29
  0
LINE
  8
0
 10
-172.25
 11
-172.195
 20
191.29
 21
191.78
  0
LINE
  8
0
 10
-172.195
 11
-172.032
 20
191.78
 21
192.245
  0
LINE
  8
0
 10
-172.032
 11
-171.77
 20
192.245
 21
192.662
  0
LINE
  8
0
 10
-171.77
 11
-171.422
 20
192.662
 21
193.01
  0
LINE
  8
0
 10
-171.422
 11
-171.005
 20
193.01
 21
193.272
  0
LINE
  8
0
 10
-171.005
 11
-170.54
 20
193.272
 21
193.435
  0
LINE
  8
0
 10
-170.54
 11
-170.05
 20
193.435
 21
193.49
  0
LINE
  8
0
 10
-170.05
 11
-169.56
 20
193.49
 21
193.435
  0
LINE
  8
0
 10
-169.56
 11
-169.095
 20
193.435
 21
193.272
  0
LINE
  8
0
 10
-169.095
 11
-168.678
 20
193.272
 21
193.01
  0
LINE
  8
0
 10
-168.678
 11
-168.33
 20
193.01
 21
192.662
  0
LINE
  8
0
 10
-168.33
 11
-168.068
 20
192.662
 21
192.245
  0
LINE
  8
0
 10
-168.068
 11
-167.905
 20
192.245
 21
191.78
  0
LINE
  8
0
 10
-167.905
 11
-167.85
 20
191.78
 21
191.29
  0
LINE
  8
0
 10
-167.85
 11
-167.905
 20
191.29
 21
190.8
  0
LINE
  8
0
 10
-167.905
 11
-168.068
 20
190.8
 21
190.335
  0
LINE
  8
0
 10
-168.068
 11
-168.33
 20
190.335
 21
189.918
  0
LINE
  8
0
 10
-168.33
 11
-168.678
 20
189.918
 21
189.57
  0
LINE
  8
0
 10
-168.678
 11
-169.095
 20
189.57
 21
189.308
  0
LINE
  8
0
 10
-169.095
 11
-169.56
 20
189.308
 21
189.145
  0
LINE
  8
0
 10
-169.56
 11
-170.05
 20
189.145
 21
189.09
  0
LINE
  8
0
 10
-170.05
 11
-170.54
 20
189.09
 21
189.145
  0
LINE
  8
0
 10
-170.54
 11
-171.005
 20
189.145
 21
189.308
  0
LINE
  8
0
 10
-171.005
 11
-171.422
 20
189.308
 21
189.57
  0
LINE
  8
0
 10
-171.422
 11
-171.77
 20
189.57
 21
189.918
  0
LINE
  8
0
 10
-171.77
 11
-172.032
 20
189.918
 21
190.335
  0
LINE
  8
0
 10
-172.032
 11
-172.195
 20
190.335
 21
190.8
  0
LINE
  8
0
 10
-172.195
 11
-172.25
 20
190.8
 21
191.29
  0
LINE
  8
0
 10
-153.16
 11
-153.105
 20
51.7
 21
52.19
  0
LINE
  8
0
 10
-153.105
 11
-152.942
 20
52.19
 21
52.655
  0
LINE
  8
0
 10
-152.942
 11
-152.68
 20
52.655
 21
53.072
  0
LINE
  8
0
 10
-152.68
 11
-152.332
 20
53.072
 21
53.42
  0
LINE
  8
0
 10
-152.332
 11
-151.915
 20
53.42
 21
53.682
  0
LINE
  8
0
 10
-151.915
 11
-151.45
 20
53.682
 21
53.845
  0
LINE
  8
0
 10
-151.45
 11
-150.96
 20
53.845
 21
53.9
  0
LINE
  8
0
 10
-150.96
 11
-150.47
 20
53.9
 21
53.845
  0
LINE
  8
0
 10
-150.47
 11
-150.005
 20
53.845
 21
53.682
  0
LINE
  8
0
 10
-150.005
 11
-149.588
 20
53.682
 21
53.42
  0
LINE
  8
0
 10
-149.588
 11
-149.24
 20
53.42
 21
53.072
  0
LINE
  8
0
 10
-149.24
 11
-148.978
 20
53.072
 21
52.655
  0
LINE
  8
0
 10
-148.978
 11
-148.815
 20
52.655
 21
52.19
  0
LINE
  8
0
 10
-148.815
 11
-148.76
 20
52.19
 21
51.7
  0
LINE
  8
0
 10
-148.76
 11
-148.815
 20
51.7
 21
51.21
  0
LINE
  8
0
 10
-148.815
 11
-148.978
 20
51.21
 21
50.745
  0
LINE
  8
0
 10
-148.978
 11
-149.24
 20
50.745
 21
50.328
  0
LINE
  8
0
 10
-149.24
 11
-149.588
 20
50.328
 21
49.98
  0
LINE
  8
0
 10
-149.588
 11
-150.005
 20
49.98
 21
49.718
  0
LINE
  8
0
 10
-150.005
 11
-150.47
 20
49.718
 21
49.555
  0
LINE
  8
0
 10
-150.47
 11
-150.96
 20
49.555
 21
49.5
  0
LINE
  8
0
 10
-150.96
 11
-151.45
 20
49.5
 21
49.555
  0
LINE
  8
0
 10
-151.45
 11
-151.915
 20
49.555
 21
49.718
  0
LINE
  8
0
 10
-151.915
 11
-152.332
 20
49.718
 21
49.98
  0
LINE
  8
0
 10
-152.332
 11
-152.68
 20
49.98
 21
50.328
  0
LINE
  8
0
 10
-152.68
 11
-152.942
 20
50.328
 21
50.745
  0
LINE
  8
0
 10
-152.942
 11
-153.105
 20
50.745
 21
51.21
  0
LINE
  8
0
 10
-153.105
 11
-153.16
 20
51.21
 21
51.7
  0
LINE
  8
0
 10
-109.45
 11
-109.395
 20
-202.5
 21
-202.01
  0
LINE
  8
0
 10
-109.395
 11
-109.232
 20
-202.01
 21
-201.545
  0
LINE
  8
0
 10
-109.232
 11
-108.97
 20
-201.545
 21
-201.128
  0
LINE
  8
0
 10
-108.97
 11
-108.622
 20
-201.128
 21
-200.78
  0
LINE
  8
0
 10
-108.622
 11
-108.205
 20
-200.78
 21
-200.518
  0
LINE
  8
0
 10
-108.205
 11
-107.74
 20
-200.518
 21
-200.355
  0
LINE
  8
0
 10
-107.74
 11
-107.25
 20
-200.355
 21
-200.3
  0
LINE
  8
0
 10
-107.25
 11
-106.76
 20
-200.3
 21
-200.355
  0
LINE
  8
0
 10
-106.76
 11
-106.295
 20
-200.355
 21
-200.518
  0
LINE
  8
0
 10
-106.295
 11
-105.878
 20
-200.518
 21
-200.78
  0
LINE
  8
0
 10
-105.878
 11
-105.53
 20
-200.78
 21
-201.128
  0
LINE
  8
0
 10
-105.53
 11
-105.268
 20
-201.128
 21
-201.545
  0
LINE
  8
0
 10
-105.268
 11
-105.105
 20
-201.545
 21
-202.01
  0
LINE
  8
0
 10
-105.105
 11
-105.05
 20
-202.01
 21
-202.5
  0
LINE
  8
0
 10
-105.05
 11
-105.105
 20
-202.5
 21
-202.99
  0
LINE
  8
0
 10
-105.105
 11
-105.268
 20
-202.99
 21
-203.455
  0
LINE
  8
0
 10
-105.268
 11
-105.53
 20
-203.455
 21
-203.872
  0
LINE
  8
0
 10
-105.53
 11
-105.878
 20
-203.872
 21
-204.22
  0
LINE
  8
0
 10
-105.878
 11
-106.295
 20
-204.22
 21
-204.482
  0
LINE
  8
0
 10
-106.295
 11
-106.76
 20
-204.482
 21
-204.645
  0
LINE
  8
0
 10
-106.76
 11
-107.25
 20
-204.645
 21
-204.7
  0
LINE
  8
0
 10
-107.25
 11
-107.74
 20
-204.7
 21
-204.645
  0
LINE
  8
0
 10
-107.74
 11
-108.205
 20
-204.645
 21
-204.482
  0
LINE
  8
0
 10
-108.205
 11
-108.622
 20
-204.482
 21
-204.22
  0
LINE
  8
0
 10
-108.622
 11
-108.97
 20
-204.22
 21
-203.872
  0
LINE
  8
0
 10
-108.97
 11
-109.232
 20
-203.872
 21
-203.455
  0
LINE
  8
0
 10
-109.232
 11
-109.395
 20
-203.455
 21
-202.99
  0
LINE
  8
0
 10
-109.395
 11
-109.45
 20
-202.99
 21
-202.5
  0
LINE
  8
0
 10
-109.45
 11
-109.395
 20
202.5
 21
202.99
  0
LINE
  8
0
 10
-109.395
 11
-109.232
 20
202.99
 21
203.455
  0
LINE
  8
0
 10
-109.232
 11
-108.97
 20
203.455
 21
203.872
  0
LINE
  8
0
 10
-108.97
 11
-108.622
 20
203.872
 21
204.22
  0
LINE
  8
0
 10
-108.622
 11
-108.205
 20
204.22
 21
204.482
  0
LINE
  8
0
 10
-108.205
 11
-107.74
 20
204.482
 21
204.645
  0
LINE
  8
0
 10
-107.74
 11
-107.25
 20
204.645
 21
204.7
  0
LINE
  8
0
 10
-107.25
 11
-106.76
 20
204.7
 21
204.645
  0
LINE
  8
0
 10
-106.76
 11
-106.295
 20
204.645
 21
204.482
  0
LINE
  8
0
 10
-106.295
 11
-105.878
 20
204.482
 21
204.22
  0
LINE
  8
0
 10
-105.878
 11
-105.53
 20
204.22
 21
203.872
  0
LINE
  8
0
 10
-105.53
 11
-105.268
 20
203.872
 21
203.455
  0
LINE
  8
0
 10
-105.268
 11
-105.105
 20
203.455
 21
202.99
  0
LINE
  8
0
 10
-105.105
 11
-105.05
 20
202.99
 21
202.5
  0
LINE
  8
0
 10
-105.05
 11
-105.105
 20
202.5
 21
202.01
  0
LINE
  8
0
 10
-105.105
 11
-105.268
 20
202.01
 21
201.545
  0
LINE
  8
0
 10
-105.268
 11
-105.53
 20
201.545
 21
201.128
  0
LINE
  8
0
 10
-105.53
 11
-105.878
 20
201.128
 21
200.78
  0
LINE
  8
0
 10
-105.878
 11
-106.295
 20
200.78
 21
200.518
  0
LINE
  8
0
 10
-106.295
 11
-106.76
 20
200.518
 21
200.355
  0
LINE
  8
0
 10
-106.76
 11
-107.25
 20
200.355
 21
200.3
  0
LINE
  8
0
 10
-107.25
 11
-107.74
 20
200.3
 21
200.355
  0
LINE
  8
0
 10
-107.74
 11
-108.205
 20
200.355
 21
200.518
  0
LINE
  8
0
 10
-108.205
 11
-108.622
 20
200.518
 21
200.78
  0
LINE
  8
0
 10
-108.622
 11
-108.97
 20
200.78
 21
201.128
  0
LINE
  8
0
 10
-108.97
 11
-109.232
 20
201.128
 21
201.545
  0
LINE
  8
0
 10
-109.232
 11
-109.395
 20
201.545
 21
202.01
  0
LINE
  8
0
 10
-109.395
 11
-109.45
 20
202.01
 21
202.5
  0
LINE
  8
0
 10
-76.45
 11
-76.395
 20
-202.5
 21
-202.01
  0
LINE
  8
0
 10
-76.395
 11
-76.232
 20
-202.01
 21
-201.545
  0
LINE
  8
0
 10
-76.232
 11
-75.97
 20
-201.545
 21
-201.128
  0
LINE
  8
0
 10
-75.97
 11
-75.622
 20
-201.128
 21
-200.78
  0
LINE
  8
0
 10
-75.622
 11
-75.205
 20
-200.78
 21
-200.518
  0
LINE
  8
0
 10
-75.205
 11
-74.74
 20
-200.518
 21
-200.355
  0
LINE
  8
0
 10
-74.74
 11
-74.25
 20
-200.355
 21
-200.3
  0
LINE
  8
0
 10
-74.25
 11
-73.76
 20
-200.3
 21
-200.355
  0
LINE
  8
0
 10
-73.76
 11
-73.295
 20
-200.355
 21
-200.518
  0
LINE
  8
0
 10
-73.295
 11
-72.878
 20
-200.518
 21
-200.78
  0
LINE
  8
0
 10
-72.878
 11
-72.53
 20
-200.78
 21
-201.128
  0
LINE
  8
0
 10
-72.53
 11
-72.268
 20
-201.128
 21
-201.545
  0
LINE
  8
0
 10
-72.268
 11
-72.105
 20
-201.545
 21
-202.01
  0
LINE
  8
0
 10
-72.105
 11
-72.05
 20
-202.01
 21
-202.5
  0
LINE
  8
0
 10
-72.05
 11
-72.105
 20
-202.5
 21
-202.99
  0
LINE
  8
0
 10
-72.105
 11
-72.268
 20
-202.99
 21
-203.455
  0
LINE
  8
0
 10
-72.268
 11
-72.53
 20
-203.455
 21
-203.872
  0
LINE
  8
0
 10
-72.53
 11
-72.878
 20
-203.872
 21
-204.22
  0
LINE
  8
0
 10
-72.878
 11
-73.295
 20
-204.22
 21
-204.482
  0
LINE
  8
0
 10
-73.295
 11
-73.76
 20
-204.482
 21
-204.645
  0
LINE
  8
0
 10
-73.76
 11
-74.25
 20
-204.645
 21
-204.7
  0
LINE
  8
0
 10
-74.25
 11
-74.74
 20
-204.7
 21
-204.645
  0
LINE
  8
0
 10
-74.74
 11
-75.205
 20
-204.645
 21
-204.482
  0
LINE
  8
0
 10
-75.205
 11
-75.622
 20
-204.482
 21
-204.22
  0
LINE
  8
0
 10
-75.622
 11
-75.97
 20
-204.22
 21
-203.872
  0
LINE
  8
0
 10
-75.97
 11
-76.232
 20
-203.872
 21
-203.455
  0
LINE
  8
0
 10
-76.232
 11
-76.395
 20
-203.455
 21
-202.99
  0
LINE
  8
0
 10
-76.395
 11
-76.45
 20
-202.99
 21
-202.5
  0
LINE
  8
0
 10
-76.45
 11
-76.395
 20
202.5
 21
202.99
  0
LINE
  8
0
 10
-76.395
 11
-76.232
 20
202.99
 21
203.455
  0
LINE
  8
0
 10
-76.232
 11
-75.97
 20
203.455
 21
203.872
  0
LINE
  8
0
 10
-75.97
 11
-75.622
 20
203.872
 21
204.22
  0
LINE
  8
0
 10
-75.622
 11
-75.205
 20
204.22
 21
204.482
  0
LINE
  8
0
 10
-75.205
 11
-74.74
 20
204.482
 21
204.645
  0
LINE
  8
0
 10
-74.74
 11
-74.25
 20
204.645
 21
204.7
  0
LINE
  8
0
 10
-74.25
 11
-73.76
 20
204.7
 21
204.645
  0
LINE
  8
0
 10
-73.76
 11
-73.295
 20
204.645
 21
204.482
  0
LINE
  8
0
 10
-73.295
 11
-72.878
 20
204.482
 21
204.22
  0
LINE
  8
0
 10
-72.878
 11
-72.53
 20
204.22
 21
203.872
  0
LINE
  8
0
 10
-72.53
 11
-72.268
 20
203.872
 21
203.455
  0
LINE
  8
0
 10
-72.268
 11
-72.105
 20
203.455
 21
202.99
  0
LINE
  8
0
 10
-72.105
 11
-72.05
 20
202.99
 21
202.5
  0
LINE
  8
0
 10
-72.05
 11
-72.105
 20
202.5
 21
202.01
  0
LINE
  8
0
 10
-72.105
 11
-72.268
 20
202.01
 21
201.545
  0
LINE
  8
0
 10
-72.268
 11
-72.53
 20
201.545
 21
201.128
  0
LINE
  8
0
 10
-72.53
 11
-72.878
 20
201.128
 21
200.78
  0
LINE
  8
0
 10
-72.878
 11
-73.295
 20
200.78
 21
200.518
  0
LINE
  8
0
 10
-73.295
 11
-73.76
 20
200.518
 21
200.355
  0
LINE
  8
0
 10
-73.76
 11
-74.25
 20
200.355
 21
200.3
  0
LINE
  8
0
 10
-74.25
 11
-74.74
 20
200.3
 21
200.355
  0
LINE
  8
0
 10
-74.74
 11
-75.205
 20
200.355
 21
200.518
  0
LINE
  8
0
 10
-75.205
 11
-75.622
 20
200.518
 21
200.78
  0
LINE
  8
0
 10
-75.622
 11
-75.97
 20
200.78
 21
201.128
  0
LINE
  8
0
 10
-75.97
 11
-76.232
 20
201.128
 21
201.545
  0
LINE
  8
0
 10
-76.232
 11
-76.395
 20
201.545
 21
202.01
  0
LINE
  8
0
 10
-76.395
 11
-76.45
 20
202.01
 21
202.5
  0
LINE
  8
0
 10
-40.46
 11
-40.405
 20
188.5
 21
188.99
  0
LINE
  8
0
 10
-40.405
 11
-40.242
 20
188.99
 21
189.455
  0
LINE
  8
0
 10
-40.242
 11
-39.98
 20
189.455
 21
189.872
  0
LINE
  8
0
 10
-39.98
 11
-39.632
 20
189.872
 21
190.22
  0
LINE
  8
0
 10
-39.632
 11
-39.215
 20
190.22
 21
190.482
  0
LINE
  8
0
 10
-39.215
 11
-38.75
 20
190.482
 21
190.645
  0
LINE
  8
0
 10
-38.75
 11
-38.26
 20
190.645
 21
190.7
  0
LINE
  8
0
 10
-38.26
 11
-37.77
 20
190.7
 21
190.645
  0
LINE
  8
0
 10
-37.77
 11
-37.305
 20
190.645
 21
190.482
  0
LINE
  8
0
 10
-37.305
 11
-36.888
 20
190.482
 21
190.22
  0
LINE
  8
0
 10
-36.888
 11
-36.54
 20
190.22
 21
189.872
  0
LINE
  8
0
 10
-36.54
 11
-36.278
 20
189.872
 21
189.455
  0
LINE
  8
0
 10
-36.278
 11
-36.115
 20
189.455
 21
188.99
  0
LINE
  8
0
 10
-36.115
 11
-36.06
 20
188.99
 21
188.5
  0
LINE
  8
0
 10
-36.06
 11
-36.115
 20
188.5
 21
188.01
  0
LINE
  8
0
 10
-36.115
 11
-36.278
 20
188.01
 21
187.545
  0
LINE
  8
0
 10
-36.278
 11
-36.54
 20
187.545
 21
187.128
  0
LINE
  8
0
 10
-36.54
 11
-36.888
 20
187.128
 21
186.78
  0
LINE
  8
0
 10
-36.888
 11
-37.305
 20
186.78
 21
186.518
  0
LINE
  8
0
 10
-37.305
 11
-37.77
 20
186.518
 21
186.355
  0
LINE
  8
0
 10
-37.77
 11
-38.26
 20
186.355
 21
186.3
  0
LINE
  8
0
 10
-38.26
 11
-38.75
 20
186.3
 21
186.355
  0
LINE
  8
0
 10
-38.75
 11
-39.215
 20
186.355
 21
186.518
  0
LINE
  8
0
 10
-39.215
 11
-39.632
 20
186.518
 21
186.78
  0
LINE
  8
0
 10
-39.632
 11
-39.98
 20
186.78
 21
187.128
  0
LINE
  8
0
 10
-39.98
 11
-40.242
 20
187.128
 21
187.545
  0
LINE
  8
0
 10
-40.242
 11
-40.405
 20
187.545
 21
188.01
  0
LINE
  8
0
 10
-40.405
 11
-40.46
 20
188.01
 21
188.5
  0
LINE
  8
0
 10
-30.16
 11
-30.105
 20
100.3
 21
100.79
  0
LINE
  8
0
 10
-30.105
 11
-29.942
 20
100.79
 21
101.255
  0
LINE
  8
0
 10
-29.942
 11
-29.68
 20
101.255
 21
101.672
  0
LINE
  8
0
 10
-29.68
 11
-29.332
 20
101.672
 21
102.02
  0
LINE
  8
0
 10
-29.332
 11
-28.915
 20
102.02
 21
102.282
  0
LINE
  8
0
 10
-28.915
 11
-28.45
 20
102.282
 21
102.445
  0
LINE
  8
0
 10
-28.45
 11
-27.96
 20
102.445
 21
102.5
  0
LINE
  8
0
 10
-27.96
 11
-27.47
 20
102.5
 21
102.445
  0
LINE
  8
0
 10
-27.47
 11
-27.005
 20
102.445
 21
102.282
  0
LINE
  8
0
 10
-27.005
 11
-26.588
 20
102.282
 21
102.02
  0
LINE
  8
0
 10
-26.588
 11
-26.24
 20
102.02
 21
101.672
  0
LINE
  8
0
 10
-26.24
 11
-25.978
 20
101.672
 21
101.255
  0
LINE
  8
0
 10
-25.978
 11
-25.815
 20
101.255
 21
100.79
  0
LINE
  8
0
 10
-25.815
 11
-25.76
 20
100.79
 21
100.3
  0
LINE
  8
0
 10
-25.76
 11
-25.815
 20
100.3
 21
99.81
  0
LINE
  8
0
 10
-25.815
 11
-25.978
 20
99.81
 21
99.345
  0
LINE
  8
0
 10
-25.978
 11
-26.24
 20
99.345
 21
98.928
  0
LINE
  8
0
 10
-26.24
 11
-26.588
 20
98.928
 21
98.58
  0
LINE
  8
0
 10
-26.588
 11
-27.005
 20
98.58
 21
98.318
  0
LINE
  8
0
 10
-27.005
 11
-27.47
 20
98.318
 21
98.155
  0
LINE
  8
0
 10
-27.47
 11
-27.96
 20
98.155
 21
98.1
  0
LINE
  8
0
 10
-27.96
 11
-28.45
 20
98.1
 21
98.155
  0
LINE
  8
0
 10
-28.45
 11
-28.915
 20
98.155
 21
98.318
  0
LINE
  8
0
 10
-28.915
 11
-29.332
 20
98.318
 21
98.58
  0
LINE
  8
0
 10
-29.332
 11
-29.68
 20
98.58
 21
98.928
  0
LINE
  8
0
 10
-29.68
 11
-29.942
 20
98.928
 21
99.345
  0
LINE
  8
0
 10
-29.942
 11
-30.105
 20
99.345
 21
99.81
  0
LINE
  8
0
 10
-30.105
 11
-30.16
 20
99.81
 21
100.3
  0
LINE
  8
0
 10
-21.96
 11
-21.905
 20
-203.5
 21
-203.01
  0
LINE
  8
0
 10
-21.905
 11
-21.742
 20
-203.01
 21
-202.545
  0
LINE
  8
0
 10
-21.742
 11
-21.48
 20
-202.545
 21
-202.128
  0
LINE
  8
0
 10
-21.48
 11
-21.132
 20
-202.128
 21
-201.78
  0
LINE
  8
0
 10
-21.132
 11
-20.715
 20
-201.78
 21
-201.518
  0
LINE
  8
0
 10
-20.715
 11
-20.25
 20
-201.518
 21
-201.355
  0
LINE
  8
0
 10
-20.25
 11
-19.76
 20
-201.355
 21
-201.3
  0
LINE
  8
0
 10
-19.76
 11
-19.27
 20
-201.3
 21
-201.355
  0
LINE
  8
0
 10
-19.27
 11
-18.805
 20
-201.355
 21
-201.518
  0
LINE
  8
0
 10
-18.805
 11
-18.388
 20
-201.518
 21
-201.78
  0
LINE
  8
0
 10
-18.388
 11
-18.04
 20
-201.78
 21
-202.128
  0
LINE
  8
0
 10
-18.04
 11
-17.778
 20
-202.128
 21
-202.545
  0
LINE
  8
0
 10
-17.778
 11
-17.615
 20
-202.545
 21
-203.01
  0
LINE
  8
0
 10
-17.615
 11
-17.56
 20
-203.01
 21
-203.5
  0
LINE
  8
0
 10
-17.56
 11
-17.615
 20
-203.5
 21
-203.99
  0
LINE
  8
0
 10
-17.615
 11
-17.778
 20
-203.99
 21
-204.455
  0
LINE
  8
0
 10
-17.778
 11
-18.04
 20
-204.455
 21
-204.872
  0
LINE
  8
0
 10
-18.04
 11
-18.388
 20
-204.872
 21
-205.22
  0
LINE
  8
0
 10
-18.388
 11
-18.805
 20
-205.22
 21
-205.482
  0
LINE
  8
0
 10
-18.805
 11
-19.27
 20
-205.482
 21
-205.645
  0
LINE
  8
0
 10
-19.27
 11
-19.76
 20
-205.645
 21
-205.7
  0
LINE
  8
0
 10
-19.76
 11
-20.25
 20
-205.7
 21
-205.645
  0
LINE
  8
0
 10
-20.25
 11
-20.715
 20
-205.645
 21
-205.482
  0
LINE
  8
0
 10
-20.715
 11
-21.132
 20
-205.482
 21
-205.22
  0
LINE
  8
0
 10
-21.132
 11
-21.48
 20
-205.22
 21
-204.872
  0
LINE
  8
0
 10
-21.48
 11
-21.742
 20
-204.872
 21
-204.455
  0
LINE
  8
0
 10
-21.742
 11
-21.905
 20
-204.455
 21
-203.99
  0
LINE
  8
0
 10
-21.905
 11
-21.96
 20
-203.99
 21
-203.5
  0
LINE
  8
0
 10
-21.96
 11
-21.905
 20
-140.5
 21
-140.01
  0
LINE
  8
0
 10
-21.905
 11
-21.742
 20
-140.01
 21
-139.545
  0
LINE
  8
0
 10
-21.742
 11
-21.48
 20
-139.545
 21
-139.128
  0
LINE
  8
0
 10
-21.48
 11
-21.132
 20
-139.128
 21
-138.78
  0
LINE
  8
0
 10
-21.132
 11
-20.715
 20
-138.78
 21
-138.518
  0
LINE
  8
0
 10
-20.715
 11
-20.25
 20
-138.518
 21
-138.355
  0
LINE
  8
0
 10
-20.25
 11
-19.76
 20
-138.355
 21
-138.3
  0
LINE
  8
0
 10
-19.76
 11
-19.27
 20
-138.3
 21
-138.355
  0
LINE
  8
0
 10
-19.27
 11
-18.805
 20
-138.355
 21
-138.518
  0
LINE
  8
0
 10
-18.805
 11
-18.388
 20
-138.518
 21
-138.78
  0
LINE
  8
0
 10
-18.388
 11
-18.04
 20
-138.78
 21
-139.128
  0
LINE
  8
0
 10
-18.04
 11
-17.778
 20
-139.128
 21
-139.545
  0
LINE
  8
0
 10
-17.778
 11
-17.615
 20
-139.545
 21
-140.01
  0
LINE
  8
0
 10
-17.615
 11
-17.56
 20
-140.01
 21
-140.5
  0
LINE
  8
0
 10
-17.56
 11
-17.615
 20
-140.5
 21
-140.99
  0
LINE
  8
0
 10
-17.615
 11
-17.778
 20
-140.99
 21
-141.455
  0
LINE
  8
0
 10
-17.778
 11
-18.04
 20
-141.455
 21
-141.872
  0
LINE
  8
0
 10
-18.04
 11
-18.388
 20
-141.872
 21
-142.22
  0
LINE
  8
0
 10
-18.388
 11
-18.805
 20
-142.22
 21
-142.482
  0
LINE
  8
0
 10
-18.805
 11
-19.27
 20
-142.482
 21
-142.645
  0
LINE
  8
0
 10
-19.27
 11
-19.76
 20
-142.645
 21
-142.7
  0
LINE
  8
0
 10
-19.76
 11
-20.25
 20
-142.7
 21
-142.645
  0
LINE
  8
0
 10
-20.25
 11
-20.715
 20
-142.645
 21
-142.482
  0
LINE
  8
0
 10
-20.715
 11
-21.132
 20
-142.482
 21
-142.22
  0
LINE
  8
0
 10
-21.132
 11
-21.48
 20
-142.22
 21
-141.872
  0
LINE
  8
0
 10
-21.48
 11
-21.742
 20
-141.872
 21
-141.455
  0
LINE
  8
0
 10
-21.742
 11
-21.905
 20
-141.455
 21
-140.99
  0
LINE
  8
0
 10
-21.905
 11
-21.96
 20
-140.99
 21
-140.5
  0
LINE
  8
0
 10
8.04
 11
8.095
 20
-203.5
 21
-203.01
  0
LINE
  8
0
 10
8.095
 11
8.258
 20
-203.01
 21
-202.545
  0
LINE
  8
0
 10
8.258
 11
8.52
 20
-202.545
 21
-202.128
  0
LINE
  8
0
 10
8.52
 11
8.868
 20
-202.128
 21
-201.78
  0
LINE
  8
0
 10
8.868
 11
9.285
 20
-201.78
 21
-201.518
  0
LINE
  8
0
 10
9.285
 11
9.75
 20
-201.518
 21
-201.355
  0
LINE
  8
0
 10
9.75
 11
10.24
 20
-201.355
 21
-201.3
  0
LINE
  8
0
 10
10.24
 11
10.73
 20
-201.3
 21
-201.355
  0
LINE
  8
0
 10
10.73
 11
11.195
 20
-201.355
 21
-201.518
  0
LINE
  8
0
 10
11.195
 11
11.612
 20
-201.518
 21
-201.78
  0
LINE
  8
0
 10
11.612
 11
11.96
 20
-201.78
 21
-202.128
  0
LINE
  8
0
 10
11.96
 11
12.222
 20
-202.128
 21
-202.545
  0
LINE
  8
0
 10
12.222
 11
12.385
 20
-202.545
 21
-203.01
  0
LINE
  8
0
 10
12.385
 11
12.44
 20
-203.01
 21
-203.5
  0
LINE
  8
0
 10
12.44
 11
12.385
 20
-203.5
 21
-203.99
  0
LINE
  8
0
 10
12.385
 11
12.222
 20
-203.99
 21
-204.455
  0
LINE
  8
0
 10
12.222
 11
11.96
 20
-204.455
 21
-204.872
  0
LINE
  8
0
 10
11.96
 11
11.612
 20
-204.872
 21
-205.22
  0
LINE
  8
0
 10
11.612
 11
11.195
 20
-205.22
 21
-205.482
  0
LINE
  8
0
 10
11.195
 11
10.73
 20
-205.482
 21
-205.645
  0
LINE
  8
0
 10
10.73
 11
10.24
 20
-205.645
 21
-205.7
  0
LINE
  8
0
 10
10.24
 11
9.75
 20
-205.7
 21
-205.645
  0
LINE
  8
0
 10
9.75
 11
9.285
 20
-205.645
 21
-205.482
  0
LINE
  8
0
 10
9.285
 11
8.868
 20
-205.482
 21
-205.22
  0
LINE
  8
0
 10
8.868
 11
8.52
 20
-205.22
 21
-204.872
  0
LINE
  8
0
 10
8.52
 11
8.258
 20
-204.872
 21
-204.455
  0
LINE
  8
0
 10
8.258
 11
8.095
 20
-204.455
 21
-203.99
  0
LINE
  8
0
 10
8.095
 11
8.04
 20
-203.99
 21
-203.5
  0
LINE
  8
0
 10
8.04
 11
8.095
 20
-140.5
 21
-140.01
  0
LINE
  8
0
 10
8.095
 11
8.258
 20
-140.01
 21
-139.545
  0
LINE
  8
0
 10
8.258
 11
8.52
 20
-139.545
 21
-139.128
  0
LINE
  8
0
 10
8.52
 11
8.868
 20
-139.128
 21
-138.78
  0
LINE
  8
0
 10
8.868
 11
9.285
 20
-138.78
 21
-138.518
  0
LINE
  8
0
 10
9.285
 11
9.75
 20
-138.518
 21
-138.355
  0
LINE
  8
0
 10
9.75
 11
10.24
 20
-138.355
 21
-138.3
  0
LINE
  8
0
 10
10.24
 11
10.73
 20
-138.3
 21
-138.355
  0
LINE
  8
0
 10
10.73
 11
11.195
 20
-138.355
 21
-138.518
  0
LINE
  8
0
 10
11.195
 11
11.612
 20
-138.518
 21
-138.78
  0
LINE
  8
0
 10
11.612
 11
11.96
 20
-138.78
 21
-139.128
  0
LINE
  8
0
 10
11.96
 11
12.222
 20
-139.128
 21
-139.545
  0
LINE
  8
0
 10
12.222
 11
12.385
 20
-139.545
 21
-140.01
  0
LINE
  8
0
 10
12.385
 11
12.44
 20
-140.01
 21
-140.5
  0
LINE
  8
0
 10
12.44
 11
12.385
 20
-140.5
 21
-140.99
  0
LINE
  8
0
 10
12.385
 11
12.222
 20
-140.99
 21
-141.455
  0
LINE
  8
0
 10
12.222
 11
11.96
 20
-141.455
 21
-141.872
  0
LINE
  8
0
 10
11.96
 11
11.612
 20
-141.872
 21
-142.22
  0
LINE
  8
0
 10
11.612
 11
11.195
 20
-142.22
 21
-142.482
  0
LINE
  8
0
 10
11.195
 11
10.73
 20
-142.482
 21
-142.645
  0
LINE
  8
0
 10
10.73
 11
10.24
 20
-142.645
 21
-142.7
  0
LINE
  8
0
 10
10.24
 11
9.75
 20
-142.7
 21
-142.645
  0
LINE
  8
0
 10
9.75
 11
9.285
 20
-142.645
 21
-142.482
  0
LINE
  8
0
 10
9.285
 11
8.868
 20
-142.482
 21
-142.22
  0
LINE
  8
0
 10
8.868
 11
8.52
 20
-142.22
 21
-141.872
  0
LINE
  8
0
 10
8.52
 11
8.258
 20
-141.872
 21
-141.455
  0
LINE
  8
0
 10
8.258
 11
8.095
 20
-141.455
 21
-140.99
  0
LINE
  8
0
 10
8.095
 11
8.04
 20
-140.99
 21
-140.5
  0
LINE
  8
0
 10
12.26
 11
12.315
 20
100.3
 21
100.79
  0
LINE
  8
0
 10
12.315
 11
12.478
 20
100.79
 21
101.255
  0
LINE
  8
0
 10
12.478
 11
12.74
 20
101.255
 21
101.672
  0
LINE
  8
0
 10
12.74
 11
13.088
 20
101.672
 21
102.02
  0
LINE
  8
0
 10
13.088
 11
13.505
 20
102.02
 21
102.282
  0
LINE
  8
0
 10
13.505
 11
13.97
 20
102.282
 21
102.445
  0
LINE
  8
0
 10
13.97
 11
14.46
 20
102.445
 21
102.5
  0
LINE
  8
0
 10
14.46
 11
14.95
 20
102.5
 21
102.445
  0
LINE
  8
0
 10
14.95
 11
15.415
 20
102.445
 21
102.282
  0
LINE
  8
0
 10
15.415
 11
15.832
 20
102.282
 21
102.02
  0
LINE
  8
0
 10
15.832
 11
16.18
 20
102.02
 21
101.672
  0
LINE
  8
0
 10
16.18
 11
16.442
 20
101.672
 21
101.255
  0
LINE
  8
0
 10
16.442
 11
16.605
 20
101.255
 21
100.79
  0
LINE
  8
0
 10
16.605
 11
16.66
 20
100.79
 21
100.3
  0
LINE
  8
0
 10
16.66
 11
16.605
 20
100.3
 21
99.81
  0
LINE
  8
0
 10
16.605
 11
16.442
 20
99.81
 21
99.345
  0
LINE
  8
0
 10
16.442
 11
16.18
 20
99.345
 21
98.928
  0
LINE
  8
0
 10
16.18
 11
15.832
 20
98.928
 21
98.58
  0
LINE
  8
0
 10
15.832
 11
15.415
 20
98.58
 21
98.318
  0
LINE
  8
0
 10
15.415
 11
14.95
 20
98.318
 21
98.155
  0
LINE
  8
0
 10
14.95
 11
14.46
 20
98.155
 21
98.1
  0
LINE
  8
0
 10
14.46
 11
13.97
 20
98.1
 21
98.155
  0
LINE
  8
0
 10
13.97
 11
13.505
 20
98.155
 21
98.318
  0
LINE
  8
0
 10
13.505
 11
13.088
 20
98.318
 21
98.58
  0
LINE
  8
0
 10
13.088
 11
12.74
 20
98.58
 21
98.928
  0
LINE
  8
0
 10
12.74
 11
12.478
 20
98.928
 21
99.345
  0
LINE
  8
0
 10
12.478
 11
12.315
 20
99.345
 21
99.81
  0
LINE
  8
0
 10
12.315
 11
12.26
 20
99.81
 21
100.3
  0
LINE
  8
0
 10
16.005
 11
16.046
 20
131.376
 21
131.868
  0
LINE
  8
0
 10
16.046
 11
16.244
 20
131.868
 21
132.32
  0
LINE
  8
0
 10
16.244
 11
16.579
 20
132.32
 21
132.684
  0
LINE
  8
0
 10
16.579
 11
17.013
 20
132.684
 21
132.919
  0
LINE
  8
0
 10
17.013
 11
17.5
 20
132.919
 21
133
  0
LINE
  8
0
 10
17.5
 11
17.987
 20
133
 21
132.919
  0
LINE
  8
0
 10
17.987
 11
18.421
 20
132.919
 21
132.684
  0
LINE
  8
0
 10
18.421
 11
18.756
 20
132.684
 21
132.32
  0
LINE
  8
0
 10
18.756
 11
18.954
 20
132.32
 21
131.868
  0
LINE
  8
0
 10
18.954
 11
18.995
 20
131.868
 21
131.376
  0
LINE
  8
0
 10
18.995
 11
18.874
 20
131.376
 21
130.897
  0
LINE
  8
0
 10
18.874
 11
18.604
 20
130.897
 21
130.484
  0
LINE
  8
0
 10
18.604
 11
18.214
 20
130.484
 21
130.181
  0
LINE
  8
0
 10
18.214
 11
17.747
 20
130.181
 21
130.02
  0
LINE
  8
0
 10
17.747
 11
17.253
 20
130.02
 21
130.02
  0
LINE
  8
0
 10
17.253
 11
16.786
 20
130.02
 21
130.181
  0
LINE
  8
0
 10
16.786
 11
16.396
 20
130.181
 21
130.484
  0
LINE
  8
0
 10
16.396
 11
16.126
 20
130.484
 21
130.897
  0
LINE
  8
0
 10
16.126
 11
16.005
 20
130.897
 21
131.376
  0
LINE
  8
0
 10
16.005
 11
16.046
 20
137.176
 21
137.668
  0
LINE
  8
0
 10
16.046
 11
16.244
 20
137.668
 21
138.12
  0
LINE
  8
0
 10
16.244
 11
16.579
 20
138.12
 21
138.484
  0
LINE
  8
0
 10
16.579
 11
17.013
 20
138.484
 21
138.719
  0
LINE
  8
0
 10
17.013
 11
17.5
 20
138.719
 21
138.8
  0
LINE
  8
0
 10
17.5
 11
17.987
 20
138.8
 21
138.719
  0
LINE
  8
0
 10
17.987
 11
18.421
 20
138.719
 21
138.484
  0
LINE
  8
0
 10
18.421
 11
18.756
 20
138.484
 21
138.12
  0
LINE
  8
0
 10
18.756
 11
18.954
 20
138.12
 21
137.668
  0
LINE
  8
0
 10
18.954
 11
18.995
 20
137.668
 21
137.176
  0
LINE
  8
0
 10
18.995
 11
18.874
 20
137.176
 21
136.697
  0
LINE
  8
0
 10
18.874
 11
18.604
 20
136.697
 21
136.284
  0
LINE
  8
0
 10
18.604
 11
18.214
 20
136.284
 21
135.981
  0
LINE
  8
0
 10
18.214
 11
17.747
 20
135.981
 21
135.82
  0
LINE
  8
0
 10
17.747
 11
17.253
 20
135.82
 21
135.82
  0
LINE
  8
0
 10
17.253
 11
16.786
 20
135.82
 21
135.981
  0
LINE
  8
0
 10
16.786
 11
16.396
 20
135.981
 21
136.284
  0
LINE
  8
0
 10
16.396
 11
16.126
 20
136.284
 21
136.697
  0
LINE
  8
0
 10
16.126
 11
16.005
 20
136.697
 21
137.176
  0
LINE
  8
0
 10
17.24
 11
17.288
 20
-172
 21
-171.512
  0
LINE
  8
0
 10
17.288
 11
17.43
 20
-171.512
 21
-171.043
  0
LINE
  8
0
 10
17.43
 11
17.661
 20
-171.043
 21
-170.611
  0
LINE
  8
0
 10
17.661
 11
17.972
 20
-170.611
 21
-170.232
  0
LINE
  8
0
 10
17.972
 11
18.351
 20
-170.232
 21
-169.921
  0
LINE
  8
0
 10
18.351
 11
18.783
 20
-169.921
 21
-169.69
  0
LINE
  8
0
 10
18.783
 11
19.252
 20
-169.69
 21
-169.548
  0
LINE
  8
0
 10
19.252
 11
19.74
 20
-169.548
 21
-169.5
  0
LINE
  8
0
 10
19.74
 11
20.228
 20
-169.5
 21
-169.548
  0
LINE
  8
0
 10
20.228
 11
20.697
 20
-169.548
 21
-169.69
  0
LINE
  8
0
 10
20.697
 11
21.129
 20
-169.69
 21
-169.921
  0
LINE
  8
0
 10
21.129
 11
21.508
 20
-169.921
 21
-170.232
  0
LINE
  8
0
 10
21.508
 11
21.819
 20
-170.232
 21
-170.611
  0
LINE
  8
0
 10
21.819
 11
22.05
 20
-170.611
 21
-171.043
  0
LINE
  8
0
 10
22.05
 11
22.192
 20
-171.043
 21
-171.512
  0
LINE
  8
0
 10
22.192
 11
22.24
 20
-171.512
 21
-172
  0
LINE
  8
0
 10
22.24
 11
22.192
 20
-172
 21
-172.488
  0
LINE
  8
0
 10
22.192
 11
22.05
 20
-172.488
 21
-172.957
  0
LINE
  8
0
 10
22.05
 11
21.819
 20
-172.957
 21
-173.389
  0
LINE
  8
0
 10
21.819
 11
21.508
 20
-173.389
 21
-173.768
  0
LINE
  8
0
 10
21.508
 11
21.129
 20
-173.768
 21
-174.079
  0
LINE
  8
0
 10
21.129
 11
20.697
 20
-174.079
 21
-174.31
  0
LINE
  8
0
 10
20.697
 11
20.228
 20
-174.31
 21
-174.452
  0
LINE
  8
0
 10
20.228
 11
19.74
 20
-174.452
 21
-174.5
  0
LINE
  8
0
 10
19.74
 11
19.252
 20
-174.5
 21
-174.452
  0
LINE
  8
0
 10
19.252
 11
18.783
 20
-174.452
 21
-174.31
  0
LINE
  8
0
 10
18.783
 11
18.351
 20
-174.31
 21
-174.079
  0
LINE
  8
0
 10
18.351
 11
17.972
 20
-174.079
 21
-173.768
  0
LINE
  8
0
 10
17.972
 11
17.661
 20
-173.768
 21
-173.389
  0
LINE
  8
0
 10
17.661
 11
17.43
 20
-173.389
 21
-172.957
  0
LINE
  8
0
 10
17.43
 11
17.288
 20
-172.957
 21
-172.488
  0
LINE
  8
0
 10
17.288
 11
17.24
 20
-172.488
 21
-172
  0
LINE
  8
0
 10
21.005
 11
21.126
 20
142.824
 21
143.303
  0
LINE
  8
0
 10
21.126
 11
21.396
 20
143.303
 21
143.716
  0
LINE
  8
0
 10
21.396
 11
21.786
 20
143.716
 21
144.019
  0
LINE
  8
0
 10
21.786
 11
22.253
 20
144.019
 21
144.18
  0
LINE
  8
0
 10
22.253
 11
22.747
 20
144.18
 21
144.18
  0
LINE
  8
0
 10
22.747
 11
23.214
 20
144.18
 21
144.019
  0
LINE
  8
0
 10
23.214
 11
23.604
 20
144.019
 21
143.716
  0
LINE
  8
0
 10
23.604
 11
23.874
 20
143.716
 21
143.303
  0
LINE
  8
0
 10
23.874
 11
23.995
 20
143.303
 21
142.824
  0
LINE
  8
0
 10
23.995
 11
23.954
 20
142.824
 21
142.332
  0
LINE
  8
0
 10
23.954
 11
23.756
 20
142.332
 21
141.88
  0
LINE
  8
0
 10
23.756
 11
23.421
 20
141.88
 21
141.516
  0
LINE
  8
0
 10
23.421
 11
22.987
 20
141.516
 21
141.281
  0
LINE
  8
0
 10
22.987
 11
22.5
 20
141.281
 21
141.2
  0
LINE
  8
0
 10
22.5
 11
22.013
 20
141.2
 21
141.281
  0
LINE
  8
0
 10
22.013
 11
21.579
 20
141.281
 21
141.516
  0
LINE
  8
0
 10
21.579
 11
21.244
 20
141.516
 21
141.88
  0
LINE
  8
0
 10
21.244
 11
21.046
 20
141.88
 21
142.332
  0
LINE
  8
0
 10
21.046
 11
21.005
 20
142.332
 21
142.824
  0
LINE
  8
0
 10
21.005
 11
21.126
 20
151.424
 21
151.903
  0
LINE
  8
0
 10
21.126
 11
21.396
 20
151.903
 21
152.316
  0
LINE
  8
0
 10
21.396
 11
21.786
 20
152.316
 21
152.619
  0
LINE
  8
0
 10
21.786
 11
22.253
 20
152.619
 21
152.78
  0
LINE
  8
0
 10
22.253
 11
22.747
 20
152.78
 21
152.78
  0
LINE
  8
0
 10
22.747
 11
23.214
 20
152.78
 21
152.619
  0
LINE
  8
0
 10
23.214
 11
23.604
 20
152.619
 21
152.316
  0
LINE
  8
0
 10
23.604
 11
23.874
 20
152.316
 21
151.903
  0
LINE
  8
0
 10
23.874
 11
23.995
 20
151.903
 21
151.424
  0
LINE
  8
0
 10
23.995
 11
23.954
 20
151.424
 21
150.932
  0
LINE
  8
0
 10
23.954
 11
23.756
 20
150.932
 21
150.48
  0
LINE
  8
0
 10
23.756
 11
23.421
 20
150.48
 21
150.116
  0
LINE
  8
0
 10
23.421
 11
22.987
 20
150.116
 21
149.881
  0
LINE
  8
0
 10
22.987
 11
22.5
 20
149.881
 21
149.8
  0
LINE
  8
0
 10
22.5
 11
22.013
 20
149.8
 21
149.881
  0
LINE
  8
0
 10
22.013
 11
21.579
 20
149.881
 21
150.116
  0
LINE
  8
0
 10
21.579
 11
21.244
 20
150.116
 21
150.48
  0
LINE
  8
0
 10
21.244
 11
21.046
 20
150.48
 21
150.932
  0
LINE
  8
0
 10
21.046
 11
21.005
 20
150.932
 21
151.424
  0
LINE
  8
0
 10
58.55
 11
58.605
 20
-134
 21
-133.51
  0
LINE
  8
0
 10
58.605
 11
58.768
 20
-133.51
 21
-133.045
  0
LINE
  8
0
 10
58.768
 11
59.03
 20
-133.045
 21
-132.628
  0
LINE
  8
0
 10
59.03
 11
59.378
 20
-132.628
 21
-132.28
  0
LINE
  8
0
 10
59.378
 11
59.795
 20
-132.28
 21
-132.018
  0
LINE
  8
0
 10
59.795
 11
60.26
 20
-132.018
 21
-131.855
  0
LINE
  8
0
 10
60.26
 11
60.75
 20
-131.855
 21
-131.8
  0
LINE
  8
0
 10
60.75
 11
61.24
 20
-131.8
 21
-131.855
  0
LINE
  8
0
 10
61.24
 11
61.705
 20
-131.855
 21
-132.018
  0
LINE
  8
0
 10
61.705
 11
62.122
 20
-132.018
 21
-132.28
  0
LINE
  8
0
 10
62.122
 11
62.47
 20
-132.28
 21
-132.628
  0
LINE
  8
0
 10
62.47
 11
62.732
 20
-132.628
 21
-133.045
  0
LINE
  8
0
 10
62.732
 11
62.895
 20
-133.045
 21
-133.51
  0
LINE
  8
0
 10
62.895
 11
62.95
 20
-133.51
 21
-134
  0
LINE
  8
0
 10
62.95
 11
62.895
 20
-134
 21
-134.49
  0
LINE
  8
0
 10
62.895
 11
62.732
 20
-134.49
 21
-134.955
  0
LINE
  8
0
 10
62.732
 11
62.47
 20
-134.955
 21
-135.372
  0
LINE
  8
0
 10
62.47
 11
62.122
 20
-135.372
 21
-135.72
  0
LINE
  8
0
 10
62.122
 11
61.705
 20
-135.72
 21
-135.982
  0
LINE
  8
0
 10
61.705
 11
61.24
 20
-135.982
 21
-136.145
  0
LINE
  8
0
 10
61.24
 11
60.75
 20
-136.145
 21
-136.2
  0
LINE
  8
0
 10
60.75
 11
60.26
 20
-136.2
 21
-136.145
  0
LINE
  8
0
 10
60.26
 11
59.795
 20
-136.145
 21
-135.982
  0
LINE
  8
0
 10
59.795
 11
59.378
 20
-135.982
 21
-135.72
  0
LINE
  8
0
 10
59.378
 11
59.03
 20
-135.72
 21
-135.372
  0
LINE
  8
0
 10
59.03
 11
58.768
 20
-135.372
 21
-134.955
  0
LINE
  8
0
 10
58.768
 11
58.605
 20
-134.955
 21
-134.49
  0
LINE
  8
0
 10
58.605
 11
58.55
 20
-134.49
 21
-134
  0
LINE
  8
0
 10
58.55
 11
58.605
 20
124
 21
124.49
  0
LINE
  8
0
 10
58.605
 11
58.768
 20
124.49
 21
124.955
  0
LINE
  8
0
 10
58.768
 11
59.03
 20
124.955
 21
125.372
  0
LINE
  8
0
 10
59.03
 11
59.378
 20
125.372
 21
125.72
  0
LINE
  8
0
 10
59.378
 11
59.795
 20
125.72
 21
125.982
  0
LINE
  8
0
 10
59.795
 11
60.26
 20
125.982
 21
126.145
  0
LINE
  8
0
 10
60.26
 11
60.75
 20
126.145
 21
126.2
  0
LINE
  8
0
 10
60.75
 11
61.24
 20
126.2
 21
126.145
  0
LINE
  8
0
 10
61.24
 11
61.705
 20
126.145
 21
125.982
  0
LINE
  8
0
 10
61.705
 11
62.122
 20
125.982
 21
125.72
  0
LINE
  8
0
 10
62.122
 11
62.47
 20
125.72
 21
125.372
  0
LINE
  8
0
 10
62.47
 11
62.732
 20
125.372
 21
124.955
  0
LINE
  8
0
 10
62.732
 11
62.895
 20
124.955
 21
124.49
  0
LINE
  8
0
 10
62.895
 11
62.95
 20
124.49
 21
124
  0
LINE
  8
0
 10
62.95
 11
62.895
 20
124
 21
123.51
  0
LINE
  8
0
 10
62.895
 11
62.732
 20
123.51
 21
123.045
  0
LINE
  8
0
 10
62.732
 11
62.47
 20
123.045
 21
122.628
  0
LINE
  8
0
 10
62.47
 11
62.122
 20
122.628
 21
122.28
  0
LINE
  8
0
 10
62.122
 11
61.705
 20
122.28
 21
122.018
  0
LINE
  8
0
 10
61.705
 11
61.24
 20
122.018
 21
121.855
  0
LINE
  8
0
 10
61.24
 11
60.75
 20
121.855
 21
121.8
  0
LINE
  8
0
 10
60.75
 11
60.26
 20
121.8
 21
121.855
  0
LINE
  8
0
 10
60.26
 11
59.795
 20
121.855
 21
122.018
  0
LINE
  8
0
 10
59.795
 11
59.378
 20
122.018
 21
122.28
  0
LINE
  8
0
 10
59.378
 11
59.03
 20
122.28
 21
122.628
  0
LINE
  8
0
 10
59.03
 11
58.768
 20
122.628
 21
123.045
  0
LINE
  8
0
 10
58.768
 11
58.605
 20
123.045
 21
123.51
  0
LINE
  8
0
 10
58.605
 11
58.55
 20
123.51
 21
124
  0
LINE
  8
0
 10
91.55
 11
91.605
 20
-134
 21
-133.51
  0
LINE
  8
0
 10
91.605
 11
91.768
 20
-133.51
 21
-133.045
  0
LINE
  8
0
 10
91.768
 11
92.03
 20
-133.045
 21
-132.628
  0
LINE
  8
0
 10
92.03
 11
92.378
 20
-132.628
 21
-132.28
  0
LINE
  8
0
 10
92.378
 11
92.795
 20
-132.28
 21
-132.018
  0
LINE
  8
0
 10
92.795
 11
93.26
 20
-132.018
 21
-131.855
  0
LINE
  8
0
 10
93.26
 11
93.75
 20
-131.855
 21
-131.8
  0
LINE
  8
0
 10
93.75
 11
94.24
 20
-131.8
 21
-131.855
  0
LINE
  8
0
 10
94.24
 11
94.705
 20
-131.855
 21
-132.018
  0
LINE
  8
0
 10
94.705
 11
95.122
 20
-132.018
 21
-132.28
  0
LINE
  8
0
 10
95.122
 11
95.47
 20
-132.28
 21
-132.628
  0
LINE
  8
0
 10
95.47
 11
95.732
 20
-132.628
 21
-133.045
  0
LINE
  8
0
 10
95.732
 11
95.895
 20
-133.045
 21
-133.51
  0
LINE
  8
0
 10
95.895
 11
95.95
 20
-133.51
 21
-134
  0
LINE
  8
0
 10
95.95
 11
95.895
 20
-134
 21
-134.49
  0
LINE
  8
0
 10
95.895
 11
95.732
 20
-134.49
 21
-134.955
  0
LINE
  8
0
 10
95.732
 11
95.47
 20
-134.955
 21
-135.372
  0
LINE
  8
0
 10
95.47
 11
95.122
 20
-135.372
 21
-135.72
  0
LINE
  8
0
 10
95.122
 11
94.705
 20
-135.72
 21
-135.982
  0
LINE
  8
0
 10
94.705
 11
94.24
 20
-135.982
 21
-136.145
  0
LINE
  8
0
 10
94.24
 11
93.75
 20
-136.145
 21
-136.2
  0
LINE
  8
0
 10
93.75
 11
93.26
 20
-136.2
 21
-136.145
  0
LINE
  8
0
 10
93.26
 11
92.795
 20
-136.145
 21
-135.982
  0
LINE
  8
0
 10
92.795
 11
92.378
 20
-135.982
 21
-135.72
  0
LINE
  8
0
 10
92.378
 11
92.03
 20
-135.72
 21
-135.372
  0
LINE
  8
0
 10
92.03
 11
91.768
 20
-135.372
 21
-134.955
  0
LINE
  8
0
 10
91.768
 11
91.605
 20
-134.955
 21
-134.49
  0
LINE
  8
0
 10
91.605
 11
91.55
 20
-134.49
 21
-134
  0
LINE
  8
0
 10
91.55
 11
91.605
 20
124
 21
124.49
  0
LINE
  8
0
 10
91.605
 11
91.768
 20
124.49
 21
124.955
  0
LINE
  8
0
 10
91.768
 11
92.03
 20
124.955
 21
125.372
  0
LINE
  8
0
 10
92.03
 11
92.378
 20
125.372
 21
125.72
  0
LINE
  8
0
 10
92.378
 11
92.795
 20
125.72
 21
125.982
  0
LINE
  8
0
 10
92.795
 11
93.26
 20
125.982
 21
126.145
  0
LINE
  8
0
 10
93.26
 11
93.75
 20
126.145
 21
126.2
  0
LINE
  8
0
 10
93.75
 11
94.24
 20
126.2
 21
126.145
  0
LINE
  8
0
 10
94.24
 11
94.705
 20
126.145
 21
125.982
  0
LINE
  8
0
 10
94.705
 11
95.122
 20
125.982
 21
125.72
  0
LINE
  8
0
 10
95.122
 11
95.47
 20
125.72
 21
125.372
  0
LINE
  8
0
 10
95.47
 11
95.732
 20
125.372
 21
124.955
  0
LINE
  8
0
 10
95.732
 11
95.895
 20
124.955
 21
124.49
  0
LINE
  8
0
 10
95.895
 11
95.95
 20
124.49
 21
124
  0
LINE
  8
0
 10
95.95
 11
95.895
 20
124
 21
123.51
  0
LINE
  8
0
 10
95.895
 11
95.732
 20
123.51
 21
123.045
  0
LINE
  8
0
 10
95.732
 11
95.47
 20
123.045
 21
122.628
  0
LINE
  8
0
 10
95.47
 11
95.122
 20
122.628
 21
122.28
  0
LINE
  8
0
 10
95.122
 11
94.705
 20
122.28
 21
122.018
  0
LINE
  8
0
 10
94.705
 11
94.24
 20
122.018
 21
121.855
  0
LINE
  8
0
 10
94.24
 11
93.75
 20
121.855
 21
121.8
  0
LINE
  8
0
 10
93.75
 11
93.26
 20
121.8
 21
121.855
  0
LINE
  8
0
 10
93.26
 11
92.795
 20
121.855
 21
122.018
  0
LINE
  8
0
 10
92.795
 11
92.378
 20
122.018
 21
122.28
  0
LINE
  8
0
 10
92.378
 11
92.03
 20
122.28
 21
122.628
  0
LINE
  8
0
 10
92.03
 11
91.768
 20
122.628
 21
123.045
  0
LINE
  8
0
 10
91.768
 11
91.605
 20
123.045
 21
123.51
  0
LINE
  8
0
 10
91.605
 11
91.55
 20
123.51
 21
124
  0
LINE
  8
0
 10
91.75
 11
91.808
 20
-120.5
 21
-120.021
  0
LINE
  8
0
 10
91.808
 11
91.979
 20
-120.021
 21
-119.571
  0
LINE
  8
0
 10
91.979
 11
92.253
 20
-119.571
 21
-119.174
  0
LINE
  8
0
 10
92.253
 11
92.614
 20
-119.174
 21
-118.854
  0
LINE
  8
0
 10
92.614
 11
93.041
 20
-118.854
 21
-118.63
  0
LINE
  8
0
 10
93.041
 11
93.509
 20
-118.63
 21
-118.515
  0
LINE
  8
0
 10
93.509
 11
93.991
 20
-118.515
 21
-118.515
  0
LINE
  8
0
 10
93.991
 11
94.459
 20
-118.515
 21
-118.63
  0
LINE
  8
0
 10
94.459
 11
94.886
 20
-118.63
 21
-118.854
  0
LINE
  8
0
 10
94.886
 11
95.247
 20
-118.854
 21
-119.174
  0
LINE
  8
0
 10
95.247
 11
95.521
 20
-119.174
 21
-119.571
  0
LINE
  8
0
 10
95.521
 11
95.692
 20
-119.571
 21
-120.021
  0
LINE
  8
0
 10
95.692
 11
95.75
 20
-120.021
 21
-120.5
  0
LINE
  8
0
 10
95.75
 11
95.692
 20
-120.5
 21
-120.979
  0
LINE
  8
0
 10
95.692
 11
95.521
 20
-120.979
 21
-121.429
  0
LINE
  8
0
 10
95.521
 11
95.247
 20
-121.429
 21
-121.826
  0
LINE
  8
0
 10
95.247
 11
94.886
 20
-121.826
 21
-122.146
  0
LINE
  8
0
 10
94.886
 11
94.459
 20
-122.146
 21
-122.37
  0
LINE
  8
0
 10
94.459
 11
93.991
 20
-122.37
 21
-122.485
  0
LINE
  8
0
 10
93.991
 11
93.509
 20
-122.485
 21
-122.485
  0
LINE
  8
0
 10
93.509
 11
93.041
 20
-122.485
 21
-122.37
  0
LINE
  8
0
 10
93.041
 11
92.614
 20
-122.37
 21
-122.146
  0
LINE
  8
0
 10
92.614
 11
92.253
 20
-122.146
 21
-121.826
  0
LINE
  8
0
 10
92.253
 11
91.979
 20
-121.826
 21
-121.429
  0
LINE
  8
0
 10
91.979
 11
91.808
 20
-121.429
 21
-120.979
  0
LINE
  8
0
 10
91.808
 11
91.75
 20
-120.979
 21
-120.5
  0
LINE
  8
0
 10
99.27
 11
99.27
 20
-113.247
 21
-112.753
  0
LINE
  8
0
 10
99.27
 11
99.431
 20
-112.753
 21
-112.286
  0
LINE
  8
0
 10
99.431
 11
99.734
 20
-112.286
 21
-111.896
  0
LINE
  8
0
 10
99.734
 11
100.147
 20
-111.896
 21
-111.626
  0
LINE
  8
0
 10
100.147
 11
100.626
 20
-111.626
 21
-111.505
  0
LINE
  8
0
 10
100.626
 11
101.118
 20
-111.505
 21
-111.546
  0
LINE
  8
0
 10
101.118
 11
101.57
 20
-111.546
 21
-111.744
  0
LINE
  8
0
 10
101.57
 11
101.934
 20
-111.744
 21
-112.079
  0
LINE
  8
0
 10
101.934
 11
102.169
 20
-112.079
 21
-112.513
  0
LINE
  8
0
 10
102.169
 11
102.25
 20
-112.513
 21
-113
  0
LINE
  8
0
 10
102.25
 11
102.169
 20
-113
 21
-113.487
  0
LINE
  8
0
 10
102.169
 11
101.934
 20
-113.487
 21
-113.921
  0
LINE
  8
0
 10
101.934
 11
101.57
 20
-113.921
 21
-114.256
  0
LINE
  8
0
 10
101.57
 11
101.118
 20
-114.256
 21
-114.454
  0
LINE
  8
0
 10
101.118
 11
100.626
 20
-114.454
 21
-114.495
  0
LINE
  8
0
 10
100.626
 11
100.147
 20
-114.495
 21
-114.374
  0
LINE
  8
0
 10
100.147
 11
99.734
 20
-114.374
 21
-114.104
  0
LINE
  8
0
 10
99.734
 11
99.431
 20
-114.104
 21
-113.714
  0
LINE
  8
0
 10
99.431
 11
99.27
 20
-113.714
 21
-113.247
  0
LINE
  8
0
 10
99.27
 11
99.27
 20
57.153
 21
57.647
  0
LINE
  8
0
 10
99.27
 11
99.431
 20
57.647
 21
58.114
  0
LINE
  8
0
 10
99.431
 11
99.734
 20
58.114
 21
58.504
  0
LINE
  8
0
 10
99.734
 11
100.147
 20
58.504
 21
58.774
  0
LINE
  8
0
 10
100.147
 11
100.626
 20
58.774
 21
58.895
  0
LINE
  8
0
 10
100.626
 11
101.118
 20
58.895
 21
58.854
  0
LINE
  8
0
 10
101.118
 11
101.57
 20
58.854
 21
58.656
  0
LINE
  8
0
 10
101.57
 11
101.934
 20
58.656
 21
58.321
  0
LINE
  8
0
 10
101.934
 11
102.169
 20
58.321
 21
57.887
  0
LINE
  8
0
 10
102.169
 11
102.25
 20
57.887
 21
57.4
  0
LINE
  8
0
 10
102.25
 11
102.169
 20
57.4
 21
56.913
  0
LINE
  8
0
 10
102.169
 11
101.934
 20
56.913
 21
56.479
  0
LINE
  8
0
 10
101.934
 11
101.57
 20
56.479
 21
56.144
  0
LINE
  8
0
 10
101.57
 11
101.118
 20
56.144
 21
55.946
  0
LINE
  8
0
 10
101.118
 11
100.626
 20
55.946
 21
55.905
  0
LINE
  8
0
 10
100.626
 11
100.147
 20
55.905
 21
56.026
  0
LINE
  8
0
 10
100.147
 11
99.734
 20
56.026
 21
56.296
  0
LINE
  8
0
 10
99.734
 11
99.431
 20
56.296
 21
56.686
  0
LINE
  8
0
 10
99.431
 11
99.27
 20
56.686
 21
57.153
  0
LINE
  8
0
 10
101.65
 11
101.708
 20
71.9
 21
72.379
  0
LINE
  8
0
 10
101.708
 11
101.879
 20
72.379
 21
72.829
  0
LINE
  8
0
 10
101.879
 11
102.153
 20
72.829
 21
73.226
  0
LINE
  8
0
 10
102.153
 11
102.514
 20
73.226
 21
73.546
  0
LINE
  8
0
 10
102.514
 11
102.941
 20
73.546
 21
73.77
  0
LINE
  8
0
 10
102.941
 11
103.409
 20
73.77
 21
73.885
  0
LINE
  8
0
 10
103.409
 11
103.891
 20
73.885
 21
73.885
  0
LINE
  8
0
 10
103.891
 11
104.359
 20
73.885
 21
73.77
  0
LINE
  8
0
 10
104.359
 11
104.786
 20
73.77
 21
73.546
  0
LINE
  8
0
 10
104.786
 11
105.147
 20
73.546
 21
73.226
  0
LINE
  8
0
 10
105.147
 11
105.421
 20
73.226
 21
72.829
  0
LINE
  8
0
 10
105.421
 11
105.592
 20
72.829
 21
72.379
  0
LINE
  8
0
 10
105.592
 11
105.65
 20
72.379
 21
71.9
  0
LINE
  8
0
 10
105.65
 11
105.592
 20
71.9
 21
71.421
  0
LINE
  8
0
 10
105.592
 11
105.421
 20
71.421
 21
70.971
  0
LINE
  8
0
 10
105.421
 11
105.147
 20
70.971
 21
70.574
  0
LINE
  8
0
 10
105.147
 11
104.786
 20
70.574
 21
70.254
  0
LINE
  8
0
 10
104.786
 11
104.359
 20
70.254
 21
70.03
  0
LINE
  8
0
 10
104.359
 11
103.891
 20
70.03
 21
69.915
  0
LINE
  8
0
 10
103.891
 11
103.409
 20
69.915
 21
69.915
  0
LINE
  8
0
 10
103.409
 11
102.941
 20
69.915
 21
70.03
  0
LINE
  8
0
 10
102.941
 11
102.514
 20
70.03
 21
70.254
  0
LINE
  8
0
 10
102.514
 11
102.153
 20
70.254
 21
70.574
  0
LINE
  8
0
 10
102.153
 11
101.879
 20
70.574
 21
70.971
  0
LINE
  8
0
 10
101.879
 11
101.708
 20
70.971
 21
71.421
  0
LINE
  8
0
 10
101.708
 11
101.65
 20
71.421
 21
71.9
  0
LINE
  8
0
 10
105.07
 11
105.07
 20
-113.247
 21
-112.753
  0
LINE
  8
0
 10
105.07
 11
105.231
 20
-112.753
 21
-112.286
  0
LINE
  8
0
 10
105.231
 11
105.534
 20
-112.286
 21
-111.896
  0
LINE
  8
0
 10
105.534
 11
105.947
 20
-111.896
 21
-111.626
  0
LINE
  8
0
 10
105.947
 11
106.426
 20
-111.626
 21
-111.505
  0
LINE
  8
0
 10
106.426
 11
106.918
 20
-111.505
 21
-111.546
  0
LINE
  8
0
 10
106.918
 11
107.37
 20
-111.546
 21
-111.744
  0
LINE
  8
0
 10
107.37
 11
107.734
 20
-111.744
 21
-112.079
  0
LINE
  8
0
 10
107.734
 11
107.969
 20
-112.079
 21
-112.513
  0
LINE
  8
0
 10
107.969
 11
108.05
 20
-112.513
 21
-113
  0
LINE
  8
0
 10
108.05
 11
107.969
 20
-113
 21
-113.487
  0
LINE
  8
0
 10
107.969
 11
107.734
 20
-113.487
 21
-113.921
  0
LINE
  8
0
 10
107.734
 11
107.37
 20
-113.921
 21
-114.256
  0
LINE
  8
0
 10
107.37
 11
106.918
 20
-114.256
 21
-114.454
  0
LINE
  8
0
 10
106.918
 11
106.426
 20
-114.454
 21
-114.495
  0
LINE
  8
0
 10
106.426
 11
105.947
 20
-114.495
 21
-114.374
  0
LINE
  8
0
 10
105.947
 11
105.534
 20
-114.374
 21
-114.104
  0
LINE
  8
0
 10
105.534
 11
105.231
 20
-114.104
 21
-113.714
  0
LINE
  8
0
 10
105.231
 11
105.07
 20
-113.714
 21
-113.247
  0
LINE
  8
0
 10
105.07
 11
105.07
 20
57.153
 21
57.647
  0
LINE
  8
0
 10
105.07
 11
105.231
 20
57.647
 21
58.114
  0
LINE
  8
0
 10
105.231
 11
105.534
 20
58.114
 21
58.504
  0
LINE
  8
0
 10
105.534
 11
105.947
 20
58.504
 21
58.774
  0
LINE
  8
0
 10
105.947
 11
106.426
 20
58.774
 21
58.895
  0
LINE
  8
0
 10
106.426
 11
106.918
 20
58.895
 21
58.854
  0
LINE
  8
0
 10
106.918
 11
107.37
 20
58.854
 21
58.656
  0
LINE
  8
0
 10
107.37
 11
107.734
 20
58.656
 21
58.321
  0
LINE
  8
0
 10
107.734
 11
107.969
 20
58.321
 21
57.887
  0
LINE
  8
0
 10
107.969
 11
108.05
 20
57.887
 21
57.4
  0
LINE
  8
0
 10
108.05
 11
107.969
 20
57.4
 21
56.913
  0
LINE
  8
0
 10
107.969
 11
107.734
 20
56.913
 21
56.479
  0
LINE
  8
0
 10
107.734
 11
107.37
 20
56.479
 21
56.144
  0
LINE
  8
0
 10
107.37
 11
106.918
 20
56.144
 21
55.946
  0
LINE
  8
0
 10
106.918
 11
106.426
 20
55.946
 21
55.905
  0
LINE
  8
0
 10
106.426
 11
105.947
 20
55.905
 21
56.026
  0
LINE
  8
0
 10
105.947
 11
105.534
 20
56.026
 21
56.296
  0
LINE
  8
0
 10
105.534
 11
105.231
 20
56.296
 21
56.686
  0
LINE
  8
0
 10
105.231
 11
105.07
 20
56.686
 21
57.153
  0
LINE
  8
0
 10
110.45
 11
110.531
 20
-118
 21
-117.513
  0
LINE
  8
0
 10
110.531
 11
110.766
 20
-117.513
 21
-117.079
  0
LINE
  8
0
 10
110.766
 11
111.13
 20
-117.079
 21
-116.744
  0
LINE
  8
0
 10
111.13
 11
111.582
 20
-116.744
 21
-116.546
  0
LINE
  8
0
 10
111.582
 11
112.074
 20
-116.546
 21
-116.505
  0
LINE
  8
0
 10
112.074
 11
112.553
 20
-116.505
 21
-116.626
  0
LINE
  8
0
 10
112.553
 11
112.966
 20
-116.626
 21
-116.896
  0
LINE
  8
0
 10
112.966
 11
113.269
 20
-116.896
 21
-117.286
  0
LINE
  8
0
 10
113.269
 11
113.43
 20
-117.286
 21
-117.753
  0
LINE
  8
0
 10
113.43
 11
113.43
 20
-117.753
 21
-118.247
  0
LINE
  8
0
 10
113.43
 11
113.269
 20
-118.247
 21
-118.714
  0
LINE
  8
0
 10
113.269
 11
112.966
 20
-118.714
 21
-119.104
  0
LINE
  8
0
 10
112.966
 11
112.553
 20
-119.104
 21
-119.374
  0
LINE
  8
0
 10
112.553
 11
112.074
 20
-119.374
 21
-119.495
  0
LINE
  8
0
 10
112.074
 11
111.582
 20
-119.495
 21
-119.454
  0
LINE
  8
0
 10
111.582
 11
111.13
 20
-119.454
 21
-119.256
  0
LINE
  8
0
 10
111.13
 11
110.766
 20
-119.256
 21
-118.921
  0
LINE
  8
0
 10
110.766
 11
110.531
 20
-118.921
 21
-118.487
  0
LINE
  8
0
 10
110.531
 11
110.45
 20
-118.487
 21
-118
  0
LINE
  8
0
 10
110.45
 11
110.531
 20
52.4
 21
52.887
  0
LINE
  8
0
 10
110.531
 11
110.766
 20
52.887
 21
53.321
  0
LINE
  8
0
 10
110.766
 11
111.13
 20
53.321
 21
53.656
  0
LINE
  8
0
 10
111.13
 11
111.582
 20
53.656
 21
53.854
  0
LINE
  8
0
 10
111.582
 11
112.074
 20
53.854
 21
53.895
  0
LINE
  8
0
 10
112.074
 11
112.553
 20
53.895
 21
53.774
  0
LINE
  8
0
 10
112.553
 11
112.966
 20
53.774
 21
53.504
  0
LINE
  8
0
 10
112.966
 11
113.269
 20
53.504
 21
53.114
  0
LINE
  8
0
 10
113.269
 11
113.43
 20
53.114
 21
52.647
  0
LINE
  8
0
 10
113.43
 11
113.43
 20
52.647
 21
52.153
  0
LINE
  8
0
 10
113.43
 11
113.269
 20
52.153
 21
51.686
  0
LINE
  8
0
 10
113.269
 11
112.966
 20
51.686
 21
51.296
  0
LINE
  8
0
 10
112.966
 11
112.553
 20
51.296
 21
51.026
  0
LINE
  8
0
 10
112.553
 11
112.074
 20
51.026
 21
50.905
  0
LINE
  8
0
 10
112.074
 11
111.582
 20
50.905
 21
50.946
  0
LINE
  8
0
 10
111.582
 11
111.13
 20
50.946
 21
51.144
  0
LINE
  8
0
 10
111.13
 11
110.766
 20
51.144
 21
51.479
  0
LINE
  8
0
 10
110.766
 11
110.531
 20
51.479
 21
51.913
  0
LINE
  8
0
 10
110.531
 11
110.45
 20
51.913
 21
52.4
  0
LINE
  8
0
 10
112.35
 11
112.398
 20
62.4
 21
62.888
  0
LINE
  8
0
 10
112.398
 11
112.54
 20
62.888
 21
63.357
  0
LINE
  8
0
 10
112.54
 11
112.771
 20
63.357
 21
63.789
  0
LINE
  8
0
 10
112.771
 11
113.082
 20
63.789
 21
64.168
  0
LINE
  8
0
 10
113.082
 11
113.461
 20
64.168
 21
64.479
  0
LINE
  8
0
 10
113.461
 11
113.893
 20
64.479
 21
64.71
  0
LINE
  8
0
 10
113.893
 11
114.362
 20
64.71
 21
64.852
  0
LINE
  8
0
 10
114.362
 11
114.85
 20
64.852
 21
64.9
  0
LINE
  8
0
 10
114.85
 11
115.338
 20
64.9
 21
64.852
  0
LINE
  8
0
 10
115.338
 11
115.807
 20
64.852
 21
64.71
  0
LINE
  8
0
 10
115.807
 11
116.239
 20
64.71
 21
64.479
  0
LINE
  8
0
 10
116.239
 11
116.618
 20
64.479
 21
64.168
  0
LINE
  8
0
 10
116.618
 11
116.929
 20
64.168
 21
63.789
  0
LINE
  8
0
 10
116.929
 11
117.16
 20
63.789
 21
63.357
  0
LINE
  8
0
 10
117.16
 11
117.302
 20
63.357
 21
62.888
  0
LINE
  8
0
 10
117.302
 11
117.35
 20
62.888
 21
62.4
  0
LINE
  8
0
 10
117.35
 11
117.302
 20
62.4
 21
61.912
  0
LINE
  8
0
 10
117.302
 11
117.16
 20
61.912
 21
61.443
  0
LINE
  8
0
 10
117.16
 11
116.929
 20
61.443
 21
61.011
  0
LINE
  8
0
 10
116.929
 11
116.618
 20
61.011
 21
60.632
  0
LINE
  8
0
 10
116.618
 11
116.239
 20
60.632
 21
60.321
  0
LINE
  8
0
 10
116.239
 11
115.807
 20
60.321
 21
60.09
  0
LINE
  8
0
 10
115.807
 11
115.338
 20
60.09
 21
59.948
  0
LINE
  8
0
 10
115.338
 11
114.85
 20
59.948
 21
59.9
  0
LINE
  8
0
 10
114.85
 11
114.362
 20
59.9
 21
59.948
  0
LINE
  8
0
 10
114.362
 11
113.893
 20
59.948
 21
60.09
  0
LINE
  8
0
 10
113.893
 11
113.461
 20
60.09
 21
60.321
  0
LINE
  8
0
 10
113.461
 11
113.082
 20
60.321
 21
60.632
  0
LINE
  8
0
 10
113.082
 11
112.771
 20
60.632
 21
61.011
  0
LINE
  8
0
 10
112.771
 11
112.54
 20
61.011
 21
61.443
  0
LINE
  8
0
 10
112.54
 11
112.398
 20
61.443
 21
61.912
  0
LINE
  8
0
 10
112.398
 11
112.35
 20
61.912
 21
62.4
  0
LINE
  8
0
 10
116.25
 11
116.331
 20
-118
 21
-117.513
  0
LINE
  8
0
 10
116.331
 11
116.566
 20
-117.513
 21
-117.079
  0
LINE
  8
0
 10
116.566
 11
116.93
 20
-117.079
 21
-116.744
  0
LINE
  8
0
 10
116.93
 11
117.382
 20
-116.744
 21
-116.546
  0
LINE
  8
0
 10
117.382
 11
117.874
 20
-116.546
 21
-116.505
  0
LINE
  8
0
 10
117.874
 11
118.353
 20
-116.505
 21
-116.626
  0
LINE
  8
0
 10
118.353
 11
118.766
 20
-116.626
 21
-116.896
  0
LINE
  8
0
 10
118.766
 11
119.069
 20
-116.896
 21
-117.286
  0
LINE
  8
0
 10
119.069
 11
119.23
 20
-117.286
 21
-117.753
  0
LINE
  8
0
 10
119.23
 11
119.23
 20
-117.753
 21
-118.247
  0
LINE
  8
0
 10
119.23
 11
119.069
 20
-118.247
 21
-118.714
  0
LINE
  8
0
 10
119.069
 11
118.766
 20
-118.714
 21
-119.104
  0
LINE
  8
0
 10
118.766
 11
118.353
 20
-119.104
 21
-119.374
  0
LINE
  8
0
 10
118.353
 11
117.874
 20
-119.374
 21
-119.495
  0
LINE
  8
0
 10
117.874
 11
117.382
 20
-119.495
 21
-119.454
  0
LINE
  8
0
 10
117.382
 11
116.93
 20
-119.454
 21
-119.256
  0
LINE
  8
0
 10
116.93
 11
116.566
 20
-119.256
 21
-118.921
  0
LINE
  8
0
 10
116.566
 11
116.331
 20
-118.921
 21
-118.487
  0
LINE
  8
0
 10
116.331
 11
116.25
 20
-118.487
 21
-118
  0
LINE
  8
0
 10
116.25
 11
116.331
 20
52.4
 21
52.887
  0
LINE
  8
0
 10
116.331
 11
116.566
 20
52.887
 21
53.321
  0
LINE
  8
0
 10
116.566
 11
116.93
 20
53.321
 21
53.656
  0
LINE
  8
0
 10
116.93
 11
117.382
 20
53.656
 21
53.854
  0
LINE
  8
0
 10
117.382
 11
117.874
 20
53.854
 21
53.895
  0
LINE
  8
0
 10
117.874
 11
118.353
 20
53.895
 21
53.774
  0
LINE
  8
0
 10
118.353
 11
118.766
 20
53.774
 21
53.504
  0
LINE
  8
0
 10
118.766
 11
119.069
 20
53.504
 21
53.114
  0
LINE
  8
0
 10
119.069
 11
119.23
 20
53.114
 21
52.647
  0
LINE
  8
0
 10
119.23
 11
119.23
 20
52.647
 21
52.153
  0
LINE
  8
0
 10
119.23
 11
119.069
 20
52.153
 21
51.686
  0
LINE
  8
0
 10
119.069
 11
118.766
 20
51.686
 21
51.296
  0
LINE
  8
0
 10
118.766
 11
118.353
 20
51.296
 21
51.026
  0
LINE
  8
0
 10
118.353
 11
117.874
 20
51.026
 21
50.905
  0
LINE
  8
0
 10
117.874
 11
117.382
 20
50.905
 21
50.946
  0
LINE
  8
0
 10
117.382
 11
116.93
 20
50.946
 21
51.144
  0
LINE
  8
0
 10
116.93
 11
116.566
 20
51.144
 21
51.479
  0
LINE
  8
0
 10
116.566
 11
116.331
 20
51.479
 21
51.913
  0
LINE
  8
0
 10
116.331
 11
116.25
 20
51.913
 21
52.4
  0
LINE
  8
0
 10
123.35
 11
123.405
 20
-191.29
 21
-190.8
  0
LINE
  8
0
 10
123.405
 11
123.568
 20
-190.8
 21
-190.335
  0
LINE
  8
0
 10
123.568
 11
123.83
 20
-190.335
 21
-189.918
  0
LINE
  8
0
 10
123.83
 11
124.178
 20
-189.918
 21
-189.57
  0
LINE
  8
0
 10
124.178
 11
124.595
 20
-189.57
 21
-189.308
  0
LINE
  8
0
 10
124.595
 11
125.06
 20
-189.308
 21
-189.145
  0
LINE
  8
0
 10
125.06
 11
125.55
 20
-189.145
 21
-189.09
  0
LINE
  8
0
 10
125.55
 11
126.04
 20
-189.09
 21
-189.145
  0
LINE
  8
0
 10
126.04
 11
126.505
 20
-189.145
 21
-189.308
  0
LINE
  8
0
 10
126.505
 11
126.922
 20
-189.308
 21
-189.57
  0
LINE
  8
0
 10
126.922
 11
127.27
 20
-189.57
 21
-189.918
  0
LINE
  8
0
 10
127.27
 11
127.532
 20
-189.918
 21
-190.335
  0
LINE
  8
0
 10
127.532
 11
127.695
 20
-190.335
 21
-190.8
  0
LINE
  8
0
 10
127.695
 11
127.75
 20
-190.8
 21
-191.29
  0
LINE
  8
0
 10
127.75
 11
127.695
 20
-191.29
 21
-191.78
  0
LINE
  8
0
 10
127.695
 11
127.532
 20
-191.78
 21
-192.245
  0
LINE
  8
0
 10
127.532
 11
127.27
 20
-192.245
 21
-192.662
  0
LINE
  8
0
 10
127.27
 11
126.922
 20
-192.662
 21
-193.01
  0
LINE
  8
0
 10
126.922
 11
126.505
 20
-193.01
 21
-193.272
  0
LINE
  8
0
 10
126.505
 11
126.04
 20
-193.272
 21
-193.435
  0
LINE
  8
0
 10
126.04
 11
125.55
 20
-193.435
 21
-193.49
  0
LINE
  8
0
 10
125.55
 11
125.06
 20
-193.49
 21
-193.435
  0
LINE
  8
0
 10
125.06
 11
124.595
 20
-193.435
 21
-193.272
  0
LINE
  8
0
 10
124.595
 11
124.178
 20
-193.272
 21
-193.01
  0
LINE
  8
0
 10
124.178
 11
123.83
 20
-193.01
 21
-192.662
  0
LINE
  8
0
 10
123.83
 11
123.568
 20
-192.662
 21
-192.245
  0
LINE
  8
0
 10
123.568
 11
123.405
 20
-192.245
 21
-191.78
  0
LINE
  8
0
 10
123.405
 11
123.35
 20
-191.78
 21
-191.29
  0
LINE
  8
0
 10
123.35
 11
123.405
 20
191.29
 21
191.78
  0
LINE
  8
0
 10
123.405
 11
123.568
 20
191.78
 21
192.245
  0
LINE
  8
0
 10
123.568
 11
123.83
 20
192.245
 21
192.662
  0
LINE
  8
0
 10
123.83
 11
124.178
 20
192.662
 21
193.01
  0
LINE
  8
0
 10
124.178
 11
124.595
 20
193.01
 21
193.272
  0
LINE
  8
0
 10
124.595
 11
125.06
 20
193.272
 21
193.435
  0
LINE
  8
0
 10
125.06
 11
125.55
 20
193.435
 21
193.49
  0
LINE
  8
0
 10
125.55
 11
126.04
 20
193.49
 21
193.435
  0
LINE
  8
0
 10
126.04
 11
126.505
 20
193.435
 21
193.272
  0
LINE
  8
0
 10
126.505
 11
126.922
 20
193.272
 21
193.01
  0
LINE
  8
0
 10
126.922
 11
127.27
 20
193.01
 21
192.662
  0
LINE
  8
0
 10
127.27
 11
127.532
 20
192.662
 21
192.245
  0
LINE
  8
0
 10
127.532
 11
127.695
 20
192.245
 21
191.78
  0
LINE
  8
0
 10
127.695
 11
127.75
 20
191.78
 21
191.29
  0
LINE
  8
0
 10
127.75
 11
127.695
 20
191.29
 21
190.8
  0
LINE
  8
0
 10
127.695
 11
127.532
 20
190.8
 21
190.335
  0
LINE
  8
0
 10
127.532
 11
127.27
 20
190.335
 21
189.918
  0
LINE
  8
0
 10
127.27
 11
126.922
 20
189.918
 21
189.57
  0
LINE
  8
0
 10
126.922
 11
126.505
 20
189.57
 21
189.308
  0
LINE
  8
0
 10
126.505
 11
126.04
 20
189.308
 21
189.145
  0
LINE
  8
0
 10
126.04
 11
125.55
 20
189.145
 21
189.09
  0
LINE
  8
0
 10
125.55
 11
125.06
 20
189.09
 21
189.145
  0
LINE
  8
0
 10
125.06
 11
124.595
 20
189.145
 21
189.308
  0
LINE
  8
0
 10
124.595
 11
124.178
 20
189.308
 21
189.57
  0
LINE
  8
0
 10
124.178
 11
123.83
 20
189.57
 21
189.918
  0
LINE
  8
0
 10
123.83
 11
123.568
 20
189.918
 21
190.335
  0
LINE
  8
0
 10
123.568
 11
123.405
 20
190.335
 21
190.8
  0
LINE
  8
0
 10
123.405
 11
123.35
 20
190.8
 21
191.29
  0
LINE
  8
0
 10
154.258
 11
154.258
 20
-0.246
 21
0.246
  0
LINE
  8
0
 10
154.258
 11
154.318
 20
0.246
 21
0.735
  0
LINE
  8
0
 10
154.318
 11
154.438
 20
0.735
 21
1.213
  0
LINE
  8
0
 10
154.438
 11
154.616
 20
1.213
 21
1.672
  0
LINE
  8
0
 10
154.616
 11
154.849
 20
1.672
 21
2.106
  0
LINE
  8
0
 10
154.849
 11
155.134
 20
2.106
 21
2.508
  0
LINE
  8
0
 10
155.134
 11
155.465
 20
2.508
 21
2.872
  0
LINE
  8
0
 10
155.465
 11
155.839
 20
2.872
 21
3.192
  0
LINE
  8
0
 10
155.839
 11
156.25
 20
3.192
 21
3.464
  0
LINE
  8
0
 10
156.25
 11
156.691
 20
3.464
 21
3.684
  0
LINE
  8
0
 10
156.691
 11
157.155
 20
3.684
 21
3.847
  0
LINE
  8
0
 10
157.155
 11
157.636
 20
3.847
 21
3.953
  0
LINE
  8
0
 10
157.636
 11
158.127
 20
3.953
 21
3.998
  0
LINE
  8
0
 10
158.127
 11
158.619
 20
3.998
 21
3.983
  0
LINE
  8
0
 10
158.619
 11
159.106
 20
3.983
 21
3.907
  0
LINE
  8
0
 10
159.106
 11
159.579
 20
3.907
 21
3.773
  0
LINE
  8
0
 10
159.579
 11
160.033
 20
3.773
 21
3.581
  0
LINE
  8
0
 10
160.033
 11
160.459
 20
3.581
 21
3.334
  0
LINE
  8
0
 10
160.459
 11
160.852
 20
3.334
 21
3.038
  0
LINE
  8
0
 10
160.852
 11
161.206
 20
3.038
 21
2.695
  0
LINE
  8
0
 10
161.206
 11
161.515
 20
2.695
 21
2.311
  0
LINE
  8
0
 10
161.515
 11
161.774
 20
2.311
 21
1.892
  0
LINE
  8
0
 10
161.774
 11
161.98
 20
1.892
 21
1.445
  0
LINE
  8
0
 10
161.98
 11
162.129
 20
1.445
 21
0.976
  0
LINE
  8
0
 10
162.129
 11
162.22
 20
0.976
 21
0.492
  0
LINE
  8
0
 10
162.22
 11
162.25
 20
0.492
 21
0
  0
LINE
  8
0
 10
162.25
 11
162.22
 20
0
 21
-0.492
  0
LINE
  8
0
 10
162.22
 11
162.129
 20
-0.492
 21
-0.976
  0
LINE
  8
0
 10
162.129
 11
161.98
 20
-0.976
 21
-1.445
  0
LINE
  8
0
 10
161.98
 11
161.774
 20
-1.445
 21
-1.892
  0
LINE
  8
0
 10
161.774
 11
161.515
 20
-1.892
 21
-2.311
  0
LINE
  8
0
 10
161.515
 11
161.206
 20
-2.311
 21
-2.695
  0
LINE
  8
0
 10
161.206
 11
160.852
 20
-2.695
 21
-3.038
  0
LINE
  8
0
 10
160.852
 11
160.459
 20
-3.038
 21
-3.334
  0
LINE
  8
0
 10
160.459
 11
160.033
 20
-3.334
 21
-3.581
  0
LINE
  8
0
 10
160.033
 11
159.579
 20
-3.581
 21
-3.773
  0
LINE
  8
0
 10
159.579
 11
159.106
 20
-3.773
 21
-3.907
  0
LINE
  8
0
 10
159.106
 11
158.619
 20
-3.907
 21
-3.983
  0
LINE
  8
0
 10
158.619
 11
158.127
 20
-3.983
 21
-3.998
  0
LINE
  8
0
 10
158.127
 11
157.636
 20
-3.998
 21
-3.953
  0
LINE
  8
0
 10
157.636
 11
157.155
 20
-3.953
 21
-3.847
  0
LINE
  8
0
 10
157.155
 11
156.691
 20
-3.847
 21
-3.684
  0
LINE
  8
0
 10
156.691
 11
156.25
 20
-3.684
 21
-3.464
  0
LINE
  8
0
 10
156.25
 11
155.839
 20
-3.464
 21
-3.192
  0
LINE
  8
0
 10
155.839
 11
155.465
 20
-3.192
 21
-2.872
  0
LINE
  8
0
 10
155.465
 11
155.134
 20
-2.872
 21
-2.508
  0
LINE
  8
0
 10
155.134
 11
154.849
 20
-2.508
 21
-2.106
  0
LINE
  8
0
 10
154.849
 11
154.616
 20
-2.106
 21
-1.672
  0
LINE
  8
0
 10
154.616
 11
154.438
 20
-1.672
 21
-1.213
  0
LINE
  8
0
 10
154.438
 11
154.318
 20
-1.213
 21
-0.735
  0
LINE
  8
0
 10
154.318
 11
154.258
 20
-0.735
 21
-0.246
  0
LINE
  8
0
 10
154.26
 11
154.315
 20
51.7
 21
52.19
  0
LINE
  8
0
 10
154.315
 11
154.478
 20
52.19
 21
52.655
  0
LINE
  8
0
 10
154.478
 11
154.74
 20
52.655
 21
53.072
  0
LINE
  8
0
 10
154.74
 11
155.088
 20
53.072
 21
53.42
  0
LINE
  8
0
 10
155.088
 11
155.505
 20
53.42
 21
53.682
  0
LINE
  8
0
 10
155.505
 11
155.97
 20
53.682
 21
53.845
  0
LINE
  8
0
 10
155.97
 11
156.46
 20
53.845
 21
53.9
  0
LINE
  8
0
 10
156.46
 11
156.95
 20
53.9
 21
53.845
  0
LINE
  8
0
 10
156.95
 11
157.415
 20
53.845
 21
53.682
  0
LINE
  8
0
 10
157.415
 11
157.832
 20
53.682
 21
53.42
  0
LINE
  8
0
 10
157.832
 11
158.18
 20
53.42
 21
53.072
  0
LINE
  8
0
 10
158.18
 11
158.442
 20
53.072
 21
52.655
  0
LINE
  8
0
 10
158.442
 11
158.605
 20
52.655
 21
52.19
  0
LINE
  8
0
 10
158.605
 11
158.66
 20
52.19
 21
51.7
  0
LINE
  8
0
 10
158.66
 11
158.605
 20
51.7
 21
51.21
  0
LINE
  8
0
 10
158.605
 11
158.442
 20
51.21
 21
50.745
  0
LINE
  8
0
 10
158.442
 11
158.18
 20
50.745
 21
50.328
  0
LINE
  8
0
 10
158.18
 11
157.832
 20
50.328
 21
49.98
  0
LINE
  8
0
 10
157.832
 11
157.415
 20
49.98
 21
49.718
  0
LINE
  8
0
 10
157.415
 11
156.95
 20
49.718
 21
49.555
  0
LINE
  8
0
 10
156.95
 11
156.46
 20
49.555
 21
49.5
  0
LINE
  8
0
 10
156.46
 11
155.97
 20
49.5
 21
49.555
  0
LINE
  8
0
 10
155.97
 11
155.505
 20
49.555
 21
49.718
  0
LINE
  8
0
 10
155.505
 11
155.088
 20
49.718
 21
49.98
  0
LINE
  8
0
 10
155.088
 11
154.74
 20
49.98
 21
50.328
  0
LINE
  8
0
 10
154.74
 11
154.478
 20
50.328
 21
50.745
  0
LINE
  8
0
 10
154.478
 11
154.315
 20
50.745
 21
51.21
  0
LINE
  8
0
 10
154.315
 11
154.26
 20
51.21
 21
51.7
  0
LINE
  8
0
 10
213.34
 11
213.395
 20
51.7
 21
52.19
  0
LINE
  8
0
 10
213.395
 11
213.558
 20
52.19
 21
52.655
  0
LINE
  8
0
 10
213.558
 11
213.82
 20
52.655
 21
53.072
  0
LINE
  8
0
 10
213.82
 11
214.168
 20
53.072
 21
53.42
  0
LINE
  8
0
 10
214.168
 11
214.585
 20
53.42
 21
53.682
  0
LINE
  8
0
 10
214.585
 11
215.05
 20
53.682
 21
53.845
  0
LINE
  8
0
 10
215.05
 11
215.54
 20
53.845
 21
53.9
  0
LINE
  8
0
 10
215.54
 11
216.03
 20
53.9
 21
53.845
  0
LINE
  8
0
 10
216.03
 11
216.495
 20
53.845
 21
53.682
  0
LINE
  8
0
 10
216.495
 11
216.912
 20
53.682
 21
53.42
  0
LINE
  8
0
 10
216.912
 11
217.26
 20
53.42
 21
53.072
  0
LINE
  8
0
 10
217.26
 11
217.522
 20
53.072
 21
52.655
  0
LINE
  8
0
 10
217.522
 11
217.685
 20
52.655
 21
52.19
  0
LINE
  8
0
 10
217.685
 11
217.74
 20
52.19
 21
51.7
  0
LINE
  8
0
 10
217.74
 11
217.685
 20
51.7
 21
51.21
  0
LINE
  8
0
 10
217.685
 11
217.522
 20
51.21
 21
50.745
  0
LINE
  8
0
 10
217.522
 11
217.26
 20
50.745
 21
50.328
  0
LINE
  8
0
 10
217.26
 11
216.912
 20
50.328
 21
49.98
  0
LINE
  8
0
 10
216.912
 11
216.495
 20
49.98
 21
49.718
  0
LINE
  8
0
 10
216.495
 11
216.03
 20
49.718
 21
49.555
  0
LINE
  8
0
 10
216.03
 11
215.54
 20
49.555
 21
49.5
  0
LINE
  8
0
 10
215.54
 11
215.05
 20
49.5
 21
49.555
  0
LINE
  8
0
 10
215.05
 11
214.585
 20
49.555
 21
49.718
  0
LINE
  8
0
 10
214.585
 11
214.168
 20
49.718
 21
49.98
  0
LINE
  8
0
 10
214.168
 11
213.82
 20
49.98
 21
50.328
  0
LINE
  8
0
 10
213.82
 11
213.558
 20
50.328
 21
50.745
  0
LINE
  8
0
 10
213.558
 11
213.395
 20
50.745
 21
51.21
  0
LINE
  8
0
 10
213.395
 11
213.34
 20
51.21
 21
51.7
  0
LINE
  8
0
 10
216.25
 11
216.305
 20
73
 21
73.49
  0
LINE
  8
0
 10
216.305
 11
216.468
 20
73.49
 21
73.955
  0
LINE
  8
0
 10
216.468
 11
216.73
 20
73.955
 21
74.372
  0
LINE
  8
0
 10
216.73
 11
217.078
 20
74.372
 21
74.72
  0
LINE
  8
0
 10
217.078
 11
217.495
 20
74.72
 21
74.982
  0
LINE
  8
0
 10
217.495
 11
217.96
 20
74.982
 21
75.145
  0
LINE
  8
0
 10
217.96
 11
218.45
 20
75.145
 21
75.2
  0
LINE
  8
0
 10
218.45
 11
218.94
 20
75.2
 21
75.145
  0
LINE
  8
0
 10
218.94
 11
219.405
 20
75.145
 21
74.982
  0
LINE
  8
0
 10
219.405
 11
219.822
 20
74.982
 21
74.72
  0
LINE
  8
0
 10
219.822
 11
220.17
 20
74.72
 21
74.372
  0
LINE
  8
0
 10
220.17
 11
220.432
 20
74.372
 21
73.955
  0
LINE
  8
0
 10
220.432
 11
220.595
 20
73.955
 21
73.49
  0
LINE
  8
0
 10
220.595
 11
220.65
 20
73.49
 21
73
  0
LINE
  8
0
 10
220.65
 11
220.595
 20
73
 21
72.51
  0
LINE
  8
0
 10
220.595
 11
220.432
 20
72.51
 21
72.045
  0
LINE
  8
0
 10
220.432
 11
220.17
 20
72.045
 21
71.628
  0
LINE
  8
0
 10
220.17
 11
219.822
 20
71.628
 21
71.28
  0
LINE
  8
0
 10
219.822
 11
219.405
 20
71.28
 21
71.018
  0
LINE
  8
0
 10
219.405
 11
218.94
 20
71.018
 21
70.855
  0
LINE
  8
0
 10
218.94
 11
218.45
 20
70.855
 21
70.8
  0
LINE
  8
0
 10
218.45
 11
217.96
 20
70.8
 21
70.855
  0
LINE
  8
0
 10
217.96
 11
217.495
 20
70.855
 21
71.018
  0
LINE
  8
0
 10
217.495
 11
217.078
 20
71.018
 21
71.28
  0
LINE
  8
0
 10
217.078
 11
216.73
 20
71.28
 21
71.628
  0
LINE
  8
0
 10
216.73
 11
216.468
 20
71.628
 21
72.045
  0
LINE
  8
0
 10
216.468
 11
216.305
 20
72.045
 21
72.51
  0
LINE
  8
0
 10
216.305
 11
216.25
 20
72.51
 21
73
  0
ENDSEC
  0
SECTION
  2
OBJECTS
  0
DICTIONARY
  0
ENDSEC
  0
EOF
