<?xml version="1.0"?>
<svg xmlns="http://www.w3.org/2000/svg" version="1.1" height="431mm" width="481mm" >
 <g style="fill-opacity:1.0; stroke:black; stroke-width:1;">
  <line x1="470.500000mm" y1="421.000000mm" x2="470.500000mm" y2="421.000000mm" />
  <line x1="470.500000mm" y1="421.000000mm" x2="0.000000mm" y2="421.000000mm" />
  <line x1="0.000000mm" y1="421.000000mm" x2="0.000000mm" y2="0.000000mm" />
  <line x1="0.000000mm" y1="0.000000mm" x2="470.500000mm" y2="0.000000mm" />
  <line x1="470.500000mm" y1="0.000000mm" x2="470.500000mm" y2="421.000000mm" />
  <circle cx="19.709964mm" cy="158.799964mm" r="2.200229mm" fill="none"/>
  <line x1="24.110421mm" y1="158.799964mm" x2="15.309507mm" y2="158.799964mm" />
  <line x1="19.709964mm" y1="154.399507mm" x2="19.709964mm" y2="163.200421mm" />
  <text x="21mm" y="156mm" font-size="24">
   4.4
  </text>
  <circle cx="32.499971mm" cy="210.499864mm" r="4.000103mm" fill="none"/>
  <line x1="40.500177mm" y1="210.499864mm" x2="24.499766mm" y2="210.499864mm" />
  <line x1="32.499971mm" y1="202.499659mm" x2="32.499971mm" y2="218.500070mm" />
  <text x="36mm" y="206mm" font-size="24">
   8.0
  </text>
  <circle cx="65.199964mm" cy="401.289964mm" r="2.200229mm" fill="none"/>
  <line x1="69.600421mm" y1="401.289964mm" x2="60.799507mm" y2="401.289964mm" />
  <line x1="65.199964mm" y1="396.889507mm" x2="65.199964mm" y2="405.690421mm" />
  <text x="67mm" y="399mm" font-size="24">
   4.4
  </text>
  <circle cx="65.199964mm" cy="19.709964mm" r="2.200229mm" fill="none"/>
  <line x1="69.600421mm" y1="19.709964mm" x2="60.799507mm" y2="19.709964mm" />
  <line x1="65.199964mm" y1="15.309507mm" x2="65.199964mm" y2="24.110421mm" />
  <text x="67mm" y="17mm" font-size="24">
   4.4
  </text>
  <circle cx="84.289964mm" cy="158.799964mm" r="2.200229mm" fill="none"/>
  <line x1="88.690421mm" y1="158.799964mm" x2="79.889507mm" y2="158.799964mm" />
  <line x1="84.289964mm" y1="154.399507mm" x2="84.289964mm" y2="163.200421mm" />
  <text x="86mm" y="156mm" font-size="24">
   4.4
  </text>
  <circle cx="128.499964mm" cy="412.499964mm" r="2.200229mm" fill="none"/>
  <line x1="132.900421mm" y1="412.499964mm" x2="124.099507mm" y2="412.499964mm" />
  <line x1="128.499964mm" y1="408.099507mm" x2="128.499964mm" y2="416.900421mm" />
  <text x="130mm" y="410mm" font-size="24">
   4.4
  </text>
  <circle cx="128.499964mm" cy="8.499964mm" r="2.200229mm" fill="none"/>
  <line x1="132.900421mm" y1="8.499964mm" x2="124.099507mm" y2="8.499964mm" />
  <line x1="128.499964mm" y1="4.099507mm" x2="128.499964mm" y2="12.900421mm" />
  <text x="130mm" y="6mm" font-size="24">
   4.4
  </text>
  <circle cx="161.499964mm" cy="412.499964mm" r="2.200229mm" fill="none"/>
  <line x1="165.900421mm" y1="412.499964mm" x2="157.099507mm" y2="412.499964mm" />
  <line x1="161.499964mm" y1="408.099507mm" x2="161.499964mm" y2="416.900421mm" />
  <text x="163mm" y="410mm" font-size="24">
   4.4
  </text>
  <circle cx="161.499964mm" cy="8.499964mm" r="2.200229mm" fill="none"/>
  <line x1="165.900421mm" y1="8.499964mm" x2="157.099507mm" y2="8.499964mm" />
  <line x1="161.499964mm" y1="4.099507mm" x2="161.499964mm" y2="12.900421mm" />
  <text x="163mm" y="6mm" font-size="24">
   4.4
  </text>
  <circle cx="196.989964mm" cy="22.499964mm" r="2.200229mm" fill="none"/>
  <line x1="201.390421mm" y1="22.499964mm" x2="192.589507mm" y2="22.499964mm" />
  <line x1="196.989964mm" y1="18.099507mm" x2="196.989964mm" y2="26.900421mm" />
  <text x="199mm" y="20mm" font-size="24">
   4.4
  </text>
  <circle cx="207.289964mm" cy="110.699964mm" r="2.200229mm" fill="none"/>
  <line x1="211.690421mm" y1="110.699964mm" x2="202.889507mm" y2="110.699964mm" />
  <line x1="207.289964mm" y1="106.299507mm" x2="207.289964mm" y2="115.100421mm" />
  <text x="209mm" y="108mm" font-size="24">
   4.4
  </text>
  <circle cx="215.489964mm" cy="413.499964mm" r="2.200229mm" fill="none"/>
  <line x1="219.890421mm" y1="413.499964mm" x2="211.089507mm" y2="413.499964mm" />
  <line x1="215.489964mm" y1="409.099507mm" x2="215.489964mm" y2="417.900421mm" />
  <text x="217mm" y="411mm" font-size="24">
   4.4
  </text>
  <circle cx="215.489964mm" cy="350.499964mm" r="2.200229mm" fill="none"/>
  <line x1="219.890421mm" y1="350.499964mm" x2="211.089507mm" y2="350.499964mm" />
  <line x1="215.489964mm" y1="346.099507mm" x2="215.489964mm" y2="354.900421mm" />
  <text x="217mm" y="348mm" font-size="24">
   4.4
  </text>
  <circle cx="245.489964mm" cy="413.499964mm" r="2.200229mm" fill="none"/>
  <line x1="249.890421mm" y1="413.499964mm" x2="241.089507mm" y2="413.499964mm" />
  <line x1="245.489964mm" y1="409.099507mm" x2="245.489964mm" y2="417.900421mm" />
  <text x="247mm" y="411mm" font-size="24">
   4.4
  </text>
  <circle cx="245.489964mm" cy="350.499964mm" r="2.200229mm" fill="none"/>
  <line x1="249.890421mm" y1="350.499964mm" x2="241.089507mm" y2="350.499964mm" />
  <line x1="245.489964mm" y1="346.099507mm" x2="245.489964mm" y2="354.900421mm" />
  <text x="247mm" y="348mm" font-size="24">
   4.4
  </text>
  <circle cx="249.709964mm" cy="110.699964mm" r="2.200229mm" fill="none"/>
  <line x1="254.110421mm" y1="110.699964mm" x2="245.309507mm" y2="110.699964mm" />
  <line x1="249.709964mm" y1="106.299507mm" x2="249.709964mm" y2="115.100421mm" />
  <text x="251mm" y="108mm" font-size="24">
   4.4
  </text>
  <circle cx="252.749872mm" cy="79.000269mm" r="1.500269mm" fill="none"/>
  <line x1="255.750410mm" y1="79.000269mm" x2="249.749333mm" y2="79.000269mm" />
  <line x1="252.749872mm" y1="75.999731mm" x2="252.749872mm" y2="82.000808mm" />
  <text x="254mm" y="77mm" font-size="24">
   3.0
  </text>
  <circle cx="252.749872mm" cy="73.200269mm" r="1.500269mm" fill="none"/>
  <line x1="255.750410mm" y1="73.200269mm" x2="249.749333mm" y2="73.200269mm" />
  <line x1="252.749872mm" y1="70.199731mm" x2="252.749872mm" y2="76.200808mm" />
  <text x="254mm" y="71mm" font-size="24">
   3.0
  </text>
  <circle cx="254.990170mm" cy="381.999939mm" r="2.500268mm" fill="none"/>
  <line x1="259.990707mm" y1="381.999939mm" x2="249.989633mm" y2="381.999939mm" />
  <line x1="254.990170mm" y1="376.999402mm" x2="254.990170mm" y2="387.000476mm" />
  <text x="257mm" y="379mm" font-size="24">
   5.0
  </text>
  <circle cx="257.750221mm" cy="67.799698mm" r="1.500135mm" fill="none"/>
  <line x1="260.750491mm" y1="67.799698mm" x2="254.749951mm" y2="67.799698mm" />
  <line x1="257.750221mm" y1="64.799428mm" x2="257.750221mm" y2="70.799968mm" />
  <text x="259mm" y="66mm" font-size="24">
   3.0
  </text>
  <circle cx="257.750221mm" cy="59.199698mm" r="1.500135mm" fill="none"/>
  <line x1="260.750491mm" y1="59.199698mm" x2="254.749951mm" y2="59.199698mm" />
  <line x1="257.750221mm" y1="56.199428mm" x2="257.750221mm" y2="62.199968mm" />
  <text x="259mm" y="57mm" font-size="24">
   3.0
  </text>
  <circle cx="295.499964mm" cy="344.499964mm" r="2.200229mm" fill="none"/>
  <line x1="299.900421mm" y1="344.499964mm" x2="291.099507mm" y2="344.499964mm" />
  <line x1="295.499964mm" y1="340.099507mm" x2="295.499964mm" y2="348.900421mm" />
  <text x="297mm" y="342mm" font-size="24">
   4.4
  </text>
  <circle cx="295.499964mm" cy="86.499964mm" r="2.200229mm" fill="none"/>
  <line x1="299.900421mm" y1="86.499964mm" x2="291.099507mm" y2="86.499964mm" />
  <line x1="295.499964mm" y1="82.099507mm" x2="295.499964mm" y2="90.900421mm" />
  <text x="297mm" y="84mm" font-size="24">
   4.4
  </text>
  <circle cx="328.499964mm" cy="344.499964mm" r="2.200229mm" fill="none"/>
  <line x1="332.900421mm" y1="344.499964mm" x2="324.099507mm" y2="344.499964mm" />
  <line x1="328.499964mm" y1="340.099507mm" x2="328.499964mm" y2="348.900421mm" />
  <text x="330mm" y="342mm" font-size="24">
   4.4
  </text>
  <circle cx="328.499964mm" cy="86.499964mm" r="2.200229mm" fill="none"/>
  <line x1="332.900421mm" y1="86.499964mm" x2="324.099507mm" y2="86.499964mm" />
  <line x1="328.499964mm" y1="82.099507mm" x2="328.499964mm" y2="90.900421mm" />
  <text x="330mm" y="84mm" font-size="24">
   4.4
  </text>
  <circle cx="328.499818mm" cy="331.000055mm" r="2.000011mm" fill="none"/>
  <line x1="332.499840mm" y1="331.000055mm" x2="324.499795mm" y2="331.000055mm" />
  <line x1="328.499818mm" y1="327.000033mm" x2="328.499818mm" y2="335.000077mm" />
  <text x="330mm" y="329mm" font-size="24">
   4.0
  </text>
  <circle cx="336.000118mm" cy="323.499873mm" r="1.500017mm" fill="none"/>
  <line x1="339.000152mm" y1="323.499873mm" x2="333.000085mm" y2="323.499873mm" />
  <line x1="336.000118mm" y1="320.499839mm" x2="336.000118mm" y2="326.499907mm" />
  <text x="337mm" y="321mm" font-size="24">
   3.0
  </text>
  <circle cx="336.000118mm" cy="153.099873mm" r="1.500017mm" fill="none"/>
  <line x1="339.000152mm" y1="153.099873mm" x2="333.000085mm" y2="153.099873mm" />
  <line x1="336.000118mm" y1="150.099839mm" x2="336.000118mm" y2="156.099907mm" />
  <text x="337mm" y="151mm" font-size="24">
   3.0
  </text>
  <circle cx="338.899818mm" cy="138.600055mm" r="2.000011mm" fill="none"/>
  <line x1="342.899840mm" y1="138.600055mm" x2="334.899795mm" y2="138.600055mm" />
  <line x1="338.899818mm" y1="134.600033mm" x2="338.899818mm" y2="142.600077mm" />
  <text x="340mm" y="136mm" font-size="24">
   4.0
  </text>
  <circle cx="341.800118mm" cy="323.499873mm" r="1.500017mm" fill="none"/>
  <line x1="344.800152mm" y1="323.499873mm" x2="338.800085mm" y2="323.499873mm" />
  <line x1="341.800118mm" y1="320.499839mm" x2="341.800118mm" y2="326.499907mm" />
  <text x="343mm" y="321mm" font-size="24">
   3.0
  </text>
  <circle cx="341.800118mm" cy="153.099873mm" r="1.500017mm" fill="none"/>
  <line x1="344.800152mm" y1="153.099873mm" x2="338.800085mm" y2="153.099873mm" />
  <line x1="341.800118mm" y1="150.099839mm" x2="341.800118mm" y2="156.099907mm" />
  <text x="343mm" y="151mm" font-size="24">
   3.0
  </text>
  <circle cx="347.200041mm" cy="328.500115mm" r="1.500245mm" fill="none"/>
  <line x1="350.200531mm" y1="328.500115mm" x2="344.199551mm" y2="328.500115mm" />
  <line x1="347.200041mm" y1="325.499625mm" x2="347.200041mm" y2="331.500605mm" />
  <text x="348mm" y="326mm" font-size="24">
   3.0
  </text>
  <circle cx="347.200041mm" cy="158.100115mm" r="1.500245mm" fill="none"/>
  <line x1="350.200531mm" y1="158.100115mm" x2="344.199551mm" y2="158.100115mm" />
  <line x1="347.200041mm" y1="155.099625mm" x2="347.200041mm" y2="161.100605mm" />
  <text x="348mm" y="156mm" font-size="24">
   3.0
  </text>
  <circle cx="350.100170mm" cy="148.099939mm" r="2.500268mm" fill="none"/>
  <line x1="355.100707mm" y1="148.099939mm" x2="345.099633mm" y2="148.099939mm" />
  <line x1="350.100170mm" y1="143.099402mm" x2="350.100170mm" y2="153.100476mm" />
  <text x="352mm" y="145mm" font-size="24">
   5.0
  </text>
  <circle cx="353.000041mm" cy="328.500115mm" r="1.500245mm" fill="none"/>
  <line x1="356.000531mm" y1="328.500115mm" x2="349.999551mm" y2="328.500115mm" />
  <line x1="353.000041mm" y1="325.499625mm" x2="353.000041mm" y2="331.500605mm" />
  <text x="354mm" y="326mm" font-size="24">
   3.0
  </text>
  <circle cx="353.000041mm" cy="158.100115mm" r="1.500245mm" fill="none"/>
  <line x1="356.000531mm" y1="158.100115mm" x2="349.999551mm" y2="158.100115mm" />
  <line x1="353.000041mm" y1="155.099625mm" x2="353.000041mm" y2="161.100605mm" />
  <text x="354mm" y="156mm" font-size="24">
   3.0
  </text>
  <circle cx="360.799964mm" cy="401.289964mm" r="2.200229mm" fill="none"/>
  <line x1="365.200421mm" y1="401.289964mm" x2="356.399507mm" y2="401.289964mm" />
  <line x1="360.799964mm" y1="396.889507mm" x2="360.799964mm" y2="405.690421mm" />
  <text x="363mm" y="399mm" font-size="24">
   4.4
  </text>
  <circle cx="360.799964mm" cy="19.709964mm" r="2.200229mm" fill="none"/>
  <line x1="365.200421mm" y1="19.709964mm" x2="356.399507mm" y2="19.709964mm" />
  <line x1="360.799964mm" y1="15.309507mm" x2="360.799964mm" y2="24.110421mm" />
  <text x="363mm" y="17mm" font-size="24">
   4.4
  </text>
  <circle cx="393.499971mm" cy="210.499864mm" r="4.000103mm" fill="none"/>
  <line x1="401.500177mm" y1="210.499864mm" x2="385.499766mm" y2="210.499864mm" />
  <line x1="393.499971mm" y1="202.499659mm" x2="393.499971mm" y2="218.500070mm" />
  <text x="397mm" y="206mm" font-size="24">
   8.0
  </text>
  <circle cx="391.709964mm" cy="158.799964mm" r="2.200229mm" fill="none"/>
  <line x1="396.110421mm" y1="158.799964mm" x2="387.309507mm" y2="158.799964mm" />
  <line x1="391.709964mm" y1="154.399507mm" x2="391.709964mm" y2="163.200421mm" />
  <text x="393mm" y="156mm" font-size="24">
   4.4
  </text>
  <circle cx="450.789964mm" cy="158.799964mm" r="2.200229mm" fill="none"/>
  <line x1="455.190421mm" y1="158.799964mm" x2="446.389507mm" y2="158.799964mm" />
  <line x1="450.789964mm" y1="154.399507mm" x2="450.789964mm" y2="163.200421mm" />
  <text x="452mm" y="156mm" font-size="24">
   4.4
  </text>
  <circle cx="453.699964mm" cy="137.999964mm" r="2.200229mm" fill="none"/>
  <line x1="458.100421mm" y1="137.999964mm" x2="449.299507mm" y2="137.999964mm" />
  <line x1="453.699964mm" y1="133.599507mm" x2="453.699964mm" y2="142.400421mm" />
  <text x="455mm" y="135mm" font-size="24">
   4.4
  </text>
 </g>
</svg>
