<?xml version="1.0"?>
<svg xmlns="http://www.w3.org/2000/svg" version="1.1" height="178mm" width="398mm" >
 <g style="fill-opacity:1.0; stroke:black; stroke-width:1;">
  <line x1="388.000000mm" y1="167.500000mm" x2="388.000000mm" y2="167.500000mm" />
  <line x1="388.000000mm" y1="167.500000mm" x2="0.000000mm" y2="167.500000mm" />
  <line x1="0.000000mm" y1="167.500000mm" x2="0.000000mm" y2="0.000000mm" />
  <line x1="0.000000mm" y1="0.000000mm" x2="388.000000mm" y2="0.000000mm" />
  <line x1="388.000000mm" y1="0.000000mm" x2="388.000000mm" y2="167.500000mm" />
  <circle cx="8.500151mm" cy="103.499567mm" r="3.499825mm" fill="none"/>
  <line x1="15.499802mm" y1="103.499567mm" x2="1.500500mm" y2="103.499567mm" />
  <line x1="8.500151mm" y1="96.499917mm" x2="8.500151mm" y2="110.499218mm" />
  <text x="11mm" y="99mm" font-size="24">
   7.0
  </text>
  <circle cx="7.500170mm" cy="18.899939mm" r="2.500268mm" fill="none"/>
  <line x1="12.500707mm" y1="18.899939mm" x2="2.499633mm" y2="18.899939mm" />
  <line x1="7.500170mm" y1="13.899402mm" x2="7.500170mm" y2="23.900476mm" />
  <text x="10mm" y="16mm" font-size="24">
   5.0
  </text>
  <circle cx="7.000009mm" cy="90.899777mm" r="1.999983mm" fill="none"/>
  <line x1="10.999974mm" y1="90.899777mm" x2="3.000044mm" y2="90.899777mm" />
  <line x1="7.000009mm" y1="86.899812mm" x2="7.000009mm" y2="94.899742mm" />
  <text x="8mm" y="88mm" font-size="24">
   4.0
  </text>
  <circle cx="7.000009mm" cy="28.399777mm" r="1.999983mm" fill="none"/>
  <line x1="10.999974mm" y1="28.399777mm" x2="3.000044mm" y2="28.399777mm" />
  <line x1="7.000009mm" y1="24.399812mm" x2="7.000009mm" y2="32.399742mm" />
  <text x="8mm" y="26mm" font-size="24">
   4.0
  </text>
  <circle cx="8.199964mm" cy="157.799964mm" r="2.200229mm" fill="none"/>
  <line x1="12.600421mm" y1="157.799964mm" x2="3.799507mm" y2="157.799964mm" />
  <line x1="8.199964mm" y1="153.399507mm" x2="8.199964mm" y2="162.200421mm" />
  <text x="10mm" y="155mm" font-size="24">
   4.4
  </text>
  <circle cx="8.199964mm" cy="137.779964mm" r="2.200229mm" fill="none"/>
  <line x1="12.600421mm" y1="137.779964mm" x2="3.799507mm" y2="137.779964mm" />
  <line x1="8.199964mm" y1="133.379507mm" x2="8.199964mm" y2="142.180421mm" />
  <text x="10mm" y="135mm" font-size="24">
   4.4
  </text>
  <circle cx="26.099964mm" cy="8.199964mm" r="2.200229mm" fill="none"/>
  <line x1="30.500421mm" y1="8.199964mm" x2="21.699507mm" y2="8.199964mm" />
  <line x1="26.099964mm" y1="3.799507mm" x2="26.099964mm" y2="12.600421mm" />
  <text x="28mm" y="5mm" font-size="24">
   4.4
  </text>
  <circle cx="32.899964mm" cy="160.499964mm" r="2.200229mm" fill="none"/>
  <line x1="37.300421mm" y1="160.499964mm" x2="28.499507mm" y2="160.499964mm" />
  <line x1="32.899964mm" y1="156.099507mm" x2="32.899964mm" y2="164.900421mm" />
  <text x="35mm" y="158mm" font-size="24">
   4.4
  </text>
  <circle cx="46.119964mm" cy="8.199964mm" r="2.200229mm" fill="none"/>
  <line x1="50.520421mm" y1="8.199964mm" x2="41.719507mm" y2="8.199964mm" />
  <line x1="46.119964mm" y1="3.799507mm" x2="46.119964mm" y2="12.600421mm" />
  <text x="48mm" y="5mm" font-size="24">
   4.4
  </text>
  <circle cx="149.899964mm" cy="160.499964mm" r="2.200229mm" fill="none"/>
  <line x1="154.300421mm" y1="160.499964mm" x2="145.499507mm" y2="160.499964mm" />
  <line x1="149.899964mm" y1="156.099507mm" x2="149.899964mm" y2="164.900421mm" />
  <text x="152mm" y="158mm" font-size="24">
   4.4
  </text>
  <circle cx="192.049590mm" cy="152.949819mm" r="1.400139mm" fill="none"/>
  <line x1="194.849868mm" y1="152.949819mm" x2="189.249311mm" y2="152.949819mm" />
  <line x1="192.049590mm" y1="150.149540mm" x2="192.049590mm" y2="155.750098mm" />
  <text x="193mm" y="151mm" font-size="24">
   2.8
  </text>
  <circle cx="192.049590mm" cy="121.449819mm" r="1.400139mm" fill="none"/>
  <line x1="194.849868mm" y1="121.449819mm" x2="189.249311mm" y2="121.449819mm" />
  <line x1="192.049590mm" y1="118.649540mm" x2="192.049590mm" y2="124.250098mm" />
  <text x="193mm" y="120mm" font-size="24">
   2.8
  </text>
  <circle cx="206.349590mm" cy="137.049819mm" r="1.400139mm" fill="none"/>
  <line x1="209.149868mm" y1="137.049819mm" x2="203.549311mm" y2="137.049819mm" />
  <line x1="206.349590mm" y1="134.249540mm" x2="206.349590mm" y2="139.850098mm" />
  <text x="207mm" y="135mm" font-size="24">
   2.8
  </text>
  <circle cx="206.349590mm" cy="105.549819mm" r="1.400139mm" fill="none"/>
  <line x1="209.149868mm" y1="105.549819mm" x2="203.549311mm" y2="105.549819mm" />
  <line x1="206.349590mm" y1="102.749540mm" x2="206.349590mm" y2="108.350098mm" />
  <text x="207mm" y="104mm" font-size="24">
   2.8
  </text>
  <circle cx="240.370037mm" cy="107.879798mm" r="1.650231mm" fill="none"/>
  <line x1="243.670499mm" y1="107.879798mm" x2="237.069575mm" y2="107.879798mm" />
  <line x1="240.370037mm" y1="104.579336mm" x2="240.370037mm" y2="111.180260mm" />
  <text x="242mm" y="106mm" font-size="24">
   3.3
  </text>
  <circle cx="241.640037mm" cy="59.619798mm" r="1.650231mm" fill="none"/>
  <line x1="244.940499mm" y1="59.619798mm" x2="238.339575mm" y2="59.619798mm" />
  <line x1="241.640037mm" y1="56.319336mm" x2="241.640037mm" y2="62.920260mm" />
  <text x="243mm" y="57mm" font-size="24">
   3.3
  </text>
  <circle cx="283.511627mm" cy="32.099813mm" r="2.199934mm" fill="none"/>
  <line x1="287.911494mm" y1="32.099813mm" x2="279.111760mm" y2="32.099813mm" />
  <line x1="283.511627mm" y1="27.699946mm" x2="283.511627mm" y2="36.499680mm" />
  <text x="285mm" y="29mm" font-size="24">
   4.4
  </text>
  <circle cx="292.440037mm" cy="102.799798mm" r="1.650231mm" fill="none"/>
  <line x1="295.740499mm" y1="102.799798mm" x2="289.139575mm" y2="102.799798mm" />
  <line x1="292.440037mm" y1="99.499336mm" x2="292.440037mm" y2="106.100260mm" />
  <text x="294mm" y="101mm" font-size="24">
   3.3
  </text>
  <circle cx="292.440037mm" cy="74.859798mm" r="1.650231mm" fill="none"/>
  <line x1="295.740499mm" y1="74.859798mm" x2="289.139575mm" y2="74.859798mm" />
  <line x1="292.440037mm" y1="71.559336mm" x2="292.440037mm" y2="78.160260mm" />
  <text x="294mm" y="73mm" font-size="24">
   3.3
  </text>
  <circle cx="316.879808mm" cy="8.000013mm" r="2.999761mm" fill="none"/>
  <line x1="322.879330mm" y1="8.000013mm" x2="310.880285mm" y2="8.000013mm" />
  <line x1="316.879808mm" y1="2.000490mm" x2="316.879808mm" y2="13.999535mm" />
  <text x="319mm" y="5mm" font-size="24">
   6.0
  </text>
  <circle cx="316.570037mm" cy="59.619798mm" r="1.650231mm" fill="none"/>
  <line x1="319.870499mm" y1="59.619798mm" x2="313.269575mm" y2="59.619798mm" />
  <line x1="316.570037mm" y1="56.319336mm" x2="316.570037mm" y2="62.920260mm" />
  <text x="318mm" y="57mm" font-size="24">
   3.3
  </text>
  <circle cx="322.920037mm" cy="107.879798mm" r="1.650231mm" fill="none"/>
  <line x1="326.220499mm" y1="107.879798mm" x2="319.619575mm" y2="107.879798mm" />
  <line x1="322.920037mm" y1="104.579336mm" x2="322.920037mm" y2="111.180260mm" />
  <text x="324mm" y="106mm" font-size="24">
   3.3
  </text>
  <circle cx="328.779818mm" cy="7.000055mm" r="2.000011mm" fill="none"/>
  <line x1="332.779840mm" y1="7.000055mm" x2="324.779795mm" y2="7.000055mm" />
  <line x1="328.779818mm" y1="3.000033mm" x2="328.779818mm" y2="11.000077mm" />
  <text x="330mm" y="5mm" font-size="24">
   4.0
  </text>
  <circle cx="341.879964mm" cy="8.199964mm" r="2.200229mm" fill="none"/>
  <line x1="346.280421mm" y1="8.199964mm" x2="337.479507mm" y2="8.199964mm" />
  <line x1="341.879964mm" y1="3.799507mm" x2="341.879964mm" y2="12.600421mm" />
  <text x="344mm" y="5mm" font-size="24">
   4.4
  </text>
  <circle cx="361.899964mm" cy="8.199964mm" r="2.200229mm" fill="none"/>
  <line x1="366.300421mm" y1="8.199964mm" x2="357.499507mm" y2="8.199964mm" />
  <line x1="361.899964mm" y1="3.799507mm" x2="361.899964mm" y2="12.600421mm" />
  <text x="364mm" y="5mm" font-size="24">
   4.4
  </text>
 </g>
</svg>
