<?xml version="1.0"?>
<svg xmlns="http://www.w3.org/2000/svg" version="1.1" height="349mm" width="398mm" >
 <g style="fill-opacity:1.0; stroke:black; stroke-width:1;">
  <line x1="388.000000mm" y1="339.000000mm" x2="388.000000mm" y2="339.000000mm" />
  <line x1="388.000000mm" y1="339.000000mm" x2="0.000000mm" y2="339.000000mm" />
  <line x1="0.000000mm" y1="339.000000mm" x2="0.000000mm" y2="171.500000mm" />
  <line x1="0.000000mm" y1="171.500000mm" x2="388.000000mm" y2="171.500000mm" />
  <line x1="388.000000mm" y1="171.500000mm" x2="388.000000mm" y2="339.000000mm" />
  <line x1="388.000000mm" y1="167.500000mm" x2="388.000000mm" y2="167.500000mm" />
  <line x1="388.000000mm" y1="167.500000mm" x2="0.000000mm" y2="167.500000mm" />
  <line x1="0.000000mm" y1="167.500000mm" x2="0.000000mm" y2="0.000000mm" />
  <line x1="0.000000mm" y1="0.000000mm" x2="388.000000mm" y2="0.000000mm" />
  <line x1="388.000000mm" y1="0.000000mm" x2="388.000000mm" y2="167.500000mm" />
  <circle cx="8.500151mm" cy="274.999567mm" r="3.499825mm" fill="none"/>
  <line x1="15.499802mm" y1="274.999567mm" x2="1.500500mm" y2="274.999567mm" />
  <line x1="8.500151mm" y1="267.999917mm" x2="8.500151mm" y2="281.999218mm" />
  <text x="11mm" y="271mm" font-size="24">
   7.0
  </text>
  <circle cx="7.500170mm" cy="190.399939mm" r="2.500268mm" fill="none"/>
  <line x1="12.500707mm" y1="190.399939mm" x2="2.499633mm" y2="190.399939mm" />
  <line x1="7.500170mm" y1="185.399402mm" x2="7.500170mm" y2="195.400476mm" />
  <text x="10mm" y="187mm" font-size="24">
   5.0
  </text>
  <circle cx="7.000009mm" cy="262.399777mm" r="1.999983mm" fill="none"/>
  <line x1="10.999974mm" y1="262.399777mm" x2="3.000044mm" y2="262.399777mm" />
  <line x1="7.000009mm" y1="258.399812mm" x2="7.000009mm" y2="266.399742mm" />
  <text x="8mm" y="260mm" font-size="24">
   4.0
  </text>
  <circle cx="7.000009mm" cy="199.899777mm" r="1.999983mm" fill="none"/>
  <line x1="10.999974mm" y1="199.899777mm" x2="3.000044mm" y2="199.899777mm" />
  <line x1="7.000009mm" y1="195.899812mm" x2="7.000009mm" y2="203.899742mm" />
  <text x="8mm" y="197mm" font-size="24">
   4.0
  </text>
  <circle cx="8.199964mm" cy="329.299964mm" r="2.200229mm" fill="none"/>
  <line x1="12.600421mm" y1="329.299964mm" x2="3.799507mm" y2="329.299964mm" />
  <line x1="8.199964mm" y1="324.899507mm" x2="8.199964mm" y2="333.700421mm" />
  <text x="10mm" y="327mm" font-size="24">
   4.4
  </text>
  <circle cx="8.199964mm" cy="309.279964mm" r="2.200229mm" fill="none"/>
  <line x1="12.600421mm" y1="309.279964mm" x2="3.799507mm" y2="309.279964mm" />
  <line x1="8.199964mm" y1="304.879507mm" x2="8.199964mm" y2="313.680421mm" />
  <text x="10mm" y="307mm" font-size="24">
   4.4
  </text>
  <circle cx="8.199964mm" cy="29.719964mm" r="2.200229mm" fill="none"/>
  <line x1="12.600421mm" y1="29.719964mm" x2="3.799507mm" y2="29.719964mm" />
  <line x1="8.199964mm" y1="25.319507mm" x2="8.199964mm" y2="34.120421mm" />
  <text x="10mm" y="27mm" font-size="24">
   4.4
  </text>
  <circle cx="8.199964mm" cy="9.699964mm" r="2.200229mm" fill="none"/>
  <line x1="12.600421mm" y1="9.699964mm" x2="3.799507mm" y2="9.699964mm" />
  <line x1="8.199964mm" y1="5.299507mm" x2="8.199964mm" y2="14.100421mm" />
  <text x="10mm" y="7mm" font-size="24">
   4.4
  </text>
  <circle cx="26.099964mm" cy="179.699964mm" r="2.200229mm" fill="none"/>
  <line x1="30.500421mm" y1="179.699964mm" x2="21.699507mm" y2="179.699964mm" />
  <line x1="26.099964mm" y1="175.299507mm" x2="26.099964mm" y2="184.100421mm" />
  <text x="28mm" y="177mm" font-size="24">
   4.4
  </text>
  <circle cx="26.099964mm" cy="159.299964mm" r="2.200229mm" fill="none"/>
  <line x1="30.500421mm" y1="159.299964mm" x2="21.699507mm" y2="159.299964mm" />
  <line x1="26.099964mm" y1="154.899507mm" x2="26.099964mm" y2="163.700421mm" />
  <text x="28mm" y="157mm" font-size="24">
   4.4
  </text>
  <circle cx="32.899964mm" cy="331.999964mm" r="2.200229mm" fill="none"/>
  <line x1="37.300421mm" y1="331.999964mm" x2="28.499507mm" y2="331.999964mm" />
  <line x1="32.899964mm" y1="327.599507mm" x2="32.899964mm" y2="336.400421mm" />
  <text x="35mm" y="329mm" font-size="24">
   4.4
  </text>
  <circle cx="46.119964mm" cy="179.699964mm" r="2.200229mm" fill="none"/>
  <line x1="50.520421mm" y1="179.699964mm" x2="41.719507mm" y2="179.699964mm" />
  <line x1="46.119964mm" y1="175.299507mm" x2="46.119964mm" y2="184.100421mm" />
  <text x="48mm" y="177mm" font-size="24">
   4.4
  </text>
  <circle cx="46.119964mm" cy="159.299964mm" r="2.200229mm" fill="none"/>
  <line x1="50.520421mm" y1="159.299964mm" x2="41.719507mm" y2="159.299964mm" />
  <line x1="46.119964mm" y1="154.899507mm" x2="46.119964mm" y2="163.700421mm" />
  <text x="48mm" y="157mm" font-size="24">
   4.4
  </text>
  <circle cx="51.749964mm" cy="144.849964mm" r="2.200229mm" fill="none"/>
  <line x1="56.150421mm" y1="144.849964mm" x2="47.349507mm" y2="144.849964mm" />
  <line x1="51.749964mm" y1="140.449507mm" x2="51.749964mm" y2="149.250421mm" />
  <text x="53mm" y="142mm" font-size="24">
   4.4
  </text>
  <circle cx="51.749964mm" cy="73.349964mm" r="2.200229mm" fill="none"/>
  <line x1="56.150421mm" y1="73.349964mm" x2="47.349507mm" y2="73.349964mm" />
  <line x1="51.749964mm" y1="68.949507mm" x2="51.749964mm" y2="77.750421mm" />
  <text x="53mm" y="71mm" font-size="24">
   4.4
  </text>
  <circle cx="87.500225mm" cy="109.099651mm" r="37.499925mm" fill="none"/>
  <line x1="162.500075mm" y1="109.099651mm" x2="12.500375mm" y2="109.099651mm" />
  <line x1="87.500225mm" y1="34.099800mm" x2="87.500225mm" y2="184.099501mm" />
  <text x="125mm" y="71mm" font-size="24">
   75.0
  </text>
  <circle cx="123.249964mm" cy="144.849964mm" r="2.200229mm" fill="none"/>
  <line x1="127.650421mm" y1="144.849964mm" x2="118.849507mm" y2="144.849964mm" />
  <line x1="123.249964mm" y1="140.449507mm" x2="123.249964mm" y2="149.250421mm" />
  <text x="125mm" y="142mm" font-size="24">
   4.4
  </text>
  <circle cx="123.249964mm" cy="73.349964mm" r="2.200229mm" fill="none"/>
  <line x1="127.650421mm" y1="73.349964mm" x2="118.849507mm" y2="73.349964mm" />
  <line x1="123.249964mm" y1="68.949507mm" x2="123.249964mm" y2="77.750421mm" />
  <text x="125mm" y="71mm" font-size="24">
   4.4
  </text>
  <circle cx="149.899964mm" cy="331.999964mm" r="2.200229mm" fill="none"/>
  <line x1="154.300421mm" y1="331.999964mm" x2="145.499507mm" y2="331.999964mm" />
  <line x1="149.899964mm" y1="327.599507mm" x2="149.899964mm" y2="336.400421mm" />
  <text x="152mm" y="329mm" font-size="24">
   4.4
  </text>
  <circle cx="192.049590mm" cy="324.449819mm" r="1.400139mm" fill="none"/>
  <line x1="194.849868mm" y1="324.449819mm" x2="189.249311mm" y2="324.449819mm" />
  <line x1="192.049590mm" y1="321.649540mm" x2="192.049590mm" y2="327.250098mm" />
  <text x="193mm" y="323mm" font-size="24">
   2.8
  </text>
  <circle cx="192.049590mm" cy="292.949819mm" r="1.400139mm" fill="none"/>
  <line x1="194.849868mm" y1="292.949819mm" x2="189.249311mm" y2="292.949819mm" />
  <line x1="192.049590mm" y1="290.149540mm" x2="192.049590mm" y2="295.750098mm" />
  <text x="193mm" y="291mm" font-size="24">
   2.8
  </text>
  <circle cx="206.349590mm" cy="308.549819mm" r="1.400139mm" fill="none"/>
  <line x1="209.149868mm" y1="308.549819mm" x2="203.549311mm" y2="308.549819mm" />
  <line x1="206.349590mm" y1="305.749540mm" x2="206.349590mm" y2="311.350098mm" />
  <text x="207mm" y="307mm" font-size="24">
   2.8
  </text>
  <circle cx="206.349590mm" cy="277.049819mm" r="1.400139mm" fill="none"/>
  <line x1="209.149868mm" y1="277.049819mm" x2="203.549311mm" y2="277.049819mm" />
  <line x1="206.349590mm" y1="274.249540mm" x2="206.349590mm" y2="279.850098mm" />
  <text x="207mm" y="275mm" font-size="24">
   2.8
  </text>
  <circle cx="240.370037mm" cy="279.379798mm" r="1.650231mm" fill="none"/>
  <line x1="243.670499mm" y1="279.379798mm" x2="237.069575mm" y2="279.379798mm" />
  <line x1="240.370037mm" y1="276.079336mm" x2="240.370037mm" y2="282.680260mm" />
  <text x="242mm" y="277mm" font-size="24">
   3.3
  </text>
  <circle cx="241.640037mm" cy="231.119798mm" r="1.650231mm" fill="none"/>
  <line x1="244.940499mm" y1="231.119798mm" x2="238.339575mm" y2="231.119798mm" />
  <line x1="241.640037mm" y1="227.819336mm" x2="241.640037mm" y2="234.420260mm" />
  <text x="243mm" y="229mm" font-size="24">
   3.3
  </text>
  <circle cx="283.511627mm" cy="203.599813mm" r="2.199934mm" fill="none"/>
  <line x1="287.911494mm" y1="203.599813mm" x2="279.111760mm" y2="203.599813mm" />
  <line x1="283.511627mm" y1="199.199946mm" x2="283.511627mm" y2="207.999680mm" />
  <text x="285mm" y="201mm" font-size="24">
   4.4
  </text>
  <circle cx="283.511627mm" cy="78.599813mm" r="2.199934mm" fill="none"/>
  <line x1="287.911494mm" y1="78.599813mm" x2="279.111760mm" y2="78.599813mm" />
  <line x1="283.511627mm" y1="74.199946mm" x2="283.511627mm" y2="82.999680mm" />
  <text x="285mm" y="76mm" font-size="24">
   4.4
  </text>
  <circle cx="292.440037mm" cy="274.299798mm" r="1.650231mm" fill="none"/>
  <line x1="295.740499mm" y1="274.299798mm" x2="289.139575mm" y2="274.299798mm" />
  <line x1="292.440037mm" y1="270.999336mm" x2="292.440037mm" y2="277.600260mm" />
  <text x="294mm" y="272mm" font-size="24">
   3.3
  </text>
  <circle cx="292.440037mm" cy="246.359798mm" r="1.650231mm" fill="none"/>
  <line x1="295.740499mm" y1="246.359798mm" x2="289.139575mm" y2="246.359798mm" />
  <line x1="292.440037mm" y1="243.059336mm" x2="292.440037mm" y2="249.660260mm" />
  <text x="294mm" y="244mm" font-size="24">
   3.3
  </text>
  <circle cx="316.879808mm" cy="179.500013mm" r="2.999761mm" fill="none"/>
  <line x1="322.879330mm" y1="179.500013mm" x2="310.880285mm" y2="179.500013mm" />
  <line x1="316.879808mm" y1="173.500490mm" x2="316.879808mm" y2="185.499535mm" />
  <text x="319mm" y="176mm" font-size="24">
   6.0
  </text>
  <circle cx="316.879808mm" cy="159.500013mm" r="2.999761mm" fill="none"/>
  <line x1="322.879330mm" y1="159.500013mm" x2="310.880285mm" y2="159.500013mm" />
  <line x1="316.879808mm" y1="153.500490mm" x2="316.879808mm" y2="165.499535mm" />
  <text x="319mm" y="156mm" font-size="24">
   6.0
  </text>
  <circle cx="316.570037mm" cy="231.119798mm" r="1.650231mm" fill="none"/>
  <line x1="319.870499mm" y1="231.119798mm" x2="313.269575mm" y2="231.119798mm" />
  <line x1="316.570037mm" y1="227.819336mm" x2="316.570037mm" y2="234.420260mm" />
  <text x="318mm" y="229mm" font-size="24">
   3.3
  </text>
  <circle cx="322.920037mm" cy="279.379798mm" r="1.650231mm" fill="none"/>
  <line x1="326.220499mm" y1="279.379798mm" x2="319.619575mm" y2="279.379798mm" />
  <line x1="322.920037mm" y1="276.079336mm" x2="322.920037mm" y2="282.680260mm" />
  <text x="324mm" y="277mm" font-size="24">
   3.3
  </text>
  <circle cx="328.779818mm" cy="178.500055mm" r="2.000011mm" fill="none"/>
  <line x1="332.779840mm" y1="178.500055mm" x2="324.779795mm" y2="178.500055mm" />
  <line x1="328.779818mm" y1="174.500033mm" x2="328.779818mm" y2="182.500077mm" />
  <text x="330mm" y="176mm" font-size="24">
   4.0
  </text>
  <circle cx="328.779818mm" cy="160.500055mm" r="2.000011mm" fill="none"/>
  <line x1="332.779840mm" y1="160.500055mm" x2="324.779795mm" y2="160.500055mm" />
  <line x1="328.779818mm" y1="156.500033mm" x2="328.779818mm" y2="164.500077mm" />
  <text x="330mm" y="158mm" font-size="24">
   4.0
  </text>
  <circle cx="341.879964mm" cy="179.699964mm" r="2.200229mm" fill="none"/>
  <line x1="346.280421mm" y1="179.699964mm" x2="337.479507mm" y2="179.699964mm" />
  <line x1="341.879964mm" y1="175.299507mm" x2="341.879964mm" y2="184.100421mm" />
  <text x="344mm" y="177mm" font-size="24">
   4.4
  </text>
  <circle cx="341.879964mm" cy="159.299964mm" r="2.200229mm" fill="none"/>
  <line x1="346.280421mm" y1="159.299964mm" x2="337.479507mm" y2="159.299964mm" />
  <line x1="341.879964mm" y1="154.899507mm" x2="341.879964mm" y2="163.700421mm" />
  <text x="344mm" y="157mm" font-size="24">
   4.4
  </text>
  <circle cx="361.899964mm" cy="179.699964mm" r="2.200229mm" fill="none"/>
  <line x1="366.300421mm" y1="179.699964mm" x2="357.499507mm" y2="179.699964mm" />
  <line x1="361.899964mm" y1="175.299507mm" x2="361.899964mm" y2="184.100421mm" />
  <text x="364mm" y="177mm" font-size="24">
   4.4
  </text>
  <circle cx="361.899964mm" cy="159.299964mm" r="2.200229mm" fill="none"/>
  <line x1="366.300421mm" y1="159.299964mm" x2="357.499507mm" y2="159.299964mm" />
  <line x1="361.899964mm" y1="154.899507mm" x2="361.899964mm" y2="163.700421mm" />
  <text x="364mm" y="157mm" font-size="24">
   4.4
  </text>
 </g>
</svg>
