  0
SECTION
  2
BLOCKS
  0
ENDSEC
  0
SECTION
  2
ENTITIES
  0
LINE
  8
0
 10
-105.75
 11
-105.655
 20
-104.5
 21
-104.022
  0
LINE
  8
0
 10
-105.655
 11
-105.384
 20
-104.022
 21
-103.616
  0
LINE
  8
0
 10
-105.384
 11
-104.978
 20
-103.616
 21
-103.345
  0
LINE
  8
0
 10
-104.978
 11
-104.5
 20
-103.345
 21
-103.25
  0
LINE
  8
0
 10
-104.5
 11
-104.022
 20
-103.25
 21
-103.345
  0
LINE
  8
0
 10
-104.022
 11
-103.616
 20
-103.345
 21
-103.616
  0
LINE
  8
0
 10
-103.616
 11
-103.345
 20
-103.616
 21
-104.022
  0
LINE
  8
0
 10
-103.345
 11
-103.25
 20
-104.022
 21
-104.5
  0
LINE
  8
0
 10
-103.25
 11
-103.345
 20
-104.5
 21
-104.978
  0
LINE
  8
0
 10
-103.345
 11
-103.616
 20
-104.978
 21
-105.384
  0
LINE
  8
0
 10
-103.616
 11
-104.022
 20
-105.384
 21
-105.655
  0
LINE
  8
0
 10
-104.022
 11
-104.5
 20
-105.655
 21
-105.75
  0
LINE
  8
0
 10
-104.5
 11
-104.978
 20
-105.75
 21
-105.655
  0
LINE
  8
0
 10
-104.978
 11
-105.384
 20
-105.655
 21
-105.384
  0
LINE
  8
0
 10
-105.384
 11
-105.655
 20
-105.384
 21
-104.978
  0
LINE
  8
0
 10
-105.655
 11
-105.75
 20
-104.978
 21
-104.5
  0
LINE
  8
0
 10
-105.75
 11
-105.655
 20
104.5
 21
104.978
  0
LINE
  8
0
 10
-105.655
 11
-105.384
 20
104.978
 21
105.384
  0
LINE
  8
0
 10
-105.384
 11
-104.978
 20
105.384
 21
105.655
  0
LINE
  8
0
 10
-104.978
 11
-104.5
 20
105.655
 21
105.75
  0
LINE
  8
0
 10
-104.5
 11
-104.022
 20
105.75
 21
105.655
  0
LINE
  8
0
 10
-104.022
 11
-103.616
 20
105.655
 21
105.384
  0
LINE
  8
0
 10
-103.616
 11
-103.345
 20
105.384
 21
104.978
  0
LINE
  8
0
 10
-103.345
 11
-103.25
 20
104.978
 21
104.5
  0
LINE
  8
0
 10
-103.25
 11
-103.345
 20
104.5
 21
104.022
  0
LINE
  8
0
 10
-103.345
 11
-103.616
 20
104.022
 21
103.616
  0
LINE
  8
0
 10
-103.616
 11
-104.022
 20
103.616
 21
103.345
  0
LINE
  8
0
 10
-104.022
 11
-104.5
 20
103.345
 21
103.25
  0
LINE
  8
0
 10
-104.5
 11
-104.978
 20
103.25
 21
103.345
  0
LINE
  8
0
 10
-104.978
 11
-105.384
 20
103.345
 21
103.616
  0
LINE
  8
0
 10
-105.384
 11
-105.655
 20
103.616
 21
104.022
  0
LINE
  8
0
 10
-105.655
 11
-105.75
 20
104.022
 21
104.5
  0
LINE
  8
0
 10
-108
 11
-107.959
 20
105
 21
105.494
  0
LINE
  8
0
 10
-107.959
 11
-107.837
 20
105.494
 21
105.974
  0
LINE
  8
0
 10
-107.837
 11
-107.638
 20
105.974
 21
106.428
  0
LINE
  8
0
 10
-107.638
 11
-107.367
 20
106.428
 21
106.843
  0
LINE
  8
0
 10
-107.367
 11
-107.032
 20
106.843
 21
107.207
  0
LINE
  8
0
 10
-107.032
 11
-106.641
 20
107.207
 21
107.511
  0
LINE
  8
0
 10
-106.641
 11
-106.205
 20
107.511
 21
107.747
  0
LINE
  8
0
 10
-106.205
 11
-105.736
 20
107.747
 21
107.908
  0
LINE
  8
0
 10
-105.736
 11
-105.248
 20
107.908
 21
107.99
  0
LINE
  8
0
 10
-105.248
 11
-18.51
 20
107.99
 21
107.994
  0
LINE
  8
0
 10
-18.51
 11
-18.51
 20
107.994
 21
103.9
  0
LINE
  8
0
 10
-18.51
 11
18.51
 20
103.9
 21
103.9
  0
LINE
  8
0
 10
18.51
 11
18.51
 20
103.9
 21
107.996
  0
LINE
  8
0
 10
18.51
 11
105
 20
107.996
 21
108
  0
LINE
  8
0
 10
105
 11
105.494
 20
108
 21
107.959
  0
LINE
  8
0
 10
105.494
 11
105.974
 20
107.959
 21
107.837
  0
LINE
  8
0
 10
105.974
 11
106.428
 20
107.837
 21
107.638
  0
LINE
  8
0
 10
106.428
 11
106.843
 20
107.638
 21
107.367
  0
LINE
  8
0
 10
106.843
 11
107.207
 20
107.367
 21
107.032
  0
LINE
  8
0
 10
107.207
 11
107.511
 20
107.032
 21
106.641
  0
LINE
  8
0
 10
107.511
 11
107.747
 20
106.641
 21
106.205
  0
LINE
  8
0
 10
107.747
 11
107.908
 20
106.205
 21
105.736
  0
LINE
  8
0
 10
107.908
 11
107.99
 20
105.736
 21
105.248
  0
LINE
  8
0
 10
107.99
 11
108
 20
105.248
 21
-105
  0
LINE
  8
0
 10
108
 11
107.959
 20
-105
 21
-105.494
  0
LINE
  8
0
 10
107.959
 11
107.837
 20
-105.494
 21
-105.974
  0
LINE
  8
0
 10
107.837
 11
107.638
 20
-105.974
 21
-106.428
  0
LINE
  8
0
 10
107.638
 11
107.367
 20
-106.428
 21
-106.843
  0
LINE
  8
0
 10
107.367
 11
107.032
 20
-106.843
 21
-107.207
  0
LINE
  8
0
 10
107.032
 11
106.641
 20
-107.207
 21
-107.511
  0
LINE
  8
0
 10
106.641
 11
106.205
 20
-107.511
 21
-107.747
  0
LINE
  8
0
 10
106.205
 11
105.736
 20
-107.747
 21
-107.908
  0
LINE
  8
0
 10
105.736
 11
105.248
 20
-107.908
 21
-107.99
  0
LINE
  8
0
 10
105.248
 11
-105
 20
-107.99
 21
-108
  0
LINE
  8
0
 10
-105
 11
-105.494
 20
-108
 21
-107.959
  0
LINE
  8
0
 10
-105.494
 11
-105.974
 20
-107.959
 21
-107.837
  0
LINE
  8
0
 10
-105.974
 11
-106.428
 20
-107.837
 21
-107.638
  0
LINE
  8
0
 10
-106.428
 11
-106.843
 20
-107.638
 21
-107.367
  0
LINE
  8
0
 10
-106.843
 11
-107.207
 20
-107.367
 21
-107.032
  0
LINE
  8
0
 10
-107.207
 11
-107.511
 20
-107.032
 21
-106.641
  0
LINE
  8
0
 10
-107.511
 11
-107.747
 20
-106.641
 21
-106.205
  0
LINE
  8
0
 10
-107.747
 11
-107.908
 20
-106.205
 21
-105.736
  0
LINE
  8
0
 10
-107.908
 11
-107.99
 20
-105.736
 21
-105.248
  0
LINE
  8
0
 10
-107.99
 11
-108
 20
-105.248
 21
105
  0
LINE
  8
0
 10
-104.15
 11
-104.077
 20
-88.5
 21
-88.014
  0
LINE
  8
0
 10
-104.077
 11
-103.863
 20
-88.014
 21
-87.571
  0
LINE
  8
0
 10
-103.863
 11
-103.529
 20
-87.571
 21
-87.21
  0
LINE
  8
0
 10
-103.529
 11
-103.103
 20
-87.21
 21
-86.964
  0
LINE
  8
0
 10
-103.103
 11
-102.623
 20
-86.964
 21
-86.855
  0
LINE
  8
0
 10
-102.623
 11
-102.133
 20
-86.855
 21
-86.891
  0
LINE
  8
0
 10
-102.133
 11
-101.675
 20
-86.891
 21
-87.071
  0
LINE
  8
0
 10
-101.675
 11
-101.29
 20
-87.071
 21
-87.378
  0
LINE
  8
0
 10
-101.29
 11
-101.013
 20
-87.378
 21
-87.784
  0
LINE
  8
0
 10
-101.013
 11
-100.868
 20
-87.784
 21
-88.254
  0
LINE
  8
0
 10
-100.868
 11
-100.868
 20
-88.254
 21
-88.746
  0
LINE
  8
0
 10
-100.868
 11
-101.013
 20
-88.746
 21
-89.216
  0
LINE
  8
0
 10
-101.013
 11
-101.29
 20
-89.216
 21
-89.622
  0
LINE
  8
0
 10
-101.29
 11
-101.675
 20
-89.622
 21
-89.929
  0
LINE
  8
0
 10
-101.675
 11
-102.133
 20
-89.929
 21
-90.109
  0
LINE
  8
0
 10
-102.133
 11
-102.623
 20
-90.109
 21
-90.145
  0
LINE
  8
0
 10
-102.623
 11
-103.103
 20
-90.145
 21
-90.036
  0
LINE
  8
0
 10
-103.103
 11
-103.529
 20
-90.036
 21
-89.79
  0
LINE
  8
0
 10
-103.529
 11
-103.863
 20
-89.79
 21
-89.429
  0
LINE
  8
0
 10
-103.863
 11
-104.077
 20
-89.429
 21
-88.986
  0
LINE
  8
0
 10
-104.077
 11
-104.15
 20
-88.986
 21
-88.5
  0
LINE
  8
0
 10
-104.15
 11
-104.077
 20
67.5
 21
67.986
  0
LINE
  8
0
 10
-104.077
 11
-103.863
 20
67.986
 21
68.429
  0
LINE
  8
0
 10
-103.863
 11
-103.529
 20
68.429
 21
68.79
  0
LINE
  8
0
 10
-103.529
 11
-103.103
 20
68.79
 21
69.036
  0
LINE
  8
0
 10
-103.103
 11
-102.623
 20
69.036
 21
69.145
  0
LINE
  8
0
 10
-102.623
 11
-102.133
 20
69.145
 21
69.109
  0
LINE
  8
0
 10
-102.133
 11
-101.675
 20
69.109
 21
68.929
  0
LINE
  8
0
 10
-101.675
 11
-101.29
 20
68.929
 21
68.622
  0
LINE
  8
0
 10
-101.29
 11
-101.013
 20
68.622
 21
68.216
  0
LINE
  8
0
 10
-101.013
 11
-100.868
 20
68.216
 21
67.746
  0
LINE
  8
0
 10
-100.868
 11
-100.868
 20
67.746
 21
67.254
  0
LINE
  8
0
 10
-100.868
 11
-101.013
 20
67.254
 21
66.784
  0
LINE
  8
0
 10
-101.013
 11
-101.29
 20
66.784
 21
66.378
  0
LINE
  8
0
 10
-101.29
 11
-101.675
 20
66.378
 21
66.071
  0
LINE
  8
0
 10
-101.675
 11
-102.133
 20
66.071
 21
65.891
  0
LINE
  8
0
 10
-102.133
 11
-102.623
 20
65.891
 21
65.855
  0
LINE
  8
0
 10
-102.623
 11
-103.103
 20
65.855
 21
65.964
  0
LINE
  8
0
 10
-103.103
 11
-103.529
 20
65.964
 21
66.21
  0
LINE
  8
0
 10
-103.529
 11
-103.863
 20
66.21
 21
66.571
  0
LINE
  8
0
 10
-103.863
 11
-104.077
 20
66.571
 21
67.014
  0
LINE
  8
0
 10
-104.077
 11
-104.15
 20
67.014
 21
67.5
  0
LINE
  8
0
 10
-73.15
 11
-73.077
 20
-67.5
 21
-67.014
  0
LINE
  8
0
 10
-73.077
 11
-72.863
 20
-67.014
 21
-66.571
  0
LINE
  8
0
 10
-72.863
 11
-72.529
 20
-66.571
 21
-66.21
  0
LINE
  8
0
 10
-72.529
 11
-72.103
 20
-66.21
 21
-65.964
  0
LINE
  8
0
 10
-72.103
 11
-71.623
 20
-65.964
 21
-65.855
  0
LINE
  8
0
 10
-71.623
 11
-71.133
 20
-65.855
 21
-65.891
  0
LINE
  8
0
 10
-71.133
 11
-70.675
 20
-65.891
 21
-66.071
  0
LINE
  8
0
 10
-70.675
 11
-70.29
 20
-66.071
 21
-66.378
  0
LINE
  8
0
 10
-70.29
 11
-70.013
 20
-66.378
 21
-66.784
  0
LINE
  8
0
 10
-70.013
 11
-69.868
 20
-66.784
 21
-67.254
  0
LINE
  8
0
 10
-69.868
 11
-69.868
 20
-67.254
 21
-67.746
  0
LINE
  8
0
 10
-69.868
 11
-70.013
 20
-67.746
 21
-68.216
  0
LINE
  8
0
 10
-70.013
 11
-70.29
 20
-68.216
 21
-68.622
  0
LINE
  8
0
 10
-70.29
 11
-70.675
 20
-68.622
 21
-68.929
  0
LINE
  8
0
 10
-70.675
 11
-71.133
 20
-68.929
 21
-69.109
  0
LINE
  8
0
 10
-71.133
 11
-71.623
 20
-69.109
 21
-69.145
  0
LINE
  8
0
 10
-71.623
 11
-72.103
 20
-69.145
 21
-69.036
  0
LINE
  8
0
 10
-72.103
 11
-72.529
 20
-69.036
 21
-68.79
  0
LINE
  8
0
 10
-72.529
 11
-72.863
 20
-68.79
 21
-68.429
  0
LINE
  8
0
 10
-72.863
 11
-73.077
 20
-68.429
 21
-67.986
  0
LINE
  8
0
 10
-73.077
 11
-73.15
 20
-67.986
 21
-67.5
  0
LINE
  8
0
 10
-73.15
 11
-73.077
 20
88.5
 21
88.986
  0
LINE
  8
0
 10
-73.077
 11
-72.863
 20
88.986
 21
89.429
  0
LINE
  8
0
 10
-72.863
 11
-72.529
 20
89.429
 21
89.79
  0
LINE
  8
0
 10
-72.529
 11
-72.103
 20
89.79
 21
90.036
  0
LINE
  8
0
 10
-72.103
 11
-71.623
 20
90.036
 21
90.145
  0
LINE
  8
0
 10
-71.623
 11
-71.133
 20
90.145
 21
90.109
  0
LINE
  8
0
 10
-71.133
 11
-70.675
 20
90.109
 21
89.929
  0
LINE
  8
0
 10
-70.675
 11
-70.29
 20
89.929
 21
89.622
  0
LINE
  8
0
 10
-70.29
 11
-70.013
 20
89.622
 21
89.216
  0
LINE
  8
0
 10
-70.013
 11
-69.868
 20
89.216
 21
88.746
  0
LINE
  8
0
 10
-69.868
 11
-69.868
 20
88.746
 21
88.254
  0
LINE
  8
0
 10
-69.868
 11
-70.013
 20
88.254
 21
87.784
  0
LINE
  8
0
 10
-70.013
 11
-70.29
 20
87.784
 21
87.378
  0
LINE
  8
0
 10
-70.29
 11
-70.675
 20
87.378
 21
87.071
  0
LINE
  8
0
 10
-70.675
 11
-71.133
 20
87.071
 21
86.891
  0
LINE
  8
0
 10
-71.133
 11
-71.623
 20
86.891
 21
86.855
  0
LINE
  8
0
 10
-71.623
 11
-72.103
 20
86.855
 21
86.964
  0
LINE
  8
0
 10
-72.103
 11
-72.529
 20
86.964
 21
87.21
  0
LINE
  8
0
 10
-72.529
 11
-72.863
 20
87.21
 21
87.571
  0
LINE
  8
0
 10
-72.863
 11
-73.077
 20
87.571
 21
88.014
  0
LINE
  8
0
 10
-73.077
 11
-73.15
 20
88.014
 21
88.5
  0
LINE
  8
0
 10
-33.16
 11
-33.087
 20
-53.175
 21
-52.688
  0
LINE
  8
0
 10
-33.087
 11
-32.873
 20
-52.688
 21
-52.245
  0
LINE
  8
0
 10
-32.873
 11
-32.539
 20
-52.245
 21
-51.885
  0
LINE
  8
0
 10
-32.539
 11
-32.113
 20
-51.885
 21
-51.639
  0
LINE
  8
0
 10
-32.113
 11
-31.633
 20
-51.639
 21
-51.529
  0
LINE
  8
0
 10
-31.633
 11
-31.143
 20
-51.529
 21
-51.566
  0
LINE
  8
0
 10
-31.143
 11
-30.685
 20
-51.566
 21
-51.746
  0
LINE
  8
0
 10
-30.685
 11
-30.3
 20
-51.746
 21
-52.052
  0
LINE
  8
0
 10
-30.3
 11
-30.023
 20
-52.052
 21
-52.459
  0
LINE
  8
0
 10
-30.023
 11
-29.878
 20
-52.459
 21
-52.929
  0
LINE
  8
0
 10
-29.878
 11
-29.878
 20
-52.929
 21
-53.421
  0
LINE
  8
0
 10
-29.878
 11
-30.023
 20
-53.421
 21
-53.89
  0
LINE
  8
0
 10
-30.023
 11
-30.3
 20
-53.89
 21
-54.297
  0
LINE
  8
0
 10
-30.3
 11
-30.685
 20
-54.297
 21
-54.604
  0
LINE
  8
0
 10
-30.685
 11
-31.143
 20
-54.604
 21
-54.783
  0
LINE
  8
0
 10
-31.143
 11
-31.633
 20
-54.783
 21
-54.82
  0
LINE
  8
0
 10
-31.633
 11
-32.113
 20
-54.82
 21
-54.711
  0
LINE
  8
0
 10
-32.113
 11
-32.539
 20
-54.711
 21
-54.465
  0
LINE
  8
0
 10
-32.539
 11
-32.873
 20
-54.465
 21
-54.104
  0
LINE
  8
0
 10
-32.873
 11
-33.087
 20
-54.104
 21
-53.661
  0
LINE
  8
0
 10
-33.087
 11
-33.16
 20
-53.661
 21
-53.175
  0
LINE
  8
0
 10
-33.16
 11
-33.087
 20
-38.525
 21
-38.039
  0
LINE
  8
0
 10
-33.087
 11
-32.873
 20
-38.039
 21
-37.596
  0
LINE
  8
0
 10
-32.873
 11
-32.539
 20
-37.596
 21
-37.235
  0
LINE
  8
0
 10
-32.539
 11
-32.113
 20
-37.235
 21
-36.989
  0
LINE
  8
0
 10
-32.113
 11
-31.633
 20
-36.989
 21
-36.88
  0
LINE
  8
0
 10
-31.633
 11
-31.143
 20
-36.88
 21
-36.917
  0
LINE
  8
0
 10
-31.143
 11
-30.685
 20
-36.917
 21
-37.096
  0
LINE
  8
0
 10
-30.685
 11
-30.3
 20
-37.096
 21
-37.403
  0
LINE
  8
0
 10
-30.3
 11
-30.023
 20
-37.403
 21
-37.81
  0
LINE
  8
0
 10
-30.023
 11
-29.878
 20
-37.81
 21
-38.279
  0
LINE
  8
0
 10
-29.878
 11
-29.878
 20
-38.279
 21
-38.771
  0
LINE
  8
0
 10
-29.878
 11
-30.023
 20
-38.771
 21
-39.241
  0
LINE
  8
0
 10
-30.023
 11
-30.3
 20
-39.241
 21
-39.648
  0
LINE
  8
0
 10
-30.3
 11
-30.685
 20
-39.648
 21
-39.954
  0
LINE
  8
0
 10
-30.685
 11
-31.143
 20
-39.954
 21
-40.134
  0
LINE
  8
0
 10
-31.143
 11
-31.633
 20
-40.134
 21
-40.171
  0
LINE
  8
0
 10
-31.633
 11
-32.113
 20
-40.171
 21
-40.061
  0
LINE
  8
0
 10
-32.113
 11
-32.539
 20
-40.061
 21
-39.815
  0
LINE
  8
0
 10
-32.539
 11
-32.873
 20
-39.815
 21
-39.455
  0
LINE
  8
0
 10
-32.873
 11
-33.087
 20
-39.455
 21
-39.012
  0
LINE
  8
0
 10
-33.087
 11
-33.16
 20
-39.012
 21
-38.525
  0
LINE
  8
0
 10
-33.142
 11
-33.142
 20
35.429
 21
35.921
  0
LINE
  8
0
 10
-33.142
 11
-32.997
 20
35.921
 21
36.391
  0
LINE
  8
0
 10
-32.997
 11
-32.72
 20
36.391
 21
36.798
  0
LINE
  8
0
 10
-32.72
 11
-32.335
 20
36.798
 21
37.104
  0
LINE
  8
0
 10
-32.335
 11
-31.877
 20
37.104
 21
37.284
  0
LINE
  8
0
 10
-31.877
 11
-31.387
 20
37.284
 21
37.321
  0
LINE
  8
0
 10
-31.387
 11
-30.907
 20
37.321
 21
37.211
  0
LINE
  8
0
 10
-30.907
 11
-30.481
 20
37.211
 21
36.965
  0
LINE
  8
0
 10
-30.481
 11
-30.147
 20
36.965
 21
36.605
  0
LINE
  8
0
 10
-30.147
 11
-29.933
 20
36.605
 21
36.162
  0
LINE
  8
0
 10
-29.933
 11
-29.86
 20
36.162
 21
35.675
  0
LINE
  8
0
 10
-29.86
 11
-29.933
 20
35.675
 21
35.189
  0
LINE
  8
0
 10
-29.933
 11
-30.147
 20
35.189
 21
34.746
  0
LINE
  8
0
 10
-30.147
 11
-30.481
 20
34.746
 21
34.385
  0
LINE
  8
0
 10
-30.481
 11
-30.907
 20
34.385
 21
34.139
  0
LINE
  8
0
 10
-30.907
 11
-31.387
 20
34.139
 21
34.03
  0
LINE
  8
0
 10
-31.387
 11
-31.877
 20
34.03
 21
34.067
  0
LINE
  8
0
 10
-31.877
 11
-32.335
 20
34.067
 21
34.246
  0
LINE
  8
0
 10
-32.335
 11
-32.72
 20
34.246
 21
34.553
  0
LINE
  8
0
 10
-32.72
 11
-32.997
 20
34.553
 21
34.96
  0
LINE
  8
0
 10
-32.997
 11
-33.142
 20
34.96
 21
35.429
  0
LINE
  8
0
 10
-33.142
 11
-33.142
 20
50.079
 21
50.571
  0
LINE
  8
0
 10
-33.142
 11
-32.997
 20
50.571
 21
51.04
  0
LINE
  8
0
 10
-32.997
 11
-32.72
 20
51.04
 21
51.447
  0
LINE
  8
0
 10
-32.72
 11
-32.335
 20
51.447
 21
51.754
  0
LINE
  8
0
 10
-32.335
 11
-31.877
 20
51.754
 21
51.933
  0
LINE
  8
0
 10
-31.877
 11
-31.387
 20
51.933
 21
51.97
  0
LINE
  8
0
 10
-31.387
 11
-30.907
 20
51.97
 21
51.861
  0
LINE
  8
0
 10
-30.907
 11
-30.481
 20
51.861
 21
51.615
  0
LINE
  8
0
 10
-30.481
 11
-30.147
 20
51.615
 21
51.254
  0
LINE
  8
0
 10
-30.147
 11
-29.933
 20
51.254
 21
50.811
  0
LINE
  8
0
 10
-29.933
 11
-29.86
 20
50.811
 21
50.325
  0
LINE
  8
0
 10
-29.86
 11
-29.933
 20
50.325
 21
49.838
  0
LINE
  8
0
 10
-29.933
 11
-30.147
 20
49.838
 21
49.395
  0
LINE
  8
0
 10
-30.147
 11
-30.481
 20
49.395
 21
49.035
  0
LINE
  8
0
 10
-30.481
 11
-30.907
 20
49.035
 21
48.789
  0
LINE
  8
0
 10
-30.907
 11
-31.387
 20
48.789
 21
48.679
  0
LINE
  8
0
 10
-31.387
 11
-31.877
 20
48.679
 21
48.716
  0
LINE
  8
0
 10
-31.877
 11
-32.335
 20
48.716
 21
48.896
  0
LINE
  8
0
 10
-32.335
 11
-32.72
 20
48.896
 21
49.202
  0
LINE
  8
0
 10
-32.72
 11
-32.997
 20
49.202
 21
49.609
  0
LINE
  8
0
 10
-32.997
 11
-33.142
 20
49.609
 21
50.079
  0
LINE
  8
0
 10
-22.292
 11
-22.292
 20
99.554
 21
100.046
  0
LINE
  8
0
 10
-22.292
 11
-22.147
 20
100.046
 21
100.516
  0
LINE
  8
0
 10
-22.147
 11
-21.87
 20
100.516
 21
100.922
  0
LINE
  8
0
 10
-21.87
 11
-21.485
 20
100.922
 21
101.229
  0
LINE
  8
0
 10
-21.485
 11
-21.027
 20
101.229
 21
101.409
  0
LINE
  8
0
 10
-21.027
 11
-20.537
 20
101.409
 21
101.445
  0
LINE
  8
0
 10
-20.537
 11
-20.057
 20
101.445
 21
101.336
  0
LINE
  8
0
 10
-20.057
 11
-19.631
 20
101.336
 21
101.09
  0
LINE
  8
0
 10
-19.631
 11
-19.297
 20
101.09
 21
100.729
  0
LINE
  8
0
 10
-19.297
 11
-19.083
 20
100.729
 21
100.286
  0
LINE
  8
0
 10
-19.083
 11
-19.01
 20
100.286
 21
99.8
  0
LINE
  8
0
 10
-19.01
 11
-19.083
 20
99.8
 21
99.314
  0
LINE
  8
0
 10
-19.083
 11
-19.297
 20
99.314
 21
98.871
  0
LINE
  8
0
 10
-19.297
 11
-19.631
 20
98.871
 21
98.51
  0
LINE
  8
0
 10
-19.631
 11
-20.057
 20
98.51
 21
98.264
  0
LINE
  8
0
 10
-20.057
 11
-20.537
 20
98.264
 21
98.155
  0
LINE
  8
0
 10
-20.537
 11
-21.027
 20
98.155
 21
98.191
  0
LINE
  8
0
 10
-21.027
 11
-21.485
 20
98.191
 21
98.371
  0
LINE
  8
0
 10
-21.485
 11
-21.87
 20
98.371
 21
98.678
  0
LINE
  8
0
 10
-21.87
 11
-22.147
 20
98.678
 21
99.084
  0
LINE
  8
0
 10
-22.147
 11
-22.292
 20
99.084
 21
99.554
  0
LINE
  8
0
 10
19.028
 11
19.028
 20
99.554
 21
100.046
  0
LINE
  8
0
 10
19.028
 11
19.173
 20
100.046
 21
100.516
  0
LINE
  8
0
 10
19.173
 11
19.45
 20
100.516
 21
100.922
  0
LINE
  8
0
 10
19.45
 11
19.835
 20
100.922
 21
101.229
  0
LINE
  8
0
 10
19.835
 11
20.293
 20
101.229
 21
101.409
  0
LINE
  8
0
 10
20.293
 11
20.783
 20
101.409
 21
101.445
  0
LINE
  8
0
 10
20.783
 11
21.263
 20
101.445
 21
101.336
  0
LINE
  8
0
 10
21.263
 11
21.689
 20
101.336
 21
101.09
  0
LINE
  8
0
 10
21.689
 11
22.023
 20
101.09
 21
100.729
  0
LINE
  8
0
 10
22.023
 11
22.237
 20
100.729
 21
100.286
  0
LINE
  8
0
 10
22.237
 11
22.31
 20
100.286
 21
99.8
  0
LINE
  8
0
 10
22.31
 11
22.237
 20
99.8
 21
99.314
  0
LINE
  8
0
 10
22.237
 11
22.023
 20
99.314
 21
98.871
  0
LINE
  8
0
 10
22.023
 11
21.689
 20
98.871
 21
98.51
  0
LINE
  8
0
 10
21.689
 11
21.263
 20
98.51
 21
98.264
  0
LINE
  8
0
 10
21.263
 11
20.783
 20
98.264
 21
98.155
  0
LINE
  8
0
 10
20.783
 11
20.293
 20
98.155
 21
98.191
  0
LINE
  8
0
 10
20.293
 11
19.835
 20
98.191
 21
98.371
  0
LINE
  8
0
 10
19.835
 11
19.45
 20
98.371
 21
98.678
  0
LINE
  8
0
 10
19.45
 11
19.173
 20
98.678
 21
99.084
  0
LINE
  8
0
 10
19.173
 11
19.028
 20
99.084
 21
99.554
  0
LINE
  8
0
 10
69.85
 11
69.923
 20
-10.5
 21
-10.014
  0
LINE
  8
0
 10
69.923
 11
70.137
 20
-10.014
 21
-9.571
  0
LINE
  8
0
 10
70.137
 11
70.471
 20
-9.571
 21
-9.21
  0
LINE
  8
0
 10
70.471
 11
70.897
 20
-9.21
 21
-8.964
  0
LINE
  8
0
 10
70.897
 11
71.377
 20
-8.964
 21
-8.855
  0
LINE
  8
0
 10
71.377
 11
71.867
 20
-8.855
 21
-8.891
  0
LINE
  8
0
 10
71.867
 11
72.325
 20
-8.891
 21
-9.071
  0
LINE
  8
0
 10
72.325
 11
72.71
 20
-9.071
 21
-9.378
  0
LINE
  8
0
 10
72.71
 11
72.987
 20
-9.378
 21
-9.784
  0
LINE
  8
0
 10
72.987
 11
73.132
 20
-9.784
 21
-10.254
  0
LINE
  8
0
 10
73.132
 11
73.132
 20
-10.254
 21
-10.746
  0
LINE
  8
0
 10
73.132
 11
72.987
 20
-10.746
 21
-11.216
  0
LINE
  8
0
 10
72.987
 11
72.71
 20
-11.216
 21
-11.622
  0
LINE
  8
0
 10
72.71
 11
72.325
 20
-11.622
 21
-11.929
  0
LINE
  8
0
 10
72.325
 11
71.867
 20
-11.929
 21
-12.109
  0
LINE
  8
0
 10
71.867
 11
71.377
 20
-12.109
 21
-12.145
  0
LINE
  8
0
 10
71.377
 11
70.897
 20
-12.145
 21
-12.036
  0
LINE
  8
0
 10
70.897
 11
70.471
 20
-12.036
 21
-11.79
  0
LINE
  8
0
 10
70.471
 11
70.137
 20
-11.79
 21
-11.429
  0
LINE
  8
0
 10
70.137
 11
69.923
 20
-11.429
 21
-10.986
  0
LINE
  8
0
 10
69.923
 11
69.85
 20
-10.986
 21
-10.5
  0
LINE
  8
0
 10
100.85
 11
100.923
 20
10.5
 21
10.986
  0
LINE
  8
0
 10
100.923
 11
101.137
 20
10.986
 21
11.429
  0
LINE
  8
0
 10
101.137
 11
101.471
 20
11.429
 21
11.79
  0
LINE
  8
0
 10
101.471
 11
101.897
 20
11.79
 21
12.036
  0
LINE
  8
0
 10
101.897
 11
102.377
 20
12.036
 21
12.145
  0
LINE
  8
0
 10
102.377
 11
102.867
 20
12.145
 21
12.109
  0
LINE
  8
0
 10
102.867
 11
103.325
 20
12.109
 21
11.929
  0
LINE
  8
0
 10
103.325
 11
103.71
 20
11.929
 21
11.622
  0
LINE
  8
0
 10
103.71
 11
103.987
 20
11.622
 21
11.216
  0
LINE
  8
0
 10
103.987
 11
104.132
 20
11.216
 21
10.746
  0
LINE
  8
0
 10
104.132
 11
104.132
 20
10.746
 21
10.254
  0
LINE
  8
0
 10
104.132
 11
103.987
 20
10.254
 21
9.784
  0
LINE
  8
0
 10
103.987
 11
103.71
 20
9.784
 21
9.378
  0
LINE
  8
0
 10
103.71
 11
103.325
 20
9.378
 21
9.071
  0
LINE
  8
0
 10
103.325
 11
102.867
 20
9.071
 21
8.891
  0
LINE
  8
0
 10
102.867
 11
102.377
 20
8.891
 21
8.855
  0
LINE
  8
0
 10
102.377
 11
101.897
 20
8.855
 21
8.964
  0
LINE
  8
0
 10
101.897
 11
101.471
 20
8.964
 21
9.21
  0
LINE
  8
0
 10
101.471
 11
101.137
 20
9.21
 21
9.571
  0
LINE
  8
0
 10
101.137
 11
100.923
 20
9.571
 21
10.014
  0
LINE
  8
0
 10
100.923
 11
100.85
 20
10.014
 21
10.5
  0
LINE
  8
0
 10
103.25
 11
103.345
 20
-104.5
 21
-104.022
  0
LINE
  8
0
 10
103.345
 11
103.616
 20
-104.022
 21
-103.616
  0
LINE
  8
0
 10
103.616
 11
104.022
 20
-103.616
 21
-103.345
  0
LINE
  8
0
 10
104.022
 11
104.5
 20
-103.345
 21
-103.25
  0
LINE
  8
0
 10
104.5
 11
104.978
 20
-103.25
 21
-103.345
  0
LINE
  8
0
 10
104.978
 11
105.384
 20
-103.345
 21
-103.616
  0
LINE
  8
0
 10
105.384
 11
105.655
 20
-103.616
 21
-104.022
  0
LINE
  8
0
 10
105.655
 11
105.75
 20
-104.022
 21
-104.5
  0
LINE
  8
0
 10
105.75
 11
105.655
 20
-104.5
 21
-104.978
  0
LINE
  8
0
 10
105.655
 11
105.384
 20
-104.978
 21
-105.384
  0
LINE
  8
0
 10
105.384
 11
104.978
 20
-105.384
 21
-105.655
  0
LINE
  8
0
 10
104.978
 11
104.5
 20
-105.655
 21
-105.75
  0
LINE
  8
0
 10
104.5
 11
104.022
 20
-105.75
 21
-105.655
  0
LINE
  8
0
 10
104.022
 11
103.616
 20
-105.655
 21
-105.384
  0
LINE
  8
0
 10
103.616
 11
103.345
 20
-105.384
 21
-104.978
  0
LINE
  8
0
 10
103.345
 11
103.25
 20
-104.978
 21
-104.5
  0
LINE
  8
0
 10
103.25
 11
103.345
 20
104.5
 21
104.978
  0
LINE
  8
0
 10
103.345
 11
103.616
 20
104.978
 21
105.384
  0
LINE
  8
0
 10
103.616
 11
104.022
 20
105.384
 21
105.655
  0
LINE
  8
0
 10
104.022
 11
104.5
 20
105.655
 21
105.75
  0
LINE
  8
0
 10
104.5
 11
104.978
 20
105.75
 21
105.655
  0
LINE
  8
0
 10
104.978
 11
105.384
 20
105.655
 21
105.384
  0
LINE
  8
0
 10
105.384
 11
105.655
 20
105.384
 21
104.978
  0
LINE
  8
0
 10
105.655
 11
105.75
 20
104.978
 21
104.5
  0
LINE
  8
0
 10
105.75
 11
105.655
 20
104.5
 21
104.022
  0
LINE
  8
0
 10
105.655
 11
105.384
 20
104.022
 21
103.616
  0
LINE
  8
0
 10
105.384
 11
104.978
 20
103.616
 21
103.345
  0
LINE
  8
0
 10
104.978
 11
104.5
 20
103.345
 21
103.25
  0
LINE
  8
0
 10
104.5
 11
104.022
 20
103.25
 21
103.345
  0
LINE
  8
0
 10
104.022
 11
103.616
 20
103.345
 21
103.616
  0
LINE
  8
0
 10
103.616
 11
103.345
 20
103.616
 21
104.022
  0
LINE
  8
0
 10
103.345
 11
103.25
 20
104.022
 21
104.5
  0
ENDSEC
  0
SECTION
  2
OBJECTS
  0
DICTIONARY
  0
ENDSEC
  0
EOF
