<?xml version="1.0"?>
<svg xmlns="http://www.w3.org/2000/svg" version="1.1" height="226mm" width="202mm" >
 <g style="fill-opacity:1.0; stroke:black; stroke-width:1;">
  <line x1="192.000000mm" y1="216.000000mm" x2="192.000000mm" y2="216.000000mm" />
  <line x1="192.000000mm" y1="216.000000mm" x2="0.000000mm" y2="216.000000mm" />
  <line x1="0.000000mm" y1="216.000000mm" x2="0.000000mm" y2="0.000000mm" />
  <line x1="0.000000mm" y1="0.000000mm" x2="68.740000mm" y2="0.000000mm" />
  <line x1="68.740000mm" y1="0.000000mm" x2="68.740000mm" y2="35.000000mm" />
  <line x1="68.740000mm" y1="35.000000mm" x2="123.260000mm" y2="35.000000mm" />
  <line x1="123.260000mm" y1="35.000000mm" x2="123.260000mm" y2="0.000000mm" />
  <line x1="123.260000mm" y1="0.000000mm" x2="192.000000mm" y2="0.000000mm" />
  <line x1="192.000000mm" y1="0.000000mm" x2="192.000000mm" y2="216.000000mm" />
  <line x1="29.500000mm" y1="180.500000mm" x2="29.500000mm" y2="180.500000mm" />
  <line x1="29.500000mm" y1="180.500000mm" x2="19.500000mm" y2="180.500000mm" />
  <line x1="19.500000mm" y1="180.500000mm" x2="19.500000mm" y2="170.500000mm" />
  <line x1="19.500000mm" y1="170.500000mm" x2="29.500000mm" y2="170.500000mm" />
  <line x1="29.500000mm" y1="170.500000mm" x2="29.500000mm" y2="180.500000mm" />
  <line x1="29.500000mm" y1="24.500000mm" x2="29.500000mm" y2="24.500000mm" />
  <line x1="29.500000mm" y1="24.500000mm" x2="19.500000mm" y2="24.500000mm" />
  <line x1="19.500000mm" y1="24.500000mm" x2="19.500000mm" y2="14.500000mm" />
  <line x1="19.500000mm" y1="14.500000mm" x2="29.500000mm" y2="14.500000mm" />
  <line x1="29.500000mm" y1="14.500000mm" x2="29.500000mm" y2="24.500000mm" />
  <line x1="69.490000mm" y1="166.175000mm" x2="69.490000mm" y2="166.175000mm" />
  <line x1="69.490000mm" y1="166.175000mm" x2="59.490000mm" y2="166.175000mm" />
  <line x1="59.490000mm" y1="166.175000mm" x2="59.490000mm" y2="141.525000mm" />
  <line x1="59.490000mm" y1="141.525000mm" x2="69.490000mm" y2="141.525000mm" />
  <line x1="69.490000mm" y1="141.525000mm" x2="69.490000mm" y2="166.175000mm" />
  <line x1="69.490000mm" y1="77.325000mm" x2="69.490000mm" y2="77.325000mm" />
  <line x1="69.490000mm" y1="77.325000mm" x2="59.490000mm" y2="77.325000mm" />
  <line x1="59.490000mm" y1="77.325000mm" x2="59.490000mm" y2="52.675000mm" />
  <line x1="59.490000mm" y1="52.675000mm" x2="69.490000mm" y2="52.675000mm" />
  <line x1="69.490000mm" y1="52.675000mm" x2="69.490000mm" y2="77.325000mm" />
  <line x1="172.500000mm" y1="123.500000mm" x2="172.500000mm" y2="123.500000mm" />
  <line x1="172.500000mm" y1="123.500000mm" x2="162.500000mm" y2="123.500000mm" />
  <line x1="162.500000mm" y1="123.500000mm" x2="162.500000mm" y2="113.500000mm" />
  <line x1="162.500000mm" y1="113.500000mm" x2="172.500000mm" y2="113.500000mm" />
  <line x1="172.500000mm" y1="113.500000mm" x2="172.500000mm" y2="123.500000mm" />
 </g>
</svg>
